<svg version="1.1" xmlns="http://www.w3.org/2000/svg" style="display: block;" viewBox="0 0 2048 1117" width="1408" height="768" preserveAspectRatio="none">
<defs>
	<linearGradient id="Gradient1" gradientUnits="userSpaceOnUse" x1="1621.35" y1="601.374" x2="1580.91" y2="652.662">
		<stop class="stop0" offset="0" stop-opacity="1" stop-color="rgb(134,135,136)"/>
		<stop class="stop1" offset="1" stop-opacity="1" stop-color="rgb(182,182,182)"/>
	</linearGradient>
</defs>
<path transform="translate(0,0)" fill="rgb(0,0,0)" d="M 0 0 L 2041.81 0 L 2043.59 0 L 2048 0 L 2048 1117 L 515.793 1117 L 513.818 1117 L 0 1117 L 0 0 z"/>
<path transform="translate(0,0)" fill="rgb(254,254,254)" d="M 0 0 L 2041.81 0 C 2036.69 3.62034 2013.96 13.1181 2006.71 16.3666 L 1928.63 51.4885 L 1763.89 126.56 C 1736.68 138.996 1707.63 152.91 1680.21 164.606 C 1685.04 155.982 1690.03 147.444 1695.16 138.996 C 1664.79 153.28 1632.6 167.024 1601.88 180.78 L 1458.19 245.52 C 1431 257.692 1400.89 270.176 1374.44 282.988 C 1371.1 291.981 1368.49 300.957 1365.73 310.131 C 1351.96 313.869 1336.56 317.872 1323.1 322.58 C 1316.31 330.005 1300.33 346.787 1295.4 354.093 C 1289.11 363.406 1280.76 389.078 1276.61 400.625 C 1272.08 403.337 1267.1 406.914 1261.58 406.16 C 1260.19 405.97 1257.9 406.092 1256.68 406.753 C 1216.96 428.247 1176.65 449.256 1137.2 471.214 C 1146.08 439.334 1148.55 432.787 1168.31 404.986 C 1186.64 397 1205.06 389.239 1223.58 381.703 C 1230.14 383.639 1237.37 385.585 1243.72 388.02 C 1241.87 380.522 1237.48 359.294 1233.58 353.505 C 1230.27 348.582 1209.19 330.228 1203.6 326.382 C 1198.14 322.626 1179.99 319.574 1173.33 315.819 C 1158.7 306.844 1142.99 291.132 1129.25 280.204 L 1070.34 273.999 C 1065.82 273.534 1040.97 270.767 1038.14 271.752 C 1000.38 284.911 948.032 305.764 911.579 320.176 C 920.804 327.784 937.852 338.039 948.269 345.42 C 927.26 377.067 903.904 415.404 882.728 445.626 C 867.206 433.75 845.831 419.498 828.809 409.278 C 803.613 394.151 794.329 383.119 773.912 362.472 L 718.833 307.073 C 714.277 302.501 695.659 282.909 691.488 281.114 C 670.897 272.256 643.801 263.873 622.585 256.517 L 471.011 203.81 C 457.38 199.062 443.61 194.473 429.91 189.913 C 391.24 177.043 353.969 157.947 316.79 141.175 L 120.282 52.2633 C 83.8551 35.8181 41.6644 15.9917 4.91624 1.17476 C 26.3599 36.9149 47.4691 72.8547 68.2411 108.989 C 77.1494 124.431 92.4259 152.374 102.262 165.699 C 105.716 170.379 135.163 190.424 143.116 197.231 C 95.7267 186.564 48.2497 176.289 0.690145 166.407 C 38.8596 215.249 87.0171 266.346 127.624 313.436 C 129.958 316.143 190.377 338.379 199.545 342.486 C 163.683 347.893 127.753 352.846 91.7658 357.344 C 107.785 370.192 199.359 445.76 208.6 449.169 C 215.842 451.84 224.51 452.975 232.106 454.521 C 252.739 458.721 274.444 461.852 294.63 467.715 L 213.057 517.443 C 257.394 533.599 305.361 547.114 350.466 562.824 C 365.568 559.214 382.402 554.795 397.479 551.729 C 378.85 575.391 356.636 600.2 339.1 624.248 L 431.82 622.413 C 446.652 622.189 465.67 622.56 480.306 620.827 C 483.937 620.397 497.474 612.127 501.632 609.695 C 490.356 631.964 476.157 653.819 465.207 675.718 C 486.387 671.603 507.604 667.678 528.855 663.944 C 559.405 658.502 562.613 661.532 587.359 641.75 C 588.346 664.757 588.046 688.081 588.41 711.142 C 602.423 705.372 676.105 675.273 683.698 668.278 C 685.624 686.858 687.729 705.418 690.009 723.958 C 713.116 712.121 739.423 699.413 761.97 686.959 C 756.258 707.312 748.944 738.57 742.618 757.611 L 594.426 841.297 C 573.524 853.051 534.908 873.338 515.678 886.3 L 480.2 985.102 C 499.143 985.797 520.923 987.112 539.669 987.015 C 531.044 1029.75 523.035 1074.69 513.818 1117 L 0 1117 L 0 0 z"/>
<path transform="translate(0,0)" fill="rgb(254,254,254)" d="M 2043.59 0 L 2048 0 L 2048 1117 L 515.793 1117 C 544.501 1108.45 587.54 1101.32 618.336 1093.79 C 624.811 1084.69 631.691 1073.9 637.966 1064.52 C 638.035 1076.36 638.181 1088.19 638.407 1100.02 C 665.466 1088.59 693.103 1078.36 719.873 1066.34 C 719.306 1078.86 718.651 1091.37 717.91 1103.87 C 743.852 1083.03 773.342 1057.32 798.081 1034.98 L 804.627 1057.04 C 821.318 1043.81 844.955 1019.68 861.74 1004.46 C 863.838 993.872 865.926 966.442 867.152 954.824 C 870.691 922.644 874.011 890.44 877.113 858.215 C 900.679 847.613 924.178 836.86 947.608 825.958 C 953.966 823.019 979.749 811.477 984.294 808.12 C 992.009 802.421 1010.55 782.259 1017.87 774.314 C 1036.81 753.768 1060.36 732.143 1078.16 711.237 C 1087.21 725.194 1105.62 753.25 1115.56 765.483 C 1126.21 750.404 1138.1 732.003 1148.46 716.397 C 1148.94 715.673 1149.56 710.682 1150.39 708.35 L 1151.74 707.737 C 1160.45 719.673 1165.85 720.607 1178.21 727.996 L 1229.2 758.486 L 1223.64 692.814 L 1237.4 712.85 C 1264.4 723.986 1293.13 735.5 1319.67 747.463 C 1313.71 725.274 1308.03 703.01 1302.62 680.678 C 1304.86 683.987 1313.52 697.482 1315.85 698.715 C 1347.76 715.639 1383.91 729.438 1416.15 745.595 L 1388.67 660.948 C 1396.87 669.145 1412.14 687.737 1420.45 693.358 C 1427.53 698.148 1454.4 705.701 1464.06 708.825 L 1544.9 734.875 C 1524.37 696.718 1503.55 658.72 1482.43 620.882 C 1508.71 632.032 1545.62 651.781 1572.53 664.935 L 1720.12 644.389 C 1681.91 616.485 1639.31 586.829 1602.2 558.374 L 1678.97 569.306 C 1690.88 571.082 1709.92 574.55 1722.42 574.907 C 1725.11 574.983 1730.63 573.448 1733.2 572.536 C 1770.71 559.212 1808.76 547.117 1846.27 533.842 C 1795.42 514.77 1742.17 493.778 1691.64 473.912 C 1720.32 470.259 1749.03 466.775 1777.75 463.461 C 1782.77 462.867 1813.42 459.725 1815.33 458.549 C 1862.89 429.332 1914.12 397.226 1960.37 366.178 C 1906.9 365.497 1853.13 362.032 1799.63 360.783 C 1782.93 360.393 1766.06 359.952 1749.38 359.122 C 1789.63 348.817 1829.82 338.296 1869.95 327.559 C 1881.29 324.55 1903.71 320.508 1913.53 315.593 C 1917.98 313.368 2040.14 185.661 2048 174.597 C 2028.35 179.368 2005.4 183.726 1985.36 188.067 C 1941.45 197.419 1897.63 207.148 1853.89 217.252 C 1881.63 199.63 1912.73 186.123 1940.82 169.103 C 1948.47 164.465 1960.99 140.175 1966.19 131.431 L 2001.59 72.0819 L 2028.84 26.0571 C 2032.85 19.2529 2040.59 6.90798 2043.59 0 z"/>
<path transform="translate(0,0)" fill="rgb(42,163,92)" d="M 891.696 466.015 C 911.821 475.373 931.322 485.441 951.719 494.568 C 961.793 491.544 979.249 489.75 990.471 487.482 C 1006.82 498.072 1022.94 509.023 1038.8 520.327 L 1039.89 520.96 C 1052.55 525.725 1065.16 532.055 1077.09 538.449 C 1088.61 530.118 1104.44 519.918 1114.96 511.425 C 1114.85 515.569 1114.88 521.586 1114.24 525.521 C 1113.8 535.883 1112.17 601.398 1109.68 607.289 C 1101.43 626.671 1093.28 646.097 1085.23 665.565 C 1082.23 672.789 1073.17 696.51 1069.23 701.003 C 1040.56 733.712 1007.64 764.341 978.743 796.9 L 977.71 797.028 L 904.791 831.11 C 895.94 835.227 875.422 845.902 866.956 847.976 C 832.089 856.52 793.055 865.293 757.984 871.986 L 755.576 872.633 C 752.916 859.039 753.497 782.802 755.259 768.416 C 757.961 746.365 772.183 697.769 779.352 675.302 C 782.383 667.097 793.998 645.738 798.333 637.28 C 811.135 612.546 823.675 587.676 835.951 562.675 C 854.39 555.527 879.683 549.197 898.29 541.125 C 899.552 540.577 899.385 539.704 899.688 538.188 C 896.4 517.62 893.399 486.866 891.696 466.015 z"/>
<path transform="translate(0,0)" fill="rgb(117,200,133)" d="M 891.696 466.015 C 911.821 475.373 931.322 485.441 951.719 494.568 C 961.793 491.544 979.249 489.75 990.471 487.482 C 1006.82 498.072 1022.94 509.023 1038.8 520.327 L 1039.89 520.96 C 1052.55 525.725 1065.16 532.055 1077.09 538.449 C 1088.61 530.118 1104.44 519.918 1114.96 511.425 C 1114.85 515.569 1114.88 521.586 1114.24 525.521 C 1113.8 535.883 1112.17 601.398 1109.68 607.289 C 1101.43 626.671 1093.28 646.097 1085.23 665.565 C 1082.23 672.789 1073.17 696.51 1069.23 701.003 C 1040.56 733.712 1007.64 764.341 978.743 796.9 C 980.375 776.243 980.956 755.64 982.335 734.931 C 1004.5 702.151 1025.41 668.613 1048.03 635.735 C 1014.29 614.747 980.334 594.103 946.174 573.806 L 945.279 574.608 C 941.299 566.463 901.571 547.8 899.688 538.188 C 896.4 517.62 893.399 486.866 891.696 466.015 z"/>
<path transform="translate(0,0)" fill="rgb(162,230,173)" d="M 891.696 466.015 C 911.821 475.373 931.322 485.441 951.719 494.568 C 961.793 491.544 979.249 489.75 990.471 487.482 C 1006.82 498.072 1022.94 509.023 1038.8 520.327 C 1033.39 524.377 947.944 572.947 946.149 573.204 L 946.174 573.806 L 945.279 574.608 C 941.299 566.463 901.571 547.8 899.688 538.188 C 896.4 517.62 893.399 486.866 891.696 466.015 z"/>
<path transform="translate(0,0)" fill="rgb(29,131,80)" d="M 891.696 466.015 C 911.821 475.373 931.322 485.441 951.719 494.568 C 950.843 519.321 946.453 549.998 946.149 573.204 L 946.174 573.806 L 945.279 574.608 C 941.299 566.463 901.571 547.8 899.688 538.188 C 896.4 517.62 893.399 486.866 891.696 466.015 z"/>
<path transform="translate(0,0)" fill="rgb(42,163,92)" d="M 1114.96 511.425 C 1114.85 515.569 1114.88 521.586 1114.24 525.521 C 1113.8 535.883 1112.17 601.398 1109.68 607.289 C 1089.4 614.804 1065.63 628.845 1048.63 634.997 C 1046.63 624.632 1046.33 611.044 1045.37 600.445 C 1043.06 574.693 1042.91 546.407 1039.89 520.96 C 1052.55 525.725 1065.16 532.055 1077.09 538.449 C 1088.61 530.118 1104.44 519.918 1114.96 511.425 z"/>
<path transform="translate(0,0)" fill="rgb(162,230,173)" d="M 1048.63 634.997 C 1050.18 630.888 1070.56 593.589 1073.91 587.981 C 1086.06 567.636 1100.8 534.716 1113.46 516.284 C 1114.15 517.975 1114.16 523.369 1114.24 525.521 C 1113.8 535.883 1112.17 601.398 1109.68 607.289 C 1089.4 614.804 1065.63 628.845 1048.63 634.997 z"/>
<path transform="translate(0,0)" fill="rgb(29,131,80)" d="M 779.352 675.302 C 792.903 691.085 810.768 708.692 823.189 724.106 C 840.224 711.208 860.644 700.944 877.523 688.127 L 891.686 763.83 C 921.434 753.071 952.619 745.135 982.335 734.931 C 980.956 755.64 980.375 776.243 978.743 796.9 L 977.71 797.028 L 904.791 831.11 C 895.94 835.227 875.422 845.902 866.956 847.976 C 832.089 856.52 793.055 865.293 757.984 871.986 L 755.576 872.633 C 752.916 859.039 753.497 782.802 755.259 768.416 C 757.961 746.365 772.183 697.769 779.352 675.302 z"/>
<path transform="translate(0,0)" fill="rgb(19,89,55)" d="M 892.14 763.155 C 895.95 764.954 900.534 766.742 904.517 768.229 C 928.883 777.324 953.123 788.721 977.71 797.028 L 904.791 831.11 C 895.94 835.227 875.422 845.902 866.956 847.976 C 832.089 856.52 793.055 865.293 757.984 871.986 C 761.097 868.507 788.859 846.635 794.07 842.378 C 826.558 815.721 859.249 789.313 892.14 763.155 z"/>
<path transform="translate(0,0)" fill="rgb(24,114,73)" d="M 779.352 675.302 C 792.903 691.085 810.768 708.692 823.189 724.106 C 817.972 732.504 755.712 870.46 755.576 872.633 C 752.916 859.039 753.497 782.802 755.259 768.416 C 757.961 746.365 772.183 697.769 779.352 675.302 z"/>
<path transform="translate(0,0)" fill="rgb(19,89,55)" d="M 899.688 538.188 C 901.571 547.8 941.299 566.463 945.279 574.608 L 877.523 688.127 C 860.644 700.944 840.224 711.208 823.189 724.106 C 810.768 708.692 792.903 691.085 779.352 675.302 C 782.383 667.097 793.998 645.738 798.333 637.28 C 811.135 612.546 823.675 587.676 835.951 562.675 C 854.39 555.527 879.683 549.197 898.29 541.125 C 899.552 540.577 899.385 539.704 899.688 538.188 z"/>
<path transform="translate(0,0)" fill="rgb(42,163,92)" d="M 111.817 156.755 C 96.4973 133.951 80.6191 101.868 65.5707 77.7772 C 61.4678 71.209 41.7869 37.388 39.4097 31.8426 L 40.3169 30.9311 L 43.3275 32.6461 C 130.145 70.3257 217.584 111.06 303.896 150.095 L 369.162 179.62 C 405.174 195.938 401.186 191.932 425.174 223.64 C 436.495 238.848 447.988 253.928 459.649 268.877 C 466.865 277.898 472.224 285.764 481.296 293.119 C 492.145 301.915 521.034 313.119 528.28 323.674 L 526.384 325.559 C 515.603 324.146 185.237 212.091 177.694 206.847 C 172.742 203.869 160.845 194.317 155.692 190.378 L 111.817 156.755 z"/>
<path transform="translate(0,0)" fill="rgb(19,89,55)" d="M 162.762 138.666 L 164.139 139.542 L 352.216 222.887 C 386.439 238.164 421.098 253.89 455.558 268.661 C 457.284 269.401 458.072 269.428 459.649 268.877 C 466.865 277.898 472.224 285.764 481.296 293.119 C 492.145 301.915 521.034 313.119 528.28 323.674 L 526.384 325.559 C 515.603 324.146 185.237 212.091 177.694 206.847 C 172.742 203.869 160.845 194.317 155.692 190.378 L 111.817 156.755 C 128.53 150.312 146.482 145.241 162.762 138.666 z"/>
<path transform="translate(0,0)" fill="rgb(29,131,80)" d="M 162.762 138.666 L 164.139 139.542 C 161.915 145.009 180.21 200.744 177.694 206.847 C 172.742 203.869 160.845 194.317 155.692 190.378 L 111.817 156.755 C 128.53 150.312 146.482 145.241 162.762 138.666 z"/>
<path transform="translate(0,0)" fill="rgb(19,89,55)" d="M 111.817 156.755 C 96.4973 133.951 80.6191 101.868 65.5707 77.7772 C 61.4678 71.209 41.7869 37.388 39.4097 31.8426 L 40.3169 30.9311 L 43.3275 32.6461 C 45.1498 36.8176 150.809 129.023 162.762 138.666 C 146.482 145.241 128.53 150.312 111.817 156.755 z"/>
<path transform="translate(0,0)" fill="rgb(117,200,133)" d="M 1038.35 284.773 C 1037.24 292.042 1036.09 297.418 1034.37 304.572 C 1050.02 309.763 1065.7 314.865 1081.4 319.879 C 1093.99 324.183 1110.82 331.884 1123.37 337.261 L 1137.24 342.549 L 1132.56 350.046 C 1128.26 357.779 1123.85 365.454 1119.34 373.067 C 1129.93 380.421 1147.05 391.429 1156.74 398.985 C 1151.8 406.217 1135.93 429.881 1132.86 436.985 C 1127.79 453.687 1121.59 483.809 1115.37 498.247 C 1104.51 506.312 1088.95 517.701 1077.66 524.827 C 1066.57 521.068 1054.52 515.03 1043.99 509.759 C 1027.74 500.151 1008.38 486.62 992.016 476.103 C 985.995 477.134 956.56 481.873 952.542 483.314 C 948.651 481.967 936.537 475.796 932.144 473.681 C 919.16 467.478 906.207 461.209 893.286 454.875 C 894.506 451.577 912.316 424.555 915.313 419.972 L 966.308 341.733 C 956.96 334.995 948.683 329.55 939.013 323.373 C 968.937 312.767 1009.22 297.164 1038.35 284.773 z"/>
<path transform="translate(0,0)" fill="rgb(24,114,73)" d="M 1053.77 412.36 C 1070 404.575 1101.9 383.248 1119.34 373.067 C 1129.93 380.421 1147.05 391.429 1156.74 398.985 C 1151.8 406.217 1135.93 429.881 1132.86 436.985 C 1127.79 453.687 1121.59 483.809 1115.37 498.247 C 1104.51 506.312 1088.95 517.701 1077.66 524.827 C 1066.57 521.068 1054.52 515.03 1043.99 509.759 C 1027.74 500.151 1008.38 486.62 992.016 476.103 C 1005.39 459.355 1040.46 429.764 1051.8 413.097 L 1052.79 412.973 L 1053.77 412.36 z"/>
<path transform="translate(0,0)" fill="rgb(19,89,55)" d="M 1053.77 412.36 C 1070 404.575 1101.9 383.248 1119.34 373.067 C 1129.93 380.421 1147.05 391.429 1156.74 398.985 C 1151.8 406.217 1135.93 429.881 1132.86 436.985 C 1109.53 429.164 1077.02 420.98 1052.82 414.19 L 1052.79 412.973 L 1053.77 412.36 z"/>
<path transform="translate(0,0)" fill="rgb(117,200,133)" d="M 1051.8 413.097 L 1052.79 412.973 L 1052.82 414.19 C 1048.75 430.89 1048.63 469.557 1046.08 488.256 C 1045.37 493.426 1045.38 505.476 1043.99 509.759 C 1027.74 500.151 1008.38 486.62 992.016 476.103 C 1005.39 459.355 1040.46 429.764 1051.8 413.097 z"/>
<path transform="translate(0,0)" fill="rgb(42,163,92)" d="M 1081.4 319.879 C 1093.99 324.183 1110.82 331.884 1123.37 337.261 L 1137.24 342.549 L 1132.56 350.046 C 1128.26 357.779 1123.85 365.454 1119.34 373.067 C 1101.9 383.248 1070 404.575 1053.77 412.36 L 1052.79 412.973 L 1051.8 413.097 C 1045.21 407.409 1006.25 359.841 999.428 350.868 C 1003.45 346.863 1036.66 335.343 1043.56 333.652 C 1056.24 329.229 1068.85 324.638 1081.4 319.879 z"/>
<path transform="translate(0,0)" fill="rgb(117,200,133)" d="M 999.428 350.868 C 1003.45 346.863 1036.66 335.343 1043.56 333.652 C 1054.27 341.383 1070.64 352.461 1080.42 360.576 C 1074.7 370.672 1057.09 402.631 1053.77 412.36 L 1052.79 412.973 L 1051.8 413.097 C 1045.21 407.409 1006.25 359.841 999.428 350.868 z"/>
<path transform="translate(0,0)" fill="rgb(26,32,32)" d="M 1081.4 319.879 C 1093.99 324.183 1110.82 331.884 1123.37 337.261 C 1119.54 339.088 1116 340.771 1112.3 342.832 C 1101.78 348.743 1091.06 354.947 1080.42 360.576 C 1070.64 352.461 1054.27 341.383 1043.56 333.652 C 1056.24 329.229 1068.85 324.638 1081.4 319.879 z"/>
<path transform="translate(0,0)" fill="rgb(24,114,73)" d="M 1123.37 337.261 L 1137.24 342.549 L 1132.56 350.046 C 1124.61 348.03 1119.64 346.302 1112.3 342.832 C 1116 340.771 1119.54 339.088 1123.37 337.261 z"/>
<path transform="translate(0,0)" fill="rgb(29,131,80)" d="M 998.711 350.725 L 999.428 350.868 C 1006.25 359.841 1045.21 407.409 1051.8 413.097 C 1040.46 429.764 1005.39 459.355 992.016 476.103 C 985.995 477.134 956.56 481.873 952.542 483.314 C 954.643 467.497 959.021 455.371 963.831 440.206 C 968.927 427.087 993.216 357.879 998.711 350.725 z"/>
<path transform="translate(0,0)" fill="rgb(42,163,92)" d="M 1034.37 304.572 C 1050.02 309.763 1065.7 314.865 1081.4 319.879 C 1068.85 324.638 1056.24 329.229 1043.56 333.652 C 1036.66 335.343 1003.45 346.863 999.428 350.868 L 998.711 350.725 C 995.162 348.736 972.125 342.842 966.783 341.387 C 989.085 328.708 1012.01 317.159 1034.37 304.572 z"/>
<path transform="translate(0,0)" fill="rgb(42,163,92)" d="M 893.286 454.875 C 905.239 453.2 953.541 443.467 963.831 440.206 C 959.021 455.371 954.643 467.497 952.542 483.314 C 948.651 481.967 936.537 475.796 932.144 473.681 C 919.16 467.478 906.207 461.209 893.286 454.875 z"/>
<path transform="translate(0,0)" fill="rgb(29,131,80)" d="M 39.1809 190.191 L 38.1931 188.869 C 42.7704 187.601 163.44 214.995 178.248 219.313 C 200.633 225.842 250.247 243.512 273.99 251.629 L 440.607 308.328 C 464.004 316.296 491.538 326.776 515.013 333.63 L 508.446 339.203 C 497.338 348.604 486.929 357.479 475.286 366.213 L 303.362 348.426 C 280.242 345.934 253.096 343.955 230.513 339.942 C 225.545 339.06 202.375 329.583 196.566 327.291 L 136.212 303.432 C 126.348 297.102 50.8383 204.904 39.1809 190.191 z"/>
<path transform="translate(0,0)" fill="rgb(117,200,133)" d="M 39.1809 190.191 L 38.1931 188.869 C 42.7704 187.601 163.44 214.995 178.248 219.313 C 200.633 225.842 250.247 243.512 273.99 251.629 L 440.607 308.328 C 464.004 316.296 491.538 326.776 515.013 333.63 L 508.446 339.203 C 495.176 335.321 475.449 331.165 461.644 327.984 L 378.905 309.175 L 166.312 260.74 C 155.526 273.948 146.332 291.154 136.212 303.432 C 126.348 297.102 50.8383 204.904 39.1809 190.191 z"/>
<path transform="translate(0,0)" fill="rgb(42,163,92)" d="M 39.1809 190.191 C 45.4116 191.83 68.628 206.145 76.0779 210.141 C 106.244 226.322 136.2 244.614 166.312 260.74 C 155.526 273.948 146.332 291.154 136.212 303.432 C 126.348 297.102 50.8383 204.904 39.1809 190.191 z"/>
<path transform="translate(0,0)" fill="rgb(42,163,92)" d="M 127.053 368.404 L 125.541 366.509 C 130.044 364.799 225.826 352.151 228.532 352.349 C 250.825 353.978 456.852 372.284 461.594 376.168 C 460.492 379.146 459.83 379.018 457.211 381.237 C 464.646 385.336 472.609 389.923 480.158 393.679 C 494.321 400.583 528.927 417.166 541.06 425.178 C 497.349 431.201 453.695 437.636 410.105 444.483 C 398.288 446.342 317.068 460.52 310.624 457.218 C 296.128 455.482 221.693 440.451 211.435 435.234 C 201.661 430.263 191.818 420.496 183.19 413.572 L 127.053 368.404 z"/>
<path transform="translate(0,0)" fill="rgb(19,89,55)" d="M 480.158 393.679 C 494.321 400.583 528.927 417.166 541.06 425.178 C 497.349 431.201 453.695 437.636 410.105 444.483 C 398.288 446.342 317.068 460.52 310.624 457.218 C 306.809 450.376 249.374 409.902 237.713 398.855 C 288.353 399.752 349.123 396.989 400.266 395.845 C 415.41 395.458 430.557 395.212 445.705 395.107 C 455.44 395.016 471.076 395.227 480.158 393.679 z"/>
<path transform="translate(0,0)" fill="rgb(24,114,73)" d="M 127.053 368.404 C 131.339 368.325 230.866 395.324 237.713 398.855 C 249.374 409.902 306.809 450.376 310.624 457.218 C 296.128 455.482 221.693 440.451 211.435 435.234 C 201.661 430.263 191.818 420.496 183.19 413.572 L 127.053 368.404 z"/>
<path transform="translate(0,0)" fill="rgb(254,254,254)" d="M 2006.67 30.7266 L 2009.66 29.0156 L 2010.75 29.5426 C 2009.56 33.3751 1992.03 61.8112 1988.66 67.4123 C 1971 96.6892 1953.87 126.748 1936.09 155.881 C 1920.64 153.088 1904.42 150.964 1888.83 148.795 C 1881.86 147.824 1867.74 145.532 1861.11 145.542 L 1775.25 183.851 L 1762.65 214.735 L 1748.87 219.641 C 1707.83 238.401 1656.32 257.167 1614.02 274.511 C 1624.96 253.692 1642.85 224.44 1655.33 204.043 C 1658.62 197.703 1662.4 191.771 1666.15 185.694 C 1699.32 169.182 1741.87 151.38 1776.48 135.56 L 2006.67 30.7266 z"/>
<path transform="translate(0,0)" fill="rgb(117,118,119)" d="M 1772.71 151.35 C 1774.23 157.888 1750.79 207.318 1748.87 219.641 C 1707.83 238.401 1656.32 257.167 1614.02 274.511 C 1624.96 253.692 1642.85 224.44 1655.33 204.043 C 1658.76 205.094 1687.94 190.472 1693.69 187.8 L 1772.71 151.35 z"/>
<path transform="translate(0,0)" fill="rgb(117,118,119)" d="M 2006.67 30.7266 L 2009.66 29.0156 L 2010.75 29.5426 C 2009.56 33.3751 1992.03 61.8112 1988.66 67.4123 C 1971 96.6892 1953.87 126.748 1936.09 155.881 C 1920.64 153.088 1904.42 150.964 1888.83 148.795 C 1881.86 147.824 1867.74 145.532 1861.11 145.542 L 1862.4 145.323 C 1866.15 143.964 2003.67 35.5063 2006.67 30.7266 z"/>
<path transform="translate(0,0)" fill="rgb(164,166,167)" d="M 1876.07 103.526 C 1871.89 117.142 1867.35 132.053 1862.4 145.323 L 1861.11 145.542 L 1775.25 183.851 L 1762.65 214.735 L 1748.87 219.641 C 1750.79 207.318 1774.23 157.888 1772.71 151.35 C 1777.2 148.435 1800.28 138.38 1806.63 135.484 L 1876.07 103.526 z"/>
<path transform="translate(0,0)" fill="rgb(19,89,55)" d="M 553.88 982.737 C 598.213 942.79 647.637 905.607 692.653 866.186 C 708.546 852.268 726.562 836.148 743.224 823.571 L 743.222 850.706 C 743.398 860.51 743.403 870.899 743.818 880.646 L 657.577 1010.61 C 645.737 1028.53 622.412 1066.12 609.664 1082.37 C 599.222 1084.02 535.319 1099.77 531.588 1098.11 C 538.406 1061.35 548.409 1018.89 553.88 982.737 z"/>
<path transform="translate(0,0)" fill="rgb(29,131,80)" d="M 743.222 850.706 C 743.398 860.51 743.403 870.899 743.818 880.646 L 657.577 1010.61 C 645.737 1028.53 622.412 1066.12 609.664 1082.37 C 599.222 1084.02 535.319 1099.77 531.588 1098.11 C 534.622 1095.23 545.037 1081.48 548.301 1077.47 C 561.802 1060.86 575.448 1044.36 589.239 1027.98 L 743.222 850.706 z"/>
<path transform="translate(0,0)" fill="rgb(162,230,173)" d="M 685.303 292.933 C 693.709 299.454 706.685 313.711 714.765 321.727 C 740.364 347.123 765.467 373.624 791.34 398.725 C 798.996 406.153 814.279 415.429 823.413 421.499 C 841.611 433.593 859.338 444.804 876.986 457.806 C 879.207 459.547 880.633 460.233 880.721 463.368 C 881.343 485.607 887.191 512.196 887.239 533.879 C 869.856 539.83 851.872 546.066 834.236 551.064 C 822.38 540.097 809.749 528.762 798.69 517.093 C 764.471 483.241 728.147 450.984 693.693 417.313 C 683.826 407.671 673.751 397.683 663.427 388.588 C 669.199 384.926 693.234 366.69 696.315 361.04 L 696.866 360.983 C 694.072 342.799 686.457 308.971 685.303 292.933 z"/>
<path transform="translate(0,0)" fill="rgb(29,131,80)" d="M 795.795 456.207 C 807.229 456.556 871.23 459.05 876.986 457.806 C 879.207 459.547 880.633 460.233 880.721 463.368 C 881.343 485.607 887.191 512.196 887.239 533.879 C 869.856 539.83 851.872 546.066 834.236 551.064 C 822.38 540.097 809.749 528.762 798.69 517.093 C 800.077 503.541 795.174 473.348 794.414 458.61 C 794.96 457.903 795.423 457.302 795.804 456.807 L 795.795 456.207 z"/>
<path transform="translate(0,0)" fill="rgb(117,200,133)" d="M 795.795 456.207 C 807.229 456.556 871.23 459.05 876.986 457.806 C 879.207 459.547 880.633 460.233 880.721 463.368 C 881.343 485.607 887.191 512.196 887.239 533.879 C 878.358 526.914 866.182 515.719 857.16 508.142 L 795.804 456.807 L 795.795 456.207 z"/>
<path transform="translate(0,0)" fill="rgb(42,163,92)" d="M 696.315 361.04 L 696.866 360.983 L 760.717 423.01 C 770.575 432.544 785.541 447.748 795.795 456.207 L 795.804 456.807 C 795.423 457.302 794.96 457.903 794.414 458.61 C 795.174 473.348 800.077 503.541 798.69 517.093 C 764.471 483.241 728.147 450.984 693.693 417.313 C 683.826 407.671 673.751 397.683 663.427 388.588 C 669.199 384.926 693.234 366.69 696.315 361.04 z"/>
<path transform="translate(0,0)" fill="rgb(164,166,167)" d="M 1735.22 371.861 C 1755.92 373.646 1781.14 373.861 1802.23 374.537 C 1840.49 375.649 1878.74 377.005 1916.98 378.607 L 1898.29 389.906 C 1885.92 398.075 1854.23 419.689 1842.2 426.044 C 1837.17 429.488 1815.17 444.841 1811.57 445.351 C 1793.89 447.855 1693.26 462.033 1681.82 459.737 C 1645.09 452.363 1600.34 441.974 1565.28 434.215 L 1521.62 424.589 C 1515.83 423.35 1509.65 422.83 1504.02 421.226 C 1496.98 419.22 1498.63 416.552 1499.72 411.366 L 1491.59 405.383 C 1563.98 404.403 1639.71 401.414 1712.19 399.118 C 1719.67 389.864 1727.35 380.776 1735.22 371.861 z"/>
<path transform="translate(0,0)" fill="rgb(117,118,119)" d="M 1499.72 411.366 L 1675.46 407.95 L 1666.67 423.87 C 1725.19 423.883 1783.7 424.608 1842.2 426.044 C 1837.17 429.488 1815.17 444.841 1811.57 445.351 C 1793.89 447.855 1693.26 462.033 1681.82 459.737 C 1645.09 452.363 1600.34 441.974 1565.28 434.215 L 1521.62 424.589 C 1515.83 423.35 1509.65 422.83 1504.02 421.226 C 1496.98 419.22 1498.63 416.552 1499.72 411.366 z"/>
<path transform="translate(0,0)" fill="rgb(254,254,254)" d="M 1735.22 371.861 C 1755.92 373.646 1781.14 373.861 1802.23 374.537 C 1840.49 375.649 1878.74 377.005 1916.98 378.607 L 1898.29 389.906 C 1882.41 388.325 1864.59 388.609 1848.44 387.897 C 1812.32 386.304 1775.64 386.026 1739.58 384.337 L 1718.76 406.831 C 1704.33 407.403 1689.9 407.776 1675.46 407.95 L 1499.72 411.366 L 1491.59 405.383 C 1563.98 404.403 1639.71 401.414 1712.19 399.118 C 1719.67 389.864 1727.35 380.776 1735.22 371.861 z"/>
<path transform="translate(0,0)" fill="rgb(29,131,80)" d="M 425.19 205.287 L 423.407 202.884 L 424.393 202.239 C 442.085 207.616 681.716 289.884 685.303 292.933 C 686.457 308.971 694.072 342.799 696.866 360.983 L 696.315 361.04 C 693.234 366.69 669.199 384.926 663.427 388.588 C 623.534 363.3 579.364 339.609 538.918 314.655 C 522.345 304.431 498.732 293.112 483.965 280.938 C 478.684 276.584 464.706 257.868 460.158 251.901 L 425.19 205.287 z"/>
<path transform="translate(0,0)" fill="rgb(117,200,133)" d="M 425.19 205.287 L 423.407 202.884 L 424.393 202.239 C 442.085 207.616 681.716 289.884 685.303 292.933 C 686.457 308.971 694.072 342.799 696.866 360.983 L 696.315 361.04 L 513.48 254.516 C 494.673 243.459 475.77 232.565 456.775 221.834 C 448.377 217.089 433.823 208.35 425.19 205.287 z"/>
<path transform="translate(0,0)" fill="rgb(117,200,133)" d="M 247.602 514.829 C 246.251 514.5 246.589 514.485 245.381 513.512 C 247.708 510.669 315.007 470.429 320.881 469.171 C 342.321 464.582 373.837 460.781 396.28 457.313 L 489.823 442.988 C 507.903 440.221 532.383 435.971 550.14 434.552 C 547.548 439.79 544.332 445.064 541.375 450.132 C 536.579 458.909 531.591 467.579 526.415 476.136 C 535.032 477.797 543.724 479.553 552.397 480.838 C 508.518 499.578 462.872 516.044 418.382 533.298 C 399.885 540.471 369.221 542.077 352.486 549.468 C 326.765 541.857 301.057 531.871 275.296 524.173 C 266.214 521.459 256.491 518.164 247.602 514.829 z"/>
<path transform="translate(0,0)" fill="rgb(29,131,80)" d="M 358.342 510.582 C 378.388 504.539 401.214 496.297 421.368 489.57 C 461.303 476.22 501.306 463.074 541.375 450.132 C 536.579 458.909 531.591 467.579 526.415 476.136 C 535.032 477.797 543.724 479.553 552.397 480.838 C 508.518 499.578 462.872 516.044 418.382 533.298 C 399.885 540.471 369.221 542.077 352.486 549.468 C 353.586 537.976 356.667 522.547 358.342 510.582 z"/>
<path transform="translate(0,0)" fill="rgb(42,163,92)" d="M 247.602 514.829 C 277.918 510.933 326.675 511.54 358.342 510.582 C 356.667 522.547 353.586 537.976 352.486 549.468 C 326.765 541.857 301.057 531.871 275.296 524.173 C 266.214 521.459 256.491 518.164 247.602 514.829 z"/>
<path transform="translate(0,0)" fill="rgb(117,118,119)" d="M 1491.44 437.789 C 1492.78 434.177 1492.84 432.061 1495.49 430.043 C 1507.3 431.857 1519.98 435.803 1530.89 437.347 C 1534.04 438.048 1537.22 438.033 1538.51 440.857 C 1541.7 447.896 1543.07 459.624 1544.44 467.266 C 1576.89 477.755 1617.68 489.081 1648.88 500.718 C 1659.31 495.004 1669.8 489.429 1680.37 483.997 C 1721.68 500.958 1765.44 516.352 1807.35 533.083 L 1785.11 540.647 C 1765.95 546.722 1741.19 555.154 1722.48 562.562 L 1684.71 556.574 C 1661.56 554.004 1637.99 550.33 1614.87 547.115 C 1598.45 543.824 1578.29 545.016 1564.16 535.35 C 1527.53 510.291 1491.72 483.727 1454.88 459.078 L 1461.55 451.127 L 1485.24 454.122 L 1491.44 437.789 z"/>
<path transform="translate(0,0)" fill="rgb(254,254,254)" d="M 1530.89 437.347 C 1534.04 438.048 1537.22 438.033 1538.51 440.857 C 1541.7 447.896 1543.07 459.624 1544.44 467.266 C 1576.89 477.755 1617.68 489.081 1648.88 500.718 C 1659.31 495.004 1669.8 489.429 1680.37 483.997 C 1721.68 500.958 1765.44 516.352 1807.35 533.083 L 1785.11 540.647 C 1765.95 546.722 1741.19 555.154 1722.48 562.562 L 1684.71 556.574 C 1678.04 546.517 1660.94 525.74 1652.75 517.13 C 1645.85 514.139 1637.56 511.279 1630.42 508.733 C 1599.94 497.861 1569.41 486.038 1538.64 476.087 L 1532.27 445.706 C 1531.24 442.561 1530.19 440.52 1530.89 437.347 z"/>
<path transform="translate(0,0)" fill="rgb(164,166,167)" d="M 1682.48 502.361 C 1716.51 515.414 1750.96 527.358 1785.11 540.647 C 1765.95 546.722 1741.19 555.154 1722.48 562.562 L 1684.71 556.574 C 1678.04 546.517 1660.94 525.74 1652.75 517.13 C 1662.69 512.265 1672.6 507.343 1682.48 502.361 z"/>
<path transform="translate(0,0)" fill="rgb(117,118,119)" d="M 1491.44 437.789 C 1492.78 434.177 1492.84 432.061 1495.49 430.043 C 1507.3 431.857 1519.98 435.803 1530.89 437.347 C 1530.19 440.52 1531.24 442.561 1532.27 445.706 C 1519.98 445.103 1503.67 440.753 1491.44 437.789 z"/>
<path transform="translate(0,0)" fill="rgb(164,166,167)" d="M 1499.74 370.209 C 1499.12 367.384 1498.59 366.005 1499.46 363.181 C 1500.51 361.863 1501.05 361.405 1502.63 360.774 L 1695.71 284.514 C 1741.16 266.483 1787.01 244.482 1835 235.003 C 1851.95 231.656 1869.36 227.385 1886.28 223.652 C 1883.19 228.21 1879.71 232.974 1876.51 237.496 C 1869.87 247.713 1863.61 257.397 1856.43 267.267 C 1845.66 270.45 1767.15 291.931 1763.42 294.491 C 1755.33 311.441 1747.5 328.511 1739.92 345.695 C 1715.59 347.678 1503.43 372.898 1499.74 370.209 z"/>
<path transform="translate(0,0)" fill="rgb(117,118,119)" d="M 1583.14 352.079 C 1591.32 350.246 1605.86 345.214 1614.23 342.589 C 1636.01 335.814 1657.71 328.827 1679.35 321.629 C 1706.04 312.892 1737.62 304.436 1763.42 294.491 C 1755.33 311.441 1747.5 328.511 1739.92 345.695 C 1715.59 347.678 1503.43 372.898 1499.74 370.209 C 1529.41 360.776 1559.38 346.806 1589.12 336.381 C 1588.07 341.466 1585.26 347.233 1583.14 352.079 z"/>
<path transform="translate(0,0)" fill="rgb(254,254,254)" d="M 1499.74 370.209 C 1499.12 367.384 1498.59 366.005 1499.46 363.181 C 1500.51 361.863 1501.05 361.405 1502.63 360.774 L 1695.71 284.514 C 1741.16 266.483 1787.01 244.482 1835 235.003 C 1851.95 231.656 1869.36 227.385 1886.28 223.652 C 1883.19 228.21 1879.71 232.974 1876.51 237.496 C 1850.59 242.764 1809.87 249.574 1786.44 259.257 C 1722.11 285.842 1652.66 308.61 1589.12 336.381 C 1559.38 346.806 1529.41 360.776 1499.74 370.209 z"/>
<path transform="translate(0,0)" fill="rgb(42,163,92)" d="M 572.397 484.068 C 580.569 485.374 588.928 487.001 597.088 488.49 C 607.195 490.18 624.04 492.509 633.337 495.404 C 636.132 499.548 630.993 506.03 627.664 508.459 C 590.597 535.502 553.872 564.026 514.559 587.707 C 502.727 594.834 488.542 600.625 477.364 607.773 C 470.498 609.678 379.988 611.07 368.513 610.657 L 367.629 609.611 L 369.161 607.717 C 374.674 600.467 418.705 546.004 422.363 544.302 C 460.622 526.506 534.117 500.656 572.397 484.068 z"/>
<path transform="translate(0,0)" fill="rgb(19,89,55)" d="M 597.088 488.49 C 607.195 490.18 624.04 492.509 633.337 495.404 C 636.132 499.548 630.993 506.03 627.664 508.459 C 590.597 535.502 553.872 564.026 514.559 587.707 C 502.727 594.834 488.542 600.625 477.364 607.773 C 479.448 591.987 483.09 575.122 484.309 559.419 C 504.793 547.531 527.529 532.059 548.117 519.634 C 559.534 512.745 587.307 495.979 597.088 488.49 z"/>
<path transform="translate(0,0)" fill="rgb(29,131,80)" d="M 369.161 607.717 C 372.904 608.694 401.362 594.827 406.699 592.477 C 432.398 581.06 458.271 570.039 484.309 559.419 C 483.09 575.122 479.448 591.987 477.364 607.773 C 470.498 609.678 379.988 611.07 368.513 610.657 L 367.629 609.611 L 369.161 607.717 z"/>
<path transform="translate(0,0)" fill="rgb(164,166,167)" d="M 1591.49 200.059 L 1663.99 167.635 C 1660.25 174.288 1657.02 179.93 1652.81 186.284 C 1643.26 202.576 1598.89 282.575 1589.79 290.673 C 1581.66 297.912 1544.72 314.159 1532.72 319.082 L 1433.15 366.364 C 1427.31 363.175 1384.17 340.053 1380.8 337.137 C 1376.69 335.476 1376.23 337.635 1372.55 335.396 C 1373.55 326.827 1381.98 302.627 1384.74 292.692 C 1395.7 288.016 1406.63 283.235 1417.51 278.352 L 1432.5 285.246 C 1435.06 285.793 1464.09 298.007 1468.29 299.743 C 1503.83 284.401 1541.14 267.669 1576.31 251.491 C 1580.16 239.594 1583.79 226.355 1587.35 214.28 L 1591.49 200.059 z"/>
<path transform="translate(0,0)" fill="rgb(117,118,119)" d="M 1422.87 306.852 C 1427.86 305.243 1430.46 304.17 1435.2 301.915 C 1467.83 306.883 1500.35 312.607 1532.72 319.082 L 1433.15 366.364 C 1427.31 363.175 1384.17 340.053 1380.8 337.137 C 1382.45 334.561 1390.87 313.489 1392.63 309.192 C 1394.62 312.541 1399.51 321.933 1402.88 323.027 C 1404.29 326.206 1405.2 327.317 1407.21 330.033 C 1408.37 330.828 1409.65 331.24 1410.96 331.753 C 1415.49 329.213 1418.61 314.541 1422.36 307.766 L 1422.87 306.852 z"/>
<path transform="translate(0,0)" fill="rgb(254,254,254)" d="M 1417.51 278.352 L 1432.5 285.246 C 1424.69 290.13 1404.87 298.377 1395.8 302.298 C 1395.14 303.697 1392.99 307.969 1392.63 309.192 C 1390.87 313.489 1382.45 334.561 1380.8 337.137 C 1376.69 335.476 1376.23 337.635 1372.55 335.396 C 1373.55 326.827 1381.98 302.627 1384.74 292.692 C 1395.7 288.016 1406.63 283.235 1417.51 278.352 z"/>
<path transform="translate(0,0)" fill="rgb(254,254,254)" d="M 1591.49 200.059 L 1663.99 167.635 C 1660.25 174.288 1657.02 179.93 1652.81 186.284 C 1643.02 189.868 1592.13 214.153 1587.35 214.28 L 1591.49 200.059 z"/>
<path transform="translate(0,0)" fill="rgb(77,77,77)" d="M 1402.88 323.027 C 1404.4 318.878 1405.7 313.938 1409.03 311.222 L 1410.93 310.679 C 1415 316.941 1410.21 324.236 1407.21 330.033 C 1405.2 327.317 1404.29 326.206 1402.88 323.027 z"/>
<path transform="translate(0,0)" fill="rgb(42,163,92)" d="M 527.398 894.374 C 533.86 890.999 540.279 887.079 546.675 883.535 C 612.495 847.069 677.565 808.864 743.556 772.738 C 743.601 783.092 743.787 793.444 744.113 803.792 C 743.461 807.444 743.631 808.142 740.617 810.915 C 722.503 827.578 702.443 843.727 683.567 859.484 L 574.893 950.907 C 565.598 958.572 556.368 966.316 547.205 974.138 C 537.559 973.785 508.805 973.233 500.91 971.837 L 500.084 970.753 L 500.45 969.712 C 504.838 955.702 510.792 940.414 515.472 926.349 C 517.965 918.857 523.982 900.744 527.398 894.374 z"/>
<path transform="translate(0,0)" fill="rgb(117,200,133)" d="M 527.398 894.374 C 536.613 897.636 571.231 909.906 578.188 914.178 C 577.241 925.751 575.511 939.643 574.893 950.907 C 565.598 958.572 556.368 966.316 547.205 974.138 C 537.559 973.785 508.805 973.233 500.91 971.837 L 500.084 970.753 L 500.45 969.712 C 504.838 955.702 510.792 940.414 515.472 926.349 C 517.965 918.857 523.982 900.744 527.398 894.374 z"/>
<path transform="translate(0,0)" fill="rgb(42,163,92)" d="M 500.45 969.712 C 504.467 969.738 523.671 953.946 527.845 950.86 L 578.188 914.178 C 577.241 925.751 575.511 939.643 574.893 950.907 C 565.598 958.572 556.368 966.316 547.205 974.138 C 537.559 973.785 508.805 973.233 500.91 971.837 L 500.084 970.753 L 500.45 969.712 z"/>
<path transform="translate(0,0)" fill="rgb(24,114,73)" d="M 578.188 914.178 C 618.02 889.313 659.406 858.114 699.359 832.692 C 714.058 823.339 728.748 812.026 744.113 803.792 C 743.461 807.444 743.631 808.142 740.617 810.915 C 722.503 827.578 702.443 843.727 683.567 859.484 L 574.893 950.907 C 575.511 939.643 577.241 925.751 578.188 914.178 z"/>
<path transform="translate(0,0)" fill="url(#Gradient1)" d="M 1432.16 501.134 L 1444.79 493.476 L 1557.64 577.51 C 1572.09 576.51 1587.29 575.248 1601.71 574.591 C 1627.86 593.362 1660.79 615.776 1685.6 635.512 L 1675.61 637.503 C 1668.82 638.718 1655.88 639.868 1648.33 640.902 C 1623.75 644.186 1599.2 647.659 1574.67 651.32 C 1569.63 635.85 1560.26 604.672 1553.81 591.253 C 1541.89 583.186 1528.94 573.202 1517.25 564.553 C 1499.71 574.415 1482.1 584.182 1464.45 593.854 C 1459.02 586.152 1448.85 566.768 1444.04 558.081 L 1409.11 495.52 L 1420.67 506.974 L 1432.16 501.134 z"/>
<path transform="translate(0,0)" fill="rgb(117,118,119)" d="M 1409.11 495.52 L 1420.67 506.974 L 1432.16 501.134 C 1458.55 520.456 1492.23 544.253 1517.25 564.553 C 1499.71 574.415 1482.1 584.182 1464.45 593.854 C 1459.02 586.152 1448.85 566.768 1444.04 558.081 L 1409.11 495.52 z"/>
<path transform="translate(0,0)" fill="rgb(254,254,254)" d="M 1432.16 501.134 L 1444.79 493.476 L 1557.64 577.51 C 1572.09 576.51 1587.29 575.248 1601.71 574.591 C 1627.86 593.362 1660.79 615.776 1685.6 635.512 L 1675.61 637.503 C 1667.46 637.851 1654.79 626.198 1647.7 621.023 L 1599.03 585.628 C 1583.96 587.615 1568.9 589.198 1553.81 591.253 C 1541.89 583.186 1528.94 573.202 1517.25 564.553 C 1492.23 544.253 1458.55 520.456 1432.16 501.134 z"/>
<path transform="translate(0,0)" fill="rgb(19,89,55)" d="M 786.169 878.298 L 789.583 877.951 L 790.157 879.343 C 782.989 893.125 773.396 916.46 766.792 931.112 L 711.106 1055.69 C 692.596 1063.49 673.96 1070.99 655.207 1078.19 C 654.167 1078.66 653.97 1078.44 652.636 1078.39 C 650.244 1072.54 651.107 1046.89 651.169 1039.29 C 685.472 991.003 720.646 934.436 754.053 884.816 C 764.164 883.191 776.005 880.455 786.169 878.298 z"/>
<path transform="translate(0,0)" fill="rgb(42,163,92)" d="M 539.305 327.611 C 567.935 344.021 608.131 366.491 635.195 384.293 C 656.251 395.782 658.472 398.301 676.046 414.861 C 656.809 416.026 572.908 424.909 561.094 421.841 C 549.16 418.742 536.589 410.698 525.66 404.986 C 509.554 396.497 493.384 388.132 477.15 379.892 C 478.755 375.878 531.798 333.753 539.305 327.611 z"/>
<path transform="translate(0,0)" fill="rgb(162,230,173)" d="M 539.305 327.611 C 567.935 344.021 608.131 366.491 635.195 384.293 C 632.172 384.581 629.426 384.519 626.408 384.401 C 576.704 382.443 526.838 381.898 477.15 379.892 C 478.755 375.878 531.798 333.753 539.305 327.611 z"/>
<path transform="translate(0,0)" fill="rgb(117,200,133)" d="M 491.533 655.633 C 498.871 640.492 516.466 610.645 525.778 596.408 C 528.586 592.115 555.718 573.267 562.558 568.356 L 629.703 520.292 C 627.767 530.885 625.91 542.085 623.421 552.513 C 639.532 550.464 662.009 545.167 678.297 541.671 C 637.015 577.818 608.119 610.907 562.955 644.1 C 555.66 645.934 493.478 657.358 491.517 656.207 L 491.533 655.633 z"/>
<path transform="translate(0,0)" fill="rgb(29,131,80)" d="M 623.421 552.513 C 639.532 550.464 662.009 545.167 678.297 541.671 C 637.015 577.818 608.119 610.907 562.955 644.1 C 563.385 631.392 565.051 616.618 566.173 603.792 C 579.907 591.156 609.397 562.386 623.421 552.513 z"/>
<path transform="translate(0,0)" fill="rgb(42,163,92)" d="M 566.173 603.792 C 565.051 616.618 563.385 631.392 562.955 644.1 C 555.66 645.934 493.478 657.358 491.517 656.207 L 491.533 655.633 C 493.874 655.19 557.168 609.662 566.173 603.792 z"/>
<path transform="translate(0,0)" fill="rgb(24,114,73)" d="M 694.959 539.265 L 695.258 566.903 L 696.01 583.142 C 707.3 578.241 726.016 569.391 737.174 565.489 C 719.441 592.873 693.75 632.86 673.776 658.25 C 670.777 662.062 611.313 687.721 603.001 690.438 L 601.852 689.452 C 601.256 669.059 600.886 648.661 600.743 628.261 C 629.89 598.603 666.122 569.386 694.959 539.265 z"/>
<path transform="translate(0,0)" fill="rgb(42,163,92)" d="M 694.959 539.265 L 695.258 566.903 C 674.41 595.556 651.716 623.822 630.433 652.247 C 624.881 659.661 606.728 685.61 601.852 689.452 C 601.256 669.059 600.886 648.661 600.743 628.261 C 629.89 598.603 666.122 569.386 694.959 539.265 z"/>
<path transform="translate(0,0)" fill="rgb(24,114,73)" d="M 750.538 564.834 C 751.874 572.99 751.896 590.178 757.394 594.697 L 761.88 593.748 C 766.174 590.736 812.556 571.247 820.631 567.773 C 803.924 601.157 787.005 634.435 769.877 667.604 C 750.857 678.297 724.425 692.135 704.678 701.306 C 703.365 702.488 703.272 702.338 701.505 702.717 C 699.314 697.556 695.872 656.034 694.714 647.34 C 711.867 625.085 734.537 588.908 750.538 564.834 z"/>
<path transform="translate(0,0)" fill="rgb(42,163,92)" d="M 750.538 564.834 C 751.874 572.99 751.896 590.178 757.394 594.697 L 761.88 593.748 C 757.016 609.703 740.233 649.991 732.247 665.802 C 729.475 671.289 709.874 691.347 704.678 701.306 C 703.365 702.488 703.272 702.338 701.505 702.717 C 699.314 697.556 695.872 656.034 694.714 647.34 C 711.867 625.085 734.537 588.908 750.538 564.834 z"/>
<path transform="translate(0,0)" fill="rgb(117,118,119)" d="M 1380.09 515 C 1382.63 508.535 1387.01 491.202 1394.64 492.987 C 1397.31 495.207 1398.33 498.104 1399.81 501.263 L 1385.72 539.457 L 1416.46 592.318 C 1419.23 597.072 1430.21 615.464 1431.45 619.116 C 1431.02 619.724 1430.5 620.452 1429.9 621.3 C 1430.92 626.868 1431.81 633.967 1432.24 639.401 L 1439.83 653.273 C 1437.05 663.72 1434.09 674.122 1430.97 684.474 C 1429.31 683.7 1427.73 682.283 1426.36 681.069 C 1417.39 673.088 1381.26 635.438 1375.59 626.541 C 1370.8 619.038 1334.19 510.927 1333.6 500.053 C 1333.54 498.857 1333.72 499.006 1334.46 498.167 C 1335.94 499.786 1335.58 501.92 1335.8 504.59 C 1338.91 508.475 1353.56 510.093 1359.67 511.477 L 1380.09 515 z"/>
<path transform="translate(0,0)" fill="rgb(164,166,167)" d="M 1380.09 515 C 1382.63 508.535 1387.01 491.202 1394.64 492.987 C 1397.31 495.207 1398.33 498.104 1399.81 501.263 L 1385.72 539.457 L 1416.46 592.318 C 1419.23 597.072 1430.21 615.464 1431.45 619.116 C 1431.02 619.724 1430.5 620.452 1429.9 621.3 C 1430.92 626.868 1431.81 633.967 1432.24 639.401 C 1429.08 635.721 1407.72 597.792 1404.04 591.44 L 1372.42 536.625 C 1368.08 529.144 1362.25 520.523 1358.53 512.978 L 1359.67 511.477 L 1380.09 515 z"/>
<path transform="translate(0,0)" fill="rgb(42,163,92)" d="M 563.517 433.646 L 684.386 423.849 L 692.968 431.659 L 718.284 455.844 C 693.116 465.588 666.31 476.175 640.91 485.147 C 608.835 479.74 576.796 474.12 544.795 468.286 C 545.141 464.601 560.577 438.796 563.517 433.646 z"/>
<path transform="translate(0,0)" fill="rgb(162,230,173)" d="M 563.517 433.646 L 684.386 423.849 L 692.968 431.659 C 684.501 434.546 674.122 437 665.305 439.106 C 625.202 448.687 585.003 459.242 544.795 468.286 C 545.141 464.601 560.577 438.796 563.517 433.646 z"/>
<path transform="translate(0,0)" fill="rgb(117,118,119)" d="M 1297.74 567.434 L 1300.14 558.112 C 1301.07 560.304 1304.06 565.428 1304.29 566.065 C 1307.7 564.866 1308.84 565.898 1314.25 563.457 C 1317.11 570.111 1318.91 575.635 1321.15 582.517 L 1345.78 659.376 C 1356.19 663.789 1367.55 668.878 1378.08 672.775 C 1383.67 688.769 1389.05 704.84 1394.19 720.983 L 1381.25 714.539 C 1362.43 706.607 1343.08 696.481 1324.63 689.116 C 1317.37 678.665 1297.2 652.841 1292.04 644.313 C 1287.13 636.215 1276.76 590.953 1273.87 579.655 C 1281.3 575.57 1290.1 571.34 1297.74 567.434 z"/>
<path transform="translate(0,0)" fill="rgb(254,254,254)" d="M 1310.06 582.973 C 1313.2 582.671 1317.87 582.642 1321.15 582.517 L 1345.78 659.376 C 1356.19 663.789 1367.55 668.878 1378.08 672.775 C 1383.67 688.769 1389.05 704.84 1394.19 720.983 L 1381.25 714.539 C 1362.43 706.607 1343.08 696.481 1324.63 689.116 C 1326.34 684.606 1334.83 670.307 1337.75 664.825 C 1334.97 658.873 1330.14 643.342 1327.87 636.549 L 1310.06 582.973 z"/>
<path transform="translate(0,0)" fill="rgb(164,166,167)" d="M 1337.75 664.825 C 1344.17 666.756 1363.67 678.164 1373.14 682.034 C 1376.39 693.417 1378.3 703.599 1381.25 714.539 C 1362.43 706.607 1343.08 696.481 1324.63 689.116 C 1326.34 684.606 1334.83 670.307 1337.75 664.825 z"/>
<path transform="translate(0,0)" fill="rgb(193,193,193)" d="M 1314.25 563.457 C 1317.11 570.111 1318.91 575.635 1321.15 582.517 C 1317.87 582.642 1313.2 582.671 1310.06 582.973 C 1308.08 578.579 1305.84 570.855 1304.29 566.065 C 1307.7 564.866 1308.84 565.898 1314.25 563.457 z"/>
<path transform="translate(0,0)" fill="rgb(42,163,92)" d="M 820.811 870.235 C 821.52 870.065 823.167 869.984 823.974 869.918 C 824.214 870.395 824.454 870.872 824.694 871.349 C 814.635 913.15 798.491 987.104 788.456 1025.75 C 771.493 1041.23 753.108 1056.57 735.627 1071.57 C 734.746 1072.33 734.642 1072.17 733.4 1072.56 C 731.844 1069.32 733.645 1033.34 735.417 1028.69 C 741.986 1011.45 750.477 993.878 758.132 977.036 C 773.779 942.904 789.043 908.598 803.919 874.123 L 820.811 870.235 z"/>
<path transform="translate(0,0)" fill="rgb(117,118,119)" d="M 1458.49 366.62 C 1466.43 362.822 1475.15 358.424 1483.2 355.073 L 1487.34 368.001 L 1468.24 380.569 C 1468.81 389.189 1468.46 395.243 1467.98 403.917 C 1474.63 408.824 1479.78 412.231 1486.82 416.57 C 1483.72 425.014 1480.81 433.525 1478.09 442.097 C 1471.13 441.294 1462.53 440.086 1455.67 439.738 C 1450.34 447.348 1446.13 452.541 1440.1 459.646 C 1441.71 464.883 1444.93 474.603 1445.84 479.601 C 1438.77 483.673 1429.43 489.43 1422.32 492.97 C 1418.03 488.725 1410.14 480.449 1405.16 477.607 C 1402.43 479.841 1386.16 481.646 1381.71 482.257 C 1378.86 489.011 1375.94 495.743 1372.98 502.451 L 1347.21 497.708 L 1346.25 481.7 C 1349.74 475.378 1357 465.143 1361.19 458.817 C 1369.91 459.268 1377.72 459.757 1386.34 458.388 C 1418.25 453.319 1440.72 426.538 1441.84 394.517 C 1442.09 387.327 1441.55 382.498 1440.31 375.262 C 1446.07 372.045 1452.46 369.338 1458.49 366.62 z"/>
<path transform="translate(0,0)" fill="rgb(164,166,167)" d="M 1458.49 366.62 C 1466.43 362.822 1475.15 358.424 1483.2 355.073 L 1487.34 368.001 L 1468.24 380.569 C 1468.81 389.189 1468.46 395.243 1467.98 403.917 C 1474.63 408.824 1479.78 412.231 1486.82 416.57 C 1483.72 425.014 1480.81 433.525 1478.09 442.097 C 1471.13 441.294 1462.53 440.086 1455.67 439.738 C 1450.34 447.348 1446.13 452.541 1440.1 459.646 C 1441.71 464.883 1444.93 474.603 1445.84 479.601 C 1438.77 483.673 1429.43 489.43 1422.32 492.97 C 1418.03 488.725 1410.14 480.449 1405.16 477.607 C 1405.07 475.82 1405.06 474.244 1407.04 473.267 C 1448.07 452.991 1467.14 412.499 1458.49 366.62 z"/>
<path transform="translate(0,0)" fill="rgb(164,166,167)" d="M 1898.57 220.568 C 1935.58 212.348 1972.63 204.348 2009.73 196.569 C 2005.37 201.303 2000.86 205.901 1996.21 210.355 C 1971.54 238.922 1934.7 275.263 1908.1 303.316 C 1893.74 292.304 1879.42 280.906 1865.03 270.027 C 1869.33 263.718 1887.62 236.018 1891.32 231.994 C 1892.96 228.924 1896.58 223.668 1898.57 220.568 z"/>
<path transform="translate(0,0)" fill="rgb(254,254,254)" d="M 1898.57 220.568 C 1935.58 212.348 1972.63 204.348 2009.73 196.569 C 2005.37 201.303 2000.86 205.901 1996.21 210.355 C 1985.4 212.134 1893.47 233.058 1891.32 231.994 C 1892.96 228.924 1896.58 223.668 1898.57 220.568 z"/>
<path transform="translate(0,0)" fill="rgb(20,133,127)" d="M 1729.88 357.466 L 1731.67 357.258 L 1732.52 358.39 C 1729.94 365.49 1712.07 385.217 1706.46 391.762 C 1697.55 391.765 1688.58 391.902 1679.67 392.282 C 1613.91 395.093 1547.78 395.693 1482.06 398.821 L 1480.32 397.897 C 1479.07 394.255 1479.3 388.38 1479.25 384.359 L 1729.88 357.466 z"/>
<path transform="translate(0,0)" fill="rgb(24,114,73)" d="M 860.097 862.291 C 861.083 862.053 861.816 862.207 862.884 862.268 C 863.893 864.885 850.675 985.318 849.365 997.957 C 842.673 1004.57 817.471 1029.16 811.53 1032.57 C 809.264 1025.96 806.619 1013.77 804.345 1006.05 C 816.521 962.102 825.778 911.746 837.519 866.677 C 844.46 865.662 853.092 863.692 860.097 862.291 z"/>
<path transform="translate(0,0)" fill="rgb(20,133,127)" d="M 1763.39 222.999 C 1765.85 223.874 1781.82 234.741 1785.13 236.968 C 1776.63 241.459 1760.83 247.384 1751.65 251.082 L 1693.77 274.219 L 1511.39 346.698 C 1506.58 348.781 1500.2 352.262 1495.18 350.976 C 1498.33 344.557 1576.93 312.28 1589.49 304.507 C 1601.95 296.798 1599.43 298.238 1607.72 284.967 C 1658.82 266.097 1712.39 243.251 1763.39 222.999 z"/>
<path transform="translate(0,0)" fill="rgb(20,133,127)" d="M 1857.02 276.149 C 1860.71 276.297 1892.27 301.869 1897.72 306.119 C 1861.4 316.979 1819.72 326.969 1782.69 336.868 C 1771.32 339.953 1761.33 342.5 1749.79 344.999 C 1755.28 330.254 1762.92 314.661 1769.91 300.564 C 1795.79 292.125 1830.31 283.603 1857.02 276.149 z"/>
<path transform="translate(0,0)" fill="rgb(20,133,127)" d="M 1582.95 203.981 L 1578.17 218.867 C 1575.46 227.858 1572.62 236.966 1570.05 245.983 C 1540.31 260.037 1498.15 279.623 1468.02 291.875 C 1459.76 288.201 1451.47 284.614 1443.13 281.114 L 1425.5 274.631 C 1476.12 250.92 1531.68 226.801 1582.95 203.981 z"/>
<path transform="translate(0,0)" fill="rgb(63,185,177)" d="M 1582.95 203.981 L 1578.17 218.867 C 1550.1 232.05 1521.91 244.959 1493.59 257.591 C 1480.09 263.636 1455.32 274.217 1443.13 281.114 L 1425.5 274.631 C 1476.12 250.92 1531.68 226.801 1582.95 203.981 z"/>
<path transform="translate(0,0)" fill="rgb(117,118,119)" d="M 1288.68 472.889 C 1305.18 456.438 1327.39 428.795 1347.62 415.621 L 1350.91 416.908 C 1356.25 421.547 1361.4 425.633 1366.96 430.003 C 1364.03 434.134 1361.32 438.157 1358.66 442.476 C 1340.42 472.041 1318.94 499.572 1299.88 528.625 C 1298.06 531.393 1296.08 534.379 1294.08 536.995 C 1285.11 535.579 1275.88 534.386 1266.8 534.12 L 1262.7 519.453 C 1267.2 515.521 1280.49 503.314 1284.65 500.463 C 1286.78 494.384 1287.97 479.955 1288.68 472.889 z"/>
<path transform="translate(0,0)" fill="rgb(254,254,254)" d="M 1288.68 472.889 C 1305.18 456.438 1327.39 428.795 1347.62 415.621 L 1350.91 416.908 C 1332.84 436.738 1313.97 455.375 1296.16 475.631 C 1296.08 486.479 1295.44 495.353 1294.57 506.098 C 1292.57 505.024 1286.03 501.645 1284.65 500.463 C 1286.78 494.384 1287.97 479.955 1288.68 472.889 z"/>
<path transform="translate(0,0)" fill="rgb(117,118,119)" d="M 1862.43 153.897 C 1880.31 157.164 1906.58 159.865 1925.34 162.459 C 1909.66 171.275 1893.83 179.845 1877.88 188.166 C 1875.19 190.025 1868.03 193.639 1864.87 195.347 C 1859.73 179.714 1865.02 188.22 1868.28 171.386 C 1863.45 173.698 1856.26 176.87 1851.81 179.515 C 1853.62 186.048 1855.47 192.568 1857.37 199.074 C 1854.77 200.661 1851.16 203.016 1848.55 204.36 L 1838.79 209.738 L 1834.81 196.818 C 1838.54 192.368 1839.43 189.864 1840.58 184.316 C 1835.1 186.805 1830.57 188.995 1825.23 191.811 L 1831.45 214.023 L 1821.97 218.84 C 1820.29 220.068 1812.3 224.225 1810.04 225.467 L 1806.48 209.272 C 1806.76 208.944 1807.04 208.617 1807.33 208.29 L 1807.76 207.742 C 1810.88 203.901 1811.22 202.206 1812.85 197.43 C 1808.12 199.305 1802.41 202.356 1797.76 204.672 C 1798.9 212.098 1803.93 225.864 1799.42 231.828 C 1794.23 232.594 1776.53 219.802 1771.08 216.29 C 1774.6 206.996 1777.75 199.038 1781.85 189.999 C 1808.77 178.103 1835.64 166.069 1862.43 153.897 z"/>
<path transform="translate(0,0)" fill="rgb(20,133,127)" d="M 1812.85 197.43 C 1816.31 198.928 1820.53 214.543 1821.97 218.84 C 1820.29 220.068 1812.3 224.225 1810.04 225.467 L 1806.48 209.272 C 1806.76 208.944 1807.04 208.617 1807.33 208.29 L 1807.76 207.742 C 1810.88 203.901 1811.22 202.206 1812.85 197.43 z"/>
<path transform="translate(0,0)" fill="rgb(20,133,127)" d="M 1840.58 184.316 C 1846.94 184.529 1847.96 198.904 1848.55 204.36 L 1838.79 209.738 L 1834.81 196.818 C 1838.54 192.368 1839.43 189.864 1840.58 184.316 z"/>
<path transform="translate(0,0)" fill="rgb(20,133,127)" d="M 1868.28 171.386 C 1872.11 173.675 1875.94 183.621 1877.88 188.166 C 1875.19 190.025 1868.03 193.639 1864.87 195.347 C 1859.73 179.714 1865.02 188.22 1868.28 171.386 z"/>
<path transform="translate(0,0)" fill="rgb(117,118,119)" d="M 1214.38 611.168 C 1223.57 606.291 1232.84 601.556 1242.19 596.965 C 1246.37 617.794 1256.61 651.891 1262.42 673.113 L 1279.06 680.577 C 1282.65 682.249 1286.68 684.01 1290.18 685.768 L 1299.98 724.977 L 1289.27 719.995 C 1236.09 698.958 1250.11 706.384 1218.21 661.46 C 1217.05 644.687 1215.78 627.922 1214.38 611.168 z"/>
<path transform="translate(0,0)" fill="rgb(254,254,254)" d="M 1279.06 680.577 C 1282.65 682.249 1286.68 684.01 1290.18 685.768 L 1299.98 724.977 L 1289.27 719.995 C 1285.7 707.753 1281.66 692.927 1279.06 680.577 z"/>
<path transform="translate(0,0)" fill="rgb(26,32,32)" d="M 1159.14 322.418 C 1161.48 324.134 1164.35 326.732 1167.03 327.074 C 1189.36 337.548 1203.92 336.328 1222.61 361.684 C 1223.91 364.39 1225.16 366.028 1224.57 368.851 C 1221.86 370.009 1219.25 368.928 1216.51 367.773 C 1213.34 370.637 1212.28 371.364 1208.61 373.572 C 1193.13 380.313 1177.64 386.634 1162.12 393.226 C 1160.75 394.679 1157.86 397.555 1156.74 398.985 C 1147.05 391.429 1129.93 380.421 1119.34 373.067 C 1123.85 365.454 1128.26 357.779 1132.56 350.046 L 1137.24 342.549 C 1140.95 338.116 1154.23 326.802 1159.14 322.418 z"/>
<path transform="translate(0,0)" fill="rgb(117,200,133)" d="M 1150.22 340.937 C 1155.86 335.986 1160.89 331.415 1167.03 327.074 C 1189.36 337.548 1203.92 336.328 1222.61 361.684 C 1223.91 364.39 1225.16 366.028 1224.57 368.851 C 1221.86 370.009 1219.25 368.928 1216.51 367.773 C 1198.07 362.201 1191.79 361.186 1172.39 363.313 C 1159.04 364.776 1145.14 365.69 1131.69 367.177 C 1136.49 359.213 1142.97 345.903 1150.22 340.937 z"/>
<path transform="translate(0,0)" fill="rgb(162,230,173)" d="M 1150.22 340.937 C 1155.86 335.986 1160.89 331.415 1167.03 327.074 C 1189.36 337.548 1203.92 336.328 1222.61 361.684 C 1216.67 361.359 1194.13 345.84 1188.74 341.502 C 1182.03 341.206 1154.61 342.864 1150.22 340.937 z"/>
<path transform="translate(0,0)" fill="rgb(24,114,73)" d="M 1138.15 374.233 C 1154.48 371.555 1174.95 370.503 1191.6 369.411 C 1196.61 369.082 1203.74 371.824 1208.61 373.572 C 1193.13 380.313 1177.64 386.634 1162.12 393.226 L 1138.15 374.233 z"/>
<path transform="translate(0,0)" fill="rgb(29,131,80)" d="M 645.478 494.63 C 669.419 483.316 698.701 475.48 723.334 465.06 C 726.543 463.703 726.922 464.098 729.661 465.55 C 732.348 469.291 735.937 472.255 739.365 475.344 C 728.989 488.734 709.779 514.712 698.799 526.404 C 680.197 530.208 655.955 536.298 637.952 539.282 C 636.582 536.432 644.307 500.587 645.478 494.63 z"/>
<path transform="translate(0,0)" fill="rgb(162,230,173)" d="M 645.478 494.63 C 669.419 483.316 698.701 475.48 723.334 465.06 C 726.543 463.703 726.922 464.098 729.661 465.55 C 725.19 469.768 720.281 473.455 715.513 477.326 C 689.841 498.171 663.207 517.934 637.952 539.282 C 636.582 536.432 644.307 500.587 645.478 494.63 z"/>
<path transform="translate(0,0)" fill="rgb(164,166,167)" d="M 1235.63 433.419 C 1239.48 430.969 1246.14 427.459 1250.27 425.123 C 1251.93 441.391 1252.51 468.977 1253.28 486.157 C 1229.77 499.362 1205.25 511.795 1181.4 524.512 C 1160.77 506.156 1161.45 505.071 1133.79 502.063 C 1130.55 501.707 1131.52 502.262 1129.3 500.364 C 1128.48 496.796 1130.7 492.361 1132.06 488.778 C 1142.53 483.107 1153.05 477.523 1163.61 472.027 L 1174.33 479.432 C 1181.92 484.491 1188.58 488.556 1196.46 493.147 L 1235.18 472.517 C 1235.21 464.609 1234.58 439.895 1235.63 433.419 z"/>
<path transform="translate(0,0)" fill="rgb(254,254,254)" d="M 1163.61 472.027 L 1174.33 479.432 C 1163.23 487.461 1143.45 494.723 1133.79 502.063 C 1130.55 501.707 1131.52 502.262 1129.3 500.364 C 1128.48 496.796 1130.7 492.361 1132.06 488.778 C 1142.53 483.107 1153.05 477.523 1163.61 472.027 z"/>
<path transform="translate(0,0)" fill="rgb(254,254,254)" d="M 1235.63 433.419 C 1239.48 430.969 1246.14 427.459 1250.27 425.123 C 1249.91 429.727 1249.67 433.116 1249.78 437.72 C 1245.3 440.271 1240.35 442.932 1236.12 445.833 C 1236.06 442.313 1236.13 436.708 1235.63 433.419 z"/>
<path transform="translate(0,0)" fill="rgb(162,230,173)" d="M 1038.35 284.773 C 1061.77 284.976 1098 290.868 1122.9 292.627 C 1130.18 297.848 1152.33 315.993 1159.14 322.418 C 1154.23 326.802 1140.95 338.116 1137.24 342.549 L 1123.37 337.261 C 1110.82 331.884 1093.99 324.183 1081.4 319.879 C 1065.7 314.865 1050.02 309.763 1034.37 304.572 C 1036.09 297.418 1037.24 292.042 1038.35 284.773 z"/>
<path transform="translate(0,0)" fill="rgb(117,118,119)" d="M 1126.09 512.79 C 1154.89 515.547 1157.04 515.754 1178.1 536.216 L 1187.82 533.512 L 1181.84 543.425 C 1184.22 548.436 1186.27 554.927 1188.13 560.25 L 1203.2 565.696 L 1203.18 584.984 C 1198.01 586.338 1192.69 588.032 1187.55 589.583 C 1185.34 595.509 1182.46 601.23 1179.72 606.938 C 1181.86 611.485 1184.93 616.841 1187.35 621.344 C 1182.74 626.34 1177.8 631.252 1173.03 636.107 L 1159.39 627.811 C 1153.79 630.268 1148.16 632.683 1142.52 635.054 L 1140.78 635.714 C 1138.31 639.105 1136.8 645.531 1135.54 649.752 L 1116.52 649.85 C 1115.04 644.309 1113.24 638.852 1111.5 633.385 L 1115.95 622.899 C 1141.29 624.132 1163.88 616.809 1173.12 590.656 C 1177.71 577.268 1176.74 562.597 1170.42 549.93 C 1159.32 527.243 1144.04 529.199 1126.88 523.275 C 1125.34 520.616 1125.96 516.087 1126.09 512.79 z"/>
<path transform="translate(0,0)" fill="rgb(164,166,167)" d="M 1431.45 619.116 C 1435.91 626.634 1442.42 636.9 1446.29 644.45 C 1458.99 646.548 1471.63 648.943 1484.22 651.633 C 1493.63 667.544 1501.93 684.12 1511 700.222 C 1513.24 704.184 1515.52 708.134 1517.34 712.31 L 1501.1 706.91 C 1481.08 700.683 1450.2 688.776 1430.97 684.474 C 1434.09 674.122 1437.05 663.72 1439.83 653.273 L 1432.24 639.401 C 1431.81 633.967 1430.92 626.868 1429.9 621.3 C 1430.5 620.452 1431.02 619.724 1431.45 619.116 z"/>
<path transform="translate(0,0)" fill="rgb(254,254,254)" d="M 1431.45 619.116 C 1435.91 626.634 1442.42 636.9 1446.29 644.45 C 1458.99 646.548 1471.63 648.943 1484.22 651.633 C 1493.63 667.544 1501.93 684.12 1511 700.222 C 1513.24 704.184 1515.52 708.134 1517.34 712.31 L 1501.1 706.91 C 1492.35 693.004 1483.6 673.715 1474.26 658.303 C 1464.78 657.75 1448.95 654.998 1439.83 653.273 L 1432.24 639.401 C 1431.81 633.967 1430.92 626.868 1429.9 621.3 C 1430.5 620.452 1431.02 619.724 1431.45 619.116 z"/>
<path transform="translate(0,0)" fill="rgb(20,133,127)" d="M 1404.15 511.577 C 1408.11 515.148 1473.31 629.24 1478.29 641.133 L 1477.54 642.23 L 1473.64 641.767 C 1466.09 640.136 1458.5 638.727 1450.87 637.539 C 1433.08 606.084 1410.57 570.356 1394.59 538.817 C 1397.64 529.689 1400.82 520.608 1404.15 511.577 z"/>
<path transform="translate(0,0)" fill="rgb(117,118,119)" d="M 1085.12 697.857 C 1089.72 686.246 1099.08 661.125 1104.75 651.518 C 1106.53 654.114 1107.35 656.237 1108.61 659.084 C 1113.3 662.398 1129.08 660.857 1135.74 660.652 C 1138.08 664.96 1137.5 703.132 1137.06 709.801 C 1133.08 715.712 1118.55 737.985 1114.62 741.929 C 1110.37 733.715 1091.06 706.297 1085.12 697.857 z"/>
<path transform="translate(0,0)" fill="rgb(193,193,193)" d="M 1135.74 660.652 C 1138.08 664.96 1137.5 703.132 1137.06 709.801 C 1133.08 715.712 1118.55 737.985 1114.62 741.929 C 1117.26 727.726 1130.71 670.257 1135.74 660.652 z"/>
<path transform="translate(0,0)" fill="rgb(162,230,173)" d="M 746.861 482.451 L 760.722 495.885 L 771.673 505.598 C 764.961 518.815 757.174 535.265 750.029 547.952 C 736.051 554.364 721.939 560.479 707.702 566.292 L 706.806 565.841 C 705.519 563.357 706.082 538.604 706.095 533.935 L 746.861 482.451 z"/>
<path transform="translate(0,0)" fill="rgb(117,200,133)" d="M 760.722 495.885 L 771.673 505.598 C 764.961 518.815 757.174 535.265 750.029 547.952 C 736.051 554.364 721.939 560.479 707.702 566.292 C 718.915 546.93 746.253 515.231 760.722 495.885 z"/>
<path transform="translate(0,0)" fill="rgb(20,133,127)" d="M 1546.57 440.633 C 1586.12 451.281 1629.35 457.929 1669.1 468.542 C 1673.42 469.695 1673.78 469.391 1675.33 472.257 C 1674.77 477.625 1671.82 478.796 1667.47 480.922 C 1660.02 485.203 1654.54 487.98 1646.73 491.583 C 1620.35 481.527 1578.65 470.047 1550.41 461.154 C 1549.32 454.2 1547.96 447.527 1546.57 440.633 z"/>
<path transform="translate(0,0)" fill="rgb(20,133,127)" d="M 1455.54 473.484 C 1460.53 475.261 1584.53 561.417 1588.47 565.56 L 1587.7 566.721 L 1582.58 567.7 L 1560.58 569.42 C 1549.15 561.597 1455.04 492.714 1453.64 488.814 L 1458.01 484.441 C 1458.4 481.005 1456.67 476.926 1455.54 473.484 z"/>
<path transform="translate(0,0)" fill="rgb(162,230,173)" d="M 779.267 513.153 L 797.831 531.253 L 822.875 554.953 C 804.811 563.041 783.941 572.417 765.565 579.718 L 764.683 579.468 C 762.789 576.134 760.911 556.964 760.28 551.885 C 766.749 539.077 772.514 525.726 779.267 513.153 z"/>
<path transform="translate(0,0)" fill="rgb(42,163,92)" d="M 797.831 531.253 L 822.875 554.953 C 804.811 563.041 783.941 572.417 765.565 579.718 C 773.338 563.971 786.748 544.722 797.831 531.253 z"/>
<path transform="translate(0,0)" fill="rgb(20,133,127)" d="M 1335.36 546.803 C 1341.07 554.808 1370.08 648.022 1375.76 663.923 L 1365.28 659.978 C 1360.95 658.189 1356.23 655.911 1351.92 653.948 C 1341.72 626.346 1331.69 592.476 1322.51 564.058 C 1326.61 559.084 1331.45 552.116 1335.36 546.803 z"/>
<path transform="translate(0,0)" fill="rgb(164,166,167)" d="M 1331.85 369.473 C 1336.12 363.868 1367.87 349.7 1376.07 345.269 C 1391.4 353.602 1410.95 364.87 1426.63 372.227 L 1418.52 375.024 L 1404.09 380.683 C 1394.89 374.706 1385.57 368.905 1376.15 363.285 C 1367.66 367.575 1357.35 371.062 1347.75 375.904 C 1340.49 402.619 1347.05 408.668 1323.63 426.126 C 1325.06 415.606 1332.16 377.571 1331.85 369.473 z"/>
<path transform="translate(0,0)" fill="rgb(254,254,254)" d="M 1331.85 369.473 C 1336.12 363.868 1367.87 349.7 1376.07 345.269 C 1391.4 353.602 1410.95 364.87 1426.63 372.227 L 1418.52 375.024 C 1412.1 373.755 1384.81 358.785 1375.22 354.792 C 1362.03 361.983 1347 371.874 1331.85 369.473 z"/>
<path transform="translate(0,0)" fill="rgb(117,118,119)" d="M 1516.42 572.834 C 1521.1 572.843 1544.19 591.872 1549.16 596.033 C 1554.7 613.145 1560.13 630.407 1566.45 647.239 L 1540.61 634.334 C 1541.22 626.506 1545.57 616.993 1540.35 611.117 C 1531.13 604.765 1521.38 597.161 1512.34 590.407 C 1505.19 595.674 1496.24 603.459 1489.2 609.218 C 1481.8 606.13 1475.93 603.208 1468.78 599.552 L 1516.42 572.834 z"/>
<path transform="translate(0,0)" fill="rgb(117,118,119)" d="M 1158.87 640.244 C 1163.89 643.066 1169.46 646.651 1174.43 649.704 L 1184.97 639.883 C 1186.77 650.904 1187.41 670.577 1188.58 682.53 C 1178.4 684.732 1167.39 688.001 1157.51 689.904 C 1146.27 670.924 1147.17 668.81 1147.36 646.293 C 1149.89 644.525 1155.88 641.738 1158.87 640.244 z"/>
<path transform="translate(0,0)" fill="rgb(20,133,127)" d="M 1374.46 373.9 C 1377.42 373.832 1394.92 385.665 1398.97 388.159 L 1392.21 412.851 L 1375.29 418.952 C 1366.83 422.304 1356.84 411.027 1350.51 405.617 C 1352.4 397.799 1354.08 389.931 1355.53 382.021 C 1361.96 379.595 1368.19 376.706 1374.46 373.9 z"/>
<path transform="translate(0,0)" fill="rgb(164,166,167)" d="M 1188.58 682.53 C 1195.96 686.998 1203.36 691.426 1210.79 695.813 C 1211.69 708.835 1212.79 721.842 1214.09 734.831 C 1199.53 723.126 1176.83 715.387 1164.16 701.467 C 1162.71 699.878 1158.66 692.105 1157.51 689.904 C 1167.39 688.001 1178.4 684.732 1188.58 682.53 z"/>
<path transform="translate(0,0)" fill="rgb(117,118,119)" d="M 1268.84 551.476 C 1268.56 547.401 1267.77 546.788 1269.69 544.054 C 1276.09 541.889 1283.67 544.117 1291.7 544.064 C 1290.87 548.137 1289.45 557.462 1286.97 560.354 C 1281.9 562.732 1276.89 565.287 1271.98 567.98 C 1245.08 582.735 1217.48 596.291 1190.49 610.855 C 1192.16 606.76 1194.08 602.57 1195.88 598.51 C 1200.87 596.927 1208.39 595.316 1213.66 594.041 C 1213.88 589.923 1214.52 585.512 1215.04 581.393 C 1233.06 571.584 1251 561.611 1268.84 551.476 z"/>
<path transform="translate(0,0)" fill="rgb(164,166,167)" d="M 1268.84 551.476 C 1268.56 547.401 1267.77 546.788 1269.69 544.054 C 1276.09 541.889 1283.67 544.117 1291.7 544.064 C 1290.87 548.137 1289.45 557.462 1286.97 560.354 C 1282.17 558.478 1272.8 554.37 1268.84 551.476 z"/>
<path transform="translate(0,0)" fill="rgb(20,133,127)" d="M 1263.69 584.935 C 1266.24 588.444 1286.04 668.65 1287.93 677.069 L 1276.65 672.295 L 1268.24 668.092 C 1261.66 648.834 1253.59 614.143 1248.11 593.589 C 1253.3 591.071 1258.66 587.833 1263.69 584.935 z"/>
<path transform="translate(0,0)" fill="rgb(20,133,127)" d="M 1227.87 437.041 L 1227.94 448.54 L 1228.29 467.69 C 1217.66 473.974 1207.01 479.199 1195.99 484.733 L 1181.11 474.77 L 1170.77 468.013 L 1227.87 437.041 z"/>
<path transform="translate(0,0)" fill="rgb(63,185,177)" d="M 1227.87 437.041 L 1227.94 448.54 C 1212.54 457.792 1196.01 465.699 1181.11 474.77 L 1170.77 468.013 L 1227.87 437.041 z"/>
<path transform="translate(0,0)" fill="rgb(20,133,127)" d="M 1125.27 534.821 C 1134.36 535.026 1140.89 536.055 1148.7 541.211 C 1157.45 546.995 1163.48 556.085 1165.4 566.397 C 1167.38 576.665 1165.16 587.296 1159.24 595.914 C 1152.01 606.367 1143.24 610.563 1131.24 612.818 C 1125.13 613.068 1120.62 614.089 1120.39 605.799 C 1121.87 603.089 1123.38 601.187 1126.56 601.244 C 1147.76 601.626 1159.82 580.1 1152.01 561.186 C 1147.97 551.386 1135.66 548.56 1125.97 545.316 C 1124.48 542.624 1125.12 538.114 1125.27 534.821 z"/>
<path transform="translate(0,0)" fill="rgb(20,133,127)" d="M 1252.36 518.138 L 1253.32 518.584 C 1255.73 523.029 1259.92 540.231 1261.48 546.061 C 1247.04 553.384 1231.58 562.275 1217.3 570.127 C 1216.51 570.454 1215.72 570.375 1214.77 570.425 C 1213.38 567.622 1213.92 561.278 1213.65 557.332 L 1210.22 554.413 C 1212.58 552.255 1229.18 543.098 1233.41 540.592 C 1232.41 535.239 1231.94 529.272 1231.38 523.814 C 1238.44 522.252 1245.41 520.14 1252.36 518.138 z"/>
<path transform="translate(0,0)" fill="rgb(117,118,119)" d="M 1424.08 382.991 L 1424.94 383.274 C 1426.09 387.475 1414.47 423.216 1412.32 430.307 C 1399 434.91 1384.42 441.593 1370.6 446.591 L 1369.68 446.465 L 1369.29 444.656 C 1371.99 439.058 1377.06 432.302 1380.7 427.08 L 1400 419.235 C 1402.65 408.999 1405.48 398.808 1408.47 388.667 L 1424.08 382.991 z"/>
<path transform="translate(0,0)" fill="rgb(117,118,119)" d="M 1262.99 458.259 C 1262.96 456.363 1263.05 454.377 1263.11 452.472 C 1265.98 447.695 1308.45 420.056 1314.59 417.184 L 1315.36 418.048 L 1314.72 423.648 C 1314.6 425.582 1314.31 429.521 1313.29 430.975 C 1304.64 443.308 1290.34 457.283 1280.06 468.237 C 1274.85 467.953 1267.89 468.382 1264.16 465.266 C 1262.94 462.554 1263.07 461.158 1262.99 458.259 z"/>
<path transform="translate(0,0)" fill="rgb(254,254,254)" d="M 1262.99 458.259 C 1262.96 456.363 1263.05 454.377 1263.11 452.472 C 1265.98 447.695 1308.45 420.056 1314.59 417.184 L 1315.36 418.048 L 1314.72 423.648 C 1309.58 427.716 1267.23 457.889 1262.99 458.259 z"/>
<path transform="translate(0,0)" fill="rgb(164,166,167)" d="M 1300.14 558.112 C 1306.58 533.839 1312.44 531.473 1324.74 511.698 L 1333.69 539.538 C 1329.35 544.234 1317.19 558.2 1314.25 563.457 C 1308.84 565.898 1307.7 564.866 1304.29 566.065 C 1304.06 565.428 1301.07 560.304 1300.14 558.112 z"/>
<path transform="translate(0,0)" fill="rgb(20,133,127)" d="M 1200.46 617.444 C 1201.99 617.826 1202.01 617.971 1203.44 618.722 C 1204.93 623.956 1209.6 678.756 1209.52 685.616 C 1206.42 685.644 1204.75 684.041 1201.67 682.343 L 1195.22 678.101 L 1190.68 634.232 C 1192.09 632.888 1193.49 631.524 1194.87 630.139 C 1201.9 623.016 1197.42 623.577 1200.46 617.444 z"/>
<path transform="translate(0,0)" fill="rgb(193,193,193)" d="M 1330.19 334.313 C 1334.65 339.826 1339.06 345.375 1343.42 350.96 C 1337.69 353.823 1330.22 357.808 1324.48 360.257 L 1321.28 382.034 C 1316.21 380.555 1306.43 376.371 1300.59 374.322 C 1306.89 357.377 1318.09 348.203 1330.19 334.313 z"/>
<path transform="translate(0,0)" fill="rgb(117,118,119)" d="M 1124.89 552.71 C 1145.35 555.556 1154.6 571.05 1141.85 588.616 C 1136.8 592.132 1130.81 596.562 1125.04 592.771 C 1121.33 586.89 1124.37 561.497 1124.89 552.71 z"/>
<path transform="translate(0,0)" fill="rgb(117,118,119)" d="M 1300.59 374.322 C 1306.43 376.371 1316.21 380.555 1321.28 382.034 C 1320.24 389.046 1319.05 395.314 1317.65 402.262 L 1297.91 414.84 L 1290.91 400.083 L 1300.59 374.322 z"/>
<path transform="translate(0,0)" fill="rgb(20,133,127)" d="M 1263.94 475.765 C 1268.26 475.922 1273.94 476.768 1278.34 477.297 C 1278.17 483.679 1277.6 489.001 1276.92 495.316 C 1269.32 502.743 1264.4 509.052 1253.26 510.803 C 1243.46 512.345 1233.2 515.488 1223.69 518.378 L 1210.04 521.467 C 1227.73 511.362 1246.62 502.87 1265.24 492.052 C 1264.77 486.626 1264.34 481.197 1263.94 475.765 z"/>
<path transform="translate(0,0)" fill="rgb(20,133,127)" d="M 1511.99 598.795 C 1518.08 602.359 1531.79 612.195 1536.52 616.928 C 1535.88 621.626 1534.93 626.707 1534.14 631.42 L 1524.28 626.477 L 1495.6 612.431 L 1511.99 598.795 z"/>
<path transform="translate(0,0)" fill="rgb(164,166,167)" d="M 1330.19 334.313 C 1340.66 330.99 1353.02 327.768 1362.98 324.009 C 1361.35 330.643 1359.8 337.603 1357.63 344.059 L 1343.42 350.96 C 1339.06 345.375 1334.65 339.826 1330.19 334.313 z"/>
<path transform="translate(0,0)" fill="rgb(117,118,119)" d="M 1222.93 526.238 L 1224.46 526.562 C 1225.82 529.236 1225.61 531.528 1225.71 534.566 C 1223.3 540.251 1203.74 548.936 1197.62 552.059 C 1196.3 549.939 1195.7 548.246 1194.77 545.954 C 1194.83 540.58 1198.9 535.18 1201.79 530.437 C 1207.03 529.944 1217.39 527.435 1222.93 526.238 z"/>
<path transform="translate(0,0)" fill="rgb(164,166,167)" d="M 1283.65 411.865 C 1284.88 413.422 1286.53 419.885 1287.21 422.189 C 1278.79 427.017 1272.47 431.231 1264.46 436.757 L 1262.73 437.051 C 1261.3 433.983 1261.74 427.258 1261.74 423.539 L 1283.65 411.865 z"/>
</svg>