<svg xmlns="http://www.w3.org/2000/svg" height="1024" preserveAspectRatio="none" style="display: block;" version="1.1" viewBox="0 0 2048 2048" width="1024">
<defs>
	<linearGradient gradientUnits="userSpaceOnUse" id="Gradient1" x1="1382.41" x2="1349.68" y1="689.195" y2="744.582">
		<stop class="stop0" offset="0" stop-color="rgb(30,112,129)" stop-opacity="1"></stop>
		<stop class="stop1" offset="1" stop-color="rgb(57,133,156)" stop-opacity="1"></stop>
	</linearGradient>
	<linearGradient gradientUnits="userSpaceOnUse" id="Gradient2" x1="1144.17" x2="1141.74" y1="1352.9" y2="1410.2">
		<stop class="stop0" offset="0" stop-color="rgb(96,155,183)" stop-opacity="1"></stop>
		<stop class="stop1" offset="1" stop-color="rgb(214,228,237)" stop-opacity="1"></stop>
	</linearGradient>
	<linearGradient gradientUnits="userSpaceOnUse" id="Gradient3" x1="1301.24" x2="1237.14" y1="707.714" y2="721.641">
		<stop class="stop0" offset="0" stop-color="rgb(31,127,150)" stop-opacity="1"></stop>
		<stop class="stop1" offset="1" stop-color="rgb(156,188,208)" stop-opacity="1"></stop>
	</linearGradient>
	<linearGradient gradientUnits="userSpaceOnUse" id="Gradient4" x1="1470.43" x2="1486.46" y1="603.714" y2="616.455">
		<stop class="stop0" offset="0" stop-color="rgb(100,148,173)" stop-opacity="1"></stop>
		<stop class="stop1" offset="1" stop-color="rgb(130,174,198)" stop-opacity="1"></stop>
	</linearGradient>
	<linearGradient gradientUnits="userSpaceOnUse" id="Gradient5" x1="1453.88" x2="1484.35" y1="658.391" y2="604.341">
		<stop class="stop0" offset="0" stop-color="rgb(57,136,170)" stop-opacity="1"></stop>
		<stop class="stop1" offset="1" stop-color="rgb(232,239,247)" stop-opacity="1"></stop>
	</linearGradient>
	<linearGradient gradientUnits="userSpaceOnUse" id="Gradient6" x1="1162.75" x2="1099.4" y1="1565.22" y2="1581.83">
		<stop class="stop0" offset="0" stop-color="rgb(31,101,128)" stop-opacity="1"></stop>
		<stop class="stop1" offset="1" stop-color="rgb(114,176,201)" stop-opacity="1"></stop>
	</linearGradient>
	<linearGradient gradientUnits="userSpaceOnUse" id="Gradient7" x1="1191.41" x2="1184.7" y1="1565.34" y2="1454.93">
		<stop class="stop0" offset="0" stop-color="rgb(83,147,176)" stop-opacity="1"></stop>
		<stop class="stop1" offset="1" stop-color="rgb(248,250,253)" stop-opacity="1"></stop>
	</linearGradient>
	<linearGradient gradientUnits="userSpaceOnUse" id="Gradient8" x1="1175.63" x2="1142.42" y1="1454.69" y2="1461.44">
		<stop class="stop0" offset="0" stop-color="rgb(48,118,144)" stop-opacity="1"></stop>
		<stop class="stop1" offset="1" stop-color="rgb(83,148,177)" stop-opacity="1"></stop>
	</linearGradient>
	<linearGradient gradientUnits="userSpaceOnUse" id="Gradient9" x1="1131.42" x2="1117.41" y1="1460.67" y2="1496.31">
		<stop class="stop0" offset="0" stop-color="rgb(74,143,171)" stop-opacity="1"></stop>
		<stop class="stop1" offset="1" stop-color="rgb(151,189,209)" stop-opacity="1"></stop>
	</linearGradient>
	<linearGradient gradientUnits="userSpaceOnUse" id="Gradient10" x1="1124.56" x2="1051.44" y1="1467.75" y2="1435.25">
		<stop class="stop0" offset="0" stop-color="rgb(43,126,157)" stop-opacity="1"></stop>
		<stop class="stop1" offset="1" stop-color="rgb(209,223,235)" stop-opacity="1"></stop>
	</linearGradient>
	<linearGradient gradientUnits="userSpaceOnUse" id="Gradient11" x1="1142.29" x2="1125.64" y1="1490.06" y2="1551.19">
		<stop class="stop0" offset="0" stop-color="rgb(138,180,201)" stop-opacity="1"></stop>
		<stop class="stop1" offset="1" stop-color="rgb(222,234,241)" stop-opacity="1"></stop>
	</linearGradient>
	<linearGradient gradientUnits="userSpaceOnUse" id="Gradient12" x1="1319.91" x2="1305.4" y1="726.067" y2="831.877">
		<stop class="stop0" offset="0" stop-color="rgb(85,148,173)" stop-opacity="1"></stop>
		<stop class="stop1" offset="1" stop-color="rgb(224,238,249)" stop-opacity="1"></stop>
	</linearGradient>
	<linearGradient gradientUnits="userSpaceOnUse" id="Gradient13" x1="1297.48" x2="1223.31" y1="797.38" y2="863.454">
		<stop class="stop0" offset="0" stop-color="rgb(51,128,159)" stop-opacity="1"></stop>
		<stop class="stop1" offset="1" stop-color="rgb(201,221,234)" stop-opacity="1"></stop>
	</linearGradient>
	<linearGradient gradientUnits="userSpaceOnUse" id="Gradient14" x1="1321.48" x2="1326.84" y1="649.824" y2="635.296">
		<stop class="stop0" offset="0" stop-color="rgb(10,60,86)" stop-opacity="1"></stop>
		<stop class="stop1" offset="1" stop-color="rgb(22,94,119)" stop-opacity="1"></stop>
	</linearGradient>
	<linearGradient gradientUnits="userSpaceOnUse" id="Gradient15" x1="1425.85" x2="1386.59" y1="614.482" y2="659.201">
		<stop class="stop0" offset="0" stop-color="rgb(28,101,131)" stop-opacity="1"></stop>
		<stop class="stop1" offset="1" stop-color="rgb(84,152,184)" stop-opacity="1"></stop>
	</linearGradient>
	<linearGradient gradientUnits="userSpaceOnUse" id="Gradient16" x1="1388.75" x2="1361.54" y1="601.738" y2="635.628">
		<stop class="stop0" offset="0" stop-color="rgb(175,203,221)" stop-opacity="1"></stop>
		<stop class="stop1" offset="1" stop-color="rgb(240,249,253)" stop-opacity="1"></stop>
	</linearGradient>
	<linearGradient gradientUnits="userSpaceOnUse" id="Gradient17" x1="1366.37" x2="1272.86" y1="636.424" y2="694.946">
		<stop class="stop0" offset="0" stop-color="rgb(17,90,119)" stop-opacity="1"></stop>
		<stop class="stop1" offset="1" stop-color="rgb(182,224,241)" stop-opacity="1"></stop>
	</linearGradient>
	<linearGradient gradientUnits="userSpaceOnUse" id="Gradient18" x1="1466.43" x2="1444.34" y1="794.669" y2="879.824">
		<stop class="stop0" offset="0" stop-color="rgb(78,141,168)" stop-opacity="1"></stop>
		<stop class="stop1" offset="1" stop-color="rgb(202,224,237)" stop-opacity="1"></stop>
	</linearGradient>
	<linearGradient gradientUnits="userSpaceOnUse" id="Gradient19" x1="1481.24" x2="1459.45" y1="936.003" y2="987.289">
		<stop class="stop0" offset="0" stop-color="rgb(113,165,191)" stop-opacity="1"></stop>
		<stop class="stop1" offset="1" stop-color="rgb(166,197,215)" stop-opacity="1"></stop>
	</linearGradient>
	<linearGradient gradientUnits="userSpaceOnUse" id="Gradient20" x1="1494.04" x2="1398.16" y1="918.626" y2="959.095">
		<stop class="stop0" offset="0" stop-color="rgb(15,90,109)" stop-opacity="1"></stop>
		<stop class="stop1" offset="1" stop-color="rgb(77,140,170)" stop-opacity="1"></stop>
	</linearGradient>
	<linearGradient gradientUnits="userSpaceOnUse" id="Gradient21" x1="1143.53" x2="1141.6" y1="1087.12" y2="1163.15">
		<stop class="stop0" offset="0" stop-color="rgb(138,181,200)" stop-opacity="1"></stop>
		<stop class="stop1" offset="1" stop-color="rgb(202,221,234)" stop-opacity="1"></stop>
	</linearGradient>
	<linearGradient gradientUnits="userSpaceOnUse" id="Gradient22" x1="1154.92" x2="1325.23" y1="1112.77" y2="1046.78">
		<stop class="stop0" offset="0" stop-color="rgb(48,124,150)" stop-opacity="1"></stop>
		<stop class="stop1" offset="1" stop-color="rgb(211,227,237)" stop-opacity="1"></stop>
	</linearGradient>
	<linearGradient gradientUnits="userSpaceOnUse" id="Gradient23" x1="1329.13" x2="1330.49" y1="1031.01" y2="1142.57">
		<stop class="stop0" offset="0" stop-color="rgb(131,178,198)" stop-opacity="1"></stop>
		<stop class="stop1" offset="1" stop-color="rgb(194,218,232)" stop-opacity="1"></stop>
	</linearGradient>
	<linearGradient gradientUnits="userSpaceOnUse" id="Gradient24" x1="1397.42" x2="1361.89" y1="1012.56" y2="1008.34">
		<stop class="stop0" offset="0" stop-color="rgb(58,125,155)" stop-opacity="1"></stop>
		<stop class="stop1" offset="1" stop-color="rgb(110,171,194)" stop-opacity="1"></stop>
	</linearGradient>
	<linearGradient gradientUnits="userSpaceOnUse" id="Gradient25" x1="1382.2" x2="1350.91" y1="979.159" y2="975.342">
		<stop class="stop0" offset="0" stop-color="rgb(105,160,187)" stop-opacity="1"></stop>
		<stop class="stop1" offset="1" stop-color="rgb(158,195,210)" stop-opacity="1"></stop>
	</linearGradient>
	<linearGradient gradientUnits="userSpaceOnUse" id="Gradient26" x1="1393.59" x2="1287.64" y1="1081.91" y2="1239.23">
		<stop class="stop0" offset="0" stop-color="rgb(70,140,170)" stop-opacity="1"></stop>
		<stop class="stop1" offset="1" stop-color="rgb(196,214,225)" stop-opacity="1"></stop>
	</linearGradient>
	<linearGradient gradientUnits="userSpaceOnUse" id="Gradient27" x1="1062.3" x2="1058.41" y1="1542.22" y2="1590.83">
		<stop class="stop0" offset="0" stop-color="rgb(98,153,184)" stop-opacity="1"></stop>
		<stop class="stop1" offset="1" stop-color="rgb(177,205,218)" stop-opacity="1"></stop>
	</linearGradient>
	<linearGradient gradientUnits="userSpaceOnUse" id="Gradient28" x1="999.365" x2="1111.02" y1="1720.73" y2="1636.41">
		<stop class="stop0" offset="0" stop-color="rgb(30,100,118)" stop-opacity="1"></stop>
		<stop class="stop1" offset="1" stop-color="rgb(74,145,173)" stop-opacity="1"></stop>
	</linearGradient>
</defs>
<path d="M 0 0 L 2048 0 L 2048 2048 L 0 2048 L 0 0 z" fill="rgb(8,12,20)" transform="translate(0,0)"></path>
<path d="M 511.994 316.351 L 518.341 325.214 C 541.089 355.624 558.499 373.965 584.545 401.165 C 638.48 457.489 692.223 506.299 754.614 553.398 C 788.229 578.773 821.915 604.61 858.123 626.699 C 894.147 648.675 932.9 668.052 969.251 689.537 C 998.491 706.727 1026.69 725.631 1053.7 746.15 C 1064.35 754.075 1079.34 764.703 1089.04 773.283 C 1097.51 779.199 1110.13 791.567 1117.73 798.92 C 1162.47 841.458 1196.89 893.651 1218.39 951.517 L 1216.73 954.554 C 1167.59 871.109 1015 822.148 925.146 799.007 C 885.925 789.148 846.522 780.027 806.958 771.649 C 714.262 751.942 607.731 734.742 527.768 681.49 C 519.401 675.919 504.742 665.669 498.35 658.662 C 498.488 655.087 494.084 634.8 493.138 629.62 C 491.167 618.828 489.862 609.093 488.506 598.131 C 499.101 588.683 510.514 577.194 520.759 567.254 C 521.981 568.137 525.218 570.345 526.179 571.221 C 563.372 596.329 602.081 619.113 642.085 639.443 C 657.58 647.402 673.137 655.24 688.754 662.958 C 695.516 666.329 710.177 673.242 715.929 677.31 C 726.29 681.974 746.062 691.02 755.452 696.628 C 755.55 695.917 755.653 695.207 755.759 694.497 C 745.645 689.746 729.57 679.899 719.749 674.018 C 702.334 663.615 684.998 653.082 667.742 642.418 C 573.785 583.78 497.746 534.564 448.689 432.113 C 459.088 428.179 475.146 424.05 486.999 419.922 C 487.565 406.872 487.459 383.654 488.979 371.79 C 490.674 358.565 505.544 329.921 511.994 316.351 z" fill="rgb(3,125,104)" transform="translate(0,0)"></path>
<path d="M 518.341 325.214 C 541.089 355.624 558.499 373.965 584.545 401.165 C 638.48 457.489 692.223 506.299 754.614 553.398 C 788.229 578.773 821.915 604.61 858.123 626.699 C 894.147 648.675 932.9 668.052 969.251 689.537 C 998.491 706.727 1026.69 725.631 1053.7 746.15 C 1064.35 754.075 1079.34 764.703 1089.04 773.283 C 1090.62 779.987 1093.61 786.744 1096.39 793.07 C 1103.39 808.979 1109.09 824.661 1114.16 841.292 C 1090.22 828.822 1065.13 818.101 1040.66 806.694 C 992.409 784.21 944.108 762.237 895.205 741.192 C 856.107 724.367 819.194 705.44 782.573 683.775 C 701.655 636.287 628.195 577.107 564.573 508.15 C 529.633 470.599 528.451 472.367 511.633 423.819 L 493.101 370.224 C 499.824 361.291 513.177 335.645 518.341 325.214 z" fill="rgb(20,184,166)" transform="translate(0,0)"></path>
<path d="M 526.179 571.221 C 563.372 596.329 602.081 619.113 642.085 639.443 C 657.58 647.402 673.137 655.24 688.754 662.958 C 695.516 666.329 710.177 673.242 715.929 677.31 C 721.778 689.898 735.923 707.289 744.694 719.122 C 686.14 699.062 626.747 681.808 569.421 658.043 C 557.574 653.132 545.463 647.64 533.428 643.408 C 531.865 630.151 525.431 582.26 526.179 571.221 z" fill="rgb(20,184,166)" transform="translate(0,0)"></path>
<path d="M 755.759 694.497 C 756.738 694.79 760.314 696.139 759.698 697.733 C 758.669 698.485 756.4 697.052 755.452 696.628 C 755.55 695.917 755.653 695.207 755.759 694.497 z" fill="rgb(6,98,82)" transform="translate(0,0)"></path>
<path d="M 426.229 626.257 C 425.82 623.43 425.764 622.818 425.831 619.971 L 426.915 620.149 L 429.7 624.632 C 462.378 675.711 505.789 712.538 562.563 734.907 L 580.85 741.157 C 614.582 752.055 639.096 756.557 674.036 763.484 L 763.294 780.642 C 824.503 792.148 885.189 806.285 945.182 823.014 C 990.148 835.944 1020.45 846.373 1062.93 866.725 C 1110.01 887.564 1176.04 930.865 1208.79 971.147 C 1180.62 953.94 1159.9 946.464 1129.22 936.386 C 1042.33 907.841 952.813 910.459 862.896 918.846 C 813.275 923.473 763.304 931.629 713.425 925.274 C 660.978 918.593 617.465 901.003 573.981 871.711 C 567.018 866.768 560.175 861.658 553.458 856.387 C 481.649 800.058 435.744 717.025 426.229 626.257 z" fill="rgb(3,125,104)" transform="translate(0,0)"></path>
<path d="M 580.85 741.157 C 614.582 752.055 639.096 756.557 674.036 763.484 L 763.294 780.642 C 824.503 792.148 885.189 806.285 945.182 823.014 C 990.148 835.944 1020.45 846.373 1062.93 866.725 C 1058.38 869.749 1019.7 869.077 1012.08 868.994 C 903.157 867.803 793.82 870.272 684.951 869.048 C 669.089 858.869 651.267 843.867 636.155 832.312 C 621.541 821.138 605.244 809.776 591.374 798.111 C 589.567 790.011 581.09 747.33 580.85 741.157 z" fill="rgb(20,184,166)" transform="translate(0,0)"></path>
<path d="M 426.229 626.257 C 425.82 623.43 425.764 622.818 425.831 619.971 L 426.915 620.149 L 429.7 624.632 C 462.378 675.711 505.789 712.538 562.563 734.907 C 567.797 753.678 577.378 781.994 586.396 798.829 C 592.983 811.125 602.832 824.757 609.848 837.489 C 600.783 845.989 582.025 865.473 573.981 871.711 C 567.018 866.768 560.175 861.658 553.458 856.387 C 481.649 800.058 435.744 717.025 426.229 626.257 z" fill="rgb(20,184,166)" transform="translate(0,0)"></path>
<path d="M 552.246 894.013 C 590.644 923.244 621.33 940.852 670.672 948.996 C 674.242 949.139 688.677 949.733 691.769 950.542 C 730.275 953 780.051 944.953 818.655 940.577 C 898.015 931.582 983.525 923.794 1062.69 936.339 C 1106.68 942.634 1157.75 958.62 1197.02 979.216 L 1196.79 982.601 C 1104.29 955.343 1008.27 981.444 920.87 1013.73 C 854.275 1038.33 785.296 1068.3 713.181 1044.72 C 708.276 1043.14 703.421 1041.42 698.623 1039.55 C 630.24 1012.49 578.849 963.998 549.461 896.296 L 552.246 894.013 z" fill="rgb(3,125,104)" transform="translate(0,0)"></path>
<path d="M 691.769 950.542 C 730.275 953 780.051 944.953 818.655 940.577 C 898.015 931.582 983.525 923.794 1062.69 936.339 L 1061.84 938.181 C 1046.5 942.203 1024.83 944.908 1008.75 947.532 C 990.922 950.463 973.229 954.159 955.72 958.61 C 915.918 968.412 876.846 980.968 838.784 996.186 C 822.159 1002.66 804.696 1010.69 788.561 1016.8 C 762.05 1008.39 730.352 999.439 704.425 990.318 C 701.207 978.486 691.211 962.096 688.829 952.086 C 690.308 950.504 689.45 951.171 691.769 950.542 z" fill="rgb(20,184,166)" transform="translate(0,0)"></path>
<path d="M 552.246 894.013 C 590.644 923.244 621.33 940.852 670.672 948.996 C 681.704 961.492 688.785 974.885 698.995 987.765 C 706.517 997.254 718.123 1005.75 727.534 1013.61 C 725.52 1017.66 714.523 1043.4 713.181 1044.72 C 708.276 1043.14 703.421 1041.42 698.623 1039.55 C 630.24 1012.49 578.849 963.998 549.461 896.296 L 552.246 894.013 z" fill="rgb(20,184,166)" transform="translate(0,0)"></path>
<path d="M 1093.11 987.987 C 1115.78 986.02 1177.97 989.408 1199.62 994.865 C 1154.44 1003.79 1111.13 1020.43 1071.6 1044.06 C 1038.02 1064.4 1012.27 1084.33 981.647 1107.87 C 947.188 1134.36 897.014 1144.26 853.843 1143.2 C 793.163 1139.61 734.107 1109.45 695.946 1062.16 C 729.79 1078.63 764.621 1084.91 801.932 1077.68 C 805.907 1076.91 810.45 1075.69 814.442 1074.74 C 838.361 1069.57 886.715 1047.26 910.171 1037.29 C 969.556 1012.05 1028.44 992.858 1093.11 987.987 z" fill="rgb(3,125,104)" transform="translate(0,0)"></path>
<path d="M 814.442 1074.74 C 838.361 1069.57 886.715 1047.26 910.171 1037.29 C 969.556 1012.05 1028.44 992.858 1093.11 987.987 C 1087.67 992.315 1078.07 996.571 1071.73 999.778 C 1022.32 1024.73 977.378 1056.65 932.351 1088.57 C 925.137 1093.69 916.307 1100.57 908.835 1105.1 C 891.446 1103.73 849.096 1101.83 835.019 1098.47 C 828.412 1091.81 819.62 1082.54 814.442 1074.74 z" fill="rgb(20,184,166)" transform="translate(0,0)"></path>
<path d="M 695.946 1062.16 C 729.79 1078.63 764.621 1084.91 801.932 1077.68 C 822.98 1096.64 834.808 1103.93 860.624 1115.21 C 858.639 1124.6 856.378 1133.94 853.843 1143.2 C 793.163 1139.61 734.107 1109.45 695.946 1062.16 z" fill="rgb(20,184,166)" transform="translate(0,0)"></path>
<path d="M 1048.73 1396.64 L 1051.17 1395 C 1053.25 1411.32 1057.9 1428.95 1059.64 1443.98 C 1061.06 1451.6 1062.76 1459.85 1063.25 1467.56 C 1067.9 1486.53 1069.8 1517.58 1073.68 1539.05 C 1074.12 1540.9 1074.01 1540.92 1074.29 1542.99 L 1076.11 1555.99 C 1076.7 1560.28 1081.02 1584.37 1080.06 1586.72 C 1084.26 1609.3 1088.6 1638.09 1093.73 1659.94 C 1097.09 1675.47 1101.87 1701.92 1103.13 1717.5 C 1103.22 1718.61 1103.33 1719.73 1103.46 1720.84 C 1093.01 1726.44 1079.72 1732.57 1068.94 1737.69 C 1057.31 1745.39 1037.91 1753.4 1024.76 1759.21 L 1024.08 1759.13 C 1023.91 1759.17 1023.75 1759.26 1023.58 1759.24 C 1018.91 1758.7 989.921 1731.12 984.822 1726.46 C 977.369 1730.72 967.775 1736.27 959.638 1738.88 L 958.422 1737.3 C 963.645 1705.77 971.971 1670.11 978.051 1638 C 992.424 1561.45 1005.88 1484.74 1018.42 1407.87 C 1018.99 1402.76 1019.65 1398.42 1020.57 1393.39 C 1021.06 1403.04 1021.59 1418.08 1020.23 1427.52 C 1019.86 1453.19 1020.19 1478.87 1021.21 1504.52 C 1021.78 1521.57 1023.07 1541.33 1023.04 1558 C 1025.4 1552.88 1029.33 1523.18 1030.57 1515.04 C 1036.4 1476.57 1044.68 1435.2 1048.73 1396.64 z" fill="rgb(192,208,224)" transform="translate(0,0)"></path>
<path d="M 1020.57 1393.39 C 1021.06 1403.04 1021.59 1418.08 1020.23 1427.52 C 1019.86 1453.19 1020.19 1478.87 1021.21 1504.52 C 1021.78 1521.57 1023.07 1541.33 1023.04 1558 C 1022.97 1570.63 1022.65 1583.26 1022.08 1595.89 L 1024.02 1596.45 C 1026.3 1594.82 1027.78 1589.11 1029.93 1585.83 L 1031.03 1588.14 L 1029.3 1591.33 C 1025.35 1599.84 1027.69 1603.91 1029.77 1613.65 C 1030.23 1617.06 1032.62 1636.77 1033.68 1638.64 C 1034.5 1645.22 1041.79 1698.08 1043.34 1700.83 C 1037.7 1718.47 1031.68 1735.99 1025.28 1753.38 L 1024.08 1759.13 C 1023.91 1759.17 1023.75 1759.26 1023.58 1759.24 C 1018.91 1758.7 989.921 1731.12 984.822 1726.46 C 977.369 1730.72 967.775 1736.27 959.638 1738.88 L 958.422 1737.3 C 963.645 1705.77 971.971 1670.11 978.051 1638 C 992.424 1561.45 1005.88 1484.74 1018.42 1407.87 C 1018.99 1402.76 1019.65 1398.42 1020.57 1393.39 z" fill="rgb(20,184,166)" transform="translate(0,0)"></path>
<path d="M 1020.57 1393.39 C 1021.06 1403.04 1021.59 1418.08 1020.23 1427.52 C 1019.81 1420.32 1021.5 1412.47 1018.42 1407.87 C 1018.99 1402.76 1019.65 1398.42 1020.57 1393.39 z" fill="rgb(29,114,118)" transform="translate(0,0)"></path>
<path d="M 1077.03 1598.13 C 1077.9 1594.58 1078.05 1591.8 1079.44 1588.34 L 1080.06 1586.72 C 1084.26 1609.3 1088.6 1638.09 1093.73 1659.94 C 1097.09 1675.47 1101.87 1701.92 1103.13 1717.5 C 1103.22 1718.61 1103.33 1719.73 1103.46 1720.84 C 1093.01 1726.44 1079.72 1732.57 1068.94 1737.69 C 1057.31 1745.39 1037.91 1753.4 1024.76 1759.21 L 1024.08 1759.13 L 1025.28 1753.38 C 1031.68 1735.99 1037.7 1718.47 1043.34 1700.83 L 1045.71 1692.73 C 1050.06 1682.96 1054.44 1668.04 1057.87 1657.6 L 1074.94 1607.09 L 1076.36 1604.72 C 1076.01 1602.4 1076.61 1600.54 1077.03 1598.13 z" fill="url(#Gradient28)" transform="translate(0,0)"></path>
<path d="M 1093.73 1659.94 C 1097.09 1675.47 1101.87 1701.92 1103.13 1717.5 C 1103.22 1718.61 1103.33 1719.73 1103.46 1720.84 C 1093.01 1726.44 1079.72 1732.57 1068.94 1737.69 C 1069.21 1728.52 1090.12 1672.76 1093.73 1659.94 z" fill="rgb(25,88,110)" transform="translate(0,0)"></path>
<path d="M 1048.73 1396.64 L 1051.17 1395 C 1053.25 1411.32 1057.9 1428.95 1059.64 1443.98 C 1061.06 1451.6 1062.76 1459.85 1063.25 1467.56 C 1059.06 1463.94 1059.98 1466.08 1056.27 1466.42 C 1056 1466.03 1055.73 1465.64 1055.46 1465.25 C 1051.32 1482.13 1036.56 1576.75 1029.93 1585.83 C 1027.78 1589.11 1026.3 1594.82 1024.02 1596.45 L 1022.08 1595.89 C 1022.65 1583.26 1022.97 1570.63 1023.04 1558 C 1025.4 1552.88 1029.33 1523.18 1030.57 1515.04 C 1036.4 1476.57 1044.68 1435.2 1048.73 1396.64 z" fill="rgb(68,133,159)" transform="translate(0,0)"></path>
<path d="M 1059.64 1443.98 C 1061.06 1451.6 1062.76 1459.85 1063.25 1467.56 C 1059.06 1463.94 1059.98 1466.08 1056.27 1466.42 C 1056 1466.03 1055.73 1465.64 1055.46 1465.25 C 1056.06 1460.43 1057.49 1447.91 1059.64 1443.98 z" fill="rgb(250,252,252)" transform="translate(0,0)"></path>
<path d="M 1073.68 1539.05 C 1074.12 1540.9 1074.01 1540.92 1074.29 1542.99 L 1076.11 1555.99 C 1076.7 1560.28 1081.02 1584.37 1080.06 1586.72 L 1079.44 1588.34 C 1078.05 1591.8 1077.9 1594.58 1077.03 1598.13 C 1075.06 1593.43 1076.59 1596.19 1076.51 1592.49 L 1075.53 1592.66 L 1075.93 1592.55 C 1073.11 1593.43 1064.78 1591.88 1061.5 1591.48 C 1056.3 1590.84 1050.66 1589.52 1045.52 1588.23 C 1041.11 1587.12 1039.69 1588.21 1035.15 1587.81 C 1039.95 1581.11 1045.55 1574.47 1050.92 1568.21 C 1053.76 1565.56 1059.14 1558.49 1061.31 1555.09 C 1063.94 1551.52 1066.61 1548.07 1069.08 1544.38 C 1070.46 1543.06 1072.21 1540.63 1073.68 1539.05 z" fill="url(#Gradient27)" transform="translate(0,0)"></path>
<path d="M 1345.46 993.973 C 1352.07 981.996 1366.8 964.808 1375.06 953.006 C 1377.23 962.765 1379.8 971.091 1382.07 980.433 C 1386.71 995.779 1390.72 1011.35 1395.54 1026.64 C 1396.98 1031.21 1398.49 1035.03 1399.51 1039.73 L 1400.17 1040.87 C 1404.2 1047.78 1423.22 1109.71 1424.83 1119.16 L 1424.86 1121.24 C 1421.09 1124.87 1380.83 1151.41 1373.8 1155.81 L 1267.27 1228.02 C 1274.31 1205.33 1283.4 1172.49 1291.44 1150.98 C 1291.64 1150.22 1291.85 1149.46 1292.05 1148.71 L 1292.61 1146.75 C 1293.36 1144.07 1294.29 1141.48 1295.19 1138.85 C 1295.88 1133.14 1304.25 1108.03 1306.46 1101.1 C 1313.43 1079.22 1320.27 1057.3 1326.97 1035.34 C 1328.78 1028.56 1331.37 1022.53 1332.94 1015.82 C 1333.51 1010.89 1342.26 998.526 1345.46 993.973 z" fill="url(#Gradient26)" transform="translate(0,0)"></path>
<path d="M 1345.46 993.973 C 1352.07 981.996 1366.8 964.808 1375.06 953.006 C 1377.23 962.765 1379.8 971.091 1382.07 980.433 C 1386.71 995.779 1390.72 1011.35 1395.54 1026.64 C 1396.98 1031.21 1398.49 1035.03 1399.51 1039.73 L 1400.17 1040.87 C 1393.44 1046.98 1377.47 1057.91 1369.1 1063.52 C 1364.44 1058.87 1356.07 1046.43 1352.51 1043.64 C 1348.22 1043.38 1347.14 1036 1339.15 1037.88 C 1328.54 1033.75 1337.33 1027.2 1326.97 1035.34 C 1328.78 1028.56 1331.37 1022.53 1332.94 1015.82 C 1333.51 1010.89 1342.26 998.526 1345.46 993.973 z" fill="rgb(192,208,224)" transform="translate(0,0)"></path>
<path d="M 1345.46 993.973 C 1352.07 981.996 1366.8 964.808 1375.06 953.006 C 1377.23 962.765 1379.8 971.091 1382.07 980.433 C 1381.66 982.242 1380.44 985.545 1380.88 987.306 C 1380.97 987.68 1382.25 988.815 1381.32 989.517 C 1380.89 989.411 1380.49 988.85 1380.22 988.608 C 1379.99 988.393 1379.58 988.148 1379.24 988.247 C 1378.66 988.419 1377.94 989.569 1377.73 989.824 C 1374.79 993.326 1370.83 995.043 1366.53 996.288 C 1364.62 996.841 1361.97 998.08 1361.12 1000.03 C 1360.87 1000.61 1360.72 1001.23 1360.53 1001.83 C 1360.28 1002.65 1359.85 1003.44 1359.48 1004.21 C 1352.6 999.477 1353.06 996.532 1345.46 993.973 z" fill="url(#Gradient25)" transform="translate(0,0)"></path>
<path d="M 1382.07 980.433 C 1386.71 995.779 1390.72 1011.35 1395.54 1026.64 C 1396.98 1031.21 1398.49 1035.03 1399.51 1039.73 C 1390.75 1033.03 1367.95 1012.16 1359.48 1004.21 C 1359.85 1003.44 1360.28 1002.65 1360.53 1001.83 C 1360.72 1001.23 1360.87 1000.61 1361.12 1000.03 C 1361.97 998.08 1364.62 996.841 1366.53 996.288 C 1370.83 995.043 1374.79 993.326 1377.73 989.824 C 1377.94 989.569 1378.66 988.419 1379.24 988.247 C 1379.58 988.148 1379.99 988.393 1380.22 988.608 C 1380.49 988.85 1380.89 989.411 1381.32 989.517 C 1382.25 988.815 1380.97 987.68 1380.88 987.306 C 1380.44 985.545 1381.66 982.242 1382.07 980.433 z" fill="url(#Gradient24)" transform="translate(0,0)"></path>
<path d="M 1332.94 1015.82 C 1339.28 1023.99 1346.86 1034.87 1352.51 1043.64 C 1348.22 1043.38 1347.14 1036 1339.15 1037.88 C 1328.54 1033.75 1337.33 1027.2 1326.97 1035.34 C 1328.78 1028.56 1331.37 1022.53 1332.94 1015.82 z" fill="rgb(114,167,192)" transform="translate(0,0)"></path>
<path d="M 1326.97 1035.34 C 1337.33 1027.2 1328.54 1033.75 1339.15 1037.88 C 1347.14 1036 1348.22 1043.38 1352.51 1043.64 C 1356.07 1046.43 1364.44 1058.87 1369.1 1063.52 L 1367.88 1064.37 L 1366.34 1066.33 L 1323.22 1116.85 C 1319.43 1121.62 1297.12 1149.11 1293.56 1151.45 C 1292.88 1151.49 1292.1 1151.17 1291.44 1150.98 C 1291.64 1150.22 1291.85 1149.46 1292.05 1148.71 L 1292.61 1146.75 C 1293.36 1144.07 1294.29 1141.48 1295.19 1138.85 C 1295.88 1133.14 1304.25 1108.03 1306.46 1101.1 C 1313.43 1079.22 1320.27 1057.3 1326.97 1035.34 z" fill="url(#Gradient23)" transform="translate(0,0)"></path>
<path d="M 1295.19 1138.85 C 1295.33 1140.35 1294.58 1145.96 1295.98 1145.62 C 1297.31 1145.31 1298.89 1142.46 1299.82 1141.36 C 1301.48 1139.38 1305.41 1133.71 1306.81 1131.93 C 1319.61 1115.6 1333.16 1099.94 1346.94 1084.44 C 1349.62 1081.43 1352.29 1078.47 1354.99 1075.49 C 1356.95 1073.33 1362.4 1066.36 1365.41 1065.72 C 1365.77 1065.64 1366.17 1066.16 1366.34 1066.33 L 1323.22 1116.85 C 1319.43 1121.62 1297.12 1149.11 1293.56 1151.45 C 1292.88 1151.49 1292.1 1151.17 1291.44 1150.98 C 1291.64 1150.22 1291.85 1149.46 1292.05 1148.71 L 1292.61 1146.75 C 1293.36 1144.07 1294.29 1141.48 1295.19 1138.85 z" fill="rgb(250,252,252)" transform="translate(0,0)"></path>
<path d="M 1400.17 1040.87 C 1404.2 1047.78 1423.22 1109.71 1424.83 1119.16 C 1408.65 1105.09 1394.48 1088.75 1378.21 1074.76 C 1374.72 1071.75 1370.26 1068.27 1367.88 1064.37 L 1369.1 1063.52 C 1377.47 1057.91 1393.44 1046.98 1400.17 1040.87 z" fill="rgb(25,88,110)" transform="translate(0,0)"></path>
<path d="M 1149.95 1073.47 C 1181.11 1042.65 1270.57 993.785 1311.08 975.136 L 1305.44 991.745 C 1293.26 1026.22 1278.03 1072.02 1267.9 1107 L 1249.47 1120.04 C 1227.41 1135.76 1205.54 1152.97 1183.94 1168.22 L 1182.67 1169.2 L 1178.78 1167.64 C 1153.83 1157.25 1129.68 1144.19 1105.82 1134.05 C 1109.35 1127.32 1134.91 1088.67 1139.98 1083.7 L 1142.52 1080.87 L 1143.46 1080.2 C 1145.68 1077.65 1147.48 1075.77 1149.95 1073.47 z" fill="url(#Gradient22)" transform="translate(0,0)"></path>
<path d="M 1105.82 1134.05 C 1109.35 1127.32 1134.91 1088.67 1139.98 1083.7 C 1145.3 1091.68 1176.72 1158.76 1178.78 1167.64 C 1153.83 1157.25 1129.68 1144.19 1105.82 1134.05 z" fill="url(#Gradient21)" transform="translate(0,0)"></path>
<path d="M 1149.95 1073.47 C 1181.11 1042.65 1270.57 993.785 1311.08 975.136 L 1305.44 991.745 C 1289.04 991.919 1228.4 1028.34 1213.78 1039.26 C 1193.29 1050.66 1173.32 1063.58 1152.29 1075.33 L 1149.95 1073.47 z" fill="rgb(250,252,252)" transform="translate(0,0)"></path>
<path d="M 1142.52 1080.87 C 1153.89 1105.82 1174.93 1143.68 1183.94 1168.22 L 1182.67 1169.2 L 1178.78 1167.64 C 1176.72 1158.76 1145.3 1091.68 1139.98 1083.7 L 1142.52 1080.87 z" fill="rgb(250,252,252)" transform="translate(0,0)"></path>
<path d="M 1143.46 1080.2 C 1145.68 1077.65 1147.48 1075.77 1149.95 1073.47 L 1152.29 1075.33 C 1148.47 1077.76 1147.57 1078.49 1143.46 1080.2 z" fill="rgb(192,208,224)" transform="translate(0,0)"></path>
<path d="M 1023.85 1256.1 L 1026.85 1255.45 C 1023.84 1263.56 1020.48 1285.69 1019.03 1294.68 C 1015.38 1318.33 1011.57 1341.94 1007.57 1365.53 C 1003.69 1387.21 999.265 1409 994.859 1430.58 C 982.732 1489.98 972.611 1550.28 958.055 1609.12 C 950.826 1640.62 945.005 1669.48 938.777 1701.19 C 934.706 1691.12 931.062 1680.59 927.385 1670.35 C 916.629 1640.39 905.235 1610.68 894.018 1580.89 C 891.409 1573.96 891.214 1573.49 894.377 1566.92 C 901.02 1548.39 911.634 1525.38 919.311 1506.58 L 989.25 1339.95 C 1000.2 1314.19 1015.13 1281.81 1023.85 1256.1 z" fill="rgb(20,184,166)" transform="translate(0,0)"></path>
<path d="M 924.647 1556.42 C 933.245 1569.85 949.618 1598.42 958.055 1609.12 C 950.826 1640.62 945.005 1669.48 938.777 1701.19 C 934.706 1691.12 931.062 1680.59 927.385 1670.35 C 916.629 1640.39 905.235 1610.68 894.018 1580.89 C 891.409 1573.96 891.214 1573.49 894.377 1566.92 C 904.454 1565.23 915.186 1560.38 924.647 1556.42 z" fill="rgb(3,125,104)" transform="translate(0,0)"></path>
<path d="M 1430.34 830.081 C 1438.74 814.796 1449.8 805.177 1460.59 792.676 C 1461.22 795.119 1461.67 797.045 1462.21 799.486 L 1464.15 808.484 C 1465.75 816.209 1467.55 822.983 1468.28 830.963 C 1469.09 832.297 1469.15 832.47 1470.67 832.78 C 1469.37 847.363 1471.13 861.225 1474.24 875.489 C 1475.18 879.798 1476.34 884.054 1477.74 888.239 C 1482.84 900.857 1490.09 911.084 1496.87 922.783 C 1499.25 925.577 1499.74 925.911 1500.86 929.524 C 1500.52 930.564 1500.39 931.502 1499.76 932.178 L 1497.73 936.768 C 1491.91 956.441 1477.96 986.28 1470.5 1006.6 C 1466.15 1017.65 1455.48 1047.11 1450.61 1056.41 C 1450.18 1060.7 1437.33 1089.22 1434.99 1094.55 C 1432.7 1081.84 1428.77 1066.44 1425.83 1053.66 C 1423.33 1047.4 1416.05 1011.57 1414.18 1002.88 C 1410.7 984.345 1409.13 966.568 1406.01 948.374 C 1406.02 945.38 1405.92 943.091 1406.41 940.133 C 1408.67 914.715 1411.66 889.298 1415.43 864.056 C 1417.42 854.924 1423.86 836.608 1430.34 830.081 z" fill="url(#Gradient20)" transform="translate(0,0)"></path>
<path d="M 1494.77 934.477 C 1496.68 932.457 1496.93 932.739 1499.76 932.178 L 1497.73 936.768 C 1491.91 956.441 1477.96 986.28 1470.5 1006.6 C 1466.15 1017.65 1455.48 1047.11 1450.61 1056.41 C 1450.18 1060.7 1437.33 1089.22 1434.99 1094.55 C 1432.7 1081.84 1428.77 1066.44 1425.83 1053.66 C 1423.33 1047.4 1416.05 1011.57 1414.18 1002.88 C 1441.08 980.412 1467.88 956.493 1494.77 934.477 z" fill="rgb(192,208,224)" transform="translate(0,0)"></path>
<path d="M 1491.91 940.434 C 1494 939.283 1495.49 937.961 1497.73 936.768 C 1491.91 956.441 1477.96 986.28 1470.5 1006.6 C 1469.76 998.654 1471.35 1000.12 1473.45 993.583 C 1470.07 991.156 1449.41 983.762 1444.9 982.145 L 1443.75 981.723 C 1451.63 974.52 1484.81 944.328 1491.91 940.434 z" fill="url(#Gradient19)" transform="translate(0,0)"></path>
<path d="M 1430.34 830.081 C 1438.74 814.796 1449.8 805.177 1460.59 792.676 C 1461.22 795.119 1461.67 797.045 1462.21 799.486 L 1464.15 808.484 C 1465.75 816.209 1467.55 822.983 1468.28 830.963 C 1469.09 832.297 1469.15 832.47 1470.67 832.78 C 1469.37 847.363 1471.13 861.225 1474.24 875.489 C 1475.18 879.798 1476.34 884.054 1477.74 888.239 C 1469.9 887.639 1435.41 875.81 1426.07 872.495 C 1420.79 870.328 1416.12 870.791 1415.63 865.543 L 1415.43 864.056 C 1417.42 854.924 1423.86 836.608 1430.34 830.081 z" fill="url(#Gradient18)" transform="translate(0,0)"></path>
<path d="M 1415.43 864.056 L 1415.63 865.543 C 1416.12 870.791 1420.79 870.328 1426.07 872.495 C 1428.94 878.599 1435.04 887.639 1440.31 891.759 C 1435.63 899.366 1431.62 907.103 1426.99 914.687 C 1421.26 924.068 1414.77 933.028 1409.21 942.533 C 1408.21 944.551 1407.25 946.493 1406.01 948.374 C 1406.02 945.38 1405.92 943.091 1406.41 940.133 C 1408.67 914.715 1411.66 889.298 1415.43 864.056 z" fill="rgb(192,208,224)" transform="translate(0,0)"></path>
<path d="M 1426.07 872.495 C 1435.41 875.81 1469.9 887.639 1477.74 888.239 C 1482.84 900.857 1490.09 911.084 1496.87 922.783 C 1489.3 922.818 1449.59 897.599 1440.31 891.759 C 1435.04 887.639 1428.94 878.599 1426.07 872.495 z" fill="rgb(87,150,179)" transform="translate(0,0)"></path>
<path d="M 455.68 151.031 L 459.27 143.527 L 458.805 167.583 C 462.236 231.468 476.957 264.729 511.994 316.351 C 505.544 329.921 490.674 358.565 488.979 371.79 C 487.459 383.654 487.565 406.872 486.999 419.922 C 475.146 424.05 459.088 428.179 448.689 432.113 C 408.118 345.037 414.842 236.665 455.68 151.031 z" fill="rgb(20,184,166)" transform="translate(0,0)"></path>
<path d="M 1103.46 1720.84 C 1094.09 1747.39 1082.5 1770.25 1071.57 1795.98 C 1060.91 1821.6 1049.89 1847.06 1038.51 1872.36 C 1034.62 1881.19 1030.29 1892.55 1026.29 1900.8 C 1025.65 1902.19 1026.16 1901.6 1024.57 1902.4 C 1021.69 1898.83 1018.89 1889.71 1016.98 1884.99 L 1001.08 1846.16 C 995.863 1833.51 956.312 1744.21 958.422 1737.3 L 959.638 1738.88 C 967.775 1736.27 977.369 1730.72 984.822 1726.46 C 989.921 1731.12 1018.91 1758.7 1023.58 1759.24 C 1023.75 1759.26 1023.91 1759.17 1024.08 1759.13 L 1024.76 1759.21 C 1037.91 1753.4 1057.31 1745.39 1068.94 1737.69 C 1079.72 1732.57 1093.01 1726.44 1103.46 1720.84 z" fill="rgb(68,133,159)" transform="translate(0,0)"></path>
<path d="M 958.422 1737.3 L 959.638 1738.88 C 967.775 1736.27 977.369 1730.72 984.822 1726.46 C 989.921 1731.12 1018.91 1758.7 1023.58 1759.24 C 1023.75 1759.26 1023.91 1759.17 1024.08 1759.13 L 1024.76 1759.21 C 1024.83 1778.1 1022.34 1892.86 1026.29 1900.8 C 1025.65 1902.19 1026.16 1901.6 1024.57 1902.4 C 1021.69 1898.83 1018.89 1889.71 1016.98 1884.99 L 1001.08 1846.16 C 995.863 1833.51 956.312 1744.21 958.422 1737.3 z" fill="rgb(3,125,104)" transform="translate(0,0)"></path>
<path d="M 846.242 1473.6 C 889.04 1414.17 931.525 1354.51 973.695 1294.64 L 1008.13 1247.02 C 1012.93 1240.26 1021.95 1226.05 1026.6 1220.78 L 942.799 1399.32 C 925.982 1435.85 908.234 1477.68 890.289 1513.03 C 887.599 1519.74 860.731 1562.11 855.388 1570.69 C 853.857 1560.27 845.417 1479.91 846.242 1473.6 z" fill="rgb(20,184,166)" transform="translate(0,0)"></path>
<path d="M 846.242 1473.6 C 857.467 1473.15 866.302 1473.22 877.364 1470.83 C 878.818 1478.98 885.64 1506.88 890.289 1513.03 C 887.599 1519.74 860.731 1562.11 855.388 1570.69 C 853.857 1560.27 845.417 1479.91 846.242 1473.6 z" fill="rgb(3,125,104)" transform="translate(0,0)"></path>
<path d="M 1391.56 604.883 C 1403.46 602.916 1418.91 603.934 1430.78 601.683 C 1431.26 608.687 1432.31 610.704 1433.08 616.743 C 1434.01 624.842 1435.25 644.182 1437.76 650.986 C 1435 651.298 1432.25 651.673 1429.51 652.111 C 1426.13 652.619 1421.89 653.506 1418.51 654.166 L 1413.51 655.187 C 1406.33 656.643 1398.86 658.783 1391.81 660.839 C 1391.09 661.073 1390.37 661.307 1389.66 661.54 L 1382.83 663.795 C 1360.52 670.501 1349.38 679.928 1329.89 688.426 C 1322.32 692.451 1314.25 697.43 1306.59 701.707 C 1303.9 700.846 1301.25 699.785 1298.48 699.169 L 1294.46 698.303 L 1282.51 695.778 C 1277.29 694.672 1271.69 694.105 1266.82 691.984 L 1266.33 692.167 C 1250.24 687.896 1233.88 682.227 1217.97 678.291 C 1216.54 677.838 1211.68 676.549 1210.9 675.511 C 1211.26 674.529 1214.04 674.132 1214.75 673.97 C 1217.71 673.168 1223.03 671.78 1226.01 671.187 L 1231.5 670.069 C 1243.9 667.674 1255.73 664.186 1267.9 661.521 L 1282.74 653.791 L 1296.54 646.221 C 1301.27 642.094 1302.29 641.44 1308.33 638.853 C 1307.62 637.564 1306.94 636.264 1306.28 634.955 L 1307.55 634.462 C 1311.63 633.54 1315.36 632.443 1319.37 631.402 C 1320.23 630.889 1321.09 630.365 1321.94 629.828 C 1325.08 630.371 1324.93 630.46 1327.97 629.919 L 1329.38 631.214 C 1330.22 629.924 1330.51 629.452 1331.22 628.072 C 1335.56 621.061 1338.18 615.985 1341.62 608.57 C 1343.07 607.606 1343.26 607.501 1344.86 606.842 L 1344.65 606.208 C 1358.55 605.496 1377.99 604.675 1391.56 604.883 z" fill="url(#Gradient17)" transform="translate(0,0)"></path>
<path d="M 1391.56 604.883 C 1403.46 602.916 1418.91 603.934 1430.78 601.683 C 1431.26 608.687 1432.31 610.704 1433.08 616.743 C 1434.01 624.842 1435.25 644.182 1437.76 650.986 C 1435 651.298 1432.25 651.673 1429.51 652.111 C 1426.13 652.619 1421.89 653.506 1418.51 654.166 L 1413.51 655.187 C 1406.33 656.643 1398.86 658.783 1391.81 660.839 C 1388.45 658.898 1389.73 657.419 1387.14 655.571 C 1383.26 653.444 1380.23 648.084 1375.8 646.548 C 1366.97 643.486 1368.79 642.946 1363.9 638.702 C 1358.77 637.317 1345.12 614.364 1341.62 608.57 C 1343.07 607.606 1343.26 607.501 1344.86 606.842 L 1344.65 606.208 C 1358.55 605.496 1377.99 604.675 1391.56 604.883 z" fill="url(#Gradient16)" transform="translate(0,0)"></path>
<path d="M 1424.16 619.577 C 1427.92 618.491 1430.16 616.282 1433.08 616.743 C 1434.01 624.842 1435.25 644.182 1437.76 650.986 C 1435 651.298 1432.25 651.673 1429.51 652.111 C 1426.13 652.619 1421.89 653.506 1418.51 654.166 L 1413.51 655.187 C 1406.33 656.643 1398.86 658.783 1391.81 660.839 C 1388.45 658.898 1389.73 657.419 1387.14 655.571 C 1383.26 653.444 1380.23 648.084 1375.8 646.548 C 1366.97 643.486 1368.79 642.946 1363.9 638.702 C 1365.18 638.014 1365.62 637.717 1367.01 637.289 C 1385.25 631.218 1406.88 625.908 1424.16 619.577 z" fill="url(#Gradient15)" transform="translate(0,0)"></path>
<path d="M 1391.56 604.883 C 1403.46 602.916 1418.91 603.934 1430.78 601.683 C 1431.26 608.687 1432.31 610.704 1433.08 616.743 C 1430.16 616.282 1427.92 618.491 1424.16 619.577 C 1420 613.544 1415.37 613.248 1409.99 609.443 C 1401.54 603.46 1401.65 605.72 1391.56 604.883 z" fill="rgb(87,150,179)" transform="translate(0,0)"></path>
<path d="M 1341.62 608.57 C 1343.07 607.606 1343.26 607.501 1344.86 606.842 L 1346.19 607.152 C 1348.25 607.61 1344.76 611.947 1350.34 614.635 C 1352.44 615.649 1359.86 623.349 1359.14 626.502 C 1358.17 633.609 1360.44 635.867 1367.01 637.289 C 1365.62 637.717 1365.18 638.014 1363.9 638.702 C 1358.77 637.317 1345.12 614.364 1341.62 608.57 z" fill="rgb(192,208,224)" transform="translate(0,0)"></path>
<path d="M 1214.75 673.97 C 1217.71 673.168 1223.03 671.78 1226.01 671.187 L 1231.5 670.069 C 1243.9 667.674 1255.73 664.186 1267.9 661.521 C 1266.16 667.26 1266.86 675.631 1262.23 676.546 C 1264.88 678.007 1267.69 676.726 1269.42 677.721 C 1270.05 678.822 1267.79 679.91 1267.24 680.316 L 1267.88 680.794 C 1267.67 684.254 1267.18 688.498 1266.82 691.984 L 1266.33 692.167 C 1250.24 687.896 1233.88 682.227 1217.97 678.291 C 1216.54 677.838 1211.68 676.549 1210.9 675.511 C 1211.26 674.529 1214.04 674.132 1214.75 673.97 z" fill="rgb(87,150,179)" transform="translate(0,0)"></path>
<path d="M 1214.75 673.97 C 1217.71 673.168 1223.03 671.78 1226.01 671.187 L 1231.5 670.069 C 1243.9 667.674 1255.73 664.186 1267.9 661.521 C 1266.16 667.26 1266.86 675.631 1262.23 676.546 C 1246.58 674.925 1230.75 675.743 1214.75 673.97 z" fill="rgb(51,114,146)" transform="translate(0,0)"></path>
<path d="M 1214.75 673.97 C 1230.75 675.743 1246.58 674.925 1262.23 676.546 C 1264.88 678.007 1267.69 676.726 1269.42 677.721 C 1270.05 678.822 1267.79 679.91 1267.24 680.316 C 1252.17 678.994 1233.06 677.067 1217.97 678.291 C 1216.54 677.838 1211.68 676.549 1210.9 675.511 C 1211.26 674.529 1214.04 674.132 1214.75 673.97 z" fill="rgb(192,208,224)" transform="translate(0,0)"></path>
<path d="M 1341.62 608.57 C 1345.12 614.364 1358.77 637.317 1363.9 638.702 C 1368.79 642.946 1366.97 643.486 1375.8 646.548 C 1380.23 648.084 1383.26 653.444 1387.14 655.571 C 1389.73 657.419 1388.45 658.898 1391.81 660.839 C 1391.09 661.073 1390.37 661.307 1389.66 661.54 L 1382.83 663.795 C 1380.18 661.725 1365.32 643.304 1362.59 639.9 C 1358.43 640.723 1353.8 641.251 1349.85 642.574 C 1342.99 641.261 1336.22 639.933 1329.31 638.877 C 1326.17 638.016 1321.41 638.584 1323.17 635.03 L 1323.7 633.923 C 1322.75 632.771 1322.14 632.299 1320.72 631.863 L 1319.37 631.402 C 1320.23 630.889 1321.09 630.365 1321.94 629.828 C 1325.08 630.371 1324.93 630.46 1327.97 629.919 L 1329.38 631.214 C 1330.22 629.924 1330.51 629.452 1331.22 628.072 C 1335.56 621.061 1338.18 615.985 1341.62 608.57 z" fill="rgb(87,150,179)" transform="translate(0,0)"></path>
<path d="M 1327.97 629.919 L 1329.38 631.214 C 1326.74 632.747 1326.58 632.951 1323.7 633.923 C 1322.75 632.771 1322.14 632.299 1320.72 631.863 L 1319.37 631.402 C 1320.23 630.889 1321.09 630.365 1321.94 629.828 C 1325.08 630.371 1324.93 630.46 1327.97 629.919 z" fill="rgb(25,88,110)" transform="translate(0,0)"></path>
<path d="M 1267.88 680.794 C 1279.44 682.169 1291.22 684.09 1302.87 685.562 C 1309.8 687.045 1325.36 686.303 1329.89 688.426 C 1322.32 692.451 1314.25 697.43 1306.59 701.707 C 1303.9 700.846 1301.25 699.785 1298.48 699.169 L 1294.46 698.303 L 1282.51 695.778 C 1277.29 694.672 1271.69 694.105 1266.82 691.984 C 1267.18 688.498 1267.67 684.254 1267.88 680.794 z" fill="rgb(1,239,237)" transform="translate(0,0)"></path>
<path d="M 1307.55 634.462 C 1311.63 633.54 1315.36 632.443 1319.37 631.402 L 1320.72 631.863 C 1322.14 632.299 1322.75 632.771 1323.7 633.923 L 1323.17 635.03 C 1321.41 638.584 1326.17 638.016 1329.31 638.877 C 1336.22 639.933 1342.99 641.261 1349.85 642.574 C 1342.34 645.349 1307.87 645.466 1296.54 646.221 C 1301.27 642.094 1302.29 641.44 1308.33 638.853 C 1307.62 637.564 1306.94 636.264 1306.28 634.955 L 1307.55 634.462 z" fill="url(#Gradient14)" transform="translate(0,0)"></path>
<path d="M 1307.55 634.462 C 1311.63 633.54 1315.36 632.443 1319.37 631.402 L 1320.72 631.863 C 1322.14 632.299 1322.75 632.771 1323.7 633.923 C 1319.88 635.574 1316.02 637.116 1312.11 638.546 C 1310.77 638.612 1309.65 638.722 1308.33 638.853 C 1307.62 637.564 1306.94 636.264 1306.28 634.955 L 1307.55 634.462 z" fill="rgb(15,57,82)" transform="translate(0,0)"></path>
<path d="M 1323.7 633.923 L 1323.17 635.03 C 1321.41 638.584 1326.17 638.016 1329.31 638.877 C 1322.65 638.918 1316.36 640.842 1312.11 638.546 C 1316.02 637.116 1319.88 635.574 1323.7 633.923 z" fill="rgb(68,133,159)" transform="translate(0,0)"></path>
<path d="M 401.577 412.012 C 401.714 407.972 401.706 407.073 402.667 403.207 C 404.538 404.814 404.771 407.445 405.658 410.291 C 430.251 477.129 461.605 524.399 520.759 567.254 C 510.514 577.194 499.101 588.683 488.506 598.131 C 489.862 609.093 491.167 618.828 493.138 629.62 C 494.084 634.8 498.488 655.087 498.35 658.662 C 488.759 650.643 474.934 635.48 466.814 625.813 C 416.153 565.501 395.045 490.192 401.577 412.012 z" fill="rgb(20,184,166)" transform="translate(0,0)"></path>
<path d="M 1105.82 1134.05 C 1129.68 1144.19 1153.83 1157.25 1178.78 1167.64 L 1182.67 1169.2 C 1122.12 1221.34 1083.85 1264.33 1043.28 1332.66 C 1041.99 1335.33 1041.73 1335.53 1039.84 1337.87 L 1038.89 1337.57 L 1039.68 1333.28 C 1041.03 1275.68 1077.13 1183.08 1105.82 1134.05 z" fill="rgb(68,133,159)" transform="translate(0,0)"></path>
<path d="M 1267.7 767.637 C 1287.52 747.724 1313.87 729.807 1338.92 717.247 C 1340.21 722.962 1337.37 723.525 1334.5 728.761 C 1341.28 735.005 1342.65 740.333 1346.42 748.305 C 1339.46 758.09 1334.01 767.74 1327.55 777.009 C 1317.51 795.959 1308.1 813.376 1299.83 833.2 C 1298.53 836.128 1297.12 838.99 1295.62 841.817 C 1287.27 842.454 1276.87 844.835 1269.12 844.986 C 1266.01 845.785 1262.2 846.429 1258.99 846.868 C 1243.61 848.975 1228.42 852.491 1213.06 854.672 C 1215.66 847.51 1222.05 828.797 1226.45 822.933 C 1235.22 803.557 1252.35 782.191 1267.7 767.637 z" fill="url(#Gradient13)" transform="translate(0,0)"></path>
<path d="M 1267.7 767.637 C 1287.52 747.724 1313.87 729.807 1338.92 717.247 C 1340.21 722.962 1337.37 723.525 1334.5 728.761 C 1341.28 735.005 1342.65 740.333 1346.42 748.305 C 1339.46 758.09 1334.01 767.74 1327.55 777.009 C 1317.51 795.959 1308.1 813.376 1299.83 833.2 C 1293.72 817.8 1290.16 798.463 1284.15 781.917 C 1280.42 778.446 1279.63 774.505 1274.88 777.28 C 1272.97 773.969 1271.66 771.789 1268.99 769.022 L 1267.7 767.637 z" fill="url(#Gradient12)" transform="translate(0,0)"></path>
<path d="M 1267.7 767.637 C 1287.52 747.724 1313.87 729.807 1338.92 717.247 C 1340.21 722.962 1337.37 723.525 1334.5 728.761 L 1332.54 728.983 C 1332.4 729.018 1284.58 780.183 1284.15 781.917 C 1280.42 778.446 1279.63 774.505 1274.88 777.28 C 1272.97 773.969 1271.66 771.789 1268.99 769.022 L 1267.7 767.637 z" fill="rgb(114,167,192)" transform="translate(0,0)"></path>
<path d="M 1284.15 781.917 C 1284.58 780.183 1332.4 729.018 1332.54 728.983 C 1328.67 738.653 1316.98 747.544 1311.58 755.932 C 1305.75 761.127 1289.72 780.945 1284.15 781.917 z" fill="rgb(192,208,224)" transform="translate(0,0)"></path>
<path d="M 1267.7 767.637 L 1268.99 769.022 C 1271.66 771.789 1272.97 773.969 1274.88 777.28 C 1269.43 782.655 1244.59 805.461 1241.86 810.086 C 1236.44 814.575 1231.28 822.192 1226.45 822.933 C 1235.22 803.557 1252.35 782.191 1267.7 767.637 z" fill="rgb(250,252,252)" transform="translate(0,0)"></path>
<path d="M 840.802 503.809 L 841.663 505.877 C 864.172 560.059 909.376 607.831 952.429 646.587 C 955.181 648.163 967.26 657.955 970.312 660.335 C 982.728 670.099 995.28 679.689 1007.96 689.102 C 949.659 666.392 837.641 609.05 810.145 552.3 C 812.829 542.713 814.943 530.69 816.947 520.779 C 823.023 515.985 834.339 507.451 840.802 503.809 z" fill="rgb(3,125,104)" transform="translate(0,0)"></path>
<path d="M 826.136 551.729 C 828.427 544.7 838.682 508.416 841.663 505.877 C 864.172 560.059 909.376 607.831 952.429 646.587 C 951.731 647.237 952.272 646.829 950.475 647.144 C 910.673 623.837 858.461 584.664 826.136 551.729 z" fill="rgb(20,184,166)" transform="translate(0,0)"></path>
<path d="M 1092.59 1053.53 C 1103.6 1043.79 1143.73 1028.03 1159.06 1023.39 L 1160.49 1025.35 C 1121.07 1050.15 1100.74 1080.27 1074.07 1116.37 C 1058.27 1137.76 1027.83 1156.18 1002.94 1165.01 C 1000.14 1154.63 989.366 1154.5 979.65 1151.5 C 973.072 1148.44 961.457 1145.48 956.59 1141.57 C 969.476 1134.82 988.161 1125.26 999.988 1116.95 C 1029.37 1096.32 1061.06 1070.71 1092.59 1053.53 z" fill="rgb(3,125,104)" transform="translate(0,0)"></path>
<path d="M 1092.59 1053.53 C 1091.91 1057.25 1078.81 1070.92 1075.2 1074.4 C 1057.12 1091.82 1044.58 1120.57 1028.86 1138.26 C 1012.6 1144.97 995.337 1145.1 980.914 1149.77 L 979.65 1151.5 C 973.072 1148.44 961.457 1145.48 956.59 1141.57 C 969.476 1134.82 988.161 1125.26 999.988 1116.95 C 1029.37 1096.32 1061.06 1070.71 1092.59 1053.53 z" fill="rgb(20,184,166)" transform="translate(0,0)"></path>
<path d="M 956.59 1141.57 C 966.706 1143.3 971.764 1146.8 980.914 1149.77 L 979.65 1151.5 C 973.072 1148.44 961.457 1145.48 956.59 1141.57 z" fill="rgb(6,98,82)" transform="translate(0,0)"></path>
<path d="M 1078.49 1368.11 L 1080.79 1367.13 L 1081.4 1369.23 C 1088.77 1386.21 1098.27 1405.3 1104.77 1422 C 1109.15 1430.47 1114.21 1443.13 1117.75 1452.11 C 1121.16 1457.47 1136.36 1495.86 1138.65 1502.91 C 1139.46 1504.18 1140.05 1505.27 1140.77 1506.58 C 1141.39 1509.35 1145.67 1519.13 1147.05 1522.58 C 1152.43 1536.13 1157.96 1549.62 1163.64 1563.05 C 1159.8 1564.13 1122.12 1548.23 1114.1 1546.04 L 1111.74 1545.13 C 1110.6 1540.28 1099.55 1541.37 1097.51 1539.31 C 1096.39 1538.18 1098.08 1531.57 1098.27 1528.77 C 1097.25 1530.83 1096.46 1532.48 1095.56 1534.62 C 1093.99 1525.08 1092.87 1509.87 1091.77 1499.7 L 1084.59 1432.12 C 1083.01 1416.05 1080.68 1396.97 1079.95 1381.07 C 1078.93 1376.08 1079.05 1373.13 1078.49 1368.11 z" fill="url(#Gradient11)" transform="translate(0,0)"></path>
<path d="M 1078.49 1368.11 L 1080.79 1367.13 L 1081.4 1369.23 C 1088.77 1386.21 1098.27 1405.3 1104.77 1422 C 1109.15 1430.47 1114.21 1443.13 1117.75 1452.11 C 1116.97 1452.89 1116.18 1453.61 1115.37 1454.36 C 1114.63 1456.56 1114.46 1458.75 1114.01 1461.02 C 1113.31 1464.5 1112.72 1467.99 1112.23 1471.5 C 1111.78 1474.83 1111.36 1477.62 1110.97 1481.04 L 1107.93 1480.99 C 1106.21 1486.43 1105.37 1493.33 1104.02 1499.02 L 1103.12 1503.02 C 1102.8 1504.88 1102.42 1506.69 1102 1508.52 L 1101.14 1512.52 C 1100.31 1516.34 1098.08 1525.4 1098.27 1528.77 C 1097.25 1530.83 1096.46 1532.48 1095.56 1534.62 C 1093.99 1525.08 1092.87 1509.87 1091.77 1499.7 L 1084.59 1432.12 C 1083.01 1416.05 1080.68 1396.97 1079.95 1381.07 C 1078.93 1376.08 1079.05 1373.13 1078.49 1368.11 z" fill="url(#Gradient10)" transform="translate(0,0)"></path>
<path d="M 1107.93 1480.99 C 1108.65 1477.84 1113.14 1454.89 1114.68 1453.95 C 1114.91 1454.09 1115.14 1454.22 1115.37 1454.36 C 1114.63 1456.56 1114.46 1458.75 1114.01 1461.02 C 1113.31 1464.5 1112.72 1467.99 1112.23 1471.5 C 1111.78 1474.83 1111.36 1477.62 1110.97 1481.04 L 1107.93 1480.99 z" fill="rgb(134,183,208)" transform="translate(0,0)"></path>
<path d="M 1078.49 1368.11 L 1080.79 1367.13 L 1081.4 1369.23 C 1080.05 1372.9 1080.44 1376.99 1079.95 1381.07 C 1078.93 1376.08 1079.05 1373.13 1078.49 1368.11 z" fill="rgb(192,208,224)" transform="translate(0,0)"></path>
<path d="M 1117.75 1452.11 C 1121.16 1457.47 1136.36 1495.86 1138.65 1502.91 C 1131.31 1498.85 1136.06 1499.37 1125.47 1496.68 L 1121.47 1495.68 C 1116.92 1494.58 1113.87 1492.8 1109.08 1493.78 L 1107.48 1494.09 C 1107.75 1492.93 1109.97 1483.32 1110.34 1482.52 L 1110.97 1481.04 C 1111.36 1477.62 1111.78 1474.83 1112.23 1471.5 C 1112.72 1467.99 1113.31 1464.5 1114.01 1461.02 C 1114.46 1458.75 1114.63 1456.56 1115.37 1454.36 C 1116.18 1453.61 1116.97 1452.89 1117.75 1452.11 z" fill="url(#Gradient9)" transform="translate(0,0)"></path>
<path d="M 1107.48 1494.09 L 1109.08 1493.78 C 1113.87 1492.8 1116.92 1494.58 1121.47 1495.68 L 1125.47 1496.68 C 1136.06 1499.37 1131.31 1498.85 1138.65 1502.91 C 1139.46 1504.18 1140.05 1505.27 1140.77 1506.58 C 1135.47 1506.43 1132.52 1504.73 1128.99 1504.62 C 1125.01 1504.5 1121.03 1504.22 1117.07 1503.77 C 1114.82 1503.5 1104.94 1504.34 1106.41 1504.74 C 1105.43 1502.75 1107.22 1498.22 1107.36 1495.99 L 1107.48 1494.09 z" fill="rgb(192,208,224)" transform="translate(0,0)"></path>
<path d="M 1129.91 1411.02 C 1135.26 1409.37 1156.15 1413.75 1163.3 1410.74 C 1165.31 1409.88 1166.99 1411.93 1169.65 1412.95 C 1172.05 1415.05 1173.72 1417.88 1175.01 1420.76 C 1180.52 1425.87 1195.61 1445.77 1200.64 1452.63 L 1207.06 1461.35 C 1205.17 1476.33 1203.47 1491.34 1201.97 1506.37 C 1200.07 1526.67 1198.55 1547 1197.43 1567.35 C 1197.26 1568.12 1197.21 1570.53 1196.11 1570.23 C 1195.08 1569.17 1194.75 1567.75 1194.35 1566.35 C 1187.24 1554.27 1174.15 1522.42 1167.18 1507.89 L 1166.93 1507.21 C 1155.75 1490.71 1138.57 1438.42 1132.21 1418.56 C 1131.31 1415.96 1130.72 1413.63 1129.91 1411.02 z" fill="url(#Gradient8)" transform="translate(0,0)"></path>
<path d="M 1200.64 1452.63 L 1207.06 1461.35 C 1205.17 1476.33 1203.47 1491.34 1201.97 1506.37 C 1200.07 1526.67 1198.55 1547 1197.43 1567.35 C 1197.26 1568.12 1197.21 1570.53 1196.11 1570.23 C 1195.08 1569.17 1194.75 1567.75 1194.35 1566.35 C 1187.24 1554.27 1174.15 1522.42 1167.18 1507.89 L 1169.88 1508.07 C 1170.45 1506.87 1171.02 1506.51 1170.23 1505.34 C 1174.24 1500.33 1177.73 1491.42 1181.31 1485.08 C 1187.53 1474.04 1194.42 1463.52 1200.64 1452.63 z" fill="url(#Gradient7)" transform="translate(0,0)"></path>
<path d="M 1194.35 1566.35 C 1194.46 1566.15 1196.67 1561.7 1196.42 1561.81 C 1196.82 1562.43 1197.29 1566.54 1197.43 1567.35 C 1197.26 1568.12 1197.21 1570.53 1196.11 1570.23 C 1195.08 1569.17 1194.75 1567.75 1194.35 1566.35 z" fill="rgb(87,150,179)" transform="translate(0,0)"></path>
<path d="M 1175.01 1420.76 C 1180.52 1425.87 1195.61 1445.77 1200.64 1452.63 C 1194.42 1463.52 1187.53 1474.04 1181.31 1485.08 C 1177.73 1491.42 1174.24 1500.33 1170.23 1505.34 C 1169.99 1477.97 1176.04 1449.11 1174.57 1422.06 L 1175.01 1420.76 z" fill="rgb(68,133,159)" transform="translate(0,0)"></path>
<path d="M 1129.91 1411.02 C 1135.26 1409.37 1156.15 1413.75 1163.3 1410.74 C 1165.31 1409.88 1166.99 1411.93 1169.65 1412.95 C 1172.05 1415.05 1173.72 1417.88 1175.01 1420.76 L 1174.57 1422.06 C 1176.04 1449.11 1169.99 1477.97 1170.23 1505.34 C 1171.02 1506.51 1170.45 1506.87 1169.88 1508.07 L 1167.18 1507.89 L 1166.93 1507.21 C 1169.21 1498.63 1170.38 1461.43 1171.81 1450.51 C 1172.6 1444.5 1170.79 1432.88 1172.85 1425.57 C 1162.69 1423.25 1142.04 1419.28 1132.21 1418.56 C 1131.31 1415.96 1130.72 1413.63 1129.91 1411.02 z" fill="rgb(192,208,224)" transform="translate(0,0)"></path>
<path d="M 1098.27 1528.77 C 1098.08 1531.57 1096.39 1538.18 1097.51 1539.31 C 1099.55 1541.37 1110.6 1540.28 1111.74 1545.13 L 1114.1 1546.04 C 1122.12 1548.23 1159.8 1564.13 1163.64 1563.05 C 1165.14 1566.29 1168.27 1572.15 1165.63 1575.11 C 1160 1588.85 1148.26 1617.32 1141.51 1630.08 C 1135.19 1647.77 1124.05 1671.18 1116.14 1688.82 C 1113.91 1670.62 1111.35 1652.45 1108.46 1634.35 L 1105.33 1614.81 C 1104.9 1612.82 1105.03 1611.46 1104.76 1609.5 L 1104.48 1607.54 C 1104.43 1607.07 1104.37 1606.6 1104.32 1606.14 C 1104.14 1603.82 1103.99 1601.82 1103.93 1599.49 C 1101.72 1589.27 1100.31 1576.32 1099.04 1565.82 C 1098.08 1556.01 1096.93 1544.25 1095.56 1534.62 C 1096.46 1532.48 1097.25 1530.83 1098.27 1528.77 z" fill="url(#Gradient6)" transform="translate(0,0)"></path>
<path d="M 1110.23 1609.49 C 1112.82 1607.23 1161 1576.61 1163.91 1575.7 L 1165.63 1575.11 C 1160 1588.85 1148.26 1617.32 1141.51 1630.08 C 1135.19 1647.77 1124.05 1671.18 1116.14 1688.82 C 1113.91 1670.62 1111.35 1652.45 1108.46 1634.35 L 1105.33 1614.81 C 1106.29 1611.77 1106.48 1611.99 1109.1 1609.62 L 1110.23 1609.49 z" fill="rgb(192,208,224)" transform="translate(0,0)"></path>
<path d="M 1098.27 1528.77 C 1098.08 1531.57 1096.39 1538.18 1097.51 1539.31 C 1099.55 1541.37 1110.6 1540.28 1111.74 1545.13 L 1114.1 1546.04 C 1113.16 1550.98 1112.2 1557.05 1111.62 1562.06 C 1111.48 1562.95 1111.34 1563.84 1111.2 1564.73 C 1110.98 1568.41 1109.87 1577.85 1109.03 1581.49 C 1107.63 1587.57 1107.88 1601.92 1104.32 1606.14 C 1104.14 1603.82 1103.99 1601.82 1103.93 1599.49 C 1101.72 1589.27 1100.31 1576.32 1099.04 1565.82 C 1098.08 1556.01 1096.93 1544.25 1095.56 1534.62 C 1096.46 1532.48 1097.25 1530.83 1098.27 1528.77 z" fill="rgb(192,208,224)" transform="translate(0,0)"></path>
<path d="M 1099.04 1565.82 C 1103.35 1570.99 1100.82 1572.91 1103 1576.24 L 1103.17 1576.25 C 1103.58 1576.6 1103.33 1576.36 1103.96 1577.07 C 1104.43 1577.14 1104.9 1577.21 1105.38 1577.28 C 1106.09 1576.68 1107.32 1570.09 1107.59 1568.92 C 1107.78 1574.29 1106.73 1595.6 1103.93 1599.49 C 1101.72 1589.27 1100.31 1576.32 1099.04 1565.82 z" fill="rgb(114,167,192)" transform="translate(0,0)"></path>
<path d="M 1430.78 601.683 C 1441.46 599.911 1453.21 599.143 1463.98 597.196 C 1465.03 597.007 1466.39 598.644 1467.04 599.279 C 1474.68 601.912 1493.77 610.93 1501.06 614.672 L 1502.81 615.543 C 1507.31 617.752 1511 619.347 1515.11 622.322 C 1518.36 623.311 1521.04 625.003 1523.63 627.177 C 1525.96 628.173 1526.35 628.598 1528.48 630.144 C 1539.04 643.782 1550.2 650.309 1554.88 668.636 C 1554.08 675.009 1555.38 679.46 1547.24 677.733 C 1539.66 676.198 1535.2 674.616 1528.14 671.412 C 1523.74 670.289 1504.35 660.115 1497.58 657.707 C 1496.83 657.314 1496.06 656.96 1495.29 656.594 C 1472.59 649.939 1463.17 646.65 1439.1 650.623 L 1437.76 650.986 C 1435.25 644.182 1434.01 624.842 1433.08 616.743 C 1432.31 610.704 1431.26 608.687 1430.78 601.683 z" fill="url(#Gradient5)" transform="translate(0,0)"></path>
<path d="M 1523.63 627.177 C 1525.96 628.173 1526.35 628.598 1528.48 630.144 C 1539.04 643.782 1550.2 650.309 1554.88 668.636 C 1554.08 675.009 1555.38 679.46 1547.24 677.733 C 1539.66 676.198 1535.2 674.616 1528.14 671.412 C 1523.74 670.289 1504.35 660.115 1497.58 657.707 C 1496.12 652.728 1494.33 649.981 1493.1 645.167 C 1496.26 645.585 1498.14 646.585 1501.16 647.712 C 1503.78 647.474 1502.98 647.99 1505.45 648.364 C 1507.34 646.98 1505.88 645.266 1509.67 644.264 C 1513.04 643.029 1516.09 641.327 1518.23 638.492 C 1524.89 629.646 1527.41 634.707 1522.29 627.473 C 1522.64 627.239 1523.22 627.233 1523.63 627.177 z" fill="rgb(114,167,192)" transform="translate(0,0)"></path>
<path d="M 1493.1 645.167 C 1496.26 645.585 1498.14 646.585 1501.16 647.712 C 1507 650.864 1546.34 668.552 1547.47 671.367 C 1547.05 671.796 1546.67 671.933 1546.1 672.24 C 1547.56 675.168 1549.48 673.864 1547.24 677.733 C 1539.66 676.198 1535.2 674.616 1528.14 671.412 C 1523.74 670.289 1504.35 660.115 1497.58 657.707 C 1496.12 652.728 1494.33 649.981 1493.1 645.167 z" fill="rgb(68,133,159)" transform="translate(0,0)"></path>
<path d="M 1528.14 671.412 C 1531.92 669.653 1541.71 671.61 1546.1 672.24 C 1547.56 675.168 1549.48 673.864 1547.24 677.733 C 1539.66 676.198 1535.2 674.616 1528.14 671.412 z" fill="rgb(250,252,252)" transform="translate(0,0)"></path>
<path d="M 1523.63 627.177 C 1525.96 628.173 1526.35 628.598 1528.48 630.144 C 1524.97 633.82 1522.21 637.459 1518.55 641.05 C 1517.8 645.618 1517.22 647.574 1516.88 652.272 L 1518.17 653.293 C 1520.17 654.991 1528.35 658.493 1531.3 659.593 C 1539.77 662.743 1545.94 669.82 1554.88 668.636 C 1554.08 675.009 1555.38 679.46 1547.24 677.733 C 1549.48 673.864 1547.56 675.168 1546.1 672.24 C 1546.67 671.933 1547.05 671.796 1547.47 671.367 C 1546.34 668.552 1507 650.864 1501.16 647.712 C 1503.78 647.474 1502.98 647.99 1505.45 648.364 C 1507.34 646.98 1505.88 645.266 1509.67 644.264 C 1513.04 643.029 1516.09 641.327 1518.23 638.492 C 1524.89 629.646 1527.41 634.707 1522.29 627.473 C 1522.64 627.239 1523.22 627.233 1523.63 627.177 z" fill="rgb(192,208,224)" transform="translate(0,0)"></path>
<path d="M 1516.88 652.272 C 1514.82 651.599 1508.17 650.418 1507.81 647.529 C 1508.17 646.687 1516.44 642.533 1518.55 641.05 C 1517.8 645.618 1517.22 647.574 1516.88 652.272 z" fill="rgb(134,183,208)" transform="translate(0,0)"></path>
<path d="M 1467.04 599.279 C 1474.68 601.912 1493.77 610.93 1501.06 614.672 C 1496.57 616.808 1487.65 624.69 1482.59 628.452 C 1477.77 618.789 1471.17 609.059 1467.04 599.279 z" fill="url(#Gradient4)" transform="translate(0,0)"></path>
<path d="M 1501.06 614.672 L 1502.81 615.543 C 1507.31 617.752 1511 619.347 1515.11 622.322 C 1512.39 622.18 1507.4 620.451 1507.16 620.977 C 1506.75 621.871 1488.56 641.044 1490.48 640.343 C 1488.04 639.802 1483.73 630.739 1482.59 628.452 C 1487.65 624.69 1496.57 616.808 1501.06 614.672 z" fill="rgb(192,208,224)" transform="translate(0,0)"></path>
<path d="M 1433.08 616.743 L 1435.37 617.721 C 1445.25 616.297 1462.88 631.064 1470 637.505 C 1474.51 641.578 1474.77 640.505 1480.11 641.984 L 1478.78 642.506 C 1469.49 646.361 1447.16 625.814 1438.45 621.767 C 1434.07 619.732 1438.82 647.873 1439.1 650.623 L 1437.76 650.986 C 1435.25 644.182 1434.01 624.842 1433.08 616.743 z" fill="rgb(192,208,224)" transform="translate(0,0)"></path>
<path d="M 1490.84 647.563 L 1493.1 645.167 C 1494.33 649.981 1496.12 652.728 1497.58 657.707 C 1496.83 657.314 1496.06 656.96 1495.29 656.594 C 1493.86 653.559 1492.37 650.548 1490.84 647.563 z" fill="rgb(192,208,224)" transform="translate(0,0)"></path>
<path d="M 1413.59 734.449 C 1450.58 737.425 1448.93 743.744 1487.24 732.332 L 1487.54 736.108 L 1456.64 750.355 L 1456.81 750.353 C 1406.27 739.358 1415.97 739.966 1367.52 758.143 C 1355.03 795.943 1344.06 834.229 1334.64 872.908 C 1312.71 881.682 1292.11 890.764 1270.47 900.145 C 1270.41 920.69 1267.82 944.504 1267.22 965.832 L 1251.75 973.448 C 1254.3 946.165 1256.58 919.362 1259.49 892.066 C 1280.99 883.776 1302.12 874.525 1323.76 866.705 C 1336.47 829.384 1349.61 792.216 1363.21 755.209 C 1379.79 748.007 1396.84 741.607 1413.59 734.449 z" fill="rgb(1,239,237)" transform="translate(0,0)"></path>
<path d="M 810.145 552.3 C 787.533 504.254 804.351 449.465 834.375 409.067 C 823.278 446.104 827.782 467.945 840.802 503.809 C 834.339 507.451 823.023 515.985 816.947 520.779 C 814.943 530.69 812.829 542.713 810.145 552.3 z" fill="rgb(20,184,166)" transform="translate(0,0)"></path>
<path d="M 1455.38 763.08 L 1457.28 765.47 C 1438.3 777.484 1416.77 792.299 1398.42 805.368 C 1396.96 811.553 1395.87 818.253 1394.7 824.523 C 1388.62 857.155 1381.09 889.479 1375.98 922.283 C 1366.05 924.669 1321.81 939.609 1315.36 947.735 C 1312.26 951.652 1310.88 951.301 1304.68 952.898 C 1306.26 945.237 1307.13 941.402 1307.06 933.549 L 1363.77 913.551 C 1366.12 906.234 1367.87 897.537 1369.38 889.953 C 1375.37 859.898 1383.42 830.254 1389.68 800.286 C 1407.29 788.601 1436.62 772.958 1455.38 763.08 z" fill="rgb(1,239,237)" transform="translate(0,0)"></path>
<path d="M 872.1 1164.98 C 906.525 1161.75 925.661 1156.19 956.59 1141.57 C 961.457 1145.48 973.072 1148.44 979.65 1151.5 C 989.366 1154.5 1000.14 1154.63 1002.94 1165.01 C 956.103 1179.06 919.06 1183.36 872.1 1164.98 z" fill="rgb(20,184,166)" transform="translate(0,0)"></path>
<path d="M 1569.07 681.572 C 1574.33 679.149 1582.76 675.793 1588.41 677.869 C 1606.05 688.385 1624.79 693.729 1637.96 709.763 C 1641.31 712.51 1644.86 719.752 1646.78 723.726 C 1613.73 707.553 1573.94 710.275 1538.29 711.378 C 1552.02 694.438 1551.65 693.67 1569.07 681.572 z" fill="rgb(20,184,166)" transform="translate(0,0)"></path>
<path d="M 1569.07 681.572 C 1574.33 679.149 1582.76 675.793 1588.41 677.869 C 1606.05 688.385 1624.79 693.729 1637.96 709.763 C 1631.14 710.136 1624.81 707.817 1617.98 706.219 L 1613.98 705.247 L 1609.98 704.249 C 1602.72 702.442 1591.48 697.869 1585.15 696.837 L 1584.1 696.198 C 1578.33 692.729 1576.88 690.295 1572.23 685.381 C 1571.77 684.759 1571.3 684.137 1570.84 683.515 L 1569.07 681.572 z" fill="rgb(192,208,224)" transform="translate(0,0)"></path>
<path d="M 1586.53 681.034 C 1589.57 683.983 1586.72 693.398 1585.15 696.837 L 1584.1 696.198 C 1578.33 692.729 1576.88 690.295 1572.23 685.381 C 1579.13 684.743 1580.04 684.532 1586.53 681.034 z" fill="rgb(250,252,252)" transform="translate(0,0)"></path>
<path d="M 1570.84 683.515 C 1577.94 682.588 1579.5 681.981 1586.16 679.919 L 1586.53 681.034 C 1580.04 684.532 1579.13 684.743 1572.23 685.381 C 1571.77 684.759 1571.3 684.137 1570.84 683.515 z" fill="rgb(114,167,192)" transform="translate(0,0)"></path>
<path d="M 1264.78 575.279 C 1286.46 584.314 1307.36 591.65 1328.86 601.374 L 1330.68 602.175 L 1331.78 602.356 C 1336.04 603.736 1340.23 605.711 1344.65 606.208 L 1344.86 606.842 C 1343.26 607.501 1343.07 607.606 1341.62 608.57 C 1338.18 615.985 1335.56 621.061 1331.22 628.072 C 1330.51 629.452 1330.22 629.924 1329.38 631.214 L 1327.97 629.919 C 1324.93 630.46 1325.08 630.371 1321.94 629.828 C 1321.09 630.365 1320.23 630.889 1319.37 631.402 C 1315.36 632.443 1311.63 633.54 1307.55 634.462 L 1306.28 634.955 C 1305.51 633.943 1304.98 633.227 1304.3 632.163 C 1301.74 628.941 1290.45 612.156 1288.46 608.477 C 1284.79 605.512 1269.04 581 1264.78 575.279 z" fill="rgb(192,208,224)" transform="translate(0,0)"></path>
<path d="M 1330.68 602.175 L 1331.78 602.356 C 1336.04 603.736 1340.23 605.711 1344.65 606.208 L 1344.86 606.842 C 1343.26 607.501 1343.07 607.606 1341.62 608.57 C 1338.18 615.985 1335.56 621.061 1331.22 628.072 C 1330.51 629.452 1330.22 629.924 1329.38 631.214 L 1327.97 629.919 C 1324.93 630.46 1325.08 630.371 1321.94 629.828 C 1321.02 627.253 1316.09 624.724 1316.03 617.902 C 1316.02 617.271 1314.73 610.002 1314.66 607.989 C 1317.21 606.896 1319.76 605.838 1322.43 605.044 C 1325.78 603.899 1327.7 604.022 1330.68 602.175 z" fill="rgb(68,133,159)" transform="translate(0,0)"></path>
<path d="M 1331.78 602.356 C 1336.04 603.736 1340.23 605.711 1344.65 606.208 L 1344.86 606.842 C 1343.26 607.501 1343.07 607.606 1341.62 608.57 C 1338.18 615.985 1335.56 621.061 1331.22 628.072 C 1330.57 623.889 1330.63 606.045 1331.78 602.356 z" fill="rgb(25,88,110)" transform="translate(0,0)"></path>
<path d="M 1314.66 607.989 C 1317.21 606.896 1319.76 605.838 1322.43 605.044 C 1320.17 612.965 1322.32 623.734 1327.97 629.919 C 1324.93 630.46 1325.08 630.371 1321.94 629.828 C 1321.02 627.253 1316.09 624.724 1316.03 617.902 C 1316.02 617.271 1314.73 610.002 1314.66 607.989 z" fill="rgb(87,150,179)" transform="translate(0,0)"></path>
<path d="M 1307.55 634.462 C 1308.56 629.886 1310.1 624.539 1308.12 620.013 C 1304.35 611.407 1307.08 610.862 1314.66 607.989 C 1314.73 610.002 1316.02 617.271 1316.03 617.902 C 1316.09 624.724 1321.02 627.253 1321.94 629.828 C 1321.09 630.365 1320.23 630.889 1319.37 631.402 C 1315.36 632.443 1311.63 633.54 1307.55 634.462 z" fill="rgb(114,167,192)" transform="translate(0,0)"></path>
<path d="M 1249.13 1144.48 C 1254.8 1140.74 1259.02 1138.05 1264.98 1134.82 C 1257.21 1160.72 1247.04 1187.73 1237.82 1213.31 C 1202.66 1233.55 1162.64 1256.71 1128.21 1278.16 L 1127.4 1275.53 C 1159.02 1253.3 1197.05 1228.32 1227.11 1205.55 C 1234.61 1185.42 1241.4 1164.31 1249.13 1144.48 z" fill="rgb(1,239,237)" transform="translate(0,0)"></path>
<path d="M 1221.14 733.305 C 1225.33 729.029 1230.53 723.946 1235.03 720.016 C 1241.48 726.456 1250.8 734.898 1248.73 744.737 C 1247.17 746.292 1245.6 747.926 1243.94 749.36 C 1237.76 755.516 1231.46 762.217 1225.26 768.196 L 1223.71 770.275 C 1220.75 773.52 1217.72 776.66 1214.76 779.921 C 1208.56 786.681 1199.52 796.677 1193.29 802.992 C 1189.64 807.988 1187.28 811.063 1183.2 815.863 C 1186.46 806.974 1202.56 765.586 1206.64 758.282 C 1211.34 744.337 1211.55 742.888 1221.14 733.305 z" fill="rgb(192,208,224)" transform="translate(0,0)"></path>
<path d="M 1208.96 758.972 C 1216 766.01 1217.62 765.331 1223.71 770.275 C 1220.75 773.52 1217.72 776.66 1214.76 779.921 C 1208.28 777.783 1209.62 777.904 1204.14 774.274 L 1203.23 773.677 C 1204.25 770.501 1207.52 762.801 1208.96 758.972 z" fill="rgb(134,183,208)" transform="translate(0,0)"></path>
<path d="M 1203.23 773.677 L 1204.14 774.274 C 1209.62 777.904 1208.28 777.783 1214.76 779.921 C 1208.56 786.681 1199.52 796.677 1193.29 802.992 C 1193.26 800.165 1193.12 799.592 1194.11 797.003 L 1203.23 773.677 z" fill="rgb(87,150,179)" transform="translate(0,0)"></path>
<path d="M 1266.33 692.167 L 1266.82 691.984 C 1271.69 694.105 1277.29 694.672 1282.51 695.778 L 1294.46 698.303 L 1298.48 699.169 C 1301.25 699.785 1303.9 700.846 1306.59 701.707 C 1287.07 716.345 1266.56 727.758 1248.73 744.737 C 1250.8 734.898 1241.48 726.456 1235.03 720.016 C 1242 713.662 1248.86 707.151 1255.89 700.837 C 1259.09 697.965 1263.48 694.967 1266.33 692.167 z" fill="url(#Gradient3)" transform="translate(0,0)"></path>
<path d="M 1110.43 1330.19 C 1113.53 1334.71 1117.34 1340.81 1120.46 1345.01 C 1127.9 1353.83 1147.03 1382.16 1154.38 1392.81 L 1155.37 1394.47 C 1157.8 1396.9 1167.62 1410 1169.65 1412.95 C 1166.99 1411.93 1165.31 1409.88 1163.3 1410.74 C 1156.15 1413.75 1135.26 1409.37 1129.91 1411.02 C 1127.63 1403.72 1125.02 1394.38 1123.59 1386.93 C 1123.17 1385.3 1122.71 1383.62 1122.32 1381.99 L 1121.26 1377.48 L 1119.29 1368.99 L 1118.26 1364.48 L 1116.26 1355.48 C 1115.58 1352.31 1114.86 1349.15 1114.11 1345.99 L 1110.43 1330.19 z" fill="url(#Gradient2)" transform="translate(0,0)"></path>
<path d="M 1110.43 1330.19 C 1113.53 1334.71 1117.34 1340.81 1120.46 1345.01 C 1119.95 1355.04 1122.82 1368.45 1124.6 1378.56 L 1125.36 1383.01 C 1125.76 1385.45 1125.37 1385.46 1123.59 1386.93 C 1123.17 1385.3 1122.71 1383.62 1122.32 1381.99 L 1121.26 1377.48 L 1119.29 1368.99 L 1118.26 1364.48 L 1116.26 1355.48 C 1115.58 1352.31 1114.86 1349.15 1114.11 1345.99 L 1110.43 1330.19 z" fill="rgb(250,252,252)" transform="translate(0,0)"></path>
<path d="M 1155.37 1394.47 C 1147.39 1394.52 1145.33 1389.69 1154.38 1392.81 L 1155.37 1394.47 z" fill="rgb(192,208,224)" transform="translate(0,0)"></path>
<path d="M 1338.92 717.247 C 1351.38 707.4 1390.17 699.284 1405.99 697.129 C 1387.13 710.645 1360.6 730.644 1346.42 748.305 C 1342.65 740.333 1341.28 735.005 1334.5 728.761 C 1337.37 723.525 1340.21 722.962 1338.92 717.247 z" fill="url(#Gradient1)" transform="translate(0,0)"></path>
<path d="M 1540.77 714.866 C 1568.17 712.074 1605.45 713.958 1632.18 720.406 C 1633.5 720.657 1635.28 720.898 1636.34 721.801 C 1636.38 721.959 1636.42 722.117 1636.46 722.275 C 1635.61 723.604 1624.78 722.909 1622.79 722.857 C 1600.2 726.17 1587.29 728.41 1565.46 736.516 C 1555.9 727.223 1550.8 723.191 1540.77 714.866 z" fill="rgb(16,185,129)" transform="translate(0,0)"></path>
<path d="M 1632.18 720.406 C 1633.5 720.657 1635.28 720.898 1636.34 721.801 C 1636.38 721.959 1636.42 722.117 1636.46 722.275 C 1635.61 723.604 1624.78 722.909 1622.79 722.857 C 1626.56 721.788 1628.75 722.226 1632.18 720.406 z" fill="rgb(29,114,118)" transform="translate(0,0)"></path>
<path d="M 1505.43 758.996 C 1493.42 775.722 1475.58 808.078 1471.89 828.081 L 1470.67 832.78 C 1469.15 832.47 1469.09 832.297 1468.28 830.963 C 1467.55 822.983 1465.75 816.209 1464.15 808.484 L 1462.21 799.486 C 1461.67 797.045 1461.22 795.119 1460.59 792.676 C 1466.57 786.903 1479.75 777.576 1486.7 772.93 C 1488.18 771.217 1502.73 760.938 1505.43 758.996 z" fill="rgb(192,208,224)" transform="translate(0,0)"></path>
<path d="M 1486.7 772.93 C 1485.99 778.163 1469.67 789.394 1465.32 793.124 L 1467.12 806.496 C 1468.04 813.709 1469.38 821.29 1471.89 828.081 L 1470.67 832.78 C 1469.15 832.47 1469.09 832.297 1468.28 830.963 C 1467.55 822.983 1465.75 816.209 1464.15 808.484 L 1462.21 799.486 C 1461.67 797.045 1461.22 795.119 1460.59 792.676 C 1466.57 786.903 1479.75 777.576 1486.7 772.93 z" fill="rgb(250,252,252)" transform="translate(0,0)"></path>
<path d="M 1448.14 672.808 C 1473.63 676.1 1480.1 673.176 1501.74 688.605 C 1501.02 689.8 1500.4 690.664 1499.6 691.793 C 1488.69 691.305 1488.22 699.16 1472.5 696.795 C 1460.63 695.01 1455.42 682.96 1448.14 672.808 z" fill="rgb(1,239,237)" transform="translate(0,0)"></path>
<path d="M 1487.24 732.332 C 1492.23 730.693 1497.19 729.719 1502 727.735 L 1502.01 730.435 C 1498.22 731.528 1491.35 734.519 1487.54 736.108 L 1487.24 732.332 z" fill="rgb(20,184,166)" transform="translate(0,0)"></path>
<path d="M 1475.44 752.158 C 1469.92 757.16 1463.6 761.503 1457.28 765.47 L 1455.38 763.08 C 1462.01 758.912 1468.49 755.656 1475.44 752.158 z" fill="rgb(20,184,166)" transform="translate(0,0)"></path>
<path d="M 1501.74 688.605 C 1506.1 692.214 1508.62 694.218 1512.76 698.123 C 1508.05 695.973 1504.16 694.308 1499.6 691.793 C 1500.4 690.664 1501.02 689.8 1501.74 688.605 z" fill="rgb(20,184,166)" transform="translate(0,0)"></path>
<path d="M 1116.81 1282.94 C 1120.21 1280.49 1123.84 1277.63 1127.4 1275.53 L 1128.21 1278.16 C 1124.91 1280.4 1121.54 1282.19 1118.11 1284.41 L 1116.81 1282.94 z" fill="rgb(20,184,166)" transform="translate(0,0)"></path>
<path d="M 1518.11 723.114 C 1512.33 726.227 1508.12 728.035 1502.01 730.435 L 1502 727.735 C 1507.55 726.043 1512.49 724.571 1518.11 723.114 z" fill="rgb(29,114,118)" transform="translate(0,0)"></path>
<path d="M 549.461 896.296 C 549.187 895.656 548.905 895.019 548.614 894.385 C 545.362 887.166 549.867 891.375 552.246 894.013 L 549.461 896.296 z" fill="rgb(16,185,129)" transform="translate(0,0)"></path>
<path d="M 1197.02 979.216 C 1197.99 979.751 1203.05 982.08 1203.45 983.304 C 1203.22 984.177 1197.71 982.75 1196.79 982.601 L 1197.02 979.216 z" fill="rgb(29,114,118)" transform="translate(0,0)"></path>
<path d="M 1159.06 1023.39 C 1160.92 1022.63 1162.77 1021.93 1164.7 1021.41 L 1165.52 1021.87 C 1165.72 1021.7 1165.91 1021.54 1166.11 1021.37 L 1166.18 1021.45 C 1165.65 1022.54 1161.83 1024.48 1160.49 1025.35 L 1159.06 1023.39 z" fill="rgb(6,98,82)" transform="translate(0,0)"></path>
<path d="M 1218.39 951.517 C 1219.47 956.04 1222.07 963.365 1216.73 954.554 L 1218.39 951.517 z" fill="rgb(29,114,118)" transform="translate(0,0)"></path>
<path d="M 1078.49 1368.11 C 1078.23 1367.06 1077.32 1363.43 1078.57 1362.78 C 1079.78 1363.39 1080.32 1365.95 1080.79 1367.13 L 1078.49 1368.11 z" fill="rgb(112,122,141)" transform="translate(0,0)"></path>
<path d="M 1023.85 1256.1 C 1024.24 1255.05 1025.17 1251.8 1026.33 1251.25 C 1027.54 1251.76 1026.94 1254.34 1026.85 1255.45 L 1023.85 1256.1 z" fill="rgb(25,88,110)" transform="translate(0,0)"></path>
<path d="M 1048.73 1396.64 C 1048.89 1395.33 1048.72 1392.9 1050.05 1392.02 C 1051.27 1392.23 1051.09 1393.99 1051.17 1395 L 1048.73 1396.64 z" fill="rgb(51,114,146)" transform="translate(0,0)"></path>
<path d="M 1118.11 1284.41 C 1117.29 1284.8 1115.33 1286.26 1114.29 1285.58 C 1114.03 1284.45 1116.14 1283.41 1116.81 1282.94 L 1118.11 1284.41 z" fill="rgb(29,114,118)" transform="translate(0,0)"></path>
<metadata><recraft-signature>{"signed_by": "recraft", "signature_b64": "qFvQyLs2A+/GPCK8wni5uwMJ4GnIqVqBQ8HtKyWdEc4phSPOUyF5jIkK0XQCFKb0olYkfNdJRQQEVTEmsIymBw==", "signing_algo": "Ed25519", "generation_timestamp": 1774688363, "identifier": "c4973a92-6b57-458c-a64d-2aff0114bd4e"}</recraft-signature></metadata></svg>