<svg xmlns="http://www.w3.org/2000/svg" height="1024" preserveAspectRatio="none" style="display: block;" version="1.1" viewBox="0 0 2048 2048" width="1024">
<defs>
	<linearGradient gradientUnits="userSpaceOnUse" id="Gradient1" x1="1620.53" x2="1496.36" y1="957.645" y2="989.075">
		<stop class="stop0" offset="0" stop-color="rgb(46,67,82)" stop-opacity="1"></stop>
		<stop class="stop1" offset="1" stop-color="rgb(209,215,225)" stop-opacity="1"></stop>
	</linearGradient>
	<linearGradient gradientUnits="userSpaceOnUse" id="Gradient2" x1="1263.04" x2="1157.64" y1="929.54" y2="1070.21">
		<stop class="stop0" offset="0" stop-color="rgb(118,134,148)" stop-opacity="1"></stop>
		<stop class="stop1" offset="1" stop-color="rgb(165,175,189)" stop-opacity="1"></stop>
	</linearGradient>
	<linearGradient gradientUnits="userSpaceOnUse" id="Gradient3" x1="1195.96" x2="983.813" y1="1211.24" y2="1326.34">
		<stop class="stop0" offset="0" stop-color="rgb(90,110,131)" stop-opacity="1"></stop>
		<stop class="stop1" offset="1" stop-color="rgb(248,248,248)" stop-opacity="1"></stop>
	</linearGradient>
	<linearGradient gradientUnits="userSpaceOnUse" id="Gradient4" x1="1231.73" x2="1234.15" y1="1117.52" y2="1187.4">
		<stop class="stop0" offset="0" stop-color="rgb(94,112,125)" stop-opacity="1"></stop>
		<stop class="stop1" offset="1" stop-color="rgb(186,194,206)" stop-opacity="1"></stop>
	</linearGradient>
	<linearGradient gradientUnits="userSpaceOnUse" id="Gradient5" x1="1165" x2="1376.15" y1="1228.17" y2="1229.16">
		<stop class="stop0" offset="0" stop-color="rgb(132,147,162)" stop-opacity="1"></stop>
		<stop class="stop1" offset="1" stop-color="rgb(221,224,231)" stop-opacity="1"></stop>
	</linearGradient>
	<linearGradient gradientUnits="userSpaceOnUse" id="Gradient6" x1="1852.33" x2="1773.67" y1="557.843" y2="564.157">
		<stop class="stop0" offset="0" stop-color="rgb(155,167,184)" stop-opacity="1"></stop>
		<stop class="stop1" offset="1" stop-color="rgb(190,197,205)" stop-opacity="1"></stop>
	</linearGradient>
	<linearGradient gradientUnits="userSpaceOnUse" id="Gradient7" x1="1738.58" x2="1771.32" y1="589.341" y2="595.85">
		<stop class="stop0" offset="0" stop-color="rgb(143,155,168)" stop-opacity="1"></stop>
		<stop class="stop1" offset="1" stop-color="rgb(198,204,213)" stop-opacity="1"></stop>
	</linearGradient>
	<linearGradient gradientUnits="userSpaceOnUse" id="Gradient8" x1="1275.11" x2="1305.78" y1="926.067" y2="891.696">
		<stop class="stop0" offset="0" stop-color="rgb(39,61,75)" stop-opacity="1"></stop>
		<stop class="stop1" offset="1" stop-color="rgb(106,123,138)" stop-opacity="1"></stop>
	</linearGradient>
	<linearGradient gradientUnits="userSpaceOnUse" id="Gradient9" x1="1311.54" x2="1313.15" y1="894.188" y2="855.221">
		<stop class="stop0" offset="0" stop-color="rgb(99,117,131)" stop-opacity="1"></stop>
		<stop class="stop1" offset="1" stop-color="rgb(157,169,183)" stop-opacity="1"></stop>
	</linearGradient>
	<linearGradient gradientUnits="userSpaceOnUse" id="Gradient10" x1="1355.32" x2="1341.31" y1="905.261" y2="878.558">
		<stop class="stop0" offset="0" stop-color="rgb(98,116,131)" stop-opacity="1"></stop>
		<stop class="stop1" offset="1" stop-color="rgb(164,174,188)" stop-opacity="1"></stop>
	</linearGradient>
	<linearGradient gradientUnits="userSpaceOnUse" id="Gradient11" x1="1311.01" x2="1305.21" y1="952.525" y2="1006.44">
		<stop class="stop0" offset="0" stop-color="rgb(65,86,99)" stop-opacity="1"></stop>
		<stop class="stop1" offset="1" stop-color="rgb(119,144,162)" stop-opacity="1"></stop>
	</linearGradient>
	<linearGradient gradientUnits="userSpaceOnUse" id="Gradient12" x1="1833.56" x2="1777.85" y1="362.836" y2="312.532">
		<stop class="stop0" offset="0" stop-color="rgb(208,213,224)" stop-opacity="1"></stop>
		<stop class="stop1" offset="1" stop-color="rgb(251,253,252)" stop-opacity="1"></stop>
	</linearGradient>
	<linearGradient gradientUnits="userSpaceOnUse" id="Gradient13" x1="1728.17" x2="1757.23" y1="405.311" y2="382.155">
		<stop class="stop0" offset="0" stop-color="rgb(46,66,78)" stop-opacity="1"></stop>
		<stop class="stop1" offset="1" stop-color="rgb(104,121,136)" stop-opacity="1"></stop>
	</linearGradient>
	<linearGradient gradientUnits="userSpaceOnUse" id="Gradient14" x1="1747.48" x2="1784.72" y1="375.212" y2="349.968">
		<stop class="stop0" offset="0" stop-color="rgb(98,116,131)" stop-opacity="1"></stop>
		<stop class="stop1" offset="1" stop-color="rgb(153,165,177)" stop-opacity="1"></stop>
	</linearGradient>
	<linearGradient gradientUnits="userSpaceOnUse" id="Gradient15" x1="1752.37" x2="1617.18" y1="961.829" y2="872.663">
		<stop class="stop0" offset="0" stop-color="rgb(12,35,55)" stop-opacity="1"></stop>
		<stop class="stop1" offset="1" stop-color="rgb(255,255,255)" stop-opacity="1"></stop>
	</linearGradient>
	<linearGradient gradientUnits="userSpaceOnUse" id="Gradient16" x1="1734.52" x2="1704.38" y1="601.61" y2="615.853">
		<stop class="stop0" offset="0" stop-color="rgb(45,64,78)" stop-opacity="1"></stop>
		<stop class="stop1" offset="1" stop-color="rgb(87,105,118)" stop-opacity="1"></stop>
	</linearGradient>
	<linearGradient gradientUnits="userSpaceOnUse" id="Gradient17" x1="1634.42" x2="1523.2" y1="714.024" y2="700.186">
		<stop class="stop0" offset="0" stop-color="rgb(34,57,74)" stop-opacity="1"></stop>
		<stop class="stop1" offset="1" stop-color="rgb(193,202,214)" stop-opacity="1"></stop>
	</linearGradient>
	<linearGradient gradientUnits="userSpaceOnUse" id="Gradient18" x1="1744.38" x2="1533.15" y1="609.812" y2="763.985">
		<stop class="stop0" offset="0" stop-color="rgb(106,123,135)" stop-opacity="1"></stop>
		<stop class="stop1" offset="1" stop-color="rgb(247,249,255)" stop-opacity="1"></stop>
	</linearGradient>
	<linearGradient gradientUnits="userSpaceOnUse" id="Gradient19" x1="1547.19" x2="1537.4" y1="1193.2" y2="1211.43">
		<stop class="stop0" offset="0" stop-color="rgb(115,132,150)" stop-opacity="1"></stop>
		<stop class="stop1" offset="1" stop-color="rgb(152,168,182)" stop-opacity="1"></stop>
	</linearGradient>
	<linearGradient gradientUnits="userSpaceOnUse" id="Gradient20" x1="1548.79" x2="1506.5" y1="1174.22" y2="1186.27">
		<stop class="stop0" offset="0" stop-color="rgb(101,122,133)" stop-opacity="1"></stop>
		<stop class="stop1" offset="1" stop-color="rgb(142,156,174)" stop-opacity="1"></stop>
	</linearGradient>
	<linearGradient gradientUnits="userSpaceOnUse" id="Gradient21" x1="1560.11" x2="1482.32" y1="1181.09" y2="1193.47">
		<stop class="stop0" offset="0" stop-color="rgb(70,92,107)" stop-opacity="1"></stop>
		<stop class="stop1" offset="1" stop-color="rgb(137,150,166)" stop-opacity="1"></stop>
	</linearGradient>
	<linearGradient gradientUnits="userSpaceOnUse" id="Gradient22" x1="1327.08" x2="1349.26" y1="1150.69" y2="1104.02">
		<stop class="stop0" offset="0" stop-color="rgb(53,70,86)" stop-opacity="1"></stop>
		<stop class="stop1" offset="1" stop-color="rgb(158,173,186)" stop-opacity="1"></stop>
	</linearGradient>
	<linearGradient gradientUnits="userSpaceOnUse" id="Gradient23" x1="1634.39" x2="1605.36" y1="1102.82" y2="1028.48">
		<stop class="stop0" offset="0" stop-color="rgb(77,96,111)" stop-opacity="1"></stop>
		<stop class="stop1" offset="1" stop-color="rgb(108,126,139)" stop-opacity="1"></stop>
	</linearGradient>
	<linearGradient gradientUnits="userSpaceOnUse" id="Gradient24" x1="1521.06" x2="1691.45" y1="1054.97" y2="1133.84">
		<stop class="stop0" offset="0" stop-color="rgb(157,170,181)" stop-opacity="1"></stop>
		<stop class="stop1" offset="1" stop-color="rgb(197,203,212)" stop-opacity="1"></stop>
	</linearGradient>
	<linearGradient gradientUnits="userSpaceOnUse" id="Gradient25" x1="1795" x2="1825.3" y1="745.911" y2="767.093">
		<stop class="stop0" offset="0" stop-color="rgb(146,158,170)" stop-opacity="1"></stop>
		<stop class="stop1" offset="1" stop-color="rgb(182,188,202)" stop-opacity="1"></stop>
	</linearGradient>
	<linearGradient gradientUnits="userSpaceOnUse" id="Gradient26" x1="1596.41" x2="1649.09" y1="783.765" y2="862.413">
		<stop class="stop0" offset="0" stop-color="rgb(145,159,172)" stop-opacity="1"></stop>
		<stop class="stop1" offset="1" stop-color="rgb(190,196,207)" stop-opacity="1"></stop>
	</linearGradient>
	<linearGradient gradientUnits="userSpaceOnUse" id="Gradient27" x1="1134.9" x2="1183.16" y1="1415.69" y2="1402.14">
		<stop class="stop0" offset="0" stop-color="rgb(144,154,168)" stop-opacity="1"></stop>
		<stop class="stop1" offset="1" stop-color="rgb(193,202,213)" stop-opacity="1"></stop>
	</linearGradient>
	<linearGradient gradientUnits="userSpaceOnUse" id="Gradient28" x1="1204.67" x2="1153.61" y1="1460.6" y2="1495.92">
		<stop class="stop0" offset="0" stop-color="rgb(90,108,122)" stop-opacity="1"></stop>
		<stop class="stop1" offset="1" stop-color="rgb(167,178,191)" stop-opacity="1"></stop>
	</linearGradient>
	<linearGradient gradientUnits="userSpaceOnUse" id="Gradient29" x1="1240.75" x2="1189.6" y1="1663.9" y2="1432.08">
		<stop class="stop0" offset="0" stop-color="rgb(149,161,174)" stop-opacity="1"></stop>
		<stop class="stop1" offset="1" stop-color="rgb(218,221,230)" stop-opacity="1"></stop>
	</linearGradient>
	<linearGradient gradientUnits="userSpaceOnUse" id="Gradient30" x1="1490.69" x2="1447.51" y1="1552.94" y2="1538.48">
		<stop class="stop0" offset="0" stop-color="rgb(41,63,73)" stop-opacity="1"></stop>
		<stop class="stop1" offset="1" stop-color="rgb(90,108,122)" stop-opacity="1"></stop>
	</linearGradient>
	<linearGradient gradientUnits="userSpaceOnUse" id="Gradient31" x1="1432.9" x2="1409.08" y1="1547.39" y2="1509.75">
		<stop class="stop0" offset="0" stop-color="rgb(104,120,135)" stop-opacity="1"></stop>
		<stop class="stop1" offset="1" stop-color="rgb(155,167,181)" stop-opacity="1"></stop>
	</linearGradient>
	<linearGradient gradientUnits="userSpaceOnUse" id="Gradient32" x1="1367.87" x2="1376.82" y1="1554.83" y2="1520.63">
		<stop class="stop0" offset="0" stop-color="rgb(182,191,204)" stop-opacity="1"></stop>
		<stop class="stop1" offset="1" stop-color="rgb(255,255,255)" stop-opacity="1"></stop>
	</linearGradient>
	<linearGradient gradientUnits="userSpaceOnUse" id="Gradient33" x1="1385.52" x2="1374.26" y1="1588.79" y2="1495.63">
		<stop class="stop0" offset="0" stop-color="rgb(80,96,113)" stop-opacity="1"></stop>
		<stop class="stop1" offset="1" stop-color="rgb(247,254,255)" stop-opacity="1"></stop>
	</linearGradient>
	<linearGradient gradientUnits="userSpaceOnUse" id="Gradient34" x1="1279.55" x2="1324.89" y1="1286.56" y2="1584.59">
		<stop class="stop0" offset="0" stop-color="rgb(102,118,128)" stop-opacity="1"></stop>
		<stop class="stop1" offset="1" stop-color="rgb(226,230,241)" stop-opacity="1"></stop>
	</linearGradient>
	<linearGradient gradientUnits="userSpaceOnUse" id="Gradient35" x1="1102.32" x2="1109.72" y1="1681.25" y2="1716.94">
		<stop class="stop0" offset="0" stop-color="rgb(132,145,157)" stop-opacity="1"></stop>
		<stop class="stop1" offset="1" stop-color="rgb(163,177,196)" stop-opacity="1"></stop>
	</linearGradient>
	<linearGradient gradientUnits="userSpaceOnUse" id="Gradient36" x1="984.506" x2="1160.16" y1="1787.66" y2="1437.75">
		<stop class="stop0" offset="0" stop-color="rgb(106,122,133)" stop-opacity="1"></stop>
		<stop class="stop1" offset="1" stop-color="rgb(212,218,230)" stop-opacity="1"></stop>
	</linearGradient>
	<linearGradient gradientUnits="userSpaceOnUse" id="Gradient37" x1="1395.16" x2="1425.28" y1="733.137" y2="740.481">
		<stop class="stop0" offset="0" stop-color="rgb(135,151,165)" stop-opacity="1"></stop>
		<stop class="stop1" offset="1" stop-color="rgb(197,203,216)" stop-opacity="1"></stop>
	</linearGradient>
	<linearGradient gradientUnits="userSpaceOnUse" id="Gradient38" x1="1311.69" x2="1489.24" y1="747.693" y2="686.155">
		<stop class="stop0" offset="0" stop-color="rgb(128,142,157)" stop-opacity="1"></stop>
		<stop class="stop1" offset="1" stop-color="rgb(255,255,255)" stop-opacity="1"></stop>
	</linearGradient>
	<linearGradient gradientUnits="userSpaceOnUse" id="Gradient39" x1="1494.86" x2="1722.3" y1="630.726" y2="434.702">
		<stop class="stop0" offset="0" stop-color="rgb(117,132,148)" stop-opacity="1"></stop>
		<stop class="stop1" offset="1" stop-color="rgb(180,190,199)" stop-opacity="1"></stop>
	</linearGradient>
	<linearGradient gradientUnits="userSpaceOnUse" id="Gradient40" x1="1156.08" x2="1147.59" y1="989.293" y2="962.728">
		<stop class="stop0" offset="0" stop-color="rgb(97,113,130)" stop-opacity="1"></stop>
		<stop class="stop1" offset="1" stop-color="rgb(156,165,181)" stop-opacity="1"></stop>
	</linearGradient>
	<linearGradient gradientUnits="userSpaceOnUse" id="Gradient41" x1="1156.94" x2="1119.28" y1="988.201" y2="1002.4">
		<stop class="stop0" offset="0" stop-color="rgb(48,67,82)" stop-opacity="1"></stop>
		<stop class="stop1" offset="1" stop-color="rgb(129,139,153)" stop-opacity="1"></stop>
	</linearGradient>
	<linearGradient gradientUnits="userSpaceOnUse" id="Gradient42" x1="984.083" x2="1067.45" y1="1338.82" y2="1206.68">
		<stop class="stop0" offset="0" stop-color="rgb(55,82,102)" stop-opacity="1"></stop>
		<stop class="stop1" offset="1" stop-color="rgb(255,255,255)" stop-opacity="1"></stop>
	</linearGradient>
	<linearGradient gradientUnits="userSpaceOnUse" id="Gradient43" x1="1151.97" x2="1078.88" y1="1041.21" y2="1080.88">
		<stop class="stop0" offset="0" stop-color="rgb(64,83,99)" stop-opacity="1"></stop>
		<stop class="stop1" offset="1" stop-color="rgb(189,200,211)" stop-opacity="1"></stop>
	</linearGradient>
	<linearGradient gradientUnits="userSpaceOnUse" id="Gradient44" x1="513.562" x2="381.604" y1="590.289" y2="744.545">
		<stop class="stop0" offset="0" stop-color="rgb(1,113,89)" stop-opacity="1"></stop>
		<stop class="stop1" offset="1" stop-color="rgb(11,229,158)" stop-opacity="1"></stop>
	</linearGradient>
</defs>
<path d="M 0 0 L 2048 0 L 2048 2048 L 0 2048 L 0 0 z" fill="rgb(8,12,20)" transform="translate(0,0)"></path>
<path d="M 196.227 229.399 L 387.188 420.604 C 449.983 484.045 513.9 550.586 577.805 612.709 C 580.545 615.025 589.607 623.574 591.581 626.246 C 613.691 644.663 634.742 665.474 656.237 684.549 C 689.15 713.756 721.449 743.11 753.344 773.462 C 756.405 786.253 759.375 799.584 761.888 812.498 C 769.715 852.717 780.252 893.319 786.535 933.781 C 788.532 944.082 790.526 955.796 792.965 965.894 C 798.8 989.122 802.845 991.068 816.19 1011.22 C 843.96 983.45 871.432 956.654 899.761 929.485 C 916.804 913.14 932.7 894.924 950.272 878.514 L 950.542 877.661 C 946.34 869.865 937.196 856.945 932.08 849.215 C 921.633 833.439 911.338 817.564 901.196 801.59 L 900.292 800.685 C 894.338 798.582 888.157 797.51 881.987 796.154 L 877.487 795.165 L 872.985 794.194 L 863.487 792.232 L 853.986 790.248 C 846.638 788.71 838.236 786.865 830.918 785.575 C 825.253 784.588 820.078 783.441 814.486 782.22 L 804.985 780.207 L 795.481 778.195 L 781.981 775.178 C 776.527 774.088 773.197 773.691 767.904 771.826 C 765.263 771.944 765.191 771.867 762.58 771.301 L 762.768 770.095 L 766.948 768.316 C 772.893 764.711 785.352 758.893 791.986 755.518 C 806.195 748.236 820.329 740.808 834.386 733.235 L 840.322 732.986 L 896.924 725.787 C 911.989 716.856 941.438 697.871 958.59 689.405 C 959.926 689.517 961.261 689.63 962.597 689.742 C 974.424 688.848 994.017 689.414 1006.16 689.81 C 1057.6 689.485 1109.69 690.761 1161.41 690.743 L 1164.82 690.706 L 1165.05 691.555 C 1163.09 692.825 1162.4 693.364 1160.34 694.364 C 1152.2 698.963 1085.42 733.729 1083.96 735.652 L 1084.51 737.053 C 1093.53 747.447 1103.23 758.05 1111.78 768.742 C 1117 774.98 1123.03 802.672 1123.51 810.78 C 1132.86 851.118 1143.9 897.988 1151.03 938.671 C 1152.61 945.489 1154.08 952.33 1155.44 959.194 C 1156.34 964.37 1157.32 969.275 1158.14 974.495 L 1160.19 986.997 C 1160.53 989.238 1160.97 991.527 1161.34 993.775 C 1161.93 995.234 1162.41 996.484 1162.95 997.95 C 1162.2 997.886 1162.25 997.94 1161.59 998.388 C 1158.58 999.271 1155.76 999.963 1152.84 1001.12 L 1151.86 1001 C 1150.9 1001.91 1148.42 1003.66 1148.77 1004.9 C 1151.85 1015.75 1156.83 1025.21 1146.58 1034.87 L 1142.93 1041.62 C 1139.82 1047.62 1136.64 1053.6 1133.4 1059.53 C 1129.47 1062.52 1128.95 1066.64 1127.28 1071.24 C 1121.66 1086.75 1111.18 1117.56 1104.64 1131.2 C 1101.9 1140.45 1096.26 1153.91 1092.63 1163.42 L 1071.7 1218.02 C 1063.25 1239.41 1054.64 1264.75 1045.8 1285.29 C 1044.83 1288.25 1043.39 1291.66 1043.45 1294.67 C 1042.75 1296.78 1042.62 1297.34 1041.63 1299.32 C 1038.57 1303.38 1038.91 1319 1038.21 1325.1 C 1037.43 1336.08 1036.63 1354.36 1034.93 1364.52 C 1034.53 1363.4 1033.29 1357.46 1033.29 1357.46 C 1023.69 1358.59 1025.6 1360.21 1023.96 1366.59 C 1022.99 1354.09 1022.88 1338.68 1022.46 1325.95 C 1021.83 1310.4 1022.28 1295.49 1021.3 1279.66 L 1021.23 1265.38 C 1021.01 1248.96 1020.96 1232.33 1020.02 1215.96 C 1016.66 1244.97 1017.74 1294.46 1018.23 1324.57 C 1017.86 1361.66 1017.82 1398.76 1018.11 1435.85 C 1018.15 1449.44 1019 1470.72 1018.2 1483.46 C 1018.47 1487.05 1018.91 1489.53 1018.1 1493.06 C 1019.37 1523.77 1017.8 1559.01 1017.81 1590.23 L 1016.91 1816.4 C 986.914 1782.18 953.169 1749.58 922.618 1716 C 913.553 1705.87 902.581 1695.07 892.988 1685.25 C 897.569 1662.71 903.606 1640.82 909.087 1618.53 C 917.634 1582.96 926.384 1547.45 935.336 1511.98 L 954.246 1437.32 C 957.636 1424.14 961.908 1406 966.306 1393.56 L 964.745 1390.67 C 963.102 1400.43 954.324 1423.6 950.555 1433.96 C 936.933 1470.63 922.818 1507.12 908.215 1543.41 C 892.973 1582.4 876.39 1632.41 859.44 1669.51 C 837.76 1666.93 816.167 1663.78 794.436 1661.58 C 788.554 1660.99 781.905 1660.45 776.211 1659.21 C 769.02 1644.69 757.552 1610.75 751.465 1593.93 C 766.829 1568.46 784.254 1544.27 800.785 1519.55 L 905.708 1362.34 C 916.219 1346.37 927.02 1331.26 937.283 1314.99 C 936.351 1312.44 936.394 1312.46 934.807 1310.28 L 932.863 1310.34 L 930.718 1312.35 C 928.321 1322.51 886.321 1371.93 877.674 1382.65 L 813.368 1463.43 L 755.877 1536.23 C 745.926 1548.82 732.163 1566.86 721.589 1578.6 C 657.604 1578.84 590.39 1579.87 526.679 1578.28 C 528.257 1577.23 529.591 1576.34 531.125 1575.22 L 529.317 1573.48 L 794.539 1394.78 C 837.905 1365.72 886.152 1330.81 930.087 1304.11 C 930.253 1297.55 897.706 1234.55 892.534 1223.91 C 872.014 1180.98 847.945 1143.75 837.22 1096.76 C 832.646 1076.72 826.204 1055.53 820.885 1035.54 C 820.828 1034.12 817.721 1020.87 817.195 1018.12 L 813.689 1014.52 C 813.643 1017.12 817.042 1027.94 817.23 1034.75 L 818.442 1039.9 C 821.523 1053.58 847.491 1234.02 846.209 1236.9 C 834.096 1239.26 817.912 1240.87 805.343 1242.5 L 736.785 1251.55 C 728.444 1252.65 704.589 1255.36 697.779 1257.27 L 696.09 1257.01 L 695.318 1255.56 C 697.158 1249.06 699.875 1246.48 702.497 1240.52 C 714.062 1214.2 727.163 1188.39 740.047 1162.69 L 787.729 1069.15 C 794.005 1056.87 802.81 1037.14 809.55 1025.97 L 810.073 1021.54 L 806.203 1025.47 L 804.929 1027.17 C 800.846 1036.66 775.992 1068.8 767.907 1079.74 L 669.976 1210.74 C 665.302 1217.04 635.064 1260.67 631.827 1261.96 L 630.907 1261.67 C 582.174 1241.9 532.707 1218.45 483.857 1197.73 C 487.132 1195.51 489.137 1194.35 492.649 1192.52 C 518.189 1176.64 553.275 1158.38 580.183 1143.45 L 698.299 1077.4 C 732.884 1058.41 765.847 1041.34 800.173 1021.41 L 804.999 1019.1 L 805.098 1018.3 L 804.277 1017.95 L 798.424 1020.05 L 796.012 1020.69 C 790.284 1024.38 784.074 1027.14 777.936 1030.07 C 746.432 1045.12 714.201 1058.5 682.246 1072.55 C 625.132 1097.62 567.8 1122.18 510.258 1146.25 C 491.326 1154.22 469.038 1164.92 450.712 1172.1 C 445.321 1166.8 439.281 1160.57 433.574 1155.77 C 421.917 1145.1 405.34 1132.21 392.794 1121.68 C 370.095 1102.39 347.252 1083.26 324.266 1064.31 C 372.418 1058.37 423.286 1055.48 471.69 1049.42 C 492.268 1046.85 514.021 1045.66 534.429 1042.06 C 525.414 1039.33 497.996 1036.53 485.939 1033.89 C 452.866 1026.66 418.033 1021.51 384.617 1015.71 C 364.26 1012.18 341.672 1006.79 321.583 1004.09 C 318.22 1000.15 315.284 996.242 312.173 992.113 C 285.367 956.532 259.796 920.195 232.868 884.703 C 294.413 892.278 358.547 900.626 420.289 906.029 C 416.948 903.629 391.738 892.851 386.677 890.714 C 346.549 873.777 302.485 852.167 261.759 837.507 C 257.308 830.324 254.295 824.277 250.509 816.68 C 239.083 797.046 226.62 770.278 216.319 749.572 C 204.899 726.616 190.235 699.226 180.393 676.067 L 403.829 768.269 C 403.036 765.255 244.771 641.619 230.67 630.876 C 229.032 625.974 227.536 619.696 226.175 614.611 C 213.434 563.422 201.571 508.551 187.148 458.245 C 214.492 479.619 241.242 498.64 268.994 519.211 C 314.961 553.002 360.536 587.323 405.709 622.167 C 398.548 611.811 389.344 603.34 381.321 593.73 C 367.803 577.537 354.222 561.817 340.24 546.009 C 308.276 509.67 276.893 472.825 246.102 435.487 L 240.563 430.278 C 224.829 365.621 209.706 294.63 196.227 229.399 z" fill="rgb(16,185,129)" transform="translate(0,0)"></path>
<path d="M 246.102 435.487 C 253.983 438.679 265.904 445.522 273.833 449.81 L 328.002 479.485 C 347.602 490.026 387.111 508.984 403.628 519.661 C 410.448 528.418 474.348 557.507 485.122 566.459 L 484.282 567.557 C 469.449 569.441 477.971 585.085 479.559 593.932 C 480.412 598.679 479.109 604.452 480.79 609.108 C 489.88 632.388 503.905 653.246 513.156 676.512 C 514.733 680.477 511.809 690.573 512.759 692.134 C 516.764 698.716 525.226 706.836 532.731 709.36 C 537.333 710.907 536.858 713.645 542.073 711.098 C 548.703 707.502 554.867 710.705 561.773 708.275 L 562.067 706.814 C 559.758 704.603 547.133 697.806 544.606 697.076 C 541.204 692.949 536.292 687.482 533.83 682.93 C 527.429 681.123 523.745 679.443 519.473 674.188 L 520.273 673.322 C 527.443 675.745 524.241 672.485 530.557 673.062 C 534.687 669.95 538.558 666.562 543.328 664.752 L 545.462 665.074 C 547.166 693.066 571.219 690.82 568.104 707.041 C 572.94 711.291 614.52 711.247 620.88 704.127 C 621.962 702.917 625.491 697.058 626.53 695.356 C 629.799 700.714 637.342 716.394 641.321 718.229 C 667.963 763.751 691.653 812.917 718.999 858.779 L 717.207 860.017 C 714.305 860.164 699.798 851.118 695.597 848.816 C 675.496 837.801 655.03 827.557 634.62 817.126 L 386.31 690.865 C 355.471 675.346 325.098 660.438 293.736 645.975 C 271.756 635.839 248.624 623.283 226.175 614.611 C 213.434 563.422 201.571 508.551 187.148 458.245 C 214.492 479.619 241.242 498.64 268.994 519.211 C 314.961 553.002 360.536 587.323 405.709 622.167 C 398.548 611.811 389.344 603.34 381.321 593.73 C 367.803 577.537 354.222 561.817 340.24 546.009 C 308.276 509.67 276.893 472.825 246.102 435.487 z" fill="url(#Gradient44)" transform="translate(0,0)"></path>
<path d="M 1111.78 768.742 C 1117 774.98 1123.03 802.672 1123.51 810.78 C 1132.86 851.118 1143.9 897.988 1151.03 938.671 C 1152.61 945.489 1154.08 952.33 1155.44 959.194 C 1156.34 964.37 1157.32 969.275 1158.14 974.495 L 1160.19 986.997 C 1160.53 989.238 1160.97 991.527 1161.34 993.775 C 1161.93 995.234 1162.41 996.484 1162.95 997.95 C 1162.2 997.886 1162.25 997.94 1161.59 998.388 C 1158.58 999.271 1155.76 999.963 1152.84 1001.12 L 1151.86 1001 C 1150.9 1001.91 1148.42 1003.66 1148.77 1004.9 C 1151.85 1015.75 1156.83 1025.21 1146.58 1034.87 L 1142.93 1041.62 C 1139.82 1047.62 1136.64 1053.6 1133.4 1059.53 C 1129.47 1062.52 1128.95 1066.64 1127.28 1071.24 C 1121.66 1086.75 1111.18 1117.56 1104.64 1131.2 C 1101.9 1140.45 1096.26 1153.91 1092.63 1163.42 L 1071.7 1218.02 C 1063.25 1239.41 1054.64 1264.75 1045.8 1285.29 C 1044.83 1288.25 1043.39 1291.66 1043.45 1294.67 C 1042.75 1296.78 1042.62 1297.34 1041.63 1299.32 C 1038.57 1303.38 1038.91 1319 1038.21 1325.1 C 1037.43 1336.08 1036.63 1354.36 1034.93 1364.52 C 1034.53 1363.4 1033.29 1357.46 1033.29 1357.46 C 1023.69 1358.59 1025.6 1360.21 1023.96 1366.59 C 1022.99 1354.09 1022.88 1338.68 1022.46 1325.95 C 1021.83 1310.4 1022.28 1295.49 1021.3 1279.66 L 1021.23 1265.38 C 1021.01 1248.96 1020.96 1232.33 1020.02 1215.96 C 1020.62 1211.27 1020.08 1191.13 1020.02 1185.03 L 1019.13 1178.47 L 1019.26 1171.24 C 1018.75 1162.52 1019.08 1151.72 1019.11 1142.84 C 1018.52 1125.71 1019.39 1106.76 1019.22 1089.5 C 1019.15 1081.74 1018.78 1072.42 1019.13 1064.91 L 1018.81 1036.77 L 1019.72 1036.4 L 1019.7 1031.2 C 1021.03 998.255 1019.79 958.346 1020.2 924.301 C 1019.42 911.443 1020.23 895.504 1020.27 882.5 C 1020.3 873.016 1019.73 862.281 1020.05 853.059 L 1019.91 841.787 L 1020.02 835.679 C 1018.68 834.586 1016.57 833.209 1015.09 832.177 L 1008.38 825.307 C 1023.86 819.736 1104.62 778.202 1111.78 768.742 z" fill="rgb(192,208,224)" transform="translate(0,0)"></path>
<path d="M 1111.78 768.742 C 1117 774.98 1123.03 802.672 1123.51 810.78 C 1112.19 809.898 1067.09 840.831 1053.96 847.911 C 1049.6 850.265 1041.97 857.669 1038.48 859.664 C 1032.05 852.903 1026.88 848.017 1019.91 841.787 L 1020.02 835.679 C 1018.68 834.586 1016.57 833.209 1015.09 832.177 L 1008.38 825.307 C 1023.86 819.736 1104.62 778.202 1111.78 768.742 z" fill="rgb(63,81,95)" transform="translate(0,0)"></path>
<path d="M 1116.05 1013 L 1123.32 1010.74 C 1139.99 1005.55 1142.26 1022.47 1146.58 1034.87 L 1142.93 1041.62 C 1139.82 1047.62 1136.64 1053.6 1133.4 1059.53 C 1129.47 1062.52 1128.95 1066.64 1127.28 1071.24 C 1121.66 1086.75 1111.18 1117.56 1104.64 1131.2 C 1104.36 1122.98 1109.09 1115.57 1110.99 1106.48 C 1106.53 1089.72 1083.07 1057.92 1073.48 1042.25 C 1069.83 1036.31 1068.34 1039.99 1069.99 1031.3 C 1065.53 1031.55 1061.07 1031.68 1056.6 1031.69 L 1056.51 1030.94 C 1071.41 1028.19 1103.25 1020.47 1116.05 1013 z" fill="url(#Gradient43)" transform="translate(0,0)"></path>
<path d="M 1122.97 1022.53 C 1125.79 1025.7 1126.86 1026.92 1128.32 1030.92 L 1128.92 1032.36 C 1124.29 1030.43 1124.28 1027.38 1122.97 1022.53 z" fill="rgb(80,97,109)" transform="translate(0,0)"></path>
<path d="M 1020.02 1185.03 L 1021.55 1179.17 L 1022.55 1178.96 C 1024.97 1185.38 1023.49 1184.46 1029.37 1187.13 C 1033.78 1198.14 1039.54 1255.47 1038.1 1266.86 C 1038.31 1270.17 1038.16 1274.45 1039.88 1277.03 L 1040.13 1281.65 C 1040.02 1287.24 1039.1 1294.67 1041.63 1299.32 C 1038.57 1303.38 1038.91 1319 1038.21 1325.1 C 1037.43 1336.08 1036.63 1354.36 1034.93 1364.52 C 1034.53 1363.4 1033.29 1357.46 1033.29 1357.46 C 1023.69 1358.59 1025.6 1360.21 1023.96 1366.59 C 1022.99 1354.09 1022.88 1338.68 1022.46 1325.95 C 1021.83 1310.4 1022.28 1295.49 1021.3 1279.66 L 1021.23 1265.38 C 1021.01 1248.96 1020.96 1232.33 1020.02 1215.96 C 1020.62 1211.27 1020.08 1191.13 1020.02 1185.03 z" fill="url(#Gradient42)" transform="translate(0,0)"></path>
<path d="M 1020.05 853.059 L 1020.66 853.543 C 1024 862.976 1053.42 882.759 1050.73 890.957 C 1050.37 892.022 1049.56 892.877 1048.52 893.293 C 1046.04 894.309 1025.43 896.155 1021.51 896.821 C 1021.07 905.331 1021.16 916.166 1020.2 924.301 C 1019.42 911.443 1020.23 895.504 1020.27 882.5 C 1020.3 873.016 1019.73 862.281 1020.05 853.059 z" fill="rgb(80,97,109)" transform="translate(0,0)"></path>
<path d="M 1151.86 1001 C 1147.89 1001.59 1136.88 1003.61 1133.49 1002.06 C 1128.02 999.568 1116.62 1007.47 1118.43 997.007 C 1118.7 995.418 1125.66 992.729 1127.52 992.581 C 1132.78 992.607 1138.88 988.105 1141.48 983.703 C 1142.06 982.712 1144.83 979.115 1145.53 978.401 L 1146.3 977.586 C 1148.66 980.277 1159.59 993.009 1161.34 993.775 C 1161.93 995.234 1162.41 996.484 1162.95 997.95 C 1162.2 997.886 1162.25 997.94 1161.59 998.388 C 1158.58 999.271 1155.76 999.963 1152.84 1001.12 L 1151.86 1001 z" fill="url(#Gradient41)" transform="translate(0,0)"></path>
<path d="M 1019.11 1142.84 C 1021.07 1145 1029.29 1169.2 1030.64 1156.2 C 1032.78 1165.34 1031.76 1181.88 1032.78 1192.17 C 1035.1 1215.72 1041.32 1253.85 1039.88 1277.03 C 1038.16 1274.45 1038.31 1270.17 1038.1 1266.86 C 1039.54 1255.47 1033.78 1198.14 1029.37 1187.13 C 1023.49 1184.46 1024.97 1185.38 1022.55 1178.96 L 1021.55 1179.17 L 1020.02 1185.03 L 1019.13 1178.47 L 1019.26 1171.24 C 1018.75 1162.52 1019.08 1151.72 1019.11 1142.84 z" fill="rgb(143,157,172)" transform="translate(0,0)"></path>
<path d="M 1019.13 1064.91 C 1020.66 1075.52 1019.77 1087.16 1020.57 1097.91 C 1020.72 1098.45 1022.48 1099.98 1022.47 1099.97 C 1024.57 1101.87 1024.37 1104.07 1024.8 1106.48 C 1025.26 1109.09 1025.61 1111.42 1025.95 1113.99 C 1027.18 1123.31 1028.42 1132.64 1029.16 1142 C 1029.6 1146.54 1030.15 1151.68 1030.64 1156.2 C 1029.29 1169.2 1021.07 1145 1019.11 1142.84 C 1018.52 1125.71 1019.39 1106.76 1019.22 1089.5 C 1019.15 1081.74 1018.78 1072.42 1019.13 1064.91 z" fill="rgb(111,130,146)" transform="translate(0,0)"></path>
<path d="M 1138.46 966.848 C 1144.04 965.945 1150.98 962.68 1155.44 959.194 C 1156.34 964.37 1157.32 969.275 1158.14 974.495 L 1160.19 986.997 C 1160.53 989.238 1160.97 991.527 1161.34 993.775 C 1159.59 993.009 1148.66 980.277 1146.3 977.586 C 1144.61 974.361 1140.95 969.61 1138.46 966.848 z" fill="url(#Gradient40)" transform="translate(0,0)"></path>
<path d="M 1054.49 878.74 C 1065.03 888.902 1074.33 897.263 1086 906 C 1090.99 909.735 1091.25 908.539 1092.46 913.58 C 1093.33 916.978 1108 927.316 1104.94 932.02 C 1104.57 932.589 1095.63 929.227 1094.26 928.809 L 1092.61 928.293 C 1090.01 926.463 1083.94 920.413 1081.37 917.818 C 1074.24 910.615 1066.86 903.337 1063.63 893.419 C 1062.87 891.082 1056.65 885.307 1054.72 883.258 L 1053.47 881.902 L 1054.49 878.74 z" fill="rgb(245,246,248)" transform="translate(0,0)"></path>
<path d="M 250.509 816.68 C 289.067 821.447 327.944 828.974 366.317 834.944 C 479.304 852.291 592.033 871.28 704.469 891.904 C 696.057 903.698 675.438 929.969 665.224 940.249 L 660.188 939.963 C 580.307 928.055 500.338 916.744 420.289 906.029 C 416.948 903.629 391.738 892.851 386.677 890.714 C 346.549 873.777 302.485 852.167 261.759 837.507 C 257.308 830.324 254.295 824.277 250.509 816.68 z" fill="rgb(1,117,91)" transform="translate(0,0)"></path>
<path d="M 952.829 1344.77 C 957.988 1356.25 963.743 1369.91 969.741 1380.72 L 970.325 1381.52 L 968.29 1387.15 C 965.695 1387.87 965.775 1388.11 964.745 1390.67 C 963.102 1400.43 954.324 1423.6 950.555 1433.96 C 936.933 1470.63 922.818 1507.12 908.215 1543.41 C 892.973 1582.4 876.39 1632.41 859.44 1669.51 C 837.76 1666.93 816.167 1663.78 794.436 1661.58 C 788.554 1660.99 781.905 1660.45 776.211 1659.21 C 783.692 1646.88 791.171 1629.95 798.48 1616.75 C 811.659 1592.95 825.091 1569.35 838.298 1545.58 C 876.013 1478.38 914.191 1411.44 952.829 1344.77 z" fill="rgb(1,117,91)" transform="translate(0,0)"></path>
<path d="M 531.125 1575.22 L 694.347 1498.8 C 718.856 1487.27 757.114 1470.77 779.157 1456.04 C 785.167 1452.02 811.477 1426.68 818.547 1420.04 C 840.983 1399.12 863.11 1377.88 884.921 1356.31 C 897.672 1343.68 916.919 1321.98 930.718 1312.35 C 928.321 1322.51 886.321 1371.93 877.674 1382.65 L 813.368 1463.43 L 755.877 1536.23 C 745.926 1548.82 732.163 1566.86 721.589 1578.6 C 657.604 1578.84 590.39 1579.87 526.679 1578.28 C 528.257 1577.23 529.591 1576.34 531.125 1575.22 z" fill="rgb(0,93,75)" transform="translate(0,0)"></path>
<path d="M 927.02 732.075 C 946.916 723.492 976.478 710.284 997.652 705.328 C 999.442 704.91 1004.13 706.315 1006.07 706.901 C 1027 714.434 1061 725.605 1080.26 735.016 L 1081.11 735.097 L 1083.96 735.652 L 1084.51 737.053 C 1093.53 747.447 1103.23 758.05 1111.78 768.742 C 1104.62 778.202 1023.86 819.736 1008.38 825.307 C 986.766 805.628 965.02 786.098 943.142 766.718 L 936.234 760.617 L 930.397 755.923 C 925.154 751.549 920.445 747.882 915.229 743.296 L 910.919 740.506 C 915.836 737.133 921.601 734.661 927.02 732.075 z" fill="rgb(192,208,224)" transform="translate(0,0)"></path>
<path d="M 966.138 735.917 C 967.189 729.149 972.693 723.953 979.51 723.294 C 986.328 722.634 992.726 726.678 995.055 733.119 C 996.223 736.349 996.247 739.883 995.122 743.129 C 994.544 744.797 993.676 746.35 992.558 747.716 C 987.765 753.572 979.359 754.938 972.957 750.902 C 967.9 747.714 965.22 741.825 966.138 735.917 z" fill="rgb(237,29,29)" transform="translate(0,0)"></path>
<path d="M 915.229 743.296 L 916.52 742.487 C 921.268 739.394 929.244 741.637 935.283 741.042 C 962.103 738.398 982.456 739.789 942.496 753.812 C 941.531 754.151 934.778 755.453 934.46 756.178 C 932.883 756.493 931.957 756.18 930.397 755.923 C 925.154 751.549 920.445 747.882 915.229 743.296 z" fill="rgb(245,246,248)" transform="translate(0,0)"></path>
<path d="M 1080.26 735.016 L 1081.11 735.097 C 1076.62 740.369 1032.32 744.069 1022.35 746.758 C 1017.83 747.033 994.706 749.069 992.558 747.716 C 993.676 746.35 994.544 744.797 995.122 743.129 C 996.777 741.662 998.369 739.934 1000.51 739.99 C 1010.37 740.248 1021.6 739.671 1031.46 739.223 C 1039.94 738.837 1048.15 737.42 1056.72 737.286 C 1058.43 737.259 1064.57 736.545 1065.63 735.292 C 1070.07 735.18 1076.18 735.412 1080.26 735.016 z" fill="rgb(245,246,248)" transform="translate(0,0)"></path>
<path d="M 685.852 945.817 C 694.205 949.266 792.518 979.442 793.394 979.229 C 792.876 976.966 793.136 977.549 792.082 975.493 C 793.389 970.827 793.475 970.631 792.965 965.894 C 798.8 989.122 802.845 991.068 816.19 1011.22 L 815.758 1012.14 L 812.805 1013.46 L 806.856 1014.64 L 799.74 1015.4 C 782.193 1017.91 763.774 1018.57 745.999 1020.29 L 652.922 1029.8 C 628.353 1032.13 600.815 1034.03 576.684 1037.3 C 583.336 1029.93 610.133 1008.65 618.769 1001.56 L 685.852 945.817 z" fill="rgb(1,117,91)" transform="translate(0,0)"></path>
<path d="M 817.23 1034.75 L 818.442 1039.9 C 821.523 1053.58 847.491 1234.02 846.209 1236.9 C 839.95 1228.05 796.996 1193.18 786.723 1186.58 C 789.921 1174.96 792.807 1158.73 795.208 1146.65 C 799.842 1123.56 804.307 1100.43 808.603 1077.27 C 810.732 1065.82 813.872 1045.34 817.23 1034.75 z" fill="rgb(1,117,91)" transform="translate(0,0)"></path>
<path d="M 883.531 766.872 C 888.407 767.057 892.25 766.961 897.075 766.866 C 899.155 778.602 896.951 785.521 900.292 800.685 C 894.338 798.582 888.157 797.51 881.987 796.154 L 877.487 795.165 L 872.985 794.194 L 863.487 792.232 L 853.986 790.248 C 846.638 788.71 838.236 786.865 830.918 785.575 C 830.944 779.69 831.168 773.941 831.223 768.073 L 832.307 767.814 C 843.691 768.441 870.264 767.043 883.531 766.872 z" fill="rgb(1,117,91)" transform="translate(0,0)"></path>
<path d="M 786.123 770.144 C 800.257 770.078 816.636 768.241 831.223 768.073 C 831.168 773.941 830.944 779.69 830.918 785.575 C 825.253 784.588 820.078 783.441 814.486 782.22 L 804.985 780.207 L 795.481 778.195 L 781.981 775.178 C 776.527 774.088 773.197 773.691 767.904 771.826 C 774.606 770.481 779.191 771.285 786.123 770.144 z" fill="rgb(0,93,75)" transform="translate(0,0)"></path>
<path d="M 964.745 1390.67 C 965.775 1388.11 965.695 1387.87 968.29 1387.15 C 967.587 1389.27 966.925 1391.41 966.306 1393.56 L 964.745 1390.67 z" fill="rgb(0,93,75)" transform="translate(0,0)"></path>
<path d="M 1676.41 408.188 C 1681.31 409.68 1682.62 411.024 1686.41 414.677 C 1694.88 416.736 1741.69 460.694 1753.01 469.686 C 1745.47 476.386 1729.71 491.008 1721.98 496.294 C 1718.98 499.687 1682.3 533.854 1679.62 534.94 C 1673.11 541.147 1637.99 576.201 1632.62 579.007 C 1599.09 611.813 1565.06 644.107 1530.55 675.878 C 1521.1 684.463 1502.41 702.629 1493.12 709.806 C 1490.88 713.587 1457.41 741.747 1450.57 748.9 C 1441.15 758.076 1426.28 772.026 1414.94 778.767 C 1410.51 782.173 1390.81 797.669 1386.92 799.463 C 1383.22 802.73 1378.37 805.992 1374.31 808.863 C 1374.22 806.479 1374.21 804.167 1374.11 801.782 C 1366.69 796.011 1359.02 789.806 1351.22 784.625 C 1345.41 778.062 1325.11 765.258 1316.44 763.025 C 1319.24 754.811 1359.81 719.793 1368.83 712.099 C 1370.4 709.833 1392.54 689.361 1396.28 685.844 C 1419.66 663.684 1443.16 641.654 1466.79 619.757 C 1469.8 616.014 1472.23 613.94 1475.73 610.725 C 1499.33 587.131 1527.85 556.133 1551.84 534.148 C 1555.97 527.726 1580.09 505.168 1586.53 498.734 C 1616.8 468.857 1646.76 438.674 1676.41 408.188 z" fill="url(#Gradient39)" transform="translate(0,0)"></path>
<path d="M 1475.73 610.725 C 1482.49 615.166 1499.25 599.668 1505.99 599.343 L 1506.7 599.999 L 1504 605.668 C 1485.66 637.026 1476.9 669.572 1465.11 703.44 C 1462.48 710.997 1447.59 738.618 1447.63 743.743 L 1449.47 744.237 L 1450.57 748.9 C 1441.15 758.076 1426.28 772.026 1414.94 778.767 C 1410.51 782.173 1390.81 797.669 1386.92 799.463 C 1383.22 802.73 1378.37 805.992 1374.31 808.863 C 1374.22 806.479 1374.21 804.167 1374.11 801.782 C 1366.69 796.011 1359.02 789.806 1351.22 784.625 C 1345.41 778.062 1325.11 765.258 1316.44 763.025 C 1319.24 754.811 1359.81 719.793 1368.83 712.099 C 1370.4 709.833 1392.54 689.361 1396.28 685.844 C 1419.66 663.684 1443.16 641.654 1466.79 619.757 C 1469.8 616.014 1472.23 613.94 1475.73 610.725 z" fill="url(#Gradient38)" transform="translate(0,0)"></path>
<path d="M 1475.73 610.725 C 1482.49 615.166 1499.25 599.668 1505.99 599.343 L 1506.7 599.999 L 1504 605.668 C 1485.66 637.026 1476.9 669.572 1465.11 703.44 C 1462.48 710.997 1447.59 738.618 1447.63 743.743 L 1449.47 744.237 L 1450.57 748.9 C 1441.15 758.076 1426.28 772.026 1414.94 778.767 C 1415.15 775.848 1422.32 754.644 1423.75 750.09 L 1443.31 687.546 C 1447.82 673.466 1453.27 659.46 1456.23 645.004 C 1458.91 638.659 1468.6 625.92 1466.79 619.757 C 1469.8 616.014 1472.23 613.94 1475.73 610.725 z" fill="rgb(80,97,109)" transform="translate(0,0)"></path>
<path d="M 1382.75 781.889 C 1403.09 743.599 1422.36 704.8 1443.22 666.814 C 1447.13 659.696 1451.38 651.479 1456.23 645.004 C 1453.27 659.46 1447.82 673.466 1443.31 687.546 L 1423.75 750.09 C 1422.32 754.644 1415.15 775.848 1414.94 778.767 C 1410.51 782.173 1390.81 797.669 1386.92 799.463 C 1383.22 802.73 1378.37 805.992 1374.31 808.863 C 1374.22 806.479 1374.21 804.167 1374.11 801.782 C 1375.66 794.014 1379.07 789.166 1382.23 781.982 L 1382.75 781.889 z" fill="url(#Gradient37)" transform="translate(0,0)"></path>
<path d="M 1382.23 781.982 L 1382.75 781.889 C 1382.74 783.032 1382.11 801.464 1381.64 800.808 C 1382.6 800.701 1383.15 800.484 1384.13 800.213 L 1386.92 799.463 C 1383.22 802.73 1378.37 805.992 1374.31 808.863 C 1374.22 806.479 1374.21 804.167 1374.11 801.782 C 1375.66 794.014 1379.07 789.166 1382.23 781.982 z" fill="rgb(143,157,172)" transform="translate(0,0)"></path>
<path d="M 1595.03 557.327 C 1607.05 563.655 1628.08 568.453 1642.15 567.267 C 1639.16 570.071 1634.67 573.928 1632.52 577.205 L 1632.62 579.007 C 1599.09 611.813 1565.06 644.107 1530.55 675.878 C 1521.1 684.463 1502.41 702.629 1493.12 709.806 C 1490.88 713.587 1457.41 741.747 1450.57 748.9 L 1449.47 744.237 L 1447.63 743.743 C 1447.59 738.618 1462.48 710.997 1465.11 703.44 C 1476.9 669.572 1485.66 637.026 1504 605.668 C 1509.63 603.411 1509.33 597.061 1513.47 594.66 C 1520.93 590.328 1541.84 582.478 1548.14 577.596 C 1557.83 573.713 1586.4 561.951 1595.03 557.327 z" fill="rgb(192,208,224)" transform="translate(0,0)"></path>
<path d="M 1449.47 744.237 L 1449.91 742.638 C 1450.6 740.044 1470.92 700.424 1470.48 700.732 C 1473.18 700.648 1473.83 708.791 1474.25 710.531 L 1475.24 714.535 C 1475.99 717.588 1476.14 718.515 1477.47 721.447 L 1477.42 721.277 C 1481.34 718.275 1489 709.141 1493.12 709.806 C 1490.88 713.587 1457.41 741.747 1450.57 748.9 L 1449.47 744.237 z" fill="rgb(143,157,172)" transform="translate(0,0)"></path>
<path d="M 1679.1 515.526 C 1684.07 514.379 1713.44 499.162 1721.98 496.294 C 1718.98 499.687 1682.3 533.854 1679.62 534.94 C 1679.21 529.225 1706.57 510.91 1708.75 505.645 C 1707.55 502.367 1690.17 513.076 1687.62 513.586 C 1682.74 514.564 1674.48 520.894 1669.98 521.668 C 1669.92 521.598 1669.85 521.529 1669.78 521.459 C 1670.15 520.856 1677.53 516.677 1679.1 515.526 z" fill="rgb(80,97,109)" transform="translate(0,0)"></path>
<path d="M 1020.66 1489.78 C 1019.63 1485.3 1027.53 1474.21 1030.4 1469.99 C 1046.02 1447.05 1057.86 1420.52 1072.61 1397.32 C 1073.43 1396.02 1074.27 1394.74 1075.13 1393.47 L 1096.76 1467.16 C 1100.4 1479.58 1105.67 1495.86 1108.5 1508.23 C 1111.96 1517.04 1124.19 1557.88 1125.88 1566.82 C 1129.37 1577.51 1137.27 1603.88 1139.41 1614.37 L 1142.01 1621.56 C 1146.4 1634.88 1150.32 1649.22 1154.22 1662.78 C 1155.43 1667.05 1156.68 1671.31 1157.97 1675.57 L 1160.38 1685.55 C 1144.15 1701.61 1128.05 1717.82 1112.1 1734.16 C 1107.98 1738.39 1088.26 1759.17 1085.26 1761.31 C 1080.29 1767.1 1035.93 1813.27 1032.86 1813.83 C 1030.39 1807.41 1029.98 1738.41 1030.04 1726.46 C 1029.29 1707.97 1025.95 1657.63 1027.12 1641.45 C 1024.5 1621.08 1024.36 1582.91 1023.69 1561.12 C 1022.69 1550.03 1022.44 1535.07 1021.85 1523.63 C 1021.1 1518.99 1020.24 1494.97 1020.66 1489.78 z" fill="url(#Gradient36)" transform="translate(0,0)"></path>
<path d="M 1089.1 1721.22 C 1091.82 1715.56 1118.16 1668.68 1119.9 1667.54 L 1124.31 1668.48 C 1135.85 1667.57 1147.65 1670.36 1157.97 1675.57 L 1160.38 1685.55 C 1144.15 1701.61 1128.05 1717.82 1112.1 1734.16 C 1107.98 1738.39 1088.26 1759.17 1085.26 1761.31 C 1080.29 1767.1 1035.93 1813.27 1032.86 1813.83 C 1034.81 1811.19 1036.46 1806.77 1038.34 1803.61 C 1046.61 1789.64 1052.73 1775.67 1061.06 1761.68 C 1064.2 1757.55 1066.11 1754.49 1068.79 1750.13 C 1071.33 1748.62 1086.44 1725.25 1089.1 1721.22 z" fill="rgb(192,208,224)" transform="translate(0,0)"></path>
<path d="M 1089.52 1725.81 C 1095.41 1717.94 1113.9 1680.29 1118.56 1677.73 C 1120 1678.71 1120.18 1687.21 1119.73 1689.52 C 1118.25 1697.14 1113.17 1702.42 1109.43 1708.96 C 1104.2 1718.13 1095.53 1722.54 1088.47 1729.5 L 1089.52 1725.81 z" fill="url(#Gradient35)" transform="translate(0,0)"></path>
<path d="M 1020.66 1489.78 C 1023.33 1494.28 1046.95 1537.36 1046.47 1538.45 C 1046.1 1538.17 1045.7 1537.66 1045.21 1537.74 C 1045.02 1537.95 1044.82 1538.16 1044.62 1538.37 C 1036.15 1532.98 1031.41 1526.77 1021.85 1523.63 C 1021.1 1518.99 1020.24 1494.97 1020.66 1489.78 z" fill="rgb(111,130,146)" transform="translate(0,0)"></path>
<path d="M 1142.01 1621.56 C 1146.4 1634.88 1150.32 1649.22 1154.22 1662.78 C 1152.53 1663.34 1137.41 1667.77 1136.69 1665.56 C 1135.08 1660.56 1138.13 1651.86 1139.29 1646.5 C 1141.21 1637.7 1141.74 1630.52 1142.01 1621.56 z" fill="rgb(63,81,95)" transform="translate(0,0)"></path>
<path d="M 1125.88 1566.82 C 1129.37 1577.51 1137.27 1603.88 1139.41 1614.37 C 1138.59 1614.13 1137.35 1613.97 1136.7 1613.32 C 1134.82 1605.58 1127.89 1584.01 1127.5 1578.29 C 1127.7 1578.16 1122.83 1587.71 1121.97 1588.98 C 1114.42 1600 1109.16 1613.08 1103.87 1625.33 C 1101.42 1631 1099.99 1630.64 1101.45 1636.04 C 1096.71 1629.89 1097.91 1632.14 1101.24 1624.7 C 1103.49 1619.53 1106.56 1614.15 1108.55 1608.91 C 1111.78 1600.41 1117.12 1593.64 1121.44 1585.81 C 1122.18 1584.46 1127.02 1575.9 1126.26 1575.06 C 1124.77 1573.39 1125.47 1569.84 1125.75 1567.79 L 1125.88 1566.82 z" fill="rgb(192,208,224)" transform="translate(0,0)"></path>
<path d="M 1084 1655 C 1088.11 1652.53 1090.51 1653.43 1095.48 1654.41 C 1091.95 1656.34 1088.04 1655.57 1084 1655 z" fill="rgb(192,208,224)" transform="translate(0,0)"></path>
<path d="M 1095.48 1654.41 C 1098.09 1653.19 1106.02 1651.1 1108.75 1650.71 C 1104.22 1654.56 1101.1 1654.56 1095.48 1654.41 z" fill="rgb(192,208,224)" transform="translate(0,0)"></path>
<path d="M 1055.59 1659.29 C 1060.84 1656.87 1061.81 1656.25 1067 1657 C 1063.13 1659.32 1059.9 1659.4 1055.59 1659.29 z" fill="rgb(192,208,224)" transform="translate(0,0)"></path>
<path d="M 1075 1656 C 1078.63 1653.81 1079.51 1654.35 1084 1655 C 1080.37 1657.19 1079.49 1656.65 1075 1656 z" fill="rgb(192,208,224)" transform="translate(0,0)"></path>
<path d="M 1067 1657 C 1070.06 1655.16 1071.4 1654.99 1075 1656 C 1071.56 1658.07 1071.3 1657.63 1067 1657 z" fill="rgb(192,208,224)" transform="translate(0,0)"></path>
<path d="M 1040 1663 C 1042.14 1661.59 1042.97 1660.92 1045.54 1660.78 L 1048.32 1660.65 L 1046.77 1661.45 C 1043.92 1662.99 1043.24 1663.1 1040 1663 z" fill="rgb(192,208,224)" transform="translate(0,0)"></path>
<path d="M 1048.32 1660.65 C 1049.77 1659.5 1050.21 1659.77 1052 1660 C 1050.15 1661.12 1050.35 1661.1 1048.32 1660.65 z" fill="rgb(192,208,224)" transform="translate(0,0)"></path>
<path d="M 1052 1660 C 1053.63 1659.06 1053.8 1658.7 1055.59 1659.29 C 1054.42 1660.57 1053.66 1660.08 1052 1660 z" fill="rgb(192,208,224)" transform="translate(0,0)"></path>
<path d="M 1030.84 1664.83 C 1032.25 1664.13 1033 1663.86 1034.59 1663.95 L 1036 1664 C 1033.46 1665.26 1033.66 1665.29 1030.84 1664.83 z" fill="rgb(192,208,224)" transform="translate(0,0)"></path>
<path d="M 1036 1664 C 1037.95 1663.19 1038 1662.96 1040 1663 C 1038.42 1663.92 1037.93 1663.77 1036 1664 z" fill="rgb(192,208,224)" transform="translate(0,0)"></path>
<path d="M 1132.4 1308.7 C 1141.59 1314.67 1150.82 1320.93 1159.74 1327.32 C 1218.59 1369.5 1280.41 1409.1 1338.88 1451.64 C 1359.51 1464.92 1379.32 1479.55 1399.61 1493.35 C 1403.4 1495.93 1407.28 1498.45 1410.82 1501.37 C 1421.19 1507.71 1437.88 1519.46 1447.8 1526.76 C 1450.73 1528.59 1451.95 1529.47 1454.6 1531.58 C 1457.51 1533.17 1484.1 1551.73 1485.37 1553.29 C 1490.18 1556.05 1511.61 1570.17 1515.25 1573.51 C 1516.55 1574.18 1523.18 1577.56 1517.8 1577.88 L 1517.52 1577.9 C 1507.79 1577.69 1494.69 1577.85 1485.34 1577.12 C 1475.63 1578.4 1444.93 1577.93 1433.59 1577.95 L 1336.72 1577.97 C 1328.14 1577.9 1329.38 1578.62 1324.74 1573.9 C 1308.88 1552.79 1288.09 1531.15 1271.51 1509.25 C 1267.41 1505.04 1260.86 1496.26 1256.98 1491.35 C 1256.61 1490.99 1252.83 1485.89 1252.3 1485.18 C 1246.33 1479.92 1230.05 1456.27 1224.13 1448.73 C 1202.44 1420.94 1180.52 1393.34 1158.37 1365.92 C 1148.94 1354.22 1136.23 1337.22 1126.33 1326.62 C 1128.6 1320.9 1130.49 1314.59 1132.4 1308.7 z" fill="url(#Gradient34)" transform="translate(0,0)"></path>
<path d="M 1256.98 1491.35 C 1283.23 1489.52 1338.33 1514.73 1365.56 1522.81 C 1387.54 1529.32 1411.23 1538.55 1433.31 1545.33 C 1448.14 1550.54 1467.44 1558.9 1482.09 1562.61 C 1480.36 1561.18 1478.61 1559.77 1476.84 1558.38 C 1481.18 1557.33 1489.69 1560.2 1489.34 1557.95 C 1487.29 1555.35 1486.55 1557.64 1485.37 1553.29 C 1490.18 1556.05 1511.61 1570.17 1515.25 1573.51 C 1516.55 1574.18 1523.18 1577.56 1517.8 1577.88 L 1517.52 1577.9 C 1507.79 1577.69 1494.69 1577.85 1485.34 1577.12 C 1475.63 1578.4 1444.93 1577.93 1433.59 1577.95 L 1336.72 1577.97 C 1328.14 1577.9 1329.38 1578.62 1324.74 1573.9 C 1308.88 1552.79 1288.09 1531.15 1271.51 1509.25 C 1267.41 1505.04 1260.86 1496.26 1256.98 1491.35 z" fill="url(#Gradient33)" transform="translate(0,0)"></path>
<path d="M 1256.98 1491.35 C 1283.23 1489.52 1338.33 1514.73 1365.56 1522.81 C 1387.54 1529.32 1411.23 1538.55 1433.31 1545.33 C 1448.14 1550.54 1467.44 1558.9 1482.09 1562.61 C 1484.67 1563.73 1487.26 1564.79 1489.88 1565.8 C 1487.23 1567.34 1487.34 1567.22 1484.22 1567.72 C 1476.62 1564.57 1461.58 1560.04 1453.24 1557.28 C 1425.19 1548.38 1400.28 1541.9 1372.04 1534.37 C 1350.81 1528.72 1332.71 1514.09 1307.38 1515 L 1305.72 1516.89 C 1313.03 1521.45 1338.09 1525.33 1341.05 1530.3 C 1316.14 1523.32 1311.93 1534.82 1297.14 1535.84 C 1289.86 1531.64 1279.8 1514.66 1273.25 1508.82 L 1271.51 1509.25 C 1267.41 1505.04 1260.86 1496.26 1256.98 1491.35 z" fill="url(#Gradient32)" transform="translate(0,0)"></path>
<path d="M 1485.37 1553.29 C 1490.18 1556.05 1511.61 1570.17 1515.25 1573.51 C 1516.55 1574.18 1523.18 1577.56 1517.8 1577.88 L 1517.52 1577.9 C 1507.79 1577.69 1494.69 1577.85 1485.34 1577.12 C 1483.96 1576.94 1473.58 1576.31 1473.64 1576.34 C 1474.19 1575.62 1478.58 1576.32 1479.68 1575.84 L 1479.75 1575.64 L 1479.71 1575.68 C 1478.11 1574.55 1477.15 1575.91 1476 1575.36 C 1468.6 1571.85 1484.51 1570.44 1488.39 1568.74 L 1484.22 1567.72 C 1487.34 1567.22 1487.23 1567.34 1489.88 1565.8 C 1487.26 1564.79 1484.67 1563.73 1482.09 1562.61 C 1480.36 1561.18 1478.61 1559.77 1476.84 1558.38 C 1481.18 1557.33 1489.69 1560.2 1489.34 1557.95 C 1487.29 1555.35 1486.55 1557.64 1485.37 1553.29 z" fill="rgb(80,97,109)" transform="translate(0,0)"></path>
<path d="M 1485.37 1553.29 C 1490.18 1556.05 1511.61 1570.17 1515.25 1573.51 C 1502.94 1572.26 1497.15 1567.13 1489.88 1565.8 C 1487.26 1564.79 1484.67 1563.73 1482.09 1562.61 C 1480.36 1561.18 1478.61 1559.77 1476.84 1558.38 C 1481.18 1557.33 1489.69 1560.2 1489.34 1557.95 C 1487.29 1555.35 1486.55 1557.64 1485.37 1553.29 z" fill="rgb(63,81,95)" transform="translate(0,0)"></path>
<path d="M 1489.88 1565.8 C 1497.15 1567.13 1502.94 1572.26 1515.25 1573.51 C 1516.55 1574.18 1523.18 1577.56 1517.8 1577.88 L 1517.52 1577.9 C 1507.39 1575.3 1497.85 1570.77 1488.39 1568.74 L 1484.22 1567.72 C 1487.34 1567.22 1487.23 1567.34 1489.88 1565.8 z" fill="rgb(192,208,224)" transform="translate(0,0)"></path>
<path d="M 1410.82 1501.37 C 1421.19 1507.71 1437.88 1519.46 1447.8 1526.76 L 1448.25 1527.94 C 1449.54 1530.4 1449.44 1530.67 1447.49 1532.82 C 1443.43 1537.3 1444.38 1539.72 1444.58 1545.31 C 1437.71 1542.08 1384.32 1524.7 1383.77 1523.57 L 1384 1523.2 C 1385.67 1523 1388.22 1524.29 1389.77 1524.91 C 1391.61 1524.5 1393.32 1520.02 1397.63 1519.12 C 1398.32 1518.97 1407.52 1514.3 1408.49 1513.5 C 1416.78 1506.66 1414.78 1508.39 1410.82 1501.37 z" fill="url(#Gradient31)" transform="translate(0,0)"></path>
<path d="M 1447.8 1526.76 C 1450.73 1528.59 1451.95 1529.47 1454.6 1531.58 C 1457.51 1533.17 1484.1 1551.73 1485.37 1553.29 C 1486.55 1557.64 1487.29 1555.35 1489.34 1557.95 C 1489.69 1560.2 1481.18 1557.33 1476.84 1558.38 C 1474.38 1557.9 1455.08 1549.51 1450.87 1547.89 C 1448.66 1547.01 1446.83 1546.05 1444.58 1545.31 C 1444.38 1539.72 1443.43 1537.3 1447.49 1532.82 C 1449.44 1530.67 1449.54 1530.4 1448.25 1527.94 L 1447.8 1526.76 z" fill="url(#Gradient30)" transform="translate(0,0)"></path>
<path d="M 1447.8 1526.76 C 1450.73 1528.59 1451.95 1529.47 1454.6 1531.58 C 1454.29 1531.78 1454 1532.01 1453.68 1532.19 C 1453.42 1532.32 1453.14 1532.44 1452.85 1532.48 C 1446.02 1540.55 1445.55 1541.09 1450.87 1547.89 C 1448.66 1547.01 1446.83 1546.05 1444.58 1545.31 C 1444.38 1539.72 1443.43 1537.3 1447.49 1532.82 C 1449.44 1530.67 1449.54 1530.4 1448.25 1527.94 L 1447.8 1526.76 z" fill="rgb(111,130,146)" transform="translate(0,0)"></path>
<path d="M 1106.15 1339.74 C 1106.3 1339.38 1107.43 1336.17 1108.5 1337.21 C 1113.67 1342.26 1120.64 1350.67 1124.45 1356.75 C 1130.46 1364.79 1136.63 1372.79 1142.54 1380.9 C 1161.04 1406.32 1182.79 1430.29 1199.93 1456.66 C 1202.05 1458.98 1203.8 1461.72 1205.4 1464.42 C 1209.57 1468.58 1223.08 1488.05 1227.02 1493.56 L 1234.1 1503.13 C 1242.09 1513.6 1268.22 1546.72 1273.67 1556.74 C 1281.48 1565.64 1292.86 1582 1300.11 1591.96 C 1298.63 1595.52 1292.41 1610.9 1290.69 1612.98 C 1288.08 1620.02 1275.52 1652.17 1272.04 1657.83 C 1265.98 1659.02 1260 1659.91 1253.94 1660.95 C 1249.71 1661.73 1245.35 1662.28 1239.99 1662.69 C 1221.92 1664.09 1202.77 1667.73 1184.88 1668.2 C 1184.41 1668.21 1183.44 1664.67 1183.29 1664.25 C 1160.65 1594.39 1140.42 1519.54 1118.87 1448.63 C 1118.37 1446.89 1117.89 1445.13 1117.44 1443.38 C 1112.44 1431.42 1100.11 1387.77 1096.43 1374.19 C 1093.78 1365.96 1101.98 1347.33 1106.15 1339.74 z" fill="url(#Gradient29)" transform="translate(0,0)"></path>
<path d="M 1106.15 1339.74 C 1106.3 1339.38 1107.43 1336.17 1108.5 1337.21 C 1113.67 1342.26 1120.64 1350.67 1124.45 1356.75 C 1130.46 1364.79 1136.63 1372.79 1142.54 1380.9 C 1161.04 1406.32 1182.79 1430.29 1199.93 1456.66 C 1202.05 1458.98 1203.8 1461.72 1205.4 1464.42 C 1209.57 1468.58 1223.08 1488.05 1227.02 1493.56 L 1234.1 1503.13 C 1232.87 1518.34 1238.92 1565.92 1235.99 1577.37 L 1234.55 1578.63 C 1234.5 1584.24 1237.34 1598.59 1236.4 1601.32 L 1233.27 1598.45 L 1230.39 1599.17 C 1229.69 1596.83 1215.72 1578.1 1212.83 1574.27 C 1207.09 1566.7 1200.79 1556.1 1195.07 1548.56 C 1184.59 1534.74 1126.28 1457.16 1123.16 1447.04 L 1118.87 1448.63 C 1118.37 1446.89 1117.89 1445.13 1117.44 1443.38 C 1112.44 1431.42 1100.11 1387.77 1096.43 1374.19 C 1093.78 1365.96 1101.98 1347.33 1106.15 1339.74 z" fill="url(#Gradient28)" transform="translate(0,0)"></path>
<path d="M 1129.25 1395.75 C 1127.41 1387.63 1123.45 1384.43 1123.17 1374.29 C 1122.93 1365.83 1121.08 1365.3 1124.45 1356.75 C 1130.46 1364.79 1136.63 1372.79 1142.54 1380.9 C 1161.04 1406.32 1182.79 1430.29 1199.93 1456.66 L 1197.82 1458.31 C 1191.93 1452.76 1183.49 1445.53 1177.15 1440.52 C 1170.99 1433.34 1154.72 1421.85 1146.77 1415.63 C 1138.7 1409.31 1136.48 1401.25 1129.25 1395.75 z" fill="url(#Gradient27)" transform="translate(0,0)"></path>
<path d="M 1106.15 1339.74 C 1106.3 1339.38 1107.43 1336.17 1108.5 1337.21 C 1113.67 1342.26 1120.64 1350.67 1124.45 1356.75 C 1121.08 1365.3 1122.93 1365.83 1123.17 1374.29 C 1123.45 1384.43 1127.41 1387.63 1129.25 1395.75 C 1128.29 1395.49 1124.64 1395.24 1124.93 1395.43 C 1121.1 1392.9 1113.09 1387 1110.46 1383.66 C 1107.19 1381.27 1099.27 1372.78 1096.43 1374.19 C 1093.78 1365.96 1101.98 1347.33 1106.15 1339.74 z" fill="rgb(111,130,146)" transform="translate(0,0)"></path>
<path d="M 1096.43 1374.19 C 1093.78 1365.96 1101.98 1347.33 1106.15 1339.74 L 1107.57 1342.53 C 1107.97 1343.3 1109.12 1348.9 1109.09 1349.55 C 1108.73 1359.98 1110.59 1373.74 1110.46 1383.66 C 1107.19 1381.27 1099.27 1372.78 1096.43 1374.19 z" fill="rgb(80,97,109)" transform="translate(0,0)"></path>
<path d="M 1199.93 1456.66 C 1202.05 1458.98 1203.8 1461.72 1205.4 1464.42 C 1202.21 1463.57 1200.25 1460.81 1197.82 1458.31 L 1199.93 1456.66 z" fill="rgb(192,208,224)" transform="translate(0,0)"></path>
<path d="M 1117.44 1443.38 C 1120.46 1442.15 1121.78 1444.92 1123.16 1447.04 L 1118.87 1448.63 C 1118.37 1446.89 1117.89 1445.13 1117.44 1443.38 z" fill="rgb(192,208,224)" transform="translate(0,0)"></path>
<path d="M 1229.62 1625.04 C 1233.48 1630.04 1233.21 1639.24 1239.42 1646.57 C 1244.48 1652.54 1248.51 1655.49 1253.94 1660.95 C 1249.71 1661.73 1245.35 1662.28 1239.99 1662.69 C 1221.92 1664.09 1202.77 1667.73 1184.88 1668.2 C 1184.41 1668.21 1183.44 1664.67 1183.29 1664.25 C 1186.87 1662.92 1225.77 1629.18 1229.62 1625.04 z" fill="rgb(63,81,95)" transform="translate(0,0)"></path>
<path d="M 1238.52 1609.33 L 1239.77 1610.26 C 1243.84 1613.07 1251.37 1629.05 1256.27 1634.08 C 1257.72 1636.62 1258.92 1638.35 1260.57 1640.78 C 1262.94 1644.24 1265.36 1647.67 1267.83 1651.06 C 1269.46 1653.34 1271.24 1655.24 1272.04 1657.83 C 1265.98 1659.02 1260 1659.91 1253.94 1660.95 C 1248.51 1655.49 1244.48 1652.54 1239.42 1646.57 C 1233.21 1639.24 1233.48 1630.04 1229.62 1625.04 C 1230.56 1623.85 1238.66 1618.07 1238.75 1617.6 C 1238.09 1616.9 1237.26 1616.66 1237.65 1615.55 C 1238.97 1614.49 1240.71 1615.54 1241.08 1614.07 C 1240.36 1612.5 1239.39 1611.24 1238.52 1609.33 z" fill="rgb(192,208,224)" transform="translate(0,0)"></path>
<path d="M 1832.33 691.546 C 1840.73 687.519 1851.17 682.533 1860.08 679.755 L 1819.61 762.738 C 1810.22 782.178 1800.25 804.043 1789.7 822.681 C 1779.63 824.288 1769.56 828.045 1759.67 830.486 C 1754.31 831.95 1746.02 833.802 1741.08 835.405 C 1737.99 836.292 1729.81 838.889 1727.08 839.071 C 1681.43 851.456 1635.64 863.278 1589.7 874.536 C 1583.81 876.87 1561.51 882.084 1554.58 883.86 C 1533.52 889.237 1512.53 894.864 1491.61 900.738 C 1494.95 882.827 1497.48 864.414 1500.4 846.372 C 1526.69 835.925 1559.17 819.913 1584.98 807.649 L 1733.66 736.847 C 1737.11 734.534 1754.03 726.952 1758.54 724.846 C 1778.6 715.542 1798.74 706.399 1818.95 697.417 C 1823.19 695.879 1828.15 693.445 1832.33 691.546 z" fill="url(#Gradient26)" transform="translate(0,0)"></path>
<path d="M 1832.33 691.546 C 1840.73 687.519 1851.17 682.533 1860.08 679.755 L 1819.61 762.738 C 1810.22 782.178 1800.25 804.043 1789.7 822.681 C 1779.63 824.288 1769.56 828.045 1759.67 830.486 C 1754.31 831.95 1746.02 833.802 1741.08 835.405 C 1737.99 836.292 1729.81 838.889 1727.08 839.071 C 1681.43 851.456 1635.64 863.278 1589.7 874.536 L 1588.69 873.936 L 1589.3 873.163 L 1589.19 873.856 C 1589.54 873.652 1591.23 872.667 1591.57 872.527 C 1597.41 870.062 1633.82 840.415 1639.01 835.005 C 1633.43 835.073 1630.12 835.472 1624.75 833.833 L 1620.2 833.336 C 1623.28 832.604 1631.43 833.534 1633.78 833.216 C 1642.47 832.041 1689.42 834.825 1693.73 833.742 C 1693.61 832.478 1693.25 831.212 1693.38 829.949 C 1693.51 828.604 1696.45 824.595 1697.26 823.193 C 1706.64 806.987 1745.38 754.912 1743.53 740.128 C 1743.19 737.436 1742.86 737.095 1740.79 735.715 C 1738.4 736.181 1737.77 736.313 1735.59 737.26 L 1733.93 737.999 L 1733.66 736.847 C 1737.11 734.534 1754.03 726.952 1758.54 724.846 C 1778.6 715.542 1798.74 706.399 1818.95 697.417 C 1823.19 695.879 1828.15 693.445 1832.33 691.546 z" fill="rgb(80,97,109)" transform="translate(0,0)"></path>
<path d="M 1832.33 691.546 C 1840.73 687.519 1851.17 682.533 1860.08 679.755 L 1819.61 762.738 C 1810.22 782.178 1800.25 804.043 1789.7 822.681 C 1779.63 824.288 1769.56 828.045 1759.67 830.486 C 1759.83 825.181 1765.54 818.086 1768.72 813.974 C 1775.95 806.122 1778.78 788.692 1785.13 780.807 C 1807.04 753.606 1819.62 724.187 1832.33 691.546 z" fill="url(#Gradient25)" transform="translate(0,0)"></path>
<path d="M 1818.95 697.417 C 1823.19 695.879 1828.15 693.445 1832.33 691.546 C 1819.62 724.187 1807.04 753.606 1785.13 780.807 C 1778.78 788.692 1775.95 806.122 1768.72 813.974 C 1765.54 818.086 1759.83 825.181 1759.67 830.486 C 1754.31 831.95 1746.02 833.802 1741.08 835.405 C 1741.95 829.047 1764.11 794.892 1768.59 786.165 C 1783.37 757.344 1799.49 723.35 1818.95 697.417 z" fill="rgb(143,157,172)" transform="translate(0,0)"></path>
<path d="M 1624.75 833.833 C 1644.8 832.999 1708.94 834.011 1727.08 839.071 C 1681.43 851.456 1635.64 863.278 1589.7 874.536 L 1588.69 873.936 L 1589.3 873.163 L 1589.19 873.856 C 1589.54 873.652 1591.23 872.667 1591.57 872.527 C 1597.41 870.062 1633.82 840.415 1639.01 835.005 C 1633.43 835.073 1630.12 835.472 1624.75 833.833 z" fill="rgb(192,208,224)" transform="translate(0,0)"></path>
<path d="M 1328.99 1071.64 C 1337.62 1067.75 1405.94 1042.37 1411.52 1042.69 C 1438.68 1044.25 1503.42 1048.7 1530.7 1051.81 C 1541.15 1052.17 1551.54 1053.69 1561.38 1054.05 C 1575.09 1054.76 1589.12 1056.19 1603 1056.81 C 1611.71 1057.19 1627.07 1057.62 1635.16 1059.06 C 1653.22 1059.25 1674.76 1062.19 1693.07 1063.21 C 1698.6 1063.51 1722.59 1065.39 1726.67 1066.59 C 1725.39 1068.91 1725.16 1068.76 1722.85 1070.2 C 1714.88 1075.95 1665.05 1112.94 1659.82 1115.39 C 1653.49 1121.22 1640.23 1130.17 1632.86 1135.37 C 1618.53 1145.42 1604.25 1155.55 1590.03 1165.77 C 1579.9 1151.83 1551.32 1121.48 1538.81 1108.09 L 1538.37 1107.94 C 1533.41 1109.07 1519.64 1112.4 1515.17 1112.1 C 1490.01 1110.4 1456.19 1102.13 1431.82 1095.89 L 1426.72 1094.68 C 1421.44 1093.91 1404.32 1089.16 1397.87 1087.64 C 1374.94 1082.18 1351.98 1076.85 1328.99 1071.64 z" fill="url(#Gradient24)" transform="translate(0,0)"></path>
<path d="M 1328.99 1071.64 C 1337.62 1067.75 1405.94 1042.37 1411.52 1042.69 C 1438.68 1044.25 1503.42 1048.7 1530.7 1051.81 C 1533.94 1053.17 1534.93 1053.63 1538.48 1054.37 C 1542.71 1060.58 1527.8 1079.24 1526.32 1087.38 C 1526.68 1087.85 1527.03 1088.32 1527.39 1088.78 C 1523.32 1090.52 1506.32 1094.8 1506.13 1095.12 L 1505.46 1094.7 L 1510.41 1095.51 C 1529.77 1097.25 1549.39 1098.27 1568.57 1099.86 L 1569.1 1100.74 C 1560.37 1103.73 1547.33 1104.83 1538.81 1108.09 L 1538.37 1107.94 C 1533.41 1109.07 1519.64 1112.4 1515.17 1112.1 C 1490.01 1110.4 1456.19 1102.13 1431.82 1095.89 L 1426.72 1094.68 C 1421.44 1093.91 1404.32 1089.16 1397.87 1087.64 C 1374.94 1082.18 1351.98 1076.85 1328.99 1071.64 z" fill="rgb(192,208,224)" transform="translate(0,0)"></path>
<path d="M 1436.9 1091.54 C 1460 1092.33 1482.75 1095.03 1505.47 1095.99 C 1510.03 1097.79 1513.94 1102.26 1517.84 1103.57 C 1524.27 1105.74 1533.67 1101.45 1538.37 1107.94 C 1533.41 1109.07 1519.64 1112.4 1515.17 1112.1 C 1490.01 1110.4 1456.19 1102.13 1431.82 1095.89 C 1433.81 1092.85 1433.57 1092.94 1436.9 1091.54 z" fill="rgb(245,246,248)" transform="translate(0,0)"></path>
<path d="M 1530.7 1051.81 C 1541.15 1052.17 1551.54 1053.69 1561.38 1054.05 C 1575.09 1054.76 1589.12 1056.19 1603 1056.81 C 1611.71 1057.19 1627.07 1057.62 1635.16 1059.06 C 1653.22 1059.25 1674.76 1062.19 1693.07 1063.21 C 1698.6 1063.51 1722.59 1065.39 1726.67 1066.59 C 1725.39 1068.91 1725.16 1068.76 1722.85 1070.2 C 1715.59 1067.1 1661.16 1082.17 1649.92 1083.24 C 1648.14 1083.41 1634.09 1086.41 1631.87 1087.05 C 1607.44 1091.13 1593.43 1097.64 1568.06 1095.71 C 1553.96 1094.64 1538.57 1089.89 1527.39 1088.78 C 1527.03 1088.32 1526.68 1087.85 1526.32 1087.38 C 1527.8 1079.24 1542.71 1060.58 1538.48 1054.37 C 1534.93 1053.63 1533.94 1053.17 1530.7 1051.81 z" fill="url(#Gradient23)" transform="translate(0,0)"></path>
<path d="M 1561.38 1054.05 C 1575.09 1054.76 1589.12 1056.19 1603 1056.81 C 1611.71 1057.19 1627.07 1057.62 1635.16 1059.06 C 1625.22 1062.93 1618.3 1054.94 1612.71 1062.2 C 1611.01 1064.2 1608.55 1069.92 1607.49 1071.14 C 1599.01 1080.99 1589.02 1087.87 1575.25 1087.77 C 1573.18 1087.75 1558.76 1089.88 1558.39 1084.34 C 1558.23 1081.95 1568.58 1070.52 1569.52 1066.89 C 1569.75 1066.05 1572.84 1057.73 1572.46 1056.58 C 1565.77 1055.76 1568.28 1056.39 1561.38 1054.05 z" fill="rgb(80,97,109)" transform="translate(0,0)"></path>
<path d="M 1252.22 1105.9 C 1261.11 1103 1294.1 1092.37 1301.19 1095.31 C 1328.85 1106.89 1358.93 1116.29 1387.1 1126.52 C 1400.18 1131.28 1416.95 1136.54 1429.41 1142.29 C 1438.88 1145.15 1479.45 1158.68 1486.65 1163.03 C 1495.56 1165.4 1570.79 1191.79 1571.58 1196.55 C 1570.96 1197.38 1568.97 1198.13 1567.95 1198.42 L 1564.53 1200.09 C 1556.67 1203.9 1543.12 1208.82 1536.31 1212.59 L 1533.17 1213.73 C 1522.36 1218.38 1511.13 1223.41 1500.16 1227.59 C 1477 1238.44 1449.51 1249.29 1425.7 1259.14 C 1419.11 1253.46 1407.89 1244.32 1401.98 1238.54 C 1397.09 1234.94 1386.44 1225.69 1381.8 1221.39 C 1372.59 1214.48 1355.1 1197.26 1345.28 1188.82 C 1320.98 1167.93 1296.58 1146.98 1273.21 1125.06 C 1270.28 1123.39 1255.39 1108.99 1252.22 1105.9 z" fill="rgb(192,208,224)" transform="translate(0,0)"></path>
<path d="M 1252.22 1105.9 C 1261.11 1103 1294.1 1092.37 1301.19 1095.31 C 1328.85 1106.89 1358.93 1116.29 1387.1 1126.52 C 1400.18 1131.28 1416.95 1136.54 1429.41 1142.29 C 1420.96 1142.19 1400.35 1132.85 1390.97 1129.94 C 1405.85 1138.64 1407.83 1141.22 1418.34 1154.99 C 1415.03 1154.3 1405.91 1151.04 1405.11 1154.73 C 1405.37 1154.84 1414.34 1159.2 1408.76 1158.55 C 1405.9 1158.21 1404.86 1157.24 1401.73 1157.65 L 1400.56 1157.79 C 1370.67 1151.64 1337.57 1140.65 1307.53 1133.71 C 1299.8 1131.92 1279.2 1125.01 1273.21 1125.06 C 1270.28 1123.39 1255.39 1108.99 1252.22 1105.9 z" fill="url(#Gradient22)" transform="translate(0,0)"></path>
<path d="M 1323.95 1128.92 C 1327.88 1127.41 1330.41 1125.46 1334.4 1128.56 C 1338.57 1131.8 1351.04 1134.27 1353.83 1136.2 C 1354.14 1136.9 1353.41 1137.73 1353.12 1138.28 L 1351.8 1138.06 C 1340.83 1136.35 1333.07 1130.39 1323.95 1128.92 z" fill="rgb(111,130,146)" transform="translate(0,0)"></path>
<path d="M 1486.65 1163.03 C 1495.56 1165.4 1570.79 1191.79 1571.58 1196.55 C 1570.96 1197.38 1568.97 1198.13 1567.95 1198.42 L 1564.53 1200.09 C 1556.67 1203.9 1543.12 1208.82 1536.31 1212.59 C 1535.78 1211.66 1534.84 1209.15 1533.52 1209.07 C 1530.39 1208.88 1527.03 1203.16 1524.69 1200.48 C 1522.13 1200.92 1519.59 1201.39 1517.05 1201.89 C 1510.48 1203.2 1503.88 1204.31 1497.25 1205.22 C 1490.51 1205.94 1449.27 1212.54 1446.26 1211.86 L 1446.58 1210.98 C 1449.11 1210.83 1455.71 1210.66 1457.73 1209.82 C 1466.57 1206.14 1474.57 1208.59 1484.32 1205.71 C 1482.73 1200.41 1482.01 1184.81 1483.54 1179.1 C 1482.37 1178.98 1476.61 1178.14 1476.43 1177.04 C 1477.27 1176.19 1489.48 1178.03 1491.29 1178.28 C 1506 1180.29 1507.46 1186.2 1503.12 1170.74 C 1497.48 1168.8 1490.41 1167.78 1486.65 1163.03 z" fill="url(#Gradient21)" transform="translate(0,0)"></path>
<path d="M 1486.65 1163.03 C 1495.56 1165.4 1570.79 1191.79 1571.58 1196.55 C 1570.96 1197.38 1568.97 1198.13 1567.95 1198.42 L 1564.53 1200.09 C 1556.67 1203.9 1543.12 1208.82 1536.31 1212.59 C 1535.78 1211.66 1534.84 1209.15 1533.52 1209.07 C 1530.39 1208.88 1527.03 1203.16 1524.69 1200.48 C 1528.86 1199.74 1533.89 1199.18 1537.91 1198.19 C 1540.42 1196.8 1548.21 1193.04 1551.36 1194.05 C 1555.7 1195.44 1556.83 1192.79 1560.98 1193.6 C 1561.64 1193.73 1562.31 1194.81 1562.96 1194.35 C 1563.21 1192.7 1558.33 1191.1 1557.04 1190.58 C 1554.1 1190.15 1554.79 1192.9 1551.18 1192.04 C 1548.78 1191.46 1545.01 1190.82 1542.46 1190.26 C 1536.12 1188.97 1529.87 1187.18 1523.49 1185.96 C 1518.03 1184.92 1512.43 1184.17 1506.99 1183.04 L 1501.98 1182.13 C 1496.51 1181.1 1488.97 1179.43 1483.54 1179.1 C 1482.37 1178.98 1476.61 1178.14 1476.43 1177.04 C 1477.27 1176.19 1489.48 1178.03 1491.29 1178.28 C 1506 1180.29 1507.46 1186.2 1503.12 1170.74 C 1497.48 1168.8 1490.41 1167.78 1486.65 1163.03 z" fill="url(#Gradient20)" transform="translate(0,0)"></path>
<path d="M 1537.91 1198.19 C 1546.49 1198.8 1551.33 1197.52 1559.5 1196.93 C 1563.24 1196.66 1565.62 1195.25 1567.95 1198.42 L 1564.53 1200.09 C 1556.67 1203.9 1543.12 1208.82 1536.31 1212.59 C 1535.78 1211.66 1534.84 1209.15 1533.52 1209.07 C 1530.39 1208.88 1527.03 1203.16 1524.69 1200.48 C 1528.86 1199.74 1533.89 1199.18 1537.91 1198.19 z" fill="url(#Gradient19)" transform="translate(0,0)"></path>
<path d="M 1405.11 1154.73 C 1405.91 1151.04 1415.03 1154.3 1418.34 1154.99 C 1421.74 1158.7 1417.99 1157.69 1422.29 1156.3 C 1421.71 1156.15 1427.65 1160.21 1428.35 1160.58 C 1433.04 1169.33 1402.95 1158.74 1400.56 1157.79 L 1401.73 1157.65 C 1404.86 1157.24 1405.9 1158.21 1408.76 1158.55 C 1414.34 1159.2 1405.37 1154.84 1405.11 1154.73 z" fill="rgb(143,157,172)" transform="translate(0,0)"></path>
<path d="M 1381.8 1221.39 C 1385.13 1220.64 1399.13 1216.19 1401.62 1218.28 L 1401.57 1218.5 C 1399.41 1219.59 1395.25 1218.14 1394.33 1221.83 C 1393.39 1225.6 1392.08 1229 1396.42 1231.03 C 1399.68 1232.55 1400.83 1235.52 1401.98 1238.54 C 1397.09 1234.94 1386.44 1225.69 1381.8 1221.39 z" fill="rgb(143,157,172)" transform="translate(0,0)"></path>
<path d="M 1517.05 1201.89 C 1519.59 1201.39 1522.13 1200.92 1524.69 1200.48 C 1527.03 1203.16 1530.39 1208.88 1533.52 1209.07 C 1534.84 1209.15 1535.78 1211.66 1536.31 1212.59 L 1533.17 1213.73 C 1528.66 1207.72 1523.33 1206.04 1517.05 1201.89 z" fill="rgb(143,157,172)" transform="translate(0,0)"></path>
<path d="M 1692.14 596.508 C 1698.48 590.517 1721.02 570.552 1727.72 565.401 C 1727 575.924 1727.61 574.796 1728.01 584.728 C 1729.24 609.657 1728.74 632.866 1726.65 657.834 C 1726.1 664.341 1721.56 672.429 1725.22 676.803 C 1715.8 682.407 1677.07 703.515 1667.78 707.353 C 1633.92 727.101 1595.78 743.022 1561.74 763.08 C 1557.38 765.647 1551.02 768.824 1546.39 770.664 C 1543.1 772.509 1532.43 778.786 1529.21 779.001 L 1527.96 777.697 C 1523.11 777.79 1518.26 777.856 1513.41 777.893 C 1507.7 778.36 1491.06 778.546 1485.17 778.429 C 1484.33 778.468 1475.88 779.407 1475.46 778.395 C 1476.16 777.165 1515.49 744.278 1516.96 743.709 C 1522.13 737.893 1561.78 705.428 1569.26 699.757 C 1581.65 687.849 1599.05 676.057 1612.12 664.363 C 1618.38 658.762 1640.07 638.468 1645.96 636.12 C 1655.78 629.057 1681.18 605.579 1692.14 596.508 z" fill="url(#Gradient18)" transform="translate(0,0)"></path>
<path d="M 1569.26 699.757 C 1581.65 687.849 1599.05 676.057 1612.12 664.363 C 1618.38 658.762 1640.07 638.468 1645.96 636.12 C 1642.28 641.733 1630.2 654.644 1628.86 657.293 C 1618.27 667.411 1596.78 693.227 1586.85 705.538 C 1572.32 723.403 1560.59 738.497 1548.66 758.31 C 1546.45 761.993 1540.65 769.087 1539.51 772.462 C 1542.28 770.945 1543.22 770.459 1546.39 770.664 C 1543.1 772.509 1532.43 778.786 1529.21 779.001 L 1527.96 777.697 C 1523.11 777.79 1518.26 777.856 1513.41 777.893 C 1507.7 778.36 1491.06 778.546 1485.17 778.429 C 1484.33 778.468 1475.88 779.407 1475.46 778.395 C 1476.16 777.165 1515.49 744.278 1516.96 743.709 C 1522.13 737.893 1561.78 705.428 1569.26 699.757 z" fill="url(#Gradient17)" transform="translate(0,0)"></path>
<path d="M 1516.96 743.709 L 1519.83 743.039 C 1521.02 742.751 1521.43 742.137 1522.45 741.685 C 1525.92 745.108 1522.12 774.981 1515.17 776.526 C 1514.59 776.982 1514 777.438 1513.41 777.893 C 1507.7 778.36 1491.06 778.546 1485.17 778.429 C 1484.33 778.468 1475.88 779.407 1475.46 778.395 C 1476.16 777.165 1515.49 744.278 1516.96 743.709 z" fill="rgb(192,208,224)" transform="translate(0,0)"></path>
<path d="M 1692.14 596.508 C 1698.48 590.517 1721.02 570.552 1727.72 565.401 C 1727 575.924 1727.61 574.796 1728.01 584.728 L 1726.92 585.717 C 1721.99 590.146 1723.03 591.543 1723.3 598.509 C 1723.94 614.946 1721.86 630.721 1721.4 646.947 C 1716.61 637.861 1712.47 631.16 1708.92 621.463 C 1706.28 614.259 1700.81 605.741 1697.26 598.889 C 1695.67 596.225 1695.22 597.416 1692.14 596.508 z" fill="url(#Gradient16)" transform="translate(0,0)"></path>
<path d="M 1676.63 907.061 C 1711.01 898.217 1747.46 894.14 1781.8 884.845 C 1790.67 882.443 1799.55 879.64 1808.72 878.517 C 1808.73 878.522 1810.66 879.364 1810.47 879.707 C 1805.06 889.51 1797 898.916 1790.17 908.058 C 1779.87 922.116 1769.37 936.024 1758.67 949.778 L 1742.18 972.086 C 1734.46 982.525 1727.05 991.706 1719.99 1002.73 C 1712.7 1002.17 1705.97 1002.03 1698.71 1001.66 C 1697.48 1001.7 1696.72 1001.74 1695.5 1001.68 C 1687.02 1001.21 1678.53 1001 1670.03 1001.05 C 1666.16 1001.06 1662.28 1001.04 1658.41 1000.99 C 1652.22 1001.06 1649.01 1001.21 1642.8 1000.13 L 1641.27 1000.1 L 1633.17 999.953 C 1632.53 999.833 1628.62 999.048 1628.42 998.838 C 1616.76 986.286 1607.75 961.821 1599.23 947.4 C 1595.04 940.295 1584.55 930.843 1582.28 925.281 C 1596.62 921.891 1634.79 914.276 1649.47 912.379 C 1656.49 910.608 1669.53 907.801 1676.63 907.061 z" fill="url(#Gradient15)" transform="translate(0,0)"></path>
<path d="M 1747.84 927.253 C 1753.11 934.335 1760.58 941.15 1758.67 949.778 L 1742.18 972.086 C 1734.46 982.525 1727.05 991.706 1719.99 1002.73 C 1712.7 1002.17 1705.97 1002.03 1698.71 1001.66 C 1697.48 1001.7 1696.72 1001.74 1695.5 1001.68 C 1687.02 1001.21 1678.53 1001 1670.03 1001.05 C 1668.06 995.182 1668.02 993.384 1667.51 987.038 C 1671.86 983.998 1676.11 980.6 1680.46 977.476 L 1747.84 927.253 z" fill="rgb(192,208,224)" transform="translate(0,0)"></path>
<path d="M 1667.51 987.038 C 1671.86 983.998 1676.11 980.6 1680.46 977.476 C 1680.68 977.887 1685.41 985.223 1680.66 982.887 C 1680.14 982.631 1677.26 980.295 1676.97 982.928 C 1676.81 987.256 1680.65 991.41 1681.74 995.708 C 1682.57 998.973 1683.8 1000.25 1686.97 999.632 C 1689.47 999.144 1696.74 999.841 1698.71 1001.66 C 1697.48 1001.7 1696.72 1001.74 1695.5 1001.68 C 1687.02 1001.21 1678.53 1001 1670.03 1001.05 C 1668.06 995.182 1668.02 993.384 1667.51 987.038 z" fill="rgb(143,157,172)" transform="translate(0,0)"></path>
<path d="M 1808.72 878.517 C 1808.73 878.522 1810.66 879.364 1810.47 879.707 C 1805.06 889.51 1797 898.916 1790.17 908.058 C 1779.87 922.116 1769.37 936.024 1758.67 949.778 C 1760.58 941.15 1753.11 934.335 1747.84 927.253 C 1751.78 923.56 1768.49 911.36 1773.62 907.607 C 1787.64 897.347 1795.99 889.942 1808.72 878.517 z" fill="rgb(143,157,172)" transform="translate(0,0)"></path>
<path d="M 1641.27 1000.1 C 1638.79 992.572 1635.54 987.589 1630.27 981.706 C 1629.76 981.135 1631.93 979.318 1632.57 979.104 C 1633.98 980.288 1636.89 984.53 1639.7 987.135 C 1643.35 991.477 1646.49 995.656 1650.39 999.984 C 1647.73 999.936 1645.47 1000.02 1642.8 1000.13 L 1641.27 1000.1 z" fill="rgb(192,208,224)" transform="translate(0,0)"></path>
<path d="M 1658.41 1000.99 C 1656.47 995.027 1662.82 989.666 1667.51 987.038 C 1668.02 993.384 1668.06 995.182 1670.03 1001.05 C 1666.16 1001.06 1662.28 1001.04 1658.41 1000.99 z" fill="rgb(111,130,146)" transform="translate(0,0)"></path>
<path d="M 1754.11 900.965 C 1755.3 904.714 1752.39 904.812 1752.4 908.298 L 1752.23 907.798 C 1752.32 907.984 1752.41 908.169 1752.51 908.354 C 1753.58 907.913 1755.21 902.997 1758.23 902.919 C 1760.45 904.595 1746.77 925.307 1743.28 926.449 C 1742.56 926.686 1740.93 925.629 1740.68 925.499 L 1741.68 924 C 1744.28 920.14 1746.7 916.219 1749.27 912.35 C 1748.15 913.42 1740.5 922.069 1738.78 920.293 C 1738.84 920.969 1752.51 902.098 1752.89 901.842 L 1754.11 900.965 z" fill="rgb(63,81,95)" transform="translate(0,0)"></path>
<path d="M 1841.62 241.057 C 1843.55 238.399 1848.14 234.235 1850.7 231.872 C 1848.68 240.477 1846.8 249.84 1843.79 258.119 C 1836.12 288.293 1827.16 317.679 1818.79 348.433 C 1812.48 371.594 1803.74 407.956 1794.5 430.811 C 1792.72 435.216 1770.3 454.405 1765.16 458.684 C 1761.92 461.659 1756.27 467.129 1753.01 469.686 C 1741.69 460.694 1694.88 416.736 1686.41 414.677 C 1682.62 411.024 1681.31 409.68 1676.41 408.188 C 1682.85 401.986 1689.16 395.65 1695.33 389.185 C 1697.36 386.466 1702.26 382.052 1704.9 379.511 L 1732.63 351.935 C 1744.89 338.545 1757.64 325.616 1770.86 313.178 C 1775.84 305.172 1811.16 272.237 1819.92 262.898 L 1827.78 255.115 C 1830.91 251.34 1837.9 244.764 1841.62 241.057 z" fill="rgb(192,208,224)" transform="translate(0,0)"></path>
<path d="M 1770.86 313.178 C 1769.31 317.64 1769.47 317.438 1766.1 320.72 C 1772.33 333.293 1782.64 344.1 1787.47 357.256 C 1788.06 358.875 1783.05 377.064 1782.2 379.264 C 1776.67 392.25 1764.71 439.448 1759.16 448.155 C 1757.34 442.304 1755.29 436.711 1753.42 430.532 C 1750.34 434.458 1753.3 436.105 1750.66 440.348 C 1748.52 439.668 1705.97 395.406 1695.33 389.185 C 1697.36 386.466 1702.26 382.052 1704.9 379.511 L 1732.63 351.935 C 1744.89 338.545 1757.64 325.616 1770.86 313.178 z" fill="url(#Gradient14)" transform="translate(0,0)"></path>
<path d="M 1704.9 379.511 L 1732.63 351.935 C 1738.35 356.761 1745.57 371.872 1752.82 378.086 C 1757.88 382.418 1766.44 394.189 1766.42 400.763 C 1766.62 402.938 1765.17 412.764 1764.39 413.828 C 1764.17 413.7 1763.95 413.572 1763.72 413.444 C 1763.55 413.41 1763.37 413.375 1763.19 413.34 C 1762.35 414.359 1763.41 418.16 1763.52 419.313 C 1763.91 423.41 1761.48 428.335 1760.26 432.252 L 1759.73 433.936 C 1751.97 424.046 1714.46 384.271 1704.9 379.511 z" fill="url(#Gradient13)" transform="translate(0,0)"></path>
<path d="M 1841.62 241.057 C 1843.55 238.399 1848.14 234.235 1850.7 231.872 C 1848.68 240.477 1846.8 249.84 1843.79 258.119 C 1836.12 288.293 1827.16 317.679 1818.79 348.433 C 1812.48 371.594 1803.74 407.956 1794.5 430.811 C 1792.72 435.216 1770.3 454.405 1765.16 458.684 C 1767.51 446.902 1772.94 440.415 1771.11 426.973 C 1776.02 407.688 1784.47 390.747 1788.69 370.057 C 1795.75 359.614 1822.88 272.248 1827.78 255.115 C 1830.91 251.34 1837.9 244.764 1841.62 241.057 z" fill="url(#Gradient12)" transform="translate(0,0)"></path>
<path d="M 1841.62 241.057 C 1843.55 238.399 1848.14 234.235 1850.7 231.872 C 1848.68 240.477 1846.8 249.84 1843.79 258.119 C 1839.89 250.744 1844.85 248.604 1841.62 241.057 z" fill="rgb(143,157,172)" transform="translate(0,0)"></path>
<path d="M 1316.44 763.025 C 1325.11 765.258 1345.41 778.062 1351.22 784.625 C 1359.02 789.806 1366.69 796.011 1374.11 801.782 C 1374.21 804.167 1374.22 806.479 1374.31 808.863 C 1373.11 823.543 1369.05 842.166 1366.95 857.508 L 1365.36 868.869 C 1363.5 882.546 1361.01 897.309 1359.81 910.972 C 1357.85 927.116 1356.48 944.004 1354.21 960.013 C 1354.14 960.992 1354.17 967.53 1353.39 967.84 C 1322.49 980.009 1289.9 995.672 1258.85 1006.74 L 1254.1 1008.7 C 1256.11 1002.24 1260.48 996.644 1263.32 989.801 C 1263.8 981.162 1282.03 942.546 1280.06 936.314 C 1282.16 934.988 1282.3 934.694 1283.31 932.385 C 1282.89 924.788 1284.4 918.919 1285.83 911.487 L 1286.84 906.482 C 1286.99 905.659 1287.15 904.836 1287.31 904.014 L 1288.75 897.483 C 1289.61 893.658 1290.75 889.073 1291.37 885.28 C 1293.51 876.904 1295.83 867.452 1297.25 858.915 C 1298.36 853.265 1299.82 844.406 1301.69 839.253 C 1302.97 827.144 1310.13 792.415 1313.36 779.863 C 1313.5 776.902 1315.75 766.471 1316.44 763.025 z" fill="rgb(192,208,224)" transform="translate(0,0)"></path>
<path d="M 1306.29 950.616 C 1307.69 949.932 1309.54 947.423 1310.06 946.052 C 1312.73 942.302 1313.2 943.613 1316 940.422 C 1318.6 937.475 1325.28 926.832 1328.97 927.909 C 1331.51 930.695 1356.96 913.341 1359.81 910.972 C 1357.85 927.116 1356.48 944.004 1354.21 960.013 C 1354.14 960.992 1354.17 967.53 1353.39 967.84 C 1322.49 980.009 1289.9 995.672 1258.85 1006.74 C 1262.5 998.623 1281.23 964.266 1286.22 957.773 C 1287.21 956.894 1288.13 956.097 1289.15 955.243 C 1294.27 954.385 1300.86 951.85 1306.29 950.616 z" fill="url(#Gradient11)" transform="translate(0,0)"></path>
<path d="M 1306.29 950.616 C 1307.69 949.932 1309.54 947.423 1310.06 946.052 C 1312.73 942.302 1313.2 943.613 1316 940.422 C 1318.6 937.475 1325.28 926.832 1328.97 927.909 C 1331.51 930.695 1356.96 913.341 1359.81 910.972 C 1357.85 927.116 1356.48 944.004 1354.21 960.013 C 1351.76 963.141 1341.2 956.215 1335.78 955.37 C 1330.55 953.086 1323.89 955.257 1319.49 955.376 C 1314.99 955.498 1281.97 977.309 1281.58 977.15 L 1281.53 976.929 C 1283.83 969.887 1299.49 963.205 1305.79 951.548 L 1306.29 950.616 z" fill="rgb(63,81,95)" transform="translate(0,0)"></path>
<path d="M 1365.36 868.869 C 1363.5 882.546 1361.01 897.309 1359.81 910.972 C 1356.96 913.341 1331.51 930.695 1328.97 927.909 C 1325.28 926.832 1318.6 937.475 1316 940.422 C 1313.2 943.613 1312.73 942.302 1310.06 946.052 C 1309.54 947.423 1307.69 949.932 1306.29 950.616 C 1300.86 951.85 1294.27 954.385 1289.15 955.243 C 1296.8 939.933 1308.68 927.909 1316.99 913.529 C 1328.05 894.407 1340.65 872.228 1365.36 868.869 z" fill="url(#Gradient10)" transform="translate(0,0)"></path>
<path d="M 1297.25 858.915 C 1301.6 861.767 1307.37 859.497 1312.47 858.316 L 1316.47 857.313 C 1319.8 856.391 1331.72 854.028 1333.92 857.443 L 1334.04 857.473 L 1334.14 857.318 C 1335.34 858.966 1326.25 872.079 1324.74 873.924 C 1317.99 879.414 1313.11 887.834 1307.52 894.732 C 1307.79 894.864 1304.91 888.845 1302.72 889.573 C 1302.69 889.585 1297.84 887.499 1298.05 888.264 C 1295.33 888.004 1293.58 886.765 1291.37 885.28 C 1293.51 876.904 1295.83 867.452 1297.25 858.915 z" fill="url(#Gradient9)" transform="translate(0,0)"></path>
<path d="M 1291.37 885.28 C 1293.58 886.765 1295.33 888.004 1298.05 888.264 C 1297.84 887.499 1302.69 889.585 1302.72 889.573 C 1304.91 888.845 1307.79 894.864 1307.52 894.732 C 1313.11 887.834 1317.99 879.414 1324.74 873.924 C 1322.42 878.77 1319.47 883.259 1316.75 887.893 C 1307.41 903.801 1298.24 920.187 1290.14 936.766 C 1288.1 935.019 1288.07 934.721 1285.5 934.39 C 1284.08 934.649 1283.94 933.653 1283.31 932.385 C 1282.89 924.788 1284.4 918.919 1285.83 911.487 L 1286.84 906.482 C 1286.99 905.659 1287.15 904.836 1287.31 904.014 L 1288.75 897.483 C 1289.61 893.658 1290.75 889.073 1291.37 885.28 z" fill="url(#Gradient8)" transform="translate(0,0)"></path>
<path d="M 1283.31 932.385 C 1283.94 933.653 1284.08 934.649 1285.5 934.39 C 1288.07 934.721 1288.1 935.019 1290.14 936.766 C 1288.41 941.615 1284.95 949.563 1282.74 954.196 C 1275.57 966.205 1269.84 977.423 1263.32 989.801 C 1263.8 981.162 1282.03 942.546 1280.06 936.314 C 1282.16 934.988 1282.3 934.694 1283.31 932.385 z" fill="rgb(63,81,95)" transform="translate(0,0)"></path>
<path d="M 1796.51 507.496 C 1802.49 501.645 1813.71 493.785 1820.68 487.895 C 1831.46 478.802 1842.26 469.306 1853.35 460.663 C 1851.42 471.047 1849.03 479.55 1846.08 489.589 C 1835.09 535.318 1824.19 582.455 1811.52 627.69 C 1799.77 634.894 1788.26 641.297 1776.21 647.991 C 1772.9 650.581 1750.67 663.01 1746.78 664.824 C 1739.68 668.959 1732.49 672.953 1725.22 676.803 C 1721.56 672.429 1726.1 664.341 1726.65 657.834 C 1728.74 632.866 1729.24 609.657 1728.01 584.728 C 1727.61 574.796 1727 575.924 1727.72 565.401 C 1730.22 563.869 1745.89 550.321 1749.26 547.483 C 1765.08 534.238 1780.83 520.909 1796.51 507.496 z" fill="rgb(63,81,95)" transform="translate(0,0)"></path>
<path d="M 1796.51 507.496 C 1796.82 529.141 1756.65 640.746 1746.78 664.824 C 1739.68 668.959 1732.49 672.953 1725.22 676.803 C 1721.56 672.429 1726.1 664.341 1726.65 657.834 C 1728.74 632.866 1729.24 609.657 1728.01 584.728 C 1727.61 574.796 1727 575.924 1727.72 565.401 C 1730.22 563.869 1745.89 550.321 1749.26 547.483 C 1765.08 534.238 1780.83 520.909 1796.51 507.496 z" fill="url(#Gradient7)" transform="translate(0,0)"></path>
<path d="M 1776.21 647.991 L 1774.48 644.967 C 1774.83 642.072 1783.82 624.563 1785.68 619.456 C 1800.05 580.052 1815.15 541.371 1833.27 503.512 C 1836.39 497.007 1842.47 484.252 1846.15 478.955 L 1846.83 479.638 L 1846.08 489.589 C 1835.09 535.318 1824.19 582.455 1811.52 627.69 C 1799.77 634.894 1788.26 641.297 1776.21 647.991 z" fill="url(#Gradient6)" transform="translate(0,0)"></path>
<path d="M 1218.18 1117.56 C 1225.91 1124.07 1251.97 1146.24 1257.9 1152.76 C 1260.24 1154.11 1278.94 1170.22 1281.01 1172.39 C 1285.72 1176.29 1290.32 1180.31 1294.8 1184.46 C 1298.99 1188.25 1305.81 1194.07 1309.5 1197.98 C 1312.85 1201.07 1321.44 1208.67 1324.01 1211.77 C 1334.75 1219.4 1367.43 1250.86 1378.77 1261.35 C 1358.46 1258.13 1318.57 1253.1 1299.74 1248.59 C 1293.3 1248.26 1270.46 1244.06 1262.88 1242.92 L 1183.96 1231.47 C 1179.9 1230.83 1176.13 1230.08 1172.04 1229.52 L 1165.98 1228.76 L 1165.49 1227.67 C 1167.17 1222.42 1173.34 1208.64 1176.4 1204.07 L 1184.34 1187.42 C 1191.87 1170.97 1199.99 1154.99 1207.42 1138.79 C 1210.99 1131.42 1214.49 1124.8 1218.18 1117.56 z" fill="url(#Gradient5)" transform="translate(0,0)"></path>
<path d="M 1218.18 1117.56 C 1225.91 1124.07 1251.97 1146.24 1257.9 1152.76 C 1260.24 1154.11 1278.94 1170.22 1281.01 1172.39 C 1282.16 1175.34 1281.84 1175.09 1283.49 1177.17 L 1283.47 1177.34 C 1283.2 1177.51 1273.32 1177.76 1272.48 1179.28 C 1272.49 1179.27 1268.87 1180.24 1268.99 1180.22 C 1247.91 1184.05 1226.16 1183.71 1205.03 1187.09 C 1202.96 1187.42 1199.55 1187.32 1197.38 1187.53 C 1194.31 1187.12 1187.96 1189.98 1185.63 1189.39 C 1185.24 1188.67 1184.85 1188.07 1184.34 1187.42 C 1191.87 1170.97 1199.99 1154.99 1207.42 1138.79 C 1210.99 1131.42 1214.49 1124.8 1218.18 1117.56 z" fill="url(#Gradient4)" transform="translate(0,0)"></path>
<path d="M 1281.01 1172.39 C 1285.72 1176.29 1290.32 1180.31 1294.8 1184.46 C 1298.99 1188.25 1305.81 1194.07 1309.5 1197.98 C 1286.08 1198.56 1260.65 1204.98 1237.65 1209.21 C 1219.62 1212.52 1200.82 1214.82 1182.9 1219.12 C 1174.79 1221.07 1171.16 1225.67 1165.49 1227.67 C 1167.17 1222.42 1173.34 1208.64 1176.4 1204.07 L 1184.34 1187.42 C 1184.85 1188.07 1185.24 1188.67 1185.63 1189.39 C 1187.96 1189.98 1194.31 1187.12 1197.38 1187.53 C 1199.55 1187.32 1202.96 1187.42 1205.03 1187.09 C 1226.16 1183.71 1247.91 1184.05 1268.99 1180.22 C 1268.87 1180.24 1272.49 1179.27 1272.48 1179.28 C 1273.32 1177.76 1283.2 1177.51 1283.47 1177.34 L 1283.49 1177.17 C 1281.84 1175.09 1282.16 1175.34 1281.01 1172.39 z" fill="rgb(63,81,95)" transform="translate(0,0)"></path>
<path d="M 1281.01 1172.39 C 1285.72 1176.29 1290.32 1180.31 1294.8 1184.46 C 1284.12 1190.84 1189.28 1206.2 1176.4 1204.07 L 1184.34 1187.42 C 1184.85 1188.07 1185.24 1188.67 1185.63 1189.39 C 1187.96 1189.98 1194.31 1187.12 1197.38 1187.53 C 1199.55 1187.32 1202.96 1187.42 1205.03 1187.09 C 1226.16 1183.71 1247.91 1184.05 1268.99 1180.22 C 1268.87 1180.24 1272.49 1179.27 1272.48 1179.28 C 1273.32 1177.76 1283.2 1177.51 1283.47 1177.34 L 1283.49 1177.17 C 1281.84 1175.09 1282.16 1175.34 1281.01 1172.39 z" fill="rgb(192,208,224)" transform="translate(0,0)"></path>
<path d="M 1172.04 1229.52 C 1172.17 1228.89 1172.23 1228.1 1172.65 1227.6 C 1173.7 1227.27 1175.38 1227.88 1176.32 1228.28 C 1181.16 1230.32 1182.81 1226.91 1187.5 1227 C 1188.52 1227.01 1194.38 1225.55 1195.61 1225.27 C 1196.54 1225.07 1201.82 1224.44 1200.08 1226.2 C 1196.63 1228.7 1190.94 1228.14 1187.34 1230.58 C 1186.4 1231.18 1185.04 1231.28 1183.96 1231.47 C 1179.9 1230.83 1176.13 1230.08 1172.04 1229.52 z" fill="rgb(143,157,172)" transform="translate(0,0)"></path>
<path d="M 1146.51 1120.34 C 1151.54 1127.56 1149.29 1140.77 1155.1 1135.65 C 1154.13 1142.73 1149.88 1166.76 1152.45 1171.95 C 1149.53 1181.38 1148.43 1190.51 1147.42 1200.31 C 1146.83 1205.08 1146.92 1206.44 1145.86 1211.19 C 1145.36 1216.06 1113.44 1275.54 1109.62 1279.14 C 1104.32 1291.41 1091.17 1313.03 1084.06 1325.76 C 1066.52 1356.46 1049.56 1387.49 1033.18 1418.83 C 1032.9 1419.35 1031.25 1423.39 1030.38 1423.16 C 1029.25 1421.74 1030.7 1413.56 1030.95 1411.28 L 1032.14 1395.64 C 1028.35 1393.02 1032.94 1389.5 1031.89 1385.98 C 1030.46 1381.18 1032.66 1380.35 1032.89 1378.63 L 1032.76 1378.48 C 1028.92 1380.01 1027.83 1377.01 1025.13 1378.71 C 1024.38 1381.46 1025.77 1393.11 1024.55 1394.18 C 1024.22 1391.19 1023.8 1370.01 1023.96 1366.59 C 1025.6 1360.21 1023.69 1358.59 1033.29 1357.46 C 1033.29 1357.46 1034.53 1363.4 1034.93 1364.52 C 1036.63 1354.36 1037.43 1336.08 1038.21 1325.1 C 1038.91 1319 1038.57 1303.38 1041.63 1299.32 C 1042.62 1297.34 1042.75 1296.78 1043.45 1294.67 C 1047.08 1288.38 1050.51 1282.49 1054.43 1276.38 C 1060.15 1265.2 1070.62 1248.7 1077.33 1237.4 L 1119.05 1166.77 C 1126.12 1156.76 1139.75 1131.88 1146.51 1120.34 z" fill="url(#Gradient3)" transform="translate(0,0)"></path>
<path d="M 1023.96 1366.59 C 1025.6 1360.21 1023.69 1358.59 1033.29 1357.46 C 1033.29 1357.46 1034.53 1363.4 1034.93 1364.52 C 1035.13 1367.87 1033.43 1393.6 1032.14 1395.64 C 1028.35 1393.02 1032.94 1389.5 1031.89 1385.98 C 1030.46 1381.18 1032.66 1380.35 1032.89 1378.63 L 1032.76 1378.48 C 1028.92 1380.01 1027.83 1377.01 1025.13 1378.71 C 1024.38 1381.46 1025.77 1393.11 1024.55 1394.18 C 1024.22 1391.19 1023.8 1370.01 1023.96 1366.59 z" fill="rgb(63,81,95)" transform="translate(0,0)"></path>
<path d="M 1145.86 1211.19 C 1143.8 1207.39 1142.16 1200.04 1141.81 1195.73 C 1141.93 1197.18 1143.72 1190.74 1143.39 1191.88 C 1145.07 1195.29 1145.42 1196.9 1147.42 1200.31 C 1146.83 1205.08 1146.92 1206.44 1145.86 1211.19 z" fill="rgb(111,130,146)" transform="translate(0,0)"></path>
<path d="M 1030.95 1411.28 L 1031.26 1413.13 C 1031.6 1415.54 1032.07 1416.67 1033.18 1418.83 C 1032.9 1419.35 1031.25 1423.39 1030.38 1423.16 C 1029.25 1421.74 1030.7 1413.56 1030.95 1411.28 z" fill="rgb(143,157,172)" transform="translate(0,0)"></path>
<path d="M 1513.41 777.893 C 1518.26 777.856 1523.11 777.79 1527.96 777.697 L 1529.21 779.001 C 1518.25 782.76 1503.62 791.838 1493.24 797.61 C 1468.62 811.303 1443.04 828.941 1418.57 842.36 C 1408.11 895.817 1400.33 948.172 1392.71 1001.98 C 1342.82 1021.47 1293.14 1041.5 1243.69 1062.08 C 1225.07 1069.71 1206.77 1077.85 1187.97 1085.05 C 1177.87 1112.52 1163.61 1143.99 1152.45 1171.95 C 1149.88 1166.76 1154.13 1142.73 1155.1 1135.65 C 1149.29 1140.77 1151.54 1127.56 1146.51 1120.34 C 1149.74 1114.37 1153.52 1108.7 1157.18 1102.98 C 1156.8 1103.06 1159.27 1099.62 1159.77 1100.4 C 1160.84 1102.02 1160.4 1104.38 1161.37 1106.71 C 1166.86 1097.66 1172.79 1086.41 1178.02 1077.02 C 1190.53 1070.58 1210.86 1062.6 1224.29 1056.95 L 1329.62 1012.9 C 1346.41 1005.73 1366.65 997.697 1382.59 989.367 C 1383.6 984.219 1384.58 977.912 1385.08 972.661 C 1389.44 926.708 1402.94 878.364 1406.14 832.662 C 1422.6 820.872 1443.89 809.188 1460.7 797.406 C 1468.44 791.979 1479.61 785.877 1486.51 779.602 L 1485.17 778.429 C 1491.06 778.546 1507.7 778.36 1513.41 777.893 z" fill="rgb(20,184,166)" transform="translate(0,0)"></path>
<path d="M 1146.51 1120.34 C 1149.74 1114.37 1153.52 1108.7 1157.18 1102.98 C 1156.8 1103.06 1159.27 1099.62 1159.77 1100.4 C 1160.84 1102.02 1160.4 1104.38 1161.37 1106.71 C 1156.67 1116.04 1156.1 1125.36 1155.1 1135.65 C 1149.29 1140.77 1151.54 1127.56 1146.51 1120.34 z" fill="rgb(63,81,95)" transform="translate(0,0)"></path>
<path d="M 1280.06 936.314 C 1282.03 942.546 1263.8 981.162 1263.32 989.801 C 1260.48 996.644 1256.11 1002.24 1254.1 1008.7 C 1240.29 1015.35 1223.74 1021.81 1209.41 1027.82 L 1133.4 1059.53 C 1136.64 1053.6 1139.82 1047.62 1142.93 1041.62 L 1146.58 1034.87 C 1156.83 1025.21 1151.85 1015.75 1148.77 1004.9 C 1148.42 1003.66 1150.9 1001.91 1151.86 1001 L 1152.84 1001.12 C 1155.76 999.963 1158.58 999.271 1161.59 998.388 C 1162.25 997.94 1162.2 997.886 1162.95 997.95 C 1170.2 994.097 1177.4 990.144 1184.54 986.09 C 1178.47 979.138 1177.03 973.655 1178.4 964.585 C 1182.45 937.586 1219.28 937.426 1223.53 965.841 C 1240.71 957.974 1261.89 945.218 1280.06 936.314 z" fill="url(#Gradient2)" transform="translate(0,0)"></path>
<path d="M 1184.54 986.09 C 1178.47 979.138 1177.03 973.655 1178.4 964.585 C 1182.45 937.586 1219.28 937.426 1223.53 965.841 C 1211.49 973.787 1197.65 980.135 1184.54 986.09 z" fill="rgb(237,29,29)" transform="translate(0,0)"></path>
<path d="M 1152.84 1001.12 C 1155.76 999.963 1158.58 999.271 1161.59 998.388 C 1162.71 1004.63 1160.16 1005.94 1156.73 1012.29 L 1155.37 1009.41 C 1153.47 1005.38 1152.85 1005.48 1152.84 1001.12 z" fill="rgb(192,208,224)" transform="translate(0,0)"></path>
<path d="M 1525.58 943.403 C 1547 931.429 1558.66 929.543 1582.28 925.281 C 1584.55 930.843 1595.04 940.295 1599.23 947.4 C 1607.75 961.821 1616.76 986.286 1628.42 998.838 C 1628.62 999.048 1632.53 999.833 1633.17 999.953 C 1625.11 1000.37 1610.2 999.401 1601.61 999.09 L 1539.91 996.619 C 1526.09 995.167 1512.04 995.573 1497.56 993.792 C 1493.04 994.31 1478.19 993.17 1472.38 992.994 C 1475.6 984.351 1479.87 970.663 1483.83 961.891 C 1484.23 961.015 1486.54 960.502 1487.61 960.393 C 1493.6 957.048 1519.56 944.984 1525.58 943.403 z" fill="url(#Gradient1)" transform="translate(0,0)"></path>
<path d="M 1487.61 960.393 C 1491.99 960.786 1494.87 958.573 1496.15 958.73 C 1497.15 960.06 1506.8 989.087 1507.88 992.513 C 1503.65 992.498 1501.6 992.98 1497.56 993.792 C 1493.04 994.31 1478.19 993.17 1472.38 992.994 C 1475.6 984.351 1479.87 970.663 1483.83 961.891 C 1484.23 961.015 1486.54 960.502 1487.61 960.393 z" fill="rgb(192,208,224)" transform="translate(0,0)"></path>
<path d="M 1597.28 975.446 C 1597.36 975.431 1597.43 975.419 1597.51 975.402 C 1597.79 975.337 1598.49 975.072 1598.79 975.363 C 1598.97 975.544 1598.97 975.657 1598.96 975.946 C 1598.93 976.331 1598.87 976.715 1598.86 977.101 C 1599.11 977.559 1598.98 977.403 1599.24 977.623 L 1599.36 977.582 C 1599.68 976.498 1599.45 974.518 1600.56 973.857 C 1602.27 974.46 1603.73 976.933 1604.28 978.592 L 1604.85 980.178 C 1601.12 988.069 1598.29 978.868 1597.28 975.446 z" fill="rgb(63,81,95)" transform="translate(0,0)"></path>
<path d="M 1524.49 803.301 C 1609.78 761.707 1692.78 712.552 1778.24 670.887 C 1786.16 667.027 1794.96 660.243 1802.98 657.501 L 1803.93 658.381 C 1803.96 662.687 1804.25 663.551 1802.44 667.273 C 1798.02 671.251 1763.51 688.076 1755.92 692.085 C 1704.96 719.28 1653.53 745.577 1601.64 770.963 C 1585.93 778.584 1570.08 785.903 1554.09 792.914 C 1547.13 795.978 1532.42 801.889 1526.25 805.251 L 1524.49 803.301 z" fill="rgb(20,184,166)" transform="translate(0,0)"></path>
<path d="M 1789.54 466.323 L 1786.36 479.025 C 1755.79 508.817 1711.47 544.131 1678.51 572.382 C 1623.55 619.792 1569.63 668.411 1516.81 718.203 C 1513.88 719.777 1512.34 721.808 1509.43 722.481 C 1529.78 700.153 1555.71 676.908 1577.85 655.678 C 1646.41 590.351 1717.01 527.201 1789.54 466.323 z" fill="rgb(20,184,166)" transform="translate(0,0)"></path>
<path d="M 1478.39 827.725 C 1479.83 830.25 1479.65 909.876 1478.03 917.681 C 1471.92 946.921 1460.36 981.529 1454.39 1011.6 C 1448.36 1016.14 1442.22 1020.52 1435.97 1024.75 L 1435.54 1024.33 C 1435.41 1020.15 1439.97 1008.75 1441.28 1003.96 C 1448.56 977.336 1457.29 951.35 1466.06 925.212 C 1470.33 912.455 1468.82 893.242 1470.94 879.994 C 1472.77 868.487 1471.81 835.646 1478.39 827.725 z" fill="rgb(20,184,166)" transform="translate(0,0)"></path>
<path d="M 1572.68 895.262 C 1638.04 877.704 1709.8 860.13 1774.1 841.089 C 1775.35 843.573 1774.4 845.011 1773.79 848.461 C 1773.33 848.973 1772.87 849.485 1772.41 849.997 C 1706.54 865.472 1640.15 885.562 1574.07 899.42 C 1560.5 903.511 1516.16 911.868 1507.15 915.958 C 1505.7 915.629 1504.26 915.31 1502.81 915.001 L 1572.68 895.262 z" fill="rgb(20,184,166)" transform="translate(0,0)"></path>
<path d="M 1352.75 1092.24 C 1391.09 1102.37 1429.52 1112.18 1468.03 1121.66 C 1488.33 1126.73 1518.7 1135.22 1538.51 1138.65 C 1540.31 1143.78 1542.03 1148.76 1544.12 1153.78 C 1484.4 1132.34 1412.04 1114.22 1350.63 1094.74 L 1352.75 1092.24 z" fill="rgb(20,184,166)" transform="translate(0,0)"></path>
<path d="M 1497.53 1015.83 C 1508.67 1016.2 1538.43 1016.44 1548.05 1017.88 C 1572.75 1017.54 1603.36 1019.59 1628.49 1020.59 C 1653.92 1021.6 1684.24 1022.06 1709.47 1024.1 L 1705.12 1033.2 C 1690.91 1032.45 1676.67 1031.19 1662.48 1030.03 C 1615.11 1026.14 1566.73 1025.13 1519.55 1019.8 C 1515.5 1020.13 1492.99 1018.15 1488.31 1017.78 C 1488.67 1015.04 1494.84 1015.99 1497.53 1015.83 z" fill="rgb(20,184,166)" transform="translate(0,0)"></path>
<path d="M 1509.43 722.481 C 1512.34 721.808 1513.88 719.777 1516.81 718.203 C 1512 724.128 1468.73 764.991 1464.92 765.582 L 1464.68 765.455 C 1464.76 764.425 1506.38 724.418 1509.43 722.481 z" fill="rgb(12,90,104)" transform="translate(0,0)"></path>
<path d="M 1350.63 1094.74 C 1349.91 1094.57 1349.2 1094.4 1348.48 1094.23 L 1339.62 1091.62 C 1336.79 1090.77 1300.59 1079.86 1300.5 1079.54 C 1303.29 1079.42 1304.57 1080.09 1307.32 1080.68 L 1311.31 1081.69 C 1319.96 1083.9 1328.8 1086.08 1337.47 1088.19 L 1341.46 1089.2 C 1345.15 1090.22 1349.05 1091.34 1352.75 1092.24 L 1350.63 1094.74 z" fill="rgb(14,105,128)" transform="translate(0,0)"></path>
<path d="M 1488.31 1017.78 C 1485.4 1017.93 1465.58 1016.95 1464.57 1015.68 L 1464.6 1015.64 C 1468.72 1014.33 1492.66 1015.02 1497.53 1015.83 C 1494.84 1015.99 1488.67 1015.04 1488.31 1017.78 z" fill="rgb(12,90,104)" transform="translate(0,0)"></path>
<path d="M 1526.25 805.251 C 1522.54 807.074 1509.59 813.431 1505.21 813.763 C 1505.1 813.772 1504.9 813.658 1504.83 813.505 C 1505.93 812.128 1522.12 804.127 1524.49 803.301 L 1526.25 805.251 z" fill="rgb(14,105,128)" transform="translate(0,0)"></path>
<path d="M 1507.15 915.958 C 1504.96 916.689 1502.73 917.321 1500.48 917.854 L 1494.01 919.362 C 1493.14 919.574 1491.52 920.007 1490.68 919.486 C 1490.67 919.363 1490.66 919.239 1490.66 919.115 C 1491.02 918.801 1491.44 918.534 1492.14 918.201 L 1491.87 918.289 C 1495.09 916.876 1498.55 916.165 1501.93 915.246 L 1502.81 915.001 C 1504.26 915.31 1505.7 915.629 1507.15 915.958 z" fill="rgb(12,90,104)" transform="translate(0,0)"></path>
<path d="M 526.679 1578.28 C 520.82 1577.37 526.611 1574.98 529.317 1573.48 L 531.125 1575.22 C 529.591 1576.34 528.257 1577.23 526.679 1578.28 z" fill="rgb(1,117,91)" transform="translate(0,0)"></path>
<metadata><recraft-signature>{"signed_by": "recraft", "signature_b64": "kQ2vjmGxv8fUjy4iCim98KcYcx/6vaRuFYURywtp+16YFDAGKsmWBSQVtZqoIFoHDksn3JMHMSt3XiUdj+98Dg==", "signing_algo": "Ed25519", "generation_timestamp": 1774685582, "identifier": "8bd8f3c7-d20f-453c-a6c2-8371902d969e"}</recraft-signature></metadata></svg>