<?xml version="1.0" standalone="no"?>
<!DOCTYPE svg PUBLIC "-//W3C//DTD SVG 20010904//EN"
 "http://www.w3.org/TR/2001/REC-SVG-20010904/DTD/svg10.dtd">
<svg version="1.0" xmlns="http://www.w3.org/2000/svg"
 width="510.000000pt" height="505.000000pt" viewBox="0 0 510.000000 505.000000"
 preserveAspectRatio="xMidYMid meet">
<metadata>
Created by potrace 1.16, written by Peter Selinger 2001-2019
</metadata>
<g transform="translate(0.000000,505.000000) scale(0.100000,-0.100000)"
fill="#000000" stroke="none">
<path d="M1120 4985 c0 -8 7 -15 16 -15 14 0 14 3 4 15 -7 8 -14 15 -16 15 -2
0 -4 -7 -4 -15z M1275 4830 c10 -11 20 -20 23 -20 3 0 -3 9 -13 20 -10 11 -20
20 -23 20 -3 0 3 -9 13 -20z M1670 4646 c0 -3 28 -26 63 -52 63 -48 130 -113
134 -131 1 -6 -9 -9 -22 -8 -17 2 -22 -1 -18 -12 3 -8 0 -19 -8 -25 -11 -7
-11 -11 -1 -15 18 -7 16 -54 -3 -47 -26 11 -16 -22 19 -60 l33 -37 27 32 c16
19 25 40 23 51 -3 10 -1 16 4 12 7 -4 14 31 11 58 -3 15 101 -33 172 -81 43
-29 79 -51 82 -49 2 3 -87 68 -199 145 -111 78 -228 160 -259 183 -32 23 -58
39 -58 36z M1287 4354 c3 -9 9 -12 12 -7 3 4 10 11 15 16 5 4 0 7 -12 7 -15 0
-20 -4 -15 -16z M2214 4261 c7 -11 46 -35 46 -28 0 3 -12 12 -26 22 -15 9 -23
12 -20 6z M2455 4080 c-3 -5 1 -10 9 -10 9 0 16 5 16 10 0 6 -4 10 -9 10 -6 0
-13 -4 -16 -10z M4176 4006 c-3 -14 -2 -36 4 -50 7 -19 6 -29 -5 -40 -8 -8
-15 -18 -15 -21 0 -10 43 -44 55 -44 6 -1 -1 8 -15 19 -14 11 -20 20 -14 20 5
0 15 -5 22 -12 9 -9 15 -9 23 -1 8 8 8 13 0 17 -6 4 -11 26 -11 49 0 79 -29
121 -44 63z M2580 3971 c0 -5 7 -11 14 -14 10 -4 13 -1 9 9 -6 15 -23 19 -23
5z M2573 3845 c0 -38 2 -53 4 -32 2 20 2 52 0 70 -2 17 -4 1 -4 -38z M3785
3874 c17 -9 41 -31 55 -50 42 -59 78 -95 84 -85 4 5 3 11 -1 13 -10 4 -43 66
-43 79 0 5 15 9 33 10 24 1 16 5 -38 19 -113 31 -126 32 -90 14z M2680 3829
c0 -15 44 -89 70 -119 24 -27 21 -18 -16 40 -49 79 -54 86 -54 79z M4589 3773
c-24 -28 -24 -28 6 -3 17 14 32 26 34 28 2 1 0 2 -6 2 -5 0 -20 -12 -34 -27z
M4708 3702 c-3 -57 -3 -57 -43 -62 -38 -5 -36 -6 24 -13 35 -4 76 -7 90 -6 25
0 26 0 4 9 -16 7 -23 18 -23 37 0 47 13 57 50 44 18 -6 36 -11 39 -11 13 1
-32 22 -84 40 l-54 19 -3 -57z M2562 3710 c0 -14 2 -19 5 -12 2 6 2 18 0 25
-3 6 -5 1 -5 -13z M4210 3715 c-8 -9 -8 -15 -2 -15 6 0 12 6 14 12 3 9 12 8
34 -5 29 -18 29 -18 5 2 -28 25 -35 26 -51 6z M4074 3678 c-28 -30 -28 -31 -4
-16 24 15 27 14 51 -6 14 -11 34 -42 45 -68 15 -38 24 -48 42 -48 35 0 36 23
2 93 -24 51 -35 64 -50 60 -10 -3 -27 0 -38 6 -16 8 -24 5 -48 -21z M4014
3677 c-25 -18 -63 -77 -49 -77 2 0 22 23 45 50 23 28 40 50 38 49 -1 0 -17
-11 -34 -22z M4416 3665 c-11 -8 -15 -15 -9 -15 6 0 16 7 23 15 16 19 11 19
-14 0z M4355 3630 c10 -11 20 -20 23 -20 3 0 -3 9 -13 20 -10 11 -20 20 -23
20 -3 0 3 -9 13 -20z M4014 3608 l-29 -33 33 29 c17 17 32 31 32 33 0 8 -8 1
-36 -29z M5010 3620 c-12 -8 -9 -10 13 -10 15 0 27 5 27 10 0 13 -20 13 -40 0z
M2817 3600 c3 -11 9 -20 15 -20 5 0 4 9 -2 20 -6 11 -12 20 -14 20 -2 0 -2 -9
1 -20z M4638 3583 c6 -2 18 -2 25 0 6 3 1 5 -13 5 -14 0 -19 -2 -12 -5z M4890
3570 c0 -13 11 -13 30 0 12 8 11 10 -7 10 -13 0 -23 -4 -23 -10z M3080 3470
c0 -5 5 -10 10 -10 6 0 10 5 10 10 0 6 -4 10 -10 10 -5 0 -10 -4 -10 -10z
M3430 3290 c-13 -8 -13 -10 2 -10 9 0 20 5 23 10 8 13 -5 13 -25 0z M3193
3263 c9 -2 25 -2 35 0 9 3 1 5 -18 5 -19 0 -27 -2 -17 -5z M3357 3256 c-4 -10
-1 -13 9 -9 15 6 19 23 5 23 -5 0 -11 -7 -14 -14z M3185 3247 c-44 -5 -81 -11
-83 -12 -2 -2 35 -89 82 -195 50 -112 82 -198 79 -207 -4 -11 -2 -14 5 -9 11
6 17 -5 13 -26 0 -5 4 -8 10 -8 7 0 10 14 7 35 -3 24 0 35 9 35 7 0 10 -7 6
-17 -5 -13 -2 -15 15 -11 13 4 28 -1 41 -13 22 -21 36 -25 26 -8 -4 6 9 0 29
-13 20 -13 36 -31 36 -40 0 -9 5 -20 10 -23 6 -4 8 -11 5 -16 -4 -5 1 -9 10
-9 37 0 145 303 108 305 -5 1 -22 8 -39 18 -17 9 -35 13 -40 9 -5 -4 -2 1 6
11 7 10 9 17 4 16 -20 -4 -34 2 -34 14 0 6 -20 26 -45 42 -25 17 -47 38 -50
47 -4 10 -19 27 -35 38 -18 13 -27 26 -23 35 6 17 -25 18 -152 2z M3055 3189
c-4 -6 -4 -13 -1 -16 3 -4 6 -1 6 6 0 7 5 9 12 5 7 -4 8 -3 4 4 -9 15 -13 15
-21 1z M3130 3099 c0 -11 4 -18 10 -14 5 3 7 12 3 20 -7 21 -13 19 -13 -6z
M3142 3040 c-7 -11 -8 -20 -3 -20 6 0 13 5 16 10 4 6 11 8 16 5 5 -3 6 1 3 9
-8 21 -17 20 -32 -4z M3558 2693 c-52 -134 -51 -133 -40 -133 19 0 168 167
158 177 -4 4 -29 10 -48 12 -5 1 -8 10 -8 21 0 47 -28 13 -62 -77z M2428 1333
c6 -2 18 -2 25 0 6 3 1 5 -13 5 -14 0 -19 -2 -12 -5z M1400 1214 c-152 -128
-171 -146 -100 -99 30 20 55 33 56 28 1 -4 5 -24 8 -45 8 -46 28 -53 71 -25
31 19 53 49 23 31 -8 -5 -9 -2 -4 11 3 10 2 33 -4 51 -13 40 4 79 53 124 70
64 15 24 -103 -76z M1897 1213 c-13 -12 -7 -23 11 -22 10 0 12 3 4 6 -6 2 -10
9 -6 14 6 10 0 12 -9 2z M2120 1175 c0 -8 2 -15 4 -15 2 0 6 7 10 15 3 8 1 15
-4 15 -6 0 -10 -7 -10 -15z M1595 1048 l-70 -73 73 70 c67 64 77 75 69 75 -1
0 -34 -33 -72 -72z M1343 967 c3 -9 1 -17 -4 -19 -13 -4 -1 -38 13 -38 6 0 5
6 -2 15 -9 10 -9 15 -1 15 15 0 14 27 -1 36 -7 5 -9 2 -5 -9z M1488 943 c-19
-26 -97 -93 -107 -93 -5 0 -12 7 -15 16 -4 10 -2 13 7 8 8 -5 7 -2 -2 9 -7 9
-23 17 -34 17 -16 0 -18 -3 -10 -11 8 -8 8 -20 3 -34 -5 -13 -6 -25 -3 -28 10
-10 -8 -47 -49 -99 -27 -36 1 -12 86 72 114 112 157 160 142 160 -3 0 -11 -8
-18 -17z M2057 888 c-3 -7 -13 -31 -22 -53 -16 -40 -16 -40 9 -10 14 17 25 40
26 53 0 24 -5 29 -13 10z M2177 822 c-10 -10 -17 -32 -17 -48 0 -27 2 -26 20
15 23 49 21 60 -3 33z M1201 650 c-13 -11 -19 -20 -14 -20 6 0 18 9 28 20 23
25 17 25 -14 0z M1600 587 c-18 -39 -39 -84 -47 -99 -7 -16 -11 -28 -8 -28 8
0 98 190 93 195 -3 3 -20 -28 -38 -68z M1048 613 c6 -2 18 -2 25 0 6 3 1 5
-13 5 -14 0 -19 -2 -12 -5z M630 575 c-7 -9 -8 -15 -2 -15 5 0 12 7 16 15 3 8
4 15 2 15 -2 0 -9 -7 -16 -15z M1950 305 c-7 -9 -8 -15 -2 -15 5 0 12 7 16 15
3 8 4 15 2 15 -2 0 -9 -7 -16 -15z"/>
</g>
</svg>
