<svg xmlns="http://www.w3.org/2000/svg" height="1024" preserveAspectRatio="none" style="display: block;" version="1.1" viewBox="0 0 2048 2048" width="1024">
<defs>
	<linearGradient gradientUnits="userSpaceOnUse" id="Gradient1" x1="1289.57" x2="1334.89" y1="898.385" y2="929.832">
		<stop class="stop0" offset="0" stop-color="rgb(133,151,179)" stop-opacity="1"></stop>
		<stop class="stop1" offset="1" stop-color="rgb(179,202,223)" stop-opacity="1"></stop>
	</linearGradient>
	<linearGradient gradientUnits="userSpaceOnUse" id="Gradient2" x1="1219.87" x2="1233.53" y1="929.53" y2="962.212">
		<stop class="stop0" offset="0" stop-color="rgb(123,138,165)" stop-opacity="1"></stop>
		<stop class="stop1" offset="1" stop-color="rgb(145,169,196)" stop-opacity="1"></stop>
	</linearGradient>
	<linearGradient gradientUnits="userSpaceOnUse" id="Gradient3" x1="1222.73" x2="1274.33" y1="951.033" y2="913.807">
		<stop class="stop0" offset="0" stop-color="rgb(148,165,196)" stop-opacity="1"></stop>
		<stop class="stop1" offset="1" stop-color="rgb(195,210,229)" stop-opacity="1"></stop>
	</linearGradient>
	<linearGradient gradientUnits="userSpaceOnUse" id="Gradient4" x1="1286.29" x2="1248.22" y1="885.574" y2="864.299">
		<stop class="stop0" offset="0" stop-color="rgb(57,80,97)" stop-opacity="1"></stop>
		<stop class="stop1" offset="1" stop-color="rgb(125,146,171)" stop-opacity="1"></stop>
	</linearGradient>
	<linearGradient gradientUnits="userSpaceOnUse" id="Gradient5" x1="1372.66" x2="1348.28" y1="831.34" y2="829.505">
		<stop class="stop0" offset="0" stop-color="rgb(154,158,207)" stop-opacity="1"></stop>
		<stop class="stop1" offset="1" stop-color="rgb(199,222,227)" stop-opacity="1"></stop>
	</linearGradient>
	<linearGradient gradientUnits="userSpaceOnUse" id="Gradient6" x1="1383.82" x2="1353.27" y1="799.489" y2="796.614">
		<stop class="stop0" offset="0" stop-color="rgb(108,131,156)" stop-opacity="1"></stop>
		<stop class="stop1" offset="1" stop-color="rgb(169,185,212)" stop-opacity="1"></stop>
	</linearGradient>
	<linearGradient gradientUnits="userSpaceOnUse" id="Gradient7" x1="1328.84" x2="1367.09" y1="807.789" y2="801.605">
		<stop class="stop0" offset="0" stop-color="rgb(147,166,195)" stop-opacity="1"></stop>
		<stop class="stop1" offset="1" stop-color="rgb(202,212,237)" stop-opacity="1"></stop>
	</linearGradient>
	<linearGradient gradientUnits="userSpaceOnUse" id="Gradient8" x1="1401.52" x2="1367.3" y1="690.849" y2="688.207">
		<stop class="stop0" offset="0" stop-color="rgb(111,135,163)" stop-opacity="1"></stop>
		<stop class="stop1" offset="1" stop-color="rgb(149,162,186)" stop-opacity="1"></stop>
	</linearGradient>
	<linearGradient gradientUnits="userSpaceOnUse" id="Gradient9" x1="1073.86" x2="1172.62" y1="387.839" y2="461.816">
		<stop class="stop0" offset="0" stop-color="rgb(116,137,163)" stop-opacity="1"></stop>
		<stop class="stop1" offset="1" stop-color="rgb(211,222,246)" stop-opacity="1"></stop>
	</linearGradient>
	<linearGradient gradientUnits="userSpaceOnUse" id="Gradient10" x1="1053" x2="1087.48" y1="815.344" y2="823.774">
		<stop class="stop0" offset="0" stop-color="rgb(124,141,168)" stop-opacity="1"></stop>
		<stop class="stop1" offset="1" stop-color="rgb(165,182,208)" stop-opacity="1"></stop>
	</linearGradient>
	<linearGradient gradientUnits="userSpaceOnUse" id="Gradient11" x1="1149.61" x2="1048.61" y1="705.773" y2="759.643">
		<stop class="stop0" offset="0" stop-color="rgb(134,153,178)" stop-opacity="1"></stop>
		<stop class="stop1" offset="1" stop-color="rgb(187,201,226)" stop-opacity="1"></stop>
	</linearGradient>
	<linearGradient gradientUnits="userSpaceOnUse" id="Gradient12" x1="1226.27" x2="1118.07" y1="664.05" y2="615.841">
		<stop class="stop0" offset="0" stop-color="rgb(136,155,182)" stop-opacity="1"></stop>
		<stop class="stop1" offset="1" stop-color="rgb(171,187,211)" stop-opacity="1"></stop>
	</linearGradient>
	<linearGradient gradientUnits="userSpaceOnUse" id="Gradient13" x1="1097.14" x2="1259.01" y1="825.959" y2="831.055">
		<stop class="stop0" offset="0" stop-color="rgb(91,113,136)" stop-opacity="1"></stop>
		<stop class="stop1" offset="1" stop-color="rgb(169,188,214)" stop-opacity="1"></stop>
	</linearGradient>
	<linearGradient gradientUnits="userSpaceOnUse" id="Gradient14" x1="1456.02" x2="1512.84" y1="269.089" y2="308.944">
		<stop class="stop0" offset="0" stop-color="rgb(117,134,158)" stop-opacity="1"></stop>
		<stop class="stop1" offset="1" stop-color="rgb(143,169,194)" stop-opacity="1"></stop>
	</linearGradient>
	<linearGradient gradientUnits="userSpaceOnUse" id="Gradient15" x1="1336.19" x2="1379.11" y1="143.336" y2="188.265">
		<stop class="stop0" offset="0" stop-color="rgb(104,127,151)" stop-opacity="1"></stop>
		<stop class="stop1" offset="1" stop-color="rgb(218,226,250)" stop-opacity="1"></stop>
	</linearGradient>
	<linearGradient gradientUnits="userSpaceOnUse" id="Gradient16" x1="1423.52" x2="1497.6" y1="122.335" y2="181.558">
		<stop class="stop0" offset="0" stop-color="rgb(131,152,177)" stop-opacity="1"></stop>
		<stop class="stop1" offset="1" stop-color="rgb(177,189,216)" stop-opacity="1"></stop>
	</linearGradient>
	<linearGradient gradientUnits="userSpaceOnUse" id="Gradient17" x1="1487.58" x2="1442.81" y1="275.352" y2="240.085">
		<stop class="stop0" offset="0" stop-color="rgb(106,126,157)" stop-opacity="1"></stop>
		<stop class="stop1" offset="1" stop-color="rgb(176,192,214)" stop-opacity="1"></stop>
	</linearGradient>
	<linearGradient gradientUnits="userSpaceOnUse" id="Gradient18" x1="1178.92" x2="1014.18" y1="661.784" y2="682.475">
		<stop class="stop0" offset="0" stop-color="rgb(147,169,194)" stop-opacity="1"></stop>
		<stop class="stop1" offset="1" stop-color="rgb(189,206,227)" stop-opacity="1"></stop>
	</linearGradient>
	<linearGradient gradientUnits="userSpaceOnUse" id="Gradient19" x1="1053.5" x2="924.864" y1="1767.33" y2="1715.25">
		<stop class="stop0" offset="0" stop-color="rgb(4,122,105)" stop-opacity="1"></stop>
		<stop class="stop1" offset="1" stop-color="rgb(7,147,118)" stop-opacity="1"></stop>
	</linearGradient>
	<linearGradient gradientUnits="userSpaceOnUse" id="Gradient20" x1="1279.45" x2="1296.75" y1="1205.33" y2="1189.68">
		<stop class="stop0" offset="0" stop-color="rgb(3,125,132)" stop-opacity="1"></stop>
		<stop class="stop1" offset="1" stop-color="rgb(0,165,171)" stop-opacity="1"></stop>
	</linearGradient>
	<linearGradient gradientUnits="userSpaceOnUse" id="Gradient21" x1="1247.71" x2="644.031" y1="1247.15" y2="1007.63">
		<stop class="stop0" offset="0" stop-color="rgb(0,140,117)" stop-opacity="1"></stop>
		<stop class="stop1" offset="1" stop-color="rgb(11,207,158)" stop-opacity="1"></stop>
	</linearGradient>
</defs>
<path d="M 0 0 L 2048 0 L 2048 2048 L 0 2048 L 0 0 z" fill="rgb(8,12,20)" transform="translate(0,0)"></path>
<path d="M 609.712 560.698 C 631.483 576.774 652.022 594.085 674.679 610.593 C 700.132 626.91 721.334 641.678 748.127 656.908 C 815.323 695.105 883.107 724.467 953.046 756.943 C 957.271 763.777 966.804 778.343 970.103 784.914 C 971.281 786.976 974.839 793.348 976.537 794.586 C 1000.31 811.921 1028.26 824.375 1053.33 839.607 C 1178.96 913.008 1270.71 1055.92 1307.15 1194.43 C 1307.97 1197.54 1308.76 1200.67 1309.51 1203.8 L 1306.36 1206.02 C 1286.47 1159.79 1259.37 1117.01 1226.05 1079.29 C 1132.33 973.042 970.176 886.985 837.889 840.153 C 785.179 821.493 732.054 802.928 680.252 781.574 C 662.217 774.139 620.349 756.793 604.707 746.429 C 591.433 740.999 543.441 714.581 532.987 705.614 C 538.375 704.162 557.321 722.207 562.781 720.528 C 568.706 711.791 571.345 694.746 576.628 684.788 C 589.213 661.066 601.057 637.375 612.174 612.92 C 617.791 600.562 623.372 590.796 627.813 577.736 C 623.328 574.402 610.834 565.615 609.712 560.698 z" fill="rgb(20,184,166)" transform="translate(0,0)"></path>
<path d="M 525.705 974.665 C 570.147 985.986 601.092 991.441 647.386 992.292 C 703.48 993.128 769.595 986.454 823.388 990.713 C 978.828 1003.02 1190.48 1060.61 1275.15 1204.09 C 1196.43 1128.07 1089.94 1106.33 983.978 1107.05 C 893.834 1107.67 813.147 1135.34 724.59 1140.75 C 695.832 1142.51 618.762 1131.73 593.554 1118.68 C 590.688 1118.39 580.698 1114.53 577.845 1113.4 C 548.948 1102.02 513.415 1083.11 489.899 1062.49 C 494.495 1062.01 496.144 1066.49 499.985 1065.96 C 503.166 1061.98 500.343 1055.19 502.295 1052.95 C 519.255 1033.49 524.986 1005.95 533.621 982.144 C 534.284 980.316 533.766 980.581 532.733 978.771 C 529.43 977.364 528.455 976.918 525.705 974.665 z" fill="url(#Gradient21)" transform="translate(0,0)"></path>
<path d="M 525.705 974.665 C 570.147 985.986 601.092 991.441 647.386 992.292 C 650.765 993.102 653.948 993.828 657.267 994.856 C 655.856 1000.05 651.398 1004.3 650.629 1006.67 C 647.462 1016.45 644.835 1026.57 641.292 1036.1 C 636.102 1050.06 604.648 1102.71 604.144 1113.02 L 603.878 1118.13 C 603.798 1119.7 603.917 1119.07 603.5 1120.36 C 600.414 1119.06 596.905 1118.15 593.554 1118.68 C 590.688 1118.39 580.698 1114.53 577.845 1113.4 C 548.948 1102.02 513.415 1083.11 489.899 1062.49 C 494.495 1062.01 496.144 1066.49 499.985 1065.96 C 503.166 1061.98 500.343 1055.19 502.295 1052.95 C 519.255 1033.49 524.986 1005.95 533.621 982.144 C 534.284 980.316 533.766 980.581 532.733 978.771 C 529.43 977.364 528.455 976.918 525.705 974.665 z" fill="rgb(20,184,166)" transform="translate(0,0)"></path>
<path d="M 621.658 958.826 C 610.843 958.709 580.351 948.722 568.848 945.384 C 492.11 923.114 423.012 877.395 374.345 813.874 C 322.449 746.139 300.383 662.434 304.033 577.828 C 305.114 550.107 308.818 525.663 312.65 498.085 C 321.441 527.145 328.194 550.881 343.615 577.795 C 419.635 710.477 558.708 762.973 697.517 801.887 C 703.697 807.996 720.234 808.039 726.41 812.576 C 717.323 821.021 724.465 820.542 719.072 830.428 C 715.596 835.658 711.903 840.806 708.472 846.061 C 706.044 849.583 704.427 854.939 702.092 858.359 C 685.248 883.029 670.419 908.207 660.425 936.477 C 657.479 944.81 653.079 951.595 654.092 960.499 C 654.283 962.181 654.174 961.909 653.349 963.437 C 651.53 962.367 624.416 957.876 621.658 958.826 z" fill="rgb(107,213,211)" transform="translate(0,0)"></path>
<path d="M 467.113 139.258 C 469.608 136.787 470.686 134.837 473.567 134.099 C 473.402 136.895 472.643 137.691 471.273 140.167 C 402.934 290.294 459.347 416.718 569.274 524.36 C 582.176 536.994 597.24 548.434 609.712 560.698 C 610.834 565.615 623.328 574.402 627.813 577.736 C 623.372 590.796 617.791 600.562 612.174 612.92 C 601.057 637.375 589.213 661.066 576.628 684.788 C 571.345 694.746 568.706 711.791 562.781 720.528 C 557.321 722.207 538.375 704.162 532.987 705.614 C 514.387 695.047 487.633 672.035 471.497 657.779 C 401.488 595.926 353.114 515.937 348.294 420.719 C 342.799 312.166 395.966 217.453 467.113 139.258 z" fill="rgb(192,208,224)" transform="translate(0,0)"></path>
<path d="M 697.517 801.887 C 870.418 847.62 1034.28 921.922 1169.46 1041.01 C 1187.1 1056.54 1233.07 1101.29 1243.77 1119.87 C 1246.23 1121.48 1256.35 1136.07 1258.51 1139.19 C 1278.83 1168.67 1303.97 1209.31 1312.56 1244.27 C 1278.46 1183.25 1256.7 1149.59 1199.15 1105.28 C 1194.8 1103.03 1179.02 1091.93 1174.34 1088.84 C 1159.63 1078.96 1144.34 1069.96 1128.57 1061.88 C 1025.8 1009.92 911.245 989.31 797.519 980.506 C 759.674 977.577 720.581 974.088 682.972 969.607 C 666.695 967.668 637.204 963.474 621.658 958.826 C 624.416 957.876 651.53 962.367 653.349 963.437 C 654.174 961.909 654.283 962.181 654.092 960.499 C 653.079 951.595 657.479 944.81 660.425 936.477 C 670.419 908.207 685.248 883.029 702.092 858.359 C 704.427 854.939 706.044 849.583 708.472 846.061 C 711.903 840.806 715.596 835.658 719.072 830.428 C 724.465 820.542 717.323 821.021 726.41 812.576 C 720.234 808.039 703.697 807.996 697.517 801.887 z" fill="rgb(20,184,166)" transform="translate(0,0)"></path>
<path d="M 1199.15 1105.28 C 1208.19 1105.54 1233.87 1131.72 1241.38 1138.95 C 1248.16 1145.47 1255.94 1157.34 1263.68 1163.2 L 1264.18 1159.79 C 1266.12 1159.28 1266.08 1159.34 1267.73 1158.03 C 1267.19 1150.78 1243.37 1125.29 1243.77 1119.87 C 1246.23 1121.48 1256.35 1136.07 1258.51 1139.19 C 1278.83 1168.67 1303.97 1209.31 1312.56 1244.27 C 1278.46 1183.25 1256.7 1149.59 1199.15 1105.28 z" fill="url(#Gradient20)" transform="translate(0,0)"></path>
<path d="M 537.132 1134.99 C 560.31 1148.7 587.77 1157.07 613.562 1163.97 C 683.389 1182.63 744.175 1173.19 811.538 1151.23 C 837.026 1142.92 865.448 1132.34 891.346 1125.63 C 927.585 1116.4 964.855 1111.84 1002.25 1112.07 C 1077.83 1111.86 1152.24 1130.56 1217.72 1169.18 C 1240.29 1182.49 1260.43 1200.14 1279 1218.57 L 1277.67 1221.13 C 1247.71 1196.29 1211.78 1179.73 1173.43 1173.09 C 1014.6 1146.21 896.275 1300.06 733.518 1269.82 C 649.063 1254.13 585.518 1203.35 537.132 1134.99 z" fill="rgb(16,185,129)" transform="translate(0,0)"></path>
<path d="M 1297.6 179.458 C 1332.02 192.184 1368.46 203.606 1402.41 217.784 C 1405.14 218.924 1407.57 226.418 1413.21 230.425 L 1414.53 231.378 C 1400.83 294.233 1384.65 355.292 1369.69 417.599 C 1351.52 420.182 1345.09 436.973 1359.71 446.855 C 1360.76 447.548 1361.82 448.206 1362.91 448.828 C 1352.98 491.921 1342.66 534.922 1331.93 577.825 C 1325.8 603.235 1314.44 654.649 1303.88 676.719 C 1298 662.421 1292.07 634.817 1287.35 619.149 C 1277.8 587.47 1268.82 555.231 1259.21 523.578 C 1247.11 483.718 1231.05 442.131 1220.05 401.959 C 1239.66 348.574 1261.11 295.597 1278.6 241.392 C 1285.08 221.307 1292.96 199.942 1297.6 179.458 z" fill="rgb(192,208,224)" transform="translate(0,0)"></path>
<path d="M 1340.55 1065.62 C 1347.86 1071.09 1508.94 1365.12 1521.34 1391.97 C 1491.31 1394.38 1445.93 1393.06 1414.75 1393.05 C 1359.05 1392.65 1303.34 1392.64 1247.64 1393.01 C 1280.51 1357.8 1321.7 1322.6 1353.97 1287.57 C 1353.3 1256.04 1350.41 1221.44 1348.26 1189.74 C 1345.26 1148.39 1342.69 1107.02 1340.55 1065.62 z" fill="rgb(3,122,104)" transform="translate(0,0)"></path>
<path d="M 1207.83 1432.17 L 1208.29 1433.04 L 999.004 1678.75 C 974.727 1707.28 950.267 1735.65 925.623 1763.86 C 911.882 1779.68 895.642 1799.26 881.086 1813.75 C 835.158 1818.23 789.036 1820.45 743.125 1825.12 C 726.871 1826.78 710.574 1828.16 694.271 1829.23 C 693.64 1828.72 693.98 1829.11 693.702 1827.8 C 743.031 1799.87 809.872 1749.26 855.006 1714.09 C 925.724 1658.81 995.823 1602.74 1065.29 1545.89 C 1108.43 1510.63 1163.35 1463.47 1207.83 1432.17 z" fill="rgb(16,185,129)" transform="translate(0,0)"></path>
<path d="M 1117.71 1176.41 C 1157.67 1172.8 1206.45 1184.14 1241.66 1203.29 C 1253.63 1209.8 1264.25 1217.67 1275.15 1225.76 C 1178.76 1189.61 1123.49 1224.79 1045.91 1279.42 C 1005.87 1307.62 982.875 1323.25 934.22 1334.12 C 881.069 1343.67 813.069 1331.86 766.037 1305.27 C 817.684 1301.41 868.049 1287.32 914.201 1263.82 C 946.292 1247.27 975.91 1227.14 1006.98 1208.97 C 1039.44 1189.98 1080.3 1180.34 1117.71 1176.41 z" fill="rgb(16,185,129)" transform="translate(0,0)"></path>
<path d="M 1312.89 994.323 C 1323.02 995.35 1445.31 1049.14 1461.64 1056.43 C 1464.95 1067.12 1468.63 1086.45 1471.17 1098.04 L 1489.61 1183.74 C 1495.86 1212 1501.77 1240.32 1508.01 1268.6 C 1515.56 1302.81 1525.09 1338.81 1530.24 1373.35 C 1524.24 1369.18 1367.55 1101.07 1349.69 1068.4 C 1344.24 1058.44 1317.99 1007.53 1312.89 994.323 z" fill="rgb(3,122,104)" transform="translate(0,0)"></path>
<path d="M 1173.07 1437.14 L 1173.63 1438.08 C 1169.54 1441.58 1164.78 1444.28 1160.44 1447.87 C 1142.93 1462.3 1124.68 1475.59 1106.52 1489.21 L 976.003 1586.91 L 802.427 1718.25 C 765.794 1746.25 729.487 1775.54 692.054 1802.41 L 691.58 1802.1 C 692.019 1799.14 700.11 1789.47 702.491 1786.23 C 715.221 1768.83 728.079 1751.52 741.063 1734.31 C 768.964 1697.05 815.524 1632.12 845.977 1592.9 C 847.304 1591.2 874.575 1579.12 879.242 1576.97 C 898.242 1568.18 917.181 1559.25 936.058 1550.19 L 1093.56 1475.93 C 1117.42 1464.49 1149.85 1446.77 1173.07 1437.14 z" fill="rgb(16,185,129)" transform="translate(0,0)"></path>
<path d="M 1144.64 1522.79 C 1144.85 1524.48 1139.33 1558.58 1138.71 1560.46 C 1130.53 1585.3 1113.62 1617.17 1102.54 1641.18 C 1075.98 1698.74 1049.52 1755.7 1022.45 1812.96 C 1020.75 1816.56 1016.57 1824.77 1013.8 1827.08 C 1005.23 1834.25 994.533 1841.19 985.284 1847.44 L 933.415 1882.43 C 897.817 1906.53 863.45 1932.35 828.11 1956.03 C 829.238 1949.52 1025.29 1687.79 1046.91 1658.27 C 1079.82 1613.36 1111.61 1567.58 1144.64 1522.79 z" fill="url(#Gradient19)" transform="translate(0,0)"></path>
<path d="M 1493.87 1400.86 C 1496.33 1400.51 1512.88 1399.06 1513.9 1400.74 L 1513.63 1400.51 L 1513.17 1401.28 C 1511.86 1401.74 1512.05 1401.65 1510.64 1401.65 C 1486.48 1412.15 1461 1421.94 1436.5 1431.94 L 1330.02 1475.99 L 1211.16 1524.53 C 1201.94 1528.27 1153.36 1549.35 1147.44 1548.33 L 1146.63 1546.89 C 1147.71 1533.54 1171.32 1502.98 1179.45 1491.03 C 1198.11 1463.53 1216.98 1436.18 1236.08 1408.99 C 1299.44 1406.48 1362.83 1404.5 1426.23 1403.05 C 1448.75 1402.44 1471.39 1401.03 1493.87 1400.86 z" fill="rgb(3,122,104)" transform="translate(0,0)"></path>
<path d="M 1493.87 1400.86 C 1496.33 1400.51 1512.88 1399.06 1513.9 1400.74 L 1513.63 1400.51 L 1513.17 1401.28 C 1511.86 1401.74 1512.05 1401.65 1510.64 1401.65 C 1504.77 1400.82 1500.21 1401.49 1493.87 1400.86 z" fill="rgb(8,103,92)" transform="translate(0,0)"></path>
<path d="M 1195.55 1214.41 C 1224.16 1212.51 1260.35 1222.59 1285 1237.34 C 1200.01 1212.59 1165.71 1279.83 1101.97 1323.57 C 1081.41 1337.68 1058.27 1347.6 1033.88 1352.76 C 1003.52 1359.34 971.788 1357.97 941.3 1353.26 C 995.577 1337.41 1024.67 1312.12 1067.3 1277.33 C 1109.67 1242.75 1138.78 1218.32 1195.55 1214.41 z" fill="rgb(16,185,129)" transform="translate(0,0)"></path>
<path d="M 1057.45 402.285 C 1060.82 403.185 1080.78 421.847 1085.81 425.864 C 1091.17 429.636 1108.84 444.264 1113.05 448.669 C 1126.92 457.999 1149.49 479.142 1163.98 490.466 C 1168.52 507.084 1173.45 524.225 1177.36 540.949 C 1168.19 548.306 1168.66 552.026 1170.26 563.219 C 1170.85 567.378 1157.38 577.517 1153.98 580.516 C 1141.35 591.624 1124.77 603.352 1113.44 615.386 C 1109.02 611.661 1090.41 587.579 1089.49 583.135 C 1084.76 560.32 1076.04 516.926 1074.03 494.466 C 1070.89 482.423 1068.23 461.912 1066.25 449.06 C 1064.81 442.224 1063.47 435.367 1062.24 428.491 C 1060.62 419.903 1058.71 410.898 1057.45 402.285 z" fill="rgb(192,208,224)" transform="translate(0,0)"></path>
<path d="M 1057.45 402.285 C 1060.82 403.185 1080.78 421.847 1085.81 425.864 C 1083.69 431.5 1071.45 445.657 1066.25 449.06 C 1064.81 442.224 1063.47 435.367 1062.24 428.491 C 1060.62 419.903 1058.71 410.898 1057.45 402.285 z" fill="rgb(192,208,224)" transform="translate(0,0)"></path>
<path d="M 1085.81 425.864 C 1091.17 429.636 1108.84 444.264 1113.05 448.669 C 1106.79 447.106 1096.7 437.555 1091.91 432.941 C 1088.19 436.851 1069.83 458.887 1070.6 462.977 C 1072.76 474.604 1074.67 482.304 1074.03 494.466 C 1070.89 482.423 1068.23 461.912 1066.25 449.06 C 1071.45 445.657 1083.69 431.5 1085.81 425.864 z" fill="rgb(148,164,190)" transform="translate(0,0)"></path>
<path d="M 1038.17 577.845 C 1052.18 596.082 1068.94 613.985 1084 631.511 L 1157.7 718.497 C 1169.39 732.208 1184.02 747.452 1194.52 761.637 C 1191.29 761.276 1170.05 752.833 1164.96 751.138 L 1056.97 714.181 C 1042.75 709.336 1028.51 703.603 1014.18 699.376 C 1016.65 681.855 1015.85 633.542 1015.77 613.954 C 1037.49 603.706 1023.88 600.152 1024.55 590.187 C 1027.98 585.844 1033.79 581.476 1038.17 577.845 z" fill="url(#Gradient18)" transform="translate(0,0)"></path>
<path d="M 1514.89 146.149 C 1516.31 143.634 1562.87 107.825 1568.73 102.931 C 1563.7 111.5 1555.13 127.21 1549.66 134.787 C 1546.63 139.997 1540.28 150.883 1536.57 155.196 C 1531.06 166.341 1519.94 183.503 1513.29 194.511 C 1497.54 220.848 1481.6 247.075 1465.49 273.19 L 1405.82 372.678 C 1398.06 385.412 1382.26 414.666 1371.9 423.474 C 1375.34 405.099 1384.16 374.65 1388.84 355.118 C 1393.08 337.411 1400.96 299.164 1406.17 283.747 C 1406.33 278.238 1416.21 238.684 1418.09 231.9 L 1421.56 229.864 C 1430.01 224.888 1430.39 223.568 1428.36 213.798 C 1447.48 200.063 1467.11 183.246 1485.84 168.75 C 1494.67 161.921 1505.69 152.004 1514.89 146.149 z" fill="url(#Gradient17)" transform="translate(0,0)"></path>
<path d="M 1514.89 146.149 C 1520.48 146.22 1521.6 140.418 1527.59 139.809 C 1532.28 147.861 1511.48 164.803 1507.63 169.867 C 1493.46 188.498 1475.23 201.003 1460.31 218.49 C 1440.96 245.38 1434.1 269.621 1408.46 292.926 L 1406.6 293.355 C 1405.69 287.788 1407.56 288.026 1406.17 283.747 C 1406.33 278.238 1416.21 238.684 1418.09 231.9 L 1421.56 229.864 C 1430.01 224.888 1430.39 223.568 1428.36 213.798 C 1447.48 200.063 1467.11 183.246 1485.84 168.75 C 1494.67 161.921 1505.69 152.004 1514.89 146.149 z" fill="rgb(192,208,224)" transform="translate(0,0)"></path>
<path d="M 1536.57 155.196 C 1537.99 148.224 1535.65 145.574 1542.66 140.444 C 1545.83 138.126 1545.3 137.145 1549.66 134.787 C 1546.63 139.997 1540.28 150.883 1536.57 155.196 z" fill="rgb(148,164,190)" transform="translate(0,0)"></path>
<path d="M 1480.87 881.911 L 1481.37 882.401 C 1482.22 884.652 1481.68 888.499 1481.17 890.816 C 1470.52 939.279 1466.81 990.41 1457.56 1038.79 C 1445.27 1036.07 1428.16 1029.41 1415.68 1025.15 L 1354.37 1004.65 C 1344.13 1001.57 1327.23 995.263 1317.4 991.101 C 1328.48 982.508 1350.36 968.896 1362.75 960.481 C 1401.91 933.967 1441.28 907.776 1480.87 881.911 z" fill="rgb(3,122,104)" transform="translate(0,0)"></path>
<path d="M 352.545 863.975 C 393.03 907.289 428.955 936.443 484.794 960.063 C 498.143 965.71 512.082 969.733 525.705 974.665 C 528.455 976.918 529.43 977.364 532.733 978.771 C 533.766 980.581 534.284 980.316 533.621 982.144 C 524.986 1005.95 519.255 1033.49 502.295 1052.95 C 500.343 1055.19 503.166 1061.98 499.985 1065.96 C 496.144 1066.49 494.495 1062.01 489.899 1062.49 C 485.334 1060.41 469.812 1046.47 465.408 1042.32 C 411.62 991.69 378.699 932.027 352.545 863.975 z" fill="rgb(107,213,211)" transform="translate(0,0)"></path>
<path d="M 1566.32 100.904 C 1564.23 102.514 1562.34 104.391 1559.92 105.471 C 1524.07 136.627 1484.25 165.612 1446.93 195.101 C 1440.61 200.097 1433.13 205.694 1426.46 210.192 C 1411.07 201.364 1411.53 214.115 1403.71 214.565 C 1398.07 211.331 1371.76 202.68 1364.02 200.013 C 1356.91 197.501 1350.34 195.171 1343.37 192.282 C 1338.34 190.851 1302.47 178.662 1301.39 176.43 C 1318.81 172.964 1338.45 165.446 1354.94 162.337 C 1366.12 157.833 1389.29 152.009 1401.75 148.591 C 1422.23 142.236 1443.23 136.204 1463.83 130.139 C 1487.97 123.858 1511.74 116.218 1535.56 108.823 C 1539.86 107.489 1544.13 106.106 1548.55 105.231 C 1555.62 102.615 1558.66 101.916 1566.32 100.904 z" fill="url(#Gradient16)" transform="translate(0,0)"></path>
<path d="M 1354.94 162.337 C 1366.12 157.833 1389.29 152.009 1401.75 148.591 C 1403.82 148.782 1405.8 148.896 1407.87 148.691 C 1410.08 154.168 1396.43 172.215 1392.24 176.27 L 1390.63 176.772 L 1389.66 173.645 C 1380.23 186.877 1377.31 190.158 1364.02 200.013 C 1356.91 197.501 1350.34 195.171 1343.37 192.282 C 1338.34 190.851 1302.47 178.662 1301.39 176.43 C 1318.81 172.964 1338.45 165.446 1354.94 162.337 z" fill="url(#Gradient15)" transform="translate(0,0)"></path>
<path d="M 1566.32 100.904 C 1564.23 102.514 1562.34 104.391 1559.92 105.471 C 1555.16 103.486 1554.76 106.455 1550.19 105.534 L 1548.55 105.231 C 1555.62 102.615 1558.66 101.916 1566.32 100.904 z" fill="rgb(192,208,224)" transform="translate(0,0)"></path>
<path d="M 1563.07 117.006 L 1564.26 118.305 C 1553.21 145.055 1540.84 171.677 1529.08 198.182 L 1455.21 364.815 C 1442.34 393.837 1429.02 422.284 1416.77 451.584 C 1400.58 445.92 1401.93 452.765 1388.14 450.976 L 1385.44 450.238 C 1385.79 448.869 1385.4 449.428 1386.69 448.627 L 1385.99 446.517 L 1383.62 446.237 L 1383.42 449.681 L 1381.94 449.383 L 1381.83 446.351 C 1375.33 450.026 1377.3 450.601 1369.07 451.243 C 1362.73 456.771 1367.21 469.008 1359.93 477.354 C 1361.22 470.749 1362.69 461.765 1364.87 455.849 C 1367.24 445.509 1374.85 449.391 1378.4 446.555 C 1388.41 438.569 1383.69 427.505 1378.39 421.088 C 1412.26 368.1 1442.17 315.935 1474.52 262.344 L 1529.45 171.403 C 1540.67 153.143 1552.2 135.528 1563.07 117.006 z" fill="url(#Gradient14)" transform="translate(0,0)"></path>
<path d="M 1183.71 569.772 C 1188.54 568.61 1190.52 568.141 1195.33 566.65 C 1199.79 577.946 1204.36 589.253 1208.77 600.574 C 1211.46 607.473 1215.81 615.515 1218.31 622.265 C 1222.74 631.427 1229.38 642.836 1231.86 652.538 C 1235.08 664.45 1229.23 680.291 1231.7 691.954 C 1236.55 714.947 1244.06 738.02 1250.66 760.61 C 1252.96 768.458 1261.73 804.43 1266.9 807.362 C 1254.38 772.311 1243.73 731.376 1234.53 694.988 C 1232.78 688.096 1234.62 675.064 1235.47 667.678 C 1244 693.655 1263.78 749.435 1267.74 773.494 L 1268.49 775.22 C 1269.46 777.7 1271.34 779.716 1272.82 781.9 C 1275.01 783.225 1276.9 786.997 1277.92 789.364 L 1278.21 790.041 C 1279.81 791.625 1279.91 791.785 1280.6 793.917 C 1281.51 795.289 1282.36 796.527 1283.16 797.963 C 1290.62 811.201 1297.9 825.057 1304.95 838.531 C 1307.92 844.22 1315.43 856.869 1317.51 862.275 C 1320.17 866.752 1327.77 879.398 1328.47 883.595 C 1325.22 880.983 1314.01 867.426 1312.46 863.856 C 1307.95 859.808 1286.08 831.735 1280.61 824.832 C 1278.2 821.919 1277.95 821.73 1274.96 819.365 C 1277.07 826.893 1331.62 890.515 1340 902.2 L 1341.97 905.782 L 1341.12 907.026 C 1337.95 902.527 1333.11 897.397 1329.45 893.115 C 1309.16 869.394 1291.06 843.871 1271.78 819.338 C 1270.73 818.946 1269.69 818.553 1268.65 818.161 C 1265.36 816.142 1263.63 815.03 1263.26 811.163 C 1259.96 796.331 1205.07 740.453 1204.53 729.857 C 1201.3 709.574 1197.65 677.287 1196.18 656.417 C 1195.58 654.159 1195.26 652.834 1195.02 650.502 C 1193.01 631.019 1188.59 610.849 1186.22 591.497 L 1183.71 569.772 z" fill="rgb(192,208,224)" transform="translate(0,0)"></path>
<path d="M 1183.71 569.772 C 1188.54 568.61 1190.52 568.141 1195.33 566.65 C 1199.79 577.946 1204.36 589.253 1208.77 600.574 C 1211.46 607.473 1215.81 615.515 1218.31 622.265 C 1213.21 619.108 1215.53 618.385 1212.78 614.715 C 1212.07 614.898 1211.63 616.51 1211.57 617.129 C 1211.28 620.343 1208.99 621.745 1207.07 624.046 C 1202.6 629.391 1200.63 636.622 1197.39 642.467 C 1194.48 647.737 1199.24 650.665 1196.36 655.857 C 1196.3 656.043 1196.24 656.23 1196.18 656.417 C 1195.58 654.159 1195.26 652.834 1195.02 650.502 C 1193.01 631.019 1188.59 610.849 1186.22 591.497 L 1183.71 569.772 z" fill="rgb(148,164,190)" transform="translate(0,0)"></path>
<path d="M 1267.74 773.494 L 1268.49 775.22 C 1269.46 777.7 1271.34 779.716 1272.82 781.9 C 1275.01 783.225 1276.9 786.997 1277.92 789.364 L 1278.21 790.041 C 1279.81 791.625 1279.91 791.785 1280.6 793.917 C 1281.51 795.289 1282.36 796.527 1283.16 797.963 L 1282.11 798.404 C 1267.32 804.794 1271.14 796.112 1268.13 786.349 C 1267.93 782.066 1267.8 777.78 1267.74 773.494 z" fill="rgb(148,164,190)" transform="translate(0,0)"></path>
<path d="M 1272.82 781.9 C 1275.01 783.225 1276.9 786.997 1277.92 789.364 C 1275.28 786.519 1274.37 785.606 1272.82 781.9 z" fill="rgb(112,130,155)" transform="translate(0,0)"></path>
<path d="M 1278.21 790.041 C 1279.81 791.625 1279.91 791.785 1280.6 793.917 C 1279 793.341 1278.84 791.686 1278.21 790.041 z" fill="rgb(112,130,155)" transform="translate(0,0)"></path>
<path d="M 1267.07 807.918 C 1274.66 806.503 1279.24 813.937 1275.4 817.562 C 1272.47 815.919 1272.66 815.617 1269.88 817.45 L 1268.65 818.161 C 1265.36 816.142 1263.63 815.03 1263.26 811.163 C 1264.62 808.866 1264.52 809.075 1267.07 807.918 z" fill="rgb(252,251,253)" transform="translate(0,0)"></path>
<path d="M 1042.56 425.892 C 1044.8 427.574 1044.64 427.376 1045.57 430.028 C 1044.93 437.093 1042.16 478.057 1041.24 481.678 C 1041.14 485.414 1041.13 495.827 1040.31 498.83 C 1039.23 520.233 1035.29 556.402 1036.4 576.29 C 1034.92 577.551 1023.22 587.53 1022.56 587.676 C 1008.6 590.708 1003.93 586.247 1003.94 604.771 C 981.139 626.781 952.134 646.073 928.97 666.963 L 925.33 665.837 C 940.864 633.453 956.613 601.172 972.574 568.997 C 976.374 560.27 983.947 545.029 988.576 536.894 C 989.625 533.277 1001.67 508.972 1003.78 504.628 C 1016.55 478.304 1029.48 452.059 1042.56 425.892 z" fill="rgb(192,208,224)" transform="translate(0,0)"></path>
<path d="M 1191.52 764.784 C 1197.45 765.706 1197.15 766.443 1199.58 771.916 C 1205.54 784.804 1256.97 891.991 1257.56 896.498 C 1229.57 876.355 1199.67 858.809 1172.09 837.42 C 1168.47 836.028 1113.45 797.444 1110.6 794.528 C 1099.53 788.593 1086.19 777.65 1074.88 771.67 C 1075.53 770.315 1075.63 770.303 1076.61 768.989 C 1084.11 768.598 1088.89 767.199 1097.48 767.873 C 1103.7 766.841 1117.09 766.827 1123.8 766.685 L 1172.13 765.718 C 1178.91 765.565 1184.76 765.433 1191.52 764.784 z" fill="url(#Gradient13)" transform="translate(0,0)"></path>
<path d="M 1076.61 768.989 C 1084.11 768.598 1088.89 767.199 1097.48 767.873 C 1100.42 768.213 1105.1 768.137 1107.52 768.564 L 1107.43 768.755 C 1103 770.189 1104.74 768.601 1105.21 773.533 C 1105.56 777.154 1106.66 782.039 1105.75 785.271 C 1103.9 791.819 1110.22 789.276 1110.6 794.528 C 1099.53 788.593 1086.19 777.65 1074.88 771.67 C 1075.53 770.315 1075.63 770.303 1076.61 768.989 z" fill="rgb(192,208,224)" transform="translate(0,0)"></path>
<path d="M 1488.78 880.417 C 1493.42 881.751 1509.53 891.903 1514.68 894.885 C 1555.36 918.459 1597.15 940.179 1637.98 963.446 C 1625.89 971.203 1615.02 978.026 1602.53 985.1 C 1584.2 995.453 1564.89 1008.13 1546.72 1019.25 C 1526.54 977.85 1506.9 923.503 1488.78 880.417 z" fill="rgb(3,122,104)" transform="translate(0,0)"></path>
<path d="M 1542.43 1099.71 C 1552.68 1095.16 1562.19 1090.98 1572.73 1087.04 C 1563.26 1149.97 1554.63 1213.02 1546.85 1276.18 L 1540.6 1326.38 C 1539.52 1334.86 1537.39 1348.51 1537.15 1356.6 C 1536.09 1356.68 1535.47 1356.73 1534.43 1356.93 C 1531.1 1341.25 1522.25 1314.72 1521.67 1300.31 C 1518.86 1230.79 1524.58 1159 1523.92 1089.57 L 1542.43 1099.71 z" fill="rgb(3,122,104)" transform="translate(0,0)"></path>
<path d="M 1546.89 1024.13 C 1558.47 1023.65 1577.6 1025.22 1589.5 1025.85 C 1607.56 1026.81 1627.14 1027.12 1644.98 1028.85 C 1640.62 1037.78 1634.95 1049.99 1627.95 1056.99 C 1621.74 1063.2 1573.22 1082.39 1561.75 1087.47 C 1555.5 1090.39 1549.23 1093.26 1542.93 1096.07 C 1520.12 1085.42 1491.33 1068.76 1467.9 1056.87 C 1488.69 1045.78 1523.95 1032.95 1546.89 1024.13 z" fill="rgb(3,122,104)" transform="translate(0,0)"></path>
<path d="M 1274.86 198.635 L 1276.41 199.36 C 1242.78 247.351 1203.86 296.065 1169.09 343.558 C 1165.17 348.924 1142.89 378.569 1140.39 380.618 L 1140.01 382.689 C 1141.21 383.499 1142.27 384.131 1143.51 384.87 C 1146.05 389.959 1146.84 396.836 1141 400.03 C 1138.94 401.179 1136.49 401.392 1134.26 400.614 C 1131.64 399.715 1129.92 397.767 1127.93 395.947 L 1128.01 392.728 L 1122.19 393.681 C 1113.15 391.965 1068.25 396.376 1057.74 397.411 C 1085.73 374.327 1114.29 347.534 1140.93 322.863 C 1170.23 296.037 1199.38 269.052 1228.39 241.91 C 1243.56 227.792 1259.33 212.119 1274.86 198.635 z" fill="rgb(148,164,190)" transform="translate(0,0)"></path>
<path d="M 1140.01 382.689 C 1141.21 383.499 1142.27 384.131 1143.51 384.87 C 1146.05 389.959 1146.84 396.836 1141 400.03 C 1138.94 401.179 1136.49 401.392 1134.26 400.614 C 1131.64 399.715 1129.92 397.767 1127.93 395.947 L 1128.01 392.728 C 1129.23 390.149 1129.62 387.87 1130.92 385.16 C 1132.62 384.386 1132.64 384.458 1133.97 383.336 C 1136.15 382.959 1137.8 382.866 1140.01 382.689 z" fill="rgb(252,251,253)" transform="translate(0,0)"></path>
<path d="M 1122.19 393.681 L 1122.34 391.889 C 1122.72 386.71 1126.38 376.579 1130.92 385.16 C 1129.62 387.87 1129.23 390.149 1128.01 392.728 L 1122.19 393.681 z" fill="rgb(192,208,224)" transform="translate(0,0)"></path>
<path d="M 1133.97 383.336 C 1134.92 380.465 1137.5 380.958 1140.39 380.618 L 1140.01 382.689 C 1137.8 382.866 1136.15 382.959 1133.97 383.336 z" fill="rgb(91,99,112)" transform="translate(0,0)"></path>
<path d="M 1114.9 617.189 C 1123.28 609.884 1168.49 570.193 1174.83 568.431 C 1177.55 569.118 1179.39 569.193 1181.07 571.348 C 1183.35 582.354 1184.27 594.803 1186.11 606.139 C 1191.1 636.992 1195.73 667.859 1198.91 698.963 C 1199.63 705.971 1202.64 723.143 1201.92 728.931 C 1172.88 694.007 1144.47 653.123 1114.9 617.189 z" fill="url(#Gradient12)" transform="translate(0,0)"></path>
<path d="M 1336.04 884.63 C 1334.25 879.009 1330.08 870.236 1327.91 864.02 C 1321.42 845.421 1312.98 827.229 1305.56 809.259 C 1292.83 778.427 1280.13 749.433 1266.07 719.362 C 1258.16 702.452 1242.76 672.523 1236.38 656.434 C 1231.03 642.947 1231 593.42 1228.87 576.476 C 1227.75 567.601 1226.3 553.886 1226.53 545.013 C 1226.6 542.134 1227.32 542.384 1229.52 540.741 C 1235.85 548.331 1245.75 583.766 1249.38 595.209 C 1258.37 623.463 1267.18 651.777 1275.8 680.148 L 1337.45 882.437 L 1336.04 884.63 z" fill="rgb(192,208,224)" transform="translate(0,0)"></path>
<path d="M 1231.79 1240.37 C 1259.63 1238.51 1273.79 1241.4 1300.34 1246.94 C 1233.07 1252.25 1209.27 1303.01 1153.23 1333.19 C 1134.12 1341.87 1122.78 1345.04 1102.05 1348.21 C 1128.02 1326.05 1138.97 1315.02 1160.32 1287.25 C 1179.49 1262.31 1199.68 1243.86 1231.79 1240.37 z" fill="rgb(16,185,129)" transform="translate(0,0)"></path>
<path d="M 1166.72 487.934 C 1162.07 475.43 1142.69 409.792 1144.91 399.722 C 1148.99 395.599 1178.17 395.008 1185.81 394.522 C 1189.64 406.094 1223.98 509.581 1223.16 514.16 C 1217.77 515.999 1215.74 518.475 1212.13 522.689 C 1196.59 511.57 1181.13 500.506 1166.72 487.934 z" fill="rgb(192,208,224)" transform="translate(0,0)"></path>
<path d="M 1143.73 384.304 C 1142.94 382.515 1143.13 382.938 1142.8 380.977 C 1188.23 323.887 1230.75 264.206 1274.6 205.908 C 1275.8 204.315 1275.89 204.224 1277.68 203.453 C 1255.48 246.155 1233.85 289.156 1212.82 332.445 C 1203.92 350.459 1191.73 373.087 1183.85 390.94 C 1177.22 392.6 1168.17 392.143 1161.57 393.018 C 1142.14 395.592 1150.59 390.352 1143.73 384.304 z" fill="rgb(192,208,224)" transform="translate(0,0)"></path>
<path d="M 1005.06 607.831 C 1007.89 610.342 1009.28 611.469 1012.34 613.652 C 1012.95 635.601 1013.64 677.385 1011.08 698.674 C 989.439 693.382 967.302 687.6 945.629 682.733 L 941.543 681.802 L 937.073 680.795 C 931.97 679.661 929.752 678.828 925.174 676.569 C 924.473 676.26 924.72 676.405 924.353 676.144 C 924.205 675.737 924.325 675.692 924.527 675.141 C 951.255 652.231 978.281 630.545 1005.06 607.831 z" fill="rgb(192,208,224)" transform="translate(0,0)"></path>
<path d="M 1407.48 593.843 C 1407.4 599.554 1396.63 624.929 1394.15 632.408 C 1390.53 644.224 1385.6 656.829 1381.49 668.728 C 1374.25 689.181 1367.9 709.463 1360.3 730.274 C 1351.59 723.722 1339.35 714.992 1329.97 709.232 C 1328.11 708.048 1324.52 705.481 1322.81 704.144 L 1310.58 695.317 C 1318.57 688.201 1328.57 676.764 1336.42 668.766 C 1360.61 644.275 1384.31 619.295 1407.48 593.843 z" fill="rgb(112,130,155)" transform="translate(0,0)"></path>
<path d="M 1407.48 593.843 C 1407.4 599.554 1396.63 624.929 1394.15 632.408 C 1391.82 634.236 1388.04 636.375 1385.41 637.693 L 1383.97 638.433 C 1382 639.353 1380.26 640.579 1378.46 641.769 L 1375.46 643.768 C 1373.86 644.817 1369.9 648.184 1368.47 648.769 C 1364.37 650.433 1344.62 672.885 1344.53 675.833 C 1344.77 676.066 1345 676.299 1345.24 676.532 C 1343.58 680.206 1340.13 675.397 1333.83 684.821 C 1326.67 695.52 1325.55 689.753 1322.81 704.144 L 1310.58 695.317 C 1318.57 688.201 1328.57 676.764 1336.42 668.766 C 1360.61 644.275 1384.31 619.295 1407.48 593.843 z" fill="rgb(192,208,224)" transform="translate(0,0)"></path>
<path d="M 1329.97 709.232 C 1334.64 704.442 1347.1 695.098 1352.93 690.822 C 1359.2 686.232 1375.95 670.005 1381.49 668.728 C 1374.25 689.181 1367.9 709.463 1360.3 730.274 C 1351.59 723.722 1339.35 714.992 1329.97 709.232 z" fill="rgb(192,208,224)" transform="translate(0,0)"></path>
<path d="M 1489.22 889.761 C 1492.86 894.081 1515.68 954.713 1519.93 965.009 C 1527.54 983.751 1535.77 1002.23 1544.61 1020.43 L 1528.36 1026.97 L 1491.1 1042.03 C 1491.24 1015.1 1491.08 988.174 1490.61 961.249 C 1490.02 938.613 1488.57 912.086 1489.22 889.761 z" fill="rgb(16,185,129)" transform="translate(0,0)"></path>
<path d="M 1015.73 702.139 C 1070.23 721.938 1127.42 739.282 1181.24 759.16 C 1182.42 759.517 1186.85 760.763 1187.34 761.82 C 1187.2 762.149 1187.33 761.967 1186.89 762.352 C 1171.48 762.979 1086.1 763.117 1078.25 767.548 L 1076.61 768.989 C 1075.63 770.303 1075.53 770.315 1074.88 771.67 C 1074.33 772.101 1071.75 774.41 1071.36 774.523 C 1069.43 775.087 1064.16 769.934 1064.01 768.752 L 1064.04 768.816 C 1065.73 766.451 1065.21 768.851 1066.56 765.674 L 1067.42 764.274 C 1065.55 757.712 1023.37 711.092 1015.73 702.139 z" fill="url(#Gradient11)" transform="translate(0,0)"></path>
<path d="M 1068.36 762.443 C 1071.82 763.249 1071.8 763.659 1075.01 764.885 C 1076.82 765.997 1076.71 765.906 1078.25 767.548 L 1076.61 768.989 C 1075.63 770.303 1075.53 770.315 1074.88 771.67 C 1074.33 772.101 1071.75 774.41 1071.36 774.523 C 1069.43 775.087 1064.16 769.934 1064.01 768.752 L 1064.04 768.816 C 1065.73 766.451 1065.21 768.851 1066.56 765.674 L 1067.42 764.274 L 1068.36 762.443 z" fill="rgb(252,251,253)" transform="translate(0,0)"></path>
<path d="M 1068.36 762.443 C 1070.38 757.935 1072.13 758.93 1077 759.017 L 1078.44 760.235 C 1081.7 762.876 1080.3 763.493 1076.99 763.592 L 1075.01 764.885 C 1071.8 763.659 1071.82 763.249 1068.36 762.443 z" fill="rgb(192,208,224)" transform="translate(0,0)"></path>
<path d="M 1181.24 759.16 C 1182.42 759.517 1186.85 760.763 1187.34 761.82 C 1187.2 762.149 1187.33 761.967 1186.89 762.352 C 1183.62 761.723 1172.71 761.431 1172.6 761.376 L 1172.59 761.327 C 1174.93 760.087 1176.6 762.315 1181.24 759.16 z" fill="rgb(192,208,224)" transform="translate(0,0)"></path>
<path d="M 1029.95 777.186 C 1038.05 782.428 1046.62 788.518 1054.49 794.14 C 1056.83 795.347 1069.59 803.893 1072.72 806.037 C 1083.15 813.16 1100.66 822.163 1109.82 829.734 C 1116.64 832.762 1142.01 849.22 1149.63 853.956 C 1174.4 869.517 1199.43 884.657 1224.72 899.369 L 1224.02 901.355 C 1217.42 898.508 1210.83 895.628 1204.27 892.715 C 1194.01 887.072 1179.57 882.518 1168.57 877.986 C 1145.79 868.598 1122.41 859.638 1099.98 849.494 C 1087.45 844.959 1068.01 837.497 1056.07 831.695 C 1052.58 830.724 1049.47 829.98 1045.97 829.112 C 1043.28 821.436 1030.52 783.209 1029.95 777.186 z" fill="rgb(192,208,224)" transform="translate(0,0)"></path>
<path d="M 1029.95 777.186 C 1038.05 782.428 1046.62 788.518 1054.49 794.14 C 1056.83 795.347 1069.59 803.893 1072.72 806.037 C 1083.15 813.16 1100.66 822.163 1109.82 829.734 C 1103.82 828.962 1104.7 827.698 1098.94 824.909 C 1095.31 823.154 1089.17 815.721 1086.04 819.326 C 1083.76 821.947 1084.88 841.363 1084.85 841.343 C 1090.5 844.72 1094.28 843.71 1099.98 849.494 C 1087.45 844.959 1068.01 837.497 1056.07 831.695 C 1052.58 830.724 1049.47 829.98 1045.97 829.112 C 1043.28 821.436 1030.52 783.209 1029.95 777.186 z" fill="url(#Gradient10)" transform="translate(0,0)"></path>
<path d="M 1029.95 777.186 C 1038.05 782.428 1046.62 788.518 1054.49 794.14 C 1054.58 809.242 1053.38 816.455 1056.07 831.695 C 1052.58 830.724 1049.47 829.98 1045.97 829.112 C 1043.28 821.436 1030.52 783.209 1029.95 777.186 z" fill="rgb(192,208,224)" transform="translate(0,0)"></path>
<path d="M 1359.93 477.354 C 1367.21 469.008 1362.73 456.771 1369.07 451.243 C 1377.3 450.601 1375.33 450.026 1381.83 446.351 L 1381.94 449.383 L 1383.42 449.681 L 1383.62 446.237 L 1385.99 446.517 L 1386.69 448.627 C 1385.4 449.428 1385.79 448.869 1385.44 450.238 L 1388.14 450.976 C 1389.4 451.667 1392.09 452.662 1392.31 453.974 C 1393.89 463.356 1388.43 471.439 1399.9 476.377 C 1395.2 482.792 1386.21 501.641 1382.19 509.745 L 1344.89 585.264 C 1340.14 595.046 1328.79 620.175 1323.21 628.268 C 1334.7 578.994 1346.91 526.14 1359.93 477.354 z" fill="rgb(148,164,190)" transform="translate(0,0)"></path>
<path d="M 1059.19 400.32 C 1065.96 398.151 1119.5 395.076 1126.99 396.691 C 1135.72 407.162 1139.13 399.081 1141.16 406.939 C 1148.01 433.478 1154.88 460.063 1162.98 486.256 C 1136.12 466.108 1108.95 439.773 1082.01 419.078 C 1074.38 413.219 1067.57 406.035 1059.19 400.32 z" fill="url(#Gradient9)" transform="translate(0,0)"></path>
<path d="M 1645.96 968.616 C 1652.13 972.039 1672.16 993.102 1679.11 999.416 C 1708.93 1026.53 1737.42 1056.3 1767.11 1083.38 C 1757.78 1081.97 1666.59 1033.35 1652.37 1025.68 L 1645.96 968.616 z" fill="rgb(16,185,129)" transform="translate(0,0)"></path>
<path d="M 1407.6 602.036 L 1410.53 604.304 C 1404.84 645.796 1400.98 687.812 1394.88 729.309 C 1392.48 745.675 1390.93 765.32 1387.88 781.109 C 1380.47 765.908 1370.61 748.974 1362.36 733.947 C 1363.54 728.697 1365.41 723.309 1367.19 718.2 C 1380.57 679.603 1392.66 640.05 1407.6 602.036 z" fill="url(#Gradient8)" transform="translate(0,0)"></path>
<path d="M 1307.31 696.204 C 1309.91 697.347 1310.73 697.885 1313.15 699.439 C 1313.84 699.903 1313.59 699.699 1314.3 700.418 L 1315.6 701.228 C 1316.59 701.82 1317.35 702.334 1318.01 703.279 C 1321.97 706.194 1325.79 709.122 1330.08 711.462 C 1330.78 711.877 1330.8 711.933 1331.43 712.497 C 1333.18 713.508 1334.21 714.418 1335.81 715.684 C 1336.57 715.935 1336.51 715.958 1337.11 716.557 C 1344.72 721.834 1352.33 726.882 1359.32 732.958 C 1358.19 737.535 1354.74 753.541 1352.64 756.818 C 1347.57 758.378 1343.58 759.111 1339.47 762.39 C 1336.19 769.343 1343 775.098 1348.38 778.831 C 1351.62 797.014 1353.92 815.318 1356.79 833.56 C 1360.27 855.671 1364.22 877.657 1367.26 899.838 L 1365.16 898.692 C 1350 840.064 1333.38 781.822 1315.33 724.019 C 1313 718.368 1306.7 701.846 1307.31 696.204 z" fill="url(#Gradient7)" transform="translate(0,0)"></path>
<path d="M 1307.31 696.204 C 1309.91 697.347 1310.73 697.885 1313.15 699.439 C 1313.84 699.903 1313.59 699.699 1314.3 700.418 L 1315.6 701.228 C 1316.59 701.82 1317.35 702.334 1318.01 703.279 C 1321.97 706.194 1325.79 709.122 1330.08 711.462 L 1329.96 712.589 C 1327.54 714.396 1325.04 717.602 1322.1 717.93 C 1320.73 718.083 1322.36 713.245 1321.68 712.498 C 1321.21 712.407 1314.89 713.816 1314.79 714.704 C 1314.34 718.662 1316.27 718.955 1315.33 724.019 C 1313 718.368 1306.7 701.846 1307.31 696.204 z" fill="rgb(112,130,155)" transform="translate(0,0)"></path>
<path d="M 1361.06 737.216 C 1364.79 743.102 1368.27 749.771 1371.64 755.927 C 1373.05 758.443 1374.22 760.805 1375.55 763.338 C 1377.6 767.12 1384.44 780.402 1386.75 782.896 C 1387.87 791.119 1375.81 869.01 1373.17 881.434 C 1372.66 887.698 1371.42 894.06 1370.85 900.172 L 1370.15 900.708 L 1370.62 901.356 C 1370.57 901.513 1370.51 901.67 1370.46 901.827 C 1370.23 900.789 1370.31 901.276 1370.2 900.369 C 1369.25 897.815 1367.56 888.694 1367.51 886.094 C 1361.68 856.36 1354.83 810.892 1351.36 779.554 C 1351.23 778.411 1354.26 777.036 1355.72 776.134 C 1358.83 773.182 1360.13 771.256 1360.02 766.909 C 1353.73 755.148 1357.13 750.677 1361.06 737.216 z" fill="url(#Gradient6)" transform="translate(0,0)"></path>
<path d="M 1355.72 776.134 C 1356.31 776.785 1356.9 777.436 1357.5 778.087 C 1359.42 792.35 1360.47 811.962 1363.81 825.643 C 1364.14 827.73 1365.99 839.837 1365.95 841.023 C 1365.63 853.202 1374.74 876.095 1367.51 886.094 C 1361.68 856.36 1354.83 810.892 1351.36 779.554 C 1351.23 778.411 1354.26 777.036 1355.72 776.134 z" fill="url(#Gradient5)" transform="translate(0,0)"></path>
<path d="M 1363.81 825.643 C 1364.31 822.651 1364.8 821.534 1365.43 819 C 1365.73 817.785 1365.24 814.093 1365.67 811.749 C 1366.21 811.927 1365.98 814.921 1366 815.342 C 1366.21 819.415 1365.47 823.281 1366.53 827.255 C 1366.94 828.756 1365.61 830.67 1366.68 832.58 C 1366.92 834.243 1367.21 836.026 1367.68 837.594 C 1368.46 840.248 1367.29 842.206 1369.01 844.697 C 1370.45 846.781 1370.85 850.78 1371.5 852.977 C 1373.2 858.692 1371.99 863.781 1373.03 869.518 C 1373.55 872.008 1371.84 873.078 1373.04 875.502 C 1373.66 876.743 1373.27 880.01 1373.17 881.434 C 1372.66 887.698 1371.42 894.06 1370.85 900.172 L 1370.15 900.708 L 1370.62 901.356 C 1370.57 901.513 1370.51 901.67 1370.46 901.827 C 1370.23 900.789 1370.31 901.276 1370.2 900.369 C 1369.25 897.815 1367.56 888.694 1367.51 886.094 C 1374.74 876.095 1365.63 853.202 1365.95 841.023 C 1365.99 839.837 1364.14 827.73 1363.81 825.643 z" fill="rgb(148,164,190)" transform="translate(0,0)"></path>
<path d="M 1371.64 755.927 C 1373.05 758.443 1374.22 760.805 1375.55 763.338 C 1371.69 775.503 1371.52 759.23 1371.64 755.927 z" fill="rgb(148,164,190)" transform="translate(0,0)"></path>
<path d="M 939.301 684.279 C 963.443 689.619 987.503 695.324 1011.47 701.394 C 1030.12 721.843 1048.18 744.673 1067.42 764.274 L 1066.56 765.674 C 1059.84 763.36 1030.37 743.975 1021.91 738.839 C 993.345 721.505 964.738 703.231 935.615 686.787 L 939.301 684.279 z" fill="rgb(192,208,224)" transform="translate(0,0)"></path>
<path d="M 1238.64 671.292 C 1237.38 668.035 1237.32 667.577 1236.71 664.286 C 1238.45 664.951 1238.95 667.181 1240.06 669.428 C 1267.07 727.124 1293.49 784.338 1318.04 843.14 C 1320.78 849.717 1322.4 857.453 1324.95 864.173 C 1329.5 873.928 1331.68 879.439 1335.23 889.693 C 1328.64 881.708 1325.64 872.931 1321.07 864.322 L 1294.33 814.282 C 1288.21 803.075 1272.96 781.269 1269.76 770.373 C 1260 737.114 1250.67 703.972 1238.64 671.292 z" fill="rgb(192,208,224)" transform="translate(0,0)"></path>
<path d="M 1651.7 1030.4 C 1685 1048.84 1725.22 1067.51 1759.72 1084.5 L 1755.73 1086.33 C 1745.62 1082.6 1716.87 1077.58 1704.76 1075 C 1683.48 1070.47 1663.41 1065.19 1642.35 1060.22 C 1645.56 1049.85 1648.91 1041.15 1651.7 1030.4 z" fill="rgb(3,122,104)" transform="translate(0,0)"></path>
<path d="M 1220.06 541.674 C 1221.58 541.288 1221.44 541.499 1223.14 541.738 C 1225.89 548.03 1230.75 633.484 1231.6 647.027 C 1229.11 641.594 1226.67 636.141 1224.27 630.669 C 1214.27 609.519 1206.11 588.26 1197.96 566.359 C 1199.09 559.592 1199.49 557.162 1199.47 550.225 C 1207.97 544.195 1209.6 542.12 1220.06 541.674 z" fill="rgb(192,208,224)" transform="translate(0,0)"></path>
<path d="M 931.204 710.174 C 938.229 713.956 1017.41 768.884 1018.52 770.611 C 1012.57 778.03 1007.28 784.719 1001 791.95 C 982.134 770.876 963.189 751.318 945.923 728.692 C 941.245 722.561 935.14 717.25 931.204 710.174 z" fill="rgb(192,208,224)" transform="translate(0,0)"></path>
<path d="M 1308.1 673.116 C 1331.55 610.043 1365.55 549.501 1394.56 488.742 C 1397.09 483.434 1398.1 479.545 1403.16 477.836 C 1404.63 492.689 1323.72 651.958 1310.14 673.892 L 1308.1 673.116 z" fill="rgb(192,208,224)" transform="translate(0,0)"></path>
<path d="M 1257.31 838.997 C 1262.53 844.875 1285.49 872.765 1288.6 878.673 C 1284.26 886.532 1283.25 901.803 1283.04 910.826 C 1279.5 909.379 1263.7 900.992 1261.66 898.172 C 1256.59 886.674 1248.97 874.188 1244.33 862.284 C 1248.15 864.433 1248.17 867.236 1250 871.42 C 1254.1 863.074 1255.74 860.569 1257.51 851.497 C 1259.08 843.462 1257.7 845.598 1257.31 838.997 z" fill="url(#Gradient4)" transform="translate(0,0)"></path>
<path d="M 1639.69 967.86 C 1641.75 969.776 1645.07 1016.99 1645.28 1023.11 C 1633.64 1019.23 1625.59 1016.54 1613.92 1012 C 1607.61 1009.46 1600.53 1006.21 1594.28 1003.92 C 1605.64 994.451 1627.97 976.432 1639.69 967.86 z" fill="rgb(16,185,129)" transform="translate(0,0)"></path>
<path d="M 1202.58 772.112 C 1212.64 782.246 1225.25 798.84 1234.83 810.074 C 1239.04 815 1254.1 833.835 1257.31 838.997 C 1257.7 845.598 1259.08 843.462 1257.51 851.497 C 1255.74 860.569 1254.1 863.074 1250 871.42 C 1248.17 867.236 1248.15 864.433 1244.33 862.284 C 1241.84 859.206 1204.27 777.967 1202.58 772.112 z" fill="rgb(148,164,190)" transform="translate(0,0)"></path>
<path d="M 1143.53 889.22 C 1142.46 888.603 1138.92 886.84 1138.73 885.53 C 1139.52 883.993 1144.32 887.075 1144.89 887.395 C 1148.32 888.791 1162 894.043 1164.78 894.627 C 1171.75 898.297 1183.15 903.179 1190.58 906.258 C 1196.24 918.982 1201.42 919.989 1205.2 934.656 C 1203.49 934.438 1201.79 934.194 1200.09 933.924 L 1199.01 934.242 C 1195.28 935.176 1195.45 935.857 1192.68 939.068 C 1189.37 937.139 1188.25 936.719 1185.32 934.244 C 1183.16 930.567 1182.48 936.571 1178.9 932.582 C 1167.05 919.398 1154.19 907.095 1142.69 893.617 C 1142.37 893.244 1140.14 891.07 1140.78 890.237 C 1141.34 890.111 1142.1 890.714 1142.52 890.962 L 1144.38 890.939 L 1144.76 890.12 L 1143.53 889.22 z" fill="rgb(192,208,224)" transform="translate(0,0)"></path>
<path d="M 1185.32 934.244 C 1186.4 929.056 1189.08 930.023 1187.69 926.424 C 1188.74 924.67 1201.55 927.826 1200.09 933.924 L 1199.01 934.242 C 1195.28 935.176 1195.45 935.857 1192.68 939.068 C 1189.37 937.139 1188.25 936.719 1185.32 934.244 z" fill="rgb(252,251,253)" transform="translate(0,0)"></path>
<path d="M 1144.76 890.12 C 1150.19 893.47 1158.04 900.622 1162.81 905.014 L 1160.3 904.94 C 1157.47 902.309 1150.74 896.452 1147.53 894.734 C 1146.5 893.45 1145.45 892.185 1144.38 890.939 L 1144.76 890.12 z" fill="rgb(59,61,66)" transform="translate(0,0)"></path>
<path d="M 1172.25 913.145 C 1174.12 914.715 1185.05 923.992 1185.21 925.453 L 1185.05 925.831 C 1182.89 926.335 1174.21 917.296 1171.99 915.5 L 1172.25 913.145 z" fill="rgb(91,99,112)" transform="translate(0,0)"></path>
<path d="M 1162.98 905.582 C 1166.38 907.786 1167.88 909.312 1170.78 912.127 L 1168.17 911.94 C 1166.66 910.609 1165.48 909.621 1163.89 908.414 C 1163.48 907.538 1163.25 906.528 1162.98 905.582 z" fill="rgb(59,61,66)" transform="translate(0,0)"></path>
<path d="M 1170.78 912.127 C 1171.27 912.466 1171.76 912.806 1172.25 913.145 L 1171.99 915.5 C 1170.03 914.313 1169.75 913.765 1168.17 911.94 L 1170.78 912.127 z" fill="rgb(148,164,190)" transform="translate(0,0)"></path>
<path d="M 1162.81 905.014 L 1162.98 905.582 C 1163.25 906.528 1163.48 907.538 1163.89 908.414 C 1162.03 907.427 1161.68 906.686 1160.3 904.94 L 1162.81 905.014 z" fill="rgb(148,164,190)" transform="translate(0,0)"></path>
<path d="M 1190.58 906.258 C 1227 920.602 1270.11 934.025 1304.81 949.884 C 1276.31 945.324 1233.06 937.175 1205.2 934.656 C 1201.42 919.989 1196.24 918.982 1190.58 906.258 z" fill="url(#Gradient3)" transform="translate(0,0)"></path>
<path d="M 1192.68 939.068 C 1195.45 935.857 1195.28 935.176 1199.01 934.242 C 1201.3 936.323 1234.54 940.972 1240.52 942.131 C 1259.63 945.417 1279.24 947.598 1298.2 951.822 L 1298.78 952.778 L 1299.44 952.44 L 1299.51 952.471 C 1298.61 953.124 1297.23 952.984 1296.16 953.11 C 1291.94 954.437 1288.16 953.943 1283.67 953.843 C 1281.77 953.958 1279.87 954.144 1277.98 954.227 C 1275.65 955.074 1274.58 955.392 1272.15 955.989 L 1273.16 957.011 L 1275.37 956.589 C 1282.09 955.441 1290.15 956.326 1297.56 955.542 L 1298.86 957.746 L 1291.51 959.187 L 1286.51 960.173 C 1282.82 960.882 1279.16 961.75 1275.46 962.409 C 1272.99 962.947 1270.69 963.423 1268.25 964.109 C 1267.16 974.351 1254.16 963.86 1249.66 961.648 C 1233.1 954.849 1217.46 944.946 1200.99 938.077 C 1199.32 937.38 1196.48 939.843 1192.68 939.068 z" fill="url(#Gradient2)" transform="translate(0,0)"></path>
<path d="M 1249.66 961.648 C 1248.35 948.056 1253.68 956.519 1266.01 954.592 C 1268.62 954.184 1270.33 954.116 1272.15 955.989 L 1273.16 957.011 L 1275.37 956.589 C 1282.09 955.441 1290.15 956.326 1297.56 955.542 L 1298.86 957.746 L 1291.51 959.187 L 1286.51 960.173 C 1282.82 960.882 1279.16 961.75 1275.46 962.409 C 1272.99 962.947 1270.69 963.423 1268.25 964.109 C 1267.16 974.351 1254.16 963.86 1249.66 961.648 z" fill="rgb(192,208,224)" transform="translate(0,0)"></path>
<path d="M 1267.07 956.072 C 1266.85 959.328 1266.88 960.903 1267.07 964.16 C 1261.67 968.86 1252.48 963.025 1265.53 956.813 L 1267.07 956.072 z" fill="rgb(252,251,253)" transform="translate(0,0)"></path>
<path d="M 1240.52 942.131 C 1259.63 945.417 1279.24 947.598 1298.2 951.822 L 1298.78 952.778 L 1299.44 952.44 L 1299.51 952.471 C 1298.61 953.124 1297.23 952.984 1296.16 953.11 C 1291.94 954.437 1288.16 953.943 1283.67 953.843 C 1281.77 953.958 1279.87 954.144 1277.98 954.227 C 1271.02 949.676 1248.77 948.995 1246.45 946.004 C 1246.44 945.924 1246.44 945.843 1246.43 945.762 C 1244.92 944.362 1242.61 943.703 1240.52 942.131 z" fill="rgb(148,164,190)" transform="translate(0,0)"></path>
<path d="M 1283.67 953.843 C 1287 953.138 1293.04 952.03 1296.16 953.11 C 1291.94 954.437 1288.16 953.943 1283.67 953.843 z" fill="rgb(91,99,112)" transform="translate(0,0)"></path>
<path d="M 929.588 713.536 C 932.609 714.978 933.067 716.068 935.022 718.753 C 945.786 731.962 956.663 745.077 967.654 758.098 C 968.224 758.451 968.195 758.537 968.602 759.154 L 981.614 774.176 C 982.224 774.502 982.169 774.614 982.54 775.256 C 986.786 779.982 995.229 788.92 998.812 793.789 L 1000.85 796.408 L 1002.07 796.993 C 1005.23 800.142 1010.32 805.533 1013.61 808.214 C 1014.2 808.482 1014.13 808.527 1014.56 809.151 L 1020.73 814.712 C 1022.75 816.569 1024.68 817.831 1025.34 820.386 C 1024.38 819.905 1022.64 819.12 1021.83 818.536 C 1010.67 812.38 999.368 806.29 988.473 799.7 C 986.663 798.384 987.025 798.77 984.718 798.116 C 977.122 794.571 975.785 790.887 971.262 783.742 C 958.959 762.777 946.482 741.916 933.832 721.159 L 929.588 713.536 z" fill="rgb(192,208,224)" transform="translate(0,0)"></path>
<path d="M 1053.16 835.952 L 1050.15 833.31 C 1056.45 831.59 1148.41 873.228 1161.39 877.326 C 1165.89 878.748 1180.57 884.579 1185.58 886.494 L 1188.77 887.637 C 1189.6 887.853 1189.47 887.835 1190.19 888.383 C 1193.01 889.626 1197.03 890.883 1198.44 893.32 L 1186.08 890.139 C 1164.16 884.707 1142.15 878.695 1120.02 873.965 C 1117.84 873.5 1103.13 864.569 1100.07 862.815 L 1053.16 835.952 z" fill="rgb(192,208,224)" transform="translate(0,0)"></path>
<path d="M 1167.59 493.401 C 1175.62 496.929 1200.44 517.797 1209.72 524.382 L 1209.38 524.165 C 1210.35 527.111 1211.35 530.045 1212.38 532.968 C 1214.3 538.27 1213.85 537.882 1208.8 540.382 L 1207.51 541.032 C 1204.12 542.697 1200.52 545.198 1197.27 547.261 C 1189.55 539.371 1192.16 541.311 1180.39 540.048 C 1176.3 524.419 1171.61 509.011 1167.59 493.401 z" fill="rgb(192,208,224)" transform="translate(0,0)"></path>
<path d="M 1021.33 772.074 C 1023.97 773.493 1025.5 774.38 1027.25 776.887 C 1031.13 793.469 1038.64 812.041 1043.31 829.617 C 1026.44 820.831 1017.19 805.67 1003.2 795.96 C 1002.48 791.803 1017.87 775.794 1021.33 772.074 z" fill="rgb(192,208,224)" transform="translate(0,0)"></path>
<path d="M 1283.04 910.826 C 1283.25 901.803 1284.26 886.532 1288.6 878.673 L 1289.8 880.289 C 1304.76 900.698 1320.56 920.468 1337.18 939.547 C 1323.95 931.861 1296.86 916.741 1283.04 910.826 z" fill="url(#Gradient1)" transform="translate(0,0)"></path>
<path d="M 1364.85 422.178 C 1381.18 422.407 1386.71 436.615 1372.11 445.792 L 1370.78 445.689 C 1354.02 444.554 1351.72 431.172 1364.85 422.178 z" fill="rgb(148,164,190)" transform="translate(0,0)"></path>
<path d="M 1364.18 425.598 C 1367.3 424.104 1370.98 424.447 1373.77 426.489 C 1376.56 428.53 1378.01 431.941 1377.53 435.365 C 1377.05 438.789 1374.72 441.672 1371.48 442.869 C 1366.78 444.603 1361.54 442.335 1359.59 437.717 C 1357.63 433.1 1359.66 427.763 1364.18 425.598 z" fill="rgb(8,12,20)" transform="translate(0,0)"></path>
<path d="M 1362.51 434.086 C 1362.45 431.914 1363.63 429.897 1365.55 428.88 C 1367.47 427.863 1369.8 428.022 1371.57 429.29 C 1373.33 430.559 1374.22 432.717 1373.87 434.86 C 1373.39 437.769 1370.78 439.837 1367.84 439.636 C 1364.9 439.435 1362.59 437.032 1362.51 434.086 z" fill="rgb(192,208,224)" transform="translate(0,0)"></path>
<path d="M 1395.98 470.654 C 1390.27 457.826 1402.56 449.28 1411.64 453.444 C 1426.34 460.182 1416.8 478.602 1399.69 474.079 C 1398 473.306 1397.17 472.049 1395.98 470.654 z" fill="rgb(192,208,224)" transform="translate(0,0)"></path>
<path d="M 1397.07 461.124 C 1398.34 456.718 1402.63 453.891 1407.18 454.458 C 1411.73 455.025 1415.2 458.817 1415.35 463.4 C 1415.5 467.983 1412.3 471.997 1407.79 472.864 C 1403.29 473.731 1398.82 471.195 1397.26 466.883 C 1396.35 463.836 1396.28 464.296 1397.07 461.124 z" fill="rgb(8,12,20)" transform="translate(0,0)"></path>
<path d="M 1397.07 461.124 C 1396.53 463.016 1396.59 465.032 1397.26 466.883 C 1396.35 463.836 1396.28 464.296 1397.07 461.124 z" fill="rgb(91,99,112)" transform="translate(0,0)"></path>
<path d="M 1404.93 456.951 C 1408.62 456.351 1412.12 458.782 1412.85 462.45 C 1413.58 466.117 1411.27 469.701 1407.63 470.555 C 1405.16 471.134 1402.57 470.32 1400.88 468.432 C 1399.19 466.544 1398.66 463.882 1399.5 461.491 C 1400.35 459.099 1402.43 457.359 1404.93 456.951 z" fill="rgb(252,251,253)" transform="translate(0,0)"></path>
<path d="M 1226.37 516.45 L 1228.14 516.884 C 1235.07 518.368 1240.71 522.903 1239.21 530.521 C 1238.36 534.873 1230.99 538.09 1227.54 539.768 C 1219.54 537.53 1211.78 531.755 1216.62 522.693 C 1218.15 519.862 1220.78 517.794 1223.89 516.985 C 1224.17 516.929 1224.45 516.873 1224.72 516.817 L 1226.37 516.45 z" fill="rgb(192,208,224)" transform="translate(0,0)"></path>
<path d="M 1222.66 519.635 C 1225.64 518.04 1229.27 518.213 1232.09 520.086 C 1234.91 521.96 1236.47 525.23 1236.16 528.601 C 1235.84 531.972 1233.7 534.898 1230.59 536.22 C 1226.06 538.141 1220.82 536.158 1218.69 531.718 C 1216.57 527.278 1218.32 521.954 1222.66 519.635 z" fill="rgb(8,12,20)" transform="translate(0,0)"></path>
<path d="M 1225.26 522.318 C 1228.06 521.538 1231 522.987 1232.08 525.683 C 1233.17 528.378 1232.05 531.459 1229.49 532.836 C 1227.56 533.873 1225.21 533.716 1223.44 532.43 C 1221.67 531.145 1220.79 528.958 1221.18 526.803 C 1221.56 524.649 1223.15 522.906 1225.26 522.318 z" fill="rgb(252,251,253)" transform="translate(0,0)"></path>
<path d="M 1182.07 544.437 C 1186.06 543.698 1190.14 545.187 1192.72 548.325 C 1195.29 551.463 1195.96 555.753 1194.47 559.527 C 1192.97 563.302 1189.54 565.964 1185.51 566.477 C 1179.52 567.242 1174 563.099 1173.07 557.13 C 1172.14 551.162 1176.13 545.536 1182.07 544.437 z" fill="rgb(112,130,155)" transform="translate(0,0)"></path>
<path d="M 1193.31 557.044 C 1192.67 561.666 1188.66 565.065 1183.99 564.934 C 1179.33 564.804 1175.51 561.187 1175.13 556.537 C 1174.74 551.887 1177.92 547.693 1182.5 546.801 C 1187.08 545.908 1191.6 548.603 1192.99 553.057 C 1193.3 555.014 1193.31 555.077 1193.31 557.044 z" fill="rgb(8,12,20)" transform="translate(0,0)"></path>
<path d="M 1183.26 550.446 C 1186 549.894 1188.72 551.497 1189.56 554.163 C 1190.39 556.829 1189.09 559.698 1186.52 560.813 C 1184.61 561.648 1182.38 561.315 1180.79 559.957 C 1179.2 558.598 1178.53 556.452 1179.05 554.429 C 1179.58 552.405 1181.21 550.859 1183.26 550.446 z" fill="rgb(252,251,253)" transform="translate(0,0)"></path>
<path d="M 1183.43 898.482 C 1216.69 906.801 1240.68 917.814 1271.14 931.26 L 1267.49 932.291 C 1258.32 928.517 1248.92 926.024 1239.76 922.58 C 1220.84 915.467 1201.17 908.299 1182.66 900.262 L 1183.43 898.482 z" fill="rgb(192,208,224)" transform="translate(0,0)"></path>
<path d="M 1009.7 608.456 C 999.494 592.783 1017.54 584.721 1023.57 595.631 C 1026.89 601.641 1022.85 611.524 1012.61 609.368 C 1011.64 609.064 1010.67 608.76 1009.7 608.456 z" fill="rgb(148,164,190)" transform="translate(0,0)"></path>
<path d="M 1010.65 606.711 C 1009.53 604.614 1007.12 599.294 1008.6 596.958 C 1017.91 582.269 1031.84 607.2 1013.06 608.41 L 1010.65 606.711 z" fill="rgb(8,12,20)" transform="translate(0,0)"></path>
<path d="M 1014.2 596.646 C 1016.05 596.042 1018.06 596.924 1018.87 598.697 C 1019.68 600.469 1019.03 602.567 1017.36 603.57 C 1016.09 604.327 1014.51 604.294 1013.28 603.486 C 1012.05 602.678 1011.39 601.237 1011.59 599.779 C 1011.78 598.32 1012.8 597.103 1014.2 596.646 z" fill="rgb(252,251,253)" transform="translate(0,0)"></path>
<path d="M 1010.65 606.711 L 1013.06 608.41 L 1012.61 609.368 C 1011.64 609.064 1010.67 608.76 1009.7 608.456 L 1010.65 606.711 z" fill="rgb(112,130,155)" transform="translate(0,0)"></path>
<path d="M 1415.16 211.212 C 1419.4 210.01 1423.81 212.47 1425.01 216.707 C 1426.21 220.944 1423.75 225.352 1419.51 226.553 C 1415.28 227.754 1410.87 225.294 1409.67 221.058 C 1408.47 216.822 1410.93 212.414 1415.16 211.212 z" fill="rgb(252,251,253)" transform="translate(0,0)"></path>
<path d="M 1271.14 931.26 C 1285.64 935.86 1302.38 944.52 1316.52 950.625 C 1307.57 949.387 1277.02 936.45 1267.49 932.291 L 1271.14 931.26 z" fill="rgb(148,164,190)" transform="translate(0,0)"></path>
<path d="M 1322.4 953.292 C 1318.76 955.965 1303.96 957.241 1298.86 957.746 L 1297.56 955.542 C 1304.88 953.87 1314.67 953.674 1322.4 953.292 z" fill="rgb(112,130,155)" transform="translate(0,0)"></path>
<path d="M 1347.38 764.504 C 1349 763.629 1351.02 764.235 1351.89 765.857 C 1352.76 767.478 1352.14 769.497 1350.51 770.357 C 1348.9 771.211 1346.9 770.599 1346.04 768.989 C 1345.17 767.378 1345.78 765.374 1347.38 764.504 z" fill="rgb(192,208,224)" transform="translate(0,0)"></path>
<path d="M 1337.45 882.437 C 1339.65 888.631 1341.03 893.154 1342.15 899.632 C 1338.41 895.442 1338.42 890.097 1336.04 884.63 L 1337.45 882.437 z" fill="rgb(148,164,190)" transform="translate(0,0)"></path>
<path d="M 1047.19 415.36 C 1046.93 419.514 1046.57 426.058 1045.57 430.028 C 1044.64 427.376 1044.8 427.574 1042.56 425.892 C 1043.23 423.668 1046.15 417.54 1047.19 415.36 z" fill="rgb(112,130,155)" transform="translate(0,0)"></path>
<path d="M 1309.51 1203.8 L 1309.87 1205.73 C 1310.35 1208.56 1311 1211.36 1311.53 1214.18 L 1309.96 1215.52 C 1308.85 1212.05 1307.64 1209.38 1306.36 1206.02 L 1309.51 1203.8 z" fill="rgb(16,185,129)" transform="translate(0,0)"></path>
<path d="M 1365.16 898.692 L 1367.26 899.838 L 1367.83 900.805 C 1368.13 903.242 1369.37 908.721 1368.7 910.688 C 1367.22 915.046 1365.13 898.557 1365.16 898.692 z" fill="rgb(91,99,112)" transform="translate(0,0)"></path>
<path d="M 1759.72 1084.5 C 1763.35 1085.8 1766.5 1088.11 1769.77 1090.1 C 1764.99 1088.89 1760.43 1087.55 1755.73 1086.33 L 1759.72 1084.5 z" fill="rgb(8,103,92)" transform="translate(0,0)"></path>
<path d="M 1407.6 602.036 C 1408.19 600.374 1409.28 596.925 1410.59 595.778 C 1410.87 595.866 1410.68 595.766 1411.19 596.294 C 1411.04 599.08 1411.01 601.553 1410.53 604.304 L 1407.6 602.036 z" fill="rgb(112,130,155)" transform="translate(0,0)"></path>
<path d="M 1308.1 673.116 L 1310.14 673.892 C 1309.54 675.249 1306.53 681.88 1305.46 682.323 C 1304.8 681.879 1305.12 679.731 1305.12 679.064 C 1306.43 676.769 1307.05 675.524 1308.1 673.116 z" fill="rgb(148,164,190)" transform="translate(0,0)"></path>
<path d="M 1170.8 895.22 L 1172.39 895.329 C 1175.4 895.458 1180.6 897.285 1183.43 898.482 L 1182.66 900.262 C 1178.65 898.703 1174.86 896.862 1170.8 895.22 z" fill="rgb(148,164,190)" transform="translate(0,0)"></path>
<path d="M 929.879 682.854 C 934.419 683.138 934.879 683.436 939.301 684.279 L 935.615 686.787 C 933.158 685.342 932.105 684.609 929.879 682.854 z" fill="rgb(148,164,190)" transform="translate(0,0)"></path>
<path d="M 1563.07 117.006 C 1565.16 112.591 1565.45 111.591 1568.55 108.067 C 1567.32 112.506 1566.56 114.165 1564.26 118.305 L 1563.07 117.006 z" fill="rgb(91,99,112)" transform="translate(0,0)"></path>
<path d="M 1274.86 198.635 C 1275.99 197.313 1280.66 191.318 1282.13 191.543 L 1282.22 191.669 C 1282.03 192.723 1279.4 195.694 1278.67 196.769 C 1277.92 197.632 1277.17 198.496 1276.41 199.36 L 1274.86 198.635 z" fill="rgb(112,130,155)" transform="translate(0,0)"></path>
<path d="M 925.33 665.837 L 928.97 666.963 C 926.413 669.374 925.363 670.372 922.552 672.383 C 923.524 669.685 923.914 668.308 925.33 665.837 z" fill="rgb(148,164,190)" transform="translate(0,0)"></path>
<path d="M 1279 1218.57 C 1283.32 1224.17 1284.11 1227.64 1277.67 1221.13 L 1279 1218.57 z" fill="rgb(8,103,92)" transform="translate(0,0)"></path>
<path d="M 1341.97 905.782 C 1342.92 906.855 1346.06 909.779 1345.42 911.505 C 1344.02 912.248 1341.61 907.913 1341.12 907.026 L 1341.97 905.782 z" fill="rgb(59,61,66)" transform="translate(0,0)"></path>
<path d="M 1224.72 899.369 C 1230.8 901.86 1232.05 904.423 1224.02 901.355 L 1224.72 899.369 z" fill="rgb(148,164,190)" transform="translate(0,0)"></path>
<path d="M 1534.43 1356.93 C 1535.47 1356.73 1536.09 1356.68 1537.15 1356.6 C 1536.94 1358.43 1535.89 1364.48 1534.77 1358.59 L 1534.43 1356.93 z" fill="rgb(19,71,79)" transform="translate(0,0)"></path>
<path d="M 1350.98 761.023 C 1353.12 760.09 1353.45 759.853 1354.06 762.115 C 1352.56 762.247 1352.35 761.909 1350.98 761.023 z" fill="rgb(91,99,112)" transform="translate(0,0)"></path>
<path d="M 1311.53 1214.18 C 1311.87 1215.51 1312.23 1216.27 1311.8 1217.54 C 1311.58 1217.73 1311.71 1217.67 1311.4 1217.69 C 1310.63 1217.27 1310.35 1216.29 1309.96 1215.52 L 1311.53 1214.18 z" fill="rgb(19,71,79)" transform="translate(0,0)"></path>
<metadata><recraft-signature>{"signed_by": "recraft", "signature_b64": "9u2mLOxU6CfQkq2vp57+6MvAv2/wKN3h6MNvgi4OAPwGAlDB0NjvtSUXc9sd5OdeBKk5gH0HdM24bMBkvgsiBw==", "signing_algo": "Ed25519", "generation_timestamp": 1774688450, "identifier": "b67d271a-e09e-497c-9473-95cfc29bbc0a"}</recraft-signature></metadata></svg>