<svg xmlns="http://www.w3.org/2000/svg" height="1024" preserveAspectRatio="none" style="display: block;" version="1.1" viewBox="0 0 2048 2048" width="1024">
<path d="M 0 0 L 2048 0 L 2048 2048 L 0 2048 L 0 0 z" fill="rgb(8,12,20)" transform="translate(0,0)"></path>
<path d="M 298.138 140.657 L 656.018 312.274 L 973.935 463.921 C 995.583 496.004 1029.41 549.185 1053.05 579.441 C 1056.84 584.286 1119.26 612.87 1130.03 617.742 C 1129.17 669.591 1128.88 721.448 1129.15 773.303 C 1129.13 803.322 1128.23 838.993 1129.62 868.661 C 1092.31 882.795 1055.1 897.195 1018 911.861 C 1001.24 918.393 975.362 929.28 958.554 934.107 L 702.025 809.109 C 776.688 809.071 861.691 810.178 936.339 814.354 L 943.852 815.493 L 946.546 814.04 L 930.762 810.809 C 927.71 809.706 914.316 806.871 910.222 805.935 C 890.024 801.503 869.779 797.287 849.491 793.287 L 673.275 756.402 C 664.421 747.88 649.398 729.36 639.997 719.247 C 604.908 681.506 571.214 642.186 536.854 603.714 C 563.829 610.033 592.096 614.671 619.449 620.496 C 705.622 639.096 791.901 657.198 878.284 674.799 C 839.802 657.265 795.398 640.503 755.888 624.223 L 508.58 522.637 L 410.953 363.2 C 523.034 419.57 642.015 467.086 752.593 525.326 L 754.485 524.111 C 651.849 456.237 549.622 387.746 447.809 318.644 C 433.476 308.867 419.047 299.232 404.525 289.74 C 399.351 286.324 381.558 275.162 378.724 271.378 C 369.091 258.517 358.902 240.099 350.481 226.108 C 333.333 197.442 315.884 168.957 298.138 140.657 z" fill="rgb(20,184,166)" transform="translate(0,0)"></path>
<path d="M 754.485 524.111 C 761.934 527.844 761.733 530.993 752.593 525.326 L 754.485 524.111 z" fill="rgb(6,77,66)" transform="translate(0,0)"></path>
<path d="M 946.546 814.04 C 947.237 814.384 948.273 814.693 948.676 815.416 C 948.631 815.532 948.586 815.649 948.541 815.765 C 947.07 816.325 945.317 815.796 943.852 815.493 L 946.546 814.04 z" fill="rgb(4,125,101)" transform="translate(0,0)"></path>
<path d="M 1152.01 627.376 C 1168.66 636.023 1193.85 653.558 1210.82 664.515 C 1247.49 688.038 1284.3 711.351 1321.24 734.452 C 1336.24 743.907 1358.01 759.175 1372.45 767.146 L 1372.77 919.336 L 1297.14 1013.33 C 1285.24 1028.3 1272.77 1045.86 1260.17 1059.87 C 1255.01 1065.6 1225.44 1076.42 1216.4 1080.31 L 1132.57 1116.68 C 1102.32 1129.86 1063.97 1148.32 1034.08 1159.98 C 1049.58 1131.02 1067.65 1093.88 1081.3 1063.66 L 1084.16 1057.93 L 1092.29 1041.5 L 1100.23 1025.11 C 1104.31 1016.04 1107.9 1008.1 1112.62 999.306 C 1114.27 995.341 1117.06 989.93 1118.98 985.906 C 1122.78 976.279 1127.33 967.04 1131.78 957.701 C 1133.66 952.892 1136.22 947.779 1138.43 943.069 C 1152.3 911.748 1151.55 915.248 1151.54 880.369 L 1151.56 828.037 L 1152.01 627.376 z" fill="rgb(192,208,224)" transform="translate(0,0)"></path>
<path d="M 1314.07 929.649 C 1314.23 915.134 1316.47 812.334 1312.92 808.817 C 1312.68 808.578 1310.44 806.992 1310.29 806.883 C 1306.23 803.941 1303.44 800.932 1302.56 795.833 C 1301.76 791.186 1302.87 784.816 1305.73 780.992 C 1307.85 778.168 1310.98 776.702 1314.45 776.375 C 1320.8 775.777 1326.58 777.944 1331.27 782.112 C 1331.85 782.632 1332.42 783.157 1332.98 783.688 L 1333 801.229 C 1332.79 801.517 1332.59 801.809 1332.37 802.094 C 1329.87 805.423 1324.62 807.133 1322.96 809.878 C 1320.51 813.926 1321.73 919.815 1322.66 933.582 C 1301.22 953.71 1280.98 975.086 1259.49 995.162 C 1255.7 998.704 1251.79 1002.13 1247.34 1004.82 C 1226.21 1005.34 1187.65 1001.62 1169.44 1005.81 C 1156.48 1008.79 1122.7 1028.32 1105.5 1034.49 C 1105.22 1038.54 1105.58 1041.39 1103.05 1044.39 C 1098.62 1046.03 1096.11 1043.88 1092.29 1041.5 L 1100.23 1025.11 C 1114.74 1027.77 1158.11 1000.45 1166.7 997.853 C 1178.73 994.212 1228.96 996.986 1244.44 997.056 C 1251.41 992.775 1307.58 937.405 1314.07 929.649 z" fill="rgb(20,184,166)" transform="translate(0,0)"></path>
<path d="M 1311.86 785.061 C 1314.84 784.976 1322.66 783.97 1324.33 786.642 C 1327.36 791.497 1327.01 796.533 1323.13 800.247 C 1311.03 801.733 1306.6 797.124 1311.86 785.061 z" fill="rgb(192,208,224)" transform="translate(0,0)"></path>
<path d="M 1179.74 705.101 C 1206.67 679.817 1224.05 722.012 1199.57 734.023 C 1197.97 755.869 1198.92 789.204 1198.91 811.81 L 1198.9 955.062 C 1182.41 955.081 1165.92 955.004 1149.43 954.83 C 1146.88 958.403 1146.18 960.125 1142.4 961.956 C 1137.87 962.512 1135.44 960.396 1131.78 957.701 C 1133.66 952.892 1136.22 947.779 1138.43 943.069 C 1151.29 950.168 1174.34 947.863 1190.03 947.692 C 1190.25 877.181 1190 802.79 1191.36 732.358 C 1174.83 729.695 1178.74 718.654 1179.74 705.101 z" fill="rgb(20,184,166)" transform="translate(0,0)"></path>
<path d="M 1193.12 705.965 C 1206.06 707.451 1205.3 720.303 1196.58 725.487 C 1184.17 723.484 1186.88 722.445 1187.25 709.567 C 1187.29 708.27 1190.41 706.984 1191.34 706.646 L 1193.12 705.965 z" fill="rgb(192,208,224)" transform="translate(0,0)"></path>
<path d="M 1272.1 920.214 L 1272.1 827.796 C 1272.1 809.197 1274.59 792.451 1267.78 775.406 C 1265.32 769.25 1274.77 763.176 1280.43 765.123 C 1297.58 770.477 1279.91 785.626 1279.85 788.112 C 1279.56 800.355 1279.89 812.564 1279.91 824.509 L 1279.99 925.709 C 1275.78 929.243 1264.18 938.436 1261.4 942.559 C 1260.9 956.302 1259.17 960.897 1245.06 957.63 C 1239.99 961.35 1227.98 974.177 1221.93 979.552 C 1201.33 980.662 1175.15 980.17 1154.95 981.413 C 1148.9 981.786 1119.48 995.597 1112.62 999.306 C 1114.27 995.341 1117.06 989.93 1118.98 985.906 C 1132.44 985.425 1142.35 975.602 1153.82 974.203 C 1173.52 971.801 1197.48 974.623 1216.93 971.931 C 1226.76 964.701 1232.14 959.887 1240.27 950.763 C 1240.83 945.807 1240.63 943.893 1243.15 939.798 C 1244.72 938.829 1244.84 938.226 1246.62 938.453 C 1257.55 939.844 1265.24 928.017 1272.1 920.214 z" fill="rgb(20,184,166)" transform="translate(0,0)"></path>
<path d="M 1237.65 1022.05 C 1240.84 1017.53 1245.78 1013.72 1251.58 1015.2 C 1259.55 1021.3 1256.6 1037.29 1247.54 1038.87 C 1241.68 1037.54 1240.61 1034.05 1237.98 1029.06 C 1231.45 1028.88 1196.3 1027.16 1192.51 1028.75 C 1167.79 1039.08 1141.36 1049.16 1117.24 1060.66 C 1112.27 1063.03 1105.76 1079.02 1097.69 1064.08 C 1094.27 1062.1 1085.76 1063.34 1081.3 1063.66 L 1084.16 1057.93 C 1101.91 1057.42 1099.84 1043.67 1112.27 1054.61 C 1132.99 1044.69 1155.56 1035.85 1176.48 1026.23 C 1192.43 1018.89 1219.23 1022.26 1237.65 1022.05 z" fill="rgb(20,184,166)" transform="translate(0,0)"></path>
<path d="M 1240.16 1041.76 C 1258.13 1043.48 1255.81 1073.24 1228.59 1056.62 C 1221.11 1056.41 1213.49 1056.75 1206 1056.99 C 1197.12 1063.69 1192.92 1069.08 1183.37 1059.91 C 1176.47 1062.66 1106.53 1093.36 1106.05 1095.49 C 1102.94 1109.36 1110.07 1124.81 1080.47 1125.3 C 1074.58 1123.01 1069.89 1118.42 1067.47 1112.58 C 1065.53 1107.83 1065.69 1102.48 1067.9 1097.84 C 1073.65 1085.67 1086.32 1084.58 1097.44 1089.68 C 1121.28 1077.48 1148.8 1067.92 1173.27 1056.3 C 1181.76 1052.27 1189.16 1042.18 1197.06 1046.72 C 1205.02 1051.29 1222.32 1049.21 1232.04 1049.05 C 1234.62 1046.21 1237.22 1044.2 1240.16 1041.76 z" fill="rgb(20,184,166)" transform="translate(0,0)"></path>
<path d="M 1082.04 1095.05 C 1085.96 1093.77 1090.26 1094.71 1093.3 1097.49 C 1096.34 1100.27 1097.64 1104.47 1096.72 1108.49 C 1095.79 1112.5 1092.78 1115.71 1088.83 1116.88 C 1082.83 1118.67 1076.51 1115.29 1074.66 1109.32 C 1072.8 1103.34 1076.09 1096.98 1082.04 1095.05 z" fill="rgb(192,208,224)" transform="translate(0,0)"></path>
<path d="M 1240.91 733.06 C 1242.25 732.959 1243.58 732.891 1244.92 732.855 C 1256.45 732.618 1263.35 737.858 1262.73 750.566 C 1262.34 758.344 1256.31 762.902 1250.6 767.417 C 1248.24 774.294 1248.5 904.023 1250.6 913.82 C 1258.07 921.243 1256.66 925.802 1250.02 932.9 C 1248.27 933.693 1247.91 933.645 1246.02 934.068 C 1239.66 931.685 1233.98 925.48 1236.43 918.325 C 1239.24 915.88 1241.57 914.417 1241.51 910.261 C 1241.31 895.637 1241.41 880.989 1241.49 866.364 L 1242.01 766.786 C 1232.25 761.422 1228.55 755.071 1231.43 743.141 C 1232.75 737.679 1236.07 735.511 1240.91 733.06 z" fill="rgb(20,184,166)" transform="translate(0,0)"></path>
<path d="M 1243.18 742.693 C 1247.17 740.808 1251.94 742.485 1253.87 746.455 C 1255.81 750.424 1254.19 755.212 1250.24 757.196 C 1247.65 758.501 1244.55 758.309 1242.13 756.693 C 1239.72 755.077 1238.36 752.287 1238.58 749.389 C 1238.79 746.491 1240.55 743.933 1243.18 742.693 z" fill="rgb(192,208,224)" transform="translate(0,0)"></path>
<path d="M 1403.48 420.646 C 1442.65 441.966 1483.05 461.202 1522.23 482.552 C 1528.15 485.775 1534.46 489.298 1540.45 492.256 C 1526.82 500.46 1512.62 510.33 1499.3 518.002 C 1511.43 524.882 1523.19 532.327 1535.03 539.693 C 1519.12 560.758 1499.16 583.065 1482.16 603.801 C 1445.86 648.732 1409.08 693.272 1371.83 737.413 C 1353.66 727.319 1335.42 717.363 1317.1 707.546 C 1314.73 706.525 1312.62 705.008 1310.47 703.602 L 1277.83 685.689 C 1274.51 684.424 1273.74 683.936 1270.76 681.959 C 1258.93 676.139 1246.06 668.761 1234.39 662.364 L 1227.41 658.707 C 1218.3 654.069 1209.23 649.33 1200.23 644.49 C 1199.03 644.047 1195.19 641.745 1193.87 640.992 C 1182.81 635.386 1171.91 629.455 1161.2 623.208 C 1177.36 603.784 1201.56 582.868 1217.36 563.188 C 1224.5 554.303 1236.24 533.237 1243.7 522.103 L 1248.24 514.834 C 1260.22 496.124 1272.96 477.528 1284.25 458.503 C 1317.03 449.237 1372.06 432.804 1403.48 420.646 z" fill="rgb(192,208,224)" transform="translate(0,0)"></path>
<path d="M 1243.7 522.103 C 1246.33 528.184 1245.08 576.942 1245.01 586.639 C 1234.68 596.79 1200.23 630.151 1193.87 640.992 C 1182.81 635.386 1171.91 629.455 1161.2 623.208 C 1177.36 603.784 1201.56 582.868 1217.36 563.188 C 1224.5 554.303 1236.24 533.237 1243.7 522.103 z" fill="rgb(192,208,224)" transform="translate(0,0)"></path>
<path d="M 1286 534.178 C 1264.27 524.783 1264.64 498.516 1283.79 493.685 C 1288.96 492.367 1294.44 493.18 1299.01 495.942 C 1310.1 502.677 1308.37 517.071 1302.14 526.512 C 1299.5 530.498 1296.12 531.623 1293.27 534.606 C 1295.09 546.981 1293.57 561.857 1293.99 574.389 C 1294.02 581.484 1293.64 588.884 1294.33 595.937 C 1295.15 604.304 1303.84 611.519 1297.81 619.989 C 1294.56 624.556 1288.08 623.493 1283.58 622.881 C 1276.66 627.182 1269.54 635.475 1264.59 641.985 C 1262.78 644.364 1257.31 653.955 1255.65 654.8 C 1243.62 660.93 1246.36 652.419 1234.39 662.364 L 1227.41 658.707 C 1242.04 650.075 1233.68 652.005 1242.64 639.722 C 1244.66 636.956 1253.16 637.675 1256.91 637.819 C 1262.63 632.17 1274.1 621.673 1277.7 615.442 C 1277.55 606.416 1276.59 606.267 1284.39 602.367 C 1286.5 597.578 1285.88 542.755 1286 534.178 z" fill="rgb(20,184,166)" transform="translate(0,0)"></path>
<path d="M 1284.25 502.565 C 1290.23 500.237 1296.97 503.124 1299.41 509.057 C 1301.85 514.989 1299.09 521.784 1293.2 524.336 C 1289.3 526.03 1284.78 525.482 1281.39 522.902 C 1278 520.322 1276.27 516.114 1276.86 511.896 C 1277.46 507.679 1280.28 504.11 1284.25 502.565 z" fill="rgb(192,208,224)" transform="translate(0,0)"></path>
<path d="M 1332.04 623.302 C 1329.93 617.184 1327.48 610.082 1330.1 603.516 C 1333.13 595.932 1344.15 593.359 1351.23 596.466 C 1355.37 598.306 1358.58 601.745 1360.13 605.995 C 1363.37 615.052 1359.12 625.946 1349.49 627.914 C 1344.51 628.932 1343.38 628.147 1338.68 627.841 C 1320.72 647.482 1296.94 667.249 1277.83 685.689 C 1274.51 684.424 1273.74 683.936 1270.76 681.959 C 1290.93 662.484 1312.54 643.447 1332.04 623.302 z" fill="rgb(20,184,166)" transform="translate(0,0)"></path>
<path d="M 1341.59 604.689 C 1344.43 603.525 1347.67 603.983 1350.08 605.886 C 1352.49 607.79 1353.68 610.843 1353.2 613.874 C 1352.72 616.905 1350.65 619.442 1347.77 620.511 C 1343.42 622.126 1338.58 619.958 1336.9 615.64 C 1335.21 611.321 1337.3 606.448 1341.59 604.689 z" fill="rgb(192,208,224)" transform="translate(0,0)"></path>
<path d="M 1248.24 514.834 C 1249.47 516.282 1251.48 518.488 1251.65 520.34 C 1253.72 541.843 1252.78 569.323 1252.91 590.527 C 1235.08 608.235 1217.68 627.294 1200.23 644.49 C 1199.03 644.047 1195.19 641.745 1193.87 640.992 C 1200.23 630.151 1234.68 596.79 1245.01 586.639 C 1245.08 576.942 1246.33 528.184 1243.7 522.103 L 1248.24 514.834 z" fill="rgb(20,184,166)" transform="translate(0,0)"></path>
<path d="M 1310.47 703.602 C 1315.25 699.51 1339.77 677.532 1344.99 671.025 C 1345.46 670.428 1342.44 665.096 1346.05 663.221 C 1352.47 656.671 1363.03 656.418 1364.99 666.987 C 1367.8 682.071 1348.09 678.139 1348.7 677.46 C 1339.05 688.083 1328.37 698.078 1317.1 707.546 C 1314.73 706.525 1312.62 705.008 1310.47 703.602 z" fill="rgb(20,184,166)" transform="translate(0,0)"></path>
<path d="M 1388.43 493.275 C 1400.73 490.903 1412.64 498.877 1415.13 511.15 C 1417.63 523.422 1409.77 535.415 1397.53 538.033 C 1389.5 539.75 1381.16 537.021 1375.7 530.887 C 1370.24 524.753 1368.49 516.158 1371.12 508.377 C 1373.75 500.597 1380.36 494.831 1388.43 493.275 z" fill="rgb(8,12,20)" transform="translate(0,0)"></path>
<path d="M 1134.78 889.133 L 1136.55 889.438 C 1141.61 906.1 1131.32 922.139 1124.28 936.464 L 1098.94 987.492 L 1013.66 1163.6 C 946.795 1193.79 872.318 1224.15 804.094 1252.02 L 802.688 1251.39 C 804.651 1244.11 814.978 1225.77 818.939 1218.34 C 830.455 1196.72 842.088 1175.16 853.836 1153.67 L 927.624 1014.99 C 938.989 993.797 953.673 964.591 966.092 944.576 C 1022.08 925.384 1078.32 906.902 1134.78 889.133 z" fill="rgb(20,184,166)" transform="translate(0,0)"></path>
<path d="M 870.18 1242.88 L 871.28 1243.12 C 872.574 1247.97 849.977 1295.19 846.379 1303.18 L 801.858 1401.55 C 791.696 1423.74 778.817 1457 768.571 1476.8 C 749.513 1485.74 729.505 1497.59 710.981 1507.87 C 689.994 1519.53 667.877 1531.19 647.593 1543.89 L 646.895 1543.75 C 646.585 1538.55 779.59 1302.57 793.944 1276.89 C 817.338 1265.35 845.719 1254.11 870.18 1242.88 z" fill="rgb(4,125,101)" transform="translate(0,0)"></path>
<path d="M 948.904 1207.03 C 949.261 1212.14 928.052 1297.62 925.29 1309.66 C 919.422 1334.35 914.367 1359.23 910.135 1384.26 C 883.707 1406.27 858.93 1428.25 833.39 1451.26 C 819.833 1463.48 805.597 1474.55 792.196 1487.14 C 791.86 1482.34 876.331 1262.46 885.723 1235.27 C 906.261 1225.29 927.968 1216.37 948.904 1207.03 z" fill="rgb(4,125,101)" transform="translate(0,0)"></path>
<path d="M 1039.7 1602.31 C 1056.25 1600.51 1073.95 1601.42 1088.37 1610.52 C 1099.97 1617.89 1107.98 1629.73 1110.52 1643.23 C 1116.45 1675.42 1095.52 1697.34 1065.22 1702.32 C 973.117 1711.73 969.98 1612.93 1039.7 1602.31 z" fill="rgb(192,208,224)" transform="translate(0,0)"></path>
<path d="M 1044.6 1616.35 C 1055.98 1614.64 1072.14 1616.7 1081.72 1623.33 C 1089.19 1628.57 1094.32 1636.52 1095.99 1645.5 C 1100.5 1669.73 1085.02 1684.11 1062.44 1688.29 C 1048.91 1689.61 1034.93 1689.22 1023.05 1681.8 C 1005.83 1671.05 1003.16 1645.07 1015.07 1629.55 C 1022.07 1620.45 1033.89 1617.72 1044.6 1616.35 z" fill="rgb(8,12,20)" transform="translate(0,0)"></path>
<path d="M 998.787 1185.05 C 1001.17 1187.63 1008.05 1283.44 1008.71 1294.41 C 983.45 1328.66 955.999 1363.77 929.962 1397.62 L 923.068 1406.62 C 932.886 1364.83 938.172 1312.69 945.691 1269.51 C 947.977 1256.39 954.873 1215.91 955.3 1203.85 C 969.395 1197.15 984.349 1191.1 998.787 1185.05 z" fill="rgb(4,125,101)" transform="translate(0,0)"></path>
<path d="M 1516.39 517.498 C 1527.49 511.357 1540.66 501.332 1551.25 496.394 C 1565.7 497.648 1586.07 501.328 1600.76 503.522 C 1633.11 508.345 1665.51 512.864 1697.94 517.077 C 1714.08 519.231 1735.79 522.75 1751.72 523.869 C 1752.68 524.691 1753.65 525.502 1754.63 526.301 C 1742.83 525.387 1706 528.409 1692.11 529.029 L 1543.02 535.71 C 1534.26 529.477 1525.38 523.405 1516.39 517.498 z" fill="rgb(192,208,224)" transform="translate(0,0)"></path>
<path d="M 787.557 1602.94 C 814.309 1601.9 851.832 1602.42 878.749 1602.86 C 878.778 1607.55 878.765 1612.24 878.711 1616.94 L 802.979 1616.97 L 802.915 1643 L 865.029 1642.95 L 865.013 1656.83 L 817.75 1656.95 L 802.816 1657.01 L 802.806 1687.65 L 878.75 1687.89 C 878.791 1692.61 878.787 1697.32 878.738 1702.03 L 787.399 1701.96 C 786.876 1672.7 786.437 1631.85 787.557 1602.94 z" fill="rgb(192,208,224)" transform="translate(0,0)"></path>
<path d="M 916.868 1770.24 C 946.521 1770.2 977.174 1770 1006.8 1770.45 C 1006.84 1775.11 1006.84 1779.78 1006.8 1784.44 C 981.84 1784.32 956.28 1784.1 931.349 1784.38 C 931.253 1793.01 931.215 1801.65 931.235 1810.29 L 995.737 1810.24 L 995.665 1824.13 C 981.145 1824.02 966.625 1823.98 952.105 1824.03 L 931.413 1824.08 C 931.293 1834.24 931.296 1844.4 931.423 1854.55 L 1006.04 1854.98 L 1005.98 1868.97 L 916.673 1869 C 916.62 1837.53 915.915 1801.31 916.868 1770.24 z" fill="rgb(192,208,224)" transform="translate(0,0)"></path>
<path d="M 1348.62 1602.34 C 1371 1600.71 1387.89 1605.53 1406.16 1617.96 C 1403.59 1621.49 1400.39 1625.08 1397.5 1628.38 C 1389.55 1624.04 1380.11 1619.16 1371 1618.05 C 1360.33 1616.74 1332.15 1612.81 1328.76 1627.47 C 1326.25 1638.35 1335.86 1641.29 1344.5 1642.93 C 1361.75 1646.19 1387.26 1643.61 1401.69 1655.33 C 1405.87 1658.72 1408.5 1663.65 1408.99 1669.01 C 1411.28 1695.7 1391.16 1702.23 1368.59 1703.37 C 1348.3 1703.62 1326.67 1700.51 1310.95 1686.54 C 1313.95 1682.67 1316.39 1679.81 1319.66 1676.16 C 1330.12 1682.39 1338.39 1685.69 1350.5 1687.9 C 1361.26 1689.86 1391.56 1690.43 1394.83 1676.5 C 1395.42 1673.95 1394.92 1671.27 1393.46 1669.1 C 1382.73 1653.49 1338.67 1663.17 1322.54 1649.95 C 1311.11 1640.57 1308.94 1627.37 1318.05 1615.53 C 1325.37 1606.01 1337.67 1603.6 1348.62 1602.34 z" fill="rgb(192,208,224)" transform="translate(0,0)"></path>
<path d="M 1159.66 1770.8 C 1164.73 1770.59 1168.88 1770.57 1173.97 1770.64 L 1173.92 1813.02 L 1243.92 1813.05 L 1243.89 1770.85 C 1248.8 1770.66 1253.71 1770.61 1258.61 1770.68 C 1259.43 1802.36 1259.13 1837.45 1258.9 1869.26 C 1253.89 1869.27 1248.87 1869.25 1243.86 1869.2 L 1243.86 1826.93 L 1174.23 1827.06 L 1174.19 1868.63 C 1169.08 1868.63 1164.44 1868.59 1159.35 1868.42 C 1159.25 1835.88 1159.35 1803.34 1159.66 1770.8 z" fill="rgb(192,208,224)" transform="translate(0,0)"></path>
<path d="M 1184.65 1602.34 C 1186.19 1602.2 1187.74 1602.11 1189.28 1602.04 C 1209.85 1601.13 1225.69 1605.14 1241.05 1619.1 L 1232.95 1630.05 L 1231.5 1628.96 C 1215.04 1616.69 1202.09 1614.58 1181.89 1616.67 C 1147.67 1620.22 1136.92 1663.66 1165.77 1681.96 C 1178.72 1690.17 1195.8 1689.75 1210.64 1686.52 C 1220.29 1683.74 1225.18 1680.18 1232.83 1674.18 C 1235.91 1677.67 1239.11 1681.94 1242.02 1685.64 C 1233.27 1693.71 1222.48 1699.22 1210.82 1701.59 C 1125.6 1719.1 1104.89 1612.36 1184.65 1602.34 z" fill="rgb(192,208,224)" transform="translate(0,0)"></path>
<path d="M 1077.73 1769.38 C 1097.6 1767.84 1115.19 1772.55 1130.46 1785.44 L 1123.03 1797 C 1122.26 1796.46 1121.48 1795.92 1120.7 1795.39 C 1099.01 1780.76 1063.4 1775.26 1045.09 1800.09 C 1034.65 1814.25 1039.83 1840.64 1055.37 1849.77 C 1069.85 1858.29 1086.26 1856.91 1102.19 1853.32 C 1111.39 1850.22 1115.34 1847.38 1122.87 1841.71 L 1131.43 1853.22 C 1108.42 1874.83 1068.46 1876.42 1043.29 1857.58 C 1022.55 1842.53 1018.23 1809.16 1034.46 1789.4 C 1045.33 1776.17 1061.34 1770.95 1077.73 1769.38 z" fill="rgb(192,208,224)" transform="translate(0,0)"></path>
<path d="M 648.834 1602.53 L 661.541 1602.03 C 674.805 1628.73 689.701 1658.64 704.179 1684.53 L 746.153 1602.84 L 761.49 1602.72 L 753.937 1619.2 C 741.129 1646.73 725.459 1673.9 712.037 1701.82 L 695.995 1701.27 C 688.124 1685.88 648.878 1614.95 646.539 1603.43 L 648.834 1602.53 z" fill="rgb(192,208,224)" transform="translate(0,0)"></path>
<path d="M 790.974 1770.69 C 825.037 1770.34 859.747 1770.72 893.862 1770.75 L 893.717 1784.09 L 849.757 1784.04 C 849.616 1797.38 849.776 1811 849.789 1824.37 L 849.766 1868.91 L 834.909 1868.87 L 834.842 1784.08 L 791.022 1784.09 L 790.974 1770.69 z" fill="rgb(192,208,224)" transform="translate(0,0)"></path>
<path d="M 904.003 1603.01 C 909.022 1602.93 914.042 1602.93 919.061 1603 L 919.274 1687.69 L 980.258 1687.45 L 980.176 1702.06 L 904.166 1702.02 C 903.692 1669.62 903.839 1635.49 904.003 1603.01 z" fill="rgb(192,208,224)" transform="translate(0,0)"></path>
<path d="M 1267.9 1603.1 C 1272.94 1603.01 1277.98 1602.98 1283.03 1603.04 L 1282.96 1701.92 C 1277.99 1701.95 1273.01 1701.96 1268.04 1701.93 C 1267.85 1669.39 1267.55 1635.58 1267.9 1603.1 z" fill="rgb(192,208,224)" transform="translate(0,0)"></path>
<path d="M 1751.72 523.869 C 1752.93 524.01 1757.69 524.386 1758.4 525.443 C 1757.62 526.066 1755.49 526.157 1754.63 526.301 C 1753.65 525.502 1752.68 524.691 1751.72 523.869 z" fill="rgb(116,120,124)" transform="translate(0,0)"></path>
<metadata><recraft-signature>{"signed_by": "recraft", "signature_b64": "lFFXHxamtuYWsU9HX/w/W4oWbM1YPeeUOmuXJK08D7L8KRb7cx2U4Pwjjd0uP094t5X9PXGMBf5zwtWkTpgDBg==", "signing_algo": "Ed25519", "generation_timestamp": 1774688383, "identifier": "5209175a-92ed-4f23-94ca-219526ce5d8d"}</recraft-signature></metadata></svg>