<svg xmlns="http://www.w3.org/2000/svg" height="1024" preserveAspectRatio="none" style="display: block;" version="1.1" viewBox="0 0 2048 2048" width="1024">
<defs>
	<linearGradient gradientUnits="userSpaceOnUse" id="Gradient1" x1="1099.69" x2="1290.33" y1="839.426" y2="827.875">
		<stop class="stop0" offset="0" stop-color="rgb(86,107,121)" stop-opacity="1"></stop>
		<stop class="stop1" offset="1" stop-color="rgb(165,179,196)" stop-opacity="1"></stop>
	</linearGradient>
	<linearGradient gradientUnits="userSpaceOnUse" id="Gradient2" x1="1439" x2="1553.73" y1="744.654" y2="723.261">
		<stop class="stop0" offset="0" stop-color="rgb(104,123,137)" stop-opacity="1"></stop>
		<stop class="stop1" offset="1" stop-color="rgb(173,184,200)" stop-opacity="1"></stop>
	</linearGradient>
	<linearGradient gradientUnits="userSpaceOnUse" id="Gradient3" x1="1045.28" x2="1270.05" y1="1006.85" y2="1068.96">
		<stop class="stop0" offset="0" stop-color="rgb(128,143,162)" stop-opacity="1"></stop>
		<stop class="stop1" offset="1" stop-color="rgb(153,168,182)" stop-opacity="1"></stop>
	</linearGradient>
	<linearGradient gradientUnits="userSpaceOnUse" id="Gradient4" x1="1100.09" x2="1198.47" y1="1225.99" y2="1227.49">
		<stop class="stop0" offset="0" stop-color="rgb(151,163,180)" stop-opacity="1"></stop>
		<stop class="stop1" offset="1" stop-color="rgb(189,202,216)" stop-opacity="1"></stop>
	</linearGradient>
	<linearGradient gradientUnits="userSpaceOnUse" id="Gradient5" x1="1165.86" x2="1317.47" y1="1355.08" y2="1331.91">
		<stop class="stop0" offset="0" stop-color="rgb(122,139,156)" stop-opacity="1"></stop>
		<stop class="stop1" offset="1" stop-color="rgb(179,192,207)" stop-opacity="1"></stop>
	</linearGradient>
	<linearGradient gradientUnits="userSpaceOnUse" id="Gradient6" x1="1731.63" x2="1540.19" y1="590.089" y2="638.201">
		<stop class="stop0" offset="0" stop-color="rgb(65,85,105)" stop-opacity="1"></stop>
		<stop class="stop1" offset="1" stop-color="rgb(186,199,211)" stop-opacity="1"></stop>
	</linearGradient>
	<linearGradient gradientUnits="userSpaceOnUse" id="Gradient7" x1="1636.55" x2="1582.13" y1="558.449" y2="482.649">
		<stop class="stop0" offset="0" stop-color="rgb(130,148,165)" stop-opacity="1"></stop>
		<stop class="stop1" offset="1" stop-color="rgb(161,176,192)" stop-opacity="1"></stop>
	</linearGradient>
	<linearGradient gradientUnits="userSpaceOnUse" id="Gradient8" x1="1648.5" x2="1370.45" y1="1438.43" y2="1503.88">
		<stop class="stop0" offset="0" stop-color="rgb(74,94,110)" stop-opacity="1"></stop>
		<stop class="stop1" offset="1" stop-color="rgb(158,172,188)" stop-opacity="1"></stop>
	</linearGradient>
	<linearGradient gradientUnits="userSpaceOnUse" id="Gradient9" x1="1086.61" x2="938.916" y1="1543.97" y2="1512.57">
		<stop class="stop0" offset="0" stop-color="rgb(95,113,131)" stop-opacity="1"></stop>
		<stop class="stop1" offset="1" stop-color="rgb(217,227,242)" stop-opacity="1"></stop>
	</linearGradient>
	<linearGradient gradientUnits="userSpaceOnUse" id="Gradient10" x1="903.437" x2="1034.15" y1="1580.1" y2="1128.13">
		<stop class="stop0" offset="0" stop-color="rgb(115,134,149)" stop-opacity="1"></stop>
		<stop class="stop1" offset="1" stop-color="rgb(239,249,255)" stop-opacity="1"></stop>
	</linearGradient>
	<linearGradient gradientUnits="userSpaceOnUse" id="Gradient11" x1="1001.88" x2="921.029" y1="1234.73" y2="681.372">
		<stop class="stop0" offset="0" stop-color="rgb(118,137,152)" stop-opacity="1"></stop>
		<stop class="stop1" offset="1" stop-color="rgb(156,173,189)" stop-opacity="1"></stop>
	</linearGradient>
</defs>
<path d="M 0 0 L 2048 0 L 2048 2048 L 0 2048 L 0 0 z" fill="rgb(8,12,20)" transform="translate(0,0)"></path>
<path d="M 1570.85 403.378 C 1576.48 404.033 1584.14 400.048 1589.89 397.701 C 1594.79 401.712 1599.83 406.573 1603.91 411.48 C 1611.01 420.027 1600.48 419.963 1598.08 426.537 C 1581.42 438.439 1552.22 454.277 1533.86 465.451 L 1373.15 562.399 C 1322.59 593.202 1271.86 623.713 1220.96 653.929 L 1179.69 678.995 C 1176.12 681.164 1161.55 690.162 1158.13 691.61 C 1137.42 706.297 1098.07 727.855 1075.24 741.274 C 1032.52 766.734 989.974 792.463 947.589 818.461 C 943.87 850.677 935.599 890.537 929.898 923.228 C 917.522 996.62 904.759 1069.95 891.608 1143.2 C 885.431 1179 876.61 1223.01 872.253 1258.29 L 841.304 1219.67 C 838.303 1215.89 829.072 1204.58 826.744 1200.81 C 815.492 1187.4 800.657 1168.67 790.626 1154.63 C 792.996 1119.51 800.262 1075.09 804.832 1039.58 C 809.211 1005.57 812.811 965.985 818.319 932.688 C 818.195 929.759 819.994 916.376 820.445 912.79 L 825.654 871.347 C 831.986 814.292 838.98 757.311 846.635 700.418 C 862.01 691.531 890.771 680.024 907.561 672.808 L 1010.96 628.471 C 1095.98 591.949 1181.5 556.617 1267.5 522.487 C 1303.28 508.134 1353.19 485.918 1388.96 474.297 C 1396.74 470.361 1411.57 464.943 1419.98 461.688 C 1432.19 456.962 1447.14 450.483 1459.37 446.599 C 1464.54 443.789 1490.17 433.995 1496.64 431.6 C 1520.12 422.904 1547.18 410.903 1570.85 403.378 z" fill="rgb(192,208,224)" transform="translate(0,0)"></path>
<path d="M 894.109 748.993 L 1069.13 662.633 C 1083.72 655.464 1098.45 648.386 1113.1 641.32 C 1122.44 636.811 1135.91 629.161 1145.16 625.353 C 1128.57 637.521 1099.13 646.676 1084.35 657.406 C 1085.57 658.801 1087.74 660.706 1087.46 662.729 C 1085.42 677.465 1086.95 688.997 1090.01 703.256 C 1091.26 709.037 1085.57 722.986 1087.86 731.325 C 1091.57 728.369 1099.93 724.35 1104.53 722.119 C 1117.39 715.89 1145.57 693.671 1158.13 691.61 C 1137.42 706.297 1098.07 727.855 1075.24 741.274 C 1032.52 766.734 989.974 792.463 947.589 818.461 C 943.87 850.677 935.599 890.537 929.898 923.228 C 917.522 996.62 904.759 1069.95 891.608 1143.2 C 885.431 1179 876.61 1223.01 872.253 1258.29 L 841.304 1219.67 C 838.303 1215.89 829.072 1204.58 826.744 1200.81 C 830.531 1193.39 838.804 1126.82 840.649 1114.5 L 858.37 995.173 C 861.737 972.363 865.855 947.546 868.405 924.758 C 872.681 916.455 891.882 766.085 894.109 748.993 z" fill="url(#Gradient11)" transform="translate(0,0)"></path>
<path d="M 1388.96 474.297 C 1396.74 470.361 1411.57 464.943 1419.98 461.688 C 1432.19 456.962 1447.14 450.483 1459.37 446.599 L 1458.22 447.793 C 1455.11 451.182 1447.38 452.453 1443.28 454.691 C 1439.05 456.992 1429.94 457.521 1428.44 462.747 C 1427.83 464.698 1424.99 465.73 1423.41 466.015 C 1417.61 467.064 1416.32 463.718 1409.89 467.738 C 1408.8 468.421 1402.6 470.553 1400.71 471.408 C 1396.39 473.361 1393.66 474.571 1388.96 474.297 z" fill="rgb(149,165,180)" transform="translate(0,0)"></path>
<path d="M 615.782 556.68 C 619.714 555.517 662.723 582.235 668.622 585.994 C 713.316 614.475 764.041 640.04 806.924 670.794 C 806.787 674.747 803.115 697.138 802.426 702.571 C 799.069 729.381 795.87 756.21 792.83 783.057 L 759.011 1090.32 C 727.488 1049.33 696.033 1005.68 665.117 964.078 L 541.441 798.435 L 477.851 712.721 C 457.454 685.696 438.04 661.024 418.456 633.098 C 466.468 615.48 514.334 597.468 562.049 579.062 C 575.406 573.846 604.762 563.796 615.953 558.044 L 615.782 556.68 z" fill="rgb(5,128,97)" transform="translate(0,0)"></path>
<path d="M 979.125 916.12 C 979.16 916.675 978.444 871.329 981.525 891.112 C 1005.1 986.546 1031.49 1081.27 1060.65 1175.15 C 1077.4 1227.81 1100.51 1298.44 1125.51 1348.36 C 1126.67 1350.74 1128.46 1353.09 1127.26 1355.32 C 1121.66 1365.74 1113.76 1377.92 1107.45 1387.61 L 1067.59 1448.61 L 1042.61 1487.21 C 1039.4 1492.21 1032.86 1503.2 1029.55 1507.13 C 1025.12 1515.85 1015.87 1529.34 1010.2 1538.01 L 973.285 1594.12 L 926.424 1667.08 C 917.651 1680.79 908.13 1696.46 898.591 1709.61 C 897.726 1711.76 894.09 1716.98 892.64 1719.2 C 893.345 1715.28 893.914 1711.21 894.52 1707.26 C 896.473 1680.98 901.159 1652.05 903.707 1625.48 C 904.351 1618.76 908.344 1585.78 909.702 1581.32 C 910.075 1572.48 912.067 1559.73 913.176 1550.58 L 919.919 1494.56 C 923.901 1461.43 928.023 1414.55 933.945 1382.53 C 934.074 1375.64 936.118 1362.15 937.035 1354.93 C 939.217 1338.18 941.291 1321.41 943.258 1304.64 L 967.266 1108.15 C 967.068 1104.81 968.619 1090.96 968.991 1087.03 C 970.432 1072.65 971.687 1058.26 972.753 1043.85 C 974.258 1022.05 975.517 1000.25 976.529 978.425 C 977.085 966.484 977.372 948.002 978.945 936.598 L 979.125 916.12 z" fill="url(#Gradient10)" transform="translate(0,0)"></path>
<path d="M 979.125 916.12 C 979.16 916.675 978.444 871.329 981.525 891.112 C 1005.1 986.546 1031.49 1081.27 1060.65 1175.15 C 1077.4 1227.81 1100.51 1298.44 1125.51 1348.36 C 1095.45 1360.75 1045.2 1369.06 1014.85 1380.82 C 1014.64 1376.07 1013.54 1371.69 1012.72 1367.01 C 1006.46 1331 999.837 1294.82 996.622 1258.38 C 996.157 1253.11 993.315 1249.59 993.166 1244.55 C 992.746 1242.85 992.309 1241.23 992.048 1239.5 L 991.783 1237.62 L 991.496 1235.75 C 988.737 1218.66 972.969 1119.01 967.266 1108.15 C 967.068 1104.81 968.619 1090.96 968.991 1087.03 C 970.432 1072.65 971.687 1058.26 972.753 1043.85 C 974.258 1022.05 975.517 1000.25 976.529 978.425 C 977.085 966.484 977.372 948.002 978.945 936.598 L 979.125 916.12 z" fill="rgb(192,208,224)" transform="translate(0,0)"></path>
<path d="M 967.266 1108.15 C 967.068 1104.81 968.619 1090.96 968.991 1087.03 C 970.432 1072.65 971.687 1058.26 972.753 1043.85 C 974.258 1022.05 975.517 1000.25 976.529 978.425 C 977.085 966.484 977.372 948.002 978.945 936.598 C 979.879 945.838 977.816 979.478 979.419 982.898 L 981.195 983.841 C 985.591 978.992 981.187 965.004 983.465 960.662 C 984.761 966.783 984.344 973.086 984.295 979.335 C 984.155 997.577 985.014 1015.73 985.732 1033.96 L 990.282 1163.41 C 991.032 1183.44 993.195 1207.98 993.064 1227.35 C 992.256 1231.18 993.331 1232.12 991.496 1235.75 C 988.737 1218.66 972.969 1119.01 967.266 1108.15 z" fill="rgb(122,139,154)" transform="translate(0,0)"></path>
<path d="M 979.125 916.12 C 979.16 916.675 978.444 871.329 981.525 891.112 C 978.957 895.897 980.537 907.977 979.125 916.12 z" fill="rgb(79,96,112)" transform="translate(0,0)"></path>
<path d="M 993.064 1227.35 C 994.181 1230.31 993.775 1241.05 993.166 1244.55 C 992.746 1242.85 992.309 1241.23 992.048 1239.5 L 991.783 1237.62 L 991.496 1235.75 C 993.331 1232.12 992.256 1231.18 993.064 1227.35 z" fill="rgb(149,165,180)" transform="translate(0,0)"></path>
<path d="M 1125.51 1348.36 C 1126.67 1350.74 1128.46 1353.09 1127.26 1355.32 C 1121.66 1365.74 1113.76 1377.92 1107.45 1387.61 L 1067.59 1448.61 L 1042.61 1487.21 C 1039.4 1492.21 1032.86 1503.2 1029.55 1507.13 C 1025.12 1515.85 1015.87 1529.34 1010.2 1538.01 L 973.285 1594.12 L 926.424 1667.08 C 917.651 1680.79 908.13 1696.46 898.591 1709.61 C 897.726 1711.76 894.09 1716.98 892.64 1719.2 C 893.345 1715.28 893.914 1711.21 894.52 1707.26 C 896.473 1680.98 901.159 1652.05 903.707 1625.48 C 904.351 1618.76 908.344 1585.78 909.702 1581.32 L 910.64 1582.63 C 911.985 1574.15 911.118 1561.76 916.29 1557.02 C 922.345 1554.99 935.038 1560.68 940.644 1563.53 C 941.268 1563.85 941.885 1564.17 942.494 1564.52 C 948.404 1575.93 940.998 1573.6 941.589 1584.41 C 946.501 1575.55 958.351 1540.16 962.484 1528.78 C 973.566 1498.28 984.652 1467.48 996.054 1437.02 C 1001.34 1422.91 1003.51 1410.25 1010.81 1396.17 L 1012.57 1393.98 L 1011.98 1395.77 C 1010.03 1401.79 1010.37 1403.04 1013.08 1408.96 C 1014.95 1413.04 1015.79 1417.84 1018.66 1421.29 C 1019.59 1418.78 1019.8 1417.09 1021.58 1415.42 L 1021.36 1415.55 L 1023.64 1417.64 L 1022.75 1417.38 L 1023.4 1418.3 L 1024.02 1417.9 L 1023.37 1418 L 1024.01 1417.18 C 1024.9 1416.03 1024.56 1416.5 1025.3 1415.3 C 1023.5 1410.99 1014.75 1387.55 1014.27 1383.5 L 1014.85 1380.82 C 1045.2 1369.06 1095.45 1360.75 1125.51 1348.36 z" fill="url(#Gradient9)" transform="translate(0,0)"></path>
<path d="M 909.702 1581.32 L 910.64 1582.63 C 911.985 1574.15 911.118 1561.76 916.29 1557.02 C 922.345 1554.99 935.038 1560.68 940.644 1563.53 C 941.268 1563.85 941.885 1564.17 942.494 1564.52 C 948.404 1575.93 940.998 1573.6 941.589 1584.41 C 939.284 1594.16 933.624 1607.35 930.419 1617.22 C 920.671 1647.24 907.269 1677.94 897.521 1707.72 L 898.591 1709.61 C 897.726 1711.76 894.09 1716.98 892.64 1719.2 C 893.345 1715.28 893.914 1711.21 894.52 1707.26 C 896.473 1680.98 901.159 1652.05 903.707 1625.48 C 904.351 1618.76 908.344 1585.78 909.702 1581.32 z" fill="rgb(122,139,154)" transform="translate(0,0)"></path>
<path d="M 1014.27 1383.5 C 1019.15 1388.55 1041.75 1427.33 1036.61 1430.44 C 1036.21 1430.12 1034.42 1425.34 1033.63 1424.28 C 1033.47 1424.46 1033.51 1425.62 1033.5 1426 C 1033.52 1426.47 1033.37 1428.72 1032.37 1428.46 C 1031.14 1428.14 1029.77 1426.4 1029.23 1425.3 C 1027.94 1422.67 1028.14 1422.18 1025.61 1421.36 C 1023.28 1417.13 1025.72 1418.71 1025.3 1415.3 C 1023.5 1410.99 1014.75 1387.55 1014.27 1383.5 z" fill="rgb(149,165,180)" transform="translate(0,0)"></path>
<path d="M 423.803 544.61 C 463.834 532.914 504.047 521.848 544.426 511.416 C 549.274 510.145 576.627 502.206 579.105 502.686 C 604.129 507.532 630.226 517.504 654.674 525.029 L 813.24 573.202 L 903.216 600.068 C 918.269 604.546 938.089 609.846 952.325 615.071 C 938.373 621.548 921.206 627.2 906.519 632.594 C 884.232 640.77 862.008 649.114 839.847 657.624 C 829.902 661.42 816.407 666.228 806.924 670.794 C 764.041 640.04 713.316 614.475 668.622 585.994 C 662.723 582.235 619.714 555.517 615.782 556.68 C 551.487 572.095 486.938 586.429 422.162 599.678 C 406.068 602.955 388.107 607.54 372.449 610.347 C 389.685 588.757 406.597 565.775 423.803 544.61 z" fill="rgb(16,185,129)" transform="translate(0,0)"></path>
<path d="M 1464.44 1322.38 C 1491.92 1351.07 1520.33 1384.67 1547.23 1414.53 C 1558.05 1426.47 1568.81 1438.47 1579.5 1450.52 C 1582.13 1453.49 1590.6 1462.7 1592.19 1465.17 C 1618.52 1492.26 1642.81 1522.9 1668.84 1550.43 C 1673.64 1555.51 1679.16 1561.48 1683.67 1566.82 C 1681.52 1567.69 1681.68 1567.71 1679.38 1567.44 L 1680.12 1570.72 C 1672.53 1568.19 1659.38 1562.22 1651.36 1558.87 C 1633.35 1551.25 1615.26 1543.84 1597.09 1536.64 C 1544.13 1514.41 1491.05 1492.48 1437.85 1470.83 L 1385.25 1449.73 C 1376.99 1446.44 1363.32 1441.42 1355.75 1437.37 C 1343.28 1432.97 1321.1 1424.02 1309.21 1418.29 C 1313.49 1415.57 1312.62 1419.15 1316.45 1419.59 L 1316.4 1419.61 C 1317.57 1413.56 1317.84 1403.17 1318.78 1398.51 C 1320.72 1388.9 1318.99 1361.29 1322.85 1354.26 C 1334.43 1358.52 1348.61 1363.77 1359.84 1368.7 C 1372.94 1373.58 1457.71 1410.45 1465.69 1410.47 L 1460.4 1404.37 C 1463.86 1402.43 1463.47 1407.87 1467.72 1409.3 C 1472.76 1397.8 1468.41 1343.64 1468.47 1329.09 C 1466.54 1327.29 1465.49 1326.13 1463.76 1324.19 L 1464.44 1322.38 z" fill="url(#Gradient8)" transform="translate(0,0)"></path>
<path d="M 1464.44 1322.38 C 1491.92 1351.07 1520.33 1384.67 1547.23 1414.53 C 1558.05 1426.47 1568.81 1438.47 1579.5 1450.52 C 1582.13 1453.49 1590.6 1462.7 1592.19 1465.17 C 1595.3 1473.32 1605.84 1483.14 1611.99 1490.27 C 1600.75 1500.6 1599.23 1498.46 1584.54 1496.74 C 1579.31 1492.84 1572.22 1486.55 1566.15 1485.23 C 1531.54 1460.72 1499.34 1435.99 1465.69 1410.47 L 1460.4 1404.37 C 1463.86 1402.43 1463.47 1407.87 1467.72 1409.3 C 1472.76 1397.8 1468.41 1343.64 1468.47 1329.09 C 1466.54 1327.29 1465.49 1326.13 1463.76 1324.19 L 1464.44 1322.38 z" fill="rgb(192,208,224)" transform="translate(0,0)"></path>
<path d="M 1322.85 1354.26 C 1334.43 1358.52 1348.61 1363.77 1359.84 1368.7 C 1359.39 1368.95 1358.93 1369.21 1358.48 1369.47 C 1350.34 1370.42 1357.37 1367.78 1353.66 1372.79 L 1353.66 1372.53 C 1352.76 1380.92 1352.56 1390.05 1353.21 1398.51 C 1354.07 1409.64 1354.74 1421.59 1354.64 1432.75 C 1354.6 1437.23 1356.89 1434.84 1355.75 1437.37 C 1343.28 1432.97 1321.1 1424.02 1309.21 1418.29 C 1313.49 1415.57 1312.62 1419.15 1316.45 1419.59 L 1316.4 1419.61 C 1317.57 1413.56 1317.84 1403.17 1318.78 1398.51 C 1320.72 1388.9 1318.99 1361.29 1322.85 1354.26 z" fill="rgb(192,208,224)" transform="translate(0,0)"></path>
<path d="M 1592.19 1465.17 C 1618.52 1492.26 1642.81 1522.9 1668.84 1550.43 C 1673.64 1555.51 1679.16 1561.48 1683.67 1566.82 C 1681.52 1567.69 1681.68 1567.71 1679.38 1567.44 C 1651.03 1550.68 1622.35 1526.49 1594.93 1507.33 C 1585.62 1499.44 1575.52 1493.21 1566.15 1485.23 C 1572.22 1486.55 1579.31 1492.84 1584.54 1496.74 C 1599.23 1498.46 1600.75 1500.6 1611.99 1490.27 C 1605.84 1483.14 1595.3 1473.32 1592.19 1465.17 z" fill="rgb(149,165,180)" transform="translate(0,0)"></path>
<path d="M 1698.62 432.49 C 1706.87 426.251 1724.87 415.959 1734.7 409.962 C 1761.79 393.151 1789.26 376.956 1817.09 361.389 C 1804.99 376.644 1792.8 394.817 1781.45 410.852 L 1736.49 473.682 C 1729.4 483.699 1720.17 497.764 1712.81 507.171 C 1708.63 508.233 1691.52 514.944 1688.47 516.773 C 1671.97 526.669 1602.46 545.346 1593.77 558.384 C 1566.12 575.507 1529.92 594.769 1501.07 610.632 L 1396.44 668.908 C 1395.97 660.287 1394.47 623.327 1392.53 616.956 C 1414.04 603.702 1435.64 590.607 1457.35 577.672 C 1502.7 549.783 1548.19 522.124 1593.82 494.696 C 1625.29 475.629 1667.06 449.341 1698.62 432.49 z" fill="url(#Gradient7)" transform="translate(0,0)"></path>
<path d="M 1698.62 432.49 L 1698.75 434.06 C 1688.81 441.073 1676.19 446.971 1666.04 454.068 C 1662.96 462.415 1656.68 486.784 1657.48 494.854 C 1659.57 493.119 1683.86 472.374 1684 472.33 L 1684.38 473.124 C 1667.08 489.751 1648.06 505.045 1629.88 520.729 C 1620.66 528.69 1610.48 539.503 1600.11 545.682 C 1590.52 551.394 1471.14 579.177 1459.96 578.427 C 1458.72 578.344 1458.36 578.11 1457.35 577.672 C 1502.7 549.783 1548.19 522.124 1593.82 494.696 C 1625.29 475.629 1667.06 449.341 1698.62 432.49 z" fill="rgb(192,208,224)" transform="translate(0,0)"></path>
<path d="M 370.999 611.405 C 378.255 618.767 388.576 632.713 395.075 641.163 L 430.754 687.774 C 439.576 698.457 461.923 727.198 468.66 738.676 L 295.131 736.645 C 275.787 753.108 257.607 771.348 239.226 786.877 L 232.884 793.227 C 233.614 722.017 238.911 658.694 314.942 632.786 C 318.926 631.429 323.281 629.587 327.26 628.065 L 370.999 611.405 z" fill="rgb(16,185,129)" transform="translate(0,0)"></path>
<path d="M 430.754 687.774 C 439.576 698.457 461.923 727.198 468.66 738.676 L 295.131 736.645 C 275.787 753.108 257.607 771.348 239.226 786.877 C 239.701 778.69 272.559 728.426 279.622 724.785 C 323.225 702.305 384.233 703.989 429.954 688.062 L 430.754 687.774 z" fill="rgb(5,128,97)" transform="translate(0,0)"></path>
<path d="M 1246.55 1159.87 C 1246.52 1149.28 1250.27 1100.82 1258.3 1095.08 C 1268.39 1105.26 1278.34 1115.6 1288.13 1126.07 C 1291.45 1129.73 1297.62 1136.2 1300.26 1140.04 C 1304.43 1143.91 1307.88 1148.22 1311.68 1152.49 L 1319.19 1160.96 L 1422.07 1275.03 C 1428.62 1282.25 1461.56 1317.58 1464.44 1322.38 L 1463.76 1324.19 C 1465.49 1326.13 1466.54 1327.29 1468.47 1329.09 C 1468.41 1343.64 1472.76 1397.8 1467.72 1409.3 C 1463.47 1407.87 1463.86 1402.43 1460.4 1404.37 C 1457.36 1402.44 1438.57 1380.54 1434.85 1376.39 C 1410.81 1349.31 1386.96 1322.06 1363.31 1294.64 C 1347.72 1276.76 1330.19 1257.4 1315.36 1239.17 C 1310.87 1234.67 1307.71 1230.9 1303.66 1226.04 C 1285.39 1207.59 1262.41 1180.31 1246.55 1159.87 z" fill="rgb(122,139,154)" transform="translate(0,0)"></path>
<path d="M 1246.55 1159.87 C 1246.52 1149.28 1250.27 1100.82 1258.3 1095.08 C 1268.39 1105.26 1278.34 1115.6 1288.13 1126.07 C 1291.45 1129.73 1297.62 1136.2 1300.26 1140.04 C 1304.43 1143.91 1307.88 1148.22 1311.68 1152.49 L 1319.19 1160.96 C 1319.48 1164.5 1320.3 1169.25 1319.36 1172.39 L 1316.7 1167.16 L 1315.53 1167.28 C 1314.08 1170.18 1312.52 1173.52 1310.89 1176.26 L 1310.41 1181.33 C 1311.94 1178.29 1312.44 1175.99 1314.86 1174.32 C 1320.77 1181.54 1312.76 1197.62 1313.06 1205.81 L 1313.81 1205.53 L 1317.43 1194.87 C 1318.34 1199.31 1317.27 1205.76 1316.01 1210.12 C 1314.5 1215.36 1318.1 1217.3 1317.79 1223.25 C 1316.26 1220.41 1316.64 1220.56 1314.43 1218.34 C 1313.22 1221.22 1312.46 1223.15 1311.47 1226.11 C 1311.84 1233.19 1312.02 1232.53 1317.11 1238.89 L 1315.36 1239.17 C 1310.87 1234.67 1307.71 1230.9 1303.66 1226.04 C 1285.39 1207.59 1262.41 1180.31 1246.55 1159.87 z" fill="rgb(192,208,224)" transform="translate(0,0)"></path>
<path d="M 1300.26 1140.04 C 1304.43 1143.91 1307.88 1148.22 1311.68 1152.49 C 1309.57 1153.99 1309.18 1154.24 1307.56 1156.17 C 1305.56 1159.49 1304.95 1160.48 1302.52 1163.39 C 1302.22 1156.39 1302.89 1148.71 1300.8 1141.95 L 1300.26 1140.04 z" fill="rgb(149,165,180)" transform="translate(0,0)"></path>
<path d="M 1593.77 558.384 C 1602.46 545.346 1671.97 526.669 1688.47 516.773 C 1691.52 514.944 1708.63 508.233 1712.81 507.171 C 1697.3 532.185 1676.59 558.246 1659.37 582.673 L 1622.14 635.479 C 1616.73 643.121 1608.95 654.874 1603.39 661.711 C 1595.32 674.323 1585.48 687.508 1576.84 699.926 C 1572.72 705.843 1564.51 718.109 1560.4 722.845 C 1557.5 727.965 1554.91 731.317 1551.42 735.98 C 1550.51 737.365 1549.37 739.216 1548.39 740.496 C 1546.84 742.751 1542.36 749.682 1540.67 751.155 L 1539.8 750.154 C 1540.28 749.338 1541.64 747.046 1541.55 746.052 C 1539.42 722.799 1540.53 699.608 1540.57 676.299 C 1540.58 669.546 1540.44 662.773 1541.41 656.072 C 1539.6 655.557 1540.58 655.75 1538.45 655.562 C 1540.47 651.892 1543.82 647.391 1546.28 643.85 L 1555.18 630.812 C 1564.64 615.749 1578.18 596.305 1588.53 581.934 C 1590.85 576.99 1607.42 554.433 1611.18 549.243 C 1605.37 552.201 1599.54 555.345 1593.77 558.384 z" fill="url(#Gradient6)" transform="translate(0,0)"></path>
<path d="M 1555.18 630.812 L 1559.46 628.945 C 1565.2 641.928 1559.47 671.808 1560.98 686.621 C 1561.92 695.827 1561.94 708.538 1561.48 717.795 C 1561.35 719.042 1560.45 720.71 1560.4 722.845 C 1557.5 727.965 1554.91 731.317 1551.42 735.98 C 1550.51 737.365 1549.37 739.216 1548.39 740.496 C 1546.84 742.751 1542.36 749.682 1540.67 751.155 L 1539.8 750.154 C 1540.28 749.338 1541.64 747.046 1541.55 746.052 C 1539.42 722.799 1540.53 699.608 1540.57 676.299 C 1540.58 669.546 1540.44 662.773 1541.41 656.072 C 1539.6 655.557 1540.58 655.75 1538.45 655.562 C 1540.47 651.892 1543.82 647.391 1546.28 643.85 L 1555.18 630.812 z" fill="rgb(192,208,224)" transform="translate(0,0)"></path>
<path d="M 1378.95 625.675 C 1381.11 623.481 1389.24 619.107 1392.53 616.956 C 1394.47 623.327 1395.97 660.287 1396.44 668.908 C 1391.93 671.533 1384.85 675.33 1380.11 677.382 C 1371.9 682.678 1360.69 688.571 1351.76 693.025 C 1318.59 709.578 1286.48 730.246 1253.23 746.325 C 1191.8 776.031 1127.36 803.306 1064.25 829.309 L 1062.47 827.518 C 1144.96 776.023 1224.71 720.909 1307.8 669.587 C 1321.94 660.877 1335.99 652.029 1349.96 643.046 C 1357.34 638.338 1371.23 629.128 1378.95 625.675 z" fill="rgb(149,165,180)" transform="translate(0,0)"></path>
<path d="M 1378.95 625.675 C 1381.11 623.481 1389.24 619.107 1392.53 616.956 C 1394.47 623.327 1395.97 660.287 1396.44 668.908 C 1391.93 671.533 1384.85 675.33 1380.11 677.382 C 1378.34 673.519 1385.98 674.006 1387.94 671.205 C 1389.43 668.703 1388.02 665.723 1388.78 662.513 C 1390.02 657.243 1389.9 649.8 1390.78 644.523 C 1391.39 640.815 1391.11 635.661 1391.94 633.022 C 1393.56 627.848 1393.01 624.282 1393.04 618.86 C 1388.44 621.74 1383.87 624.614 1379.13 627.276 C 1378.86 626.926 1378.96 625.971 1378.95 625.675 z" fill="rgb(192,208,224)" transform="translate(0,0)"></path>
<path d="M 1200.85 1259.01 C 1207.75 1275.22 1218.4 1298.18 1224.13 1314.17 L 1288.68 1340.41 C 1297.16 1343.81 1315.25 1350.42 1322.85 1354.26 C 1318.99 1361.29 1320.72 1388.9 1318.78 1398.51 C 1317.84 1403.17 1317.57 1413.56 1316.4 1419.61 L 1316.45 1419.59 C 1312.62 1419.15 1313.49 1415.57 1309.21 1418.29 L 1224.14 1383.48 C 1205.94 1376.15 1186.73 1368.27 1168.85 1360.08 C 1165.12 1358.37 1165.36 1357.83 1164.56 1354.94 C 1172.87 1348.16 1193.63 1271.28 1200.85 1259.01 z" fill="url(#Gradient5)" transform="translate(0,0)"></path>
<path d="M 1099.86 1099.32 C 1114.2 1103.02 1127.28 1123.55 1137.66 1122.84 L 1200.85 1259.01 C 1193.63 1271.28 1172.87 1348.16 1164.56 1354.94 C 1157.39 1330.35 1151.45 1304.21 1145.16 1279.3 C 1130.56 1219.18 1115.45 1159.19 1099.86 1099.32 z" fill="url(#Gradient4)" transform="translate(0,0)"></path>
<path d="M 1062.98 913.536 C 1088.82 935.256 1128.48 971.526 1152.28 994.946 C 1159.37 1001.15 1167.85 1009.08 1174.74 1015.74 C 1198.01 1035.61 1222 1057.58 1243.61 1079.24 C 1245.9 1081.54 1256.92 1093.03 1258.3 1095.08 C 1250.27 1100.82 1246.52 1149.28 1246.55 1159.87 C 1227.79 1137.73 1211.74 1115.36 1194.17 1092.66 C 1148.84 1034.08 1106.34 973.616 1062.98 913.536 z" fill="url(#Gradient3)" transform="translate(0,0)"></path>
<path d="M 1174.74 1015.74 C 1169.46 1018.33 1142.27 1002.24 1152.28 994.946 C 1159.37 1001.15 1167.85 1009.08 1174.74 1015.74 z" fill="rgb(192,208,224)" transform="translate(0,0)"></path>
<path d="M 1448.52 761.379 L 1448.52 816.222 C 1438.19 817.515 1426.12 820.428 1415.67 822.345 C 1397.31 826.573 1373.78 829.78 1355.04 832.972 C 1342.54 835.1 1320.45 839.155 1308.12 840.025 L 1306.25 840.31 C 1303.22 840.797 1300.75 841.146 1297.7 841.511 C 1295.28 842.296 1292.37 842.258 1289.81 842.522 C 1288.95 842.349 1287.35 842.224 1286.77 841.5 C 1288.42 839.997 1291.24 842.387 1290.26 837.284 C 1288.41 827.639 1290.23 816.521 1289.37 806.698 C 1289.35 806.507 1283.6 806.507 1282.72 806.368 C 1287 804.848 1291.35 803.556 1295.76 802.496 C 1300.39 801.048 1305.09 799.811 1309.84 798.791 C 1315.07 796.43 1332.99 791.689 1338.85 790.298 C 1348.82 786.608 1371.66 780.649 1382.27 778.721 C 1385.32 777.163 1412.8 770.524 1417.37 769.452 C 1423.59 767.673 1430.72 765.679 1437.01 764.287 L 1441.51 763.281 C 1444.41 762.654 1445.65 762.269 1448.52 761.379 z" fill="rgb(149,165,180)" transform="translate(0,0)"></path>
<path d="M 1448.52 761.379 L 1448.52 816.222 C 1438.19 817.515 1426.12 820.428 1415.67 822.345 C 1420.21 814.137 1413.77 820.477 1415.88 812.59 C 1416.94 808.624 1415.92 807.973 1418.47 804.48 C 1419.12 802.345 1420.5 799.726 1420.96 797.641 C 1421.36 795.798 1421.58 776.68 1421.38 776.48 C 1420.83 776.738 1420.37 777.129 1419.9 777.497 C 1417.9 774.308 1426.56 771.901 1420.36 770.389 C 1419.21 770.109 1418.08 772.282 1417.37 769.452 C 1423.59 767.673 1430.72 765.679 1437.01 764.287 L 1441.51 763.281 C 1444.41 762.654 1445.65 762.269 1448.52 761.379 z" fill="rgb(192,208,224)" transform="translate(0,0)"></path>
<path d="M 1309.84 798.791 C 1310.14 799.56 1310.09 799.279 1310.11 799.707 C 1308.71 802.227 1304.66 798.033 1305.5 807.018 C 1305.99 812.33 1302.31 825.66 1305.74 831.317 C 1306.68 831.393 1306.92 829.604 1307.84 829.661 C 1309.1 830.53 1305.18 837.525 1305.64 838.893 L 1306.04 839.124 C 1306.63 838.943 1307.22 838.68 1307.85 838.799 C 1308.22 839.132 1308.08 839.365 1308.12 840.025 L 1306.25 840.31 C 1303.22 840.797 1300.75 841.146 1297.7 841.511 C 1295.28 842.296 1292.37 842.258 1289.81 842.522 C 1288.95 842.349 1287.35 842.224 1286.77 841.5 C 1288.42 839.997 1291.24 842.387 1290.26 837.284 C 1288.41 827.639 1290.23 816.521 1289.37 806.698 C 1289.35 806.507 1283.6 806.507 1282.72 806.368 C 1287 804.848 1291.35 803.556 1295.76 802.496 C 1300.39 801.048 1305.09 799.811 1309.84 798.791 z" fill="rgb(192,208,224)" transform="translate(0,0)"></path>
<path d="M 1338.85 790.298 C 1348.82 786.608 1371.66 780.649 1382.27 778.721 C 1378.05 782.265 1375.92 781.85 1370.52 783.609 L 1368.71 784.184 C 1366.5 792.341 1365.1 800.268 1363.06 808.589 C 1361.6 804.06 1359.42 798.781 1358.56 794.481 C 1355.69 780.107 1351.16 793.155 1338.85 790.298 z" fill="rgb(122,139,154)" transform="translate(0,0)"></path>
<path d="M 1466.18 757.8 C 1483.32 735.155 1500.12 707.525 1517.43 684.638 C 1523.85 676.147 1531.72 663.016 1538.45 655.562 C 1540.58 655.75 1539.6 655.557 1541.41 656.072 C 1540.44 662.773 1540.58 669.546 1540.57 676.299 C 1540.53 699.608 1539.42 722.799 1541.55 746.052 C 1541.64 747.046 1540.28 749.338 1539.8 750.154 L 1540.67 751.155 C 1532.46 765.431 1512.61 791.448 1502.19 804.677 C 1483.91 808.781 1467 812.607 1448.52 816.222 L 1448.52 761.379 C 1454.38 760.08 1460.27 758.887 1466.18 757.8 z" fill="url(#Gradient2)" transform="translate(0,0)"></path>
<path d="M 1463.89 672.391 C 1472.77 667.763 1481.13 660.664 1489.86 655.805 C 1475.45 673.04 1462.34 692.837 1448.65 710.753 C 1443.23 717.842 1436.26 728.268 1430.22 734.465 C 1397.66 742.629 1365.09 749.878 1332.81 759.265 C 1327.55 760.795 1304.85 766.579 1301.02 768.945 L 1299.02 767.06 C 1313.32 760.64 1334.68 748.065 1348.86 740.225 C 1351.93 734.398 1380.53 721.54 1390.49 713.2 L 1396.06 708.515 L 1395.23 707.243 C 1391.15 711.066 1355.19 728.339 1349.74 727.062 C 1360.19 719.442 1454.6 664.019 1461.72 664.425 C 1457.77 673.373 1417.04 684.77 1407.31 701.371 C 1424.84 699.029 1456 671.658 1463.89 672.391 z" fill="rgb(15,244,231)" transform="translate(0,0)"></path>
<path d="M 1348.86 740.225 C 1351.93 734.398 1380.53 721.54 1390.49 713.2 L 1396.06 708.515 L 1395.23 707.243 C 1391.15 711.066 1355.19 728.339 1349.74 727.062 C 1360.19 719.442 1454.6 664.019 1461.72 664.425 C 1457.77 673.373 1417.04 684.77 1407.31 701.371 C 1424.84 699.029 1456 671.658 1463.89 672.391 C 1446.26 685.916 1416.78 701.201 1397.41 712.717 C 1383.07 721.239 1363.65 733.24 1348.86 740.225 z" fill="rgb(2,70,69)" transform="translate(0,0)"></path>
<path d="M 1195.96 1155.65 L 1197.23 1152.36 C 1230.59 1196.24 1263.49 1241.04 1298.82 1283.28 C 1309.79 1296.41 1323.58 1308.71 1335.06 1321.73 L 1333.63 1324.57 C 1304.43 1308.45 1274.47 1293.29 1244.74 1276.92 C 1237.26 1261.18 1229.55 1239.68 1223.15 1223.15 C 1214.4 1200.53 1205.34 1178.02 1195.96 1155.65 z" fill="rgb(15,244,231)" transform="translate(0,0)"></path>
<path d="M 1111.28 855.352 C 1159.97 839.126 1212.71 827.47 1261.87 811.99 C 1268.44 809.922 1276.01 807.806 1282.72 806.368 C 1283.6 806.507 1289.35 806.507 1289.37 806.698 C 1290.23 816.521 1288.41 827.639 1290.26 837.284 C 1291.24 842.387 1288.42 839.997 1286.77 841.5 C 1287.35 842.224 1288.95 842.349 1289.81 842.522 C 1275.37 845.186 1257.37 846.509 1242.57 848.351 C 1199.79 853.889 1156.91 858.635 1113.95 862.585 C 1102.25 863.808 1080.39 867.566 1069.72 867.469 C 1069.49 867.31 1069.61 867.452 1069.48 866.858 C 1069.83 866.497 1108.34 856.077 1111.28 855.352 z" fill="url(#Gradient1)" transform="translate(0,0)"></path>
<path d="M 1111.28 855.352 C 1111.6 855.663 1112.08 855.983 1112.12 856.394 C 1110.87 857.769 1102.46 858.186 1100.96 860.066 C 1099.5 861.892 1103.54 862.69 1104.5 862.47 C 1109.44 862.457 1108.85 860.233 1113.95 862.585 C 1102.25 863.808 1080.39 867.566 1069.72 867.469 C 1069.49 867.31 1069.61 867.452 1069.48 866.858 C 1069.83 866.497 1108.34 856.077 1111.28 855.352 z" fill="rgb(79,96,112)" transform="translate(0,0)"></path>
<path d="M 1298.85 906.472 L 1299.5 907.48 C 1288.31 925.109 1277.16 941.235 1265.98 959.38 C 1244 950.834 1221.91 942.585 1199.72 934.634 C 1189.06 930.725 1178.76 927.069 1168.39 922.428 C 1207.19 920.188 1258.97 911.066 1298.85 906.472 z" fill="rgb(15,244,231)" transform="translate(0,0)"></path>
<path d="M 1570.85 403.378 C 1585.88 396.688 1603.97 390.196 1619.53 384.11 L 1742.59 336.582 L 1743.48 338.548 C 1699.67 366.013 1654.69 391.568 1610.91 419.084 C 1607.84 421.013 1601.2 425.451 1598.08 426.537 C 1600.48 419.963 1611.01 420.027 1603.91 411.48 C 1599.83 406.573 1594.79 401.712 1589.89 397.701 C 1584.14 400.048 1576.48 404.033 1570.85 403.378 z" fill="rgb(149,165,180)" transform="translate(0,0)"></path>
<path d="M 1076.37 1004.74 C 1077.51 1002.2 1077.61 1001.29 1080.35 1001.9 C 1099.08 1040.87 1120.2 1083.54 1137.66 1122.84 C 1127.28 1123.55 1114.2 1103.02 1099.86 1099.32 C 1091.7 1067.87 1083.87 1036.35 1076.37 1004.74 z" fill="rgb(192,208,224)" transform="translate(0,0)"></path>
<path d="M 1070.11 981.494 C 1072.56 986.048 1078.44 997.169 1080.35 1001.9 C 1077.61 1001.29 1077.51 1002.2 1076.37 1004.74 C 1074.07 997.73 1071.98 988.729 1070.11 981.494 z" fill="rgb(149,165,180)" transform="translate(0,0)"></path>
<path d="M 1683.67 1566.82 C 1685.54 1568.25 1690.28 1573.76 1692.31 1575.94 C 1688.26 1574.19 1684.13 1572.51 1680.12 1570.72 L 1679.38 1567.44 C 1681.68 1567.71 1681.52 1567.69 1683.67 1566.82 z" fill="rgb(122,139,154)" transform="translate(0,0)"></path>
<path d="M 1189.69 1142.39 C 1192.3 1145.59 1195.3 1148.74 1197.23 1152.36 L 1195.96 1155.65 C 1193.59 1151.04 1191.8 1147.14 1189.69 1142.39 z" fill="rgb(20,184,166)" transform="translate(0,0)"></path>
<path d="M 1299.02 767.06 L 1301.02 768.945 C 1300.11 769.249 1290.18 773.488 1290.62 771.001 L 1291.6 771.262 L 1291.23 770.469 L 1291.68 771.218 L 1291.96 770.083 C 1294.33 769.114 1296.63 767.996 1299.02 767.06 z" fill="rgb(20,184,166)" transform="translate(0,0)"></path>
<path d="M 1335.06 1321.73 C 1336.04 1322.52 1340.1 1325.98 1340.02 1327.3 C 1338.68 1327.96 1334.62 1325.18 1333.63 1324.57 L 1335.06 1321.73 z" fill="rgb(20,184,166)" transform="translate(0,0)"></path>
<path d="M 1062.47 827.518 L 1064.25 829.309 C 1060.36 831.123 1056.64 832.526 1052.66 834.102 C 1056.08 831.709 1058.85 829.687 1062.47 827.518 z" fill="rgb(122,139,154)" transform="translate(0,0)"></path>
<path d="M 1742.59 336.582 L 1744.03 335.954 C 1744.91 335.559 1746.55 334.628 1747.45 335.363 C 1747.64 336.294 1744.09 338.135 1743.48 338.548 L 1742.59 336.582 z" fill="rgb(122,139,154)" transform="translate(0,0)"></path>
<metadata><recraft-signature>{"signed_by": "recraft", "signature_b64": "zvFDj2F08l1MIGSAC5grcXe0POOv2USsy0Eheyu8Q3MvesLaT9ucVTqh0gp4LG6UqlVDgRhf/zQGH7db/5nwAw==", "signing_algo": "Ed25519", "generation_timestamp": 1774688427, "identifier": "79c40cca-91d5-4481-9aa5-8e4699625376"}</recraft-signature></metadata></svg>