<svg version="1.1" xmlns="http://www.w3.org/2000/svg" style="display: block;" viewBox="0 0 2048 1117" width="1408" height="768" preserveAspectRatio="none">
<defs>
	<linearGradient id="Gradient1" gradientUnits="userSpaceOnUse" x1="1570.43" y1="649.332" x2="1545.86" y2="706.651">
		<stop class="stop0" offset="0" stop-opacity="1" stop-color="rgb(24,138,129)"/>
		<stop class="stop1" offset="1" stop-opacity="1" stop-color="rgb(38,192,192)"/>
	</linearGradient>
	<linearGradient id="Gradient2" gradientUnits="userSpaceOnUse" x1="1336.78" y1="571.093" x2="1200.58" y2="576.57">
		<stop class="stop0" offset="0" stop-opacity="1" stop-color="rgb(98,98,98)"/>
		<stop class="stop1" offset="1" stop-opacity="1" stop-color="rgb(128,127,128)"/>
	</linearGradient>
</defs>
<path transform="translate(0,0)" fill="rgb(255,255,255)" d="M 0 0 L 53.8833 0 L 59.5402 0 L 2048 0 L 2048 1117 L 492.978 1117 L 486.65 1117 L 343.842 1117 L 332.327 1117 L 0 1117 L 0 0 z"/>
<path transform="translate(0,0)" fill="rgb(0,0,0)" d="M 0 0 L 53.8833 0 L 59.5402 0 C 91.302 18.3453 125.484 36.1639 157.851 53.8078 L 327.112 146.297 L 431.648 203.604 C 444.983 210.925 458.699 218.055 471.89 225.563 C 495.709 239.122 521.055 246.513 546.871 255.536 L 647.16 290.765 C 661.746 295.894 684.32 303.242 697.486 309.415 C 701.993 311.528 726.156 334.445 731.625 339.504 L 795.137 397.89 C 803.833 405.938 812.61 413.975 821.212 422.12 C 839.466 439.404 862.958 451.394 884.559 464.365 L 985.574 525.152 C 1017.55 507.259 1044.08 496.119 1068.82 468.741 C 1079.06 457.401 1093.57 445.48 1104.67 434.273 C 1087.72 427.41 1060.5 404.827 1045.54 392.738 C 1060.96 393.755 1080.78 394.507 1095.8 396.327 C 1091.12 392.659 1083.46 388.538 1079.91 384.857 C 1064.07 368.475 1051.23 344.368 1038.08 325.154 C 1056.1 332.237 1077.27 340.912 1094.79 348.883 C 1125.1 362.667 1128.4 364.588 1161.15 363.522 L 1219.39 361.791 C 1225.89 361.578 1251.74 360.357 1256.37 361.565 C 1280.17 367.783 1306.03 380.383 1329.65 388.341 L 1359.35 426.148 C 1377.89 432.102 1398.44 439.671 1416.79 445.077 C 1429.87 460.18 1442.8 474.908 1455.05 490.719 C 1450.56 489.584 1431.14 484.457 1428.46 484.974 C 1403.56 489.77 1369.13 499.038 1344.91 505.738 L 1308.72 547.873 C 1302.22 555.495 1291.37 567.687 1286.3 575.799 C 1360.68 562.855 1435.26 544.756 1509.6 531.04 C 1606.51 513.158 1701.26 489.512 1797.01 466.389 L 2047.69 406.248 C 2005.16 442.453 1960.52 479.83 1918.85 516.951 L 2047.46 514.132 C 1995.41 546.635 1943.14 578.799 1890.67 610.621 C 1904.84 611.844 1956.28 616.613 1968 619.777 C 1920.05 631.906 1862.68 650.287 1814.68 664.661 C 1837.84 675.464 1861.44 684.731 1884.54 695.191 C 1823.18 701.141 1758.04 710.908 1696.03 717.89 L 1760.01 759.893 L 1673.99 763.759 C 1663.81 764.244 1629.73 766.926 1622.27 764.938 C 1601.65 759.447 1577.01 747.92 1556.42 741.054 C 1569.24 765.613 1581.75 790.335 1593.94 815.215 C 1547.43 802.835 1501 790.214 1454.63 777.352 C 1413.41 798.603 1367.9 822.591 1327.36 845.002 C 1318.48 830.691 1306.11 811.109 1296.18 797.799 C 1279.83 812.468 1255.99 834.7 1239.05 848.029 C 1235.17 832.359 1231.16 816.723 1227.01 801.122 C 1208.94 816.33 1182.86 834.76 1163.56 849.096 L 1167.61 798.833 C 1149.31 818.514 1128.25 837.137 1109.03 856.045 C 1094.79 870.063 1062.77 875.992 1042.92 881.793 L 971.582 902.307 C 956.023 906.819 931.024 915.698 915.876 915.96 C 865.841 916.824 815.668 919.336 765.656 919.881 L 721.37 996.746 C 718.298 1002.12 698.883 1037.39 695.659 1039.63 C 672.469 1055.8 641.828 1075.51 616.926 1088.72 C 624.011 1073.72 631.436 1058.58 637.465 1043.15 C 626.78 1055.77 615.952 1068.9 605.114 1081.33 L 532.449 1104.26 C 523.604 1107.01 500.55 1113.57 492.978 1117 L 486.65 1117 L 343.842 1117 L 332.327 1117 L 0 1117 L 0 0 z"/>
<path transform="translate(0,0)" fill="rgb(255,255,255)" d="M 0 0 L 53.8833 0 C 95.5668 53.0354 133.47 110.802 174.457 164.511 C 179.902 171.646 185.951 179.64 190.919 187.047 L 58.0504 143.015 C 49.0222 140.054 6.49589 127.009 0 123.504 C 5.46304 131.506 40.3539 161.694 48.9091 169.684 C 90.0518 208.109 134.783 245.723 175.448 284.415 C 123.16 276.917 68.9916 269.907 16.5042 263.31 C 82.7201 301.596 149.653 346.401 215.633 385.86 C 169.02 389.057 118.594 392.644 72.0236 394.447 C 132.687 421.724 195.348 445.629 256.374 472.128 C 262.398 474.743 268.63 477.271 274.564 480.061 C 245.417 488.832 213.962 498.434 184.625 506.164 C 205.532 512.348 231.723 517.766 253.298 522.707 L 361.916 547.679 L 291.382 596.133 C 311.24 597.39 334.34 597.005 354.44 597.123 L 458.029 597.751 C 446.017 612.507 417.617 644.527 408.559 658.605 C 445.909 652.28 485.186 647.602 521.889 641.082 C 515.465 653.27 508.187 665.68 501.259 677.63 C 497.002 684.974 491.772 695.374 487.206 702.229 C 518.264 693.886 556.437 684.558 586.441 674.931 C 577.126 692.909 568.619 711.294 560.945 730.033 C 588.559 723.7 618.161 717.612 645.477 710.934 C 641.918 724.213 636.744 741.613 634.06 754.763 L 701.079 730.392 C 700.032 742.208 699.216 758.524 697.571 769.898 C 705.048 766.933 746.547 751.087 751.875 747.7 C 763.244 740.474 792.735 712.194 804.354 701.557 C 781.396 733.977 758.225 766.244 734.841 798.357 L 669.54 824.405 C 660.674 827.92 641.295 836.088 632.459 838.23 C 608.364 844.069 583.435 849.218 559.156 854.564 L 455.967 877.89 C 437.968 881.929 419.954 886.087 401.949 890.076 C 384.266 893.993 372.641 904.71 357.972 914.505 C 336.358 928.939 315.318 944.644 293.516 958.794 C 323.084 953.484 355.142 949.227 385.01 944.747 L 276.791 1007.99 C 260.001 1017.76 234.201 1031.76 218.912 1042.17 C 258.156 1038.41 298.067 1037.25 337.39 1033.85 C 344.084 1033.28 350.925 1032.98 357.641 1032.76 L 264.747 1110.94 C 300.598 1103.35 337.093 1095.03 372.932 1087.82 C 361.911 1095.39 341.868 1108.73 332.327 1117 L 0 1117 L 0 0 z"/>
<path transform="translate(0,0)" fill="rgb(255,255,255)" d="M 343.842 1117 C 356.179 1112.86 372.148 1109.49 385.071 1106.34 C 410.002 1100.43 434.842 1094.14 459.583 1087.48 C 483.557 1080.8 516.774 1066.53 541.739 1058.28 C 523.386 1077.15 504.026 1097.19 486.65 1117 L 343.842 1117 z"/>
<path transform="translate(0,0)" fill="rgb(34,149,97)" d="M 1027.1 554.037 C 1031.31 581.192 1035.88 608.292 1040.8 635.328 C 1042.85 646.698 1047.26 666.201 1048.43 676.513 C 1047.34 677.939 1046.49 678.597 1046.25 680.19 L 1044.79 683.076 C 1032.35 728.867 1017.12 774.358 1004.39 820.128 C 1002.34 827.493 1000.11 835.139 997.726 842.39 C 968.092 836.389 938.404 830.658 908.666 825.197 C 890.994 821.875 870.954 818.544 853.719 814.173 L 852.271 814.144 L 850.773 813.729 C 849.617 813.078 848.577 811.833 848.434 810.489 C 844.969 778.041 841.865 745.521 838.158 713.1 C 836.748 700.77 835.726 687.723 833.633 675.548 L 837.046 672.949 C 858.335 660.613 881.825 645.145 902.873 631.995 L 1021.8 558.296 L 1027.1 554.037 z"/>
<path transform="translate(0,0)" fill="rgb(27,135,89)" d="M 1027.1 554.037 C 1031.31 581.192 1035.88 608.292 1040.8 635.328 C 1042.85 646.698 1047.26 666.201 1048.43 676.513 C 1047.34 677.939 1046.49 678.597 1046.25 680.19 C 1041.82 677.88 945.399 670.551 930.968 668.949 L 872.465 671.81 C 863.001 672.282 846.303 673.414 837.046 672.949 C 858.335 660.613 881.825 645.145 902.873 631.995 L 1021.8 558.296 L 1027.1 554.037 z"/>
<path transform="translate(0,0)" fill="rgb(14,103,92)" d="M 837.046 672.949 C 858.335 660.613 881.825 645.145 902.873 631.995 L 1021.8 558.296 C 1019.48 562.902 1010.37 571.363 1006.14 576.504 L 957.92 635.172 C 952.086 642.221 934.845 662.382 930.968 668.949 L 872.465 671.81 C 863.001 672.282 846.303 673.414 837.046 672.949 z"/>
<path transform="translate(0,0)" fill="rgb(17,136,121)" d="M 853.719 814.173 C 905.177 780.264 955.272 742.861 1006.41 708.36 C 1018.67 700.089 1031.74 689.947 1044.79 683.076 C 1032.35 728.867 1017.12 774.358 1004.39 820.128 C 1002.34 827.493 1000.11 835.139 997.726 842.39 C 968.092 836.389 938.404 830.658 908.666 825.197 C 890.994 821.875 870.954 818.544 853.719 814.173 z"/>
<path transform="translate(0,0)" fill="rgb(27,135,89)" d="M 837.046 672.949 C 846.303 673.414 863.001 672.282 872.465 671.81 L 930.968 668.949 C 922.207 683.572 852.74 810.054 852.271 814.144 L 850.773 813.729 C 849.617 813.078 848.577 811.833 848.434 810.489 C 844.969 778.041 841.865 745.521 838.158 713.1 C 836.748 700.77 835.726 687.723 833.633 675.548 L 837.046 672.949 z"/>
<path transform="translate(0,0)" fill="rgb(14,103,92)" d="M 87.3286 24.3031 C 110.82 35.8422 138.618 51.9078 161.954 64.6466 L 301.3 140.728 L 424.165 207.989 C 442.404 218.006 471.211 232.759 488.052 243.466 C 492.987 253.663 500.433 267.956 504.653 278.087 C 508.071 283.304 517.867 304.716 520.528 310.602 C 494.063 302.52 209.928 195.079 203.55 189.724 C 196.301 183.637 190.059 172.951 184.404 165.263 L 147.327 114.43 C 130.683 91.4707 105.143 58.783 90.479 35.9046 L 89.7705 30.0518 C 88.9575 28.586 87.9936 25.9465 87.3286 24.3031 z"/>
<path transform="translate(0,0)" fill="rgb(34,149,97)" d="M 87.3286 24.3031 C 110.82 35.8422 138.618 51.9078 161.954 64.6466 L 301.3 140.728 L 424.165 207.989 C 442.404 218.006 471.211 232.759 488.052 243.466 C 492.987 253.663 500.433 267.956 504.653 278.087 C 495.029 276.535 242.638 151.851 214.049 139.059 C 210.647 137.536 189.315 118.255 184.835 114.255 L 138.31 72.6085 C 124.469 60.2292 101.554 42.2002 89.7705 30.0518 C 88.9575 28.586 87.9936 25.9465 87.3286 24.3031 z"/>
<path transform="translate(0,0)" fill="rgb(50,189,127)" d="M 34.9039 146.306 L 32.6616 143.969 C 35.7731 142.183 208.27 200.894 227.536 208.403 C 254.801 219.029 295.657 234.296 323.414 244.751 L 436.886 287.718 C 454.761 294.503 479.805 303.071 496.522 310.681 C 490.12 310.66 470.867 309.237 466.776 312.554 C 467.55 314.941 467.866 315.068 469.708 316.895 C 471.422 317.492 509.772 355.562 514.455 360.069 C 437.726 341.305 359.742 325.739 282.949 307.351 C 272.362 304.816 191.423 287.491 187.719 284.904 C 137.931 240.812 83.4778 191.883 34.9039 146.306 z"/>
<path transform="translate(0,0)" fill="rgb(34,149,97)" d="M 172.321 228.221 L 367.063 287.104 C 380.181 291.092 461.129 317.214 469.708 316.895 C 471.422 317.492 509.772 355.562 514.455 360.069 C 437.726 341.305 359.742 325.739 282.949 307.351 C 272.362 304.816 191.423 287.491 187.719 284.904 C 183.317 268.198 177.841 243.915 172.321 228.221 z"/>
<path transform="translate(0,0)" fill="rgb(14,115,91)" d="M 34.9039 146.306 C 41.3847 148.003 69.0169 166.097 76.9984 170.921 C 108.604 190.021 140.888 208.893 172.321 228.221 C 177.841 243.915 183.317 268.198 187.719 284.904 C 137.931 240.812 83.4778 191.883 34.9039 146.306 z"/>
<path transform="translate(0,0)" fill="rgb(27,135,89)" d="M 1093.09 456.663 C 1107.04 454.56 1162.61 438.945 1172.83 440.213 C 1165.36 447.897 1157.78 454.723 1150.12 462.11 C 1158.31 482.801 1166.27 503.583 1174 524.452 C 1178.14 526.965 1181.86 529.165 1186.13 531.443 C 1188.85 533.05 1189.83 532.99 1190.98 535.488 C 1190.46 543.281 1183.5 584.23 1181.25 591.718 L 1180.08 592.671 C 1136.5 621.261 1091.75 648.201 1048.43 676.513 C 1047.26 666.201 1042.85 646.698 1040.8 635.328 C 1035.88 608.292 1031.31 581.192 1027.1 554.037 L 1028.05 552.812 C 1024.45 547.168 1000.92 534.321 993.62 530.08 C 996.337 527.906 998.786 526.461 1001.74 524.645 C 1009.22 520.962 1041.61 503.471 1047.04 499.112 C 1060.97 487.923 1079.08 469.51 1093.09 456.663 z"/>
<path transform="translate(0,0)" fill="rgb(50,189,127)" d="M 1028.78 553.038 C 1032.73 554.299 1036.82 555.7 1040.86 556.582 C 1073.12 566.237 1107.78 573.414 1140.29 582.34 C 1150.25 585.073 1171.59 589.51 1180.08 592.671 C 1136.5 621.261 1091.75 648.201 1048.43 676.513 C 1047.26 666.201 1042.85 646.698 1040.8 635.328 C 1035.88 608.292 1031.31 581.192 1027.1 554.037 L 1028.05 552.812 L 1028.78 553.038 z"/>
<path transform="translate(0,0)" fill="rgb(34,149,97)" d="M 1093.09 456.663 C 1107.04 454.56 1162.61 438.945 1172.83 440.213 C 1165.36 447.897 1157.78 454.723 1150.12 462.11 C 1137.3 471.964 1126.3 482.582 1114.45 493.43 C 1110.67 496.895 1099.29 507.508 1095.32 509.934 C 1093.88 510.08 1093.77 509.867 1092.72 510.532 C 1089.2 517.445 1037.2 543.638 1028.78 553.038 L 1028.05 552.812 C 1024.45 547.168 1000.92 534.321 993.62 530.08 C 996.337 527.906 998.786 526.461 1001.74 524.645 C 1009.22 520.962 1041.61 503.471 1047.04 499.112 C 1060.97 487.923 1079.08 469.51 1093.09 456.663 z"/>
<path transform="translate(0,0)" fill="rgb(14,103,92)" d="M 1092.72 510.532 C 1089.2 517.445 1037.2 543.638 1028.78 553.038 L 1028.05 552.812 C 1024.45 547.168 1000.92 534.321 993.62 530.08 C 996.337 527.906 998.786 526.461 1001.74 524.645 C 1009.3 526.065 1078.59 512.242 1092.72 510.532 z"/>
<path transform="translate(0,0)" fill="rgb(14,103,92)" d="M 1186.13 531.443 C 1188.85 533.05 1189.83 532.99 1190.98 535.488 C 1190.46 543.281 1183.5 584.23 1181.25 591.718 L 1180.08 592.671 C 1171.59 589.51 1150.25 585.073 1140.29 582.34 C 1107.78 573.414 1073.12 566.237 1040.86 556.582 C 1045.06 554.783 1064.88 551.844 1070.72 550.891 L 1143.82 538.799 C 1151.23 537.633 1180.5 533.584 1186.13 531.443 z"/>
<path transform="translate(0,0)" fill="rgb(14,103,92)" d="M 1095.32 509.934 C 1099.29 507.508 1110.67 496.895 1114.45 493.43 C 1126.3 482.582 1137.3 471.964 1150.12 462.11 C 1158.31 482.801 1166.27 503.583 1174 524.452 C 1156.81 520.296 1137.13 517.894 1119.62 514.588 C 1113.93 513.515 1100.03 511.76 1095.32 509.934 z"/>
<path transform="translate(0,0)" fill="rgb(197,196,196)" d="M 1069.36 672.688 C 1107.44 648.634 1145.39 624.383 1183.22 599.937 C 1191.97 631.615 1203.8 667.119 1211.7 698.113 L 1222.79 735.335 C 1205.94 753.108 1184.29 772.818 1166.31 789.863 L 1097.24 855.798 C 1096.59 851.687 1097.72 818.985 1097.86 812.76 C 1103.82 813.276 1112.88 813.165 1119.07 813.263 C 1131.62 800.793 1145.29 786.685 1158.36 774.984 L 1168.98 775.975 C 1172.91 772.72 1176.94 768.891 1180.74 765.436 C 1181.35 748.178 1180.83 747.726 1166.88 737.987 L 1154.99 740.194 L 1144.99 749.485 L 1145.07 763.222 L 1111.97 795.399 L 1098.6 795.25 C 1084.4 795.106 1074.11 807.86 1063.75 817.051 L 1008.67 866.022 C 1001.84 872.108 985.787 886.931 979.135 891.197 C 974.309 894.291 948.804 900.843 941.224 903.006 L 1071.42 792.558 L 1070.77 757.604 C 1082.84 745.374 1094.82 733.068 1106.73 720.686 L 1119.37 722.311 C 1123.5 717.973 1127.99 714.163 1132.48 710.21 C 1132.22 703.722 1131.74 698.125 1131.1 691.676 C 1127.85 688.327 1122.23 684.634 1118.29 681.843 L 1105.7 682.166 C 1101.72 686.317 1097.98 689.616 1093.7 693.411 L 1093.63 708.799 C 1081.41 722.417 1065.7 736.827 1052.79 750.725 L 1054.13 799.612 C 1040.43 812.465 1021.77 827.219 1007.04 839.382 C 1008.39 833.034 1016.16 805.226 1018.31 799.582 C 1024.73 782.743 1048.65 686.932 1055.92 681.447 C 1060.82 677.877 1064.21 675.746 1069.36 672.688 z"/>
<path transform="translate(0,0)" fill="rgb(120,120,120)" d="M 1055.92 681.447 C 1065.22 682.42 1085.03 681.487 1094.97 681.279 L 1178.57 678.871 C 1152.81 708.762 1124 737.815 1098.76 767.371 L 1098.6 795.25 C 1084.4 795.106 1074.11 807.86 1063.75 817.051 L 1008.67 866.022 C 1001.84 872.108 985.787 886.931 979.135 891.197 C 974.309 894.291 948.804 900.843 941.224 903.006 L 1071.42 792.558 L 1070.77 757.604 C 1082.84 745.374 1094.82 733.068 1106.73 720.686 L 1119.37 722.311 C 1123.5 717.973 1127.99 714.163 1132.48 710.21 C 1132.22 703.722 1131.74 698.125 1131.1 691.676 C 1127.85 688.327 1122.23 684.634 1118.29 681.843 L 1105.7 682.166 C 1101.72 686.317 1097.98 689.616 1093.7 693.411 L 1093.63 708.799 C 1081.41 722.417 1065.7 736.827 1052.79 750.725 L 1054.13 799.612 C 1040.43 812.465 1021.77 827.219 1007.04 839.382 C 1008.39 833.034 1016.16 805.226 1018.31 799.582 C 1024.73 782.743 1048.65 686.932 1055.92 681.447 z"/>
<path transform="translate(0,0)" fill="rgb(255,255,255)" d="M 1069.36 672.688 C 1107.44 648.634 1145.39 624.383 1183.22 599.937 C 1191.97 631.615 1203.8 667.119 1211.7 698.113 C 1203.97 695.443 1186.66 683.232 1178.82 677.985 C 1175.62 661.92 1172.52 645.837 1169.5 629.737 C 1143.68 640.843 1098.99 661.324 1071.85 673.312 C 1070.89 673.07 1070.06 672.862 1069.36 672.688 z"/>
<path transform="translate(0,0)" fill="rgb(41,180,160)" d="M 58.1467 279.43 L 54.2779 277.257 L 54.0239 276.298 C 58.4846 275.87 95.9567 281.114 102.216 282.118 C 130.149 286.598 161.353 289.007 188.928 294.095 C 210.551 298.084 236.089 304.493 257.895 309.445 L 382.421 337.778 L 472.057 358.031 C 491.897 362.497 525.102 367.813 541.175 379.032 L 541.531 380.548 L 539.357 380.846 C 529.255 383.378 503.787 386.05 492.034 387.698 C 497.351 392.374 502.039 395.379 507.91 399.299 L 332.581 390.716 C 320.569 390.112 231.142 386.708 226.728 383.65 C 216.674 378.933 185.164 358.144 174.036 351.276 C 135.795 327.676 95.8336 303.823 58.1467 279.43 z"/>
<path transform="translate(0,0)" fill="rgb(14,103,92)" d="M 208.675 335.447 C 291.386 348.204 378.604 358.857 461.873 370.361 L 513.675 377.37 C 518.327 377.959 535.88 379.622 539.357 380.846 C 529.255 383.378 503.787 386.05 492.034 387.698 C 497.351 392.374 502.039 395.379 507.91 399.299 L 332.581 390.716 C 320.569 390.112 231.142 386.708 226.728 383.65 C 226.436 375.93 207.526 341.035 208.675 335.447 z"/>
<path transform="translate(0,0)" fill="rgb(17,136,121)" d="M 58.1467 279.43 C 65.1053 278.819 190.867 330.264 208.675 335.447 C 207.526 341.035 226.436 375.93 226.728 383.65 C 216.674 378.933 185.164 358.144 174.036 351.276 C 135.795 327.676 95.8336 303.823 58.1467 279.43 z"/>
<path transform="translate(0,0)" fill="rgb(14,115,91)" d="M 111.799 402.904 L 108.296 400.922 L 108.957 399.747 C 111.412 399.21 145.757 397.801 150.275 397.685 C 175.723 397.029 205.22 393.155 230.175 393.226 C 248.888 393.279 274.362 395.322 293.496 396.298 L 405.406 401.813 L 480.287 405.516 C 493.098 406.148 506.522 406.664 519.306 407.727 C 523.769 408.098 529.271 412.102 533.192 414.617 L 534.998 415.781 C 544.055 420.804 552.215 426.467 562.028 431.734 C 553.252 433.918 537.206 435.985 527.665 437.552 L 459.451 448.679 C 402.297 457.867 343.77 468.355 286.742 476.752 L 111.799 402.904 z"/>
<path transform="translate(0,0)" fill="rgb(50,189,127)" d="M 111.799 402.904 L 108.296 400.922 L 108.957 399.747 C 111.412 399.21 145.757 397.801 150.275 397.685 C 175.723 397.029 205.22 393.155 230.175 393.226 C 248.888 393.279 274.362 395.322 293.496 396.298 L 405.406 401.813 L 480.287 405.516 C 493.098 406.148 506.522 406.664 519.306 407.727 C 523.769 408.098 529.271 412.102 533.192 414.617 L 534.998 415.781 C 528.528 416.716 503.503 417.031 496.193 417.307 L 424.705 420.665 L 314.395 425.869 C 297.206 426.678 271.446 428.622 254.714 427.619 C 240.505 425.658 226.376 422.561 212.261 419.933 C 180.896 414.093 149.499 408.681 118.381 401.66 C 116.405 401.214 113.654 402.177 111.799 402.904 z"/>
<path transform="translate(0,0)" fill="rgb(41,180,160)" d="M 222.113 503.395 C 253.386 494.429 283.752 483.938 316.008 479.847 C 322.706 478.997 329.717 477.626 336.433 476.535 L 425.204 462.124 L 522.818 446.248 C 533.174 444.563 572.019 436.729 579.088 439.257 C 592.599 444.077 610.341 449.617 623.104 454.937 C 538.938 483.586 454.931 512.703 371.089 542.288 C 321.817 529.249 264.677 517.411 214.412 505.958 C 217.24 504.553 219.101 504.187 222.113 503.395 z"/>
<path transform="translate(0,0)" fill="rgb(17,136,121)" d="M 579.088 439.257 C 592.599 444.077 610.341 449.617 623.104 454.937 C 538.938 483.586 454.931 512.703 371.089 542.288 C 366.809 537.611 351.057 513.827 346.263 507.029 C 360.045 503.746 378.243 497.985 392.203 493.948 L 471.017 471.334 L 544.233 450.301 C 550.611 448.458 574.658 442.008 579.088 439.257 z"/>
<path transform="translate(0,0)" fill="rgb(14,103,92)" d="M 214.412 505.958 C 217.24 504.553 219.101 504.187 222.113 503.395 L 223.023 504.914 C 231.568 506.718 254.004 505.96 264.406 506.057 L 346.263 507.029 C 351.057 513.827 366.809 537.611 371.089 542.288 C 321.817 529.249 264.677 517.411 214.412 505.958 z"/>
<path transform="translate(0,0)" fill="rgb(197,196,196)" d="M 1998.57 426.007 C 2003.25 424.869 2011.06 422.662 2015.61 422.629 L 2015.72 423.508 L 2013.08 425.258 C 1989.44 445.996 1965.65 466.562 1941.71 486.955 C 1934.22 493.396 1913.78 511.915 1906.5 516.916 C 1835.89 522.552 1765.25 527.702 1694.56 532.363 C 1663.36 534.466 1628.2 538.224 1597.41 539.37 C 1604.07 534.932 1632.81 515.327 1638.04 513.72 C 1656.79 507.963 1684.69 501.084 1704.54 496.78 C 1723.84 492.595 1749.93 484.621 1768.18 481.34 L 1998.57 426.007 z"/>
<path transform="translate(0,0)" fill="rgb(255,255,255)" d="M 1768.18 481.34 L 1998.57 426.007 L 1998.5 429.314 C 1978.84 439.985 1945.06 455.348 1924.24 464.493 C 1917.99 467.238 1873.79 475.236 1864.65 477.071 L 1753.26 499.905 C 1758.34 493.801 1763.31 487.612 1768.18 481.34 z"/>
<path transform="translate(0,0)" fill="rgb(223,223,224)" d="M 1998.57 426.007 C 2003.25 424.869 2011.06 422.662 2015.61 422.629 L 2015.72 423.508 L 2013.08 425.258 C 2007.97 425.322 2004.26 428.309 1998.5 429.314 L 1998.57 426.007 z"/>
<path transform="translate(0,0)" fill="rgb(34,149,97)" d="M 1061.29 346.099 L 1059.41 343.4 L 1060.37 342.827 C 1083.1 350.703 1106.17 363.665 1129.19 371.236 C 1134.34 372.931 1141.54 371.216 1145.85 371.997 C 1178.47 369.366 1224.1 369.148 1257.66 369.813 C 1265.48 369.968 1290.61 383.091 1299.83 385.258 C 1304.62 386.923 1322.38 393.613 1325.54 396.675 C 1333.1 404.004 1342.27 417.049 1348.92 425.847 C 1349.46 426.198 1350.24 427.414 1350.68 428.013 C 1349.99 432.161 1335.04 445.567 1331.06 449.395 C 1314.56 440.374 1288.07 423.562 1270.41 414.234 C 1269.47 414.435 1268.66 414.609 1267.98 414.754 C 1259.16 420.363 1246.49 429.24 1236.44 430.299 C 1218.03 432.238 1198.15 433.37 1179.69 434.283 L 1172.83 440.213 C 1162.61 438.945 1107.04 454.56 1093.09 456.663 C 1100.11 449.51 1112.13 436.566 1120.88 432.79 C 1118.1 430.975 1112.65 429.066 1109.42 427.798 C 1102.11 424.937 1074.56 407.873 1071.87 402.459 C 1074.87 401.519 1074.14 401.89 1077.68 402.728 C 1091.26 403.404 1110.09 404.921 1123.27 404.844 C 1120.69 402.195 1106.4 392.914 1102.99 391.174 C 1080.03 379.449 1074.75 367.013 1061.29 346.099 z"/>
<path transform="translate(0,0)" fill="rgb(50,189,127)" d="M 1145.85 371.997 C 1178.47 369.366 1224.1 369.148 1257.66 369.813 C 1265.48 369.968 1290.61 383.091 1299.83 385.258 C 1304.62 386.923 1322.38 393.613 1325.54 396.675 C 1333.1 404.004 1342.27 417.049 1348.92 425.847 C 1334.6 424.923 1292.38 398.687 1275.02 393.803 C 1256.21 388.51 1155.04 378.298 1145.85 371.997 z"/>
<path transform="translate(0,0)" fill="rgb(14,115,91)" d="M 1178.22 423.269 C 1199.99 424.234 1244.27 417.599 1267.98 414.754 C 1259.16 420.363 1246.49 429.24 1236.44 430.299 C 1218.03 432.238 1198.15 433.37 1179.69 434.283 L 1172.83 440.213 C 1162.61 438.945 1107.04 454.56 1093.09 456.663 C 1100.11 449.51 1112.13 436.566 1120.88 432.79 C 1125.89 433.168 1174.82 426.348 1178.64 425.045 L 1178.22 423.269 z"/>
<path transform="translate(0,0)" fill="rgb(14,103,92)" d="M 1061.29 346.099 C 1074.38 352.315 1089.82 363.698 1101.96 372.165 C 1119.7 384.347 1137.3 396.746 1154.74 409.36 C 1146.37 408.668 1128.95 404.881 1123.27 404.844 C 1120.69 402.195 1106.4 392.914 1102.99 391.174 C 1080.03 379.449 1074.75 367.013 1061.29 346.099 z"/>
<path transform="translate(0,0)" fill="rgb(14,103,92)" d="M 1120.88 432.79 C 1118.1 430.975 1112.65 429.066 1109.42 427.798 C 1102.11 424.937 1074.56 407.873 1071.87 402.459 C 1074.87 401.519 1074.14 401.89 1077.68 402.728 L 1077.46 404.438 C 1085.86 409.241 1164.23 421.375 1178.22 423.269 L 1178.64 425.045 C 1174.82 426.348 1125.89 433.168 1120.88 432.79 z"/>
<path transform="translate(0,0)" fill="rgb(50,189,127)" d="M 583.658 895.297 C 621.375 884.265 668.714 860.144 708.041 846.931 C 698.987 853.855 679.892 862.72 669.109 867.869 L 601.895 899.27 C 559.538 919.659 517.027 939.728 474.368 959.476 C 458.294 966.985 430.376 981.382 414.778 987.222 C 400.958 994.657 382.029 1013.91 368.777 1023.9 C 329.686 1026.82 290.577 1029.5 251.452 1031.93 C 253.402 1030.78 262.447 1025.26 263.941 1024.72 C 285.647 1010.48 317.66 993.187 340.786 979.57 C 362.075 969.311 387.275 949.298 408.403 940.634 C 479.057 911.66 550.624 880.908 621.499 852.849 C 615.226 859.043 601.736 874.965 595.811 879.061 C 591.719 884.947 588.133 889.694 583.658 895.297 z"/>
<path transform="translate(0,0)" fill="rgb(14,103,92)" d="M 583.658 895.297 C 621.375 884.265 668.714 860.144 708.041 846.931 C 698.987 853.855 679.892 862.72 669.109 867.869 L 601.895 899.27 C 559.538 919.659 517.027 939.728 474.368 959.476 C 458.294 966.985 430.376 981.382 414.778 987.222 C 419.206 979.429 442.122 954.28 449.146 945.363 C 458.989 939.388 487.615 927.402 499.119 922.262 L 595.811 879.061 C 591.719 884.947 588.133 889.694 583.658 895.297 z"/>
<path transform="translate(0,0)" fill="rgb(27,135,89)" d="M 263.941 1024.72 C 268.939 1025.55 300.119 1010.21 307.603 1006.88 L 396.301 967.887 C 411.215 961.322 434.595 950.257 449.146 945.363 C 442.122 954.28 419.206 979.429 414.778 987.222 C 400.958 994.657 382.029 1013.91 368.777 1023.9 C 329.686 1026.82 290.577 1029.5 251.452 1031.93 C 253.402 1030.78 262.447 1025.26 263.941 1024.72 z"/>
<path transform="translate(0,0)" fill="rgb(120,120,120)" d="M 1962.44 523.546 C 1980.16 522.639 2000.69 522.899 2018.62 522.708 C 1972.34 552.343 1925.05 580.171 1878.52 609.362 C 1851.9 606.253 1825.25 603.341 1798.58 600.628 C 1776.55 598.266 1754.13 595.394 1732.09 593.734 C 1728.74 590.04 1725.08 585.022 1721.98 581.009 L 1804.45 579.752 C 1807.16 583.109 1810.34 586.536 1813.24 589.774 L 1832.64 589.921 C 1836.55 584.787 1840.7 577.758 1844.21 572.142 C 1840.88 564.392 1838.39 559.22 1834.34 551.829 C 1826.64 551.449 1815.86 549.455 1810.63 553.663 C 1808.63 556.519 1805.97 559.399 1803.66 562.054 C 1776.74 562.244 1749.82 562.755 1722.91 563.587 L 1710.79 548.855 C 1682 549.332 1653.2 550.082 1624.42 551.104 C 1614.78 551.395 1589.75 552.657 1581.16 551.343 L 1581.08 550.505 C 1593.58 545.023 1681.91 541.05 1700.79 539.716 C 1788 533.561 1875.01 525.491 1962.44 523.546 z"/>
<path transform="translate(0,0)" fill="rgb(197,196,196)" d="M 1520.87 589.468 L 1697.19 638.587 C 1752.19 653.951 1803.76 665.748 1855.22 691.215 C 1852.33 691.578 1844.44 692.758 1841.93 692.679 L 1685.69 711.43 C 1678.3 707.452 1665.29 698.574 1657.81 693.777 L 1598.01 655.307 C 1568.16 636.326 1538.4 617.194 1508.75 597.909 C 1513.21 594.446 1516.06 592.395 1520.87 589.468 z"/>
<path transform="translate(0,0)" fill="rgb(120,120,120)" d="M 1520.87 589.468 L 1697.19 638.587 C 1752.19 653.951 1803.76 665.748 1855.22 691.215 C 1852.33 691.578 1844.44 692.758 1841.93 692.679 C 1837.11 688.862 1808.2 690.844 1799.45 688.098 C 1780.69 682.209 1762.36 675.147 1743.88 668.507 L 1631.93 627.714 C 1620.56 636.839 1609.26 646.036 1598.01 655.307 C 1568.16 636.326 1538.4 617.194 1508.75 597.909 C 1513.21 594.446 1516.06 592.395 1520.87 589.468 z"/>
<path transform="translate(0,0)" fill="rgb(14,103,92)" d="M 833.633 675.548 C 835.726 687.723 836.748 700.77 838.158 713.1 C 841.865 745.521 844.969 778.041 848.434 810.489 C 848.577 811.833 849.617 813.078 850.773 813.729 C 848.418 814.677 846.391 815.457 844.123 816.634 C 788.193 849.996 732.077 883.041 675.775 915.77 C 689.438 890.767 704.998 866.339 718.906 841.425 C 726.298 828.185 734.281 814.57 742.239 801.658 C 771.13 759.669 803.774 717.208 833.633 675.548 z"/>
<path transform="translate(0,0)" fill="rgb(27,135,89)" d="M 742.239 801.658 C 764.658 806.99 794.149 808.616 817.121 812.531 C 825.213 813.91 836.309 814.557 844.123 816.634 C 788.193 849.996 732.077 883.041 675.775 915.77 C 689.438 890.767 704.998 866.339 718.906 841.425 C 726.298 828.185 734.281 814.57 742.239 801.658 z"/>
<path transform="translate(0,0)" fill="rgb(14,115,91)" d="M 614.232 465.711 C 603.958 473.316 592.982 482.827 583.052 491.061 C 590.989 492.843 613.577 492.084 623.022 491.903 C 571.286 525.112 517.349 557.71 465.006 590.047 C 450.648 590.061 322.171 590.851 317.222 588.105 C 318.098 587.315 319.03 586.345 320.028 585.799 C 336.702 574.329 355.971 560.324 373.376 550.376 C 379.394 546.935 397.69 540.994 405.05 538.445 L 453.742 521.614 L 614.232 465.711 z"/>
<path transform="translate(0,0)" fill="rgb(34,149,97)" d="M 614.232 465.711 C 603.958 473.316 592.982 482.827 583.052 491.061 C 572.952 494.106 557.257 502.357 547.209 506.649 C 519.698 518.307 492.343 530.332 465.153 542.719 C 454.635 547.403 444.043 551.924 433.471 556.791 C 403.848 570.429 370.122 572.528 339.251 582.901 C 334.254 584.58 325.67 586.351 320.524 585.845 L 320.028 585.799 C 336.702 574.329 355.971 560.324 373.376 550.376 C 379.394 546.935 397.69 540.994 405.05 538.445 L 453.742 521.614 L 614.232 465.711 z"/>
<path transform="translate(0,0)" fill="rgb(50,189,127)" d="M 832.448 441.793 L 834.437 443.254 L 952.323 514.063 C 965.195 521.774 1001.64 542.504 1012.26 550.714 C 1012.62 550.857 1014.24 552.055 1014.67 552.362 C 1013.52 555.598 950.167 593.479 941.43 599.109 C 905.696 571.438 860.3 540.17 823.045 513.478 C 818.917 511.124 818.055 510.238 814.655 506.848 C 816.302 503.838 817.61 497.811 818.532 494.27 L 832.448 441.793 z"/>
<path transform="translate(0,0)" fill="rgb(17,136,121)" d="M 823.045 513.478 C 833.835 511.157 875.586 525.183 888.061 524.802 C 890.812 526.318 1007.77 551.417 1012.26 550.714 C 1012.62 550.857 1014.24 552.055 1014.67 552.362 C 1013.52 555.598 950.167 593.479 941.43 599.109 C 905.696 571.438 860.3 540.17 823.045 513.478 z"/>
<path transform="translate(0,0)" fill="rgb(14,103,92)" d="M 832.448 441.793 L 834.437 443.254 C 846.624 466.217 873.282 501.334 888.061 524.802 C 875.586 525.183 833.835 511.157 823.045 513.478 C 818.917 511.124 818.055 510.238 814.655 506.848 C 816.302 503.838 817.61 497.811 818.532 494.27 L 832.448 441.793 z"/>
<path transform="translate(0,0)" fill="rgb(41,180,160)" d="M 599.557 908.794 C 597.407 915.007 593.756 925.662 592.86 931.846 C 589.113 941.293 539.88 970.095 530.234 978.5 C 529.057 979.526 522.771 983.693 521.133 984.757 C 493.182 1006.27 462.097 1025.38 433.487 1046.17 C 429.128 1049.33 424.25 1052.76 419.746 1055.65 C 410.73 1062.16 400.672 1071.11 390.567 1075.55 C 383.029 1078.87 309.562 1094.23 299.968 1095.37 C 298.524 1096.14 298.153 1095.99 296.52 1096.01 C 297.921 1092.52 325.24 1070.13 329.535 1066.5 L 382.915 1021.63 C 395.187 1011.35 408.162 999.036 422.64 992.169 C 440.553 983.672 458.599 975.389 476.573 967.015 C 517.673 947.832 558.669 928.425 599.557 908.794 z"/>
<path transform="translate(0,0)" fill="rgb(197,196,196)" d="M 426.206 1024.2 C 423.995 1034.67 421.842 1045.15 419.746 1055.65 C 410.73 1062.16 400.672 1071.11 390.567 1075.55 C 383.029 1078.87 309.562 1094.23 299.968 1095.37 C 304.401 1090.61 413.919 1031.02 426.206 1024.2 z"/>
<path transform="translate(0,0)" fill="rgb(120,120,120)" d="M 523.452 968.695 C 522.483 972.69 519.633 981.467 521.133 984.757 C 493.182 1006.27 462.097 1025.38 433.487 1046.17 C 429.128 1049.33 424.25 1052.76 419.746 1055.65 C 421.842 1045.15 423.995 1034.67 426.206 1024.2 C 434.475 1018.54 452.116 1009.02 461.389 1003.73 C 481.963 991.852 502.652 980.173 523.452 968.695 z"/>
<path transform="translate(0,0)" fill="rgb(197,196,196)" d="M 523.452 968.695 C 540.423 958.209 571.576 941.916 590.33 931.524 C 591.317 931.65 592.16 931.757 592.86 931.846 C 589.113 941.293 539.88 970.095 530.234 978.5 C 529.057 979.526 522.771 983.693 521.133 984.757 C 519.633 981.467 522.483 972.69 523.452 968.695 z"/>
<path transform="translate(0,0)" fill="url(#Gradient2)" d="M 1311.32 481.135 C 1320.02 488.185 1328.76 495.188 1337.54 502.142 C 1320.39 522.316 1296.71 548.009 1282.04 569.649 C 1278.82 574.404 1272.62 598.301 1268.5 606.044 C 1255.13 645.407 1241.43 684.654 1227.39 723.78 C 1222.3 707.055 1189.99 601.526 1190.48 594.726 L 1193.13 592.648 C 1230.8 556.41 1275.29 517.474 1311.32 481.135 z"/>
<path transform="translate(0,0)" fill="rgb(197,196,196)" d="M 1193.13 592.648 C 1205.1 589.636 1240.15 575.331 1252.62 569.543 C 1239.64 603.393 1227.18 637.437 1215.23 671.662 C 1221.89 661.591 1260.65 609.578 1267.28 605.666 L 1268.5 606.044 C 1255.13 645.407 1241.43 684.654 1227.39 723.78 C 1222.3 707.055 1189.99 601.526 1190.48 594.726 L 1193.13 592.648 z"/>
<path transform="translate(0,0)" fill="rgb(14,115,91)" d="M 637.469 491.87 L 653.771 491.803 C 647.82 497.231 642.239 502.886 636.061 508.442 C 632.087 516.709 624.324 521.743 619.378 528.581 C 630.479 531.242 641.607 533.789 652.761 536.221 L 570.77 599.655 C 565.629 603.632 531.064 631.164 527.256 631.743 C 496.717 636.386 457.943 644.976 427.627 647.378 L 427.414 646.544 C 434.129 638.36 463.949 600.975 470.528 596.657 C 525.308 560.706 582.204 527.249 637.469 491.87 z"/>
<path transform="translate(0,0)" fill="rgb(50,189,127)" d="M 637.469 491.87 L 653.771 491.803 C 647.82 497.231 642.239 502.886 636.061 508.442 C 624.899 516.003 611.796 527.274 601.126 535.97 L 545.342 581.386 C 540.272 585.494 521.715 601.115 516.928 603.924 C 501.347 613.066 480.376 621.421 463.808 629.59 C 456.742 633.074 433.667 645.127 427.414 646.544 C 434.129 638.36 463.949 600.975 470.528 596.657 C 525.308 560.706 582.204 527.249 637.469 491.87 z"/>
<path transform="translate(0,0)" fill="rgb(197,196,196)" d="M 1918.07 625.882 C 1904.22 631.034 1809.54 659.75 1800.69 659.031 C 1786.15 657.85 1750.83 645.856 1734.55 641.309 L 1574.49 596.543 C 1568.47 594.833 1532.74 585.412 1531.16 583.574 C 1533.7 580.581 1537.12 579.871 1540.93 580.414 C 1581.45 586.195 1622.59 588.371 1663.13 593.813 L 1912.62 620.373 L 1931.03 622.597 C 1927.62 623.47 1921.3 625.31 1918.07 625.882 z"/>
<path transform="translate(0,0)" fill="rgb(255,255,255)" d="M 1663.13 593.813 L 1912.62 620.373 C 1910.43 624.345 1894.32 622.459 1888.61 623.878 C 1868.2 624.559 1847.47 627.721 1827.25 624.568 C 1819.61 623.377 1811.98 622.151 1804.35 620.897 L 1747.9 611.6 L 1691.57 602.398 C 1680.93 600.647 1665.75 598.611 1655.92 595.52 C 1658.17 594.092 1660.42 594.127 1663.13 593.813 z"/>
<path transform="translate(0,0)" fill="rgb(223,223,224)" d="M 1912.62 620.373 L 1931.03 622.597 C 1927.62 623.47 1921.3 625.31 1918.07 625.882 C 1913.58 622.933 1895.66 624.092 1888.61 623.878 C 1894.32 622.459 1910.43 624.345 1912.62 620.373 z"/>
<path transform="translate(0,0)" fill="rgb(50,189,127)" d="M 1187.71 441.042 C 1200.32 440.777 1229.7 438.907 1242.25 437.27 C 1248.19 445.527 1254.6 454.875 1260.75 462.87 L 1262.39 464.105 C 1270.44 462.257 1278.47 460.325 1286.48 458.308 L 1292.58 451.846 C 1297.36 460.879 1301.06 466.633 1306.86 475.092 L 1298.87 482.329 C 1264.74 516.888 1224.66 550.011 1190.39 584.226 C 1192.12 574.822 1199.53 537.23 1199.63 530.071 L 1180.74 519.497 C 1173.05 501.128 1166.37 481.819 1159.16 463.135 C 1164.68 458.276 1181.64 441.238 1187.71 441.042 z"/>
<path transform="translate(0,0)" fill="rgb(14,115,91)" d="M 1286.48 458.308 L 1292.58 451.846 C 1297.36 460.879 1301.06 466.633 1306.86 475.092 L 1298.87 482.329 C 1264.74 516.888 1224.66 550.011 1190.39 584.226 C 1192.12 574.822 1199.53 537.23 1199.63 530.071 L 1200.46 529.56 C 1203.78 522.437 1254 471.145 1262.39 464.105 C 1270.44 462.257 1278.47 460.325 1286.48 458.308 z"/>
<path transform="translate(0,0)" fill="rgb(34,149,97)" d="M 1286.48 458.308 L 1292.58 451.846 C 1297.36 460.879 1301.06 466.633 1306.86 475.092 L 1298.87 482.329 C 1289.57 485.027 1275.81 492.356 1266.72 496.89 L 1221.75 519.403 C 1217.64 521.457 1204.13 528.541 1200.46 529.56 C 1203.78 522.437 1254 471.145 1262.39 464.105 C 1270.44 462.257 1278.47 460.325 1286.48 458.308 z"/>
<path transform="translate(0,0)" fill="rgb(197,196,196)" d="M 1187.71 441.042 C 1200.32 440.777 1229.7 438.907 1242.25 437.27 C 1248.19 445.527 1254.6 454.875 1260.75 462.87 C 1257.57 463.041 1188.29 443.758 1186.57 442.612 L 1187.71 441.042 z"/>
<path transform="translate(0,0)" fill="rgb(14,103,92)" d="M 506.739 688.372 L 505.102 688.29 C 505.755 683.474 528.585 644.618 533.155 639.018 C 535.428 636.233 553.107 622.74 557.222 619.556 L 604.457 583.089 L 642.739 553.597 C 648.97 548.81 655.628 543.54 662.25 539.253 C 663.86 538.211 668.41 539.51 670.416 539.991 C 681.466 542.596 692.531 545.137 703.611 547.614 C 699.303 555.177 683.976 583.25 679.401 587.562 C 652.367 613.039 620.412 641.388 591.842 664.393 C 587.121 668.194 514.997 686.866 506.739 688.372 z"/>
<path transform="translate(0,0)" fill="rgb(41,180,160)" d="M 506.739 688.372 L 505.102 688.29 C 505.755 683.474 528.585 644.618 533.155 639.018 C 535.428 636.233 553.107 622.74 557.222 619.556 L 604.457 583.089 L 642.739 553.597 C 648.97 548.81 655.628 543.54 662.25 539.253 C 663.86 538.211 668.41 539.51 670.416 539.991 C 664.008 548 654.962 556.663 647.523 563.911 C 620.116 590.618 594.249 620.33 566.009 646.057 C 549.903 660.73 522.418 673.151 506.739 688.372 z"/>
<path transform="translate(0,0)" fill="rgb(14,103,92)" d="M 851.011 821.769 C 894.94 830.47 938.922 838.899 982.955 847.058 C 963.595 854.473 940.126 859.896 920.042 866.147 C 869.697 881.816 815.734 894.48 765.744 910.291 C 758.293 913.114 737.516 914.938 728.694 915.92 C 712.294 917.747 697.312 919.454 680.99 922.252 C 688.544 917.388 697.2 912.196 705.058 907.839 C 749.706 883.085 793.513 853.281 838.483 829.397 C 842.021 826.35 846.849 824.012 851.011 821.769 z"/>
<path transform="translate(0,0)" fill="rgb(27,135,89)" d="M 680.99 922.252 C 688.544 917.388 697.2 912.196 705.058 907.839 C 749.706 883.085 793.513 853.281 838.483 829.397 C 835.826 837.772 776.064 896.39 765.744 910.291 C 758.293 913.114 737.516 914.938 728.694 915.92 C 712.294 917.747 697.312 919.454 680.99 922.252 z"/>
<path transform="translate(0,0)" fill="rgb(14,103,92)" d="M 608.651 904.696 C 616.541 900.409 691.933 864.15 695.25 864.233 L 694.246 867.436 C 690.863 873.628 680.887 892.724 676.754 896.652 C 665.359 907.482 651.354 919.087 639.274 929.37 C 614.566 950.418 589.751 971.34 564.829 992.134 C 542.393 1010.88 520.052 1029.74 497.808 1048.72 C 487.559 1057.44 467.439 1077.38 455.509 1080.63 C 424.821 1088.98 393.588 1096.18 362.686 1103.69 C 378.095 1094.21 395.231 1081.86 410.276 1071.45 L 492.12 1014.48 L 559.106 967.578 C 565.999 962.752 598.157 941.904 599.423 936.207 C 602.184 925.86 605.597 915.011 608.651 904.696 z"/>
<path transform="translate(0,0)" fill="rgb(25,157,144)" d="M 608.651 904.696 C 616.541 900.409 691.933 864.15 695.25 864.233 L 694.246 867.436 C 672.612 877.403 620.629 919.636 599.423 936.207 C 602.184 925.86 605.597 915.011 608.651 904.696 z"/>
<path transform="translate(0,0)" fill="rgb(50,189,127)" d="M 530.343 311.186 C 525.711 303.179 501.209 256.073 498.835 247.553 C 502.169 247.38 502.323 248.064 505.553 249.648 C 538.578 259.367 578.851 275.222 612.257 286.607 C 633.486 293.841 676.665 307.932 695.597 316.464 C 695.194 328.357 695.701 350.602 696.337 362.76 L 685.88 358.561 C 681.029 357.937 648.127 347.41 641.366 345.329 C 604.457 333.629 567.448 322.247 530.343 311.186 z"/>
<path transform="translate(0,0)" fill="rgb(17,136,121)" d="M 530.343 311.186 C 525.711 303.179 501.209 256.073 498.835 247.553 C 502.169 247.38 502.323 248.064 505.553 249.648 C 511.592 257.469 637.441 328.995 651.795 337.964 C 655.811 340.473 683.416 355.952 685.88 358.561 C 681.029 357.937 648.127 347.41 641.366 345.329 C 604.457 333.629 567.448 322.247 530.343 311.186 z"/>
<path transform="translate(0,0)" fill="rgb(17,136,121)" d="M 699.257 590.474 C 710.585 586.612 744.891 578.639 756.896 576.121 C 730.031 605.162 704.797 637.547 678.535 667.224 C 670.043 676.821 656.519 694.29 648.165 702.368 L 598.688 713.532 C 594.419 714.489 579.235 718.143 575.858 718.303 C 575.322 715.943 575.228 717.109 576.492 714.742 C 592.642 672.006 606.152 660.023 640.984 632.309 C 659.578 617.514 676.144 595.494 699.257 590.474 z"/>
<path transform="translate(0,0)" fill="rgb(50,189,127)" d="M 699.257 590.474 C 699.841 595.689 645.826 661.861 638.005 673.166 C 635.404 676.925 584.522 712.986 578.308 715.221 L 576.492 714.742 C 592.642 672.006 606.152 660.023 640.984 632.309 C 659.578 617.514 676.144 595.494 699.257 590.474 z"/>
<path transform="translate(0,0)" fill="rgb(50,189,127)" d="M 695.597 316.464 C 696.615 317.428 699.625 320.134 700.264 321.103 C 727.14 346.016 754.16 370.772 781.324 395.371 C 795.016 408.008 818.294 431.013 832.448 441.793 L 818.532 494.27 C 817.61 497.811 816.302 503.838 814.655 506.848 C 776.994 462.05 731.346 408.906 696.337 362.76 C 695.701 350.602 695.194 328.357 695.597 316.464 z"/>
<path transform="translate(0,0)" fill="rgb(17,136,121)" d="M 695.597 316.464 C 696.615 317.428 699.625 320.134 700.264 321.103 C 700.224 323.946 701.184 325.695 702.691 328.025 C 739.149 384.399 782.289 437.926 818.532 494.27 C 817.61 497.811 816.302 503.838 814.655 506.848 C 776.994 462.05 731.346 408.906 696.337 362.76 C 695.701 350.602 695.194 328.357 695.597 316.464 z"/>
<path transform="translate(0,0)" fill="rgb(197,196,196)" d="M 1416.31 648.015 C 1422.8 667.322 1428.78 693.926 1434.22 714.039 C 1438.22 728.855 1446.31 755.91 1448.73 770.254 C 1446.9 773.001 1446.15 772.702 1442.81 774.308 C 1409.98 791.153 1377.02 810.552 1344.06 826.612 C 1342.87 827.931 1339.13 829.288 1337.31 830.072 C 1343.42 818.948 1355.25 789.138 1361.02 775.947 L 1416.31 648.015 z"/>
<path transform="translate(0,0)" fill="rgb(255,255,255)" d="M 1413.57 700.259 C 1417.9 708.583 1412.66 765.441 1416.48 770.439 L 1417.87 770.668 C 1422.84 771.133 1439.55 772.178 1442.81 774.308 C 1409.98 791.153 1377.02 810.552 1344.06 826.612 C 1345.66 822.468 1391.44 784.041 1399.38 776.173 C 1403.62 751.453 1410 724.376 1413.57 700.259 z"/>
<path transform="translate(0,0)" fill="rgb(223,223,224)" d="M 1413.57 700.259 C 1414 697 1413.61 695.792 1415.38 693.473 C 1417.5 705.47 1413.85 765.688 1417.87 770.668 L 1416.48 770.439 C 1412.66 765.441 1417.9 708.583 1413.57 700.259 z"/>
<path transform="translate(0,0)" fill="rgb(34,149,97)" d="M 487.007 322.368 L 483.896 319.637 L 484.037 318.561 C 489.208 317.728 523.069 317.907 527.528 318.9 C 544.108 322.592 565.264 329.713 581.74 334.841 L 679.914 365.488 C 682.613 366.051 688.025 367.872 690.876 368.736 C 697.482 376.248 704.462 385.324 710.801 393.191 C 677.115 388.313 640.034 386.638 605.997 383.197 C 570.071 379.565 559.703 382.725 527.131 362.46 C 513.44 349.417 500.061 336.049 487.007 322.368 z"/>
<path transform="translate(0,0)" fill="rgb(41,180,160)" d="M 487.007 322.368 L 483.896 319.637 L 484.037 318.561 C 489.208 317.728 523.069 317.907 527.528 318.9 C 544.108 322.592 565.264 329.713 581.74 334.841 L 679.914 365.488 C 675.872 368.203 639.468 361.975 631.582 360.872 C 596.867 356.158 562.205 351.064 527.602 345.592 C 527.013 352.01 527.022 356.095 527.131 362.46 C 513.44 349.417 500.061 336.049 487.007 322.368 z"/>
<path transform="translate(0,0)" fill="rgb(14,115,91)" d="M 487.007 322.368 C 497.912 326.066 519.545 342.509 527.602 345.592 C 527.013 352.01 527.022 356.095 527.131 362.46 C 513.44 349.417 500.061 336.049 487.007 322.368 z"/>
<path transform="translate(0,0)" fill="rgb(14,103,92)" d="M 755.907 588.054 L 756.045 600.645 C 756.38 605.866 756.66 611.21 757.09 616.413 L 791.182 606.701 C 790.672 609.101 788.033 622.386 786.753 623.906 C 760.578 654.997 729.342 692.935 701.451 721.391 C 699.196 723.692 651.188 740.492 646.931 741.574 C 645.765 737.928 653.29 709.398 655.854 706.147 C 687.749 665.705 723.527 628.118 755.907 588.054 z"/>
<path transform="translate(0,0)" fill="rgb(34,149,97)" d="M 755.907 588.054 L 756.045 600.645 C 732.269 631.267 713.129 667.117 690.369 698.286 C 681.552 710.361 658.787 727.638 646.931 741.574 C 645.765 737.928 653.29 709.398 655.854 706.147 C 687.749 665.705 723.527 628.118 755.907 588.054 z"/>
<path transform="translate(0,0)" fill="rgb(14,103,92)" d="M 727.854 923.55 L 729.24 924.741 C 724.644 933.304 693.646 965.934 685.167 975.773 L 632.384 1037.55 C 623.345 1048.15 614.178 1059.18 604.818 1069.44 C 601.381 1073.2 597.053 1076.71 592.056 1077.63 C 578.917 1080.03 520.553 1101.68 512.463 1101.77 C 512.656 1099.21 513.747 1098.98 516.017 1096.76 C 524.028 1086.17 549.886 1060.21 560.59 1051.28 C 563.667 1048.72 576.89 1046.65 583.488 1040.15 C 609.878 1014.15 635.975 987.885 662.325 961.872 C 673.043 951.291 685.765 937.18 696.799 927.637 L 727.854 923.55 z"/>
<path transform="translate(0,0)" fill="rgb(27,135,89)" d="M 727.854 923.55 L 729.24 924.741 C 724.644 933.304 693.646 965.934 685.167 975.773 L 632.384 1037.55 C 623.345 1048.15 614.178 1059.18 604.818 1069.44 C 601.381 1073.2 597.053 1076.71 592.056 1077.63 C 578.917 1080.03 520.553 1101.68 512.463 1101.77 C 512.656 1099.21 513.747 1098.98 516.017 1096.76 C 525.969 1094.61 584.277 1060 592.047 1052.71 C 637.356 1010.16 682.318 965.935 727.854 923.55 z"/>
<path transform="translate(0,0)" fill="rgb(14,103,92)" d="M 796.142 631.201 C 809.691 628.599 823.173 625.656 836.574 622.374 C 834.062 638.032 831.34 653.655 828.406 669.239 C 815.399 682.647 798.234 696.418 784.341 709.408 C 777.094 716.184 757.857 734.263 750.645 739.52 C 745.648 743.163 714.025 755.508 707.65 757.102 C 705.776 753.906 708.674 730.881 709.293 725.592 L 761.922 664.886 C 770.62 654.801 780.018 643.479 789.406 633.95 C 791.003 632.329 793.919 631.668 796.142 631.201 z"/>
<path transform="translate(0,0)" fill="rgb(34,149,97)" d="M 709.293 725.592 L 761.922 664.886 C 770.62 654.801 780.018 643.479 789.406 633.95 C 791.003 632.329 793.919 631.668 796.142 631.201 C 795.961 640.025 754.489 702.391 748.832 715.56 C 742.855 729.474 714.4 745.385 707.65 757.102 C 705.776 753.906 708.674 730.881 709.293 725.592 z"/>
<path transform="translate(0,0)" fill="rgb(120,120,120)" d="M 1466.83 625.289 C 1469.85 622.59 1472.96 620.789 1476.38 618.641 C 1497.47 632.299 1520.92 648.97 1541.86 661.632 C 1542.61 668.206 1542.74 674.217 1542.94 680.811 C 1561.91 695.09 1584.45 707.643 1602.36 722.922 C 1604.74 724.953 1605.95 733.579 1607.87 736.782 C 1609.79 739.983 1612.73 742.885 1615.34 745.584 L 1630.48 747.05 C 1640.29 737.83 1645.07 736.326 1643.47 722.314 C 1645.23 723.999 1648.87 727.265 1651 728.009 C 1666.08 733.283 1718.73 750.399 1731.89 750.712 C 1733.54 751.062 1733.44 751.186 1734.61 752.457 C 1730.77 754.369 1639.63 757.542 1628.1 758.081 C 1622.8 758.329 1559.61 735.06 1551.14 729.9 C 1547.48 727.667 1529.14 703.612 1524.11 697.296 L 1466.83 625.289 z"/>
<path transform="translate(0,0)" fill="rgb(197,196,196)" d="M 1431.07 555.122 C 1448.14 550.466 1479.87 545.114 1498.2 541.437 L 1617.75 516.929 C 1613.35 519.913 1608.48 522.824 1603.95 525.648 C 1559.43 557.168 1509.67 586.454 1464.24 617.445 C 1454.99 623.667 1432.71 628.337 1420.97 631.286 C 1415.2 627.694 1404.93 620.854 1399.26 617.937 L 1384.6 621.247 L 1385.45 613.481 C 1392.41 605.42 1397.92 605.723 1408.12 603.465 C 1422.66 599.297 1438.38 595.504 1453.1 591.69 C 1457.53 594.667 1462.31 596.785 1467.12 599.085 C 1471.89 597.046 1477.05 595.156 1481.91 593.283 L 1488.46 580.66 C 1487.57 576.143 1486.78 571.514 1485.95 566.977 C 1482.5 563.267 1476.37 559.845 1471.93 557.077 C 1464.49 558.74 1460.81 559.896 1453.65 562.536 C 1447.86 560.51 1435.33 557.302 1431.07 555.122 z"/>
<path transform="translate(0,0)" fill="rgb(255,255,255)" d="M 1431.07 555.122 C 1448.14 550.466 1479.87 545.114 1498.2 541.437 L 1617.75 516.929 C 1613.35 519.913 1608.48 522.824 1603.95 525.648 C 1593.96 527.034 1577.8 533.769 1567.82 536.966 C 1540.19 545.825 1513.09 557.285 1485.95 566.977 C 1482.5 563.267 1476.37 559.845 1471.93 557.077 C 1464.49 558.74 1460.81 559.896 1453.65 562.536 C 1447.86 560.51 1435.33 557.302 1431.07 555.122 z"/>
<path transform="translate(0,0)" fill="rgb(120,120,120)" d="M 1385.45 613.481 C 1392.41 605.42 1397.92 605.723 1408.12 603.465 C 1411.92 605.517 1456.04 615.208 1464.24 617.445 C 1454.99 623.667 1432.71 628.337 1420.97 631.286 C 1415.2 627.694 1404.93 620.854 1399.26 617.937 L 1384.6 621.247 L 1385.45 613.481 z"/>
<path transform="translate(0,0)" fill="rgb(17,136,121)" d="M 718.348 402.869 C 733.489 420.783 759.224 450.206 772.819 468.534 C 716.409 473.472 665.45 488.164 607.183 483.896 L 605.609 483.682 L 605.148 482.703 C 629.215 460.98 679.089 428.736 707.652 410.462 C 711.3 407.395 714.362 405.454 718.348 402.869 z"/>
<path transform="translate(0,0)" fill="rgb(41,180,160)" d="M 707.652 410.462 L 708.187 411.992 C 695.723 428.864 679.091 447.844 665.512 464.319 C 653.98 469.001 613.882 479.273 607.183 483.896 L 605.609 483.682 L 605.148 482.703 C 629.215 460.98 679.089 428.736 707.652 410.462 z"/>
<path transform="translate(0,0)" fill="rgb(34,149,97)" d="M 514.111 393.705 L 515.017 392.205 C 549.421 384.934 579.231 387.741 613.634 391.396 C 640.304 394.23 667.551 395.664 694.13 399.217 C 699.25 399.269 702.844 399.647 707.948 400.239 C 683.498 417.182 658.879 433.88 634.093 450.328 C 615.48 444.032 590.328 436.361 572.564 429.22 C 562.031 424.524 526.994 401.388 514.111 393.705 z"/>
<path transform="translate(0,0)" fill="rgb(50,189,127)" d="M 514.111 393.705 L 515.017 392.205 C 549.421 384.934 579.231 387.741 613.634 391.396 C 640.304 394.23 667.551 395.664 694.13 399.217 C 688.312 402.453 583.456 408.709 568.957 410.199 C 570 417.308 570.827 422.261 572.564 429.22 C 562.031 424.524 526.994 401.388 514.111 393.705 z"/>
<path transform="translate(0,0)" fill="rgb(14,103,92)" d="M 514.111 393.705 C 519.426 394.249 559.262 407.434 568.957 410.199 C 570 417.308 570.827 422.261 572.564 429.22 C 562.031 424.524 526.994 401.388 514.111 393.705 z"/>
<path transform="translate(0,0)" fill="rgb(120,120,120)" d="M 1422.36 638.992 L 1432.18 636.379 C 1446.64 662.777 1460.91 689.279 1475 715.883 L 1469.68 725.713 C 1471.68 731.508 1474.14 737.464 1476.4 743.187 C 1482.05 744.991 1487.75 746.671 1493.47 748.226 L 1505.65 741.156 C 1529.43 760.33 1555.85 781.322 1577.72 802.404 C 1573.18 802.088 1542.17 793.446 1535.79 791.573 C 1510.3 784.095 1481.66 777.758 1456.72 769.412 C 1445.77 726.025 1433.7 682.37 1422.36 638.992 z"/>
<path transform="translate(0,0)" fill="rgb(197,196,196)" d="M 648.698 931.289 C 652.864 926.822 660.974 920.445 665.861 916.193 L 656.218 933.559 C 665.531 931.804 674.879 930.24 684.256 928.867 C 661.01 952.942 636.23 977.006 612.479 1000.69 C 602.935 1010.21 586.387 1027.77 577.021 1035.85 C 561.934 1043.38 538.655 1050.67 522.528 1056.8 C 515.413 1059.5 495.594 1066.95 488.733 1068.7 L 485.808 1069.57 C 486.057 1067.47 634.507 943.218 648.698 931.289 z"/>
<path transform="translate(0,0)" fill="rgb(120,120,120)" d="M 648.698 931.289 C 652.864 926.822 660.974 920.445 665.861 916.193 L 656.218 933.559 C 665.531 931.804 674.879 930.24 684.256 928.867 C 661.01 952.942 636.23 977.006 612.479 1000.69 C 602.935 1010.21 586.387 1027.77 577.021 1035.85 C 575.029 1032.52 571.117 1023.96 569.281 1020.19 C 583.201 1006.46 597.304 988.951 610.957 974.718 C 616.715 968.715 648.211 935.16 648.698 931.289 z"/>
<path transform="translate(0,0)" fill="rgb(120,120,120)" d="M 488.733 1068.7 C 492.225 1063.63 558.745 1026.19 569.281 1020.19 C 571.117 1023.96 575.029 1032.52 577.021 1035.85 C 561.934 1043.38 538.655 1050.67 522.528 1056.8 C 515.413 1059.5 495.594 1066.95 488.733 1068.7 z"/>
<path transform="translate(0,0)" fill="rgb(197,196,196)" d="M 1310.33 579.326 C 1346.91 572.042 1395.34 560.353 1431.07 555.122 C 1435.33 557.302 1447.86 560.51 1453.65 562.536 C 1451.83 566.446 1449.93 570.358 1448.46 574.409 C 1439.28 576.775 1381.06 589.953 1377.8 595.33 C 1377.65 595.578 1377.51 595.837 1377.37 596.09 C 1376.14 600.17 1373.13 607.138 1371.48 611.316 C 1352.78 615.114 1333.94 619.884 1314.96 623.737 C 1303.68 615.103 1291.52 606.478 1280.01 598.062 L 1284.87 584.388 L 1310.33 579.326 z"/>
<path transform="translate(0,0)" fill="rgb(120,120,120)" d="M 1284.87 584.388 L 1310.33 579.326 C 1311.48 581.315 1312.21 581.419 1315.03 582.005 C 1335.38 586.225 1357.12 592.182 1377.37 596.09 C 1376.14 600.17 1373.13 607.138 1371.48 611.316 C 1352.78 615.114 1333.94 619.884 1314.96 623.737 C 1303.68 615.103 1291.52 606.478 1280.01 598.062 L 1284.87 584.388 z"/>
<path transform="translate(0,0)" fill="rgb(17,136,121)" d="M 774.909 481.215 C 777.072 478.45 776.619 478.002 779.424 477.558 C 786.277 483.545 801.704 503.302 808.128 511.271 C 795.804 525.908 770.742 555.044 757.533 567.779 C 744.366 571.104 705.639 581.916 694.061 583.312 L 692.434 583.667 L 692.041 582.579 C 707.586 554.047 716.158 544.055 737.787 521.02 C 750.246 507.831 762.621 494.562 774.909 481.215 z"/>
<path transform="translate(0,0)" fill="rgb(41,180,160)" d="M 774.909 481.215 C 774.971 486.582 747.918 545.248 743.274 549.987 C 734.856 558.578 704.13 574.258 694.061 583.312 L 692.434 583.667 L 692.041 582.579 C 707.586 554.047 716.158 544.055 737.787 521.02 C 750.246 507.831 762.621 494.562 774.909 481.215 z"/>
<path transform="translate(0,0)" fill="rgb(197,196,196)" d="M 1492.24 608.181 C 1495.07 606.36 1498.44 604.06 1501.3 602.412 L 1649.73 697.486 C 1673.22 712.527 1710.22 734.659 1731.89 750.712 C 1718.73 750.399 1666.08 733.283 1651 728.009 C 1648.87 727.265 1645.23 723.999 1643.47 722.314 C 1641.01 714.254 1638.18 712.726 1631.73 707.379 L 1622.29 707.067 C 1620.83 707.397 1614.84 708.752 1613.75 708.078 C 1595.93 697.092 1578.8 684.592 1561.89 672.258 C 1559.53 670.533 1559.94 666.596 1559.72 663.834 L 1559.14 652.632 C 1536.98 637.611 1514.67 622.794 1492.24 608.181 z"/>
<path transform="translate(0,0)" fill="rgb(120,120,120)" d="M 1559.72 663.834 C 1581.04 677.548 1601.13 693.016 1622.29 707.067 C 1620.83 707.397 1614.84 708.752 1613.75 708.078 C 1595.93 697.092 1578.8 684.592 1561.89 672.258 C 1559.53 670.533 1559.94 666.596 1559.72 663.834 z"/>
<path transform="translate(0,0)" fill="rgb(120,120,120)" d="M 1279.4 676.13 L 1281.32 676.27 L 1281.39 677.96 C 1267.84 702.725 1255.79 733.411 1242.75 758.681 C 1239.3 765.379 1229.94 787.448 1225.41 791.74 C 1211.63 804.791 1191.04 819.038 1175.45 830.185 L 1174.44 830.887 L 1173.26 830.108 C 1172.78 825.737 1175.65 798.205 1176.17 792.148 C 1190.73 775.042 1219 753.781 1230.55 736.608 C 1234.4 730.878 1246.78 692.695 1249.84 683.678 L 1279.4 676.13 z"/>
<path transform="translate(0,0)" fill="rgb(50,189,127)" d="M 664.434 491.531 C 675.738 489.432 762.492 476.098 767.092 477.601 L 765.983 479.303 C 749.342 497.612 725.969 524.373 708.468 541.095 C 684.365 535.18 659.486 530.16 635.697 524.124 L 635.377 523.425 C 636.1 520.333 660.224 495.896 664.434 491.531 z"/>
<path transform="translate(0,0)" fill="rgb(34,149,97)" d="M 635.697 524.124 C 651.042 520.116 667.421 520.751 682.708 517.501 C 696.418 514.586 712.366 502.837 725.328 497.297 C 737.087 492.271 753.45 481.004 765.983 479.303 C 749.342 497.612 725.969 524.373 708.468 541.095 C 684.365 535.18 659.486 530.16 635.697 524.124 z"/>
<path transform="translate(0,0)" fill="rgb(17,136,121)" d="M 808.595 523.004 C 810.418 520.895 812.31 518.617 814.202 516.592 L 855.28 545.95 C 837.953 561.402 815.292 581.028 796.816 595.474 C 793.405 598.141 771.576 604.149 765.907 605.777 L 764.889 605.677 C 763.756 603.655 763.468 577.467 763.095 572.853 C 778.067 556.85 793.509 538.279 808.595 523.004 z"/>
<path transform="translate(0,0)" fill="rgb(34,149,97)" d="M 763.095 572.853 C 778.067 556.85 793.509 538.279 808.595 523.004 C 808.397 533.235 794.143 569.653 787.277 578.917 C 781.837 586.256 770.64 597.792 765.907 605.777 L 764.889 605.677 C 763.756 603.655 763.468 577.467 763.095 572.853 z"/>
<path transform="translate(0,0)" fill="rgb(120,120,120)" d="M 741.723 921.675 L 755.68 920.595 C 747.109 935.871 696.239 1027.66 688.615 1034.91 C 679.004 1044.04 649.664 1060.21 637.014 1067.36 C 636.147 1066.46 636.348 1066.96 636.212 1065.96 C 642.389 1052.38 649.811 1034.11 657.107 1021.46 C 661.453 1013.93 675.507 998.506 681.638 991.42 C 696.756 973.789 712.137 956.385 727.774 939.212 C 732.456 933.042 736.704 927.567 741.723 921.675 z"/>
<path transform="translate(0,0)" fill="rgb(197,196,196)" d="M 741.723 921.675 L 755.68 920.595 C 747.109 935.871 696.239 1027.66 688.615 1034.91 C 679.004 1044.04 649.664 1060.21 637.014 1067.36 C 636.147 1066.46 636.348 1066.96 636.212 1065.96 C 636.558 1065.75 636.899 1065.53 637.234 1065.3 C 645.139 1059.99 686.524 1022.86 690.722 1015.68 C 695.901 1006.82 725.839 948.681 727.774 939.212 C 732.456 933.042 736.704 927.567 741.723 921.675 z"/>
<path transform="translate(0,0)" fill="rgb(197,196,196)" d="M 1449.84 631.77 L 1459.74 628.852 C 1477.21 650.925 1494.82 672.898 1512.55 694.769 C 1536.54 724.618 1554.71 748.637 1569.61 784.219 C 1571.5 788.732 1577.82 797.691 1578.18 801.76 L 1577.72 802.404 C 1555.85 781.322 1529.43 760.33 1505.65 741.156 L 1512.05 728.565 C 1510.06 723.401 1507.63 717.498 1505.92 712.312 L 1490.34 706.593 C 1476.42 682.237 1464.01 655.4 1449.84 631.77 z"/>
<path transform="translate(0,0)" fill="rgb(120,120,120)" d="M 1273.83 615.523 C 1285.4 623.061 1300.22 634.467 1311.72 642.761 C 1338.81 636.801 1371.97 630.649 1398.19 623.433 C 1403.45 626.934 1409.01 629.993 1414.5 633.125 L 1380.75 641.644 C 1338.54 653.137 1295.36 663.665 1252.93 674.536 C 1259.67 654.784 1266.64 635.112 1273.83 615.523 z"/>
<path transform="translate(0,0)" fill="rgb(17,136,121)" d="M 858.733 553.17 L 860.595 551.54 C 865.697 552.438 892.419 572.832 898.062 576.979 C 882.162 587.53 866.063 597.822 849.909 607.979 C 835.695 616.916 817.124 619.217 800.732 622.361 L 797.4 622.952 L 796.163 621.482 C 795.931 616.391 798.375 608.81 799.744 603.657 C 811.628 591.511 844.686 564.978 858.733 553.17 z"/>
<path transform="translate(0,0)" fill="rgb(50,189,127)" d="M 858.733 553.17 C 855.829 562.873 843.448 589.939 836.668 597.151 C 828.077 606.289 810.154 612.067 800.732 622.361 L 797.4 622.952 L 796.163 621.482 C 795.931 616.391 798.375 608.81 799.744 603.657 C 811.628 591.511 844.686 564.978 858.733 553.17 z"/>
<path transform="translate(0,0)" fill="rgb(167,167,167)" d="M 1303.8 746.062 L 1305.49 748.564 C 1301.94 761.424 1297.44 776.324 1294.43 789.147 C 1281.4 800.386 1261.21 819.49 1248.25 828.906 C 1246.7 830.808 1246.65 831.029 1244.45 831.886 C 1240.6 828.397 1236.05 803.776 1234.41 796.693 L 1234.2 796.185 C 1234.33 791.848 1250.16 760.775 1252.98 755.044 C 1265.72 755.778 1277.48 755.98 1290.23 756.121 C 1294.27 756.315 1300.82 748.93 1303.8 746.062 z"/>
<path transform="translate(0,0)" fill="rgb(120,120,120)" d="M 1252.98 755.044 C 1265.72 755.778 1277.48 755.98 1290.23 756.121 C 1285.91 756.671 1282.8 757.024 1278.46 757.139 C 1276.17 764.467 1274.66 772.962 1268.74 777.529 C 1262.65 780.519 1236.37 792.811 1234.41 796.693 L 1234.2 796.185 C 1234.33 791.848 1250.16 760.775 1252.98 755.044 z"/>
<path transform="translate(0,0)" fill="rgb(197,196,196)" d="M 1268.74 777.529 C 1269.66 781.612 1250.77 820.889 1248.25 828.906 C 1246.7 830.808 1246.65 831.029 1244.45 831.886 C 1240.6 828.397 1236.05 803.776 1234.41 796.693 C 1236.37 792.811 1262.65 780.519 1268.74 777.529 z"/>
<path transform="translate(0,0)" fill="rgb(14,103,92)" d="M 904.81 582.006 C 912.509 586.713 926.353 597.403 934.159 603.109 L 857.493 651.152 C 850.814 655.335 844.073 659.419 837.273 663.401 C 839.808 649.006 842.094 634.392 844.466 619.954 C 864.165 608.185 885.198 594.346 904.81 582.006 z"/>
<path transform="translate(0,0)" fill="rgb(167,167,167)" d="M 1379.77 649.717 C 1389.51 647.381 1400.67 644.986 1410.22 642.328 C 1384.49 702.835 1357.71 766.607 1330.58 826.258 C 1328.95 818.126 1333.11 784.151 1333.65 772.446 C 1353.46 767.007 1353.36 768.314 1357.82 748.012 L 1351.45 736.977 C 1360.74 708.273 1371.4 678.598 1379.77 649.717 z"/>
<path transform="translate(0,0)" fill="rgb(120,120,120)" d="M 1337.57 661.25 L 1359.73 655.107 C 1352.09 679.515 1343.12 707.29 1334.38 731.205 C 1329.26 733.81 1324.14 736.94 1319.17 739.856 C 1318.28 747.367 1317.92 753.079 1317.66 760.647 C 1321.89 764.616 1328.78 769.329 1333.65 772.446 C 1333.11 784.151 1328.95 818.126 1330.58 826.258 C 1330.01 828.31 1330.04 828.897 1328.38 830.261 C 1319.86 819.6 1308.8 802.419 1301.68 790.782 C 1311.68 749.555 1325.99 702.516 1337.57 661.25 z"/>
<path transform="translate(0,0)" fill="rgb(120,120,120)" d="M 399.918 899.343 C 410.928 896.173 425.631 893.071 437.01 890.334 C 434.427 895.72 431.231 902.425 427.174 906.813 C 439.968 906.792 448.181 908.726 460.665 910.654 C 447.662 915.797 413.862 931.093 402.544 933.983 C 385.727 938.277 348.699 942.155 329.794 944.926 L 328.747 944.398 C 329.413 943.921 330.792 942.866 331.442 942.529 C 332.945 941.292 337.477 937.984 339.114 937.082 C 354.146 928.801 384.18 901.694 399.918 899.343 z"/>
<path transform="translate(0,0)" fill="rgb(197,196,196)" d="M 399.918 899.343 C 410.928 896.173 425.631 893.071 437.01 890.334 C 434.427 895.72 431.231 902.425 427.174 906.813 L 426.253 906.936 C 418.526 911.466 336.276 942.81 331.442 942.529 C 332.945 941.292 337.477 937.984 339.114 937.082 C 354.146 928.801 384.18 901.694 399.918 899.343 z"/>
<path transform="translate(0,0)" fill="rgb(255,255,255)" d="M 399.918 899.343 C 410.928 896.173 425.631 893.071 437.01 890.334 C 434.427 895.72 431.231 902.425 427.174 906.813 L 426.253 906.936 C 420.541 904.756 404.324 903.865 399.918 899.343 z"/>
<path transform="translate(0,0)" fill="rgb(41,180,160)" d="M 1681.81 554.544 C 1690.25 554.086 1699.31 554.05 1707.8 553.871 C 1712.05 558.876 1716.26 563.904 1720.45 568.954 C 1749.61 568.004 1778.78 567.36 1807.96 567.022 C 1809.65 563.698 1812.7 559.349 1814.83 556.115 L 1830.79 556.907 C 1834.47 562.414 1835.79 565.59 1838.43 571.583 C 1836.44 575.725 1833.04 581.085 1830.63 585.15 L 1816.4 584.991 C 1812.49 581.304 1810.93 579.158 1807.69 574.808 C 1784.21 575.013 1760.73 575.401 1737.25 575.972 L 1717.64 576.27 C 1713.45 571.979 1708.87 566.229 1704.95 561.562 C 1656.15 562.862 1607.35 563.888 1558.55 564.637 L 1559.04 564.287 C 1561.92 562.28 1566.1 559.062 1569.48 558.449 C 1582.09 556.161 1597.37 556.619 1610.33 556.303 L 1681.81 554.544 z"/>
<path transform="translate(0,0)" fill="rgb(0,0,0)" d="M 1820.04 564.527 C 1823.3 563.313 1826.94 564.831 1828.37 567.999 C 1829.79 571.166 1828.52 574.899 1825.46 576.534 C 1823.28 577.693 1820.65 577.546 1818.61 576.152 C 1816.58 574.759 1815.5 572.35 1815.8 569.906 C 1816.1 567.461 1817.74 565.388 1820.04 564.527 z"/>
<path transform="translate(0,0)" fill="rgb(120,120,120)" d="M 792.935 911.044 C 807.005 905.835 826.954 900.708 841.76 896.472 L 926.191 872.367 C 925.973 878.882 923.373 903.332 925.125 906.803 C 922.532 908.875 804.626 911.149 792.935 911.044 z"/>
<path transform="translate(0,0)" fill="rgb(120,120,120)" d="M 1664.46 567.558 C 1676.84 566.798 1689.44 566.856 1701.86 566.763 C 1709.65 575.587 1717.49 584.369 1725.38 593.111 C 1693.07 587.573 1648.9 585.116 1615.24 581.112 C 1594.42 578.826 1566.23 576.742 1546.46 573.489 L 1546.73 572.909 C 1554.12 568.464 1579.94 569.52 1589.7 569.302 L 1664.46 567.558 z"/>
<path transform="translate(0,0)" fill="rgb(252,204,96)" d="M 1358.13 433.664 C 1374.04 438.843 1397.23 445.192 1411.86 453.151 C 1418.02 456.5 1429.88 471.931 1434.99 478.091 C 1420.71 475.076 1407.64 470.559 1393.72 467.072 C 1368.72 469.128 1343.7 470.888 1318.66 472.351 C 1327.83 463.564 1336.9 454.668 1345.86 445.664 L 1358.13 433.664 z"/>
<path transform="translate(0,0)" fill="rgb(249,161,41)" d="M 1318.66 472.351 C 1327.83 463.564 1336.9 454.668 1345.86 445.664 C 1364.78 451.464 1380.2 453.158 1393.72 467.072 C 1368.72 469.128 1343.7 470.888 1318.66 472.351 z"/>
<path transform="translate(0,0)" fill="rgb(255,255,255)" d="M 593.797 855.417 C 588.912 858.379 559.962 869.765 553.006 872.551 C 524.146 884.107 493.902 897.76 464.976 908.532 L 460.665 910.654 C 448.181 908.726 439.968 906.792 427.174 906.813 C 431.231 902.425 434.427 895.72 437.01 890.334 L 488.178 878.615 C 510.736 873.778 533.255 868.767 555.735 863.583 C 566.81 861.066 582.924 856.873 593.797 855.417 z"/>
<path transform="translate(0,0)" fill="rgb(197,196,196)" d="M 437.01 890.334 L 488.178 878.615 C 483.611 885.416 465.303 904.662 464.976 908.532 L 460.665 910.654 C 448.181 908.726 439.968 906.792 427.174 906.813 C 431.231 902.425 434.427 895.72 437.01 890.334 z"/>
<path transform="translate(0,0)" fill="rgb(25,157,144)" d="M 1455.88 568.158 C 1459.57 565.832 1465.85 563.489 1470.05 561.763 C 1478.64 566.926 1487.48 574.546 1480.08 585.084 C 1474.44 598.047 1462.3 591.642 1454.3 585.803 L 1443.67 588.473 C 1426.74 594.164 1404.45 596.719 1388.53 604.87 C 1386.33 606.002 1385.77 611.013 1385.45 613.481 L 1384.6 621.247 C 1360.61 627.053 1336.48 632.273 1312.23 636.901 C 1305.01 631.099 1280.48 615.5 1276.79 610.012 C 1277.39 606.896 1276.94 606.383 1278.95 604.496 C 1283.31 606.29 1309.13 625.625 1314.64 629.626 C 1333.97 624.5 1355.25 620.294 1374.91 616.054 C 1377.59 609.559 1380.32 603.083 1383.09 596.627 C 1406.43 590.775 1429.7 584.619 1452.88 578.16 C 1453.74 574.945 1454.91 571.381 1455.88 568.158 z"/>
<path transform="translate(0,0)" fill="rgb(41,180,160)" d="M 1443.67 588.473 L 1442.74 587.814 C 1444.37 585.688 1451 585.251 1451.8 584.55 C 1456.58 580.346 1453.91 579.897 1460.15 578.172 L 1460.83 576.57 L 1460.57 577.567 L 1461.44 575.989 L 1461.46 576.971 C 1461.05 580.23 1463.14 583.28 1466.33 584.064 C 1469.52 584.849 1472.8 583.12 1473.94 580.042 L 1474.34 581.681 C 1472.66 583.303 1471.88 584.142 1470.44 585.982 C 1470.61 588.396 1470.16 588.935 1471.47 590.082 C 1474.59 587.955 1476.29 586.511 1479.14 584.022 L 1480.08 585.084 C 1474.44 598.047 1462.3 591.642 1454.3 585.803 L 1443.67 588.473 z"/>
<path transform="translate(0,0)" fill="rgb(0,0,0)" d="M 1461.46 576.971 C 1461.77 574.498 1463.47 572.423 1465.84 571.637 C 1468.2 570.85 1470.81 571.492 1472.54 573.286 C 1474.27 575.08 1474.82 577.707 1473.94 580.042 C 1472.8 583.12 1469.52 584.849 1466.33 584.064 C 1463.14 583.28 1461.05 580.23 1461.46 576.971 z"/>
<path transform="translate(0,0)" fill="rgb(50,189,127)" d="M 726.076 810.053 L 726.824 810.868 C 725.919 814.739 715.987 831.112 713.395 835.588 C 704.732 840.26 686.557 846.992 676.989 850.8 L 611.374 876.935 C 610.748 876.53 610.984 876.523 610.651 875.456 C 615.372 870.121 634.033 848.884 638.781 846.345 C 664.153 832.773 699.961 821.856 726.076 810.053 z"/>
<path transform="translate(0,0)" fill="url(#Gradient1)" d="M 1486.66 611.468 C 1492.35 613.331 1545.9 650.052 1554.52 655.949 L 1555.14 674.036 C 1574.72 687.556 1594.9 702.965 1615.35 714.28 C 1617.12 715.262 1633.53 706.64 1638.09 721.823 C 1640.32 729.255 1638.84 731.963 1633.75 737.235 C 1631.61 739.275 1629.91 740.709 1626.94 741.26 C 1622.9 742.008 1618.73 741.389 1615.39 738.868 C 1610.58 735.234 1610.86 729.627 1609.91 724.273 C 1608.63 717.021 1557.41 684.855 1548.17 678.269 C 1547.41 671.857 1547.12 665.64 1546.77 659.202 C 1529.66 645.57 1500.57 630.594 1482.88 616.022 C 1483.15 613.953 1484.75 613.197 1486.66 611.468 z"/>
<path transform="translate(0,0)" fill="rgb(0,0,0)" d="M 1620.94 720.546 C 1624.21 719.005 1628.12 720.294 1629.83 723.481 C 1631.55 726.667 1630.47 730.639 1627.38 732.523 C 1625.23 733.834 1622.53 733.85 1620.36 732.564 C 1618.19 731.278 1616.91 728.9 1617.04 726.382 C 1617.16 723.865 1618.66 721.62 1620.94 720.546 z"/>
<path transform="translate(0,0)" fill="rgb(120,120,120)" d="M 1019.33 880.046 C 1029.65 871.111 1091.99 813.991 1097.86 812.76 C 1097.72 818.985 1096.59 851.687 1097.24 855.798 C 1093.92 860.569 1029.63 877.208 1019.33 880.046 z"/>
<path transform="translate(0,0)" fill="rgb(17,136,121)" d="M 1114.26 800.537 C 1120.77 793.019 1143.29 771.156 1150.71 764.965 C 1151.99 766.129 1154.52 768.672 1155.98 769.187 C 1146.67 780.073 1128.16 797.437 1117.48 808.104 L 1092.68 808.038 C 1088.94 811.813 1084.91 815.567 1080.84 819.074 C 1055.92 840.524 1032.11 863.851 1006.15 883.977 C 1004.62 885.162 993.233 887.74 990.722 888.339 C 1023.88 861.516 1057.53 826.772 1090.33 800.878 C 1098.18 800.635 1106.38 800.646 1114.26 800.537 z"/>
<path transform="translate(0,0)" fill="rgb(17,136,121)" d="M 1108.82 687.012 C 1118.72 686.838 1120.65 687.946 1126.87 695.646 L 1127.79 706.806 C 1123.81 711.232 1122.12 712.954 1117.46 716.614 C 1113.49 716.263 1109.3 715.593 1105.33 715.029 C 1096.02 724.796 1075.37 746.806 1065.53 754.694 L 1066.01 784.141 C 1066.24 791.44 1065.14 791.123 1059.18 795.544 C 1058.64 781.177 1058.24 766.805 1057.99 752.43 C 1071.82 739.039 1085.34 724.322 1099.26 710.584 L 1098.3 696.138 C 1102.53 691.606 1103.69 690.377 1108.82 687.012 z"/>
<path transform="translate(0,0)" fill="rgb(0,0,0)" d="M 1111.4 695.588 C 1114.96 694.879 1118.45 697.131 1119.27 700.674 C 1120.09 704.217 1117.95 707.771 1114.43 708.702 C 1112.06 709.33 1109.53 708.616 1107.83 706.838 C 1106.14 705.06 1105.55 702.501 1106.29 700.16 C 1107.03 697.819 1108.99 696.067 1111.4 695.588 z"/>
<path transform="translate(0,0)" fill="rgb(41,180,160)" d="M 1442.32 632.141 C 1446.89 633.716 1456.73 654.793 1459.64 660.333 C 1468.38 677.13 1477.23 693.872 1486.18 710.558 C 1491.74 712.245 1496.48 714.086 1501.87 716.173 C 1507.01 729.372 1507.59 731.871 1496.81 741.517 C 1490.84 743.266 1485.68 740.573 1479.97 738.393 L 1475 725.621 L 1480.46 716.268 C 1471.02 697.747 1448.24 656.097 1438.41 635.587 C 1438.07 634.885 1441.26 632.915 1442.32 632.141 z"/>
<path transform="translate(0,0)" fill="rgb(0,0,0)" d="M 1487.13 721.632 C 1489.19 720.37 1491.77 720.336 1493.85 721.543 C 1495.94 722.749 1497.19 725.002 1497.12 727.411 C 1497.05 729.82 1495.67 731.996 1493.52 733.08 C 1490.38 734.662 1486.55 733.488 1484.84 730.417 C 1483.12 727.346 1484.14 723.472 1487.13 721.632 z"/>
<path transform="translate(0,0)" fill="rgb(17,136,121)" d="M 1371.83 652.001 L 1372.45 652.566 C 1373.07 657.645 1348.66 728.957 1345.26 738.826 C 1347.76 742.082 1350.01 745.246 1352.37 748.605 C 1349.16 766.569 1348.4 762.04 1333.81 766.757 L 1333.33 766.918 C 1322.23 756.815 1321.73 758.109 1324.3 742.724 C 1329.75 739.101 1332.07 738.036 1338.32 736.178 C 1347.91 709.657 1355.49 682.171 1365.31 655.715 C 1366.14 653.479 1369.71 652.766 1371.83 652.001 z"/>
<path transform="translate(0,0)" fill="rgb(0,0,0)" d="M 1334.43 745.494 C 1337.63 744.012 1341.43 745.309 1343.06 748.439 C 1344.69 751.569 1343.57 755.425 1340.52 757.196 C 1338.41 758.417 1335.81 758.383 1333.74 757.107 C 1331.67 755.832 1330.47 753.522 1330.61 751.094 C 1330.75 748.667 1332.22 746.516 1334.43 745.494 z"/>
<path transform="translate(0,0)" fill="rgb(197,196,196)" d="M 926.191 872.367 C 945.815 866.729 968.434 859.486 987.803 854.483 C 966.075 871.09 945.722 891.021 925.125 906.803 C 923.373 903.332 925.973 878.882 926.191 872.367 z"/>
<path transform="translate(0,0)" fill="rgb(249,161,41)" d="M 1385.95 475.428 C 1396.53 474.577 1401.59 476.912 1411.57 480.164 C 1400.95 484.106 1359.87 494.134 1348.12 496.748 C 1341.31 497.745 1327.83 484.812 1322.23 480.319 C 1343.14 478.351 1364.95 477.012 1385.95 475.428 z"/>
<path transform="translate(0,0)" fill="rgb(120,120,120)" d="M 1307.5 668.712 L 1329.28 663.003 C 1321.72 689.441 1311.48 722.141 1305.49 748.564 L 1303.8 746.062 C 1304.8 736.783 1305.09 734.837 1300.9 726.338 C 1303.24 707.145 1305.44 687.936 1307.5 668.712 z"/>
<path transform="translate(0,0)" fill="rgb(17,136,121)" d="M 1300.73 670.121 C 1303.24 674.779 1295.87 717.632 1296.22 726.442 C 1296.76 740.312 1306.71 739.238 1290.25 751.042 C 1279.45 751.043 1270.09 750.948 1259.25 750.278 L 1256 749.84 L 1255.32 748.548 L 1257.03 745.426 C 1262 741.255 1273.3 743.761 1280.82 744.147 C 1280.82 741.688 1280.91 739.23 1281.07 736.778 C 1281.41 732.206 1284.38 730.482 1288.02 727.398 C 1290.39 709.65 1292.06 691.47 1294.38 673.582 C 1296.58 670.816 1296.77 671.454 1300.73 670.121 z"/>
<path transform="translate(0,0)" fill="rgb(25,157,144)" d="M 1150.71 764.965 C 1149.84 759.042 1148.75 753.539 1152.9 748.731 C 1159.2 741.414 1166.99 743.741 1172.98 748.986 C 1173.75 749.657 1174.51 750.341 1175.26 751.038 C 1175.48 755.08 1175.86 759.799 1175.91 763.787 L 1166.98 771.065 L 1155.98 769.187 C 1154.52 768.672 1151.99 766.129 1150.71 764.965 z"/>
<path transform="translate(0,0)" fill="rgb(120,120,120)" d="M 1287.53 681.727 C 1288.5 686.271 1284.26 717.751 1283.52 724.774 C 1276.08 730.56 1278.94 730.04 1273.91 737.084 C 1270.98 739.039 1266.01 738.168 1262.22 737.934 C 1261.42 734.601 1284.56 688.004 1287.53 681.727 z"/>
<path transform="translate(0,0)" fill="rgb(197,196,196)" d="M 1269.8 423.761 C 1272.6 424.92 1284.6 435.093 1286.79 437.509 C 1284.67 439.104 1278.77 438.994 1275.75 439.166 C 1268.28 440.584 1264.8 436.563 1258.96 432.385 L 1269.8 423.761 z"/>
<path transform="translate(0,0)" fill="rgb(14,115,91)" d="M 76.3558 17.6901 C 80.8109 20.0393 83.2262 21.4172 87.3286 24.3031 C 87.9936 25.9465 88.9575 28.586 89.7705 30.0518 L 90.479 35.9046 L 76.3558 17.6901 z"/>
</svg>