<svg xmlns="http://www.w3.org/2000/svg" height="1024" preserveAspectRatio="none" style="display: block;" version="1.1" viewBox="0 0 2048 2048" width="1024">
<defs>
	<linearGradient gradientUnits="userSpaceOnUse" id="Gradient1" x1="982.271" x2="1020.81" y1="1482.28" y2="1468.23">
		<stop class="stop0" offset="0" stop-color="rgb(128,127,129)" stop-opacity="1"></stop>
		<stop class="stop1" offset="1" stop-color="rgb(161,160,160)" stop-opacity="1"></stop>
	</linearGradient>
	<linearGradient gradientUnits="userSpaceOnUse" id="Gradient2" x1="969.978" x2="1039.36" y1="1509.66" y2="1493.57">
		<stop class="stop0" offset="0" stop-color="rgb(117,116,117)" stop-opacity="1"></stop>
		<stop class="stop1" offset="1" stop-color="rgb(168,167,168)" stop-opacity="1"></stop>
	</linearGradient>
	<linearGradient gradientUnits="userSpaceOnUse" id="Gradient3" x1="926.372" x2="1080.85" y1="1443.54" y2="1407.41">
		<stop class="stop0" offset="0" stop-color="rgb(132,131,131)" stop-opacity="1"></stop>
		<stop class="stop1" offset="1" stop-color="rgb(247,246,247)" stop-opacity="1"></stop>
	</linearGradient>
	<linearGradient gradientUnits="userSpaceOnUse" id="Gradient4" x1="914.407" x2="792.117" y1="1627.11" y2="1717.01">
		<stop class="stop0" offset="0" stop-color="rgb(140,139,139)" stop-opacity="1"></stop>
		<stop class="stop1" offset="1" stop-color="rgb(172,175,179)" stop-opacity="1"></stop>
	</linearGradient>
	<linearGradient gradientUnits="userSpaceOnUse" id="Gradient5" x1="1373.84" x2="1438.13" y1="1083.97" y2="1145.01">
		<stop class="stop0" offset="0" stop-color="rgb(147,146,146)" stop-opacity="1"></stop>
		<stop class="stop1" offset="1" stop-color="rgb(193,195,200)" stop-opacity="1"></stop>
	</linearGradient>
	<linearGradient gradientUnits="userSpaceOnUse" id="Gradient6" x1="731.005" x2="957.975" y1="1607.7" y2="1525.25">
		<stop class="stop0" offset="0" stop-color="rgb(156,155,155)" stop-opacity="1"></stop>
		<stop class="stop1" offset="1" stop-color="rgb(204,203,203)" stop-opacity="1"></stop>
	</linearGradient>
	<linearGradient gradientUnits="userSpaceOnUse" id="Gradient7" x1="764.048" x2="905.976" y1="1584.46" y2="1622.79">
		<stop class="stop0" offset="0" stop-color="rgb(92,92,94)" stop-opacity="1"></stop>
		<stop class="stop1" offset="1" stop-color="rgb(166,165,165)" stop-opacity="1"></stop>
	</linearGradient>
	<linearGradient gradientUnits="userSpaceOnUse" id="Gradient8" x1="1269.89" x2="1162.34" y1="1415.68" y2="1390.98">
		<stop class="stop0" offset="0" stop-color="rgb(101,103,103)" stop-opacity="1"></stop>
		<stop class="stop1" offset="1" stop-color="rgb(168,175,188)" stop-opacity="1"></stop>
	</linearGradient>
	<linearGradient gradientUnits="userSpaceOnUse" id="Gradient9" x1="1271.09" x2="1282.61" y1="1344.68" y2="1342.71">
		<stop class="stop0" offset="0" stop-color="rgb(122,122,128)" stop-opacity="1"></stop>
		<stop class="stop1" offset="1" stop-color="rgb(144,145,150)" stop-opacity="1"></stop>
	</linearGradient>
	<linearGradient gradientUnits="userSpaceOnUse" id="Gradient10" x1="1154.22" x2="1139.52" y1="1468.8" y2="1319.55">
		<stop class="stop0" offset="0" stop-color="rgb(144,143,144)" stop-opacity="1"></stop>
		<stop class="stop1" offset="1" stop-color="rgb(199,197,197)" stop-opacity="1"></stop>
	</linearGradient>
	<linearGradient gradientUnits="userSpaceOnUse" id="Gradient11" x1="1113.37" x2="998.78" y1="1504" y2="1673.75">
		<stop class="stop0" offset="0" stop-color="rgb(148,147,147)" stop-opacity="1"></stop>
		<stop class="stop1" offset="1" stop-color="rgb(194,200,204)" stop-opacity="1"></stop>
	</linearGradient>
	<linearGradient gradientUnits="userSpaceOnUse" id="Gradient12" x1="965.314" x2="1098.04" y1="1529.01" y2="1525.21">
		<stop class="stop0" offset="0" stop-color="rgb(134,134,134)" stop-opacity="1"></stop>
		<stop class="stop1" offset="1" stop-color="rgb(215,217,223)" stop-opacity="1"></stop>
	</linearGradient>
	<linearGradient gradientUnits="userSpaceOnUse" id="Gradient13" x1="951.157" x2="1005.94" y1="1650.28" y2="1670.52">
		<stop class="stop0" offset="0" stop-color="rgb(104,103,104)" stop-opacity="1"></stop>
		<stop class="stop1" offset="1" stop-color="rgb(126,125,126)" stop-opacity="1"></stop>
	</linearGradient>
	<linearGradient gradientUnits="userSpaceOnUse" id="Gradient14" x1="987.229" x2="956.493" y1="1686.51" y2="1557.07">
		<stop class="stop0" offset="0" stop-color="rgb(127,126,127)" stop-opacity="1"></stop>
		<stop class="stop1" offset="1" stop-color="rgb(184,183,183)" stop-opacity="1"></stop>
	</linearGradient>
	<linearGradient gradientUnits="userSpaceOnUse" id="Gradient15" x1="1563.41" x2="1423.55" y1="1065.23" y2="1061.7">
		<stop class="stop0" offset="0" stop-color="rgb(111,111,114)" stop-opacity="1"></stop>
		<stop class="stop1" offset="1" stop-color="rgb(155,155,155)" stop-opacity="1"></stop>
	</linearGradient>
	<linearGradient gradientUnits="userSpaceOnUse" id="Gradient16" x1="1300.24" x2="1193.51" y1="1102.72" y2="1075.38">
		<stop class="stop0" offset="0" stop-color="rgb(99,99,99)" stop-opacity="1"></stop>
		<stop class="stop1" offset="1" stop-color="rgb(169,168,168)" stop-opacity="1"></stop>
	</linearGradient>
	<linearGradient gradientUnits="userSpaceOnUse" id="Gradient17" x1="1319.98" x2="1305.76" y1="1016.11" y2="1135.05">
		<stop class="stop0" offset="0" stop-color="rgb(157,156,156)" stop-opacity="1"></stop>
		<stop class="stop1" offset="1" stop-color="rgb(203,202,202)" stop-opacity="1"></stop>
	</linearGradient>
	<linearGradient gradientUnits="userSpaceOnUse" id="Gradient18" x1="1160.53" x2="1260.42" y1="1145.38" y2="1231">
		<stop class="stop0" offset="0" stop-color="rgb(149,148,148)" stop-opacity="1"></stop>
		<stop class="stop1" offset="1" stop-color="rgb(205,204,204)" stop-opacity="1"></stop>
	</linearGradient>
	<linearGradient gradientUnits="userSpaceOnUse" id="Gradient19" x1="1243.55" x2="1341" y1="1220.51" y2="1265.62">
		<stop class="stop0" offset="0" stop-color="rgb(121,120,121)" stop-opacity="1"></stop>
		<stop class="stop1" offset="1" stop-color="rgb(202,201,200)" stop-opacity="1"></stop>
	</linearGradient>
	<linearGradient gradientUnits="userSpaceOnUse" id="Gradient20" x1="1103.01" x2="1179.72" y1="1164.18" y2="1270.58">
		<stop class="stop0" offset="0" stop-color="rgb(152,150,150)" stop-opacity="1"></stop>
		<stop class="stop1" offset="1" stop-color="rgb(207,206,206)" stop-opacity="1"></stop>
	</linearGradient>
	<linearGradient gradientUnits="userSpaceOnUse" id="Gradient21" x1="1088.59" x2="1134.8" y1="1297.94" y2="1407.16">
		<stop class="stop0" offset="0" stop-color="rgb(120,120,120)" stop-opacity="1"></stop>
		<stop class="stop1" offset="1" stop-color="rgb(192,192,191)" stop-opacity="1"></stop>
	</linearGradient>
</defs>
<path d="M 0 0 L 2048 0 L 2048 2048 L 0 2048 L 0 0 z" fill="rgb(8,12,20)" transform="translate(0,0)"></path>
<path d="M 583.912 625.007 C 589.871 643.956 595.264 662.425 603.166 680.704 C 637.564 760.702 698.377 826.471 775.441 867.018 C 796.316 877.873 819.525 886.733 841.665 894.026 C 993.504 944.042 1140.94 1100.19 1079.77 1270.45 C 1076.67 1279.09 1073.91 1287.49 1070.2 1296.01 C 1013.23 1307.81 948.474 1304.81 893.918 1284.3 C 854.301 1269.4 803.801 1235.58 779.295 1200.17 C 845.526 1228.51 900.297 1236.53 971.556 1223.03 L 984.279 1219.96 L 982.926 1218.89 L 972.178 1219.95 C 876.589 1221.54 796.329 1197.14 725.274 1129.73 C 687.471 1093.87 655.382 1037.88 645.844 986.34 C 702.061 1042.88 774.509 1083.77 855.892 1084.13 C 866.285 1084.18 872.259 1083.84 882.396 1081.86 C 785.052 1067.32 704.675 1018.89 646 939.624 C 587.908 860.288 563.28 761.319 577.414 664.01 C 579.394 650.976 582.067 638.082 583.912 625.007 z" fill="rgb(20,184,166)" transform="translate(0,0)"></path>
<path d="M 982.926 1218.89 C 984.15 1218.44 986.337 1217.44 987.477 1218.54 C 987.247 1219.59 984.969 1219.8 984.279 1219.96 L 982.926 1218.89 z" fill="rgb(16,185,129)" transform="translate(0,0)"></path>
<path d="M 694.417 329.809 C 694.745 333.217 690.133 365.991 689.573 373.551 C 686.584 413.311 690.021 453.293 699.752 491.96 C 723.97 585.866 795.433 671.976 873.929 726.894 C 900.584 746.919 924.829 757.011 953.636 774.438 C 1062.99 840.591 1154.51 960.687 1161.12 1091.51 C 1162.57 1120.23 1137.43 1175.8 1122.92 1200.12 C 1122.89 1186.15 1122.74 1173.18 1121.24 1159.24 C 1118.43 1129.98 1109.13 1102.3 1097.24 1075.97 C 1053.83 979.837 966.136 911.476 868.466 876.037 C 854.866 871.103 840.641 866.168 827.226 860.589 C 789.93 845.061 755.48 823.432 725.287 796.59 C 585.382 672.254 568.613 470.993 694.417 329.809 z" fill="rgb(20,184,166)" transform="translate(0,0)"></path>
<path d="M 1174.09 1111.52 L 1174.75 1110.49 C 1176.5 1107.59 1176.89 1109.6 1177.23 1111.84 C 1183.11 1157.31 1189.64 1215.16 1197.62 1259.25 C 1199.08 1271.15 1200.64 1283.03 1202.31 1294.91 C 1200.17 1296.91 1189.46 1307.17 1187.79 1308.19 C 1154.21 1339.23 1121.16 1370.84 1088.67 1403.02 C 1079.32 1412.13 1050.61 1441.36 1042.28 1447.77 C 1041.04 1449.73 1028.82 1462.04 1026.28 1464.75 C 1018.85 1461.09 1018.46 1453.66 1011.47 1446.05 C 1014.68 1439.3 1017.64 1432.12 1021.35 1425.62 C 1021.76 1422.57 1034.41 1397.44 1036.54 1393.3 C 1046.85 1367.36 1066.84 1326.79 1079.45 1301.9 C 1080.65 1299.57 1081.51 1296.97 1083.33 1295.04 C 1092.25 1277.32 1104.42 1259.88 1113.06 1241.97 C 1133.43 1199.73 1157.45 1155.29 1174.09 1111.52 z" fill="url(#Gradient21)" transform="translate(0,0)"></path>
<path d="M 1174.09 1111.52 L 1174.75 1110.49 C 1176.5 1107.59 1176.89 1109.6 1177.23 1111.84 C 1183.11 1157.31 1189.64 1215.16 1197.62 1259.25 C 1194.01 1265.99 1148.59 1276.25 1138.11 1279.68 C 1131.24 1281.16 1123.5 1283.46 1116.55 1285.26 L 1114.98 1285.68 L 1110.98 1286.7 L 1106.98 1287.73 L 1105.02 1288.24 C 1099.99 1289.58 1086.74 1294.89 1083.33 1295.04 C 1092.25 1277.32 1104.42 1259.88 1113.06 1241.97 C 1133.43 1199.73 1157.45 1155.29 1174.09 1111.52 z" fill="url(#Gradient20)" transform="translate(0,0)"></path>
<path d="M 1174.09 1111.52 L 1174.75 1110.49 C 1176.5 1107.59 1176.89 1109.6 1177.23 1111.84 C 1176.4 1111.79 1174.98 1111.8 1174.09 1111.52 z" fill="rgb(157,158,161)" transform="translate(0,0)"></path>
<path d="M 1021.35 1425.62 C 1024.37 1431.27 1020.43 1428.85 1020.63 1432.24 C 1020.25 1431.67 1029.37 1437.45 1030.22 1438.4 C 1032.83 1441.29 1036.58 1445.19 1038.65 1448.43 C 1040.61 1446.96 1040.35 1445.81 1042.28 1447.77 C 1041.04 1449.73 1028.82 1462.04 1026.28 1464.75 C 1018.85 1461.09 1018.46 1453.66 1011.47 1446.05 C 1014.68 1439.3 1017.64 1432.12 1021.35 1425.62 z" fill="rgb(192,208,224)" transform="translate(0,0)"></path>
<path d="M 1083.33 1295.04 C 1086.74 1294.89 1099.99 1289.58 1105.02 1288.24 L 1106.98 1287.73 L 1110.98 1286.7 L 1114.98 1285.68 L 1116.55 1285.26 C 1123.5 1283.46 1131.24 1281.16 1138.11 1279.68 C 1135.66 1281.62 1132.71 1283.19 1129.36 1283.97 C 1119.88 1286.17 1119.09 1285.06 1121.24 1295.52 C 1122.07 1299.52 1119.92 1299.49 1119.54 1301.79 C 1119.82 1302.15 1120.35 1302.16 1120.48 1302.61 C 1120.36 1302.79 1083.72 1302.15 1079.45 1301.9 C 1080.65 1299.57 1081.51 1296.97 1083.33 1295.04 z" fill="rgb(157,158,161)" transform="translate(0,0)"></path>
<path d="M 1181.76 1104.28 C 1185.4 1105.8 1189.77 1107.6 1193.46 1108.82 L 1249.77 1130.02 C 1257.84 1133.03 1274.19 1139.48 1282.3 1141.36 C 1285.07 1149.3 1288.13 1164.7 1290.11 1173.34 L 1302.77 1227.91 L 1314.77 1277.54 C 1315.76 1281.6 1319.8 1297.38 1319.85 1300.62 C 1321.24 1305.02 1322.19 1309.02 1323.24 1313.49 L 1324.33 1317.99 C 1326.74 1328 1329 1336.93 1331.05 1347.08 C 1321.31 1343.36 1311.6 1339.57 1301.93 1335.68 C 1287.1 1330.09 1272.38 1323.68 1257.16 1317.79 C 1242.98 1312.3 1224.95 1306.33 1211.29 1299.44 C 1208.92 1298.24 1208.64 1294.46 1208.24 1291.79 C 1199.17 1236.32 1191.79 1178.61 1183.96 1122.76 L 1181.76 1104.28 z" fill="url(#Gradient19)" transform="translate(0,0)"></path>
<path d="M 1181.76 1104.28 C 1185.4 1105.8 1189.77 1107.6 1193.46 1108.82 L 1249.77 1130.02 C 1257.84 1133.03 1274.19 1139.48 1282.3 1141.36 C 1263.07 1177.5 1245.77 1218.39 1226.75 1255.09 C 1223.03 1262.27 1212.38 1287.23 1208.96 1291.63 L 1208.24 1291.79 C 1199.17 1236.32 1191.79 1178.61 1183.96 1122.76 L 1181.76 1104.28 z" fill="url(#Gradient18)" transform="translate(0,0)"></path>
<path d="M 1181.76 1104.28 C 1185.4 1105.8 1189.77 1107.6 1193.46 1108.82 C 1190.21 1111.79 1185.64 1118.7 1183.96 1122.76 L 1181.76 1104.28 z" fill="rgb(157,158,161)" transform="translate(0,0)"></path>
<path d="M 1319.85 1300.62 C 1321.24 1305.02 1322.19 1309.02 1323.24 1313.49 L 1324.33 1317.99 C 1326.74 1328 1329 1336.93 1331.05 1347.08 C 1321.31 1343.36 1311.6 1339.57 1301.93 1335.68 C 1302.81 1332.19 1311.99 1321.79 1314.91 1318.91 C 1325.28 1308.68 1317.8 1311.56 1319.85 1300.62 z" fill="rgb(192,208,224)" transform="translate(0,0)"></path>
<path d="M 1207.41 1049.77 C 1209.44 1043.63 1223.87 1009.66 1227.21 1004.79 C 1230.75 1011.23 1246.52 1034.27 1247.55 1037.65 L 1242.21 1040.65 L 1238.33 1042.14 L 1238.12 1043.21 C 1241.73 1043.66 1244.58 1043.89 1248.21 1044.07 C 1269.12 1043.95 1293.97 1044.53 1314.56 1043.75 C 1329.35 1044.01 1344.14 1044.02 1358.94 1043.77 C 1365.06 1043.7 1379.25 1043.2 1384.74 1043.83 C 1400.48 1042.34 1424.01 1042.84 1440.28 1042.42 C 1480.65 1041.37 1522.45 1042.15 1562.72 1040.07 L 1566.05 1042.97 C 1498.06 1059 1421.93 1093.43 1354.8 1113.71 C 1349.46 1116.25 1298.41 1134.86 1296.13 1134.59 C 1259.82 1120.97 1223.23 1108.09 1186.38 1095.98 C 1189.81 1087.92 1195.26 1074.97 1199.45 1067.57 C 1201.91 1061.64 1204.31 1055.38 1207.41 1049.77 z" fill="url(#Gradient17)" transform="translate(0,0)"></path>
<path d="M 1256.52 1059.9 C 1262.12 1070.01 1295.14 1127.96 1296.13 1134.59 C 1259.82 1120.97 1223.23 1108.09 1186.38 1095.98 C 1189.81 1087.92 1195.26 1074.97 1199.45 1067.57 C 1206.8 1066.48 1211.97 1064.09 1218.87 1062.96 C 1230.88 1060.98 1244.28 1060.23 1256.52 1059.9 z" fill="url(#Gradient16)" transform="translate(0,0)"></path>
<path d="M 1253.4 1086.09 C 1257.29 1085.95 1261.19 1086.15 1265.05 1086.68 C 1274.07 1087.97 1266.26 1108.71 1264.49 1113.74 C 1263.83 1114.47 1263.93 1114.6 1263.31 1114.7 C 1262.2 1113.36 1264.64 1111.85 1260.57 1110.44 C 1258.94 1109.87 1258.52 1099.45 1256.57 1097.52 C 1255.24 1096.2 1257.39 1092.13 1258.26 1090.48 C 1257.63 1088.29 1257.12 1087.32 1254.9 1086.6 L 1253.4 1086.09 z" fill="rgb(93,92,93)" transform="translate(0,0)"></path>
<path d="M 1384.74 1043.83 C 1400.48 1042.34 1424.01 1042.84 1440.28 1042.42 C 1480.65 1041.37 1522.45 1042.15 1562.72 1040.07 L 1566.05 1042.97 C 1498.06 1059 1421.93 1093.43 1354.8 1113.71 C 1359.65 1106.61 1415.05 1093.84 1424.08 1086.01 C 1428.25 1082.39 1423.4 1051.25 1423.5 1043.85 C 1412.11 1044.79 1396.16 1045.1 1384.74 1043.83 z" fill="url(#Gradient15)" transform="translate(0,0)"></path>
<path d="M 1389.51 935.76 C 1397.08 938.17 1429.37 956.538 1437.88 961.246 L 1525.26 1009.52 C 1537.65 1016.29 1553.56 1025.66 1566.02 1031.73 C 1566.92 1032.04 1572.92 1034.04 1572.7 1035.45 C 1572.16 1036.08 1571.12 1035.95 1570.33 1036.03 C 1508.22 1034.97 1446.97 1036.32 1384.91 1036.96 C 1354.74 1037.08 1324.58 1037.75 1294.43 1038.97 C 1279.35 1039.47 1259.93 1039.67 1245.26 1041.37 L 1242.21 1040.65 L 1247.55 1037.65 C 1246.52 1034.27 1230.75 1011.23 1227.21 1004.79 C 1278.92 983.409 1331.64 958.227 1383.7 938.442 C 1386.03 936.957 1386.88 936.732 1389.51 935.76 z" fill="rgb(192,208,224)" transform="translate(0,0)"></path>
<path d="M 1247.55 1037.65 C 1261.81 1037.44 1345.35 996.452 1365.35 991.233 C 1382 995.753 1401.45 999.295 1418.54 1002.76 L 1498.98 1018.96 C 1514.39 1022.01 1543.21 1027.31 1557.7 1032.06 C 1560.71 1032.04 1562.98 1031.98 1566.02 1031.73 C 1566.92 1032.04 1572.92 1034.04 1572.7 1035.45 C 1572.16 1036.08 1571.12 1035.95 1570.33 1036.03 C 1508.22 1034.97 1446.97 1036.32 1384.91 1036.96 C 1354.74 1037.08 1324.58 1037.75 1294.43 1038.97 C 1279.35 1039.47 1259.93 1039.67 1245.26 1041.37 L 1242.21 1040.65 L 1247.55 1037.65 z" fill="rgb(2,141,214)" transform="translate(0,0)"></path>
<path d="M 1566.02 1031.73 C 1566.92 1032.04 1572.92 1034.04 1572.7 1035.45 C 1572.16 1036.08 1571.12 1035.95 1570.33 1036.03 C 1566.11 1035 1561.95 1033.36 1557.7 1032.06 C 1560.71 1032.04 1562.98 1031.98 1566.02 1031.73 z" fill="rgb(92,172,211)" transform="translate(0,0)"></path>
<path d="M 1383.7 938.442 C 1386.03 936.957 1386.88 936.732 1389.51 935.76 C 1383.71 949.978 1374.63 964.488 1369.27 978.128 C 1367.64 975.78 1373.26 966.06 1374.66 963.688 C 1383.37 948.93 1378.07 954.915 1377.3 947.268 C 1375.25 946.896 1356.77 961.569 1355.07 961.586 C 1355.01 961.489 1354.96 961.393 1354.91 961.296 C 1355.96 959.377 1359.22 957.378 1361.01 956.117 C 1361.49 955.777 1361.98 955.455 1362.46 955.111 C 1369.58 949.997 1376.85 945.489 1383.61 939.983 C 1383.78 939.848 1384.11 939.679 1384.19 939.453 C 1384.31 939.098 1383.9 938.761 1383.7 938.442 z" fill="rgb(157,158,161)" transform="translate(0,0)"></path>
<path d="M 1103.86 1486.76 C 1106.57 1485.46 1107.05 1485.39 1110.14 1485.11 C 1111.18 1484.8 1111.67 1484.76 1112.5 1484.23 L 1047.1 1614.83 L 1022.12 1665.06 C 1017.68 1674.07 1012.46 1685.81 1007.5 1694.32 C 1007.1 1695.82 1006.41 1697.04 1005.73 1698.45 C 1005.62 1698.64 1004.14 1701.93 1003.44 1701.25 C 986.148 1684.46 966.345 1666.13 949.36 1649.15 C 941.302 1641.09 930.61 1632.77 921.801 1624.2 C 929.863 1610.19 937.701 1596.05 945.312 1581.79 C 949.351 1574.21 956.505 1559.74 961.139 1553.25 C 1003.49 1530.25 1058.72 1506.1 1103.05 1484.72 L 1103.86 1486.76 z" fill="rgb(2,141,214)" transform="translate(0,0)"></path>
<path d="M 961.139 1553.25 C 978.566 1560.08 991.723 1563.26 1010.19 1566.67 C 1008.86 1585.74 1007.83 1604.83 1007.1 1623.94 C 1006.69 1632.86 1005.56 1647.41 1005.83 1655.8 C 1004.7 1664.25 1004.89 1674.97 1003.9 1684.53 C 1004.09 1691.45 1002.43 1692.72 1005.73 1698.45 C 1005.62 1698.64 1004.14 1701.93 1003.44 1701.25 C 986.148 1684.46 966.345 1666.13 949.36 1649.15 C 941.302 1641.09 930.61 1632.77 921.801 1624.2 C 929.863 1610.19 937.701 1596.05 945.312 1581.79 C 949.351 1574.21 956.505 1559.74 961.139 1553.25 z" fill="url(#Gradient14)" transform="translate(0,0)"></path>
<path d="M 949.36 1649.15 C 958.224 1646.32 964.049 1638.13 975.439 1636.38 C 980.64 1635.59 982.629 1636.88 985.669 1636.41 L 985.448 1636.49 L 985.706 1635.49 C 985.262 1634.5 984.645 1633.34 984.975 1632.25 C 985.305 1632.16 985.14 1632.16 985.47 1632.24 C 986.1 1632.93 986.981 1637.25 987.384 1638.54 C 988.557 1642.35 989.669 1646.18 990.719 1650.02 C 991.046 1651.2 991.374 1652.38 991.702 1653.56 L 992.682 1657.02 L 993.773 1661.02 C 994.42 1663.37 996.449 1670.6 996.543 1672.7 C 998.296 1677.24 998.798 1679.84 999.812 1684.46 L 1003.9 1684.53 C 1004.09 1691.45 1002.43 1692.72 1005.73 1698.45 C 1005.62 1698.64 1004.14 1701.93 1003.44 1701.25 C 986.148 1684.46 966.345 1666.13 949.36 1649.15 z" fill="url(#Gradient13)" transform="translate(0,0)"></path>
<path d="M 999.812 1684.46 C 1000.24 1685.61 1002.49 1693.23 1001.08 1693.92 C 998.328 1691.9 995.824 1677.02 996.543 1672.7 C 998.296 1677.24 998.798 1679.84 999.812 1684.46 z" fill="rgb(93,92,93)" transform="translate(0,0)"></path>
<path d="M 981.79 1648.47 C 988.388 1652.69 983.894 1661.63 979.787 1666.31 C 978.962 1667.25 974.005 1666.15 972.695 1665.95 C 964.366 1653.65 980.865 1655.32 983.859 1654.34 C 984.427 1652.82 982.451 1649.77 981.79 1648.47 z" fill="rgb(93,92,93)" transform="translate(0,0)"></path>
<path d="M 1103.05 1484.72 L 1103.86 1486.76 C 1073.16 1515.08 1041.78 1539.88 1010.19 1566.67 C 991.723 1563.26 978.566 1560.08 961.139 1553.25 C 1003.49 1530.25 1058.72 1506.1 1103.05 1484.72 z" fill="url(#Gradient12)" transform="translate(0,0)"></path>
<path d="M 1112.5 1484.23 L 1047.1 1614.83 L 1022.12 1665.06 C 1017.68 1674.07 1012.46 1685.81 1007.5 1694.32 L 1007.49 1693.26 C 1007.45 1689.11 1009.54 1683.6 1010.44 1678.87 C 1013.24 1672.79 1016.03 1659.46 1018.04 1652.7 C 1023.13 1634.07 1027.43 1615.08 1033.78 1596.83 C 1036.92 1588.79 1042.15 1579.86 1047.38 1572.97 C 1068.95 1544.55 1088.49 1513.24 1110.14 1485.11 C 1111.18 1484.8 1111.67 1484.76 1112.5 1484.23 z" fill="url(#Gradient11)" transform="translate(0,0)"></path>
<path d="M 1005.83 1655.8 C 1006.38 1661.9 1005.67 1669.51 1007.14 1675.04 C 1008.52 1680.28 1006.47 1680.61 1006.53 1683.47 C 1006.93 1683.18 1009.73 1679.65 1010.44 1678.87 C 1009.54 1683.6 1007.45 1689.11 1007.49 1693.26 L 1007.5 1694.32 C 1007.1 1695.82 1006.41 1697.04 1005.73 1698.45 C 1002.43 1692.72 1004.09 1691.45 1003.9 1684.53 C 1004.89 1674.97 1004.7 1664.25 1005.83 1655.8 z" fill="rgb(0,110,184)" transform="translate(0,0)"></path>
<path d="M 1200.76 1316.26 L 1206.25 1310.11 C 1217.7 1314.61 1242.24 1324.92 1253.12 1327.77 C 1254.45 1328.27 1255.62 1328.67 1256.98 1329.15 C 1261.61 1330.82 1266.22 1332.57 1270.79 1334.41 C 1275.16 1335.98 1279.91 1337.59 1284.21 1339.32 C 1285.12 1339.63 1286.04 1339.94 1286.95 1340.25 C 1288.72 1340.92 1290.49 1341.59 1292.27 1342.24 C 1303.99 1346.87 1316.05 1350.41 1327.77 1355.06 C 1329.09 1356.84 1327.44 1357.02 1325.03 1358.16 C 1313.09 1363.84 1300.53 1368.65 1288.62 1374.37 C 1265.23 1385.7 1241.83 1396.66 1218.37 1407.81 C 1191.58 1420.55 1162.8 1435.61 1135.27 1446.52 C 1130.38 1449.55 1122.41 1452.79 1116.94 1455.21 C 1110.03 1459 1079.67 1476.2 1074.84 1477.63 C 1068.13 1481.6 1061 1484.74 1054.18 1488.49 C 1047.99 1483.22 1039.66 1476.85 1035.83 1469.62 C 1039.96 1465.73 1045.23 1460.94 1049.64 1457.31 C 1051.29 1454.81 1063.24 1444.08 1066.1 1441.46 C 1070.68 1437.09 1077.13 1431.98 1081.27 1427.47 C 1085.61 1423.18 1097.55 1411.59 1101.86 1408.3 C 1103.93 1405.76 1131.39 1380.93 1133.85 1379.1 C 1138.17 1372.48 1171.28 1343.7 1178.85 1336.7 C 1186.67 1329.56 1193.09 1323.84 1200.76 1316.26 z" fill="url(#Gradient10)" transform="translate(0,0)"></path>
<path d="M 1253.12 1327.77 C 1254.45 1328.27 1255.62 1328.67 1256.98 1329.15 C 1261.61 1330.82 1266.22 1332.57 1270.79 1334.41 C 1275.16 1335.98 1279.91 1337.59 1284.21 1339.32 C 1285.12 1339.63 1286.04 1339.94 1286.95 1340.25 C 1288.72 1340.92 1290.49 1341.59 1292.27 1342.24 C 1303.99 1346.87 1316.05 1350.41 1327.77 1355.06 C 1329.09 1356.84 1327.44 1357.02 1325.03 1358.16 C 1313.09 1363.84 1300.53 1368.65 1288.62 1374.37 C 1265.23 1385.7 1241.83 1396.66 1218.37 1407.81 C 1191.58 1420.55 1162.8 1435.61 1135.27 1446.52 C 1130.38 1449.55 1122.41 1452.79 1116.94 1455.21 C 1121.57 1445.13 1217.98 1360.59 1233.35 1349.91 L 1245.02 1351.35 C 1252.04 1348.95 1248.32 1343.69 1251.49 1337 C 1251.45 1337.09 1253.12 1327.8 1253.12 1327.77 z" fill="rgb(0,110,184)" transform="translate(0,0)"></path>
<path d="M 1253.12 1327.77 C 1254.45 1328.27 1255.62 1328.67 1256.98 1329.15 C 1261.61 1330.82 1266.22 1332.57 1270.79 1334.41 C 1275.16 1335.98 1279.91 1337.59 1284.21 1339.32 C 1285.12 1339.63 1286.04 1339.94 1286.95 1340.25 C 1288.72 1340.92 1290.49 1341.59 1292.27 1342.24 C 1303.99 1346.87 1316.05 1350.41 1327.77 1355.06 C 1329.09 1356.84 1327.44 1357.02 1325.03 1358.16 C 1313.09 1363.84 1300.53 1368.65 1288.62 1374.37 C 1282.81 1371.9 1279.91 1372.29 1278.77 1365.84 C 1271.47 1366.68 1258.42 1369.19 1251.4 1371.19 L 1249.82 1371.63 C 1246.63 1366.74 1243.63 1361.8 1241.15 1356.51 C 1239.13 1352.21 1241.17 1352.35 1244.86 1351.76 L 1245.02 1351.35 C 1252.04 1348.95 1248.32 1343.69 1251.49 1337 C 1251.45 1337.09 1253.12 1327.8 1253.12 1327.77 z" fill="rgb(2,141,214)" transform="translate(0,0)"></path>
<path d="M 1253.12 1327.77 C 1254.45 1328.27 1255.62 1328.67 1256.98 1329.15 C 1261.61 1330.82 1266.22 1332.57 1270.79 1334.41 C 1268.45 1336.35 1269.42 1349.25 1269.28 1353.35 C 1261.02 1352.88 1253.06 1352.11 1244.86 1351.76 L 1245.02 1351.35 C 1252.04 1348.95 1248.32 1343.69 1251.49 1337 C 1251.45 1337.09 1253.12 1327.8 1253.12 1327.77 z" fill="rgb(116,116,117)" transform="translate(0,0)"></path>
<path d="M 1270.79 1334.41 C 1275.16 1335.98 1279.91 1337.59 1284.21 1339.32 C 1285.12 1339.63 1286.04 1339.94 1286.95 1340.25 C 1288.72 1340.92 1290.49 1341.59 1292.27 1342.24 C 1291.7 1345.86 1290.35 1350.47 1290.28 1353.88 C 1282.69 1353.33 1276.84 1353.34 1269.28 1353.35 C 1269.42 1349.25 1268.45 1336.35 1270.79 1334.41 z" fill="url(#Gradient9)" transform="translate(0,0)"></path>
<path d="M 1284.21 1339.32 C 1285.12 1339.63 1286.04 1339.94 1286.95 1340.25 C 1286.48 1340.99 1284.13 1345.78 1284.22 1345.7 L 1284.39 1345.22 L 1283.67 1344.68 C 1283.61 1342.8 1283.83 1341.16 1284.21 1339.32 z" fill="rgb(157,158,161)" transform="translate(0,0)"></path>
<path d="M 1327.77 1355.06 C 1329.09 1356.84 1327.44 1357.02 1325.03 1358.16 C 1313.09 1363.84 1300.53 1368.65 1288.62 1374.37 C 1282.81 1371.9 1279.91 1372.29 1278.77 1365.84 C 1283.81 1364.99 1288.54 1364.02 1293.51 1363.14 C 1297.51 1362.42 1301.51 1361.63 1305.48 1360.76 C 1310.9 1359.61 1319.82 1358.91 1324.07 1356.09 C 1325.6 1355.56 1326.17 1355.34 1327.77 1355.06 z" fill="rgb(157,158,161)" transform="translate(0,0)"></path>
<path d="M 1292.27 1342.24 C 1303.99 1346.87 1316.05 1350.41 1327.77 1355.06 C 1326.17 1355.34 1325.6 1355.56 1324.07 1356.09 C 1313.19 1355.82 1301.58 1354.34 1290.28 1353.88 C 1290.35 1350.47 1291.7 1345.86 1292.27 1342.24 z" fill="rgb(192,208,224)" transform="translate(0,0)"></path>
<path d="M 1249.82 1371.63 L 1251.4 1371.19 C 1258.42 1369.19 1271.47 1366.68 1278.77 1365.84 C 1279.91 1372.29 1282.81 1371.9 1288.62 1374.37 C 1265.23 1385.7 1241.83 1396.66 1218.37 1407.81 C 1191.58 1420.55 1162.8 1435.61 1135.27 1446.52 C 1141.41 1440.8 1171.26 1422.11 1179.72 1416.97 C 1204.13 1402.13 1226.2 1387.75 1249.82 1371.63 z" fill="url(#Gradient8)" transform="translate(0,0)"></path>
<path d="M 1101.86 1408.3 C 1103.93 1405.76 1131.39 1380.93 1133.85 1379.1 C 1131.14 1385.53 1119.45 1393.6 1119.48 1395.97 C 1119.6 1405.6 1126.3 1426.2 1120.06 1434.55 C 1115.04 1441.28 1087.05 1441.41 1079.74 1439.74 C 1073.53 1438.33 1075.35 1441.84 1068.54 1441.52 C 1067.73 1441.49 1066.91 1441.47 1066.1 1441.46 C 1070.68 1437.09 1077.13 1431.98 1081.27 1427.47 C 1085.61 1423.18 1097.55 1411.59 1101.86 1408.3 z" fill="rgb(116,116,117)" transform="translate(0,0)"></path>
<path d="M 1101.86 1408.3 C 1099.61 1415.16 1095.33 1414.23 1100.01 1418 C 1104.41 1421.55 1102.8 1421.34 1101.53 1423.56 C 1101.52 1423.83 1101.49 1423.7 1101.65 1423.94 C 1101.95 1424.16 1102.25 1424.37 1102.55 1424.59 C 1102.2 1425.65 1083.49 1427.31 1081.27 1427.47 C 1085.61 1423.18 1097.55 1411.59 1101.86 1408.3 z" fill="rgb(93,92,93)" transform="translate(0,0)"></path>
<path d="M 1049.64 1457.31 C 1052.5 1462.04 1043.59 1460.98 1047.71 1465.08 C 1052.3 1469.66 1061.95 1480.26 1065.95 1474.74 C 1065.14 1475.86 1071.59 1477.54 1074.84 1477.63 C 1068.13 1481.6 1061 1484.74 1054.18 1488.49 C 1047.99 1483.22 1039.66 1476.85 1035.83 1469.62 C 1039.96 1465.73 1045.23 1460.94 1049.64 1457.31 z" fill="rgb(192,208,224)" transform="translate(0,0)"></path>
<path d="M 1200.76 1316.26 C 1200.19 1326.59 1193.89 1332.77 1188.13 1341.12 C 1183.46 1338.79 1183.96 1338.44 1178.85 1336.7 C 1186.67 1329.56 1193.09 1323.84 1200.76 1316.26 z" fill="rgb(157,158,161)" transform="translate(0,0)"></path>
<path d="M 935.674 1458.16 C 939.148 1465.99 946.256 1526.79 949.121 1539.94 C 941.094 1556.08 932.885 1571.82 924.996 1588.1 C 921.127 1596.08 913.858 1612.23 909.609 1619.37 C 909.207 1620.21 908.806 1621.05 908.404 1621.89 C 861.039 1640.87 774.76 1680.72 731.25 1697.07 C 736.395 1689.85 739.265 1686.3 745.268 1679.81 C 746.989 1677.75 750.355 1673.56 752.212 1671.76 C 764.402 1656.86 779.291 1640.58 792.007 1625.93 L 855.582 1552.07 C 882.485 1520.98 908.419 1488.83 935.674 1458.16 z" fill="url(#Gradient7)" transform="translate(0,0)"></path>
<path d="M 935.674 1458.16 C 939.148 1465.99 946.256 1526.79 949.121 1539.94 C 941.094 1556.08 932.885 1571.82 924.996 1588.1 C 921.127 1596.08 913.858 1612.23 909.609 1619.37 C 908.883 1617.98 908.09 1616.36 908.356 1614.72 C 914.168 1578.81 918.753 1543.05 926.441 1507.45 L 824.084 1608.3 C 817.992 1614.32 792.27 1638.24 788.807 1643.28 C 779.953 1651.46 766.948 1665.79 758.179 1672.5 L 752.212 1671.76 C 764.402 1656.86 779.291 1640.58 792.007 1625.93 L 855.582 1552.07 C 882.485 1520.98 908.419 1488.83 935.674 1458.16 z" fill="url(#Gradient6)" transform="translate(0,0)"></path>
<path d="M 788.807 1643.28 C 791.778 1649.54 783.187 1658.51 779.398 1662.97 C 773.037 1670.44 766.062 1667.2 760.458 1673 C 757.467 1676.09 752.901 1679.01 749.09 1680.74 C 747.125 1680.66 747.163 1680.59 745.268 1679.81 C 746.989 1677.75 750.355 1673.56 752.212 1671.76 L 758.179 1672.5 C 766.948 1665.79 779.953 1651.46 788.807 1643.28 z" fill="rgb(116,116,117)" transform="translate(0,0)"></path>
<path d="M 752.212 1671.76 L 758.179 1672.5 C 754.509 1675.8 752.44 1676.79 749.09 1680.74 C 747.125 1680.66 747.163 1680.59 745.268 1679.81 C 746.989 1677.75 750.355 1673.56 752.212 1671.76 z" fill="rgb(157,158,161)" transform="translate(0,0)"></path>
<path d="M 1538.85 1063.51 C 1547.79 1059.6 1555.49 1056.69 1564.6 1053.37 C 1525.97 1082.8 1485.05 1109.17 1446.67 1139.16 C 1427.85 1153.87 1406.79 1166.43 1388.13 1181.66 C 1372.14 1232.68 1360.5 1294.35 1343.53 1343.09 C 1341.94 1341.2 1342.63 1342.07 1342.34 1338.83 C 1330.07 1280.45 1319.94 1221.21 1308.23 1162.69 C 1307.31 1158.13 1305.91 1153.9 1306.45 1149.22 L 1308.52 1147.9 C 1330.32 1138.68 1357.94 1129.37 1380.44 1121.19 L 1493.6 1079.63 C 1506.56 1075.87 1525.31 1068.25 1538.85 1063.51 z" fill="rgb(2,141,214)" transform="translate(0,0)"></path>
<path d="M 1342.34 1338.83 C 1330.07 1280.45 1319.94 1221.21 1308.23 1162.69 C 1307.31 1158.13 1305.91 1153.9 1306.45 1149.22 L 1308.52 1147.9 C 1323.48 1153.77 1338.6 1159.21 1353.87 1164.22 C 1352.97 1182.67 1345.08 1335.88 1342.71 1338.74 L 1342.34 1338.83 z" fill="rgb(192,208,224)" transform="translate(0,0)"></path>
<path d="M 1308.52 1147.9 C 1330.32 1138.68 1357.94 1129.37 1380.44 1121.19 L 1493.6 1079.63 C 1498.67 1082.32 1498.54 1082.07 1495.24 1086.72 C 1486.11 1093.2 1468.62 1101.24 1458.28 1107.13 C 1425.88 1125.57 1384.44 1143.97 1353.87 1164.22 C 1338.6 1159.21 1323.48 1153.77 1308.52 1147.9 z" fill="url(#Gradient5)" transform="translate(0,0)"></path>
<path d="M 1538.85 1063.51 C 1536.4 1067.87 1502.16 1083.73 1495.24 1086.72 C 1498.54 1082.07 1498.67 1082.32 1493.6 1079.63 C 1506.56 1075.87 1525.31 1068.25 1538.85 1063.51 z" fill="rgb(192,208,224)" transform="translate(0,0)"></path>
<path d="M 763.774 1693.5 C 805.369 1675.58 874.341 1649.85 917.825 1630.79 C 918.888 1630.32 920.139 1631.83 921.368 1632.83 C 931.242 1642.26 940.901 1651.91 950.335 1661.78 C 956.012 1665.5 980.61 1691.49 987.07 1698.1 C 989.943 1700.3 992.886 1702.42 995.894 1704.43 C 973.266 1705.48 941.019 1705.05 917.888 1704.45 C 861.735 1703.49 805.61 1704.67 749.613 1704 C 744.117 1704.25 738.654 1703.98 733.152 1703.81 C 743.105 1699.41 753.353 1696.62 763.774 1693.5 z" fill="rgb(2,141,214)" transform="translate(0,0)"></path>
<path d="M 763.774 1693.5 C 805.369 1675.58 874.341 1649.85 917.825 1630.79 C 918.888 1630.32 920.139 1631.83 921.368 1632.83 C 919.624 1642.65 917.692 1658.47 918.27 1668.41 C 889.783 1670.88 860.893 1677.64 832.634 1682.34 C 827.528 1683.19 821.119 1684.12 816.225 1685.35 C 805.316 1686.64 769.891 1695.36 763.774 1693.5 z" fill="url(#Gradient4)" transform="translate(0,0)"></path>
<path d="M 845.683 1693.17 C 871.602 1693.53 906.648 1685.14 936.127 1687.55 C 946.392 1689.6 970.389 1697.41 979.514 1701.68 L 981.144 1697.39 C 983.609 1697.5 984.684 1697.69 987.07 1698.1 C 989.943 1700.3 992.886 1702.42 995.894 1704.43 C 973.266 1705.48 941.019 1705.05 917.888 1704.45 C 861.735 1703.49 805.61 1704.67 749.613 1704 C 761.55 1699.7 811.483 1698.02 827.823 1695.45 C 832.481 1694.72 841.558 1694.96 845.683 1693.17 z" fill="rgb(157,158,161)" transform="translate(0,0)"></path>
<path d="M 936.127 1687.55 C 946.392 1689.6 970.389 1697.41 979.514 1701.68 L 981.144 1697.39 C 983.609 1697.5 984.684 1697.69 987.07 1698.1 C 989.943 1700.3 992.886 1702.42 995.894 1704.43 C 973.266 1705.48 941.019 1705.05 917.888 1704.45 C 920.352 1704.3 922.263 1704.2 924.712 1703.84 C 932.629 1700.96 948.026 1705.26 955.693 1700.92 C 961.307 1697.73 958.508 1696.01 954.252 1694.53 C 951.311 1693.49 948.356 1692.5 945.387 1691.56 C 944.416 1691.25 930.151 1688.01 930.492 1688.53 C 931.97 1688.21 933.488 1688.07 934.974 1687.78 L 936.127 1687.55 z" fill="rgb(192,208,224)" transform="translate(0,0)"></path>
<path d="M 981.144 1697.39 C 983.609 1697.5 984.684 1697.69 987.07 1698.1 C 989.943 1700.3 992.886 1702.42 995.894 1704.43 C 973.266 1705.48 941.019 1705.05 917.888 1704.45 C 920.352 1704.3 922.263 1704.2 924.712 1703.84 C 944.165 1703.88 964.456 1704.79 983.76 1703.65 L 983.853 1703.5 L 983.817 1703.42 C 982.554 1702.5 980.991 1702.07 979.514 1701.68 L 981.144 1697.39 z" fill="rgb(2,141,214)" transform="translate(0,0)"></path>
<path d="M 921.368 1632.83 C 931.242 1642.26 940.901 1651.91 950.335 1661.78 C 950.353 1665.7 963.545 1677.47 960.054 1679.69 C 958.737 1679.55 958.36 1678.69 957.564 1677.69 C 955.443 1678.37 953.609 1677.89 954.02 1677.75 C 949.922 1679.1 948.778 1678.57 944.858 1678.73 C 935.327 1675.79 931.733 1670.78 918.27 1668.41 C 917.692 1658.47 919.624 1642.65 921.368 1632.83 z" fill="rgb(192,208,224)" transform="translate(0,0)"></path>
<path d="M 763.774 1693.5 C 769.891 1695.36 805.316 1686.64 816.225 1685.35 L 817.672 1686.26 C 807.417 1688.04 778.825 1692.14 771.61 1697.04 L 771.236 1698.54 C 775.518 1697.32 844.96 1692.55 845.683 1693.17 C 841.558 1694.96 832.481 1694.72 827.823 1695.45 C 811.483 1698.02 761.55 1699.7 749.613 1704 C 744.117 1704.25 738.654 1703.98 733.152 1703.81 C 743.105 1699.41 753.353 1696.62 763.774 1693.5 z" fill="rgb(20,184,166)" transform="translate(0,0)"></path>
<path d="M 950.335 1661.78 C 956.012 1665.5 980.61 1691.49 987.07 1698.1 C 984.684 1697.69 983.609 1697.5 981.144 1697.39 C 974.557 1694.75 950.316 1682.38 944.858 1678.73 C 948.778 1678.57 949.922 1679.1 954.02 1677.75 C 953.609 1677.89 955.443 1678.37 957.564 1677.69 C 958.36 1678.69 958.737 1679.55 960.054 1679.69 C 963.545 1677.47 950.353 1665.7 950.335 1661.78 z" fill="rgb(116,116,117)" transform="translate(0,0)"></path>
<path d="M 1058.28 1313.35 L 1060.27 1314.36 C 1039.42 1353.64 1020.89 1395.91 1000.25 1435.41 C 996.474 1442.62 981.156 1475.76 977.586 1480.7 C 968.248 1500.6 957.902 1519.77 949.121 1539.94 C 946.256 1526.79 939.148 1465.99 935.674 1458.16 C 944.449 1447.3 954.562 1435.82 963.792 1425.28 C 966.46 1420.83 994.909 1388.4 999.534 1383.08 C 1019.4 1360.25 1038.41 1335.92 1058.28 1313.35 z" fill="url(#Gradient3)" transform="translate(0,0)"></path>
<path d="M 1030.59 1474.32 C 1032.35 1472.73 1034.01 1471.14 1035.83 1469.62 C 1039.66 1476.85 1047.99 1483.22 1054.18 1488.49 C 1051.76 1489.88 1048.68 1491.64 1046.09 1492.51 C 1041.14 1495.49 1035.71 1498.23 1030.53 1500.82 C 1010.5 1510.82 990.854 1522.43 970.291 1531.21 C 978.423 1523.1 987.635 1515.04 996.108 1507.15 C 1007.49 1496.56 1019.11 1484.67 1030.59 1474.32 z" fill="url(#Gradient2)" transform="translate(0,0)"></path>
<path d="M 1030.59 1474.32 C 1032.35 1472.73 1034.01 1471.14 1035.83 1469.62 C 1039.66 1476.85 1047.99 1483.22 1054.18 1488.49 C 1051.76 1489.88 1048.68 1491.64 1046.09 1492.51 C 1044.78 1492.55 1039.89 1493.44 1040.58 1493.44 C 1039.6 1492.18 1032.57 1477.59 1030.59 1474.32 z" fill="rgb(157,158,161)" transform="translate(0,0)"></path>
<path d="M 987.034 1498.93 C 991.493 1488.4 1006.36 1455.3 1011.47 1446.05 C 1018.46 1453.66 1018.85 1461.09 1026.28 1464.75 C 1021.36 1470.92 997.937 1492.46 990.426 1499.96 L 987.034 1498.93 z" fill="url(#Gradient1)" transform="translate(0,0)"></path>
<path d="M 1103.05 1484.72 L 1104.8 1483.88 C 1107.22 1482.69 1117.83 1475.51 1113.37 1482.79 L 1112.5 1484.23 C 1111.67 1484.76 1111.18 1484.8 1110.14 1485.11 C 1107.05 1485.39 1106.57 1485.46 1103.86 1486.76 L 1103.05 1484.72 z" fill="rgb(2,141,214)" transform="translate(0,0)"></path>
<path d="M 1562.72 1040.07 C 1564.54 1040.03 1571.86 1039.62 1573.13 1040.5 C 1573.18 1041.62 1566.67 1042.81 1566.05 1042.97 L 1562.72 1040.07 z" fill="rgb(116,116,117)" transform="translate(0,0)"></path>
<path d="M 987.034 1498.93 L 990.426 1499.96 C 989.583 1500.82 985.689 1505.38 984.691 1505.18 C 984.141 1504.26 986.642 1499.84 987.034 1498.93 z" fill="rgb(116,116,117)" transform="translate(0,0)"></path>
<path d="M 1058.28 1313.35 L 1059.44 1311.87 C 1060.24 1310.81 1061.11 1309.23 1062.42 1308.7 C 1063.89 1309.11 1060.66 1313.69 1060.27 1314.36 L 1058.28 1313.35 z" fill="rgb(157,158,161)" transform="translate(0,0)"></path>
<metadata><recraft-signature>{"signed_by": "recraft", "signature_b64": "ckdMXdBHRXwd4nDW1VuvXssramDgAoBMWya87y7hHnNHMR11k4Rc5GU+9zBOIxIXZAQeCl19NRfQklJzAx1pBA==", "signing_algo": "Ed25519", "generation_timestamp": 1774685600, "identifier": "2dce0b24-6b3d-40cb-a3f8-d75f3a4e035a"}</recraft-signature></metadata></svg>