<svg xmlns="http://www.w3.org/2000/svg" height="1024" preserveAspectRatio="none" style="display: block;" version="1.1" viewBox="0 0 2048 2048" width="1024">
<defs>
	<linearGradient gradientUnits="userSpaceOnUse" id="Gradient1" x1="1050.57" x2="1080.76" y1="872.225" y2="793.84">
		<stop class="stop0" offset="0" stop-color="rgb(44,46,51)" stop-opacity="1"></stop>
		<stop class="stop1" offset="1" stop-color="rgb(210,209,210)" stop-opacity="1"></stop>
	</linearGradient>
	<linearGradient gradientUnits="userSpaceOnUse" id="Gradient2" x1="1273.43" x2="1290.48" y1="1129.6" y2="1160.91">
		<stop class="stop0" offset="0" stop-color="rgb(153,157,163)" stop-opacity="1"></stop>
		<stop class="stop1" offset="1" stop-color="rgb(179,186,192)" stop-opacity="1"></stop>
	</linearGradient>
	<linearGradient gradientUnits="userSpaceOnUse" id="Gradient3" x1="1145.79" x2="1414.06" y1="877.063" y2="1006.54">
		<stop class="stop0" offset="0" stop-color="rgb(143,146,151)" stop-opacity="1"></stop>
		<stop class="stop1" offset="1" stop-color="rgb(227,228,231)" stop-opacity="1"></stop>
	</linearGradient>
	<linearGradient gradientUnits="userSpaceOnUse" id="Gradient4" x1="972.969" x2="1244.44" y1="1175.85" y2="1046.68">
		<stop class="stop0" offset="0" stop-color="rgb(147,147,153)" stop-opacity="1"></stop>
		<stop class="stop1" offset="1" stop-color="rgb(207,207,208)" stop-opacity="1"></stop>
	</linearGradient>
	<linearGradient gradientUnits="userSpaceOnUse" id="Gradient5" x1="1408.63" x2="1563.42" y1="903.786" y2="766.737">
		<stop class="stop0" offset="0" stop-color="rgb(35,46,58)" stop-opacity="1"></stop>
		<stop class="stop1" offset="1" stop-color="rgb(159,162,166)" stop-opacity="1"></stop>
	</linearGradient>
	<linearGradient gradientUnits="userSpaceOnUse" id="Gradient6" x1="1555.77" x2="1387.98" y1="699.893" y2="833.707">
		<stop class="stop0" offset="0" stop-color="rgb(123,127,134)" stop-opacity="1"></stop>
		<stop class="stop1" offset="1" stop-color="rgb(228,227,229)" stop-opacity="1"></stop>
	</linearGradient>
	<linearGradient gradientUnits="userSpaceOnUse" id="Gradient7" x1="1331.87" x2="1377.27" y1="870.217" y2="836.565">
		<stop class="stop0" offset="0" stop-color="rgb(84,88,90)" stop-opacity="1"></stop>
		<stop class="stop1" offset="1" stop-color="rgb(175,175,179)" stop-opacity="1"></stop>
	</linearGradient>
	<linearGradient gradientUnits="userSpaceOnUse" id="Gradient8" x1="1294.94" x2="1300.09" y1="852.041" y2="894.687">
		<stop class="stop0" offset="0" stop-color="rgb(169,171,172)" stop-opacity="1"></stop>
		<stop class="stop1" offset="1" stop-color="rgb(205,206,209)" stop-opacity="1"></stop>
	</linearGradient>
	<linearGradient gradientUnits="userSpaceOnUse" id="Gradient9" x1="1369.66" x2="1716.3" y1="493.617" y2="693.897">
		<stop class="stop0" offset="0" stop-color="rgb(164,167,172)" stop-opacity="1"></stop>
		<stop class="stop1" offset="1" stop-color="rgb(218,217,218)" stop-opacity="1"></stop>
	</linearGradient>
</defs>
<path d="M 0 0 L 2048 0 L 2048 2048 L 0 2048 L 0 0 z" fill="rgb(8,12,20)" transform="translate(0,0)"></path>
<path d="M 1765.67 205.345 C 1783.64 185.712 1801.23 165.73 1818.42 145.412 C 1797.75 209.683 1774.37 274.201 1755.47 339.219 C 1741.13 388.546 1726.69 437.556 1712.02 486.789 C 1702.08 520.378 1692.38 554.035 1682.9 587.756 C 1679.19 600.864 1670.26 630.219 1668.34 642.58 C 1672.75 647.693 1680.82 663.566 1684.68 670.324 C 1692.24 683.543 1702.16 697.893 1708.71 711.341 C 1678.68 703.429 1645.52 698.211 1615.01 692.201 C 1599.63 689.171 1579.99 686.65 1565.25 682.308 C 1597.41 602.533 1626.34 521.851 1657.56 441.714 C 1672.45 403.491 1687.87 363.539 1704.66 326.104 L 1459.91 640.94 C 1431.21 677.985 1404.29 716.695 1375.98 753.785 C 1371.82 759.233 1329.7 782.994 1321.19 786.731 C 1314.85 791.947 1271.63 815.415 1262.15 819.649 C 1255.39 824.368 1243.28 830.694 1235.85 834.802 C 1218.44 844.386 1200.94 853.817 1183.37 863.094 C 1174.22 867.943 1154.91 879.104 1146.45 882.361 C 1144.79 883.006 1138.74 886.598 1136.85 887.665 L 1144.76 877.63 C 1177.66 834.986 1213.94 793.593 1246.45 750.388 C 1260.19 732.124 1273.75 712.886 1288.34 695.459 C 1293 688.383 1323.93 657.942 1331.41 650.435 L 1415.64 565.685 L 1654.39 322.254 C 1672.84 303.816 1690.18 283.796 1708.79 265.485 C 1711.8 262.528 1721.91 251.622 1724.33 249.793 C 1737.82 234.703 1751.6 219.884 1765.67 205.345 z" fill="url(#Gradient9)" transform="translate(0,0)"></path>
<path d="M 1654.39 322.254 C 1657.87 325.441 1658.45 325.663 1662.74 328.03 L 1668.2 330.836 C 1668.1 336.698 1641.01 367.699 1636.1 374.06 L 1506.54 538.443 C 1470.92 584.111 1435.03 629.751 1398.14 674.398 C 1380.99 695.145 1358.17 726.607 1340.55 745.45 C 1321.62 743.062 1292.26 739.917 1273.2 738.779 C 1276.79 727.8 1287.41 704.931 1288.34 695.459 C 1293 688.383 1323.93 657.942 1331.41 650.435 L 1415.64 565.685 L 1654.39 322.254 z" fill="rgb(27,169,230)" transform="translate(0,0)"></path>
<path d="M 1765.67 205.345 C 1783.64 185.712 1801.23 165.73 1818.42 145.412 C 1797.75 209.683 1774.37 274.201 1755.47 339.219 C 1741.13 388.546 1726.69 437.556 1712.02 486.789 C 1702.08 520.378 1692.38 554.035 1682.9 587.756 C 1679.19 600.864 1670.26 630.219 1668.34 642.58 L 1640.68 638.122 C 1624.58 646.556 1605.49 660.703 1588.17 670.396 C 1603.08 642.464 1617.95 599.77 1630.52 569.311 C 1670.57 473.157 1707.38 375.688 1740.89 277.066 C 1745.77 262.668 1763.7 216.201 1765.67 205.345 z" fill="rgb(20,184,166)" transform="translate(0,0)"></path>
<path d="M 1288.34 695.459 C 1287.41 704.931 1276.79 727.8 1273.2 738.779 C 1272.2 747.645 1273.08 751.571 1272.59 759.085 C 1266.12 762.339 1237.14 791.599 1231.33 797.861 C 1221.53 806.071 1209.11 819.427 1199.2 828.574 C 1181.99 844.463 1162.91 860.387 1147.78 878.043 L 1146.45 882.361 C 1144.79 883.006 1138.74 886.598 1136.85 887.665 L 1144.76 877.63 C 1177.66 834.986 1213.94 793.593 1246.45 750.388 C 1260.19 732.124 1273.75 712.886 1288.34 695.459 z" fill="rgb(20,184,166)" transform="translate(0,0)"></path>
<path d="M 1724.33 249.793 C 1727.09 249.436 1729.74 247.02 1730.49 248.464 C 1726.91 256.769 1719.9 265.087 1714.35 272.327 L 1705.45 283.846 L 1695.63 296.64 C 1690.71 303 1685.74 309.554 1680.76 315.872 C 1671.69 327.369 1676.13 327.718 1662.74 328.03 C 1658.45 325.663 1657.87 325.441 1654.39 322.254 C 1672.84 303.816 1690.18 283.796 1708.79 265.485 C 1711.8 262.528 1721.91 251.622 1724.33 249.793 z" fill="rgb(192,208,224)" transform="translate(0,0)"></path>
<path d="M 229.062 147.585 L 565.19 491.028 L 693.3 622.068 C 712.458 641.775 736.764 665.535 754.681 685.607 C 741.188 695.746 727.413 708.339 714.469 719.432 C 700.93 731.036 682.695 745.419 670.539 758.407 L 341.596 324.046 C 346.061 336.738 353.886 352.49 359.692 365.054 L 385.272 421.407 L 473.557 619.249 C 448.694 626.521 415.633 634.494 390.301 639.728 C 382.848 627.981 369.962 586.009 365.279 571.54 L 329.422 459.757 L 261.199 246.389 C 251.2 215.225 238.032 178.313 229.062 147.585 z" fill="rgb(16,185,129)" transform="translate(0,0)"></path>
<path d="M 329.364 740.849 C 361.985 767.85 395.815 793.074 429.257 819.038 L 544.401 909.392 C 555.953 918.378 600.416 949.326 606.487 956.897 C 616.112 957.229 644.589 952.507 655.188 951.146 C 688.272 946.896 721.807 941.31 754.971 937.719 C 767.01 934.642 791.593 932.37 804.818 930.25 C 818.661 928.032 840.413 925.026 854.202 924.49 C 858.487 924.323 881.591 931.073 887.312 932.67 C 866.26 946.022 844.893 957.576 823.501 970.158 C 799.225 984.437 776.942 991.846 750.722 1001.38 L 655.074 1035.34 C 644.641 1039.04 582.092 1062.87 575.01 1062.99 C 574.016 1062.23 573.367 1061.94 572.777 1060.98 C 524.584 997.017 475.493 933.997 428.212 869.284 C 423.421 864.028 418.8 856.98 414.394 851.202 C 386.359 814.441 356.665 778.164 329.364 740.849 z" fill="rgb(16,185,129)" transform="translate(0,0)"></path>
<path d="M 754.971 937.719 C 767.01 934.642 791.593 932.37 804.818 930.25 C 818.661 928.032 840.413 925.026 854.202 924.49 C 858.487 924.323 881.591 931.073 887.312 932.67 C 866.26 946.022 844.893 957.576 823.501 970.158 C 799.225 984.437 776.942 991.846 750.722 1001.38 L 655.074 1035.34 C 644.641 1039.04 582.092 1062.87 575.01 1062.99 C 574.016 1062.23 573.367 1061.94 572.777 1060.98 C 575.321 1056.9 591.575 1006.86 594.823 998.044 C 599.133 1007.34 604.205 1021.46 607.98 1031.28 C 612.621 1028.51 625.763 1020.32 629.621 1017.49 C 644.724 1006.4 752.352 943.424 754.971 937.719 z" fill="rgb(6,115,95)" transform="translate(0,0)"></path>
<path d="M 329.364 740.849 C 361.985 767.85 395.815 793.074 429.257 819.038 L 544.401 909.392 C 555.953 918.378 600.416 949.326 606.487 956.897 C 603.085 960.472 603.138 972.657 602.698 978.431 C 575.453 972.107 559.694 958.154 536.925 942.693 L 454.651 886.839 C 448.289 882.585 434.674 871.439 428.212 869.284 C 423.421 864.028 418.8 856.98 414.394 851.202 C 386.359 814.441 356.665 778.164 329.364 740.849 z" fill="rgb(6,115,95)" transform="translate(0,0)"></path>
<path d="M 486.524 714.842 L 676.401 801.318 C 711.439 817.331 749.205 833.699 783.35 850.899 C 815.477 866.184 846.217 884.984 877.721 901.488 C 883.659 904.599 889.579 907.551 895.156 911.283 L 742.5 901.627 C 728.188 900.701 687.404 899.43 675.313 897.387 C 670.963 894.565 649.494 884.472 643.579 881.399 L 568.813 842.204 C 501.414 806.901 433.6 772.397 365.385 738.698 C 376.757 735.53 392.384 733.299 404.42 731.003 C 431.836 725.858 459.205 720.471 486.524 714.842 z" fill="rgb(16,185,129)" transform="translate(0,0)"></path>
<path d="M 675.313 897.387 C 687.585 877.151 708.215 856.244 719.95 837.061 C 727.982 839.266 736.022 841.472 744.058 843.635 C 756.268 846.921 768.448 850.413 780.982 852.234 C 781.771 851.789 782.561 851.344 783.35 850.899 C 815.477 866.184 846.217 884.984 877.721 901.488 C 883.659 904.599 889.579 907.551 895.156 911.283 L 742.5 901.627 C 728.188 900.701 687.404 899.43 675.313 897.387 z" fill="rgb(6,115,95)" transform="translate(0,0)"></path>
<path d="M 1597.04 712.754 L 1627.14 719.101 C 1649.88 723.868 1677.71 730.464 1700.39 732.561 C 1664.4 749.237 1628.02 764.901 1592.44 782.375 C 1588.96 784.083 1580.48 788.71 1577.09 789.467 C 1571.59 792.8 1536.04 811.695 1530.74 813.613 C 1518.37 821.206 1400.2 885.655 1391.14 886.6 C 1389.48 887.368 1386.86 888.465 1385.34 889.304 C 1374.09 894.103 1204.95 896.386 1185.01 896.598 C 1188.86 894.826 1192.83 892.923 1196.72 891.277 C 1199.8 889.039 1212.08 881.902 1215.62 880.221 C 1228.92 872.6 1242.39 865.259 1256 858.203 C 1263.79 853.755 1269.55 851.493 1277.21 846.156 C 1289.91 840.66 1300.6 835.086 1314.39 829.703 C 1330.8 823.922 1348.87 816.618 1365.26 810.373 C 1366.55 809.776 1367.74 809.139 1369.09 808.698 C 1398.43 796.325 1428.79 785.831 1457.96 772.927 C 1463.2 770.614 1469.49 767.842 1474.9 766.313 C 1478.51 764.151 1483.91 762.21 1487.93 760.533 C 1517.51 748.174 1546.91 734.611 1576.94 723.41 L 1597.04 712.754 z" fill="rgb(20,184,166)" transform="translate(0,0)"></path>
<path d="M 1369.09 808.698 C 1373.23 814.279 1378.87 818.242 1383.86 824.071 C 1391.23 832.687 1389.95 834.125 1394.29 841.902 C 1391.78 844.394 1392.29 844.74 1391.6 848.221 C 1390.63 854.882 1386.49 884.585 1383.73 888.593 C 1382.1 888.372 1380.47 888.134 1378.85 887.879 C 1338.38 891.177 1297.09 888.725 1256.52 891.093 C 1249.52 891.501 1241.13 891.962 1234.17 891.912 C 1226.49 889.28 1222.03 885.46 1215.62 880.221 C 1228.92 872.6 1242.39 865.259 1256 858.203 C 1263.79 853.755 1269.55 851.493 1277.21 846.156 C 1289.91 840.66 1300.6 835.086 1314.39 829.703 C 1330.8 823.922 1348.87 816.618 1365.26 810.373 C 1366.55 809.776 1367.74 809.139 1369.09 808.698 z" fill="url(#Gradient8)" transform="translate(0,0)"></path>
<path d="M 1369.09 808.698 C 1373.23 814.279 1378.87 818.242 1383.86 824.071 C 1391.23 832.687 1389.95 834.125 1394.29 841.902 C 1391.78 844.394 1392.29 844.74 1391.6 848.221 C 1390.63 854.882 1386.49 884.585 1383.73 888.593 C 1382.1 888.372 1380.47 888.134 1378.85 887.879 C 1367.17 879.783 1334.88 871.103 1320.6 863.687 C 1321.74 863.8 1327.07 865.161 1327.44 864.562 C 1327.3 861.541 1310.02 843.834 1314.39 829.703 C 1330.8 823.922 1348.87 816.618 1365.26 810.373 C 1366.55 809.776 1367.74 809.139 1369.09 808.698 z" fill="url(#Gradient7)" transform="translate(0,0)"></path>
<path d="M 1369.09 808.698 C 1373.23 814.279 1378.87 818.242 1383.86 824.071 C 1391.23 832.687 1389.95 834.125 1394.29 841.902 C 1391.78 844.394 1392.29 844.74 1391.6 848.221 C 1390.91 848.469 1388.39 849.517 1387.57 849.382 C 1381.9 840.727 1372.59 832.813 1367.19 823.339 C 1362.17 814.537 1358.47 818.1 1365.26 810.373 C 1366.55 809.776 1367.74 809.139 1369.09 808.698 z" fill="rgb(192,208,224)" transform="translate(0,0)"></path>
<path d="M 1277.21 846.156 C 1289.91 840.66 1300.6 835.086 1314.39 829.703 C 1310.02 843.834 1327.3 861.541 1327.44 864.562 C 1327.07 865.161 1321.74 863.8 1320.6 863.687 C 1317.3 863.336 1292.82 853.462 1288.71 851.549 C 1285.37 850.364 1280.22 847.993 1277.21 846.156 z" fill="rgb(86,86,89)" transform="translate(0,0)"></path>
<path d="M 1277.21 846.156 C 1280.22 847.993 1285.37 850.364 1288.71 851.549 L 1287.79 853.157 C 1283.34 861.134 1273.45 877.009 1263.39 864.636 C 1261.14 861.862 1258.76 861.323 1256 858.203 C 1263.79 853.755 1269.55 851.493 1277.21 846.156 z" fill="rgb(163,166,170)" transform="translate(0,0)"></path>
<path d="M 1474.9 766.313 C 1478.51 764.151 1483.91 762.21 1487.93 760.533 C 1517.51 748.174 1546.91 734.611 1576.94 723.41 C 1569.73 730.699 1505.25 772.616 1494.82 777.497 C 1461.87 798.207 1427.31 822.489 1394.29 841.902 C 1389.95 834.125 1391.23 832.687 1383.86 824.071 C 1378.87 818.242 1373.23 814.279 1369.09 808.698 C 1398.43 796.325 1428.79 785.831 1457.96 772.927 C 1463.2 770.614 1469.49 767.842 1474.9 766.313 z" fill="url(#Gradient6)" transform="translate(0,0)"></path>
<path d="M 1627.14 719.101 C 1649.88 723.868 1677.71 730.464 1700.39 732.561 C 1664.4 749.237 1628.02 764.901 1592.44 782.375 C 1588.96 784.083 1580.48 788.71 1577.09 789.467 C 1572.02 789.183 1567.89 793.056 1563.68 791.916 C 1561.09 784.464 1559.47 779.567 1555.69 772.667 L 1554.93 771.287 L 1555.63 770.813 C 1559.7 767.97 1561.01 768.001 1563.13 763.373 C 1571.72 755.529 1615.97 726.05 1627.14 719.101 z" fill="rgb(192,208,224)" transform="translate(0,0)"></path>
<path d="M 1563.13 763.373 C 1561.01 768.001 1559.7 767.97 1555.63 770.813 L 1554.93 771.287 L 1555.69 772.667 C 1559.47 779.567 1561.09 784.464 1563.68 791.916 C 1567.89 793.056 1572.02 789.183 1577.09 789.467 C 1571.59 792.8 1536.04 811.695 1530.74 813.613 C 1518.37 821.206 1400.2 885.655 1391.14 886.6 C 1395.61 882.708 1401.39 879.175 1406.24 875.683 C 1441.5 850.287 1477.63 826.028 1512.55 800.183 C 1516.7 795.284 1555.64 768.471 1563.13 763.373 z" fill="url(#Gradient5)" transform="translate(0,0)"></path>
<path d="M 1196.72 891.277 C 1199.8 889.039 1212.08 881.902 1215.62 880.221 C 1222.03 885.46 1226.49 889.28 1234.17 891.912 C 1227.43 892.078 1203.69 891.807 1196.72 891.277 z" fill="rgb(163,166,170)" transform="translate(0,0)"></path>
<path d="M 1013.52 788.72 C 1030.19 773.126 1052.1 752.088 1069.64 737.745 C 1064.39 763.856 1059.78 772.805 1051.25 797.351 C 1045.2 815.194 1039.32 833.098 1033.64 851.061 C 1030.91 859.645 1025.67 875.429 1024.02 884.092 L 1024.83 885.542 C 1038.65 875.645 1054.59 858.871 1067.67 847.394 L 1066.98 880.909 L 1115.32 950.265 C 1101.84 974.641 1088.59 999.144 1075.58 1023.77 C 1065.32 1042.2 1055.5 1060.86 1046.12 1079.75 C 1011.05 1027.26 966.99 975.227 930.363 921.693 C 925.339 915.782 923.052 914.233 928.359 908.882 C 948.472 881.48 967.679 852.98 987.797 825.564 C 995.596 814.935 1005.8 798.794 1014.05 789.371 L 1013.52 788.72 z" fill="rgb(16,185,129)" transform="translate(0,0)"></path>
<path d="M 1024.83 885.542 C 1038.65 875.645 1054.59 858.871 1067.67 847.394 L 1066.98 880.909 L 1115.32 950.265 C 1101.84 974.641 1088.59 999.144 1075.58 1023.77 C 1073.19 1018.37 1069.94 1009.19 1068.15 1003.48 C 1056.02 964.792 1036.31 924.112 1024.83 885.542 z" fill="rgb(192,208,224)" transform="translate(0,0)"></path>
<path d="M 1013.52 788.72 C 1030.19 773.126 1052.1 752.088 1069.64 737.745 C 1064.39 763.856 1059.78 772.805 1051.25 797.351 C 1045.2 815.194 1039.32 833.098 1033.64 851.061 C 1030.91 859.645 1025.67 875.429 1024.02 884.092 C 1024.2 880.143 1021.03 851.951 1020.17 845.977 C 1018.3 833.084 1017.13 800.237 1014.05 789.371 L 1013.52 788.72 z" fill="rgb(6,115,95)" transform="translate(0,0)"></path>
<path d="M 928.359 908.882 C 931.681 910.044 937.499 907.85 941.484 906.869 L 949.979 904.797 L 957.978 902.783 L 961.976 901.767 C 971.101 899.414 980.558 896.472 989.561 894.282 L 997.553 892.255 L 999.419 891.805 C 1001.66 891.244 1003.91 890.736 1006.12 890.168 L 1006.98 892.343 C 990.739 897.716 973.382 904.658 957.512 911.096 C 949.255 914.445 937.997 918.201 930.363 921.693 C 925.339 915.782 923.052 914.233 928.359 908.882 z" fill="rgb(1,105,94)" transform="translate(0,0)"></path>
<path d="M 1006.12 890.168 C 1009.2 889.306 1012.35 888.476 1015.45 887.633 L 1016.29 888.117 L 1016.33 887.525 L 1015.88 887.614 L 1016.98 887.585 C 1017.25 887.774 1017.15 887.645 1017.29 887.982 C 1017.07 889.623 1008.78 891.649 1006.98 892.343 L 1006.12 890.168 z" fill="rgb(6,115,95)" transform="translate(0,0)"></path>
<path d="M 988.517 1897.5 C 994.909 1819.53 1000.88 1741.52 1006.42 1663.49 L 1019.26 1503.42 C 1021.7 1467.62 1023.94 1431.8 1025.99 1395.98 C 1027.01 1378.8 1027.96 1358.6 1029.79 1341.6 C 1030.63 1333.76 1040.58 1311.85 1044.14 1303.7 L 1074.97 1577.61 C 1079.18 1616.15 1082.05 1655.69 1087.35 1694.04 C 1087.74 1699.45 1088.11 1702.88 1089.03 1708.32 C 1086.07 1716.34 1068.07 1747.83 1063.03 1757.49 C 1038.72 1804.43 1013.88 1851.11 988.517 1897.5 z" fill="rgb(192,208,224)" transform="translate(0,0)"></path>
<path d="M 836.03 968.672 C 855.007 958.92 882.018 944.221 899.786 932.732 C 923.459 972.789 951.816 1009.97 977.35 1048.85 C 985.911 1061.89 994.843 1075 1003.94 1087.66 C 1009.75 1094.83 1017.73 1107.85 1023.45 1116.03 C 1012.76 1137.51 1001.21 1168.38 991.964 1191.23 L 932.381 1339.19 C 931.73 1342.25 929.73 1347.44 928.585 1350.45 C 928.888 1347.41 929.865 1333.06 930.752 1331.26 C 930.974 1308.47 945.562 1212.95 941.567 1201.85 L 836.03 968.672 z" fill="rgb(16,185,129)" transform="translate(0,0)"></path>
<path d="M 1003.94 1087.66 C 1009.75 1094.83 1017.73 1107.85 1023.45 1116.03 C 1012.76 1137.51 1001.21 1168.38 991.964 1191.23 L 932.381 1339.19 C 931.73 1342.25 929.73 1347.44 928.585 1350.45 C 928.888 1347.41 929.865 1333.06 930.752 1331.26 C 930.974 1308.47 945.562 1212.95 941.567 1201.85 C 943.734 1197.39 935.377 1129.4 934.005 1120.93 C 957.408 1110.03 980.72 1098.94 1003.94 1087.66 z" fill="rgb(6,115,95)" transform="translate(0,0)"></path>
<path d="M 928.585 1350.45 C 928.888 1347.41 929.865 1333.06 930.752 1331.26 C 931.556 1335.96 929.454 1335.1 932.381 1339.19 C 931.73 1342.25 929.73 1347.44 928.585 1350.45 z" fill="rgb(1,105,94)" transform="translate(0,0)"></path>
<path d="M 1132.11 941.298 C 1139.19 944.823 1151.8 950.721 1158.16 954.888 C 1177.68 966.292 1199.22 978.048 1218.3 989.67 C 1199.89 1022.78 1176.62 1057.46 1157.14 1090.42 C 1149.82 1102.8 1127.23 1141.34 1119.59 1150.9 C 1116.51 1158.03 1097.37 1186.87 1091.7 1195.88 C 1089.85 1199.61 1085.91 1204.53 1083.24 1207.81 C 1079.58 1213.91 1075.38 1219.46 1071.2 1225.22 C 1066.73 1232.13 1049.59 1258.37 1044.68 1263.85 C 1040.15 1271.14 1024.24 1293.55 1018.61 1299.3 C 1019.64 1292.13 1021.04 1284.81 1022.06 1277.58 C 1024.15 1262.36 1027.15 1246.49 1028.95 1231.56 L 1028.11 1231.55 C 1027.45 1236.02 1027.01 1238.9 1025.83 1243.24 C 1019.52 1244.36 1012.97 1244.35 1006.54 1244.57 L 1012.62 1230.61 L 1011.55 1229.16 C 1014.64 1220.68 1022.43 1203.18 1026.64 1195.37 C 1033.55 1177.46 1042.55 1158.06 1050.23 1140.46 C 1065.13 1105.52 1080.47 1070.78 1096.27 1036.24 C 1105.09 1006.43 1121.25 970.843 1132.11 941.298 z" fill="url(#Gradient4)" transform="translate(0,0)"></path>
<path d="M 1132.11 941.298 C 1139.19 944.823 1151.8 950.721 1158.16 954.888 C 1140.79 977.24 1125.64 1002.34 1106.89 1023.93 C 1102.78 1028.67 1101.19 1031.71 1096.27 1036.24 C 1105.09 1006.43 1121.25 970.843 1132.11 941.298 z" fill="rgb(86,86,89)" transform="translate(0,0)"></path>
<path d="M 1083.24 1207.81 C 1079.54 1203 1088.71 1201.38 1086.36 1199.57 C 1070.96 1187.65 1031.81 1194.76 1058.71 1165.33 C 1065.29 1158.12 1084.26 1166.55 1089.75 1165.06 C 1090.79 1163.82 1089.25 1150.65 1090.32 1149.61 C 1090.71 1150.17 1091.15 1154.18 1091.27 1154.94 C 1090.73 1161.53 1090.59 1190.06 1091.7 1195.88 C 1089.85 1199.61 1085.91 1204.53 1083.24 1207.81 z" fill="rgb(192,208,224)" transform="translate(0,0)"></path>
<path d="M 1091.27 1154.94 C 1093.38 1134.8 1092.14 1107.02 1093.05 1086.49 C 1093.34 1080.03 1091.25 1061.64 1092.55 1057.14 C 1099.76 1072.38 1096.3 1165.99 1104.88 1170.11 C 1110.27 1166.19 1113.17 1153.38 1119.59 1150.9 C 1116.51 1158.03 1097.37 1186.87 1091.7 1195.88 C 1090.59 1190.06 1090.73 1161.53 1091.27 1154.94 z" fill="rgb(121,124,134)" transform="translate(0,0)"></path>
<path d="M 1022.06 1277.58 C 1028.22 1293.77 1035.3 1268.6 1044.68 1263.85 C 1040.15 1271.14 1024.24 1293.55 1018.61 1299.3 C 1019.64 1292.13 1021.04 1284.81 1022.06 1277.58 z" fill="rgb(86,86,89)" transform="translate(0,0)"></path>
<path d="M 1126.24 915.697 C 1143.63 916.596 1161.62 918.78 1178.88 920.884 C 1193.95 922.524 1227.13 925.28 1240.52 928.229 C 1255.82 928.982 1290.67 935.523 1307.4 938.235 C 1351.18 945.547 1395 952.605 1438.86 959.407 L 1444.99 960.129 C 1448.3 972.321 1470.57 1053.6 1468.09 1060.72 C 1413.51 1042.15 1358.74 1023.96 1304.22 1005.3 C 1287.91 999.712 1263.96 992.137 1248.71 985.706 C 1242.45 983.364 1215.38 967.607 1209.29 963.602 C 1204.41 961.848 1184.33 949.061 1179.26 945.643 C 1161.61 935.997 1143.94 925.529 1126.24 915.697 z" fill="rgb(20,184,166)" transform="translate(0,0)"></path>
<path d="M 1126.24 915.697 C 1143.63 916.596 1161.62 918.78 1178.88 920.884 C 1193.95 922.524 1227.13 925.28 1240.52 928.229 C 1255.82 928.982 1290.67 935.523 1307.4 938.235 C 1351.18 945.547 1395 952.605 1438.86 959.407 C 1428.31 964.64 1310.17 976.725 1291.02 979.607 C 1282.31 980.917 1257.86 982.221 1248.71 985.706 C 1242.45 983.364 1215.38 967.607 1209.29 963.602 C 1204.41 961.848 1184.33 949.061 1179.26 945.643 C 1161.61 935.997 1143.94 925.529 1126.24 915.697 z" fill="url(#Gradient3)" transform="translate(0,0)"></path>
<path d="M 1686.9 770.624 C 1690.09 768.85 1690.29 768.087 1693.88 767.582 L 1695.69 767.296 C 1680.35 788.577 1663.64 810.371 1647.43 831.049 C 1589.85 904.488 1535.92 982.464 1477.86 1055.36 L 1476.79 1056.66 C 1474.15 1060.61 1475.28 1060.17 1471.56 1061.79 L 1468.09 1060.72 C 1470.57 1053.6 1448.3 972.321 1444.99 960.129 L 1446.18 959.393 C 1526.96 896.953 1606.89 833.419 1685.94 768.81 L 1686.9 770.624 z" fill="rgb(20,184,166)" transform="translate(0,0)"></path>
<path d="M 1686.9 770.624 C 1690.09 768.85 1690.29 768.087 1693.88 767.582 L 1695.69 767.296 C 1680.35 788.577 1663.64 810.371 1647.43 831.049 C 1589.85 904.488 1535.92 982.464 1477.86 1055.36 C 1476.55 1047.94 1500.66 1008.83 1505.63 999.395 C 1520.86 969.894 1536.25 940.477 1551.8 911.145 C 1555.42 904.349 1567.77 880.435 1571.29 875.38 C 1576.09 868.464 1601.02 847.328 1608.9 840.282 L 1686.9 770.624 z" fill="rgb(163,166,170)" transform="translate(0,0)"></path>
<path d="M 1444.99 960.129 L 1446.18 959.393 C 1451.32 964.945 1481.59 984.24 1489.05 989.085 C 1485.53 1003.23 1473.84 1044.78 1476.79 1056.66 C 1474.15 1060.61 1475.28 1060.17 1471.56 1061.79 L 1468.09 1060.72 C 1470.57 1053.6 1448.3 972.321 1444.99 960.129 z" fill="rgb(5,121,157)" transform="translate(0,0)"></path>
<path d="M 754.681 685.607 L 905.166 886.652 L 751.393 802.729 C 728.698 790.419 690.776 771.738 670.539 758.407 C 682.695 745.419 700.93 731.036 714.469 719.432 C 727.413 708.339 741.188 695.746 754.681 685.607 z" fill="rgb(6,115,95)" transform="translate(0,0)"></path>
<path d="M 698.657 1041.37 C 712.865 1054.57 738.614 1070.62 754.841 1083.46 C 788.566 1108 822.749 1134.86 856.472 1160.09 C 870.65 1170.72 884.774 1181.42 898.844 1192.2 C 906.125 1197.76 918.463 1206.65 924.429 1212.98 C 911.168 1209.37 893.991 1201.94 881.033 1196.6 L 814.67 1168.88 C 762.329 1147.15 705.784 1125.68 654.054 1103.32 C 648.991 1102.14 604.853 1082.78 597.7 1079.73 C 621.588 1068.09 671.813 1051.16 698.657 1041.37 z" fill="rgb(16,185,129)" transform="translate(0,0)"></path>
<path d="M 698.657 1041.37 C 712.865 1054.57 738.614 1070.62 754.841 1083.46 C 739.756 1086.78 659.828 1097.59 654.054 1103.32 C 648.991 1102.14 604.853 1082.78 597.7 1079.73 C 621.588 1068.09 671.813 1051.16 698.657 1041.37 z" fill="rgb(6,115,95)" transform="translate(0,0)"></path>
<path d="M 1346.47 1048.6 C 1367.84 1057 1391.07 1063.9 1412.74 1071.73 C 1422.64 1075.31 1432.95 1078.07 1442.62 1082.28 C 1442.83 1082.32 1444.73 1082.76 1443.9 1083.25 C 1433.87 1089.12 1415.15 1095.74 1404.67 1099.6 C 1392.78 1104.83 1377.56 1110.11 1365.2 1114.85 C 1343.56 1123.18 1321.99 1131.72 1300.52 1140.47 C 1266.08 1154.74 1231.49 1168.67 1196.77 1182.24 C 1176.16 1190.52 1152.85 1200.74 1131.99 1207.71 C 1125.39 1210.85 1117.34 1213.84 1110.43 1216.58 C 1114.62 1213.2 1123.96 1207.04 1128.67 1204.46 C 1141.76 1192.98 1174.47 1172.12 1189.74 1160.87 C 1240.91 1123.19 1295.95 1087.1 1346.47 1048.6 z" fill="rgb(20,184,166)" transform="translate(0,0)"></path>
<path d="M 1131.51 1206.88 C 1137.36 1202.25 1173.6 1184.12 1181.24 1180.22 C 1223.03 1158.96 1264.97 1137.97 1307.04 1117.25 C 1325.87 1107.93 1345.59 1097.36 1364.63 1088.74 C 1370.42 1086.12 1391.54 1085.78 1398.46 1086.1 C 1410.62 1088.88 1417.96 1081.99 1417.45 1092.73 C 1416.3 1093.85 1402.69 1098.52 1402.73 1098.47 C 1403 1098.92 1403.65 1099.09 1404.67 1099.6 C 1392.78 1104.83 1377.56 1110.11 1365.2 1114.85 C 1343.56 1123.18 1321.99 1131.72 1300.52 1140.47 C 1266.08 1154.74 1231.49 1168.67 1196.77 1182.24 C 1176.16 1190.52 1152.85 1200.74 1131.99 1207.71 L 1131.51 1206.88 z" fill="url(#Gradient2)" transform="translate(0,0)"></path>
<path d="M 1442.62 1082.28 C 1442.83 1082.32 1444.73 1082.76 1443.9 1083.25 C 1433.87 1089.12 1415.15 1095.74 1404.67 1099.6 C 1403.65 1099.09 1403 1098.92 1402.73 1098.47 C 1402.69 1098.52 1416.3 1093.85 1417.45 1092.73 C 1417.96 1081.99 1410.62 1088.88 1398.46 1086.1 C 1411.49 1085.23 1430.65 1084.97 1442.62 1082.28 z" fill="rgb(192,208,224)" transform="translate(0,0)"></path>
<path d="M 1095.16 1273.35 C 1094.8 1265.29 1095.02 1257.14 1095 1249.09 C 1095.44 1245.7 1094.24 1240.06 1095.49 1236.91 C 1096.24 1235 1097.61 1241.49 1097.49 1240.94 C 1104.63 1265.31 1112.12 1289.57 1119.98 1313.72 C 1123.07 1323.44 1128.79 1339.54 1131.15 1348.8 L 1187.39 1524.92 C 1180.01 1522.91 1170.25 1517.46 1163.06 1514.62 C 1142.57 1506.54 1111.86 1490.27 1091.91 1484.37 L 1092.79 1473.3 C 1091.86 1460.18 1093.12 1426.76 1093.27 1412.29 L 1095.16 1273.35 z" fill="rgb(16,185,129)" transform="translate(0,0)"></path>
<path d="M 1095.16 1273.35 C 1094.8 1265.29 1095.02 1257.14 1095 1249.09 C 1095.44 1245.7 1094.24 1240.06 1095.49 1236.91 C 1096.24 1235 1097.61 1241.49 1097.49 1240.94 C 1094.63 1246.11 1096.4 1264.21 1095.16 1273.35 z" fill="rgb(30,81,91)" transform="translate(0,0)"></path>
<path d="M 1091.91 1484.37 C 1111.86 1490.27 1142.57 1506.54 1163.06 1514.62 C 1170.25 1517.46 1180.01 1522.91 1187.39 1524.92 C 1164.85 1568.74 1141.74 1612.25 1118.04 1655.46 C 1112.47 1665.67 1094.12 1701.03 1089.03 1708.32 C 1088.11 1702.88 1087.74 1699.45 1087.35 1694.04 C 1090.02 1690.09 1089.04 1636.11 1089.2 1627.06 L 1091.91 1484.37 z" fill="rgb(6,115,95)" transform="translate(0,0)"></path>
<path d="M 473.557 619.249 C 483.36 639.998 491.807 661.572 501.584 682.445 C 464.16 689.41 426.684 696.102 389.161 702.518 C 371.779 705.536 352.347 709.524 335.124 711.859 C 347.178 698.41 358.911 681.74 369.591 667.013 C 375.42 658.975 385.287 647.359 390.301 639.728 C 415.633 634.494 448.694 626.521 473.557 619.249 z" fill="rgb(6,115,95)" transform="translate(0,0)"></path>
<path d="M 869.928 736.11 C 887.927 736.054 1063.44 734.373 1069.64 737.745 C 1052.1 752.088 1030.19 773.126 1013.52 788.72 C 1009.83 786.552 987.285 779.472 981.583 777.604 C 958.852 770.125 936.051 762.861 913.182 755.813 C 900.513 751.92 882.684 747.051 870.646 742.391 C 864.91 741.066 856.782 738.13 850.982 736.216 C 857.075 735.944 863.782 736.09 869.928 736.11 z" fill="rgb(16,185,129)" transform="translate(0,0)"></path>
<path d="M 1011.55 1229.16 L 1012.62 1230.61 L 1006.54 1244.57 C 1012.97 1244.35 1019.52 1244.36 1025.83 1243.24 C 1027.01 1238.9 1027.45 1236.02 1028.11 1231.55 L 1028.95 1231.56 C 1027.15 1246.49 1024.15 1262.36 1022.06 1277.58 C 1021.04 1284.81 1019.64 1292.13 1018.61 1299.3 C 1016.62 1303.47 1007.63 1315.34 1004.44 1319.71 C 990.36 1338.75 976.142 1357.68 961.791 1376.52 C 950.683 1391.36 939.688 1406.28 928.806 1421.29 C 922.901 1429.39 915.327 1440.46 908.854 1447.84 C 928.253 1404.39 952.111 1359.79 972.175 1316.38 C 985.574 1287.39 997.762 1257.94 1011.55 1229.16 z" fill="rgb(192,208,224)" transform="translate(0,0)"></path>
<path d="M 1063.32 785.913 C 1065.09 781.189 1067.47 774.259 1069.48 769.847 C 1076.04 776.961 1087.87 790.271 1095.05 795.562 C 1100.8 792.009 1106.72 788.235 1112.52 784.816 C 1132.23 791.235 1156.48 799.785 1176.14 805.318 C 1151.28 809.662 1121.48 809.02 1096.29 812.807 L 1095.4 813.802 C 1087.78 811.981 1080.52 807.148 1077.5 800.055 C 1073.53 790.715 1065.35 794.449 1063.8 787.463 L 1063.32 785.913 z" fill="rgb(192,208,224)" transform="translate(0,0)"></path>
<path d="M 1063.32 785.913 L 1063.8 787.463 C 1065.35 794.449 1073.53 790.715 1077.5 800.055 C 1080.52 807.148 1087.78 811.981 1095.4 813.802 C 1086.87 820.864 1075.78 831.065 1067.75 837.375 C 1055.54 849.614 1046.82 858.086 1035.58 871.587 C 1039.61 858.752 1043.75 843.685 1048.31 831.218 C 1051.78 818.316 1058.71 798.814 1063.32 785.913 z" fill="url(#Gradient1)" transform="translate(0,0)"></path>
<path d="M 1073.18 737.41 C 1083.01 743.387 1149.63 787.788 1154.07 793.432 L 1153.88 793.746 C 1153.03 793.873 1152.31 793.613 1151.52 793.352 L 1150.25 792.973 C 1122.35 782.09 1093.23 773.139 1065.37 761.852 C 1069.48 751.412 1070.88 748.345 1073.18 737.41 z" fill="rgb(192,208,224)" transform="translate(0,0)"></path>
<path d="M 1488.63 658.62 C 1499.03 655.947 1509.64 662.178 1512.37 672.564 C 1515.1 682.951 1508.92 693.592 1498.55 696.378 C 1488.1 699.186 1477.36 692.955 1474.61 682.488 C 1471.86 672.021 1478.15 661.313 1488.63 658.62 z" fill="rgb(27,169,230)" transform="translate(0,0)"></path>
<path d="M 1533.17 605.158 C 1542.38 604.615 1548.93 605.775 1554 614.506 C 1556.66 619.029 1557.38 624.439 1555.98 629.498 C 1554.25 635.678 1550.52 639.818 1544.77 642.559 L 1543.12 643.383 C 1539.98 643.958 1537.2 644.433 1534.01 643.797 C 1529.38 642.868 1525.31 640.107 1522.74 636.139 C 1516.36 626.323 1519.99 612.335 1530.38 606.668 L 1533.17 605.158 z" fill="rgb(27,169,230)" transform="translate(0,0)"></path>
<path d="M 1225.26 1058.5 C 1235.14 1055.65 1245.46 1061.36 1248.3 1071.24 C 1251.13 1081.13 1245.4 1091.44 1235.5 1094.25 C 1225.64 1097.05 1215.37 1091.34 1212.55 1081.49 C 1209.73 1071.63 1215.41 1061.35 1225.26 1058.5 z" fill="rgb(20,184,166)" transform="translate(0,0)"></path>
<path d="M 1567.59 543.556 C 1577.02 541.424 1586.4 547.319 1588.57 556.741 C 1590.73 566.163 1584.87 575.564 1575.46 577.767 C 1566 579.982 1556.53 574.084 1554.35 564.611 C 1552.18 555.139 1558.11 545.699 1567.59 543.556 z" fill="rgb(27,169,230)" transform="translate(0,0)"></path>
<path d="M 1437.95 706.623 C 1446.55 704.926 1454.91 710.462 1456.7 719.037 C 1458.49 727.611 1453.05 736.031 1444.49 737.918 C 1438.87 739.157 1433.02 737.281 1429.17 733.007 C 1425.32 728.732 1424.07 722.718 1425.88 717.259 C 1427.7 711.8 1432.31 707.738 1437.95 706.623 z" fill="rgb(27,169,230)" transform="translate(0,0)"></path>
<path d="M 1179.23 1105.6 C 1187.68 1103.03 1196.6 1107.8 1199.17 1116.25 C 1201.73 1124.7 1196.95 1133.62 1188.51 1136.18 C 1180.06 1138.74 1171.14 1133.97 1168.58 1125.53 C 1166.02 1117.08 1170.79 1108.16 1179.23 1105.6 z" fill="rgb(27,169,230)" transform="translate(0,0)"></path>
<path d="M 1271.18 1027.46 C 1276.01 1026.08 1281.22 1027.4 1284.81 1030.91 C 1288.4 1034.43 1289.83 1039.61 1288.55 1044.47 C 1287.26 1049.33 1283.47 1053.13 1278.61 1054.42 C 1271.2 1056.38 1263.59 1052.01 1261.55 1044.62 C 1259.51 1037.23 1263.81 1029.58 1271.18 1027.46 z" fill="rgb(27,169,230)" transform="translate(0,0)"></path>
<path d="M 1458.33 888.133 C 1463.22 886.548 1468.48 889.155 1470.17 894.004 C 1471.86 898.853 1469.38 904.167 1464.57 905.97 C 1461.36 907.172 1457.75 906.544 1455.14 904.327 C 1452.52 902.111 1451.32 898.653 1451.98 895.292 C 1452.64 891.93 1455.07 889.191 1458.33 888.133 z" fill="rgb(27,169,230)" transform="translate(0,0)"></path>
<path d="M 1431.53 902.668 C 1436.19 901.06 1441.27 903.533 1442.88 908.191 C 1444.49 912.85 1442.02 917.932 1437.36 919.543 C 1432.7 921.155 1427.61 918.683 1426 914.022 C 1424.39 909.361 1426.87 904.277 1431.53 902.668 z" fill="rgb(27,169,230)" transform="translate(0,0)"></path>
<path d="M 1685.94 768.81 C 1694.75 761.414 1703.15 753.074 1711.76 745.955 L 1708.44 750.274 C 1705.54 753.972 1698.17 764.765 1695.69 767.296 L 1693.88 767.582 C 1690.29 768.087 1690.09 768.85 1686.9 770.624 L 1685.94 768.81 z" fill="rgb(82,149,166)" transform="translate(0,0)"></path>
<path d="M 1479.74 880.609 C 1481.86 879.361 1484.59 880.016 1485.92 882.092 C 1487.25 884.167 1486.69 886.92 1484.67 888.324 C 1483.29 889.28 1481.5 889.406 1480 888.652 C 1478.5 887.899 1477.53 886.385 1477.48 884.708 C 1477.43 883.031 1478.29 881.458 1479.74 880.609 z" fill="rgb(27,169,230)" transform="translate(0,0)"></path>
<metadata><recraft-signature>{"signed_by": "recraft", "signature_b64": "7b9WoEyU1HrnXyb1+Y+Z4d35fZedAshmlgjfEOGxRKJEnjFiMf0sxEp31oUWguc8H46k836T8ar5zOvZAkFvBA==", "signing_algo": "Ed25519", "generation_timestamp": 1774688405, "identifier": "9e31f112-12de-4cb5-86d7-2e295354b3f5"}</recraft-signature></metadata></svg>