<svg xmlns="http://www.w3.org/2000/svg" height="1024" preserveAspectRatio="none" style="display: block;" version="1.1" viewBox="0 0 2048 2048" width="1024">
<defs>
	<linearGradient gradientUnits="userSpaceOnUse" id="Gradient1" x1="1357.78" x2="1325.7" y1="1438.59" y2="1451.13">
		<stop class="stop0" offset="0" stop-color="rgb(119,131,146)" stop-opacity="1"></stop>
		<stop class="stop1" offset="1" stop-color="rgb(175,179,189)" stop-opacity="1"></stop>
	</linearGradient>
	<linearGradient gradientUnits="userSpaceOnUse" id="Gradient2" x1="1720.17" x2="1723.58" y1="915.183" y2="877.593">
		<stop class="stop0" offset="0" stop-color="rgb(110,137,151)" stop-opacity="1"></stop>
		<stop class="stop1" offset="1" stop-color="rgb(164,177,186)" stop-opacity="1"></stop>
	</linearGradient>
	<linearGradient gradientUnits="userSpaceOnUse" id="Gradient3" x1="1348.77" x2="1311.56" y1="1387.86" y2="1391.79">
		<stop class="stop0" offset="0" stop-color="rgb(120,130,139)" stop-opacity="1"></stop>
		<stop class="stop1" offset="1" stop-color="rgb(160,163,171)" stop-opacity="1"></stop>
	</linearGradient>
	<linearGradient gradientUnits="userSpaceOnUse" id="Gradient4" x1="1742.72" x2="1754.12" y1="877.785" y2="849.122">
		<stop class="stop0" offset="0" stop-color="rgb(136,146,161)" stop-opacity="1"></stop>
		<stop class="stop1" offset="1" stop-color="rgb(183,188,195)" stop-opacity="1"></stop>
	</linearGradient>
	<linearGradient gradientUnits="userSpaceOnUse" id="Gradient5" x1="1780.08" x2="1701.52" y1="839.138" y2="890.391">
		<stop class="stop0" offset="0" stop-color="rgb(194,198,204)" stop-opacity="1"></stop>
		<stop class="stop1" offset="1" stop-color="rgb(255,255,255)" stop-opacity="1"></stop>
	</linearGradient>
	<linearGradient gradientUnits="userSpaceOnUse" id="Gradient6" x1="1155.01" x2="1154.93" y1="1336.06" y2="1308.97">
		<stop class="stop0" offset="0" stop-color="rgb(137,143,155)" stop-opacity="1"></stop>
		<stop class="stop1" offset="1" stop-color="rgb(189,193,200)" stop-opacity="1"></stop>
	</linearGradient>
	<linearGradient gradientUnits="userSpaceOnUse" id="Gradient7" x1="1070.03" x2="1018.09" y1="1335.04" y2="1409.44">
		<stop class="stop0" offset="0" stop-color="rgb(150,157,168)" stop-opacity="1"></stop>
		<stop class="stop1" offset="1" stop-color="rgb(244,245,248)" stop-opacity="1"></stop>
	</linearGradient>
	<linearGradient gradientUnits="userSpaceOnUse" id="Gradient8" x1="1043.1" x2="1003.9" y1="1482.94" y2="1424.08">
		<stop class="stop0" offset="0" stop-color="rgb(114,124,140)" stop-opacity="1"></stop>
		<stop class="stop1" offset="1" stop-color="rgb(193,195,200)" stop-opacity="1"></stop>
	</linearGradient>
	<linearGradient gradientUnits="userSpaceOnUse" id="Gradient9" x1="933.673" x2="978.466" y1="1526.37" y2="1560.37">
		<stop class="stop0" offset="0" stop-color="rgb(113,124,138)" stop-opacity="1"></stop>
		<stop class="stop1" offset="1" stop-color="rgb(168,175,184)" stop-opacity="1"></stop>
	</linearGradient>
	<linearGradient gradientUnits="userSpaceOnUse" id="Gradient10" x1="1509.37" x2="1520.75" y1="989.26" y2="952.752">
		<stop class="stop0" offset="0" stop-color="rgb(165,171,178)" stop-opacity="1"></stop>
		<stop class="stop1" offset="1" stop-color="rgb(216,216,217)" stop-opacity="1"></stop>
	</linearGradient>
	<linearGradient gradientUnits="userSpaceOnUse" id="Gradient11" x1="1178.7" x2="956.061" y1="945.879" y2="1016.2">
		<stop class="stop0" offset="0" stop-color="rgb(2,126,84)" stop-opacity="1"></stop>
		<stop class="stop1" offset="1" stop-color="rgb(9,209,176)" stop-opacity="1"></stop>
	</linearGradient>
	<linearGradient gradientUnits="userSpaceOnUse" id="Gradient12" x1="1556.81" x2="1464.98" y1="888.807" y2="715.092">
		<stop class="stop0" offset="0" stop-color="rgb(11,173,141)" stop-opacity="1"></stop>
		<stop class="stop1" offset="1" stop-color="rgb(5,209,177)" stop-opacity="1"></stop>
	</linearGradient>
	<linearGradient gradientUnits="userSpaceOnUse" id="Gradient13" x1="1147.67" x2="1048.3" y1="862.34" y2="916.393">
		<stop class="stop0" offset="0" stop-color="rgb(0,91,46)" stop-opacity="1"></stop>
		<stop class="stop1" offset="1" stop-color="rgb(4,163,126)" stop-opacity="1"></stop>
	</linearGradient>
	<linearGradient gradientUnits="userSpaceOnUse" id="Gradient14" x1="1074.35" x2="1444.81" y1="1186.14" y2="1037.36">
		<stop class="stop0" offset="0" stop-color="rgb(111,125,139)" stop-opacity="1"></stop>
		<stop class="stop1" offset="1" stop-color="rgb(188,191,196)" stop-opacity="1"></stop>
	</linearGradient>
	<linearGradient gradientUnits="userSpaceOnUse" id="Gradient15" x1="692.191" x2="611.587" y1="646.631" y2="806.226">
		<stop class="stop0" offset="0" stop-color="rgb(4,190,158)" stop-opacity="1"></stop>
		<stop class="stop1" offset="1" stop-color="rgb(11,239,213)" stop-opacity="1"></stop>
	</linearGradient>
	<linearGradient gradientUnits="userSpaceOnUse" id="Gradient16" x1="932.049" x2="221.509" y1="778.451" y2="391.46">
		<stop class="stop0" offset="0" stop-color="rgb(3,154,114)" stop-opacity="1"></stop>
		<stop class="stop1" offset="1" stop-color="rgb(9,226,197)" stop-opacity="1"></stop>
	</linearGradient>
</defs>
<path d="M 0 0 L 2048 0 L 2048 2048 L 0 2048 L 0 0 z" fill="rgb(8,12,20)" transform="translate(0,0)"></path>
<path d="M 239.719 349.761 C 320.255 382.976 402.52 411.674 482.963 444.888 C 496.397 450.435 528.285 474.403 542.131 483.556 C 584.823 511.555 627.349 539.807 669.705 568.312 C 756.579 626.186 844.42 682.417 931.579 739.845 C 937.377 743.665 943.093 747.501 948.793 751.465 L 944.345 753.486 C 926.949 746.656 899.595 738.613 881.554 732.893 L 764.174 696.268 C 690.136 673.471 616.974 648.653 543.211 625.696 L 460.478 600.013 C 410.906 584.77 415.171 590.131 377.285 552.408 C 315.986 491.373 273.559 429.099 239.719 349.761 z" fill="url(#Gradient16)" transform="translate(0,0)"></path>
<path d="M 345.74 584.839 C 390.668 601.656 435.559 614.769 481.004 629.647 L 779.238 725.366 C 821.016 738.717 875.563 754.734 915.645 769.699 C 931.143 773.535 950.189 780.664 965.624 785.779 C 994.078 795.207 1022.92 805.395 1051.72 813.718 L 1048 815.399 C 1034.44 813.79 1016.15 813.549 1002.17 812.863 L 927.22 808.839 C 915.648 808.202 898.885 807.723 887.758 806.077 C 813.518 802.57 739.298 798.653 665.1 794.326 C 641.44 792.869 590.422 792.936 569.893 785.511 C 554.276 779.863 538.828 772.083 524.119 764.385 C 447.983 724.54 382.489 663.291 345.74 584.839 z" fill="url(#Gradient15)" transform="translate(0,0)"></path>
<path d="M 915.645 769.699 C 931.143 773.535 950.189 780.664 965.624 785.779 C 994.078 795.207 1022.92 805.395 1051.72 813.718 L 1048 815.399 C 1034.44 813.79 1016.15 813.549 1002.17 812.863 L 927.22 808.839 C 915.648 808.202 898.885 807.723 887.758 806.077 C 909.473 803.128 952.996 809.875 976.485 809.748 C 980.039 809.729 980.368 809.92 982.232 807.949 C 982.868 805.778 985.414 795.698 982.362 793.917 C 969.655 786.497 924.658 778.098 915.645 769.699 z" fill="rgb(16,185,129)" transform="translate(0,0)"></path>
<path d="M 488.214 796.324 C 485.477 794.246 484.801 794.124 483.404 790.984 L 484.774 790.324 L 488.202 791.623 C 508.368 796.513 534.135 804.962 553.838 807.983 C 567.916 810.142 591.779 810.927 606.711 811.806 L 698.164 817.125 C 713.826 818.033 732.271 818.612 747.515 820.224 C 758.384 820.014 772.297 821.162 783.354 822.123 C 815.107 824.88 848.153 824.935 879.753 827.903 C 915.764 828.132 956.216 832.853 992.585 834.384 C 1014.58 835.309 1042.58 836.699 1064.07 839.512 C 1070.42 840.344 1097.24 856.612 1104.25 860.78 C 1082.86 863.456 1062.55 867.006 1041.36 870.584 C 1031.23 872.294 1014.46 875.662 1004.75 876.135 C 941.19 888.351 865.773 897.907 801.027 907.423 C 780.859 910.49 760.663 913.373 740.442 916.074 C 735.959 916.672 721.034 918.952 717.266 918.743 C 703.385 922.303 686.787 914.361 673.217 910.148 C 618.031 893.016 566.226 864.289 522.216 826.882 C 510.872 817.241 498.157 807.422 488.214 796.324 z" fill="rgb(20,184,166)" transform="translate(0,0)"></path>
<path d="M 879.753 827.903 C 915.764 828.132 956.216 832.853 992.585 834.384 C 1014.58 835.309 1042.58 836.699 1064.07 839.512 C 1070.42 840.344 1097.24 856.612 1104.25 860.78 C 1082.86 863.456 1062.55 867.006 1041.36 870.584 C 1031.23 872.294 1014.46 875.662 1004.75 876.135 C 1005.41 875.529 1006.06 874.923 1006.72 874.317 C 1024.97 871.465 1046.14 867.681 1064.16 864.58 C 1077.47 862.29 1080.39 863.04 1092.53 860.206 C 1095.17 859.59 1095.16 859.548 1097.42 859.408 C 1093.27 856.291 1065.16 841.228 1061.5 840.753 C 1047.5 838.935 1026.27 838.278 1011.84 837.528 L 918.037 831.944 C 908.469 831.389 887.581 831.231 879.753 827.903 z" fill="rgb(1,129,86)" transform="translate(0,0)"></path>
<path d="M 1130.58 822.783 L 1130.49 821.163 C 1127.04 815.769 1118.18 814.113 1117.15 808.158 C 1122.17 790.64 1137.3 781.39 1149.91 770.484 C 1168.94 754.024 1175.11 776.225 1191.27 775.394 C 1196.3 776.76 1211.84 784.364 1217.75 787.096 L 1271.37 811.986 C 1296.5 823.707 1321.49 834.553 1346.75 845.901 C 1381.33 861.434 1416.78 878.859 1451.82 893.136 C 1366.2 934.044 1328.92 954.283 1278.64 1039.49 C 1274.04 1014.64 1271 997.8 1261.15 973.927 C 1258.23 966.837 1248.08 948.421 1246.45 943.532 C 1238.92 931.889 1234.14 923.212 1225.22 911.865 C 1219.13 904.109 1211.76 896.729 1206.22 889.537 C 1203.67 887.869 1191.91 876.244 1189.34 873.461 C 1172.14 854.83 1148.33 839.864 1130.58 822.783 z" fill="rgb(16,185,129)" transform="translate(0,0)"></path>
<path d="M 1206.22 889.537 C 1209.8 889.944 1211.25 892.437 1213.74 895.244 C 1216.88 898.776 1222.04 891.079 1226.99 892.553 C 1228.02 892.859 1229.37 891.946 1228.47 891.142 C 1227.18 891.258 1218.36 892.871 1218.18 891.044 C 1220.22 887.067 1228.2 888.167 1231.46 887.414 C 1231.27 886.833 1230.63 886.485 1230.28 885.97 L 1230.53 885.58 C 1234.04 885.241 1233.13 889.023 1237.11 887.114 C 1241.73 884.903 1240.44 884.697 1245.47 883.408 C 1254.35 881.131 1267.42 879.119 1276.17 878.07 C 1273.96 881.894 1270.68 889.868 1265.41 890.012 C 1258.04 890.213 1274.19 882.616 1272.87 880.434 C 1272.29 879.475 1269.41 880.597 1268.77 881.158 C 1263.42 883.443 1256.75 884.652 1251.68 887.414 C 1252.32 887.611 1257.34 887.183 1255.73 889.863 C 1252.86 894.647 1246.99 897.725 1242.04 899.902 C 1238.13 901.617 1233.39 903.823 1231.32 907.646 C 1230.24 909.653 1229.09 910.056 1228.48 912.584 C 1229.88 917.273 1249.25 938.781 1246.45 943.532 C 1238.92 931.889 1234.14 923.212 1225.22 911.865 C 1219.13 904.109 1211.76 896.729 1206.22 889.537 z" fill="rgb(20,184,166)" transform="translate(0,0)"></path>
<path d="M 1391.51 976.735 C 1402 967.362 1422.78 956.969 1435.79 950.306 C 1434.48 957.106 1429.59 991.043 1428.26 994.13 C 1426.65 1018.96 1420.03 1049.33 1416.67 1074.28 C 1415.77 1080.91 1412.93 1101.37 1411 1106.44 L 1408.84 1107.95 C 1403.14 1112.13 1354.68 1140.27 1347.14 1143.37 L 1184.32 1234.08 L 1136.58 1260.88 C 1130.22 1264.44 1116.61 1272.28 1110.03 1274.86 C 1107.49 1281.76 1104.2 1288.66 1101.96 1295.49 C 1086 1295.54 1079.22 1291.08 1064.16 1289.77 C 1065.49 1287.3 1066.56 1284.51 1068.05 1282.29 C 1072.3 1276.32 1082.22 1267.85 1087.99 1262.62 C 1090.25 1260.21 1092.42 1258.49 1094.94 1256.38 L 1095.97 1255.4 C 1102.9 1247.98 1113.93 1238 1121.43 1230.78 C 1138.94 1213.91 1156.58 1197.18 1174.34 1180.59 C 1202.75 1154.07 1232.57 1124.94 1261.37 1099.27 C 1265.11 1094.31 1300.72 1061.01 1306.27 1056.62 C 1310.08 1052.19 1315.57 1047.39 1319.9 1043.4 C 1343.81 1021.36 1367.08 998.16 1391.51 976.735 z" fill="url(#Gradient14)" transform="translate(0,0)"></path>
<path d="M 1104 1256.84 L 1104.85 1255.91 C 1115.13 1253.18 1134.58 1242.85 1144.92 1238.26 C 1210.18 1209.28 1274.3 1178.44 1337.81 1145.82 C 1341.06 1144.15 1343.48 1143.32 1347.14 1143.37 L 1184.32 1234.08 L 1136.58 1260.88 C 1130.22 1264.44 1116.61 1272.28 1110.03 1274.86 C 1107.49 1281.76 1104.2 1288.66 1101.96 1295.49 C 1086 1295.54 1079.22 1291.08 1064.16 1289.77 C 1065.49 1287.3 1066.56 1284.51 1068.05 1282.29 C 1072.3 1276.32 1082.22 1267.85 1087.99 1262.62 C 1093.77 1262.79 1099.9 1261.08 1104 1256.84 z" fill="rgb(253,253,253)" transform="translate(0,0)"></path>
<path d="M 1068.05 1282.29 C 1077.33 1283.02 1099.08 1276.19 1110.03 1274.86 C 1107.49 1281.76 1104.2 1288.66 1101.96 1295.49 C 1086 1295.54 1079.22 1291.08 1064.16 1289.77 C 1065.49 1287.3 1066.56 1284.51 1068.05 1282.29 z" fill="rgb(192,208,224)" transform="translate(0,0)"></path>
<path d="M 1391.51 976.735 C 1402 967.362 1422.78 956.969 1435.79 950.306 C 1434.48 957.106 1429.59 991.043 1428.26 994.13 C 1428.1 994.052 1427.38 993.763 1427.2 993.789 C 1427 994.404 1427.27 997.336 1426.52 997.229 C 1421.07 996.603 1416.68 992.081 1412.06 989.759 C 1406.48 986.953 1400.84 982.301 1395.39 979.745 C 1392.73 978.498 1393.36 979.777 1391.51 976.735 z" fill="rgb(140,149,159)" transform="translate(0,0)"></path>
<path d="M 1095.97 1255.4 C 1102.9 1247.98 1113.93 1238 1121.43 1230.78 C 1138.94 1213.91 1156.58 1197.18 1174.34 1180.59 C 1202.75 1154.07 1232.57 1124.94 1261.37 1099.27 C 1258.57 1112.3 1124.29 1228.68 1102.87 1255.7 L 1104 1256.84 C 1099.9 1261.08 1093.77 1262.79 1087.99 1262.62 C 1090.25 1260.21 1092.42 1258.49 1094.94 1256.38 L 1095.97 1255.4 z" fill="rgb(192,208,224)" transform="translate(0,0)"></path>
<path d="M 1095.97 1255.4 C 1102.58 1257.34 1095.95 1262.58 1094.94 1256.38 L 1095.97 1255.4 z" fill="rgb(253,253,253)" transform="translate(0,0)"></path>
<path d="M 956.347 1319.19 L 957.971 1320.99 C 931.155 1343.36 904.932 1367.15 878.268 1389.81 L 656.801 1577.46 L 573.206 1647.45 C 558.711 1659.63 539.215 1677.21 524.76 1688 C 480.93 1691.31 429.392 1697.01 386.229 1698.7 C 383.3 1698.98 377.555 1699.95 375.614 1698.4 L 378.938 1696.47 C 386.279 1690.34 411.329 1675.17 420.34 1669.42 L 510.707 1611.62 L 826.761 1403.99 C 853.454 1386.28 880.868 1369.44 907.549 1351.59 C 923.68 1340.8 940.881 1331.13 956.347 1319.19 z" fill="rgb(16,185,129)" transform="translate(0,0)"></path>
<path d="M 994.212 896.714 C 1013.31 891.58 1046.92 888.614 1067.59 884.662 C 1081.01 882.093 1109.08 877.742 1122.27 876.702 C 1127.08 876.323 1158.95 883.356 1166.73 884.607 C 1145.49 894.513 1117.25 904.61 1094.77 913.892 C 1077.7 920.945 1060.58 927.87 1043.4 934.667 C 1037.5 937.021 1023.74 942.942 1018.06 944.468 C 997.15 953.076 976.178 961.54 955.149 969.86 C 943.592 974.506 928.48 981.251 917.123 985.032 C 900.49 992.067 883.752 998.854 866.916 1005.39 C 848.272 1002.86 830.116 1001.18 811.528 997.939 C 760.428 988.586 710.569 973.406 662.927 952.696 C 708.764 942.809 755.887 937.423 802.058 929.228 C 834.123 923.537 866.157 917.862 898.278 912.497 C 900.834 911.487 923.839 907.757 927.997 907.131 C 949.914 903.829 972.299 899.631 994.212 896.714 z" fill="rgb(20,184,166)" transform="translate(0,0)"></path>
<path d="M 994.212 896.714 C 1013.31 891.58 1046.92 888.614 1067.59 884.662 C 1081.01 882.093 1109.08 877.742 1122.27 876.702 C 1127.08 876.323 1158.95 883.356 1166.73 884.607 C 1145.49 894.513 1117.25 904.61 1094.77 913.892 C 1077.7 920.945 1060.58 927.87 1043.4 934.667 C 1037.5 937.021 1023.74 942.942 1018.06 944.468 C 1019.42 938.404 1050.46 933.777 1054.34 926.1 C 1053.25 921.284 1046.69 914.512 1045.24 910.435 C 1042.99 904.146 1042.38 897.971 1039.98 891.189 C 1036.61 890.816 1002.37 897.188 995.622 898.002 L 994.212 896.714 z" fill="url(#Gradient13)" transform="translate(0,0)"></path>
<path d="M 937.696 1371.92 C 939.071 1373.6 941.557 1391.64 942.446 1395.72 C 925.976 1415.17 905.074 1434.28 887.709 1454.46 L 757.971 1606.18 C 736.42 1631.62 715.525 1657.74 693.661 1682.88 C 679.95 1682.93 662.186 1684.79 648.123 1685.75 C 619.734 1687.56 591.36 1689.61 563.006 1691.91 L 559.939 1691.68 L 559.637 1690.47 C 562.874 1685.93 578.977 1674.23 584.494 1669.69 L 646.163 1618.47 C 720.491 1555.51 793.827 1490.97 869.083 1429.22 C 892.719 1409.82 912.684 1390.04 937.696 1371.92 z" fill="rgb(2,92,100)" transform="translate(0,0)"></path>
<path d="M 817.501 1483.12 C 824.359 1488.24 832.754 1493.19 840.102 1497.76 C 833.036 1505.53 807.878 1534.5 801.206 1538.75 C 799.991 1536.97 800.26 1537.3 798.796 1535.84 C 792.337 1536.68 750.9 1577.63 743.831 1584.84 C 746.757 1588.59 747.381 1589.8 749.621 1594.07 L 749.501 1597.54 L 746.436 1599.66 C 741.069 1598.85 718.453 1580.15 712.132 1575.3 C 737.283 1553.74 761.332 1530.68 786.874 1509.51 C 797.125 1501.01 807.726 1492.12 817.501 1483.12 z" fill="rgb(6,235,224)" transform="translate(0,0)"></path>
<path d="M 671.916 1614.64 C 677.227 1608.82 681.635 1605.31 687.52 1600.26 C 698.925 1610.86 710.24 1619.31 722.702 1628.56 C 713.041 1640.18 703.444 1651.98 693.722 1663.53 C 693.091 1664.5 690.861 1668.11 690.017 1668.5 C 673.878 1675.97 680.379 1661.59 680.742 1658.66 C 672.834 1660.51 667.352 1659.12 658.881 1658.85 C 654.425 1662.76 640.661 1677.3 635.818 1678.41 C 635.008 1678.59 634.296 1678.54 633.623 1678.01 C 633.339 1677.78 633.24 1677.47 633.234 1677.11 C 633.197 1674.82 636.932 1671.87 638.386 1670.6 C 640.366 1668.85 642.272 1667.07 644.143 1665.21 C 648.851 1660.53 682.653 1625.25 682.341 1622.04 C 682.101 1619.58 678.314 1616.68 676.733 1615.14 C 674.637 1615.07 673.997 1614.99 671.916 1614.64 z" fill="rgb(6,235,224)" transform="translate(0,0)"></path>
<path d="M 682.98 1655.02 C 687.235 1655.83 688.701 1658.47 691.709 1661.58 C 692.38 1662.23 693.051 1662.88 693.722 1663.53 C 693.091 1664.5 690.861 1668.11 690.017 1668.5 C 673.878 1675.97 680.379 1661.59 680.742 1658.66 C 681.462 1656.99 681.899 1656.53 682.98 1655.02 z" fill="rgb(3,221,229)" transform="translate(0,0)"></path>
<path d="M 682.98 1655.02 C 687.235 1655.83 688.701 1658.47 691.709 1661.58 C 681.988 1677.25 684.711 1661.29 682.98 1655.02 z" fill="rgb(9,97,118)" transform="translate(0,0)"></path>
<path d="M 902.315 1408.75 C 906.44 1411.17 910.049 1412.76 914.224 1414.92 C 901.892 1428.52 879.884 1449.69 866.071 1463.14 C 862.33 1460.29 858.341 1457.81 854.288 1455.43 C 861.957 1448.27 868.67 1441.16 876.103 1433.85 C 885.295 1424.8 894.026 1418.56 902.315 1408.75 z" fill="rgb(3,221,229)" transform="translate(0,0)"></path>
<path d="M 896.186 1417.64 C 896.792 1418.25 900.603 1422.21 900.839 1422.65 C 900.445 1424.38 869.724 1455.69 866.381 1458.5 C 862.579 1455.74 859.054 1455.47 862.762 1451.78 C 874.28 1440.32 886.117 1430.43 896.186 1417.64 z" fill="rgb(9,97,118)" transform="translate(0,0)"></path>
<path d="M 676.733 1615.14 C 671.218 1619.85 665.841 1625.3 660.264 1630.21 C 642.115 1646.18 623.823 1661.92 605.043 1677.14 C 604.656 1677.45 594.445 1686.94 595.216 1681.58 C 595.324 1680.83 606.782 1671.57 607.896 1670.41 C 622.546 1657.79 637.318 1645.14 651.933 1632.46 C 655.689 1629.22 669.174 1616.36 671.916 1614.64 C 673.997 1614.99 674.637 1615.07 676.733 1615.14 z" fill="rgb(3,221,229)" transform="translate(0,0)"></path>
<path d="M 749.621 1594.07 L 750.244 1593.38 C 753.052 1590.21 773.328 1568.26 775.909 1569.86 C 777.453 1572.79 752.454 1594.88 749.501 1597.54 L 749.621 1594.07 z" fill="rgb(3,221,229)" transform="translate(0,0)"></path>
<path d="M 1208.71 990.897 L 1209.31 991.522 C 1211.01 1005.38 1191.47 1067.38 1184.91 1083.35 C 1154.47 1157.48 1102.52 1218.82 1032.7 1258.66 C 1016.85 1267.7 993.868 1276.71 976.812 1283.71 L 976.248 1282.64 C 1015.21 1241.47 1040.67 1212.57 1063.1 1158.87 C 1066.91 1149.75 1078.62 1112.2 1081.64 1108.56 C 1091.93 1096.13 1117.26 1074.32 1129.96 1062.83 L 1208.71 990.897 z" fill="rgb(16,185,129)" transform="translate(0,0)"></path>
<path d="M 698.766 540.407 L 842.871 609.986 L 889.539 632.064 C 894.383 634.353 910.44 641.715 914.16 644.502 C 919.131 646.256 923.818 648.644 928.567 650.914 C 949.619 660.978 970.247 671.941 991.491 681.603 L 1133.6 747.585 C 1144.18 752.611 1183.24 770.314 1191.27 775.394 C 1175.11 776.225 1168.94 754.024 1149.91 770.484 C 1137.3 781.39 1122.17 790.64 1117.15 808.158 C 1118.18 814.113 1127.04 815.769 1130.49 821.163 L 1130.58 822.783 C 1118.97 814.292 1107.37 805.8 1095.75 797.316 C 1029.73 749.09 959.201 707.478 890.285 663.638 C 875.703 656.315 844.034 634.445 828.739 624.88 L 697.119 543.11 L 698.766 540.407 z" fill="rgb(20,184,166)" transform="translate(0,0)"></path>
<path d="M 698.766 540.407 L 842.871 609.986 L 889.539 632.064 C 894.383 634.353 910.44 641.715 914.16 644.502 C 897.733 643.676 817.033 595.176 806.841 596.294 L 805.32 598.797 C 800.691 599.11 800.306 598.328 797.385 600.665 C 799.228 608.885 881.038 650.395 890.285 663.638 C 875.703 656.315 844.034 634.445 828.739 624.88 L 697.119 543.11 L 698.766 540.407 z" fill="rgb(16,185,129)" transform="translate(0,0)"></path>
<path d="M 1360.41 771.117 C 1370.3 766.169 1391.36 760.094 1402.67 756.692 C 1445.55 743.801 1496.14 730.444 1541.04 728.957 C 1555.2 728.487 1596.64 738.22 1610.4 743.391 C 1656.3 760.652 1684.83 768.184 1708.56 813.428 C 1698.94 814.34 1689.03 815.155 1679.46 816.296 C 1660.04 803.316 1614.09 768.942 1590.91 768.049 C 1531.22 765.75 1458.88 798.824 1401.54 816.205 C 1388.54 820.143 1366.73 827.135 1356.3 832.548 C 1345.5 828.488 1337.22 824.666 1326.91 819.38 C 1359.89 795.067 1395.78 789.57 1433.86 773.851 L 1433.19 771.685 C 1409.49 772.362 1384.41 771.059 1360.41 771.117 z" fill="url(#Gradient12)" transform="translate(0,0)"></path>
<path d="M 1433.19 771.685 C 1434.52 771.209 1437.24 770.386 1438.3 771.566 C 1437.52 772.854 1435.22 773.398 1433.86 773.851 L 1433.19 771.685 z" fill="rgb(13,70,59)" transform="translate(0,0)"></path>
<path d="M 952.002 989.398 C 959.479 985.542 968.136 982.007 975.993 978.98 C 1024.68 960.221 1072.9 937.963 1121.5 919.363 C 1139.79 922.997 1161.14 925.928 1178.64 930.537 C 1151.41 953.724 1108.58 978 1078.42 998.983 C 1056.44 1014.27 1031 1031.67 1007.94 1044.97 C 1002.02 1048.39 978.797 1054.08 972.052 1054.69 L 972.576 1052.93 L 975.179 1052.35 L 975.108 1051.01 L 970.764 1048.86 C 962.602 1035.03 957.131 1028.46 960.762 1012.26 L 961.192 1010.37 C 960.162 1009.34 959.6 1008.81 958.453 1007.86 L 957.517 1007.11 C 957.278 1004.74 961.506 996.962 962.774 992.961 C 962.019 990.792 962.021 990.244 961.797 987.957 L 960.6 987.584 C 956.792 989.356 956.174 989.651 952.002 989.398 z" fill="url(#Gradient11)" transform="translate(0,0)"></path>
<path d="M 1314.92 1190.74 C 1319.64 1192.99 1331.92 1200.96 1336.79 1204 C 1351.3 1213.02 1365.73 1222.18 1380.07 1231.48 C 1333.76 1254.6 1282.86 1288.98 1237.04 1309.97 C 1231.35 1309.25 1228.27 1308.58 1222.8 1307.25 C 1199.19 1299.18 1175.49 1291.36 1151.72 1283.78 C 1181.19 1271.23 1213.32 1247.64 1241.75 1231.87 C 1266.13 1218.34 1290.89 1204.8 1314.92 1190.74 z" fill="rgb(2,92,100)" transform="translate(0,0)"></path>
<path d="M 1307.94 1207.97 L 1307.83 1209.68 C 1302.71 1215.99 1267.15 1235.45 1258.29 1240.08 C 1259.83 1241.34 1261.56 1242.66 1263.04 1243.92 C 1273.51 1252.89 1284.54 1254.97 1295.81 1264.02 C 1281.09 1270.42 1266.24 1282.44 1251.7 1289.64 C 1241.43 1294.72 1241.93 1299.34 1231.77 1293.84 C 1218.5 1288.38 1205.43 1282.46 1192.57 1276.1 C 1199.11 1270.95 1235.01 1249.53 1243.35 1244.88 C 1259.52 1235.85 1292.16 1214.68 1307.94 1207.97 z" fill="rgb(3,221,229)" transform="translate(0,0)"></path>
<path d="M 1224.84 1259.87 C 1228.58 1259.65 1254.24 1277.34 1260.12 1280.87 C 1255.58 1283.45 1251.53 1285.55 1246.85 1287.87 C 1235.32 1280.24 1223.09 1274.71 1211.03 1268.11 C 1215.53 1265.28 1220.25 1262.75 1224.84 1259.87 z" fill="rgb(2,92,100)" transform="translate(0,0)"></path>
<path d="M 1241.03 1249.87 C 1241.95 1250.12 1270.95 1270.18 1274.1 1272.34 C 1269.98 1274.8 1266.98 1276.45 1262.78 1278.71 C 1250.97 1271.5 1239.4 1264.77 1227.54 1257.7 C 1232.1 1255.2 1236.6 1252.59 1241.03 1249.87 z" fill="rgb(2,92,100)" transform="translate(0,0)"></path>
<path d="M 1251.25 1243.7 C 1255.85 1243.73 1283.61 1259.96 1289.36 1263.11 C 1286.09 1265.19 1282.73 1267.17 1279.5 1269.26 C 1278.09 1270.25 1277.58 1270.97 1276.14 1269.89 C 1267.03 1263.05 1257.18 1257.21 1247.78 1250.76 C 1247.24 1250.4 1245.01 1249.22 1244.32 1248.56 C 1243.85 1247.22 1250.79 1243.97 1251.25 1243.7 z" fill="rgb(2,92,100)" transform="translate(0,0)"></path>
<path d="M 1206.92 1269.79 C 1210.82 1269.96 1237.85 1285.9 1242.39 1289.51 C 1244.29 1291.02 1239.05 1292.9 1238.66 1293.12 C 1230.45 1290.39 1207.47 1279.83 1199.07 1275.74 C 1201.62 1273.67 1204.25 1271.7 1206.92 1269.79 z" fill="rgb(2,92,100)" transform="translate(0,0)"></path>
<path d="M 1482.2 1033.63 C 1503.09 1041.78 1527.36 1049.68 1548.72 1057.34 C 1526.72 1095.92 1496.37 1141.11 1472.19 1179.48 L 1470.75 1181.16 C 1465.34 1181.74 1418.07 1151.26 1409.76 1146.63 C 1421.1 1123.19 1437.08 1100.25 1451.69 1078.82 C 1461.89 1063.86 1471.59 1048.27 1482.2 1033.63 z" fill="rgb(2,92,100)" transform="translate(0,0)"></path>
<path d="M 1488.07 1046.98 C 1503.02 1051.92 1517.81 1057.33 1532.43 1063.2 C 1528.87 1068.82 1525.45 1074.83 1522.05 1080.57 C 1504.57 1110.14 1484.96 1137.94 1467.52 1167.55 C 1464.4 1167.66 1430.33 1147.43 1424.55 1144.17 C 1429.5 1134.61 1440.95 1118.12 1447.09 1108.77 C 1460.55 1088.05 1474.21 1067.45 1488.07 1046.98 z" fill="rgb(3,221,229)" transform="translate(0,0)"></path>
<path d="M 1490.14 1051.69 C 1495.67 1054.35 1510.47 1059.06 1517.13 1061.44 C 1508.78 1077.47 1491.88 1098.49 1482.11 1114.32 C 1477.26 1122.18 1472.82 1126.86 1468.86 1135.97 L 1469.42 1136.53 C 1484.55 1122.86 1514.23 1065.98 1522.06 1062.37 C 1525.33 1063.55 1524.07 1062.56 1525.97 1065.48 C 1526.3 1069.61 1517.69 1081.21 1514.92 1085.55 C 1498.63 1111.34 1482.08 1138.25 1464.54 1163.11 C 1452.75 1156.39 1440.91 1149.75 1429.02 1143.2 C 1449 1116.19 1470.86 1080.23 1490.14 1051.69 z" fill="rgb(2,92,100)" transform="translate(0,0)"></path>
<path d="M 1501.19 919.394 C 1520.28 909.922 1574.85 890.329 1595.78 884.763 C 1600.59 883.482 1647.49 883.834 1655.64 883.836 L 1654.17 909.491 L 1653.97 919.042 C 1649.03 922.284 1644.1 925.59 1639.06 928.657 C 1621.88 942.847 1598.79 961.224 1588.17 980.641 C 1586.7 980.539 1484.28 934.046 1474.8 929.835 C 1483.67 926.528 1492.46 923.047 1501.19 919.394 z" fill="rgb(192,208,224)" transform="translate(0,0)"></path>
<path d="M 1474.8 929.835 C 1483.67 926.528 1492.46 923.047 1501.19 919.394 C 1512.89 935.295 1549.85 954.441 1566.8 965.216 C 1573.48 969.461 1584.79 973.578 1588.17 980.641 C 1586.7 980.539 1484.28 934.046 1474.8 929.835 z" fill="rgb(253,253,253)" transform="translate(0,0)"></path>
<path d="M 1456.89 940.271 C 1460.57 937.627 1462.73 936.196 1466.68 934.007 L 1577.94 992.573 C 1574.93 1000.57 1571.08 1011.78 1567.66 1019.35 C 1567.32 1021.42 1561.97 1035.09 1560.9 1037.94 C 1551.86 1035.84 1477.5 1016.68 1473.51 1017 C 1463.36 1030.92 1447.27 1047.22 1435.92 1061.75 C 1439.47 1024.97 1441.38 981.927 1447.52 946.116 L 1456.89 940.271 z" fill="rgb(140,149,159)" transform="translate(0,0)"></path>
<path d="M 1456.89 940.271 C 1460.57 937.627 1462.73 936.196 1466.68 934.007 L 1577.94 992.573 C 1574.93 1000.57 1571.08 1011.78 1567.66 1019.35 C 1566.27 1014.82 1568.74 1012.37 1570.58 1007.07 L 1569.95 1006.08 C 1565.57 1007.08 1563.24 1004.66 1558.15 1003.79 C 1532.38 999.396 1506.95 987.587 1482.18 979.474 C 1474.67 977.013 1463.92 972.565 1456.53 971.694 C 1451.85 976.611 1457.5 972.623 1452.96 980.23 C 1453.39 973.936 1458.37 943.099 1456.89 940.271 z" fill="url(#Gradient10)" transform="translate(0,0)"></path>
<path d="M 1456.89 940.271 C 1458.37 943.099 1453.39 973.936 1452.96 980.23 C 1450.7 997.325 1447.39 1021.87 1446.64 1038.75 C 1452.41 1033.25 1465.82 1019.84 1471.59 1016.55 L 1473.51 1017 C 1463.36 1030.92 1447.27 1047.22 1435.92 1061.75 C 1439.47 1024.97 1441.38 981.927 1447.52 946.116 L 1456.89 940.271 z" fill="rgb(253,253,253)" transform="translate(0,0)"></path>
<path d="M 925.918 1501.36 C 928.312 1500.9 928.249 1501.01 930.686 1501.46 C 928.966 1509.57 897.092 1558.12 890.327 1569.17 C 881.73 1583.53 873.26 1597.96 864.917 1612.46 C 831.298 1619.72 797.732 1627.21 764.22 1634.94 C 762.059 1635.42 762.809 1635.35 760.629 1635.16 C 762.048 1631.07 787.57 1601.74 792.308 1596.59 C 805.005 1582.8 814.9 1569.91 826.404 1554.98 C 837.089 1541.11 849.055 1523.26 861.919 1511.81 C 884.654 1509.47 903.556 1505.28 925.918 1501.36 z" fill="rgb(2,92,100)" transform="translate(0,0)"></path>
<path d="M 808.857 1594.46 C 814.632 1587.64 819.95 1587.45 828.552 1585.28 C 831.812 1584.45 852.394 1579.36 854.119 1580.51 C 854.925 1582.92 849.669 1584.68 847.976 1585.24 C 848.02 1587.85 849.012 1588.81 848.963 1591.41 C 846.455 1593.58 845.386 1594.36 841.948 1595.25 L 841.705 1597.11 C 841.593 1598.15 841.464 1599.11 841.111 1600.1 C 847.464 1605.01 829.759 1607.48 826.551 1608.27 L 822.567 1609.3 C 814.706 1611.33 798.034 1617.08 789.605 1616.83 C 788.189 1616.78 791.225 1612.13 791.5 1611.61 C 794.485 1608.67 797.264 1608.01 799.83 1604.27 L 800.495 1603.14 C 801.747 1599.18 805.232 1596.5 808.857 1594.46 z" fill="rgb(9,97,118)" transform="translate(0,0)"></path>
<path d="M 799.83 1604.27 C 801.775 1606.52 810.224 1603.05 813.537 1602.3 L 818.021 1601.29 L 822.52 1600.26 L 827.021 1599.25 C 832.061 1598.14 837 1596.71 841.948 1595.25 L 841.705 1597.11 C 841.593 1598.15 841.464 1599.11 841.111 1600.1 C 847.464 1605.01 829.759 1607.48 826.551 1608.27 L 822.567 1609.3 C 814.706 1611.33 798.034 1617.08 789.605 1616.83 C 788.189 1616.78 791.225 1612.13 791.5 1611.61 C 794.485 1608.67 797.264 1608.01 799.83 1604.27 z" fill="rgb(9,97,118)" transform="translate(0,0)"></path>
<path d="M 841.111 1600.1 C 847.464 1605.01 829.759 1607.48 826.551 1608.27 L 822.567 1609.3 C 814.706 1611.33 798.034 1617.08 789.605 1616.83 C 788.189 1616.78 791.225 1612.13 791.5 1611.61 C 802.991 1610.31 830.718 1604.65 841.111 1600.1 z" fill="rgb(6,235,224)" transform="translate(0,0)"></path>
<path d="M 800.495 1603.14 C 806.434 1599.54 812.751 1598.69 819.515 1597.2 L 823.548 1596.29 L 828.513 1595.14 C 833.295 1594 838.054 1592.76 842.784 1591.42 C 846.172 1590.45 846.206 1590 848.963 1591.41 C 846.455 1593.58 845.386 1594.36 841.948 1595.25 C 837 1596.71 832.061 1598.14 827.021 1599.25 L 822.52 1600.26 L 818.021 1601.29 L 813.537 1602.3 C 810.224 1603.05 801.775 1606.52 799.83 1604.27 L 800.495 1603.14 z" fill="rgb(6,235,224)" transform="translate(0,0)"></path>
<path d="M 808.857 1594.46 C 814.632 1587.64 819.95 1587.45 828.552 1585.28 C 831.812 1584.45 852.394 1579.36 854.119 1580.51 C 854.925 1582.92 849.669 1584.68 847.976 1585.24 C 844.689 1585.26 841.711 1586.11 838.486 1586.83 L 836.515 1587.25 L 832.017 1588.27 C 824.189 1590.04 816.463 1592.81 808.857 1594.46 z" fill="rgb(6,235,224)" transform="translate(0,0)"></path>
<path d="M 910.634 1511.41 C 914.108 1512.1 914.404 1512.19 912.349 1515.29 L 872.773 1577.76 C 866.522 1587.7 862.399 1595.53 855.392 1605.51 C 853.662 1605.74 852.852 1605.75 854.016 1603.58 C 864.676 1583.69 877.079 1564.53 888.983 1545.36 C 895.664 1534.6 902.59 1521.08 910.634 1511.41 z" fill="rgb(3,221,229)" transform="translate(0,0)"></path>
<path d="M 844.008 1547.68 C 848.691 1548.01 853.603 1546.47 858.33 1545.76 C 855.02 1547.87 852.17 1548.07 850.981 1548.82 C 851.161 1549.76 856.207 1550.12 857.055 1550.26 C 859.58 1549.52 875.373 1544.8 875.893 1548.78 C 874.383 1550.74 872.207 1550.88 870.018 1551.26 L 865.518 1552.09 C 861.849 1552.72 838.532 1559.22 837.262 1558.85 C 836.411 1557.52 838.388 1555.73 839.03 1554.75 C 840.569 1552.07 842.891 1549.83 844.008 1547.68 z" fill="rgb(6,235,224)" transform="translate(0,0)"></path>
<path d="M 844.008 1547.68 C 848.691 1548.01 853.603 1546.47 858.33 1545.76 C 855.02 1547.87 852.17 1548.07 850.981 1548.82 C 851.161 1549.76 856.207 1550.12 857.055 1550.26 C 850.932 1551.7 845.199 1553.53 839.03 1554.75 C 840.569 1552.07 842.891 1549.83 844.008 1547.68 z" fill="rgb(9,97,118)" transform="translate(0,0)"></path>
<path d="M 844.008 1547.68 C 850.138 1541.13 851.026 1544.04 854.992 1541.83 C 863.239 1537.23 892.006 1529.67 878.529 1541.72 C 881.373 1539.18 859.946 1544.93 858.33 1545.76 C 853.603 1546.47 848.691 1548.01 844.008 1547.68 z" fill="rgb(3,221,229)" transform="translate(0,0)"></path>
<path d="M 858.34 1569.18 C 859.858 1569.28 860.805 1569.54 859.862 1571.38 C 858.433 1574.16 854.818 1574.23 851.991 1574.84 L 847.484 1575.84 C 839.557 1577.54 831.798 1578.96 823.987 1581.17 L 820.361 1582.2 C 819.72 1582.44 819.71 1582.48 819.035 1582.52 L 818.615 1581.91 C 819.747 1576.61 831.598 1575.08 836.013 1574.14 L 845.014 1572.21 C 849.436 1571.23 853.958 1570.09 858.34 1569.18 z" fill="rgb(6,235,224)" transform="translate(0,0)"></path>
<path d="M 864.566 1558.26 C 870.931 1557.12 867.391 1560.83 862.032 1562.33 C 851.823 1565.17 839.235 1567.01 829.728 1570.84 C 829.163 1571.24 828.447 1571.91 827.784 1571.33 C 826.896 1567.91 834.757 1564.65 837.499 1564.04 L 845.515 1562.24 L 850.015 1561.22 C 854.848 1560.15 859.699 1559.16 864.566 1558.26 z" fill="rgb(6,235,224)" transform="translate(0,0)"></path>
<path d="M 878.875 1525.25 C 879.897 1525.13 884.858 1524.23 884.806 1526.29 C 882.996 1528.91 861.529 1531.3 857.993 1535.17 C 857.849 1535.33 855.286 1536.73 854.942 1536.92 C 854.233 1537.78 853.675 1538.84 852.622 1539.29 C 852.347 1539.23 852.474 1539.3 852.25 1539.06 C 851.214 1533.86 864.841 1528.27 869.016 1527.3 C 872.285 1526.54 875.573 1525.86 878.875 1525.25 z" fill="rgb(3,221,229)" transform="translate(0,0)"></path>
<path d="M 962.339 1092.21 C 1011.62 1058.52 1060.55 1027.41 1109.51 992.564 C 1118.95 993.118 1117.64 994.59 1124.42 1002.16 C 1129.98 1008.38 1138.9 1013.8 1144.48 1020.51 C 1144.32 1021.44 1142.61 1025.4 1142.17 1026.82 C 1136.78 1034.59 1100.54 1074.17 1093.2 1081.53 C 1045.56 1092.58 1011.81 1094.77 962.339 1092.21 z" fill="rgb(16,185,129)" transform="translate(0,0)"></path>
<path d="M 973.913 1491.3 C 978.949 1490.29 985.965 1489.78 991.169 1489.55 L 991.719 1489.98 C 998.234 1490.29 1007.53 1493.21 1014.06 1494.8 C 1017.96 1495.85 1021.04 1497.28 1024.38 1495.63 L 1026.49 1496.27 C 1023.16 1505.29 1020.56 1514.52 1016.94 1523.67 C 1012.29 1526.77 1007.83 1529.8 1003.05 1532.75 C 999.697 1535.6 971.15 1554.08 967.688 1555.43 C 943.252 1571.68 915.804 1587.4 892.632 1604.46 C 911.892 1566.79 935.186 1527.33 955.543 1489.55 C 956.305 1490.22 956.995 1490.76 957.794 1491.39 C 962.468 1490.47 969.182 1490.6 973.913 1491.3 z" fill="url(#Gradient9)" transform="translate(0,0)"></path>
<path d="M 991.719 1489.98 C 998.234 1490.29 1007.53 1493.21 1014.06 1494.8 C 1017.96 1495.85 1021.04 1497.28 1024.38 1495.63 L 1026.49 1496.27 C 1023.16 1505.29 1020.56 1514.52 1016.94 1523.67 C 1012.29 1526.77 1007.83 1529.8 1003.05 1532.75 C 999.372 1523.36 993.315 1500.2 991.719 1489.98 z" fill="rgb(192,208,224)" transform="translate(0,0)"></path>
<path d="M 892.632 1604.46 C 911.892 1566.79 935.186 1527.33 955.543 1489.55 C 956.305 1490.22 956.995 1490.76 957.794 1491.39 C 956.497 1495.09 954.906 1497.76 953.394 1501.39 C 951.053 1504.53 942.608 1522.16 939.851 1527.22 L 905.683 1588.88 C 914.428 1584.14 961.932 1552.55 967.688 1555.43 C 943.252 1571.68 915.804 1587.4 892.632 1604.46 z" fill="rgb(253,253,253)" transform="translate(0,0)"></path>
<path d="M 957.794 1491.39 C 962.468 1490.47 969.182 1490.6 973.913 1491.3 C 971.71 1492.39 971.035 1492.48 968.519 1492.51 C 954.688 1492.67 962.048 1495.15 953.394 1501.39 C 954.906 1497.76 956.497 1495.09 957.794 1491.39 z" fill="rgb(140,149,159)" transform="translate(0,0)"></path>
<path d="M 952.002 989.398 C 956.174 989.651 956.792 989.356 960.6 987.584 L 961.797 987.957 C 962.021 990.244 962.019 990.792 962.774 992.961 C 961.506 996.962 957.278 1004.74 957.517 1007.11 L 958.453 1007.86 C 959.6 1008.81 960.162 1009.34 961.192 1010.37 L 960.762 1012.26 C 957.131 1028.46 962.602 1035.03 970.764 1048.86 L 975.108 1051.01 L 975.179 1052.35 L 972.576 1052.93 L 972.052 1054.69 C 932.627 1065.89 865.532 1053.63 826.543 1039.72 C 845.972 1030.84 873.308 1022.2 894.042 1013.28 C 907.422 1007.52 939.573 993.216 952.002 989.398 z" fill="rgb(20,184,166)" transform="translate(0,0)"></path>
<path d="M 998.25 1411.59 C 1004.6 1411.01 1058.29 1403.19 1058.55 1403.44 C 1058.52 1404.59 1056.74 1409.09 1056.29 1410.6 C 1051.25 1423.29 1047.33 1436.74 1042.48 1448.99 C 1040.71 1457.57 1030.2 1487.43 1026.49 1496.27 L 1024.38 1495.63 C 1021.04 1497.28 1017.96 1495.85 1014.06 1494.8 C 1007.53 1493.21 998.234 1490.29 991.719 1489.98 L 991.169 1489.55 C 985.965 1489.78 978.949 1490.29 973.913 1491.3 C 969.182 1490.6 962.468 1490.47 957.794 1491.39 C 956.995 1490.76 956.305 1490.22 955.543 1489.55 C 964.863 1474.2 973.499 1459.01 981.53 1442.95 C 982.28 1440.77 983.99 1437.55 985.515 1435.75 C 989.334 1427.32 994.135 1419.76 998.25 1411.59 z" fill="url(#Gradient8)" transform="translate(0,0)"></path>
<path d="M 981.53 1442.95 C 984.375 1447.82 990.513 1483 991.169 1489.55 C 985.965 1489.78 978.949 1490.29 973.913 1491.3 C 969.182 1490.6 962.468 1490.47 957.794 1491.39 C 956.995 1490.76 956.305 1490.22 955.543 1489.55 C 964.863 1474.2 973.499 1459.01 981.53 1442.95 z" fill="rgb(192,208,224)" transform="translate(0,0)"></path>
<path d="M 998.25 1411.59 C 1004.6 1411.01 1058.29 1403.19 1058.55 1403.44 C 1058.52 1404.59 1056.74 1409.09 1056.29 1410.6 L 1052.31 1410.05 C 1040.74 1410.88 1008.3 1423.62 997.192 1429.52 C 993.783 1431.33 987.926 1435.21 985.515 1435.75 C 989.334 1427.32 994.135 1419.76 998.25 1411.59 z" fill="rgb(253,253,253)" transform="translate(0,0)"></path>
<path d="M 1052.31 1410.05 L 1056.29 1410.6 C 1051.25 1423.29 1047.33 1436.74 1042.48 1448.99 C 1040.24 1442.35 1049.35 1419.02 1052.06 1410.84 L 1052.31 1410.05 z" fill="rgb(192,208,224)" transform="translate(0,0)"></path>
<path d="M 1014.06 1494.8 L 1015.5 1493.84 C 1016.63 1493.08 1024.17 1489.42 1025.7 1488.82 L 1025.76 1488.92 L 1025.7 1489.03 L 1025.85 1489.75 C 1025.2 1491.69 1024.46 1493.57 1024.38 1495.63 C 1021.04 1497.28 1017.96 1495.85 1014.06 1494.8 z" fill="rgb(140,149,159)" transform="translate(0,0)"></path>
<path d="M 1052.45 1311.95 C 1053.11 1309.53 1062.2 1292.74 1064.16 1289.77 C 1079.22 1291.08 1086 1295.54 1101.96 1295.49 C 1100.02 1301.17 1097.72 1308.47 1094.93 1313.69 C 1093.62 1319.76 1085.31 1339 1082.76 1345.9 C 1077.04 1360.18 1069.42 1379.84 1063.45 1393.56 L 1037.99 1397.86 L 1032.49 1398.85 L 1026.99 1399.83 C 1018.77 1401.25 1010.57 1402.83 1002.38 1404.47 C 1014.3 1380.41 1028.34 1356.77 1040.71 1332.87 C 1044.08 1326.35 1048.3 1317.74 1052.45 1311.95 z" fill="url(#Gradient7)" transform="translate(0,0)"></path>
<path d="M 1052.45 1311.95 C 1053.11 1309.53 1062.2 1292.74 1064.16 1289.77 C 1079.22 1291.08 1086 1295.54 1101.96 1295.49 C 1100.02 1301.17 1097.72 1308.47 1094.93 1313.69 C 1093.62 1319.76 1085.31 1339 1082.76 1345.9 C 1081.25 1342.46 1080.78 1342.84 1080.95 1339.14 C 1078.45 1341.48 1077.87 1343.8 1076.21 1347.03 C 1068.79 1341.83 1058.62 1331.26 1051.46 1327.01 C 1042.04 1321.42 1053.14 1322.55 1052.45 1311.95 z" fill="rgb(140,149,159)" transform="translate(0,0)"></path>
<path d="M 1080.95 1339.14 C 1084.4 1334.66 1091.91 1313.13 1094.93 1313.69 C 1093.62 1319.76 1085.31 1339 1082.76 1345.9 C 1081.25 1342.46 1080.78 1342.84 1080.95 1339.14 z" fill="rgb(192,208,224)" transform="translate(0,0)"></path>
<path d="M 1130.71 1301.1 C 1130.83 1300.75 1132.88 1293.33 1133.75 1293.54 C 1147.24 1296.83 1161.06 1301.8 1174.33 1306.21 C 1175.53 1306.48 1176.67 1306.9 1177.84 1307.26 C 1193.99 1312.2 1207.64 1316.75 1223.56 1322 C 1217.1 1328.79 1207.55 1343.19 1201.68 1351.52 C 1200.66 1353.13 1200.3 1354.11 1198.84 1355.17 C 1197.35 1357.24 1195.15 1361.7 1192.52 1361.72 C 1166.86 1361.85 1141.19 1361.63 1115.51 1361.67 L 1117.86 1351.49 C 1119.03 1346.3 1120.71 1340.6 1121.68 1335.52 C 1122.71 1331.97 1123.22 1329.34 1124.56 1325.87 C 1124.86 1324.5 1125.05 1323.35 1125.48 1322.03 C 1126.38 1317.86 1127.62 1313.8 1128.44 1309.78 C 1129.44 1306.4 1129.98 1304.57 1130.71 1301.1 z" fill="url(#Gradient6)" transform="translate(0,0)"></path>
<path d="M 1188.42 1331.65 C 1193.61 1341.13 1194.21 1343.81 1201.68 1351.52 C 1200.66 1353.13 1200.3 1354.11 1198.84 1355.17 C 1197.35 1357.24 1195.15 1361.7 1192.52 1361.72 C 1166.86 1361.85 1141.19 1361.63 1115.51 1361.67 L 1117.86 1351.49 C 1119.03 1346.3 1120.71 1340.6 1121.68 1335.52 L 1123.51 1337.48 C 1135.55 1329.54 1167.11 1345.81 1188.42 1331.65 z" fill="rgb(192,208,224)" transform="translate(0,0)"></path>
<path d="M 1188.42 1331.65 C 1193.61 1341.13 1194.21 1343.81 1201.68 1351.52 C 1200.66 1353.13 1200.3 1354.11 1198.84 1355.17 C 1195.55 1352.37 1184.9 1351.65 1179.49 1350.54 C 1175.22 1350.56 1166.12 1347.34 1162.5 1347.48 C 1153.11 1347.84 1134.14 1340 1126.98 1339.62 C 1126.25 1340.08 1124.58 1338.96 1123.96 1338.57 C 1123.71 1338.64 1123.84 1338.65 1123.56 1338.52 C 1123.55 1338.17 1123.53 1337.83 1123.51 1337.48 C 1135.55 1329.54 1167.11 1345.81 1188.42 1331.65 z" fill="rgb(140,149,159)" transform="translate(0,0)"></path>
<path d="M 1130.71 1301.1 C 1130.83 1300.75 1132.88 1293.33 1133.75 1293.54 C 1147.24 1296.83 1161.06 1301.8 1174.33 1306.21 C 1175.53 1306.48 1176.67 1306.9 1177.84 1307.26 C 1193.99 1312.2 1207.64 1316.75 1223.56 1322 C 1217.1 1328.79 1207.55 1343.19 1201.68 1351.52 C 1194.21 1343.81 1193.61 1341.13 1188.42 1331.65 C 1185.36 1325.2 1179.21 1315.59 1177.01 1309.88 C 1163.88 1313.91 1164.15 1315.65 1149.71 1310.12 C 1147.66 1309.34 1131.53 1309.58 1128.44 1309.78 C 1129.44 1306.4 1129.98 1304.57 1130.71 1301.1 z" fill="rgb(192,208,224)" transform="translate(0,0)"></path>
<path d="M 1125.48 1322.03 C 1128.01 1322.83 1127.71 1321.74 1129.56 1322.44 L 1129.65 1322.55 C 1129.22 1323.96 1126.71 1326.45 1124.56 1325.87 C 1124.86 1324.5 1125.05 1323.35 1125.48 1322.03 z" fill="rgb(158,164,174)" transform="translate(0,0)"></path>
<path d="M 1724.5 819.378 C 1737.11 824.764 1768.7 841.374 1777.1 850.278 C 1787.18 856.764 1796.42 866.805 1804.08 876.008 C 1807.63 880.621 1810.8 885.356 1814.08 890.16 C 1769.92 869.951 1728.41 863.248 1680.16 864.879 C 1683.83 856.834 1695.12 830.883 1699.49 824.508 L 1724.5 819.378 z" fill="url(#Gradient5)" transform="translate(0,0)"></path>
<path d="M 1698.32 839.995 C 1706.22 836.858 1720.11 844.514 1729.95 845.509 C 1734.48 849.733 1748.73 851.338 1755.26 853.44 C 1766.39 857.023 1775.82 862.921 1787.68 863.47 L 1788.33 862.282 C 1784.35 858.708 1779.28 854.92 1777.1 850.278 C 1787.18 856.764 1796.42 866.805 1804.08 876.008 C 1803.55 876.337 1800.62 877.967 1800.01 877.767 C 1758.86 864.338 1734.76 857.7 1690.81 861.304 C 1692.69 854.66 1695.89 846.616 1698.32 839.995 z" fill="url(#Gradient4)" transform="translate(0,0)"></path>
<path d="M 1698.32 839.995 C 1703.25 826.029 1703.5 830.368 1718.37 834.478 C 1725.39 836.417 1731.31 837.927 1738.5 839.209 L 1745.69 840.496 C 1734.56 848.337 1742.39 839.714 1729.95 845.509 C 1720.11 844.514 1706.22 836.858 1698.32 839.995 z" fill="rgb(192,208,224)" transform="translate(0,0)"></path>
<path d="M 1377.84 1155.78 C 1383.01 1158.43 1395.31 1167.43 1400.78 1171.17 L 1445.41 1201.39 C 1431.03 1208.76 1412.04 1220.04 1398.26 1226.07 C 1391.67 1223.14 1378.79 1214.41 1372.4 1210.29 C 1357.96 1201.11 1343.67 1191.68 1329.55 1182.01 C 1345.81 1173.56 1361.91 1164.82 1377.84 1155.78 z" fill="rgb(2,92,100)" transform="translate(0,0)"></path>
<path d="M 1384.76 1177.02 C 1385.46 1177.55 1386.9 1177.94 1387.61 1178.2 C 1390.01 1177.41 1390.27 1177.84 1391.17 1180.18 L 1392.67 1181.51 C 1394.99 1180.88 1395.28 1181.15 1397.16 1182.58 L 1398.3 1183.61 C 1402.72 1186.5 1403.3 1186.12 1400.82 1190.27 C 1396.42 1193.01 1393.44 1200.03 1388.75 1205.23 C 1387.89 1203.52 1387.47 1202.78 1386.86 1200.94 C 1386.64 1200.53 1385.87 1198.95 1385.38 1198.41 L 1383.72 1198.91 C 1381.77 1199.47 1380.67 1198.72 1379.06 1197.76 L 1377.53 1195.88 C 1375.21 1194.75 1375.15 1194.91 1373.89 1192.73 L 1372.76 1190.63 C 1374.44 1187.84 1382.01 1180.01 1384.76 1177.02 z" fill="rgb(3,221,229)" transform="translate(0,0)"></path>
<path d="M 1397.16 1182.58 L 1398.3 1183.61 C 1402.72 1186.5 1403.3 1186.12 1400.82 1190.27 C 1396.42 1193.01 1393.44 1200.03 1388.75 1205.23 C 1387.89 1203.52 1387.47 1202.78 1386.86 1200.94 C 1386.64 1200.53 1385.87 1198.95 1385.38 1198.41 C 1386.93 1193.4 1392.43 1188.1 1395.97 1183.97 L 1397.16 1182.58 z" fill="rgb(3,221,229)" transform="translate(0,0)"></path>
<path d="M 1397.16 1182.58 L 1398.3 1183.61 C 1394.82 1189.39 1390.63 1195.17 1386.86 1200.94 C 1386.64 1200.53 1385.87 1198.95 1385.38 1198.41 C 1386.93 1193.4 1392.43 1188.1 1395.97 1183.97 L 1397.16 1182.58 z" fill="rgb(2,92,100)" transform="translate(0,0)"></path>
<path d="M 1384.76 1177.02 C 1385.46 1177.55 1386.9 1177.94 1387.61 1178.2 C 1390.01 1177.41 1390.27 1177.84 1391.17 1180.18 C 1387.06 1184.56 1378.96 1191.15 1377.53 1195.88 C 1375.21 1194.75 1375.15 1194.91 1373.89 1192.73 L 1372.76 1190.63 C 1374.44 1187.84 1382.01 1180.01 1384.76 1177.02 z" fill="rgb(3,221,229)" transform="translate(0,0)"></path>
<path d="M 1384.76 1177.02 C 1385.46 1177.55 1386.9 1177.94 1387.61 1178.2 C 1382.03 1185.21 1379.77 1186.6 1373.89 1192.73 L 1372.76 1190.63 C 1374.44 1187.84 1382.01 1180.01 1384.76 1177.02 z" fill="rgb(2,92,100)" transform="translate(0,0)"></path>
<path d="M 1391.17 1180.18 L 1392.67 1181.51 C 1389.51 1186.81 1383.7 1193.83 1379.06 1197.76 L 1377.53 1195.88 C 1378.96 1191.15 1387.06 1184.56 1391.17 1180.18 z" fill="rgb(2,92,100)" transform="translate(0,0)"></path>
<path d="M 1360.07 1185.06 C 1359.53 1184.63 1358.62 1184.02 1358.29 1183.44 C 1358.21 1184.01 1371.25 1162.88 1378.96 1169.51 C 1380.57 1172.23 1380.83 1172.16 1383.48 1174.21 C 1384.63 1174.7 1384.52 1175.93 1384.76 1177.02 C 1382.01 1180.01 1374.44 1187.84 1372.76 1190.63 C 1370.65 1191.21 1370.65 1191.46 1369.16 1189.85 L 1367.44 1187.38 C 1365.68 1187.69 1365.92 1187.69 1364.27 1187.39 C 1362.49 1186.27 1361.93 1185.9 1360.07 1185.06 z" fill="rgb(2,92,100)" transform="translate(0,0)"></path>
<path d="M 1383.48 1174.21 C 1384.63 1174.7 1384.52 1175.93 1384.76 1177.02 C 1382.01 1180.01 1374.44 1187.84 1372.76 1190.63 C 1370.65 1191.21 1370.65 1191.46 1369.16 1189.85 L 1367.44 1187.38 C 1365.68 1187.69 1365.92 1187.69 1364.27 1187.39 C 1370.66 1174.58 1374.27 1179.74 1383.48 1174.21 z" fill="rgb(3,221,229)" transform="translate(0,0)"></path>
<path d="M 1367.44 1187.38 C 1372.27 1182.11 1375.91 1179.73 1381.57 1175.73 C 1378.21 1179.86 1370.95 1187.13 1369.16 1189.85 L 1367.44 1187.38 z" fill="rgb(14,119,112)" transform="translate(0,0)"></path>
<path d="M 1360.07 1185.06 C 1359.53 1184.63 1358.62 1184.02 1358.29 1183.44 C 1358.21 1184.01 1371.25 1162.88 1378.96 1169.51 L 1377.47 1170.32 C 1368.28 1175.09 1366.5 1180.83 1360.07 1185.06 z" fill="rgb(3,221,229)" transform="translate(0,0)"></path>
<path d="M 1404.73 1190.26 C 1406.64 1188.9 1408.75 1188.66 1408.41 1191.7 C 1408.97 1192.56 1409.75 1193.26 1410.47 1194.01 C 1415.11 1194.47 1416.39 1197.67 1412.03 1199.55 C 1409.88 1200.47 1396.8 1218.6 1397.36 1211.14 C 1396.99 1210.19 1396.5 1208.82 1396.02 1207.92 C 1393.65 1209.24 1393.36 1208.18 1391.54 1206.31 C 1390.38 1205.73 1390.01 1205.41 1388.75 1205.23 C 1393.44 1200.03 1396.42 1193.01 1400.82 1190.27 C 1401.88 1190.38 1403.69 1190.28 1404.73 1190.26 z" fill="rgb(3,221,229)" transform="translate(0,0)"></path>
<path d="M 1408.41 1191.7 C 1408.97 1192.56 1409.75 1193.26 1410.47 1194.01 C 1415.11 1194.47 1416.39 1197.67 1412.03 1199.55 C 1409.88 1200.47 1396.8 1218.6 1397.36 1211.14 C 1396.99 1210.19 1396.5 1208.82 1396.02 1207.92 C 1399.99 1202.39 1404.12 1196.98 1408.41 1191.7 z" fill="rgb(3,221,229)" transform="translate(0,0)"></path>
<path d="M 1408.41 1191.7 C 1408.97 1192.56 1409.75 1193.26 1410.47 1194.01 C 1406.16 1200.72 1401.99 1204.9 1397.36 1211.14 C 1396.99 1210.19 1396.5 1208.82 1396.02 1207.92 C 1399.99 1202.39 1404.12 1196.98 1408.41 1191.7 z" fill="rgb(9,97,118)" transform="translate(0,0)"></path>
<path d="M 1388.75 1205.23 C 1393.44 1200.03 1396.42 1193.01 1400.82 1190.27 C 1401.88 1190.38 1403.69 1190.28 1404.73 1190.26 C 1400.75 1195.94 1396.35 1201.31 1391.54 1206.31 C 1390.38 1205.73 1390.01 1205.41 1388.75 1205.23 z" fill="rgb(2,92,100)" transform="translate(0,0)"></path>
<path d="M 969.165 1396.76 L 970.425 1397.66 C 972.809 1406.59 973.959 1414.33 975.416 1423.41 C 958.85 1447.27 948.264 1467.51 933.917 1492.22 C 915.43 1495.12 894.063 1499.25 875.775 1503.03 C 872.745 1503.61 871.178 1504.37 868.457 1503.61 C 881.674 1488.44 897.355 1473.17 910.154 1458.21 C 930.393 1434.56 946.099 1417.54 969.165 1396.76 z" fill="rgb(2,92,100)" transform="translate(0,0)"></path>
<path d="M 953.976 1420.25 C 956.158 1423.2 958.071 1426.31 960.093 1429.37 C 959.465 1429.91 954.403 1433.9 954.215 1434.18 C 943.877 1449.71 932.615 1464.57 922.282 1480.1 C 918.549 1485.72 919.561 1486.08 915.794 1480.73 C 913.762 1478.78 913.649 1478.86 912.54 1476.29 C 911.319 1477.7 898.227 1495.11 899.127 1487.57 C 899.287 1486.23 905.346 1479.33 906.734 1477.63 C 922.774 1458.7 936.987 1438.39 953.976 1420.25 z" fill="rgb(3,221,229)" transform="translate(0,0)"></path>
<path d="M 912.54 1476.29 C 926.981 1460.99 935.54 1441.07 953.81 1429.05 C 949.289 1437.29 922.217 1477.16 915.794 1480.73 C 913.762 1478.78 913.649 1478.86 912.54 1476.29 z" fill="rgb(9,97,118)" transform="translate(0,0)"></path>
<path d="M 1213.44 1365.15 C 1212.21 1364.39 1210.52 1363.79 1209.98 1362.33 C 1211.07 1359.01 1222.97 1345.03 1225.47 1340.9 C 1226.14 1339.79 1230 1341.48 1230.78 1341.76 C 1234.38 1344.07 1247.95 1348.9 1252.54 1350.83 C 1270.76 1358.51 1291.36 1365.01 1309.21 1373.32 C 1314.1 1374.31 1341.73 1385.34 1351.14 1388.08 C 1351.07 1392.54 1351.03 1396.88 1350.85 1401.35 C 1348.89 1404.29 1351.31 1411.99 1349.78 1415.33 C 1349.19 1416.6 1348.04 1412.09 1347.92 1411.94 C 1347.72 1411.89 1347.52 1411.85 1347.31 1411.8 L 1347.31 1411.91 C 1345.75 1413.59 1342.61 1409.88 1341.88 1408.91 C 1342.45 1406.69 1344.64 1400.22 1340.04 1403.05 C 1338.83 1403.53 1336.56 1404.65 1335.53 1403.01 L 1335.53 1402.85 C 1333.16 1402.27 1330.39 1403.26 1328.78 1401.72 C 1329.11 1402.04 1327.83 1400.69 1327.47 1400.61 C 1326.12 1401.08 1325.3 1401.36 1323.85 1401.36 L 1319.86 1401.38 C 1322.8 1398.83 1324.84 1397.51 1327.82 1395.19 C 1324.63 1394.41 1319.98 1393.54 1317.03 1392.48 C 1297.27 1388.05 1277.62 1383.1 1258.11 1377.63 C 1249.87 1375.28 1219.32 1365.47 1213.44 1365.15 z" fill="url(#Gradient3)" transform="translate(0,0)"></path>
<path d="M 1213.44 1365.15 C 1212.21 1364.39 1210.52 1363.79 1209.98 1362.33 C 1211.07 1359.01 1222.97 1345.03 1225.47 1340.9 C 1226.14 1339.79 1230 1341.48 1230.78 1341.76 C 1234.38 1344.07 1247.95 1348.9 1252.54 1350.83 C 1270.76 1358.51 1291.36 1365.01 1309.21 1373.32 C 1306.35 1377.31 1306.31 1377.29 1300.98 1375.15 C 1289.64 1370.6 1277.8 1370.17 1265.86 1368.6 C 1263.25 1368.3 1262.21 1367.66 1259.6 1366.77 L 1258.07 1366.28 L 1256.59 1365.77 C 1249.91 1363.53 1244.49 1361.3 1237.51 1360.03 C 1229.16 1358.51 1226.87 1361.8 1220.2 1356.85 C 1219.26 1357.49 1215.22 1363.22 1213.44 1365.15 z" fill="rgb(158,164,174)" transform="translate(0,0)"></path>
<path d="M 1213.44 1365.15 C 1212.21 1364.39 1210.52 1363.79 1209.98 1362.33 C 1211.07 1359.01 1222.97 1345.03 1225.47 1340.9 C 1226.14 1339.79 1230 1341.48 1230.78 1341.76 C 1227.27 1347.17 1224.16 1351.7 1220.2 1356.85 C 1219.26 1357.49 1215.22 1363.22 1213.44 1365.15 z" fill="rgb(253,253,253)" transform="translate(0,0)"></path>
<path d="M 1213.44 1365.15 C 1215.22 1363.22 1219.26 1357.49 1220.2 1356.85 C 1226.87 1361.8 1229.16 1358.51 1237.51 1360.03 C 1244.49 1361.3 1249.91 1363.53 1256.59 1365.77 L 1258.07 1366.28 L 1259.6 1366.77 C 1262.21 1367.66 1263.25 1368.3 1265.86 1368.6 C 1272.32 1380 1272.51 1373.58 1284.95 1375.91 C 1287.98 1376.48 1290.6 1377.38 1293.37 1377.95 C 1297.28 1373.1 1318.85 1385.22 1317.03 1392.48 C 1297.27 1388.05 1277.62 1383.1 1258.11 1377.63 C 1249.87 1375.28 1219.32 1365.47 1213.44 1365.15 z" fill="rgb(192,208,224)" transform="translate(0,0)"></path>
<path d="M 1175.43 947.267 C 1185.35 950.138 1195.52 953.175 1205.43 955.941 C 1189.91 971.394 1173.92 991.248 1159.11 1007.55 C 1153.77 1013.43 1147.88 1021.47 1142.17 1026.82 C 1142.61 1025.4 1144.32 1021.44 1144.48 1020.51 C 1138.9 1013.8 1129.98 1008.38 1124.42 1002.16 C 1117.64 994.59 1118.95 993.118 1109.51 992.564 C 1115.2 987.805 1130.04 977.69 1136.65 973.374 C 1148.79 965.455 1163.33 954.398 1175.43 947.267 z" fill="rgb(1,129,86)" transform="translate(0,0)"></path>
<path d="M 1675 874.172 C 1715.74 873.229 1746.62 879.836 1785.14 891.652 C 1772.66 892.224 1760.2 893.097 1747.76 894.27 C 1711.37 897.938 1694.5 903.194 1660.3 914.186 C 1665.44 900.936 1670.34 887.596 1675 874.172 z" fill="url(#Gradient2)" transform="translate(0,0)"></path>
<path d="M 1319.86 1401.38 L 1323.85 1401.36 C 1325.3 1401.36 1326.12 1401.08 1327.47 1400.61 C 1327.83 1400.69 1329.11 1402.04 1328.78 1401.72 C 1330.39 1403.26 1333.16 1402.27 1335.53 1402.85 L 1335.53 1403.01 C 1336.56 1404.65 1338.83 1403.53 1340.04 1403.05 C 1344.64 1400.22 1342.45 1406.69 1341.88 1408.91 C 1338.26 1413.08 1337.34 1423.15 1334.55 1420.32 C 1335.1 1417.24 1336.25 1413.08 1335.54 1410.33 C 1326.49 1417.89 1299.22 1446.4 1290.38 1455.94 C 1289.16 1462.16 1287.07 1475.81 1283.83 1480.81 C 1281.59 1481.15 1282.35 1481.21 1280.16 1480.83 C 1274.65 1481.03 1264.76 1479.92 1258.91 1479.42 C 1252.03 1478.82 1245.96 1478.26 1239.05 1478.18 C 1239.79 1477.62 1241.21 1476.6 1241.92 1475.93 C 1245.81 1475.95 1263.43 1472.6 1269 1471.89 C 1270.48 1471.54 1275.06 1470.8 1275.17 1470.37 C 1276.33 1466.01 1279.84 1448.79 1280.55 1445.23 C 1281.11 1442.85 1281.65 1440.47 1282.17 1438.08 L 1282.55 1436.88 C 1284.94 1428.97 1299.98 1418.77 1307.43 1412.16 C 1309.43 1410.21 1311.61 1408.59 1313.74 1406.76 C 1315.33 1404.8 1317.77 1402.81 1319.86 1401.38 z" fill="rgb(192,208,224)" transform="translate(0,0)"></path>
<path d="M 1319.86 1401.38 L 1323.85 1401.36 C 1325.3 1401.36 1326.12 1401.08 1327.47 1400.61 C 1327.83 1400.69 1329.11 1402.04 1328.78 1401.72 C 1330.39 1403.26 1333.16 1402.27 1335.53 1402.85 L 1335.53 1403.01 C 1336.56 1404.65 1338.83 1403.53 1340.04 1403.05 C 1337.79 1404.52 1335.58 1406.05 1333.41 1407.65 C 1327.52 1411.91 1320.02 1421.34 1313.81 1426.79 C 1306.03 1433.62 1298.23 1443.02 1290.47 1450.39 C 1289.84 1446.15 1289.16 1439.08 1289.38 1434.83 C 1286.91 1436.1 1284.74 1437.04 1282.17 1438.08 L 1282.55 1436.88 C 1284.94 1428.97 1299.98 1418.77 1307.43 1412.16 C 1309.43 1410.21 1311.61 1408.59 1313.74 1406.76 C 1315.33 1404.8 1317.77 1402.81 1319.86 1401.38 z" fill="rgb(158,164,174)" transform="translate(0,0)"></path>
<path d="M 1307.43 1412.16 C 1306.89 1414.91 1306.68 1416.11 1306.54 1418.95 C 1300.34 1425.07 1296.75 1429.87 1289.38 1434.83 C 1286.91 1436.1 1284.74 1437.04 1282.17 1438.08 L 1282.55 1436.88 C 1284.94 1428.97 1299.98 1418.77 1307.43 1412.16 z" fill="rgb(253,253,253)" transform="translate(0,0)"></path>
<path d="M 1313.74 1406.76 L 1314.08 1407.89 C 1315.24 1411.29 1308.75 1416.86 1306.54 1418.95 C 1306.68 1416.11 1306.89 1414.91 1307.43 1412.16 C 1309.43 1410.21 1311.61 1408.59 1313.74 1406.76 z" fill="rgb(192,208,224)" transform="translate(0,0)"></path>
<path d="M 1280.55 1445.23 C 1288.42 1443.69 1285.95 1452.11 1286.17 1458.9 C 1285.88 1464.83 1284.76 1473.55 1280.97 1478.23 C 1274.9 1475.01 1277.05 1471.79 1273.16 1472.13 L 1269 1471.89 C 1270.48 1471.54 1275.06 1470.8 1275.17 1470.37 C 1276.33 1466.01 1279.84 1448.79 1280.55 1445.23 z" fill="rgb(140,149,159)" transform="translate(0,0)"></path>
<path d="M 1350.85 1401.35 C 1351.81 1413.19 1351.35 1450.14 1351.12 1463.28 C 1351.11 1468.44 1351.24 1473.59 1351.13 1478.74 C 1351.08 1480.53 1351.38 1487.01 1350.36 1488.05 C 1348.92 1488.27 1338.62 1485.66 1336.48 1485.22 L 1331.48 1484.18 C 1319.07 1481.71 1320.12 1483.98 1322.41 1472.02 C 1323.23 1467.59 1324.14 1463.22 1325.33 1458.87 C 1325.5 1458.19 1325.65 1457.52 1325.8 1456.84 C 1327.06 1451.04 1332.57 1424.62 1334.55 1420.32 C 1337.34 1423.15 1338.26 1413.08 1341.88 1408.91 C 1342.61 1409.88 1345.75 1413.59 1347.31 1411.91 L 1347.31 1411.8 C 1347.52 1411.85 1347.72 1411.89 1347.92 1411.94 C 1348.04 1412.09 1349.19 1416.6 1349.78 1415.33 C 1351.31 1411.99 1348.89 1404.29 1350.85 1401.35 z" fill="url(#Gradient1)" transform="translate(0,0)"></path>
<path d="M 1322.41 1472.02 C 1329.4 1473.48 1337.12 1475.45 1343.91 1477.61 C 1345.57 1477.86 1347.1 1477.88 1348.77 1477.96 L 1351.13 1478.74 C 1351.08 1480.53 1351.38 1487.01 1350.36 1488.05 C 1348.92 1488.27 1338.62 1485.66 1336.48 1485.22 L 1331.48 1484.18 C 1319.07 1481.71 1320.12 1483.98 1322.41 1472.02 z" fill="rgb(253,253,253)" transform="translate(0,0)"></path>
<path d="M 1325.33 1458.87 C 1328.72 1456.7 1327.43 1457.8 1328.94 1459.5 C 1332.39 1463.36 1338.44 1464.52 1339.42 1470.98 C 1339.58 1471.95 1340.68 1472.69 1341.75 1472.51 C 1341.87 1472.21 1341.99 1471.91 1342.11 1471.62 C 1342.22 1471.5 1342.33 1471.38 1342.44 1471.26 C 1343.23 1471.95 1343.74 1476.47 1343.91 1477.61 C 1337.12 1475.45 1329.4 1473.48 1322.41 1472.02 C 1323.23 1467.59 1324.14 1463.22 1325.33 1458.87 z" fill="rgb(192,208,224)" transform="translate(0,0)"></path>
<path d="M 1348.77 1477.96 C 1348.33 1475.34 1347.37 1468.67 1348.53 1466.28 C 1348.76 1466.69 1348.99 1467.11 1349.22 1467.53 L 1349.45 1467.53 C 1349.76 1467.24 1350.05 1466.48 1350.19 1466.08 L 1351.12 1463.28 C 1351.11 1468.44 1351.24 1473.59 1351.13 1478.74 L 1348.77 1477.96 z" fill="rgb(192,208,224)" transform="translate(0,0)"></path>
<path d="M 1608.54 803.715 C 1617.85 801.554 1627.15 807.328 1629.35 816.63 C 1631.55 825.932 1625.81 835.26 1616.52 837.493 C 1607.17 839.739 1597.78 833.962 1595.57 824.609 C 1593.36 815.255 1599.17 805.887 1608.54 803.715 z" fill="rgb(6,235,224)" transform="translate(0,0)"></path>
<path d="M 1609.24 817.647 C 1611.37 816.34 1614.15 816.968 1615.52 819.063 C 1616.89 821.159 1616.34 823.961 1614.28 825.385 C 1612.9 826.342 1611.1 826.473 1609.6 825.726 C 1608.09 824.98 1607.11 823.474 1607.03 821.794 C 1606.96 820.114 1607.8 818.526 1609.24 817.647 z" fill="rgb(8,12,20)" transform="translate(0,0)"></path>
<path d="M 1320.14 1487.73 C 1330.4 1490.1 1340.58 1493.66 1350.82 1495.78 C 1337.3 1504.68 1324.4 1514.9 1311.08 1524.05 C 1311.05 1521.23 1311.1 1518.81 1311.21 1516 C 1312.56 1512.63 1313.42 1508.77 1311.98 1505.37 C 1316.05 1500.2 1318.11 1493.91 1320.14 1487.73 z" fill="rgb(158,164,174)" transform="translate(0,0)"></path>
<path d="M 1287.66 1518.42 C 1289.23 1517.33 1309.74 1506.44 1311.98 1505.37 C 1313.42 1508.77 1312.56 1512.63 1311.21 1516 C 1311.1 1518.81 1311.05 1521.23 1311.08 1524.05 C 1307.27 1527.26 1307.48 1527.42 1303.12 1529.6 C 1294.66 1529.54 1285.81 1529.95 1277.3 1530.01 C 1271.01 1529.93 1264.77 1529.99 1258.46 1529.88 C 1268.59 1526.27 1277.91 1523.12 1287.66 1518.42 z" fill="rgb(140,149,159)" transform="translate(0,0)"></path>
<path d="M 1258.46 1529.88 C 1268.59 1526.27 1277.91 1523.12 1287.66 1518.42 C 1283.84 1523.3 1280.88 1525.45 1277.3 1530.01 C 1271.01 1529.93 1264.77 1529.99 1258.46 1529.88 z" fill="rgb(192,208,224)" transform="translate(0,0)"></path>
<path d="M 1307.82 1515.81 L 1311.21 1516 C 1311.1 1518.81 1311.05 1521.23 1311.08 1524.05 C 1307.27 1527.26 1307.48 1527.42 1303.12 1529.6 C 1304.46 1524.91 1306.24 1520.41 1307.82 1515.81 z" fill="rgb(253,253,253)" transform="translate(0,0)"></path>
<path d="M 1311.98 1505.37 C 1313.42 1508.77 1312.56 1512.63 1311.21 1516 L 1307.82 1515.81 C 1309.67 1511.59 1310.79 1509.72 1311.98 1505.37 z" fill="rgb(192,208,224)" transform="translate(0,0)"></path>
<path d="M 686.703 534.53 C 690.715 536.522 694.882 538.154 698.766 540.407 L 697.119 543.11 C 693.221 541.117 689.668 538.521 685.92 536.233 L 686.703 534.53 z" fill="rgb(14,119,112)" transform="translate(0,0)"></path>
<path d="M 956.347 1319.19 C 960.814 1315.38 965.157 1313.13 970.13 1310.19 C 966.163 1314.26 962.632 1317.7 957.971 1320.99 L 956.347 1319.19 z" fill="rgb(13,70,59)" transform="translate(0,0)"></path>
<path d="M 948.793 751.465 C 958.524 757.403 947.397 754.105 944.345 753.486 L 948.793 751.465 z" fill="rgb(16,185,129)" transform="translate(0,0)"></path>
<path d="M 1051.72 813.718 C 1058.32 814.64 1054.25 816.551 1048 815.399 L 1051.72 813.718 z" fill="rgb(13,70,59)" transform="translate(0,0)"></path>
<path d="M 1239.05 1478.18 C 1238.15 1478.01 1236.99 1478.09 1236.59 1477.32 C 1237.48 1476.24 1240.68 1476.06 1241.92 1475.93 C 1241.21 1476.6 1239.79 1477.62 1239.05 1478.18 z" fill="rgb(95,101,99)" transform="translate(0,0)"></path>
<metadata><recraft-signature>{"signed_by": "recraft", "signature_b64": "yAPUJGQ+pjCT5p0QwAPJMD6USS66J9hYCBi2zXpLa5LppjFgF0NllPtFTvt99/IlRFnBprRBzrQSJJFtp001DA==", "signing_algo": "Ed25519", "generation_timestamp": 1774688474, "identifier": "201be979-1a08-4f55-97a5-07ba7bd5037d"}</recraft-signature></metadata></svg>