<svg xmlns="http://www.w3.org/2000/svg" height="1024" preserveAspectRatio="none" style="display: block;" version="1.1" viewBox="0 0 2048 2048" width="1024">
<defs>
	<linearGradient gradientUnits="userSpaceOnUse" id="Gradient1" x1="1483.69" x2="1457.3" y1="879.746" y2="906.252">
		<stop class="stop0" offset="0" stop-color="rgb(134,151,169)" stop-opacity="1"></stop>
		<stop class="stop1" offset="1" stop-color="rgb(160,176,199)" stop-opacity="1"></stop>
	</linearGradient>
	<linearGradient gradientUnits="userSpaceOnUse" id="Gradient2" x1="1269.88" x2="1356.12" y1="499.476" y2="650.524">
		<stop class="stop0" offset="0" stop-color="rgb(139,150,169)" stop-opacity="1"></stop>
		<stop class="stop1" offset="1" stop-color="rgb(171,190,203)" stop-opacity="1"></stop>
	</linearGradient>
	<linearGradient gradientUnits="userSpaceOnUse" id="Gradient3" x1="1235.97" x2="1431.36" y1="557.752" y2="714.864">
		<stop class="stop0" offset="0" stop-color="rgb(123,139,159)" stop-opacity="1"></stop>
		<stop class="stop1" offset="1" stop-color="rgb(199,206,215)" stop-opacity="1"></stop>
	</linearGradient>
</defs>
<path d="M 0 0 L 2048 0 L 2048 2048 L 0 2048 L 0 0 z" fill="rgb(8,12,20)" transform="translate(0,0)"></path>
<path d="M 499.928 410.48 C 534.579 423.593 571.855 440.419 606.545 454.682 L 863.379 560.535 L 1005.82 619.001 C 1021.21 625.4 1045.89 634.761 1059.87 642.976 C 1066.62 646.946 1087.63 676.834 1093.99 684.482 C 1125.43 722.3 1155.68 765.194 1189.27 800.966 C 1180.64 819.323 1170.43 836.569 1161.27 854.495 C 1143.61 889.085 1124.17 923.267 1106.37 957.631 C 1087.72 994.324 1068.83 1030.89 1049.69 1067.33 C 1042.23 1081.79 1031.02 1105.62 1022.98 1118.94 L 1038.64 1111.59 C 1028.95 1134.68 1013.88 1160.96 1002.48 1184.01 L 977.403 1234.93 C 973.548 1242.71 966.734 1257.4 961.942 1263.85 C 966.642 1238.08 972.912 1206.54 980.581 1181.26 C 940.35 1215.27 898.432 1247.49 857.934 1281.22 C 851.514 1286.57 844.951 1291.85 838.261 1296.85 C 848.084 1279.31 859.04 1261.72 869.361 1244.38 C 878.952 1228.27 889.182 1209.91 899.88 1194.69 C 845.638 1215.12 786.738 1236.21 733.203 1257.41 C 836.641 1169.09 945.962 1082.31 1051.11 995.412 L 1054.75 975.951 C 1016.04 957.447 978.233 935.994 939.842 916.766 C 914.991 904.319 890.983 890.546 865.458 879.412 C 898.764 878.825 932.496 877.606 965.69 880.524 C 988.763 882.552 1013.62 883.059 1036.33 887.238 C 1039.59 888.088 1039.38 888.086 1042.71 887.699 C 1041.84 885.931 1040.49 886.079 1037.91 885.192 L 905.061 845.867 C 888.945 841.092 852.945 831.057 838.6 824.467 C 834.03 822.367 803.915 791.619 797.638 785.427 C 772.204 759.839 746.234 734.791 719.745 710.299 C 734.965 711.879 770.19 721.237 787.315 724.852 C 838.725 735.339 890.04 746.283 941.254 757.683 C 944.948 758.544 949.552 759.472 953.097 760.57 L 956.766 760.928 L 957.172 760.225 L 953.443 758.54 C 950.764 757.46 947.726 756.486 944.967 755.536 C 924.485 746.782 894.878 736.534 873.345 728.329 L 758.052 683.767 C 747.022 679.563 695.413 661.783 688.553 655.935 C 669.024 639.289 634.427 596.717 617.028 577.071 C 602.394 560.548 583.833 542.776 571.625 527.079 C 568.76 524.45 567.959 523.799 565.736 520.682 L 566.798 520.042 L 570.466 521.065 C 589.632 530.415 610.865 537.708 630.383 546.52 C 660.961 560.325 693.262 571.735 723.588 585.874 C 725.506 586.967 726.801 587.356 728.848 588.135 L 728.789 587.062 L 724.989 583.917 C 649.679 526.482 574.658 468.669 499.928 410.48 z" fill="rgb(16,185,129)" transform="translate(0,0)"></path>
<path d="M 1119.82 1349.25 L 1130.76 1348.97 C 1124.5 1383.09 1115.25 1422.11 1108.26 1456.51 C 1102.38 1485.41 1093.16 1544.13 1083.67 1568.93 C 1079.32 1580.47 1072.37 1590.85 1063.36 1599.28 C 1035.16 1626.15 1002.9 1626.57 966.418 1626.76 C 950.794 1626.92 935.169 1626.83 919.548 1626.5 C 922.115 1613.92 924.523 1601.31 926.77 1588.68 L 976.71 1589.14 C 995.452 1589.27 1014.04 1591.64 1030.68 1581.88 C 1046.72 1567.97 1048.64 1550.2 1052.92 1530.35 C 1032.64 1554.95 1002.38 1561.52 972.456 1552.6 C 915.115 1535.51 935.315 1485.62 941.574 1445.56 C 949.961 1391.88 971.593 1355.45 1030.08 1350.14 C 1054.44 1347.97 1076.26 1351.03 1088.21 1376.6 C 1089.1 1374.69 1090.07 1372.82 1091.11 1371 C 1098.56 1357.98 1105.85 1352.92 1119.82 1349.25 z" fill="rgb(20,184,166)" transform="translate(0,0)"></path>
<path d="M 1040.85 1385.38 C 1065.24 1385.19 1079.48 1392.56 1073.59 1418.9 C 1068.19 1443.03 1064.26 1467.75 1058.02 1491.73 C 1051.56 1516.56 1031.16 1519.19 1009.53 1520.68 C 968.473 1520.56 973.512 1492.98 979.974 1463.38 C 989.651 1419.06 984.951 1389.18 1040.85 1385.38 z" fill="rgb(8,12,20)" transform="translate(0,0)"></path>
<path d="M 383.779 1348.22 L 386.415 1348.32 C 388.009 1351.85 382.249 1375.06 381.244 1380.36 C 396.917 1363.29 415.944 1351.29 439.508 1350.13 C 465.423 1348.85 485.058 1355.98 497.148 1380.1 C 518.447 1354.97 542.423 1346.28 574.813 1351.1 C 619.407 1357.75 624.662 1403.07 614.548 1438.52 C 612.192 1446.78 610.207 1458.3 608.396 1466.91 C 602.368 1495.59 596.501 1524.3 590.795 1553.04 L 547.558 1553.07 C 553.273 1523.82 559.371 1494.65 565.851 1465.57 C 569.37 1449.34 573.816 1432.09 575.565 1415.74 C 576.95 1402.79 575.261 1389.56 560.223 1387.17 C 545.265 1384.8 529.04 1384.15 515.736 1392.55 C 500.108 1402.42 498.476 1422.16 495.221 1438.73 C 490.2 1473.32 479.15 1517.16 472.407 1553 L 428.735 1552.98 C 437.687 1507.48 449.32 1462.18 457.094 1416.45 C 459.811 1401.97 453.886 1389.6 438.302 1386.94 C 380.173 1376.98 380.692 1418.6 372.627 1459.81 C 366.614 1491.04 360.32 1522.21 353.746 1553.32 C 339.536 1553.04 324.67 1553.25 310.408 1553.24 C 316.502 1523.09 343.762 1383.32 354.783 1366.01 C 361.557 1355.36 372.01 1350.97 383.779 1348.22 z" fill="rgb(20,184,166)" transform="translate(0,0)"></path>
<path d="M 1359.28 402.521 C 1367.25 420.395 1374.64 442.158 1381.62 460.7 L 1426.95 583.749 C 1437.27 612.052 1451.5 651.807 1463.82 679.231 C 1422.31 716.46 1375.46 750.727 1332.78 786.821 C 1318.27 799.096 1294.76 796.959 1276.17 797.697 C 1257.02 798.623 1237.87 799.43 1218.71 800.117 C 1254.24 762.201 1287.14 724.654 1323.42 686.652 C 1334.71 674.657 1346.29 662.931 1358.14 651.484 C 1364.39 645.374 1375.56 635.118 1380.83 628.717 C 1379.84 625.013 1378.27 621.156 1379.46 617.711 C 1382.77 613.737 1384.61 612.809 1386.55 608.151 L 1385.92 603.951 L 1382.02 597.373 C 1378.54 595.748 1377.06 595.178 1373.3 594.003 C 1368.01 574.66 1356.98 537.281 1349.85 518.867 C 1345.49 504.683 1336.65 472.805 1331.75 460.853 C 1341.47 441.038 1349.94 422.316 1359.28 402.521 z" fill="url(#Gradient3)" transform="translate(0,0)"></path>
<path d="M 1371.15 516.303 C 1379.66 493.305 1405.35 520.623 1383.9 527.394 C 1385.33 532.394 1387.79 544.055 1389.5 547.661 C 1394.97 557.239 1394.21 559.054 1386.29 565.996 C 1385.62 574.283 1385.9 595.56 1387.35 603.455 C 1407.92 626.712 1421.86 648.495 1440.22 670.96 C 1443.93 668.938 1447.61 666.579 1450.38 671.615 C 1445.38 679.624 1445.42 675.961 1438.54 678.298 C 1433.71 684.392 1420.7 699.361 1415.58 704.907 L 1377.96 704.971 C 1359.42 723.881 1339.4 749.029 1322.41 765.602 C 1326.48 770.761 1328.31 775.278 1323.19 780.927 C 1317.92 783.876 1316.53 784.041 1310.87 781.934 C 1300.08 773.786 1310.82 765.779 1319.07 762.836 C 1325.32 757.49 1331.26 750.098 1336.08 743.444 C 1335.6 730.036 1335.23 716.624 1334.97 703.21 C 1339.83 695.137 1347.26 687.972 1353.84 681.163 C 1352.89 675.714 1352.1 676.553 1354.28 672.984 C 1358.14 671.049 1356.13 671.521 1360.59 671.71 C 1363.83 673.904 1362.68 672.479 1364.1 676.174 C 1362.48 681.611 1361.35 681.207 1356.1 683.247 C 1348.05 691.071 1343.73 694.699 1338.47 704.516 C 1338.71 715.34 1339.38 731.955 1337.97 742.37 C 1349.97 728.526 1362.46 715.117 1375.42 702.169 C 1386.97 701.001 1402.01 701.383 1414.02 701.295 C 1421.76 693.682 1428.32 684.01 1436.99 675.746 L 1438.14 672.752 C 1429.19 664.11 1391.33 610.052 1386.55 608.151 L 1385.92 603.951 L 1382.02 597.373 C 1378.54 595.748 1377.06 595.178 1373.3 594.003 C 1368.01 574.66 1356.98 537.281 1349.85 518.867 C 1350.08 517.92 1350.32 515.175 1350.76 514.651 C 1352.75 514.163 1370.14 515.046 1371.15 516.303 z" fill="rgb(20,184,166)" transform="translate(0,0)"></path>
<path d="M 1349.85 518.867 C 1350.08 517.92 1350.32 515.175 1350.76 514.651 C 1352.75 514.163 1370.14 515.046 1371.15 516.303 C 1374.2 522.251 1375.98 525.253 1382.14 528.101 C 1382.18 536.203 1384.56 540.653 1378.65 545.692 C 1370.07 551.973 1368.99 561.303 1380.37 564.553 C 1384.21 569.749 1383.89 591.693 1382.02 597.373 C 1378.54 595.748 1377.06 595.178 1373.3 594.003 C 1368.01 574.66 1356.98 537.281 1349.85 518.867 z" fill="rgb(152,165,183)" transform="translate(0,0)"></path>
<path d="M 1380.48 548.417 C 1383.01 549.226 1385.12 550.175 1387.55 551.052 C 1387.84 551.713 1388.13 552.369 1388.43 553.022 C 1394.93 566.78 1367.13 560.095 1380.48 548.417 z" fill="rgb(254,254,254)" transform="translate(0,0)"></path>
<path d="M 1380.18 511.22 C 1382.12 510.378 1384.36 510.655 1386.03 511.945 C 1387.71 513.234 1388.54 515.331 1388.22 517.419 C 1387.9 519.506 1386.47 521.253 1384.49 521.979 C 1381.54 523.057 1378.28 521.599 1377.11 518.689 C 1375.95 515.779 1377.31 512.47 1380.18 511.22 z" fill="rgb(254,254,254)" transform="translate(0,0)"></path>
<path d="M 1313.97 779.697 C 1312 778.887 1310.8 776.865 1311.04 774.743 C 1311.28 772.622 1312.9 770.916 1315 770.566 C 1317.11 770.217 1319.19 771.307 1320.1 773.237 C 1321.01 775.168 1320.53 777.469 1318.93 778.874 C 1317.56 780.065 1315.65 780.383 1313.97 779.697 z" fill="rgb(254,254,254)" transform="translate(0,0)"></path>
<path d="M 1295.34 731.845 C 1304.37 735.362 1302.43 742.551 1294.69 744.275 C 1285.32 738.823 1284.09 736.922 1295.34 731.845 z" fill="rgb(20,184,166)" transform="translate(0,0)"></path>
<path d="M 1810.69 1350.41 C 1841.79 1348.22 1879.88 1351.81 1890.16 1387.29 C 1896.7 1409.88 1886.72 1440.93 1881.92 1463.7 C 1875.51 1493.87 1869.31 1524.08 1863.33 1554.34 C 1841.75 1552.25 1837.15 1547.37 1834.08 1526.03 C 1814.38 1549.59 1790.31 1558.05 1759.4 1555.99 C 1743.02 1554.89 1730.77 1550.16 1719.93 1537.23 C 1713.13 1526.44 1711.22 1517.43 1711.39 1504.93 C 1712.52 1422.95 1787.27 1426.85 1849.15 1428.24 C 1855.53 1403.09 1854.81 1390.57 1825.92 1386.62 C 1796.58 1382.61 1770.2 1389.99 1742.04 1396.77 C 1750.58 1361.07 1777.64 1353.2 1810.69 1350.41 z" fill="rgb(192,208,224)" transform="translate(0,0)"></path>
<path d="M 1785.73 1457.17 C 1804.35 1456.63 1824.02 1457.3 1842.83 1457.06 L 1841.11 1469.01 C 1837.66 1494.13 1833.31 1508.52 1808.01 1520.16 C 1796.12 1524.22 1779.43 1526.59 1768 1520.1 C 1761.57 1516.41 1756.94 1510.22 1755.23 1503 C 1749.81 1480.67 1764.06 1462.3 1785.73 1457.17 z" fill="rgb(8,12,20)" transform="translate(0,0)"></path>
<path d="M 731.401 1350.38 C 735.704 1349.96 740.02 1349.7 744.341 1349.57 C 763.308 1348.97 783.439 1352.93 797.57 1366.73 C 818.347 1387.01 820.306 1427.38 798.892 1448.14 C 777.053 1469.32 752.471 1467.14 724.326 1467.04 L 678.381 1466.83 C 669.143 1505.44 675.856 1521.4 718.529 1520.65 C 726.623 1520.5 737.479 1521.07 745.02 1517.55 C 756.943 1511.99 760.138 1501.63 775.005 1504.81 L 776.08 1505.06 C 778.696 1506.43 782.472 1508.06 783.658 1510.77 C 786.718 1517.75 781.454 1530.19 778.828 1537.18 C 741.722 1567.1 636.194 1570.98 633.246 1506.88 C 632.306 1486.43 641.144 1430.01 648.411 1410.36 C 651.899 1401.07 656.866 1392.4 663.119 1384.7 C 680.254 1363.49 704.858 1353.37 731.401 1350.38 z" fill="rgb(20,184,166)" transform="translate(0,0)"></path>
<path d="M 730.947 1384.32 C 742.649 1383.04 751.567 1383.56 761.619 1389.8 C 775.281 1398.3 773.257 1429.68 758.853 1435.47 C 754.092 1437.38 733.414 1436.73 727.25 1436.67 L 683.654 1436.1 C 684.63 1430.91 685.864 1425.62 686.773 1420.48 C 690.465 1399.6 711.166 1387.52 730.947 1384.32 z" fill="rgb(8,12,20)" transform="translate(0,0)"></path>
<path d="M 1241.69 1349.42 C 1242.51 1349.37 1243.33 1349.33 1244.16 1349.32 C 1279.84 1348.57 1311.75 1368.22 1311.58 1407.06 C 1311.51 1423.61 1307.78 1437.13 1295.61 1449.25 C 1275.55 1469.21 1245.89 1466.82 1219.9 1466.83 L 1175.76 1466.79 C 1167.86 1508.06 1175.78 1522.85 1220 1521 C 1226.13 1520.75 1240.7 1520.29 1245.91 1517.04 C 1261.13 1507.53 1267.72 1496.73 1285.23 1510.44 C 1283.68 1518.98 1282.14 1529.08 1278.93 1537.01 C 1250.73 1561.38 1179.73 1565.39 1149.38 1542.44 C 1125.69 1524.53 1128.89 1486.08 1135.42 1460.81 C 1139.85 1443.67 1141.96 1423.49 1148.74 1406.72 C 1152.12 1398.18 1156.92 1390.27 1162.93 1383.33 C 1183.38 1359.84 1211.71 1351.55 1241.69 1349.42 z" fill="rgb(20,184,166)" transform="translate(0,0)"></path>
<path d="M 1234.42 1384.41 C 1244 1384.58 1255.21 1384.67 1262.3 1391.7 C 1272.05 1401.23 1271.84 1422.2 1261.99 1431.51 C 1253.61 1439.43 1229.36 1436.7 1217.8 1436.63 C 1205.66 1436.51 1194.49 1436.33 1182.33 1436.72 C 1183.38 1429.1 1184.98 1414.78 1188.95 1408.46 C 1199.02 1392.37 1216.68 1385.93 1234.42 1384.41 z" fill="rgb(8,12,20)" transform="translate(0,0)"></path>
<path d="M 244.342 1278.48 C 274.707 1277.73 306.724 1278.46 337.225 1278.73 C 336.143 1284.28 335.012 1289.82 333.832 1295.34 C 332.652 1300.76 329.835 1310.33 325.2 1313.2 C 300.252 1328.64 239.498 1311.27 214.105 1323.06 C 205.326 1327.14 197.735 1379.81 195.322 1392.53 C 229.937 1392.89 264.554 1392.85 299.168 1392.41 C 297.576 1402.39 296.127 1415.33 288.532 1422.61 C 279.024 1431.16 264.531 1431.8 252.455 1431.73 C 230.802 1431.6 209.195 1431.31 187.582 1431.05 C 183.266 1450.91 171.532 1490.92 179.219 1508.3 C 188.351 1515.19 210.263 1512.2 221.991 1512.29 C 244.548 1512.46 267.089 1511.6 289.692 1512.29 C 287.246 1525.58 283.945 1539.89 281.151 1553.2 L 229.895 1553.25 C 205.401 1553.33 175.184 1556.8 155.186 1539.66 C 136.766 1523.87 130.743 1496.32 135.542 1473.22 C 140.021 1451.67 144.492 1429.16 149.544 1407.72 C 154.851 1385.19 157.504 1357.68 165.077 1336.29 C 168.715 1325.96 174.334 1316.43 181.62 1308.24 C 198.592 1288.97 219.079 1280.24 244.342 1278.48 z" fill="rgb(20,184,166)" transform="translate(0,0)"></path>
<path d="M 1344.65 875.161 C 1353.18 882.995 1365.22 893.857 1374.36 900.94 L 1302.01 981.862 C 1288.23 997.46 1273.96 1015.13 1259.16 1029.62 C 1256.85 1031.88 1253.09 1032.95 1250 1033.86 L 1247.56 1034.75 C 1211.02 1047.03 1173.99 1057.83 1137.47 1070.2 C 1131.94 1072.07 1126.41 1073.95 1120.81 1075.61 C 1151.35 1030.19 1180.41 978.653 1208.98 931.646 C 1220.31 913.022 1225.89 925.774 1233.65 908.004 C 1269.17 896.352 1310.82 886.912 1344.65 875.161 z" fill="rgb(127,144,162)" transform="translate(0,0)"></path>
<path d="M 1252.17 939.296 C 1263.19 931.318 1272.16 921.817 1282.89 913.485 C 1297.67 902.008 1312.58 916.909 1325.65 902.558 C 1332.19 895.365 1338.21 887.736 1345.34 881.125 L 1346.69 879.888 C 1341.54 892.55 1329.62 904.051 1319.34 912.878 C 1309.54 912.901 1299.75 913.002 1289.96 913.18 C 1282.25 917.18 1263.99 934.769 1255.34 941.845 C 1254.68 953.98 1254.93 968.41 1255.17 980.649 C 1255.26 985.063 1256.06 985.197 1258.63 987.44 C 1266 997.141 1263.58 1004.7 1251.36 1007 C 1250.77 1015.41 1249.88 1025.55 1250 1033.86 L 1247.56 1034.75 C 1244.96 1030.9 1247.89 1013.21 1248.16 1005.93 C 1239.67 1000.57 1238.92 997.129 1245.16 989.134 C 1245.69 988.885 1250.89 985.253 1251.68 984.71 L 1252.17 939.296 z" fill="rgb(20,184,166)" transform="translate(0,0)"></path>
<path d="M 1247.6 994.614 C 1248.32 993.432 1249.53 992.629 1250.9 992.42 C 1252.27 992.211 1253.66 992.617 1254.71 993.53 C 1256.58 995.173 1256.85 997.997 1255.32 999.965 C 1253.78 1001.93 1250.98 1002.36 1248.93 1000.94 C 1246.88 999.518 1246.29 996.742 1247.6 994.614 z" fill="rgb(254,254,254)" transform="translate(0,0)"></path>
<path d="M 1374.43 1349.19 C 1377.67 1348.88 1378.74 1348.61 1381.99 1349.31 C 1388.16 1358.16 1375.59 1367.64 1383.73 1373.25 C 1391.41 1374.37 1398.78 1364.97 1406.31 1359.89 C 1421.72 1349.14 1441.97 1348.21 1460.13 1351.47 C 1524.35 1362.99 1502.52 1429.49 1494.25 1470.27 C 1488.69 1497.86 1483.35 1525.49 1478.22 1553.16 L 1435.18 1553.07 C 1442.79 1507.17 1454.71 1463.22 1462.9 1417.8 C 1463.32 1413.7 1463.41 1409.2 1463.59 1405.04 C 1458.97 1395.44 1453.08 1390.13 1442.15 1388.41 C 1422.22 1384.75 1389.43 1386.46 1380.78 1408.66 C 1375.58 1421.99 1372.38 1443.87 1369.47 1458.73 L 1351.18 1553.2 L 1308.54 1552.84 C 1309.88 1537.71 1320.24 1494.05 1323.81 1477.26 C 1327.63 1459.33 1331.33 1441.38 1334.93 1423.4 C 1338.39 1406.3 1341.49 1387.64 1348.47 1371.66 C 1354.05 1358.87 1362.14 1353.96 1374.43 1349.19 z" fill="rgb(20,184,166)" transform="translate(0,0)"></path>
<path d="M 1600.85 1293.16 C 1604.43 1292.82 1607.1 1292.15 1610.35 1293.51 C 1611.59 1299.37 1601.12 1342.62 1599.25 1350.95 L 1647.33 1351.07 C 1644.3 1363.94 1641.61 1376.89 1639.26 1389.91 C 1623.33 1389.84 1607.4 1389.61 1591.47 1389.21 C 1584.15 1420.78 1578.88 1453.32 1571.54 1484.94 C 1569.44 1493.97 1566.82 1508.6 1573.06 1516.32 C 1580.32 1519.6 1598.78 1518.13 1607.52 1517.91 C 1605.55 1529.58 1603.68 1541.87 1600.31 1553.17 C 1588.91 1552.84 1569.14 1554.17 1558.93 1551.9 C 1510.46 1541.08 1529.94 1477.24 1536.91 1444.01 C 1540.65 1425.95 1544.55 1407.93 1548.59 1389.94 L 1523.09 1390.04 C 1526.26 1377.43 1528.85 1363.73 1531.49 1350.93 L 1557.71 1351.01 C 1562.24 1322.11 1569.92 1302.32 1600.85 1293.16 z" fill="rgb(192,208,224)" transform="translate(0,0)"></path>
<path d="M 1050.32 1087.16 C 1084.96 1025.41 1119.26 963.463 1153.21 901.326 L 1181.7 850.325 C 1186.29 842.153 1195.16 827.324 1198.24 819.296 C 1202.81 839.924 1204.92 868.972 1208.5 890.556 C 1210.8 904.489 1202.99 898.498 1208.95 914.656 L 1202.75 923.119 C 1198.75 934.142 1186.58 950.219 1180.65 961.022 C 1169.58 981.205 1158.09 1001.29 1146.88 1021.39 C 1136.91 1039.27 1125.81 1057.76 1116.96 1076.16 C 1094.08 1083.66 1065.04 1094.21 1042.37 1100.66 C 1043.69 1098.34 1048.99 1088.65 1050.32 1087.16 z" fill="rgb(192,208,224)" transform="translate(0,0)"></path>
<path d="M 1131.27 997.778 C 1131.88 997.867 1135.28 998.024 1135.36 997.964 C 1149.34 987.922 1190.33 931.344 1202.75 923.119 C 1198.75 934.142 1186.58 950.219 1180.65 961.022 C 1169.58 981.205 1158.09 1001.29 1146.88 1021.39 C 1136.91 1039.27 1125.81 1057.76 1116.96 1076.16 C 1094.08 1083.66 1065.04 1094.21 1042.37 1100.66 C 1043.69 1098.34 1048.99 1088.65 1050.32 1087.16 L 1051.58 1087.76 C 1052.18 1087.71 1052.78 1087.66 1053.38 1087.62 C 1070.4 1068.08 1106.16 1030.68 1121.89 1013.25 C 1121.17 1004.48 1123.64 1002.55 1131.27 997.778 z" fill="rgb(127,144,162)" transform="translate(0,0)"></path>
<path d="M 1131.27 997.778 L 1133.14 998.335 C 1136.45 999.232 1138.9 1001.57 1140.42 1004.62 C 1142.68 1009.16 1139.74 1017.21 1135.02 1019.18 C 1128.77 1021.79 1125.77 1016.68 1121.89 1013.25 C 1121.17 1004.48 1123.64 1002.55 1131.27 997.778 z" fill="rgb(20,184,166)" transform="translate(0,0)"></path>
<path d="M 1128.49 1004.75 C 1131.1 1002.93 1134.69 1003.54 1136.57 1006.1 C 1138.45 1008.67 1137.94 1012.27 1135.42 1014.22 C 1133.73 1015.52 1131.47 1015.81 1129.51 1014.96 C 1127.55 1014.12 1126.21 1012.28 1125.99 1010.16 C 1125.78 1008.03 1126.74 1005.96 1128.49 1004.75 z" fill="rgb(254,254,254)" transform="translate(0,0)"></path>
<path d="M 875.7 1349.13 C 879.822 1348.85 884.084 1348.8 888.225 1348.68 L 882.741 1381.82 C 902.506 1352.14 920.139 1350.87 952.501 1351.09 C 950.352 1363.87 948.142 1376.48 946.578 1389.35 C 911.439 1388.31 886.632 1384.61 877.67 1427.91 C 873.068 1450.14 868.588 1473.43 863.7 1495.63 C 860.312 1514.83 856.502 1533.96 852.273 1552.99 L 809.121 1553.05 C 813.69 1523.92 822.107 1490.41 828.458 1460.76 C 834.636 1431.93 838.997 1395.63 850.289 1369.15 C 854.836 1358.49 864.856 1352.37 875.7 1349.13 z" fill="rgb(20,184,166)" transform="translate(0,0)"></path>
<path d="M 1312.25 473.126 C 1314.43 477.365 1316.22 482.019 1317.99 486.471 C 1332.66 523.374 1348.2 560.03 1361.91 597.288 C 1362.64 599.265 1362.11 608.195 1362.12 610.816 L 1364.3 615.227 L 1365.54 617.551 C 1359.94 630.432 1323.07 666.012 1314.23 678.314 C 1311.48 670.927 1307.55 661.204 1305.23 653.803 C 1304.58 652.315 1304.31 651.628 1303.77 650.068 C 1292.98 620.112 1279.02 579.975 1270.59 550.013 C 1283.84 525.272 1298.4 497.043 1312.25 473.126 z" fill="url(#Gradient2)" transform="translate(0,0)"></path>
<path d="M 1282.67 545.61 C 1286.55 541.935 1287.74 540.57 1293.21 541.44 C 1300.61 546.411 1303 551.337 1298.23 559.614 C 1296.48 562.647 1298.67 563.602 1300.21 565.854 C 1310.6 580.965 1321.38 596.507 1331.3 611.906 C 1343.73 611.924 1349.8 611.785 1362.12 610.816 L 1364.3 615.227 C 1353.34 614.717 1340.27 615.033 1329.1 614.983 C 1323.4 604.441 1302.21 574.731 1293.46 565.088 C 1290.15 561.431 1273.72 556.305 1282.67 545.61 z" fill="rgb(20,184,166)" transform="translate(0,0)"></path>
<path d="M 1285.46 546.77 C 1290.86 546.376 1290.54 546.357 1295.79 547.963 C 1295.74 548.699 1295.91 553.011 1295.89 553.042 C 1291.65 561.397 1282.32 558.197 1285.46 546.77 z" fill="rgb(254,254,254)" transform="translate(0,0)"></path>
<path d="M 1303.77 650.068 C 1319.22 630.623 1330.49 655.377 1315.01 657.417 C 1311.91 657.825 1308.23 655.111 1305.23 653.803 C 1304.58 652.315 1304.31 651.628 1303.77 650.068 z" fill="rgb(20,184,166)" transform="translate(0,0)"></path>
<path d="M 1310.35 647.648 C 1311.33 646.5 1312.89 646.028 1314.35 646.439 C 1315.8 646.849 1316.89 648.067 1317.13 649.56 C 1317.37 651.053 1316.71 652.549 1315.46 653.393 C 1313.85 654.476 1311.69 654.203 1310.4 652.753 C 1309.11 651.303 1309.09 649.122 1310.35 647.648 z" fill="rgb(192,208,224)" transform="translate(0,0)"></path>
<path d="M 1687.17 1350.18 C 1695.03 1349.74 1703.59 1350.08 1711.52 1350.24 C 1704.95 1387.18 1696.21 1424.98 1688.6 1461.8 C 1682.37 1491.97 1676.73 1523.54 1669.49 1553.41 L 1652.45 1553.25 L 1626.77 1553.24 C 1633.84 1524.57 1661.18 1371.39 1668.92 1359.15 C 1672.83 1352.97 1680.56 1351.55 1687.17 1350.18 z" fill="rgb(192,208,224)" transform="translate(0,0)"></path>
<path d="M 1254.75 585.167 C 1259.5 594.339 1263.7 604.391 1267.87 613.886 C 1273.99 628.606 1280.28 643.255 1286.74 657.828 C 1291.17 666.607 1294.02 673.427 1297.69 682.475 C 1298.29 684.871 1298.48 686.159 1298.89 688.599 C 1295.45 699.104 1226.44 764.155 1212.84 778.728 C 1212.87 755.555 1218.52 727.491 1221.65 704.189 C 1224.82 680.523 1226.45 674.598 1221.65 650.906 C 1229.58 633.747 1245.38 600.71 1254.75 585.167 z" fill="rgb(192,208,224)" transform="translate(0,0)"></path>
<path d="M 1258.1 621.622 L 1256.72 620.157 C 1253.78 617.071 1251.78 615.697 1253.27 611.147 C 1258.38 609.08 1260.58 612.086 1264.34 615.307 L 1261.32 619.42 C 1264.89 627.89 1274.71 654.527 1281.66 658.67 C 1284.76 658.535 1283.86 658.773 1286.74 657.828 C 1291.17 666.607 1294.02 673.427 1297.69 682.475 C 1287.43 696.788 1288.06 688.691 1278.14 693.001 C 1270.92 696.141 1239.47 739.018 1232.8 737.48 C 1234.57 733.089 1271.26 694.446 1276.87 688.443 C 1275.61 680.041 1275.02 678.325 1281.55 672.35 C 1279.59 664.709 1262.6 632.92 1258.1 621.622 z" fill="rgb(20,184,166)" transform="translate(0,0)"></path>
<path d="M 1283.08 676.404 C 1291.96 678.86 1291.06 682.125 1287.02 689.7 C 1279.02 686.195 1278.66 682.896 1283.08 676.404 z" fill="rgb(254,254,254)" transform="translate(0,0)"></path>
<path d="M 1439.85 804.218 L 1441.92 804.682 C 1442.02 809.593 1441.86 812.707 1441.68 817.615 L 1440.66 817.83 C 1430.4 819.928 1431.53 819.132 1420.63 822.171 C 1405 831.514 1403.08 840.762 1401.22 857.322 L 1398.87 858.127 C 1397.35 858.377 1395.82 858.601 1394.3 858.798 C 1384.51 860.496 1374.75 862.315 1365.01 864.256 C 1362.17 864.828 1359.33 865.362 1356.49 865.917 L 1348.87 867.467 L 1301.92 847.469 C 1299.08 846.464 1291.38 843.026 1288.57 841.582 C 1264.2 831.322 1239.97 820.757 1215.87 809.89 L 1215.66 808.437 C 1219.81 807.308 1231.44 807.893 1236.37 807.98 L 1381.69 806.153 C 1394.38 805.871 1428.66 806.002 1439.85 804.218 z" fill="rgb(192,208,224)" transform="translate(0,0)"></path>
<path d="M 1355.97 815.552 C 1362.01 819.01 1384.23 829.991 1391.15 832.976 C 1391.54 843.18 1393.08 849.118 1394.3 858.798 C 1384.51 860.496 1374.75 862.315 1365.01 864.256 C 1362.17 864.828 1359.33 865.362 1356.49 865.917 L 1348.87 867.467 L 1301.92 847.469 C 1304.21 845.006 1314.56 840.3 1318.61 837.877 C 1331.39 830.218 1341.53 819.814 1355.97 815.552 z" fill="rgb(192,208,224)" transform="translate(0,0)"></path>
<path d="M 1288.57 841.582 C 1298.14 835.77 1308.67 833.024 1319.5 830.281 C 1333.13 826.83 1342.05 812.987 1356.71 813.619 L 1355.97 815.552 C 1341.53 819.814 1331.39 830.218 1318.61 837.877 C 1314.56 840.3 1304.21 845.006 1301.92 847.469 C 1299.08 846.464 1291.38 843.026 1288.57 841.582 z" fill="rgb(89,184,196)" transform="translate(0,0)"></path>
<path d="M 1356.71 813.619 C 1369.91 817.983 1382.46 824.014 1396.01 828.56 C 1396.08 835.719 1395.21 852.28 1398.87 858.127 C 1397.35 858.377 1395.82 858.601 1394.3 858.798 C 1393.08 849.118 1391.54 843.18 1391.15 832.976 C 1384.23 829.991 1362.01 819.01 1355.97 815.552 L 1356.71 813.619 z" fill="rgb(20,184,166)" transform="translate(0,0)"></path>
<path d="M 1439.85 804.218 L 1441.92 804.682 C 1442.02 809.593 1441.86 812.707 1441.68 817.615 L 1440.66 817.83 C 1430.4 819.928 1431.53 819.132 1420.63 822.171 C 1425.85 813.224 1432.07 816.702 1438.57 815.77 C 1439.36 813.817 1439.26 807.425 1439.85 804.218 z" fill="rgb(21,120,140)" transform="translate(0,0)"></path>
<path d="M 1207.83 813.26 C 1214.61 814.375 1271.12 841.192 1279.21 845.926 L 1283.09 847.994 C 1298.77 857.267 1317.82 864.753 1334.52 872.072 C 1326.75 874.354 1318.99 876.385 1311.19 878.564 C 1308.35 879.077 1306.35 879.601 1303.56 880.348 C 1282.21 884.606 1256.13 894.051 1233.17 899.375 C 1224.47 893.07 1221.94 895.203 1218.18 892.851 C 1217.42 891.24 1215.54 879.213 1215.11 876.491 L 1214.19 870.989 C 1212 857.309 1209.51 843.653 1207.21 829.989 C 1206.47 825.614 1205.01 820.963 1204.9 816.668 C 1205.95 815.5 1206.85 814.49 1207.83 813.26 z" fill="rgb(192,208,224)" transform="translate(0,0)"></path>
<path d="M 1279.21 845.926 L 1283.09 847.994 C 1298.77 857.267 1317.82 864.753 1334.52 872.072 C 1326.75 874.354 1318.99 876.385 1311.19 878.564 C 1308.35 879.077 1306.35 879.601 1303.56 880.348 C 1302.52 878.166 1301.74 875.956 1300.31 873.992 L 1299.52 872.861 C 1292.97 872.922 1283.97 870.649 1277.47 869.2 C 1259.67 865.229 1273.03 852.602 1279.21 845.926 z" fill="rgb(192,208,224)" transform="translate(0,0)"></path>
<path d="M 1279.21 845.926 L 1283.09 847.994 C 1281.59 849.786 1269.43 862.638 1274.51 863.938 C 1279.79 865.292 1293.48 868.322 1298.84 868.632 C 1309.55 864.186 1310.64 868.84 1311.19 878.564 C 1308.35 879.077 1306.35 879.601 1303.56 880.348 C 1302.52 878.166 1301.74 875.956 1300.31 873.992 L 1299.52 872.861 C 1292.97 872.922 1283.97 870.649 1277.47 869.2 C 1259.67 865.229 1273.03 852.602 1279.21 845.926 z" fill="rgb(20,184,166)" transform="translate(0,0)"></path>
<path d="M 1199.41 674.668 C 1204.97 679.773 1213.62 692.533 1218.3 699.152 C 1214.71 721.088 1209.67 771.822 1204.17 789.624 C 1196.7 790.969 1194.6 791.376 1189.32 796.721 C 1181.91 785.929 1175.14 772.315 1169.25 760.559 C 1179.57 732.138 1188.67 702.933 1199.41 674.668 z" fill="rgb(192,208,224)" transform="translate(0,0)"></path>
<path d="M 1486.39 856.806 C 1499.65 869.23 1515.54 880.842 1528.53 893.924 C 1532.01 897.431 1538.08 901.403 1541.18 905.117 C 1545.7 908.946 1550.13 912.879 1554.47 916.912 C 1548.17 915.182 1542.3 913.59 1535.92 912.184 C 1534.77 911.878 1533.62 911.572 1532.47 911.266 L 1528.46 910.273 L 1524.47 909.273 C 1515.59 907.109 1506.84 904.507 1498.1 902.37 C 1495.75 901.594 1493.38 900.94 1490.99 900.307 L 1486.98 899.257 C 1463.81 893.578 1469.95 893.398 1447.78 897.751 C 1445.74 897.882 1444.23 897.908 1442.18 897.917 C 1441.86 894.375 1441.47 893.705 1440.97 890.496 L 1440.46 887.024 L 1442.45 886.191 C 1453.26 885.92 1460.14 879.96 1466.78 872.018 C 1468.58 869.538 1470.32 867.017 1472 864.455 L 1472.71 863.049 C 1474.75 858.869 1481.72 858.321 1486.39 856.806 z" fill="rgb(152,165,183)" transform="translate(0,0)"></path>
<path d="M 1466.78 872.018 C 1476.05 874.535 1493.14 887.231 1500.75 893.889 C 1498.9 897.557 1498.96 898.288 1498.1 902.37 C 1495.75 901.594 1493.38 900.94 1490.99 900.307 L 1486.98 899.257 C 1463.81 893.578 1469.95 893.398 1447.78 897.751 C 1445.74 897.882 1444.23 897.908 1442.18 897.917 C 1441.86 894.375 1441.47 893.705 1440.97 890.496 L 1440.46 887.024 L 1442.45 886.191 C 1453.26 885.92 1460.14 879.96 1466.78 872.018 z" fill="url(#Gradient1)" transform="translate(0,0)"></path>
<path d="M 1440.46 887.024 L 1442.45 886.191 C 1443.3 892.651 1441.57 895.988 1447.78 897.751 C 1445.74 897.882 1444.23 897.908 1442.18 897.917 C 1441.86 894.375 1441.47 893.705 1440.97 890.496 L 1440.46 887.024 z" fill="rgb(21,120,140)" transform="translate(0,0)"></path>
<path d="M 1508.95 891.115 C 1516.34 895.258 1534.99 907.408 1541.83 909.069 C 1540.01 907.416 1540.36 907.384 1541.18 905.117 C 1545.7 908.946 1550.13 912.879 1554.47 916.912 C 1548.17 915.182 1542.3 913.59 1535.92 912.184 C 1534.77 911.878 1533.62 911.572 1532.47 911.266 L 1528.46 910.273 L 1524.47 909.273 C 1515.59 907.109 1506.84 904.507 1498.1 902.37 C 1498.96 898.288 1498.9 897.557 1500.75 893.889 C 1503.49 892.937 1506.16 891.905 1508.95 891.115 z" fill="rgb(127,144,162)" transform="translate(0,0)"></path>
<path d="M 1472 864.455 C 1480.65 873.468 1498.11 884.419 1508.95 891.115 C 1506.16 891.905 1503.49 892.937 1500.75 893.889 C 1493.14 887.231 1476.05 874.535 1466.78 872.018 C 1468.58 869.538 1470.32 867.017 1472 864.455 z" fill="rgb(20,184,166)" transform="translate(0,0)"></path>
<path d="M 1700.91 1272.8 C 1715.44 1272.45 1727.52 1283.9 1727.95 1298.43 C 1728.39 1312.95 1717.01 1325.1 1702.49 1325.62 C 1687.84 1326.14 1675.57 1314.65 1675.13 1300 C 1674.7 1285.35 1686.26 1273.15 1700.91 1272.8 z" fill="rgb(192,208,224)" transform="translate(0,0)"></path>
<path d="M 1358.61 871.712 C 1363.39 870.441 1368.16 869.178 1373.01 868.172 L 1377.51 867.213 C 1386.6 865.252 1393.14 863.596 1402.41 862.404 C 1411.47 880.19 1419.92 886.818 1440.46 887.024 L 1440.97 890.496 C 1441.47 893.705 1441.86 894.375 1442.18 897.917 C 1427.48 897.958 1406.96 897.817 1392.53 899.724 L 1390.79 899.927 C 1379.94 890.232 1369.59 881.8 1358.61 871.712 z" fill="rgb(192,208,224)" transform="translate(0,0)"></path>
<path d="M 1402.76 871.415 C 1403.69 871.944 1405.39 872.564 1405.65 873.81 C 1405.65 873.818 1394.38 885.721 1392.58 888.291 L 1389 893.426 C 1383.1 897.717 1391.66 882.687 1391.18 883.674 C 1393.53 878.866 1398.61 874.664 1402.76 871.415 z" fill="rgb(20,184,166)" transform="translate(0,0)"></path>
<path d="M 1441.92 804.682 C 1463.82 808.902 1481.37 825.212 1483.13 847.975 C 1483.34 850.612 1485.18 852.678 1481.53 852.946 C 1473.11 853.564 1475.99 851.123 1472.63 843.622 C 1466.15 829.175 1457.81 820.197 1441.68 817.615 C 1441.86 812.707 1442.02 809.593 1441.92 804.682 z" fill="rgb(192,208,224)" transform="translate(0,0)"></path>
<path d="M 1435.08 841.415 C 1440.91 839.765 1447.01 842.95 1448.98 848.672 C 1450.96 854.395 1448.12 860.663 1442.51 862.954 C 1438.6 864.555 1434.12 863.859 1430.88 861.146 C 1427.63 858.434 1426.15 854.149 1427.04 850.013 C 1427.92 845.877 1431.02 842.568 1435.08 841.415 z" fill="rgb(20,184,166)" transform="translate(0,0)"></path>
<path d="M 1215.79 897.64 C 1218.68 895.976 1222.24 896.011 1225.09 897.731 C 1227.94 899.451 1229.64 902.585 1229.51 905.913 C 1229.39 909.242 1227.46 912.24 1224.49 913.741 C 1220.06 915.974 1214.67 914.281 1212.31 909.92 C 1209.95 905.559 1211.5 900.116 1215.79 897.64 z" fill="rgb(20,184,166)" transform="translate(0,0)"></path>
<path d="M 1203.59 814.001 C 1198.98 812.84 1194.31 811.114 1192.25 806.407 C 1185.83 791.789 1219.1 790.482 1207.26 811.65 C 1206.05 812.455 1204.83 813.238 1203.59 814.001 z" fill="rgb(20,184,166)" transform="translate(0,0)"></path>
<path d="M 1371.95 596.709 C 1375.3 597.178 1376.67 597.098 1379.38 599.349 C 1381.54 601.114 1382.86 603.711 1383 606.498 C 1383.21 610.416 1381.44 611.934 1378.97 614.674 C 1375.65 614.235 1372.53 614.347 1369.86 612.165 C 1368.16 610.764 1367.11 608.725 1366.96 606.527 C 1366.66 601.692 1368.7 599.978 1371.95 596.709 z" fill="rgb(20,184,166)" transform="translate(0,0)"></path>
<path d="M 1448.23 865.58 C 1453.81 868.725 1450.73 870.357 1446.82 873.47 C 1442.06 871.743 1443.63 869.445 1446.83 866.799 L 1448.23 865.58 z" fill="rgb(20,184,166)" transform="translate(0,0)"></path>
<path d="M 1415.77 846.797 C 1416.81 845.437 1418.73 845.124 1420.14 846.086 C 1421.56 847.047 1421.98 848.946 1421.09 850.411 C 1420.48 851.433 1419.35 852.031 1418.16 851.966 C 1416.97 851.9 1415.91 851.182 1415.41 850.099 C 1414.91 849.016 1415.05 847.745 1415.77 846.797 z" fill="rgb(20,184,166)" transform="translate(0,0)"></path>
<path d="M 1434.33 870.687 C 1435.01 869.713 1436.18 869.2 1437.35 869.358 C 1438.53 869.515 1439.52 870.317 1439.92 871.435 C 1440.31 872.552 1440.05 873.799 1439.24 874.664 C 1438.1 875.873 1436.23 876.001 1434.94 874.956 C 1433.65 873.911 1433.39 872.049 1434.33 870.687 z" fill="rgb(20,184,166)" transform="translate(0,0)"></path>
<path d="M 1424.96 865.811 C 1425.9 865.106 1427.15 864.986 1428.21 865.501 C 1429.26 866.016 1429.94 867.079 1429.97 868.254 C 1429.99 869.429 1429.35 870.518 1428.32 871.075 C 1426.88 871.852 1425.08 871.385 1424.2 870.004 C 1423.31 868.623 1423.64 866.795 1424.96 865.811 z" fill="rgb(20,184,166)" transform="translate(0,0)"></path>
<path d="M 1455.03 858.643 C 1456.04 858.11 1457.26 858.182 1458.21 858.83 C 1459.15 859.478 1459.65 860.595 1459.51 861.729 C 1459.37 862.863 1458.62 863.826 1457.55 864.229 C 1456.03 864.802 1454.33 864.096 1453.67 862.618 C 1453 861.14 1453.6 859.399 1455.03 858.643 z" fill="rgb(20,184,166)" transform="translate(0,0)"></path>
<path d="M 1417.73 858.668 C 1418.52 857.936 1419.65 857.693 1420.67 858.032 C 1421.69 858.371 1422.45 859.24 1422.65 860.3 C 1422.85 861.359 1422.45 862.443 1421.62 863.129 C 1420.38 864.15 1418.56 864 1417.51 862.792 C 1416.45 861.584 1416.55 859.756 1417.73 858.668 z" fill="rgb(20,184,166)" transform="translate(0,0)"></path>
<path d="M 1455.38 847.032 C 1460 847.826 1461.43 847.312 1462.15 852.002 L 1460.37 851.911 C 1455.95 851.73 1455.05 851.659 1455.38 847.032 z" fill="rgb(20,184,166)" transform="translate(0,0)"></path>
<path d="M 1443.6 828.627 C 1444.89 827.785 1446.61 828.132 1447.46 829.405 C 1448.32 830.679 1447.99 832.404 1446.72 833.272 C 1445.89 833.841 1444.82 833.921 1443.92 833.482 C 1443.01 833.042 1442.41 832.15 1442.35 831.146 C 1442.28 830.141 1442.76 829.18 1443.6 828.627 z" fill="rgb(20,184,166)" transform="translate(0,0)"></path>
<path d="M 1453.37 835.746 C 1454.74 835.331 1456.21 836.034 1456.74 837.366 C 1457.27 838.698 1456.7 840.217 1455.42 840.866 C 1454.49 841.339 1453.37 841.244 1452.52 840.622 C 1451.68 839.999 1451.26 838.955 1451.44 837.924 C 1451.62 836.892 1452.37 836.05 1453.37 835.746 z" fill="rgb(89,184,196)" transform="translate(0,0)"></path>
<path d="M 1431.75 829.633 C 1432.43 828.798 1433.54 828.446 1434.58 828.734 C 1435.62 829.023 1436.4 829.898 1436.55 830.966 C 1436.71 832.034 1436.22 833.094 1435.31 833.669 C 1434.18 834.38 1432.7 834.167 1431.81 833.165 C 1430.93 832.163 1430.9 830.667 1431.75 829.633 z" fill="rgb(20,184,166)" transform="translate(0,0)"></path>
<metadata><recraft-signature>{"signed_by": "recraft", "signature_b64": "z5DPgWj+paSr/UmaZGMb68PZmFROfIF0nvGYHnV5UNp+FZMnwuQY8Jhb4XUJ9BWWmNylWnJoCK7ShYUZpW9iAQ==", "signing_algo": "Ed25519", "generation_timestamp": 1774685561, "identifier": "1be6404b-3df0-4b99-9c71-4d523010ee1e"}</recraft-signature></metadata></svg>