<svg xmlns="http://www.w3.org/2000/svg" height="1024" preserveAspectRatio="none" style="display: block;" version="1.1" viewBox="0 0 2048 2048" width="1024">
<defs>
	<linearGradient gradientUnits="userSpaceOnUse" id="Gradient1" x1="1722.27" x2="1626.73" y1="1145.93" y2="1014.07">
		<stop class="stop0" offset="0" stop-color="rgb(0,96,90)" stop-opacity="1"></stop>
		<stop class="stop1" offset="1" stop-color="rgb(1,119,100)" stop-opacity="1"></stop>
	</linearGradient>
	<linearGradient gradientUnits="userSpaceOnUse" id="Gradient2" x1="902.839" x2="980.013" y1="1441.52" y2="1505.02">
		<stop class="stop0" offset="0" stop-color="rgb(153,156,171)" stop-opacity="1"></stop>
		<stop class="stop1" offset="1" stop-color="rgb(225,229,238)" stop-opacity="1"></stop>
	</linearGradient>
</defs>
<path d="M 0 0 L 2048 0 L 2048 2048 L 0 2048 L 0 0 z" fill="rgb(8,12,20)" transform="translate(0,0)"></path>
<path d="M 441.126 348.286 C 446.276 353.93 451.537 359.447 455.987 365.658 C 465.577 375.519 475.95 386.917 484.986 397.338 C 545.222 466.809 617.272 520.747 687.21 579.562 C 758.788 639.756 833.264 685.101 915.838 728.133 C 939.606 740.27 963.575 752.007 987.737 763.339 C 999.305 768.698 1025.17 779.602 1035.22 785.383 C 1043.92 788.431 1058.6 795.793 1067.43 799.942 C 1058.78 813.195 1021.01 840.101 1014.72 850.613 C 980.005 842.48 945.488 833.517 911.201 823.732 C 902.972 820.887 894.297 818.265 885.974 815.632 C 771.671 779.477 662.704 727.29 555.72 673.692 C 541.147 666.392 525.304 658.449 511.597 649.775 C 504.928 632.677 497.442 602.695 492.46 584.196 C 478.589 533.118 466.571 481.555 456.431 429.608 C 451.817 405.477 447.165 371.053 441.126 348.286 z" fill="rgb(16,185,129)" transform="translate(0,0)"></path>
<path d="M 909.815 761.219 C 942.672 768.033 975.199 776.119 1008.04 782.94 C 1014.6 784.301 1029.78 788.232 1035.22 785.383 C 1043.92 788.431 1058.6 795.793 1067.43 799.942 C 1058.78 813.195 1021.01 840.101 1014.72 850.613 C 980.005 842.48 945.488 833.517 911.201 823.732 C 910.058 801.728 909.707 783.408 909.815 761.219 z" fill="rgb(0,116,99)" transform="translate(0,0)"></path>
<path d="M 1332.34 1127.51 C 1347.06 1135.36 1361.67 1143.16 1376.66 1150.51 C 1381.4 1152.83 1400.65 1160.22 1401.94 1163.3 L 1401.69 1163.91 C 1394.09 1177.48 1383.54 1192.08 1374.51 1204.94 C 1345.99 1245.54 1319.56 1288.48 1290.56 1328.66 C 1287.89 1328.99 1281.94 1329.92 1279.53 1330 C 1242.19 1337.73 1201.59 1345.41 1165.39 1356.78 C 1139.58 1364.89 1112.52 1377.63 1087.13 1387.35 C 1084.19 1388.95 1081.1 1390.45 1077.94 1391.54 C 982.457 1437.16 895.827 1499.36 822.074 1575.25 C 849.445 1529.11 883.325 1484.25 910.939 1437.87 C 913.611 1433.38 935.083 1399.62 937.253 1397.82 C 946.305 1381.32 967.907 1350.68 979.12 1333.33 C 1012.1 1282.53 1045.56 1232.03 1079.48 1181.85 C 1082.54 1175.61 1089.6 1166 1093.54 1159.27 C 1099.76 1159.5 1134.15 1150.53 1142.03 1148.51 C 1152.01 1146.09 1161.89 1143.27 1171.65 1140.06 L 1179.3 1137.84 C 1186.72 1135.17 1199 1131.88 1206.74 1130.14 C 1211.2 1129.33 1215.32 1128.13 1219.91 1127.47 C 1225.83 1128.38 1248.34 1141.66 1253.52 1145.5 C 1258.23 1144.58 1263.12 1143.41 1267.82 1142.67 C 1271.06 1144.84 1281.26 1151.95 1284.69 1152.71 C 1295.2 1146.23 1324.73 1134.05 1332.34 1127.51 z" fill="rgb(20,184,166)" transform="translate(0,0)"></path>
<path d="M 1345 1187.63 C 1356.48 1182.95 1392.44 1165.86 1401.69 1163.91 C 1394.09 1177.48 1383.54 1192.08 1374.51 1204.94 C 1345.99 1245.54 1319.56 1288.48 1290.56 1328.66 C 1287.89 1328.99 1281.94 1329.92 1279.53 1330 C 1242.19 1337.73 1201.59 1345.41 1165.39 1356.78 C 1139.58 1364.89 1112.52 1377.63 1087.13 1387.35 C 1088.44 1379.54 1121.83 1343.46 1128.04 1333.48 C 1134.85 1329.13 1146.64 1321.25 1153.89 1318.59 C 1163.06 1315.92 1178.08 1313.64 1187.98 1311.55 C 1215.27 1305.77 1242.85 1301.37 1270.29 1296.46 C 1295.14 1259.8 1321.56 1224.96 1345 1187.63 z" fill="rgb(192,208,224)" transform="translate(0,0)"></path>
<path d="M 1128.04 1333.48 C 1134.85 1329.13 1146.64 1321.25 1153.89 1318.59 C 1169.32 1319.8 1272.95 1326.66 1279.53 1330 C 1242.19 1337.73 1201.59 1345.41 1165.39 1356.78 C 1139.58 1364.89 1112.52 1377.63 1087.13 1387.35 C 1088.44 1379.54 1121.83 1343.46 1128.04 1333.48 z" fill="rgb(161,165,179)" transform="translate(0,0)"></path>
<path d="M 1179.3 1137.84 C 1177.18 1142.88 1162.98 1170.24 1164.16 1172.51 C 1145.99 1178.03 1126.58 1182.27 1108.93 1187.8 C 1099.89 1207.45 1084.44 1240.8 1073.03 1258.56 C 1059.01 1280.41 1040.9 1304.12 1026.17 1326.22 C 1018.73 1337.38 1000.2 1366.26 992.427 1374.86 C 991.713 1375.85 989.368 1379.25 988.707 1379.96 C 977.832 1384.75 947.524 1398.38 937.253 1397.82 C 946.305 1381.32 967.907 1350.68 979.12 1333.33 C 1012.1 1282.53 1045.56 1232.03 1079.48 1181.85 C 1082.54 1175.61 1089.6 1166 1093.54 1159.27 C 1099.76 1159.5 1134.15 1150.53 1142.03 1148.51 C 1152.01 1146.09 1161.89 1143.27 1171.65 1140.06 L 1179.3 1137.84 z" fill="rgb(161,165,179)" transform="translate(0,0)"></path>
<path d="M 1079.48 1181.85 C 1081.16 1185.98 1080.09 1188.64 1078.18 1192.62 C 1053.18 1244.79 1024.98 1295.61 1002.91 1349.17 C 1000.18 1355.79 993.076 1368.78 992.427 1374.86 C 991.713 1375.85 989.368 1379.25 988.707 1379.96 C 977.832 1384.75 947.524 1398.38 937.253 1397.82 C 946.305 1381.32 967.907 1350.68 979.12 1333.33 C 1012.1 1282.53 1045.56 1232.03 1079.48 1181.85 z" fill="rgb(192,208,224)" transform="translate(0,0)"></path>
<path d="M 937.253 1397.82 C 947.524 1398.38 977.832 1384.75 988.707 1379.96 C 976.098 1399.14 958.777 1420.1 944.83 1440.82 C 958.515 1431.31 972.993 1422.94 986.658 1413.28 C 1001.29 1402.93 1019.1 1396.08 1034.25 1386.96 C 1041.56 1387.85 1074.6 1389.96 1077.94 1391.54 C 982.457 1437.16 895.827 1499.36 822.074 1575.25 C 849.445 1529.11 883.325 1484.25 910.939 1437.87 C 913.611 1433.38 935.083 1399.62 937.253 1397.82 z" fill="url(#Gradient2)" transform="translate(0,0)"></path>
<path d="M 1332.34 1127.51 C 1347.06 1135.36 1361.67 1143.16 1376.66 1150.51 C 1381.4 1152.83 1400.65 1160.22 1401.94 1163.3 L 1401.69 1163.91 C 1392.44 1165.86 1356.48 1182.95 1345 1187.63 C 1335.75 1178.42 1297.88 1159.4 1284.69 1152.71 C 1295.2 1146.23 1324.73 1134.05 1332.34 1127.51 z" fill="rgb(124,125,134)" transform="translate(0,0)"></path>
<path d="M 1206.74 1130.14 C 1211.2 1129.33 1215.32 1128.13 1219.91 1127.47 C 1225.83 1128.38 1248.34 1141.66 1253.52 1145.5 C 1240.84 1150.12 1227.99 1154.21 1214.98 1157.78 C 1198.15 1162.49 1180.83 1168.11 1164.16 1172.51 C 1162.98 1170.24 1177.18 1142.88 1179.3 1137.84 C 1186.72 1135.17 1199 1131.88 1206.74 1130.14 z" fill="rgb(192,208,224)" transform="translate(0,0)"></path>
<path d="M 1034.25 1386.96 C 1046.19 1376.8 1112.89 1339.44 1128.04 1333.48 C 1121.83 1343.46 1088.44 1379.54 1087.13 1387.35 C 1084.19 1388.95 1081.1 1390.45 1077.94 1391.54 C 1074.6 1389.96 1041.56 1387.85 1034.25 1386.96 z" fill="rgb(124,125,134)" transform="translate(0,0)"></path>
<path d="M 1264.49 1156.16 C 1268.03 1156.56 1319.05 1186.5 1325.49 1190.52 C 1316.92 1199.04 1306.57 1215.45 1299.53 1225.92 C 1287.4 1244.27 1274.99 1262.45 1262.32 1280.45 C 1231.04 1287.57 1198.05 1291.06 1167.02 1298.86 C 1157.02 1301.38 1132.2 1316.23 1122.01 1321.75 C 1094.44 1336.58 1066.95 1351.57 1039.55 1366.71 C 1025.58 1374.82 1010.37 1382.21 995.894 1389.52 C 1002.96 1378.94 1011.42 1368.82 1018.33 1357.97 C 1041.79 1321.17 1069.34 1285.48 1090.83 1247.61 C 1097.95 1235.05 1105.49 1212.11 1110.59 1198.15 C 1127.13 1194.49 1151.38 1186.86 1168.27 1182.15 C 1200.28 1173.26 1232.35 1164.59 1264.49 1156.16 z" fill="rgb(8,12,20)" transform="translate(0,0)"></path>
<path d="M 178.894 529.161 C 184.801 532.074 190.51 534.676 195.942 538.412 L 372.158 635.366 C 394.872 647.922 422.663 661.367 444.071 674.391 L 645.255 754.743 L 713.654 781.339 C 720.546 784.011 743.619 792.415 749.065 796.129 C 774.938 805.093 801.011 813.47 827.263 821.254 C 855.144 830.065 886.642 839.398 913.954 849.45 C 918.774 850.433 925.228 852.717 929.965 854.313 C 944.245 859.041 958.611 863.5 973.058 867.689 C 1000.83 875.741 1029.6 884.737 1057.33 892.343 C 1061.16 893.269 1065.25 894.164 1068.98 895.366 L 1073.47 904.805 C 1070.19 912.343 1087.61 964.102 1091.6 974.295 C 1092.75 977.239 1093.96 980.157 1095.24 983.049 C 1086.92 977.45 1070.01 965.048 1060.29 964.955 C 1059.57 964.14 1057.96 961.181 1057.32 960.081 C 1051.5 953.166 1035.18 921.869 1029.29 919.15 C 1025.76 919.008 1007.95 914.148 1003.6 913.033 L 943.838 897.773 L 795.341 860.44 C 786.003 858.058 776.476 855.44 767.1 853.258 C 697.106 836.968 630.277 810.066 561.444 789.742 C 547.781 785.708 533.21 781.628 519.942 776.459 C 516.245 775.28 512.554 774.082 508.868 772.866 C 512.186 779.52 518.017 790.405 520.444 797.042 C 523.942 805.303 527.383 813.588 530.767 821.897 L 376.591 783.599 C 347.053 776.252 315.972 769.86 287.141 761.06 L 285.44 760.974 C 282.122 758.72 263.378 715.838 260.368 709.234 L 178.894 529.161 z" fill="rgb(192,208,224)" transform="translate(0,0)"></path>
<path d="M 497.726 763.783 L 494.738 761.463 L 494.551 759.867 C 500.31 758.797 541.9 773.642 550.765 776.323 C 598.127 790.647 645.439 806.051 693.016 819.55 C 727.556 829.35 763.129 837.399 797.212 848.576 L 800.162 846.011 C 841.915 847.964 875.771 850.346 917.186 854.358 C 921.499 851.322 915.283 852.189 913.954 849.45 C 918.774 850.433 925.228 852.717 929.965 854.313 C 944.245 859.041 958.611 863.5 973.058 867.689 C 1000.83 875.741 1029.6 884.737 1057.33 892.343 C 1061.16 893.269 1065.25 894.164 1068.98 895.366 L 1073.47 904.805 C 1070.19 912.343 1087.61 964.102 1091.6 974.295 C 1092.75 977.239 1093.96 980.157 1095.24 983.049 C 1086.92 977.45 1070.01 965.048 1060.29 964.955 C 1059.57 964.14 1057.96 961.181 1057.32 960.081 C 1051.5 953.166 1035.18 921.869 1029.29 919.15 C 1025.76 919.008 1007.95 914.148 1003.6 913.033 L 943.838 897.773 L 795.341 860.44 C 786.003 858.058 776.476 855.44 767.1 853.258 C 697.106 836.968 630.277 810.066 561.444 789.742 C 547.781 785.708 533.21 781.628 519.942 776.459 C 516.245 775.28 512.554 774.082 508.868 772.866 C 512.186 779.52 518.017 790.405 520.444 797.042 C 516.126 794.803 500.133 769.156 497.726 763.783 z" fill="rgb(20,184,166)" transform="translate(0,0)"></path>
<path d="M 973.058 867.689 C 1000.83 875.741 1029.6 884.737 1057.33 892.343 C 1061.16 893.269 1065.25 894.164 1068.98 895.366 L 1073.47 904.805 C 1070.19 912.343 1087.61 964.102 1091.6 974.295 C 1092.75 977.239 1093.96 980.157 1095.24 983.049 C 1086.92 977.45 1070.01 965.048 1060.29 964.955 C 1059.57 964.14 1057.96 961.181 1057.32 960.081 C 1057.2 959.108 1057 957.24 1056.38 955.899 C 1050.72 943.527 1045.65 930.322 1039.79 918.16 C 1038.91 917.769 1038.03 917.379 1037.15 916.988 C 1008.95 907.958 975.347 899.951 945.913 891.1 L 942.794 888.42 L 942.763 886.489 L 945.949 883.43 L 946.026 883.165 C 948.841 880.651 969.236 869.752 973.058 867.689 z" fill="rgb(161,165,179)" transform="translate(0,0)"></path>
<path d="M 973.058 867.689 C 1000.83 875.741 1029.6 884.737 1057.33 892.343 C 1050.68 894.709 1037.15 893.947 1030.17 892.442 C 1004.93 886.996 969.817 889.527 945.949 883.43 L 946.026 883.165 C 948.841 880.651 969.236 869.752 973.058 867.689 z" fill="rgb(192,208,224)" transform="translate(0,0)"></path>
<path d="M 800.162 846.011 C 841.915 847.964 875.771 850.346 917.186 854.358 C 921.499 851.322 915.283 852.189 913.954 849.45 C 918.774 850.433 925.228 852.717 929.965 854.313 C 944.245 859.041 958.611 863.5 973.058 867.689 C 969.236 869.752 948.841 880.651 946.026 883.165 L 945.949 883.43 L 942.763 886.489 L 942.794 888.42 L 945.913 891.1 C 914.873 882.917 883.902 874.478 853.002 865.784 C 834.405 860.361 815.881 854.069 797.212 848.576 L 800.162 846.011 z" fill="rgb(124,125,134)" transform="translate(0,0)"></path>
<path d="M 913.954 849.45 C 918.774 850.433 925.228 852.717 929.965 854.313 C 926.06 855.156 921.007 856.25 917.186 854.358 C 921.499 851.322 915.283 852.189 913.954 849.45 z" fill="rgb(161,165,179)" transform="translate(0,0)"></path>
<path d="M 514.101 721.851 L 425.847 691.539 C 415.849 688.048 375.196 674.797 369.644 668.773 C 360.532 658.888 288.372 613.555 286.1 607.98 C 292.119 606.369 321.414 621.921 328.986 625.365 C 356.075 637.694 383.27 649.784 410.571 661.636 C 419.469 665.467 435.159 672.985 444.071 674.391 L 645.255 754.743 L 713.654 781.339 C 720.546 784.011 743.619 792.415 749.065 796.129 C 741.724 795.886 671.092 772.59 655.951 768.629 L 586.169 745.175 C 576.042 741.804 554.812 734.276 545.16 733.159 C 536.985 729.485 522.762 724.404 514.101 721.851 z" fill="rgb(20,184,166)" transform="translate(0,0)"></path>
<path d="M 514.101 721.851 C 522.762 724.404 536.985 729.485 545.16 733.159 C 539.462 734.217 530.588 734.524 524.503 735.12 C 509.928 736.546 494.599 738.343 479.987 738.87 L 479.736 736.048 C 482.625 734.357 485.097 733.428 488.294 731.495 C 496.452 728.305 505.869 724.472 514.101 721.851 z" fill="rgb(111,110,113)" transform="translate(0,0)"></path>
<path d="M 479.987 738.87 C 478.924 738.989 471.036 740.726 470.724 740.289 L 470.783 740.15 L 471.006 740.04 L 470.894 739.825 C 471.428 738.801 478.428 736.541 479.736 736.048 L 479.987 738.87 z" fill="rgb(124,125,134)" transform="translate(0,0)"></path>
<path d="M 972.192 1292.57 L 975.856 1290.42 L 977.243 1290.8 C 975.891 1294.18 952.651 1329.49 948.956 1335.3 L 902.638 1407.27 C 893.111 1422.29 879.883 1444.53 869.624 1458.34 C 865.2 1466.56 856.428 1479.41 851.215 1487.56 L 810.233 1551.34 C 786.961 1587.96 760.623 1633.91 735.733 1668.21 C 699.886 1675.4 649.566 1689.75 613.895 1699.17 L 765.946 1526.89 C 802.594 1486.08 844.125 1441.81 879.247 1400.27 C 881.634 1397.04 884.043 1394.22 885.533 1390.52 L 884.304 1390.58 C 841.877 1438.34 787.928 1488.24 741.55 1533.76 L 679.206 1594.11 C 671.214 1601.86 654.303 1619.26 646.218 1625.77 L 644.418 1627.57 C 626.277 1644.76 608.468 1662.3 591 1680.17 C 547.768 1677.25 502.48 1676.11 459.066 1674.4 C 464.468 1670.63 470.447 1666.69 476.019 1663.17 C 523.965 1632.87 570.108 1599.94 617.205 1568.45 C 649.844 1544.99 682.715 1521.86 715.814 1499.06 C 724.135 1491.19 741.447 1477.77 750.63 1470.28 L 820.341 1413.62 C 831.345 1404.72 843.184 1395.97 853.756 1386.75 C 846.536 1389.07 825.366 1405.88 818.018 1411.54 C 798.836 1426.31 779.003 1439.58 759.04 1453.27 C 755.764 1455.52 739.71 1467.15 737.142 1468.38 C 703.557 1490.61 662.599 1513.89 627.506 1534.73 L 499.425 1611.77 C 498.766 1612.39 494.539 1615.05 493.52 1615.72 C 465.84 1610.78 438.093 1606.23 410.286 1602.07 C 392.112 1599.22 371.887 1595.62 353.725 1593.67 L 352.995 1589.8 C 414.785 1567.65 479.459 1542.47 541.051 1521.6 C 560.221 1513.45 583.789 1507.8 602.385 1499.37 C 622.193 1490.4 644.796 1478 664.173 1467.8 C 689.379 1451.99 727.011 1432.55 753.598 1417.71 C 798.988 1392.3 844.233 1366.63 889.329 1340.7 C 918.111 1324.19 943.697 1310.18 972.192 1292.57 z" fill="rgb(16,185,129)" transform="translate(0,0)"></path>
<path d="M 1184.12 775.975 C 1182.86 773.336 1182.89 773.167 1182.3 770.273 C 1184.42 770.152 1185.32 771.667 1187.55 773.477 C 1265.12 837.833 1369.84 886.51 1467.72 909.905 C 1477.1 912.147 1495.7 910.914 1506.83 910.611 C 1552.12 909.378 1605.29 932.887 1635.7 966.186 C 1639.6 970.448 1646.43 987.273 1649.68 989.512 C 1661.89 990.985 1677.5 992.748 1689.49 995.217 C 1694.2 995.573 1696.3 995.931 1700.92 996.963 C 1739 1004.62 1830.19 1027 1862.5 1049.11 C 1782.99 1032.98 1686.79 1021.51 1605.36 1023.19 C 1619.17 1014.31 1636.17 1002.55 1647.72 991.261 C 1644.21 991.169 1622.7 999.361 1616.4 1001.07 C 1545.96 961.18 1490.44 955.068 1417.41 991.641 L 1413.47 993.889 L 1413.3 994.935 C 1416.01 994.611 1416.35 994.701 1418.82 993.68 C 1428.46 991.278 1435.5 989.827 1445.28 988.535 C 1445.73 988.365 1451.25 987.515 1452.1 987.375 C 1458.13 986.301 1463.34 985.397 1469.44 984.727 C 1488.64 993.952 1505.71 1003.81 1523.74 1014.59 C 1533.7 1020.55 1556.74 1019.09 1567.4 1015.01 C 1574.96 1012.27 1580.25 1009.21 1587.13 1005.04 C 1594.5 1007.74 1598.04 1009.5 1605.02 1013.22 L 1489.17 1093.54 C 1466.42 1109.5 1438.61 1130.91 1415.2 1144.8 C 1400.3 1134.47 1376.25 1122.38 1359.78 1113.59 C 1333.48 1099.02 1307.03 1085.86 1280.56 1071.68 L 1281.31 1070.19 C 1289.57 1063.68 1307.59 1052.45 1317 1046.22 C 1339.9 1030.93 1362.93 1015.85 1386.1 1000.98 L 1387.98 999.693 C 1386.28 998.48 1374.15 998.692 1370.73 998.582 C 1367.68 997.544 1353.06 996.336 1348.28 995.045 C 1321.09 987.705 1303.28 977.659 1283.88 958.167 C 1314.18 964.495 1347.94 961.149 1378.28 955.927 C 1313.82 947.555 1261.15 926.777 1226.67 869.43 C 1263.24 888.053 1278 893.559 1319.38 899.107 C 1317.35 896.182 1298.6 891.172 1293.75 889.074 C 1239.21 865.5 1207.75 828.335 1184.12 775.975 z" fill="rgb(16,185,129)" transform="translate(0,0)"></path>
<path d="M 385.459 915.762 C 361.969 887.948 335.485 860.246 311.896 832.273 C 304.288 823.251 291.081 810.822 285.073 801.621 L 285.46 800.422 L 288.652 801.06 L 448.477 844.298 C 473.098 851.003 508.255 861.967 532.193 866.609 L 803.947 917.646 C 835.954 923.363 867.931 929.253 899.875 935.316 C 906.658 936.652 932.405 941.435 938.034 943.414 C 942.058 943.885 946.07 944.463 950.064 945.146 L 957.762 946.762 L 967.706 948.7 C 974.721 949.869 1007.34 954.526 1010.71 957.617 C 1005.41 959.98 969.568 960.14 962.721 959.16 C 934.231 960.239 905.164 958.605 876.585 960.406 C 841.227 962.633 806.404 954.277 771.497 950.093 C 715.463 943.471 658.927 934.865 602.791 929.671 C 616.944 946.831 631.353 963.778 646.013 980.507 C 642.716 980.222 636.828 979.922 633.877 979.019 L 440.716 973.062 L 434.752 973.237 C 428.18 966.498 419.908 955.858 413.655 948.335 C 404.577 937.414 394.366 926.598 385.459 915.762 z" fill="rgb(192,208,224)" transform="translate(0,0)"></path>
<path d="M 288.652 801.06 L 448.477 844.298 C 473.098 851.003 508.255 861.967 532.193 866.609 L 803.947 917.646 C 835.954 923.363 867.931 929.253 899.875 935.316 C 906.658 936.652 932.405 941.435 938.034 943.414 C 942.058 943.885 946.07 944.463 950.064 945.146 L 957.762 946.762 L 967.706 948.7 C 974.721 949.869 1007.34 954.526 1010.71 957.617 C 1005.41 959.98 969.568 960.14 962.721 959.16 C 934.231 960.239 905.164 958.605 876.585 960.406 C 841.227 962.633 806.404 954.277 771.497 950.093 C 715.463 943.471 658.927 934.865 602.791 929.671 C 616.944 946.831 631.353 963.778 646.013 980.507 C 642.716 980.222 636.828 979.922 633.877 979.019 C 632.06 972.767 604.227 942.811 597.846 935.749 C 589.771 926.654 582.71 919.736 573.907 911.441 C 602.239 917.131 640.814 922.36 669.143 925.473 C 695.629 929.333 722.028 932.478 748.489 936.2 C 754.957 937.109 774.275 939.545 779.84 941.102 C 786.529 935.721 793.354 931.092 800.033 925.853 C 774.672 921.911 746.629 916.866 721.395 913.825 C 694.73 908.609 666.22 906.029 639.263 901.614 C 597.423 894.762 554.465 890.986 512.79 883.316 C 503.92 881.51 489.23 875.641 480.456 872.385 L 436.718 856.347 C 404.21 843.88 371.462 832.051 338.493 820.864 C 324.985 816.228 310.655 810.555 297.154 806.533 C 292.674 804.446 292.204 804.343 288.652 801.06 z" fill="rgb(20,184,166)" transform="translate(0,0)"></path>
<path d="M 800.033 925.853 C 819.931 928.956 843.49 931.291 862.774 935.3 C 861.014 940.303 857.879 946.807 855.596 951.706 C 848.135 950.456 839.269 950.118 831.498 949.154 C 814.119 946.997 796.961 945.125 779.84 941.102 C 786.529 935.721 793.354 931.092 800.033 925.853 z" fill="rgb(124,125,134)" transform="translate(0,0)"></path>
<path d="M 862.774 935.3 L 912.072 943.261 C 917.932 944.205 931.097 946.693 936.633 947.072 L 944.964 948.763 C 947.974 949.34 953.152 950.144 955.848 951.114 C 955.347 953.621 955.911 953.178 958.197 954.052 C 923.981 954.215 889.768 953.433 855.596 951.706 C 857.879 946.807 861.014 940.303 862.774 935.3 z" fill="rgb(161,165,179)" transform="translate(0,0)"></path>
<path d="M 957.376 950.66 C 961.757 951.463 964.503 951.789 968.876 952.161 C 970.397 952.619 979.435 953.871 979.218 955.635 C 979.029 955.786 978.839 955.936 978.65 956.087 C 974.356 954.304 963.148 954.174 958.197 954.052 C 955.911 953.178 955.347 953.621 955.848 951.114 L 957.376 950.66 z" fill="rgb(192,208,224)" transform="translate(0,0)"></path>
<path d="M 419.496 875.034 C 436.557 886.982 468.008 900.5 486.852 911.637 C 471.723 931.639 451.298 953.837 434.752 973.237 C 428.18 966.498 419.908 955.858 413.655 948.335 C 404.577 937.414 394.366 926.598 385.459 915.762 C 387.516 913.49 390.289 910.421 392.164 908.084 L 398.154 900.591 C 404.895 892.321 411.746 882.762 419.131 875.123 L 419.496 875.034 z" fill="rgb(124,125,134)" transform="translate(0,0)"></path>
<path d="M 1040.66 1000.88 C 1043.98 1000.27 1061.94 998.976 1063.78 1000.72 C 1063.72 1002.18 1060.01 1002.49 1059.07 1002.56 C 1024.66 1010.13 990.343 1018.12 956.132 1026.54 C 915.485 1036.85 877.052 1048.99 834.95 1051.37 C 800.729 1053.31 762.594 1063.17 728.712 1064.25 C 721.506 1066.71 718.631 1064.41 712.401 1068.94 C 726.217 1075.49 748.787 1087.19 762.024 1095 C 716.749 1107.92 661.229 1120.85 614.899 1131.72 C 612.474 1132.29 609.41 1133.12 607.007 1133.47 C 599.8 1125.5 563.829 1101.72 553.303 1094.4 L 439.481 1014.99 L 436.194 1012.93 L 437.141 1011.9 C 444.088 1011.06 482.545 1013.3 492.396 1013.83 L 587.649 1019.19 C 605.201 1020.14 628.891 1022.47 646.244 1021.43 C 746.826 1015.43 847.193 1007.9 947.922 1004.25 C 959.444 1003.84 970.754 1002.8 982.316 1003.04 C 996.786 1001.53 1024.76 1000.7 1039.02 1000.99 L 1040.66 1000.88 z" fill="rgb(192,208,224)" transform="translate(0,0)"></path>
<path d="M 1040.66 1000.88 C 1043.98 1000.27 1061.94 998.976 1063.78 1000.72 C 1063.72 1002.18 1060.01 1002.49 1059.07 1002.56 C 1024.66 1010.13 990.343 1018.12 956.132 1026.54 C 915.485 1036.85 877.052 1048.99 834.95 1051.37 C 800.729 1053.31 762.594 1063.17 728.712 1064.25 C 721.506 1066.71 718.631 1064.41 712.401 1068.94 L 711.461 1069 C 707.78 1067.19 702.162 1065.93 698.062 1064.83 C 706.274 1063.58 714.457 1062.15 722.606 1060.53 C 723.846 1054.33 749.194 1035.8 756.338 1028.81 C 715.292 1030.88 673.915 1039.17 632.93 1041.14 C 626.44 1041.45 616.76 1039.05 610.031 1038.13 C 557.814 1030.97 505.506 1021.83 453.185 1015.69 C 449.791 1014.35 443.281 1014.87 439.481 1014.99 L 436.194 1012.93 L 437.141 1011.9 C 444.088 1011.06 482.545 1013.3 492.396 1013.83 L 587.649 1019.19 C 605.201 1020.14 628.891 1022.47 646.244 1021.43 C 746.826 1015.43 847.193 1007.9 947.922 1004.25 C 959.444 1003.84 970.754 1002.8 982.316 1003.04 C 996.786 1001.53 1024.76 1000.7 1039.02 1000.99 L 1040.66 1000.88 z" fill="rgb(20,184,166)" transform="translate(0,0)"></path>
<path d="M 756.338 1028.81 C 783.978 1023.17 829.925 1022.19 859.933 1017.96 C 865.4 1023.79 870.909 1029.59 876.46 1035.34 C 830.782 1042.74 775.838 1049.79 731.216 1059.02 C 728.986 1059.42 724.699 1060.31 722.606 1060.53 C 723.846 1054.33 749.194 1035.8 756.338 1028.81 z" fill="rgb(161,165,179)" transform="translate(0,0)"></path>
<path d="M 1027.96 1004.27 C 1026.4 1006.63 1021.59 1006.91 1018.12 1007.62 L 922.923 1026.29 C 912.044 1028.37 885.288 1032.72 876.46 1035.34 C 870.909 1029.59 865.4 1023.79 859.933 1017.96 C 881.774 1016.62 904.25 1013.92 926.349 1012.72 C 934.824 1012.26 964.123 1010.51 969.794 1009.19 C 988.039 1008.63 1009.28 1005.43 1027.96 1004.27 z" fill="rgb(192,208,224)" transform="translate(0,0)"></path>
<path d="M 1040.66 1000.88 C 1043.98 1000.27 1061.94 998.976 1063.78 1000.72 C 1063.72 1002.18 1060.01 1002.49 1059.07 1002.56 C 1054.42 999.928 1047.04 1001.18 1040.66 1000.88 z" fill="rgb(9,101,137)" transform="translate(0,0)"></path>
<path d="M 439.481 1014.99 C 443.281 1014.87 449.791 1014.35 453.185 1015.69 L 452.984 1016.64 C 460.692 1018.7 465.949 1020.43 473.434 1023.01 C 523.413 1040.27 574.731 1054.14 624.823 1070.92 C 621.86 1082.34 619.105 1092.41 615.566 1103.63 C 613.109 1111.42 607.953 1125.98 607.007 1133.47 C 599.8 1125.5 563.829 1101.72 553.303 1094.4 L 439.481 1014.99 z" fill="rgb(161,165,179)" transform="translate(0,0)"></path>
<path d="M 668.239 371.788 L 682.459 391.306 C 738.33 467.915 800.24 539.933 867.594 606.67 C 884.409 623.404 902.38 639.717 919.86 655.767 C 926.835 662.172 940.309 672.294 946.094 678.331 C 950.409 681.63 953.296 683.684 957.108 687.623 C 961.341 690.705 963.812 693.07 967.608 696.599 C 954.511 703.236 940.029 708.546 928.287 714.592 C 864.105 679.451 758.25 608.838 707.528 556.881 C 700.007 527.247 691.506 495.835 685.079 466.106 C 678.5 435.675 673.2 402.502 668.239 371.788 z" fill="rgb(16,185,129)" transform="translate(0,0)"></path>
<path d="M 1088.8 1037.21 C 1093.06 1035.88 1097.35 1034.63 1101.65 1033.43 C 1097.5 1035.92 1094.15 1038.11 1089.65 1039.96 C 1083.34 1042.98 1052.73 1058.08 1048.01 1059.46 C 995.733 1085.5 945.442 1110.64 889.339 1127.44 C 869.127 1133.49 848.804 1141 828.563 1146.66 L 826.57 1147.94 C 848.638 1150.82 870.886 1153.54 892.811 1157.31 L 896.747 1158.16 L 896.694 1159.36 L 891.522 1162.19 C 881.717 1167.54 871.96 1172.99 862.252 1178.52 C 856.863 1182.42 838.402 1192.26 831.724 1196.04 L 767.131 1232.48 C 720.076 1215.52 664.087 1190.92 616.675 1172.07 C 614.37 1171.23 615.134 1171.97 614.117 1170.18 C 618.756 1167.65 638.665 1163.57 645.41 1162 L 749.496 1135.03 C 836.091 1111.72 921.71 1083.82 1008.28 1060.41 C 1021.17 1056.93 1033.91 1052.79 1046.89 1049.69 C 1060.91 1045.71 1074.88 1041.55 1088.8 1037.21 z" fill="rgb(192,208,224)" transform="translate(0,0)"></path>
<path d="M 616.675 1172.07 C 624.02 1169.95 631.353 1169.03 638.926 1168.32 C 645.624 1171.77 673.953 1170.59 683.284 1171.08 C 727.635 1173.55 772.017 1175.42 816.418 1176.7 C 826.257 1177 854.643 1176.64 862.252 1178.52 C 856.863 1182.42 838.402 1192.26 831.724 1196.04 L 767.131 1232.48 C 720.076 1215.52 664.087 1190.92 616.675 1172.07 z" fill="rgb(161,165,179)" transform="translate(0,0)"></path>
<path d="M 1088.8 1037.21 C 1093.06 1035.88 1097.35 1034.63 1101.65 1033.43 C 1097.5 1035.92 1094.15 1038.11 1089.65 1039.96 C 1083.34 1042.98 1052.73 1058.08 1048.01 1059.46 C 995.733 1085.5 945.442 1110.64 889.339 1127.44 C 869.127 1133.49 848.804 1141 828.563 1146.66 L 826.57 1147.94 C 823.643 1147.8 823.05 1147.55 820.272 1146.82 L 820.547 1145.7 L 825.379 1143.29 C 832.968 1141.78 857.702 1129.96 866.426 1126.67 C 921.357 1106.26 975.805 1084.57 1029.72 1061.62 L 1039.31 1057.25 C 1033.93 1057.21 1032.9 1057.82 1027.64 1059.55 C 959.901 1083.02 891.911 1105.76 823.683 1127.77 C 805.853 1133.5 788.887 1140.02 771.122 1146.24 C 740.241 1157.06 705.213 1157.06 673.143 1163.56 C 667.381 1164.73 660.872 1165.58 655.076 1166.2 C 649.728 1166.95 644.291 1167.78 638.926 1168.32 C 631.353 1169.03 624.02 1169.95 616.675 1172.07 C 614.37 1171.23 615.134 1171.97 614.117 1170.18 C 618.756 1167.65 638.665 1163.57 645.41 1162 L 749.496 1135.03 C 836.091 1111.72 921.71 1083.82 1008.28 1060.41 C 1021.17 1056.93 1033.91 1052.79 1046.89 1049.69 C 1060.91 1045.71 1074.88 1041.55 1088.8 1037.21 z" fill="rgb(20,184,166)" transform="translate(0,0)"></path>
<path d="M 1067.43 799.942 C 1102.58 816.036 1138.8 831.424 1172.65 850.066 C 1183.24 871.037 1194.29 891.768 1205.8 912.243 C 1210.61 920.986 1220.74 938.411 1224.36 947.183 C 1231.01 959.819 1245.02 990.372 1250.38 1003.9 C 1261.3 1025.37 1271.43 1048.18 1281.31 1070.19 L 1280.56 1071.68 C 1232.77 1042.7 1196.62 1018.51 1160.08 975.315 C 1150.44 963.919 1139.08 950.673 1131.34 937.981 C 1119.71 926.162 1094.77 885.861 1085.33 870.009 C 1080.35 862.951 1063.8 861.582 1055.13 859.705 C 1041.5 856.75 1028.26 854.135 1014.72 850.613 C 1021.01 840.101 1058.78 813.195 1067.43 799.942 z" fill="rgb(16,185,129)" transform="translate(0,0)"></path>
<path d="M 1131.34 937.981 C 1139.64 940.776 1161.19 953.718 1169.39 958.431 L 1228.03 991.85 C 1231.96 994.088 1247.07 1003.18 1250.38 1003.9 C 1261.3 1025.37 1271.43 1048.18 1281.31 1070.19 L 1280.56 1071.68 C 1232.77 1042.7 1196.62 1018.51 1160.08 975.315 C 1150.44 963.919 1139.08 950.673 1131.34 937.981 z" fill="rgb(0,116,99)" transform="translate(0,0)"></path>
<path d="M 1118.84 1077.04 L 1120.95 1078.9 C 1117.2 1082.34 1113.49 1085.67 1109.96 1089.35 C 1096.48 1103.31 1082.42 1116.28 1068.9 1130.05 C 1041.95 1157.48 1014.08 1185.83 985.373 1211.49 C 998.111 1209.77 1012.95 1209.61 1024.61 1207.69 C 1012.1 1224.61 991.554 1251.12 981.968 1268.95 C 969.598 1268.71 955.605 1268.18 943.301 1268.79 C 893.388 1271.27 846.329 1267.13 796.816 1259.93 C 798.954 1258.55 803.673 1255.26 805.836 1254.54 C 815.173 1249.08 824.622 1243.39 834.168 1238.34 C 835.92 1236.77 851.747 1227.42 854.709 1225.63 C 874.231 1213.72 893.981 1202.19 913.946 1191.04 C 981.726 1152.12 1050.03 1114.11 1118.84 1077.04 z" fill="rgb(16,185,129)" transform="translate(0,0)"></path>
<path d="M 1118.84 1077.04 L 1120.95 1078.9 C 1117.2 1082.34 1113.49 1085.67 1109.96 1089.35 C 1097.1 1092.02 1082.95 1103.37 1073.8 1112.43 C 1051.03 1121.1 1029.25 1138.63 1007.91 1151.04 C 975.436 1169.93 942.311 1190.29 909.67 1208.75 C 890.057 1219.84 860.21 1230.8 838.236 1241.47 C 834.978 1243.46 832.124 1244.55 830.699 1247.92 L 830.609 1251.26 C 824.443 1252.25 809.676 1256.31 805.836 1254.54 C 815.173 1249.08 824.622 1243.39 834.168 1238.34 C 835.92 1236.77 851.747 1227.42 854.709 1225.63 C 874.231 1213.72 893.981 1202.19 913.946 1191.04 C 981.726 1152.12 1050.03 1114.11 1118.84 1077.04 z" fill="rgb(20,184,166)" transform="translate(0,0)"></path>
<path d="M 1095.24 983.049 C 1093.96 980.157 1092.75 977.239 1091.6 974.295 C 1087.61 964.102 1070.19 912.343 1073.47 904.805 C 1150.78 1026.47 1202.62 1064.23 1332.34 1127.51 C 1324.73 1134.05 1295.2 1146.23 1284.69 1152.71 C 1281.26 1151.95 1271.06 1144.84 1267.82 1142.67 C 1263.12 1143.41 1258.23 1144.58 1253.52 1145.5 C 1248.34 1141.66 1225.83 1128.38 1219.91 1127.47 C 1220.73 1127.29 1222.36 1127.2 1222.88 1126.3 C 1222.44 1123.73 1192.87 1104.7 1188.75 1101.83 C 1183.18 1099.01 1180.87 1095.24 1173.92 1093.41 C 1168.29 1091.23 1139.18 1062.69 1133.74 1055.95 C 1112.71 1034.19 1075.99 990.821 1060.29 964.955 C 1070.01 965.048 1086.92 977.45 1095.24 983.049 z" fill="rgb(192,208,224)" transform="translate(0,0)"></path>
<path d="M 1096.95 985.146 C 1119.87 1001.91 1148.87 1018.06 1172.08 1035.31 C 1180.96 1041.91 1196.37 1049.84 1202.6 1058.3 C 1200.49 1066.51 1192.32 1094.2 1188.75 1101.83 C 1183.18 1099.01 1180.87 1095.24 1173.92 1093.41 C 1168.29 1091.23 1139.18 1062.69 1133.74 1055.95 C 1133.73 1054.97 1133.79 1053.48 1133.29 1052.58 C 1121.11 1030.37 1105.81 1008.97 1096.95 985.146 z" fill="rgb(124,125,134)" transform="translate(0,0)"></path>
<path d="M 1202.6 1058.3 C 1204.31 1061.06 1206.68 1064.05 1208.61 1066.7 L 1211.6 1070.76 C 1221.45 1083.08 1232.14 1095.38 1241.56 1107.86 L 1244.57 1111.84 L 1247.57 1115.82 L 1250.57 1119.84 C 1256.37 1127.75 1261.9 1134.96 1267.82 1142.67 C 1263.12 1143.41 1258.23 1144.58 1253.52 1145.5 C 1248.34 1141.66 1225.83 1128.38 1219.91 1127.47 C 1220.73 1127.29 1222.36 1127.2 1222.88 1126.3 C 1222.44 1123.73 1192.87 1104.7 1188.75 1101.83 C 1192.32 1094.2 1200.49 1066.51 1202.6 1058.3 z" fill="rgb(161,165,179)" transform="translate(0,0)"></path>
<path d="M 1606.54 1031.05 C 1651.73 1032.56 1698.91 1039.53 1743.97 1044.17 C 1777.77 1047.66 1811.61 1053.85 1845.58 1056.33 L 1845 1057.53 C 1836.45 1058.56 1825.02 1057.57 1817.78 1058.87 C 1745.44 1060.34 1660.71 1067.54 1590.11 1081.59 C 1563.98 1086.8 1526.22 1099.41 1499.2 1107.35 C 1516.71 1093.76 1536.47 1080.42 1554.61 1067.54 C 1571.55 1055.51 1589.22 1042.37 1606.54 1031.05 z" fill="url(#Gradient1)" transform="translate(0,0)"></path>
<path d="M 945.278 549.065 C 946.816 551.452 948.036 553.489 949.22 556.097 C 970.591 589.264 987.858 616.67 1012.82 647.788 C 1025.64 663.776 1040.91 680.258 1052.84 695.714 C 1054.16 696.585 1054.27 696.816 1055.51 698.039 C 1049.47 701.154 1033.39 705.162 1026.55 706.186 L 1021.32 708.23 C 1015.11 701.47 997.35 687.139 993.789 681.921 C 979.915 669.225 966.183 656.374 952.594 643.373 C 950.229 634.518 947.729 625.7 945.095 616.922 C 940.664 598.514 934.371 578.909 928.246 561.036 C 929.462 560.629 930.364 560.146 931.164 559.114 C 935.403 553.647 939.473 552.23 945.278 549.065 z" fill="rgb(192,208,224)" transform="translate(0,0)"></path>
<path d="M 978.443 642.547 C 986.658 649.725 1046.35 695.221 1052.84 695.714 C 1054.16 696.585 1054.27 696.816 1055.51 698.039 C 1049.47 701.154 1033.39 705.162 1026.55 706.186 L 1021.32 708.23 C 1015.11 701.47 997.35 687.139 993.789 681.921 C 993.431 675.487 981.883 649.927 978.443 642.547 z" fill="rgb(124,125,134)" transform="translate(0,0)"></path>
<path d="M 945.278 549.065 C 946.816 551.452 948.036 553.489 949.22 556.097 C 949.055 563.299 954.006 571.843 955.861 580.521 L 954.935 584.487 L 953.835 588.976 C 953.341 591 952.791 593.018 952.232 595.025 L 951.171 599.023 C 950.304 602.228 948.251 608.927 948.179 611.904 C 947.08 613.879 946.389 615.07 945.095 616.922 C 940.664 598.514 934.371 578.909 928.246 561.036 C 929.462 560.629 930.364 560.146 931.164 559.114 C 935.403 553.647 939.473 552.23 945.278 549.065 z" fill="rgb(124,125,134)" transform="translate(0,0)"></path>
<path d="M 955.861 580.521 C 960.178 587.249 975.634 629.941 978.675 639.361 L 980.693 645.596 C 973.049 638.974 953.663 619.956 948.179 611.904 C 948.251 608.927 950.304 602.228 951.171 599.023 L 952.232 595.025 C 952.791 593.018 953.341 591 953.835 588.976 L 954.935 584.487 L 955.861 580.521 z" fill="rgb(161,165,179)" transform="translate(0,0)"></path>
<path d="M 928.287 714.592 C 940.029 708.546 954.511 703.236 967.608 696.599 C 1004.37 727.821 1044.07 756.818 1080.5 788.707 C 1093.03 799.669 1110.29 811.781 1121.93 823.012 C 1070.97 796.473 1021.3 770.392 972.331 740.21 C 958.256 731.536 942.038 723.33 928.287 714.592 z" fill="rgb(0,116,99)" transform="translate(0,0)"></path>
<path d="M 1055.51 698.039 C 1079.37 730.363 1117.83 763.12 1145.02 792.731 C 1155.58 802.283 1166.2 811.682 1176.22 821.8 C 1125.83 790.536 1064.46 749.017 1021.32 708.23 L 1026.55 706.186 C 1033.39 705.162 1049.47 701.154 1055.51 698.039 z" fill="rgb(161,165,179)" transform="translate(0,0)"></path>
<path d="M 1026.55 706.186 C 1031.21 706.597 1040.34 714.053 1044.6 717.127 C 1064.05 731.206 1083.07 745.866 1101.63 761.087 C 1110.89 768.656 1134.87 791.042 1145.02 792.731 C 1155.58 802.283 1166.2 811.682 1176.22 821.8 C 1125.83 790.536 1064.46 749.017 1021.32 708.23 L 1026.55 706.186 z" fill="rgb(192,208,224)" transform="translate(0,0)"></path>
<path d="M 867.791 431.438 C 879.698 451.355 877.936 475.786 883.792 484.043 C 882.915 493.549 883.565 500.323 884.039 509.828 C 884.004 543.363 887.427 564.581 890.292 596.435 C 881.7 586.189 866.272 567.122 860.441 554.444 C 860.563 552.62 860.666 551.09 860.749 549.855 C 860.555 520.304 863.444 484.015 865.229 454.095 C 865.099 448.329 866.911 437.182 867.791 431.438 z" fill="rgb(192,208,224)" transform="translate(0,0)"></path>
<path d="M 867.791 431.438 C 879.698 451.355 877.936 475.786 883.792 484.043 C 882.915 493.549 883.565 500.323 884.039 509.828 L 882.532 508.581 C 879.107 513.38 870.274 530.428 867.516 536.28 C 859.932 527.854 870.428 462.128 865.229 454.095 C 865.099 448.329 866.911 437.182 867.791 431.438 z" fill="rgb(124,125,134)" transform="translate(0,0)"></path>
<path d="M 882.999 359.009 L 885.378 359.996 L 885.359 365.801 C 891.049 400.4 897.085 423.182 907.655 457.064 C 904.901 463.394 901.084 469.473 897.028 475.045 C 893.132 465.001 889.314 453.421 885.713 443.167 C 885.386 440.74 885.333 440.976 884.486 438.623 L 883.509 440.759 C 884.199 450.536 884.162 459.797 884.195 469.573 L 883.792 484.043 C 877.936 475.786 879.698 451.355 867.791 431.438 C 868.889 416.328 875.467 390.329 879.007 375.361 C 880.234 369.396 881.328 364.862 882.999 359.009 z" fill="rgb(161,165,179)" transform="translate(0,0)"></path>
<path d="M 882.999 359.009 L 885.378 359.996 L 885.359 365.801 C 881.598 374.61 884.117 383.893 882.239 392.54 C 882.25 399.552 881.812 437.455 883.509 440.759 C 884.199 450.536 884.162 459.797 884.195 469.573 L 883.792 484.043 C 877.936 475.786 879.698 451.355 867.791 431.438 C 868.889 416.328 875.467 390.329 879.007 375.361 C 880.234 369.396 881.328 364.862 882.999 359.009 z" fill="rgb(192,208,224)" transform="translate(0,0)"></path>
<path d="M 907.655 457.064 C 920.051 494.62 927.262 513.606 945.278 549.065 C 939.473 552.23 935.403 553.647 931.164 559.114 C 930.364 560.146 929.462 560.629 928.246 561.036 C 918.076 532.287 907.67 503.622 897.028 475.045 C 901.084 469.473 904.901 463.394 907.655 457.064 z" fill="rgb(192,208,224)" transform="translate(0,0)"></path>
<path d="M 1173.92 1093.41 C 1180.87 1095.24 1183.18 1099.01 1188.75 1101.83 C 1192.87 1104.7 1222.44 1123.73 1222.88 1126.3 C 1222.36 1127.2 1220.73 1127.29 1219.91 1127.47 C 1215.32 1128.13 1211.2 1129.33 1206.74 1130.14 C 1199 1131.88 1186.72 1135.17 1179.3 1137.84 L 1171.65 1140.06 C 1161.89 1143.27 1152.01 1146.09 1142.03 1148.51 C 1134.15 1150.53 1099.76 1159.5 1093.54 1159.27 C 1099.95 1153.33 1132.94 1145.15 1143.12 1142.51 C 1148.2 1140.26 1166.41 1134.44 1171.7 1133.28 C 1180.89 1129.74 1191.58 1127.61 1201.25 1125.36 C 1203.87 1124.94 1207.87 1123.96 1210.57 1123.38 C 1199.83 1115.87 1183.15 1102.55 1173.92 1093.41 z" fill="rgb(20,184,166)" transform="translate(0,0)"></path>
<path d="M 1118.84 1077.04 C 1120.29 1076.08 1123.5 1073.48 1125.2 1074.52 C 1125.51 1075.93 1121.8 1078.25 1120.95 1078.9 L 1118.84 1077.04 z" fill="rgb(16,185,129)" transform="translate(0,0)"></path>
<path d="M 353.725 1593.67 C 353.206 1593.58 348.632 1593.21 348.519 1592.31 C 348.995 1591.24 352.029 1590.22 352.995 1589.8 L 353.725 1593.67 z" fill="rgb(0,116,99)" transform="translate(0,0)"></path>
<path d="M 882.999 359.009 L 883.037 357.497 C 883.02 351.026 885.08 357.835 885.378 359.996 L 882.999 359.009 z" fill="rgb(111,110,113)" transform="translate(0,0)"></path>
<metadata><recraft-signature>{"signed_by": "recraft", "signature_b64": "zG8XE8EqxHJapBa1LXLo9D1skv+tPja41nZm1Bi0O6NlIZE2gFVcm3zRasRyriqjr4WlT5f2WQHP+AeIZbQCDA==", "signing_algo": "Ed25519", "generation_timestamp": 1774685625, "identifier": "3be1d4dd-cd31-4ea6-830c-458a201e83a9"}</recraft-signature></metadata></svg>