<svg version="1.1" xmlns="http://www.w3.org/2000/svg" style="display: block;" viewBox="0 0 2048 1117" width="1408" height="768" preserveAspectRatio="none">
<path transform="translate(0,0)" fill="rgb(255,255,255)" d="M 0 0 L 2048 0 L 2048 1117 L 0 1117 L 0 0 z"/>
<path transform="translate(0,0)" fill="rgb(0,0,0)" d="M 1008.73 133.627 L 1191.01 163.962 C 1217.71 168.425 1248.9 172.954 1275.87 178.216 C 1285.16 180.028 1342.39 212.857 1350.83 221.153 C 1354 224.265 1372.57 260.705 1377.58 269.159 C 1393.07 276.844 1408.99 284.52 1424.57 292.168 C 1439.93 299.708 1458.53 325.533 1465.32 340.383 C 1467.78 345.764 1474.54 371.306 1476.89 379.293 C 1465.19 375.232 1453.58 370.903 1442.07 366.31 C 1412.27 373.234 1383.69 380.022 1353.7 386.545 C 1344.55 401.81 1335.31 422.407 1327.01 438.834 C 1331.55 462.882 1336.24 486.9 1341.1 510.886 C 1342.36 517.209 1348.35 546.373 1348.12 549.544 C 1347.18 562.668 1336.57 598.1 1333.73 609.572 C 1330.44 617.962 1316.46 679.548 1313.46 682.532 C 1274.91 720.775 1235.8 760.811 1194.27 795.284 C 1192 797.173 1172.35 798.592 1167.82 802.973 C 1155.78 814.607 1130.76 845.498 1121.22 856.362 C 1122.63 858.47 1124.22 860.435 1125.84 862.385 C 1141.36 881.085 1156.36 900.311 1172.51 918.48 L 1242.16 918.418 C 1248.51 924.663 1259.05 936.12 1264.3 942.939 L 1006.3 942.909 C 1012.99 934.931 1019.26 926.68 1025.61 918.433 L 1065.44 918.338 L 1008.55 856.641 C 1000.43 847.917 988.042 834.052 979.573 826.429 C 966.926 826.63 953.926 826.499 941.25 826.51 L 895.113 826.611 C 871.281 865.164 843.337 904.999 818.517 943.568 C 805.277 948.942 790.9 953.392 777.451 958.402 C 734.395 974.384 690.71 988.151 646.507 1000.57 C 640.198 1002.34 631.029 1005.46 624.611 1006.12 C 587.287 1009.99 548.941 1011.21 511.65 1014.89 C 529.333 994.125 548.377 974.58 566.44 954.243 C 613.631 901.114 663.55 849.064 710.368 795.751 C 684.75 798.789 657.272 800.959 631.456 803.31 C 661.745 768.307 697.273 731.242 728.875 696.959 L 898.767 512.196 L 960.677 445.129 C 970.622 434.467 989.148 415.692 997.263 404.525 C 1003.29 396.228 1014.93 373.555 1020.49 363.565 L 1068.51 277.791 C 1061.44 273.5 1040.13 260.705 1035.44 256.327 C 1023.97 245.639 1007.68 214.773 1000.06 200.214 C 1016.25 202.655 1035.53 206.896 1051.85 210.039 C 1047.28 205.931 1037.83 197.718 1034.98 192.895 C 1024.87 175.755 1016.38 152.326 1008.73 133.627 z"/>
<path transform="translate(0,0)" fill="rgb(6,92,58)" d="M 1037.42 159.059 L 1037.55 157.326 C 1045.22 156.757 1083.27 164.863 1093.92 166.417 C 1135.78 172.52 1178.49 181.426 1220.44 186.727 C 1207.08 200.005 1193.8 213.373 1180.62 226.83 C 1167.53 239.887 1148.38 258.127 1136.25 271.584 C 1136.03 297.396 1135.98 323.209 1136.07 349.022 C 1142.75 357.694 1166.22 379.872 1174.91 388.416 L 1159.08 404.462 C 1145.28 404.541 1022.12 405.724 1019.09 404.243 L 1019.29 403.016 C 1040.32 360.773 1069.35 313.575 1092.13 271.387 C 1067.54 252.188 1050.98 254.837 1033.23 223.552 C 1056.45 228.67 1083.58 233.197 1107.23 237.807 C 1089.51 219.398 1068.2 203.779 1050.91 185.036 C 1045.48 179.155 1041.74 166.795 1037.42 159.059 z"/>
<path transform="translate(0,0)" fill="rgb(7,140,80)" d="M 1037.42 159.059 L 1037.55 157.326 C 1045.22 156.757 1083.27 164.863 1093.92 166.417 C 1135.78 172.52 1178.49 181.426 1220.44 186.727 C 1207.08 200.005 1193.8 213.373 1180.62 226.83 C 1135.53 203.756 1083.95 181.675 1037.42 159.059 z"/>
<path transform="translate(0,0)" fill="rgb(7,140,80)" d="M 1092.13 271.387 C 1099.98 276.02 1107.81 280.134 1115.85 284.391 C 1107.71 305.431 1098.84 326.133 1089.67 346.738 C 1086.25 354.406 1080.53 369.308 1076.71 376.093 C 1074.05 377.332 1065.76 381.55 1063.57 382.293 C 1056.76 384.608 1023.68 403.972 1019.29 403.016 C 1040.32 360.773 1069.35 313.575 1092.13 271.387 z"/>
<path transform="translate(0,0)" fill="rgb(165,164,164)" d="M 1227.1 621.532 L 1239.63 634.223 C 1253.43 647.886 1275.7 668.924 1288.23 682.939 L 1225.82 742.702 C 1215.04 753.05 1195.52 775.046 1181.87 778.867 C 1178.94 779.548 1176 780.123 1173.19 781.196 L 1157.08 785.859 C 1154.51 786.564 1150.63 787.513 1148.22 788.353 L 1093.61 803.373 C 1105.43 789.998 1117.34 776.7 1129.34 763.483 L 1129.56 737.202 C 1129.35 729.432 1129.18 722.332 1129.45 714.567 C 1162.18 683.748 1194.73 652.736 1227.1 621.532 z"/>
<path transform="translate(0,0)" fill="rgb(131,130,130)" d="M 1227.1 621.532 L 1239.63 634.223 C 1233.18 640.492 1225.42 648.45 1218.39 653.762 C 1206.42 654.317 1199.7 658.496 1200.3 671.277 C 1176.9 693.361 1152.76 715.017 1129.56 737.202 C 1129.35 729.432 1129.18 722.332 1129.45 714.567 C 1162.18 683.748 1194.73 652.736 1227.1 621.532 z"/>
<path transform="translate(0,0)" fill="rgb(165,164,164)" d="M 1129.56 737.202 C 1152.76 715.017 1176.9 693.361 1200.3 671.277 C 1201.85 674.37 1203.62 676.417 1203.16 679.261 C 1189.88 693.81 1163.47 716.489 1148.05 730.682 L 1148.22 788.353 L 1093.61 803.373 C 1105.43 789.998 1117.34 776.7 1129.34 763.483 L 1129.56 737.202 z"/>
<path transform="translate(0,0)" fill="rgb(11,165,143)" d="M 1218.39 653.762 C 1229.84 659.317 1235.13 672.72 1220.51 680.71 C 1218.86 681.614 1215.42 681.426 1213.73 682.777 C 1194.88 698.601 1175.11 718.69 1157.01 735.039 L 1157.08 785.859 C 1154.51 786.564 1150.63 787.513 1148.22 788.353 L 1148.05 730.682 C 1163.47 716.489 1189.88 693.81 1203.16 679.261 C 1203.62 676.417 1201.85 674.37 1200.3 671.277 C 1199.7 658.496 1206.42 654.317 1218.39 653.762 z"/>
<path transform="translate(0,0)" fill="rgb(165,164,164)" d="M 1212.37 662.459 C 1215.18 661.263 1218.44 662.478 1219.79 665.225 C 1221.13 667.973 1220.09 671.291 1217.41 672.777 C 1215.56 673.811 1213.28 673.735 1211.49 672.578 C 1209.71 671.422 1208.71 669.375 1208.89 667.255 C 1209.07 665.136 1210.41 663.291 1212.37 662.459 z"/>
<path transform="translate(0,0)" fill="rgb(11,165,143)" d="M 1239.16 685.5 C 1237.82 676.371 1239.26 662.658 1251.82 663.943 C 1256.3 664.405 1260.41 666.652 1263.21 670.177 C 1274.92 684.89 1261.59 694.023 1245.02 691.695 C 1224.97 711.926 1202.57 732.084 1181.87 751.992 L 1181.87 778.867 C 1178.94 779.548 1176 780.123 1173.19 781.196 C 1172.73 770.167 1172.75 758.823 1172.64 747.763 C 1194.55 726.721 1216.72 705.965 1239.16 685.5 z"/>
<path transform="translate(0,0)" fill="rgb(165,164,164)" d="M 1252.27 672.505 C 1255.34 672.197 1258.13 674.277 1258.72 677.302 C 1259.3 680.326 1257.48 683.298 1254.53 684.154 C 1252.36 684.782 1250.02 684.13 1248.49 682.47 C 1246.96 680.81 1246.5 678.427 1247.3 676.317 C 1248.1 674.206 1250.03 672.73 1252.27 672.505 z"/>
<path transform="translate(0,0)" fill="rgb(7,140,80)" d="M 1009.57 422.491 L 1023.21 422.573 C 1023.67 457.819 1023.67 493.07 1023.2 528.315 C 1017.54 535.685 1007.72 545.877 1001.29 552.945 C 987.358 568.317 973.284 583.563 959.072 598.679 C 940.596 600.968 922.201 603.867 903.917 607.37 C 927.669 580.598 952.811 554.712 976.896 528.206 C 982.24 522.325 987.804 516.791 992.779 510.564 C 992.505 507.369 991.988 507.79 989.327 505.069 L 981.85 498.474 C 959.82 521.059 937.396 548.595 914.655 570.002 C 897.186 573.235 879.671 576.209 862.113 578.921 C 889.807 546.665 924.939 510.073 954.276 478.424 L 986.231 443.909 C 991.599 438.074 1002.64 423.665 1009.57 422.491 z"/>
<path transform="translate(0,0)" fill="rgb(7,140,80)" d="M 874.232 595.465 C 880.798 594.024 888.36 593.107 894.581 591.521 C 887.785 599.728 882.02 606.157 874.666 613.88 C 869.328 619.634 862.969 626.84 857.368 632.129 L 870.291 630.579 C 827.577 678.912 781.139 726.214 738.751 774.828 C 730.548 775.628 681.479 781.142 677.551 780.044 C 678.313 778.058 677.67 778.737 679.308 777.757 C 693.556 759.7 722.477 730.426 738.912 712.752 L 842.829 600.472 C 853.261 598.588 863.731 596.918 874.232 595.465 z"/>
<path transform="translate(0,0)" fill="rgb(6,92,58)" d="M 864.312 609.211 C 868.165 611.937 869.888 613.279 874.666 613.88 C 869.328 619.634 862.969 626.84 857.368 632.129 L 870.291 630.579 C 827.577 678.912 781.139 726.214 738.751 774.828 C 730.548 775.628 681.479 781.142 677.551 780.044 C 678.313 778.058 677.67 778.737 679.308 777.757 L 681.17 778.289 C 694.949 770.247 719.929 759.999 731.487 751.12 C 744.252 741.312 763.18 716.985 775.295 704.481 C 805.315 673.494 834.151 639.974 864.312 609.211 z"/>
<path transform="translate(0,0)" fill="rgb(6,92,58)" d="M 874.232 595.465 C 880.798 594.024 888.36 593.107 894.581 591.521 C 887.785 599.728 882.02 606.157 874.666 613.88 C 869.888 613.279 868.165 611.937 864.312 609.211 C 868.491 605.106 872.202 601.798 875.359 596.808 L 874.232 595.465 z"/>
<path transform="translate(0,0)" fill="rgb(165,164,164)" d="M 1169.66 290.749 L 1179.97 290.979 L 1221.78 290.782 C 1224.67 304.778 1228.52 314.943 1241.35 323.37 C 1250.51 329.34 1261.7 331.33 1272.35 328.883 C 1279.42 327.292 1284 324.636 1289.83 320.428 L 1295.63 313.805 C 1300.7 316.312 1308.83 320.072 1313.49 322.865 L 1270.43 366.243 C 1262.4 374.421 1254.22 383.363 1245.39 390.662 C 1243.69 392.07 1240.52 391.85 1238.38 391.735 C 1227.94 392.339 1212.17 390.35 1202.71 392.443 C 1194.09 384.26 1158.6 349.072 1153.12 341.302 C 1152.8 324.773 1153.04 307.397 1153.01 290.798 L 1169.66 290.749 z"/>
<path transform="translate(0,0)" fill="rgb(165,164,164)" d="M 1153.01 290.798 L 1169.66 290.749 L 1169.35 297 C 1169.31 309.355 1169.09 322.309 1169.35 334.604 C 1180.01 345.999 1195.45 361.78 1206.85 372.369 C 1207.05 377.219 1207.94 387.036 1205.9 390.975 L 1202.71 392.443 C 1194.09 384.26 1158.6 349.072 1153.12 341.302 C 1152.8 324.773 1153.04 307.397 1153.01 290.798 z"/>
<path transform="translate(0,0)" fill="rgb(255,255,255)" d="M 1153.01 290.798 L 1169.66 290.749 L 1169.35 297 C 1167.37 297.676 1164.86 298.037 1164.44 299.604 C 1161.64 310.075 1164.21 323.525 1163.04 334.928 C 1160.2 337.086 1156.41 340.352 1153.12 341.302 C 1152.8 324.773 1153.04 307.397 1153.01 290.798 z"/>
<path transform="translate(0,0)" fill="rgb(4,124,108)" d="M 1169.66 290.749 L 1179.97 290.979 L 1179.73 292.064 C 1178.8 295.998 1179.85 324.352 1179.96 330.453 C 1190.9 341.602 1207.64 357.762 1217.36 369.166 C 1217.74 377.351 1217.63 383.055 1217.24 391.254 C 1222.8 391.304 1233.26 391.136 1238.38 391.735 C 1227.94 392.339 1212.17 390.35 1202.71 392.443 L 1205.9 390.975 C 1207.94 387.036 1207.05 377.219 1206.85 372.369 C 1195.45 361.78 1180.01 345.999 1169.35 334.604 C 1169.09 322.309 1169.31 309.355 1169.35 297 L 1169.66 290.749 z"/>
<path transform="translate(0,0)" fill="rgb(255,255,255)" d="M 1179.97 290.979 L 1221.78 290.782 C 1224.67 304.778 1228.52 314.943 1241.35 323.37 C 1250.51 329.34 1261.7 331.33 1272.35 328.883 C 1279.42 327.292 1284 324.636 1289.83 320.428 C 1289.78 322.004 1289.61 322.524 1288.72 323.905 C 1277.64 341.159 1250.4 341.098 1234.7 330.533 C 1222.73 322.484 1217.43 313.216 1214.36 299.455 C 1203.49 299 1192.3 299.77 1181.22 299.479 C 1179.74 297.869 1179.89 294.448 1179.73 292.064 L 1179.97 290.979 z"/>
<path transform="translate(0,0)" fill="rgb(165,164,164)" d="M 1231.93 198.759 L 1280.67 198.807 C 1299.53 209.986 1318.49 220.999 1337.55 231.842 C 1343.22 242.355 1355.76 264.213 1360.21 274.724 L 1351.42 283.199 L 1339.15 295.491 C 1329.14 288.527 1310.58 279.226 1302.17 272.287 C 1294.7 266.125 1296.11 258.869 1281.03 251.398 C 1271.26 246.614 1259.98 245.965 1249.73 249.598 C 1236.88 254.154 1230.12 262.481 1224.58 274.195 L 1166.62 274.073 C 1164.15 274.115 1160.4 274.568 1158.54 273.304 C 1164.25 266.139 1172.41 258.142 1179.07 251.681 C 1196.83 234.442 1213.91 215.642 1231.93 198.759 z"/>
<path transform="translate(0,0)" fill="rgb(255,255,255)" d="M 1231.93 198.759 L 1280.67 198.807 C 1299.53 209.986 1318.49 220.999 1337.55 231.842 C 1343.22 242.355 1355.76 264.213 1360.21 274.724 L 1351.42 283.199 C 1346.67 271.052 1336.09 251.249 1329.63 239.725 C 1278.88 211.815 1291.75 208.367 1231.81 208.757 L 1166.62 274.073 C 1164.15 274.115 1160.4 274.568 1158.54 273.304 C 1164.25 266.139 1172.41 258.142 1179.07 251.681 C 1196.83 234.442 1213.91 215.642 1231.93 198.759 z"/>
<path transform="translate(0,0)" fill="rgb(165,164,164)" d="M 1257.8 498.832 L 1261.41 504.158 L 1265.58 503.224 L 1269.77 507.87 C 1272.77 511.952 1275.09 515.045 1278.45 518.867 C 1285.77 528.313 1297.51 544.7 1304.92 553.067 L 1330.22 553.072 C 1319.29 592.757 1309.21 633.607 1297.73 672.975 L 1290.04 665.101 C 1286.63 661.13 1279.91 654.83 1275.97 650.939 C 1273.17 648.555 1270.3 645.5 1267.69 642.849 L 1256.31 631.013 L 1245.6 620.363 C 1235.77 610.512 1239.82 607.354 1239.98 593.888 L 1240.15 536.626 C 1244.9 542.319 1249.23 547.861 1254.78 552.786 C 1255.34 551.483 1255.7 543.222 1255.94 540.906 L 1255.95 540.265 C 1257.26 533.646 1256.41 510.66 1257.8 498.832 z"/>
<path transform="translate(0,0)" fill="rgb(11,165,143)" d="M 1240.15 536.626 C 1244.9 542.319 1249.23 547.861 1254.78 552.786 C 1255.34 551.483 1255.7 543.222 1255.94 540.906 L 1268.54 555.11 C 1287.81 559.317 1293.92 575.076 1276.08 585.786 C 1276.09 607.041 1276.52 629.807 1275.97 650.939 C 1273.17 648.555 1270.3 645.5 1267.69 642.849 L 1256.31 631.013 L 1245.6 620.363 C 1235.77 610.512 1239.82 607.354 1239.98 593.888 L 1240.15 536.626 z"/>
<path transform="translate(0,0)" fill="rgb(131,130,130)" d="M 1240.15 536.626 C 1244.9 542.319 1249.23 547.861 1254.78 552.786 L 1261.74 560.175 C 1257.92 566.179 1256.72 567.703 1257.44 574.826 C 1255.08 593.651 1257.73 612.434 1256.31 631.013 L 1245.6 620.363 C 1235.77 610.512 1239.82 607.354 1239.98 593.888 L 1240.15 536.626 z"/>
<path transform="translate(0,0)" fill="rgb(165,164,164)" d="M 1257.44 574.826 C 1260.11 580.64 1261.46 582.329 1267.09 585.573 C 1267.1 604.846 1267.58 623.765 1267.69 642.849 L 1256.31 631.013 C 1257.73 612.434 1255.08 593.651 1257.44 574.826 z"/>
<path transform="translate(0,0)" fill="rgb(165,164,164)" d="M 1268.6 565.596 C 1270.53 564.51 1272.9 564.548 1274.79 565.697 C 1276.68 566.847 1277.81 568.927 1277.73 571.139 C 1277.66 573.351 1276.39 575.351 1274.43 576.369 C 1271.46 577.906 1267.81 576.782 1266.22 573.843 C 1264.63 570.905 1265.69 567.235 1268.6 565.596 z"/>
<path transform="translate(0,0)" fill="rgb(255,255,255)" d="M 1261.41 504.158 L 1265.58 503.224 L 1269.77 507.87 C 1272.77 511.952 1275.09 515.045 1278.45 518.867 C 1285.77 528.313 1297.51 544.7 1304.92 553.067 L 1330.22 553.072 C 1319.29 592.757 1309.21 633.607 1297.73 672.975 L 1290.04 665.101 C 1292.49 653.02 1297.47 636.385 1300.74 624.141 C 1305.98 603.787 1311.36 583.47 1316.88 563.191 L 1298.91 563.167 C 1288.62 547.054 1269.47 519.979 1261.41 504.158 z"/>
<path transform="translate(0,0)" fill="rgb(7,140,80)" d="M 897.637 625.589 C 911.645 623.574 925.641 621.481 939.626 619.311 L 920.77 640.128 C 916.34 645.162 910.353 651.891 905.334 656.352 C 915.513 655.446 924.95 653.971 935.022 652.431 C 901.066 686.876 868.122 728.552 834.806 763.779 C 825.883 764.598 769.106 772.098 765.969 770.121 C 766.643 769.359 767.382 768.363 768.203 767.866 L 897.637 625.589 z"/>
<path transform="translate(0,0)" fill="rgb(6,92,58)" d="M 768.203 767.866 C 774.651 768.424 783.7 761.103 789.234 758.146 C 801.816 751.422 816.174 746.193 827.165 736.896 C 844.346 722.364 908.856 643.698 920.77 640.128 C 916.34 645.162 910.353 651.891 905.334 656.352 C 915.513 655.446 924.95 653.971 935.022 652.431 C 901.066 686.876 868.122 728.552 834.806 763.779 C 825.883 764.598 769.106 772.098 765.969 770.121 C 766.643 769.359 767.382 768.363 768.203 767.866 z"/>
<path transform="translate(0,0)" fill="rgb(7,140,80)" d="M 700.977 833.074 C 708.252 832.996 743.113 828.662 746.86 830.183 L 660.169 934.284 C 650.298 946.155 623.704 979.723 614.174 989.024 C 594.881 990.386 574.267 992.384 555.079 993.299 L 700.977 833.074 z"/>
<path transform="translate(0,0)" fill="rgb(7,140,80)" d="M 772.62 826.359 C 783.749 825.761 809.372 821.296 818.919 822.203 C 786.411 868.049 753.663 913.724 720.678 959.227 C 697.332 967.723 666.07 975.985 641.494 983.438 C 685.397 931.654 728.524 877.661 772.62 826.359 z"/>
<path transform="translate(0,0)" fill="rgb(165,164,164)" d="M 1038.88 430.901 C 1039 427.056 1038.43 425.569 1040.17 422.588 C 1049.86 421.576 1067.14 422.112 1077.31 422.131 L 1143.19 422.255 C 1131.52 432.614 1120.8 443.715 1109.31 454.204 L 1109.83 504.787 L 1061.13 550.702 C 1057.06 554.56 1043.75 568.045 1039.93 570.273 C 1038.66 568.247 1039.02 566.427 1038.88 563.72 C 1039.03 555.317 1039.01 546.786 1039.06 538.37 C 1047.07 528.932 1067.25 510.641 1076.95 501.385 L 1076.94 476.32 C 1089.71 469.086 1097.06 455.143 1083.03 444.841 C 1078.61 441.558 1073.06 440.202 1067.63 441.081 C 1056.69 442.916 1052.5 452.243 1054.47 462.51 C 1055.85 469.692 1061.06 472.978 1066.77 476.759 L 1066.96 496.662 C 1057.5 506.041 1048.87 514.424 1038.96 523.323 C 1039.14 492.516 1039.11 461.708 1038.88 430.901 z"/>
<path transform="translate(0,0)" fill="rgb(255,255,255)" d="M 1038.88 430.901 C 1039 427.056 1038.43 425.569 1040.17 422.588 C 1049.86 421.576 1067.14 422.112 1077.31 422.131 L 1143.19 422.255 C 1131.52 432.614 1120.8 443.715 1109.31 454.204 L 1109.83 504.787 L 1061.13 550.702 C 1057.06 554.56 1043.75 568.045 1039.93 570.273 C 1038.66 568.247 1039.02 566.427 1038.88 563.72 C 1039.25 561.637 1039.75 559.202 1041.23 557.646 C 1059.87 537.999 1082.61 520.197 1100.9 500.385 L 1101.06 449.943 C 1107.67 443.811 1114.1 437.486 1120.33 430.976 C 1093.18 431.338 1066.03 431.313 1038.88 430.901 z"/>
<path transform="translate(0,0)" fill="rgb(6,92,58)" d="M 994.331 641.446 C 1008.09 638.145 1010.84 638.498 1023.23 631.141 C 1023.42 636.68 1023.74 642.576 1023.56 648.087 C 1008.59 663.331 994.482 679.973 980.117 695.823 C 964.649 712.889 948.926 729.858 933.985 747.376 C 926.695 749.138 865.26 759.445 862.153 758.667 C 862.784 757.072 862.251 757.466 863.406 756.959 C 868.454 749.864 888.061 729.053 894.943 721.412 L 961.912 647.443 C 972.205 645.887 983.982 643.383 994.331 641.446 z"/>
<path transform="translate(0,0)" fill="rgb(7,140,80)" d="M 994.331 641.446 L 995.68 642.583 C 989.534 653.176 930.674 715.517 918.006 728.868 C 914.615 732.442 872.171 753.067 864.984 756.789 C 864.819 756.875 863.606 756.944 863.406 756.959 C 868.454 749.864 888.061 729.053 894.943 721.412 L 961.912 647.443 C 972.205 645.887 983.982 643.383 994.331 641.446 z"/>
<path transform="translate(0,0)" fill="rgb(6,92,58)" d="M 908.534 770.437 L 909.684 770.421 C 909.776 770.913 909.869 771.405 909.962 771.896 C 883.175 812.072 831.656 890.981 806.861 928.001 C 793.678 934.377 767.79 942.778 753.3 947.947 C 751.857 947.904 752.564 948.076 751.291 947.039 C 752.604 943.248 759.578 934.447 762.166 930.936 C 799.966 879.654 836.057 826.838 874.04 775.712 C 885.505 773.743 897.005 771.984 908.534 770.437 z"/>
<path transform="translate(0,0)" fill="rgb(165,164,164)" d="M 1095.14 675.956 C 1103.89 676.069 1104.62 675.296 1111.24 669.289 C 1137.95 645.096 1162.55 617.838 1190.27 594.932 C 1191.3 594.074 1195.86 596.737 1197.25 597.391 C 1203.73 600.565 1211.44 604.124 1217.64 607.594 C 1196.62 627.219 1175.74 646.982 1154.98 666.882 C 1147.18 674.354 1123.84 697.692 1115.74 702.598 C 1111.01 705.465 1075.9 713.537 1068.3 715.05 L 1049.38 719.967 C 1063.41 705.669 1080.57 690.018 1095.14 675.956 z"/>
<path transform="translate(0,0)" fill="rgb(255,255,255)" d="M 1095.14 675.956 C 1103.89 676.069 1104.62 675.296 1111.24 669.289 C 1137.95 645.096 1162.55 617.838 1190.27 594.932 C 1191.3 594.074 1195.86 596.737 1197.25 597.391 C 1169.58 624.605 1136.64 656.279 1108.1 682.461 L 1097.99 683.286 C 1091.84 690.591 1070.04 710.036 1068.3 715.05 L 1049.38 719.967 C 1063.41 705.669 1080.57 690.018 1095.14 675.956 z"/>
<path transform="translate(0,0)" fill="rgb(165,164,164)" d="M 1103.17 724.685 L 1113 722.228 C 1112.9 733.515 1113.06 746.367 1112.63 757.547 C 1097.29 773.827 1082.12 790.26 1067.11 806.841 C 1059.97 814.727 1047.03 829.884 1039.57 836.518 C 1038.81 832.982 1038.92 832.012 1039.1 828.543 L 1039.03 764.276 L 1038.97 740.427 C 1060.02 735.417 1082.37 730.329 1103.17 724.685 z"/>
<path transform="translate(0,0)" fill="rgb(131,130,130)" d="M 1038.97 740.427 C 1060.02 735.417 1082.37 730.329 1103.17 724.685 C 1103.19 731.583 1103.03 739.503 1103.31 746.308 C 1099.74 750.745 1048.57 760.858 1039.03 764.276 L 1038.97 740.427 z"/>
<path transform="translate(0,0)" fill="rgb(255,255,255)" d="M 1103.17 724.685 L 1113 722.228 C 1112.9 733.515 1113.06 746.367 1112.63 757.547 C 1097.29 773.827 1082.12 790.26 1067.11 806.841 C 1059.97 814.727 1047.03 829.884 1039.57 836.518 C 1038.81 832.982 1038.92 832.012 1039.1 828.543 C 1041.11 814.053 1085.91 776.085 1095.81 761.949 C 1100.53 755.215 1103.96 755.608 1103.31 746.308 C 1103.03 739.503 1103.19 731.583 1103.17 724.685 z"/>
<path transform="translate(0,0)" fill="rgb(6,92,58)" d="M 1003.68 749.114 L 1006.51 748.746 L 1007.46 749.589 L 978.236 808.006 L 912.75 808.103 C 911.368 808.073 909.947 807.834 908.566 807.655 C 908.262 805.215 931.681 770.703 935.091 765.519 L 1003.68 749.114 z"/>
<path transform="translate(0,0)" fill="rgb(165,164,164)" d="M 1364.87 293.71 L 1372.71 285.734 C 1384.25 291.444 1396.23 298.104 1408.04 303.022 C 1424.07 309.693 1444.93 332.918 1450.74 349.053 L 1450.26 350.779 L 1449.35 351.151 C 1438.93 346.922 1400.58 333.021 1390.98 332.535 C 1373.03 331.628 1345.61 332.076 1326.92 331.998 C 1339.39 319.059 1352.04 306.295 1364.87 293.71 z"/>
<path transform="translate(0,0)" fill="rgb(255,255,255)" d="M 1364.87 293.71 L 1372.71 285.734 C 1384.25 291.444 1396.23 298.104 1408.04 303.022 C 1424.07 309.693 1444.93 332.918 1450.74 349.053 L 1450.26 350.779 L 1449.35 351.151 C 1441.85 337.999 1420.34 321.639 1406.98 314.168 C 1394.85 307.385 1375.72 301.512 1364.87 293.71 z"/>
<path transform="translate(0,0)" fill="rgb(0,0,0)" d="M 1367.12 301.47 C 1369.86 302.572 1380.69 310.194 1382.72 313.036 L 1382.25 314.132 L 1378.25 314.316 L 1356.58 314.352 L 1367.12 301.47 z"/>
<path transform="translate(0,0)" fill="rgb(255,255,255)" d="M 1066.43 832.968 C 1069.65 835.752 1082.52 851.371 1086.34 855.589 C 1104.69 875.834 1122.49 898.745 1141.49 918.274 L 1120.5 918.32 L 1097.45 918.294 C 1079.36 898.252 1061.7 877.836 1044.46 857.061 C 1051.59 849.643 1059.28 840.656 1066.43 832.968 z"/>
<path transform="translate(0,0)" fill="rgb(11,165,143)" d="M 1254.02 407.362 C 1269.92 388.74 1289.23 371.085 1306.01 353.09 C 1307.49 351.503 1309.23 352.091 1311.02 352.39 C 1313.75 354.995 1313.16 353.753 1313.74 357.029 C 1302.64 371.042 1271.91 401.175 1258.23 415.579 L 1247.4 415.79 C 1247.88 424.399 1247.51 435.815 1247.47 444.633 L 1255.01 451.805 C 1256.69 447.015 1256.37 445.467 1259.83 442.524 C 1263.32 442.105 1265.53 442.228 1269.02 442.337 C 1269.1 450.315 1269.09 458.487 1269.29 466.444 C 1272.22 469.494 1276.24 473.436 1278.88 476.603 C 1278.92 490.692 1278.78 504.781 1278.45 518.867 C 1275.09 515.045 1272.77 511.952 1269.77 507.87 C 1270.51 500.117 1270.1 487.712 1270.05 479.589 C 1259.72 468.986 1249.32 458.457 1238.84 448.001 L 1238.76 434.042 C 1222.71 436.707 1213.3 423.448 1222.67 411.351 C 1227.6 404.981 1247.01 407.159 1254.02 407.362 z"/>
<path transform="translate(0,0)" fill="rgb(0,31,25)" d="M 1255.01 451.805 C 1256.69 447.015 1256.37 445.467 1259.83 442.524 C 1263.32 442.105 1265.53 442.228 1269.02 442.337 C 1269.1 450.315 1269.09 458.487 1269.29 466.444 C 1264.79 461.601 1259.67 456.57 1255.01 451.805 z"/>
<path transform="translate(0,0)" fill="rgb(0,0,0)" d="M 1232.09 415.482 C 1234.05 415 1236.12 415.62 1237.5 417.102 C 1238.88 418.584 1239.34 420.695 1238.72 422.619 C 1238.09 424.542 1236.48 425.977 1234.49 426.366 C 1231.52 426.95 1228.63 425.054 1227.97 422.098 C 1227.32 419.141 1229.15 416.204 1232.09 415.482 z"/>
<path transform="translate(0,0)" fill="rgb(255,255,255)" d="M 1138.55 445.865 C 1145.55 439.112 1152.67 432.064 1159.75 425.438 C 1178.38 446.702 1200.85 470.626 1218.41 491.864 C 1212.28 494.719 1195.29 504.003 1189.42 502.603 C 1188.25 501.343 1186.85 499.925 1185.78 498.608 L 1179.99 492.003 C 1166.29 476.35 1152.34 461.349 1138.55 445.865 z"/>
<path transform="translate(0,0)" fill="rgb(7,140,80)" d="M 956.011 626.762 C 975.041 605.134 995.15 584.325 1014.24 562.737 C 1017.1 559.509 1019.86 556.674 1023.08 553.805 C 1023.39 566.176 1023.52 577.184 1023.2 589.578 L 1023.22 610.784 C 1019.83 612.963 1010.83 618.632 1007.65 619.917 C 999.83 623.07 960.805 630.515 953.823 630.533 L 952.987 629.596 C 953.673 628.929 955.328 627.224 956.011 626.762 z"/>
<path transform="translate(0,0)" fill="rgb(6,92,58)" d="M 1023.2 589.578 L 1023.22 610.784 C 1019.83 612.963 1010.83 618.632 1007.65 619.917 C 999.83 623.07 960.805 630.515 953.823 630.533 L 952.987 629.596 C 953.673 628.929 955.328 627.224 956.011 626.762 C 968.407 625.843 1012.12 598.388 1023.2 589.578 z"/>
<path transform="translate(0,0)" fill="rgb(165,164,164)" d="M 1203.14 514.18 L 1222.88 505.104 L 1222.87 594.282 C 1219.99 592.908 1204.81 585.863 1203.12 584.599 C 1200.09 583.413 1197.72 582.734 1195.43 580.384 C 1194.21 569.631 1194.66 530.213 1195.34 518.887 C 1197.04 516.188 1200.02 515.469 1203.14 514.18 z"/>
<path transform="translate(0,0)" fill="rgb(255,255,255)" d="M 1203.12 584.599 C 1200.09 583.413 1197.72 582.734 1195.43 580.384 C 1194.21 569.631 1194.66 530.213 1195.34 518.887 C 1197.04 516.188 1200.02 515.469 1203.14 514.18 C 1203.23 521.807 1204.03 582.535 1203.12 584.599 z"/>
<path transform="translate(0,0)" fill="rgb(11,165,143)" d="M 1139.97 481.083 C 1145.56 480.738 1149.7 480.969 1154.1 484.791 C 1156.94 487.256 1159.11 490.595 1159.18 494.47 C 1159.26 498.603 1156.81 503.602 1153.77 506.345 C 1149.54 510.16 1145.68 508.432 1140.77 508.556 C 1134.43 508.717 1090.02 553.998 1082.95 560.694 C 1082.57 571.004 1082.9 582.14 1083.01 592.516 C 1074.9 601.586 1059.22 615.435 1049.71 624.856 L 1039.04 635.165 C 1038.87 631.449 1038.94 627.09 1038.92 623.316 C 1050.57 611.962 1062.3 600.691 1074.11 589.506 C 1074.21 578.907 1074.04 567.931 1074 557.305 L 1131.94 501.999 C 1129.29 491.463 1130.45 486.893 1139.97 481.083 z"/>
<path transform="translate(0,0)" fill="rgb(0,0,0)" d="M 1141.61 490.49 C 1143.43 489.347 1145.74 489.342 1147.57 490.476 C 1149.4 491.61 1150.42 493.686 1150.2 495.825 C 1149.98 497.964 1148.57 499.792 1146.55 500.537 C 1143.85 501.537 1140.82 500.329 1139.55 497.742 C 1138.28 495.154 1139.17 492.022 1141.61 490.49 z"/>
<path transform="translate(0,0)" fill="rgb(11,165,143)" d="M 1179.99 492.003 L 1185.78 498.608 C 1167.55 516.415 1149.16 534.054 1130.61 551.523 L 1130.85 579.918 L 1063.05 643.941 C 1057.71 648.967 1045.8 661.956 1040.3 664.746 L 1039.09 664.262 C 1038.97 662.508 1038.54 656.438 1039.72 655.14 C 1046.32 647.923 1053.59 641.261 1060.69 634.528 C 1081.23 615.276 1101.67 595.917 1122.02 576.452 L 1121.81 547.691 C 1140.94 529.729 1161.51 510.508 1179.99 492.003 z"/>
<path transform="translate(0,0)" fill="rgb(11,165,143)" d="M 1327.03 369.494 C 1329.2 370.025 1332.41 373.454 1334.25 375.144 C 1321.01 388.458 1307.91 401.907 1294.95 415.49 L 1295 454.891 C 1300.55 459.643 1304.46 463.058 1309.51 468.35 L 1309.95 487.625 C 1322.88 496.36 1323.42 508.669 1308.97 516.226 C 1290.96 517.02 1284 499.377 1301.08 487.703 L 1301.07 472.046 C 1295.96 467.383 1290.96 462.589 1286.09 457.669 L 1285.96 412.264 C 1299.82 398.175 1313.51 383.917 1327.03 369.494 z"/>
<path transform="translate(0,0)" fill="rgb(0,0,0)" d="M 1303.36 496.74 C 1305.24 495.944 1307.41 496.228 1309.02 497.482 C 1310.63 498.737 1311.43 500.765 1311.12 502.783 C 1310.81 504.8 1309.43 506.491 1307.51 507.2 C 1304.65 508.262 1301.46 506.84 1300.33 503.998 C 1299.2 501.156 1300.55 497.933 1303.36 496.74 z"/>
<path transform="translate(0,0)" fill="rgb(11,165,143)" d="M 1160.23 542.115 C 1180.59 540.804 1186 559.804 1169.18 570.25 L 1169.21 587.818 C 1158.97 598.933 1145.35 611.28 1134.19 621.855 C 1137.06 636.082 1131.86 643.885 1116.93 643.021 C 1099.87 633.767 1105.77 611.369 1128.04 615.784 C 1137.2 608.127 1151.19 593.538 1160.76 584.614 L 1160.53 570.26 C 1148.49 560.883 1145.35 551.564 1160.23 542.115 z"/>
<path transform="translate(0,0)" fill="rgb(0,0,0)" d="M 1120.03 623.676 C 1121.96 623.201 1124 623.804 1125.37 625.254 C 1126.73 626.705 1127.21 628.778 1126.62 630.68 C 1126.03 632.581 1124.46 634.016 1122.51 634.435 C 1119.56 635.069 1116.65 633.218 1115.97 630.277 C 1115.29 627.337 1117.1 624.397 1120.03 623.676 z"/>
<path transform="translate(0,0)" fill="rgb(0,0,0)" d="M 1164.07 550.712 C 1166.85 550.222 1169.53 551.989 1170.18 554.74 C 1170.83 557.492 1169.22 560.272 1166.51 561.078 C 1164.62 561.642 1162.56 561.109 1161.18 559.695 C 1159.8 558.281 1159.31 556.216 1159.91 554.333 C 1160.52 552.449 1162.12 551.055 1164.07 550.712 z"/>
<path transform="translate(0,0)" fill="rgb(11,165,143)" d="M 1258.19 265.469 C 1270.77 262.646 1283.31 270.411 1286.38 282.938 C 1289.45 295.465 1281.94 308.148 1269.47 311.469 C 1261.19 313.677 1252.36 311.234 1246.38 305.083 C 1240.41 298.932 1238.22 290.032 1240.67 281.815 C 1243.12 273.598 1249.82 267.346 1258.19 265.469 z"/>
<path transform="translate(0,0)" fill="rgb(6,92,58)" d="M 737.501 792.98 C 751.789 790.767 768.223 789.256 782.65 787.667 C 771.039 801.136 758.759 817.387 746.86 830.183 C 743.113 828.662 708.252 832.996 700.977 833.074 L 737.501 792.98 z"/>
<path transform="translate(0,0)" fill="rgb(6,92,58)" d="M 806.635 785.426 C 819.925 782.971 836.458 781.176 849.962 779.457 C 839.597 792.942 829.681 809.126 818.919 822.203 C 809.372 821.296 783.749 825.761 772.62 826.359 C 782.142 813.634 796.068 797.635 806.635 785.426 z"/>
<path transform="translate(0,0)" fill="rgb(7,140,80)" d="M 1022.65 673.725 C 1024.19 678.717 1023.56 718.32 1023.65 726.225 L 964.506 739.933 L 963.781 739.598 C 964.098 737.667 1016.61 680.077 1022.65 673.725 z"/>
<path transform="translate(0,0)" fill="rgb(131,130,130)" d="M 1221.08 448.884 C 1228.87 458.113 1249.52 481.567 1255.68 491.011 C 1256.2 493.887 1256.43 496.262 1257.8 498.832 C 1256.41 510.66 1257.26 533.646 1255.95 540.265 L 1255.94 540.906 C 1255.7 543.222 1255.34 551.483 1254.78 552.786 C 1249.23 547.861 1244.9 542.319 1240.15 536.626 L 1240.12 523.809 L 1240.23 490.188 C 1233.74 483.039 1227.34 475.798 1221.06 468.465 L 1221.08 448.884 z"/>
<path transform="translate(0,0)" fill="rgb(4,124,108)" d="M 1240.12 523.809 C 1243.56 527.95 1251.83 537.028 1255.95 540.265 L 1255.94 540.906 C 1255.7 543.222 1255.34 551.483 1254.78 552.786 C 1249.23 547.861 1244.9 542.319 1240.15 536.626 L 1240.12 523.809 z"/>
<path transform="translate(0,0)" fill="rgb(6,92,58)" d="M 1022.52 757.783 C 1024.72 760.821 1023.58 835.709 1023.83 846.076 C 1019.65 842.35 1015.13 837.383 1011.2 833.283 C 1006.5 827.615 999.078 820.272 993.845 814.79 C 1003.63 797.683 1012.47 775.816 1022.52 757.783 z"/>
<path transform="translate(0,0)" fill="rgb(165,164,164)" d="M 1329.16 347.3 C 1363.19 347.199 1383.1 344.143 1414.84 355.23 L 1402.4 357.757 C 1386.42 362.043 1367.48 365.754 1351.13 369.342 C 1344.12 362.01 1336.35 354.673 1329.16 347.3 z"/>
<path transform="translate(0,0)" fill="rgb(6,92,58)" d="M 1186.15 401.524 C 1188.61 402.122 1192.48 406.794 1194.49 408.908 L 1205.98 409.089 L 1206.16 450.609 L 1200.88 445.701 C 1191.71 435.231 1182.63 424.685 1173.64 414.065 C 1177.73 410.169 1182.13 405.569 1186.15 401.524 z"/>
<path transform="translate(0,0)" fill="rgb(11,165,143)" d="M 1084.94 634.727 C 1089.22 637.576 1087.37 654.19 1087.19 659.226 C 1072.84 674.282 1055.74 690.057 1040.66 704.786 L 1039.12 704.49 C 1036.36 689.754 1068.08 667.108 1078.95 655.473 C 1078.58 645.211 1076.68 641.688 1084.94 634.727 z"/>
<path transform="translate(0,0)" fill="rgb(11,165,143)" d="M 1070.41 450.452 C 1074.77 449.629 1079.01 452.348 1080.08 456.65 C 1081.15 460.952 1078.68 465.343 1074.45 466.659 C 1071.48 467.58 1068.25 466.785 1066.06 464.594 C 1063.86 462.403 1063.06 459.176 1063.97 456.21 C 1064.88 453.245 1067.36 451.028 1070.41 450.452 z"/>
<path transform="translate(0,0)" fill="rgb(11,165,143)" d="M 1106.29 564.246 C 1110.25 565.594 1109.05 564.656 1111.41 567.534 C 1111.44 573.581 1105.01 576.752 1100.28 584.472 L 1098.39 585.991 L 1097.31 585.062 C 1096.53 578.635 1095.33 572.321 1099.4 566.148 C 1100.6 564.335 1103.8 564.529 1106.29 564.246 z"/>
<path transform="translate(0,0)" fill="rgb(11,165,143)" d="M 1260.37 426.038 C 1264.25 426.02 1267.82 425.237 1270.71 427.417 C 1272.42 430.265 1271.5 435.847 1271.22 439.41 C 1267.44 439.503 1264.1 440.153 1261.28 438.019 C 1259.52 435.218 1260.23 429.593 1260.37 426.038 z"/>
<path transform="translate(0,0)" fill="rgb(201,201,201)" d="M 1255.68 491.011 C 1258.93 494.956 1262.54 499.153 1265.58 503.224 L 1261.41 504.158 L 1257.8 498.832 C 1256.43 496.262 1256.2 493.887 1255.68 491.011 z"/>
</svg>