<?xml version="1.0" encoding="UTF-8"?>
<svg id="Calque_2" data-name="Calque 2" xmlns="http://www.w3.org/2000/svg" width="372" height="279" viewBox="0 0 372 279">
  <defs>
    <style>
      .cls-1 {
        fill: none;
      }

      .cls-2 {
        fill: #eedf52;
      }

      .cls-3 {
        fill: #224c66;
      }

      .cls-4 {
        fill: #707070;
      }
    </style>
  </defs>
  <g id="Calque_1-2" data-name="Calque 1">
    <g>
      <g>
        <g>
          <path class="cls-2" d="M224.607,109.828c0,.677-.552,1.226-1.226,1.226h-5.906c-.341,0-.659-.137-.893-.385-.233-.248-.35-.575-.33-.943l-.023-11.182c.006-2.428-.54-4.155-1.663-5.282-.983-.986-2.431-1.485-4.298-1.485h-53.981c-1.868,0-3.315,.499-4.298,1.485-1.123,1.126-1.669,2.854-1.663,5.279l-.023,11.214c.02,.339-.096,.665-.33,.913-.233,.248-.552,.385-.893,.385h-5.906c-.677,0-1.226-.549-1.226-1.217l.292-16.939c0-6.822,.776-8.416,8.419-8.416h24.15c3.791,0,4.202-2.326,4.202-3.327v-2.781c0-2.766-1.792-4.488-4.678-4.488h-23.776c-4.587,0-8.316-3.729-8.316-8.314v-25.606c0-.674,.549-1.226,1.226-1.226h22.98c1.246,0,2.256,1.013,2.256,2.256v14.135c0,.677-.549,1.226-1.226,1.226h-5.136c-.674,0-1.226-.549-1.226-1.226v-6.522c0-1.418-1.153-2.574-2.571-2.574h-6.601c-1.167,0-2.116,.948-2.116,2.116v10.593c0,4.327,3.519,7.847,7.847,7.847h16.563c1.941,0,3.187-.347,3.919-1.097,.875-.893,.849-2.148,.82-3.475-.006-.236-.009-.479-.012-.741l-.537-12.621c0-.674,.549-1.223,1.223-1.223h7.257l.158,.012c.607,.076,1.065,.598,1.065,1.193l-.54,12.658c0,.242-.003,.484-.009,.721-.029,1.328-.055,2.582,.817,3.475,.735,.75,1.981,1.097,3.922,1.097h16.563c4.325,0,7.847-3.519,7.847-7.847v-10.593c0-1.167-.948-2.116-2.116-2.116h-6.601c-1.418,0-2.571,1.156-2.571,2.574v6.522c0,.677-.552,1.226-1.226,1.226h-5.139c-.674,0-1.223-.549-1.223-1.226v-14.135c0-1.243,1.01-2.256,2.256-2.256h22.98c.674,0,1.226,.552,1.226,1.226v25.606c0,4.584-3.732,8.314-8.316,8.314h-23.776c-2.886,0-4.678,1.722-4.678,4.488v2.781c0,1.001,.411,3.327,4.202,3.327h24.15c7.642,0,8.419,1.593,8.419,8.416l.292,16.93Z"/>
          <path class="cls-2" d="M205.552,105.355v4.395c0,.721-.587,1.304-1.307,1.304h-41.938c-.718,0-1.304-.584-1.304-1.304v-4.395c0-.654,.257-1.264,.724-1.716,.452-.441,1.042-.68,1.681-.68h39.688c.02,0,.041-.003,.061-.003,.627,0,1.22,.242,1.672,.683,.467,.452,.724,1.062,.724,1.716Z"/>
        </g>
        <g>
          <path class="cls-3" d="M109.552,141.844h-6.884c-.75,0-1.363,.613-1.363,1.366v48.314c0,.75,.613,1.363,1.363,1.363h6.884c.753,0,1.363-.613,1.363-1.363v-48.314c0-.753-.61-1.366-1.363-1.366Z"/>
          <path class="cls-3" d="M174.511,177.216c-.175-.339-.476-.589-.843-.7l-6.236-1.885c-.686-.207-1.43,.143-1.692,.802-1.12,2.796-4.751,9.297-14.266,9.297-4.333,0-8.354-1.59-11.325-4.476-3.262-3.172-4.987-7.616-4.987-12.851,0-12.057,8.381-17.549,16.166-17.549,9.294,0,12.764,5.684,14.004,9.072,.254,.697,1.013,1.068,1.727,.843l6.277-1.981c.362-.114,.654-.362,.829-.697,.169-.333,.201-.712,.085-1.065-3.122-9.562-11.693-15.273-22.921-15.273-6.872,0-13.309,2.562-18.127,7.219-5.074,4.899-7.867,11.801-7.867,19.431,0,15.399,10.992,26.575,26.14,26.575,13.163,0,20.575-8.103,23.123-15.69,.12-.353,.088-.735-.085-1.071Z"/>
          <path class="cls-3" d="M208.121,141.844h-17.66c-.741,0-1.342,.604-1.342,1.345v48.352c0,.741,.601,1.345,1.342,1.345h6.779c.738,0,1.342-.604,1.342-1.345v-16.169c0-1.062,.864-1.929,1.926-1.929h7.613c4.891,0,9.075-1.535,12.104-4.441,2.988-2.871,4.57-6.799,4.57-11.357,0-9.303-6.857-15.801-16.674-15.801Zm-1.237,23.519h-6.303c-1.062,0-1.926-.864-1.926-1.926v-11.512c0-1.062,.864-1.926,1.926-1.926h6.303c5.165,0,8.375,2.956,8.375,7.718,0,4.646-3.289,7.645-8.375,7.645Z"/>
          <path class="cls-3" d="M268.808,141.844h-29.338c-.744,0-1.348,.607-1.348,1.348v48.346c0,.744,.604,1.348,1.348,1.348h6.84c.744,0,1.348-.604,1.348-1.348v-16.817c0-1.065,.867-1.932,1.932-1.932h16.744c.744,0,1.348-.604,1.348-1.348v-5.967c0-.744-.604-1.348-1.348-1.348h-16.817c-1.065,0-1.932-.867-1.932-1.932v-9.463c0-1.065,.867-1.932,1.932-1.932h19.291c.744,0,1.348-.604,1.348-1.348v-6.259c0-.741-.604-1.348-1.348-1.348Z"/>
        </g>
        <g>
          <path class="cls-3" d="M103.937,208.399v-6.342h.894v6.342h-.894Z"/>
          <path class="cls-3" d="M107.193,208.399h-.841v-4.303h.823v.617c.313-.537,.823-.743,1.324-.743,1.029,0,1.539,.743,1.539,1.7v2.728h-.841v-2.585c0-.599-.25-1.082-1.002-1.082-.662,0-1.002,.528-1.002,1.181v2.487Z"/>
          <path class="cls-3" d="M111.736,207.012c.054,.447,.394,.805,1.002,.805,.474,0,.734-.269,.734-.573,0-.269-.197-.474-.555-.555l-.733-.161c-.671-.143-1.073-.599-1.073-1.208,0-.734,.689-1.36,1.53-1.36,1.181,0,1.548,.769,1.637,1.154l-.742,.277c-.036-.224-.215-.716-.895-.716-.429,0-.716,.277-.716,.573,0,.259,.161,.447,.492,.519l.698,.152c.778,.17,1.19,.644,1.19,1.279,0,.608-.51,1.333-1.574,1.333-1.181,0-1.682-.76-1.753-1.252l.76-.269Z"/>
          <path class="cls-3" d="M116.548,204.096h.93v.76h-.93v2.236c0,.394,.161,.59,.6,.59,.107,0,.259-.018,.331-.036v.716c-.072,.027-.286,.08-.573,.08-.733,0-1.199-.447-1.199-1.225v-2.362h-.823v-.76h.232c.465,0,.662-.286,.662-.662v-.698h.769v1.36Z"/>
          <path class="cls-3" d="M119.007,201.86c.34,0,.608,.269,.608,.608,0,.331-.268,.599-.608,.599-.331,0-.6-.268-.6-.599,0-.34,.269-.608,.6-.608Zm-.412,6.539v-4.303h.832v4.303h-.832Z"/>
          <path class="cls-3" d="M121.985,204.096h.93v.76h-.93v2.236c0,.394,.161,.59,.6,.59,.107,0,.259-.018,.331-.036v.716c-.072,.027-.286,.08-.573,.08-.733,0-1.199-.447-1.199-1.225v-2.362h-.823v-.76h.232c.465,0,.662-.286,.662-.662v-.698h.769v1.36Z"/>
          <path class="cls-3" d="M125.599,208.533c-1.002,0-1.61-.751-1.61-1.727v-2.71h.841v2.585c0,.59,.268,1.109,.975,1.109,.68,0,1.02-.447,1.02-1.1v-2.594h.841v3.507c0,.34,.027,.644,.045,.796h-.805c-.018-.098-.036-.34-.036-.519-.233,.447-.769,.653-1.27,.653Z"/>
          <path class="cls-3" d="M130.222,204.096h.93v.76h-.93v2.236c0,.394,.161,.59,.6,.59,.107,0,.259-.018,.331-.036v.716c-.072,.027-.286,.08-.573,.08-.733,0-1.199-.447-1.199-1.225v-2.362h-.823v-.76h.232c.465,0,.662-.286,.662-.662v-.698h.769v1.36Z"/>
          <path class="cls-3" d="M137.521,207.746c-.206,.411-.662,.769-1.333,.769-1.261,0-2.04-1.002-2.04-2.281,0-1.217,.823-2.254,2.04-2.254,.76,0,1.172,.376,1.315,.725v-2.782h.832v5.68c0,.411,.036,.725,.045,.796h-.814c-.018-.098-.045-.322-.045-.581v-.072Zm-1.252,.027c.769,0,1.243-.671,1.243-1.556s-.465-1.494-1.234-1.494-1.27,.626-1.27,1.512,.456,1.539,1.261,1.539Z"/>
          <path class="cls-3" d="M141.286,208.533c-1.002,0-1.61-.751-1.61-1.727v-2.71h.841v2.585c0,.59,.268,1.109,.975,1.109,.68,0,1.02-.447,1.02-1.1v-2.594h.841v3.507c0,.34,.027,.644,.045,.796h-.805c-.018-.098-.036-.34-.036-.519-.233,.447-.769,.653-1.27,.653Z"/>
          <path class="cls-3" d="M146.706,205.223c0-2.12,1.574-3.301,3.149-3.301,1.449,0,2.469,.787,2.791,2.013l-.814,.286c-.241-.957-.939-1.494-1.977-1.494-1.154,0-2.254,.841-2.254,2.496s1.1,2.505,2.254,2.505c1.082,0,1.762-.653,2.022-1.521l.778,.286c-.34,1.19-1.342,2.04-2.8,2.04-1.637,0-3.149-1.19-3.149-3.31Z"/>
          <path class="cls-3" d="M154.585,205.939l1.163-.17c.259-.036,.331-.17,.331-.322,0-.42-.277-.769-.93-.769-.59,0-.921,.367-.975,.868l-.805-.188c.09-.823,.832-1.395,1.762-1.395,1.288,0,1.789,.734,1.789,1.574v2.156c0,.376,.036,.599,.054,.707h-.823c-.018-.107-.045-.268-.045-.581-.188,.304-.617,.716-1.387,.716-.877,0-1.44-.608-1.44-1.288,0-.769,.564-1.199,1.306-1.306Zm1.494,.617v-.197l-1.315,.197c-.358,.054-.626,.259-.626,.644,0,.322,.269,.626,.698,.626,.689,0,1.243-.331,1.243-1.27Z"/>
          <path class="cls-3" d="M159.066,208.399h-.841v-4.303h.823v.617c.313-.537,.823-.743,1.324-.743,1.029,0,1.539,.743,1.539,1.7v2.728h-.841v-2.585c0-.599-.251-1.082-1.002-1.082-.662,0-1.002,.528-1.002,1.181v2.487Z"/>
          <path class="cls-3" d="M163.753,206.243c0,.984,.617,1.512,1.315,1.512,.805,0,1.1-.546,1.199-.886l.742,.322c-.206,.617-.823,1.342-1.941,1.342-1.252,0-2.174-.984-2.174-2.29,0-1.342,.939-2.281,2.165-2.281,1.145,0,1.736,.716,1.914,1.369l-.76,.322c-.107-.42-.42-.912-1.154-.912-.68,0-1.306,.501-1.306,1.503Z"/>
          <path class="cls-3" d="M171.695,207.173c-.241,.76-.93,1.36-1.932,1.36-1.154,0-2.165-.841-2.165-2.299,0-1.351,.975-2.272,2.057-2.272,1.324,0,2.067,.912,2.067,2.254,0,.107-.009,.215-.018,.268h-3.238c.018,.769,.573,1.306,1.297,1.306,.698,0,1.047-.385,1.208-.868l.725,.25Zm-.85-1.369c-.018-.617-.42-1.1-1.181-1.1-.707,0-1.136,.546-1.172,1.1h2.353Z"/>
          <path class="cls-3" d="M175.183,204.946c-.125-.018-.25-.027-.367-.027-.707,0-1.181,.376-1.181,1.324v2.156h-.841v-4.303h.823v.751c.313-.662,.85-.823,1.288-.823,.116,0,.232,.018,.277,.027v.895Z"/>
          <path class="cls-3" d="M181.327,207.746c-.206,.411-.662,.769-1.333,.769-1.261,0-2.04-1.002-2.04-2.281,0-1.217,.823-2.254,2.04-2.254,.76,0,1.172,.376,1.315,.725v-2.782h.832v5.68c0,.411,.036,.725,.045,.796h-.814c-.018-.098-.045-.322-.045-.581v-.072Zm-1.252,.027c.769,0,1.243-.671,1.243-1.556s-.465-1.494-1.234-1.494-1.27,.626-1.27,1.512,.456,1.539,1.261,1.539Z"/>
          <path class="cls-3" d="M187.32,207.173c-.241,.76-.93,1.36-1.932,1.36-1.154,0-2.165-.841-2.165-2.299,0-1.351,.975-2.272,2.057-2.272,1.324,0,2.067,.912,2.067,2.254,0,.107-.009,.215-.018,.268h-3.238c.018,.769,.573,1.306,1.297,1.306,.698,0,1.047-.385,1.208-.868l.725,.25Zm-.85-1.369c-.018-.617-.42-1.1-1.181-1.1-.707,0-1.136,.546-1.172,1.1h2.353Z"/>
          <path class="cls-3" d="M191.621,205.805v2.594h-.877v-6.342h2.308c1.172,0,1.959,.814,1.959,1.878,0,1.073-.787,1.87-1.959,1.87h-1.431Zm1.27-.787c.76,0,1.225-.42,1.225-1.073,0-.671-.465-1.1-1.225-1.1h-1.27v2.174h1.27Z"/>
          <path class="cls-3" d="M199.68,206.243c0,1.315-.912,2.29-2.2,2.29s-2.201-.975-2.201-2.29c0-1.306,.913-2.281,2.201-2.281s2.2,.975,2.2,2.281Zm-.859,0c0-.993-.626-1.53-1.342-1.53s-1.342,.537-1.342,1.53c0,1.002,.626,1.539,1.342,1.539s1.342-.537,1.342-1.539Z"/>
          <path class="cls-3" d="M200.752,208.399v-6.476h.841v6.476h-.841Z"/>
          <path class="cls-3" d="M203.176,210.197l1.073-2.272-1.852-3.829h.966l1.342,2.97,1.288-2.97h.904l-2.8,6.101h-.921Z"/>
          <path class="cls-3" d="M208.542,208.399h-.841v-4.303h.823v.617c.313-.537,.823-.743,1.324-.743,1.029,0,1.539,.743,1.539,1.7v2.728h-.841v-2.585c0-.599-.251-1.082-1.002-1.082-.662,0-1.002,.528-1.002,1.181v2.487Z"/>
          <path class="cls-3" d="M216.476,207.173c-.241,.76-.93,1.36-1.932,1.36-1.154,0-2.165-.841-2.165-2.299,0-1.351,.975-2.272,2.057-2.272,1.324,0,2.067,.912,2.067,2.254,0,.107-.009,.215-.018,.268h-3.238c.018,.769,.573,1.306,1.297,1.306,.698,0,1.047-.385,1.208-.868l.725,.25Zm-.85-1.369c-.018-.617-.42-1.1-1.181-1.1-.707,0-1.136,.546-1.172,1.1h2.353Zm-.85-2.263h-.707l.778-1.306h1.055l-1.127,1.306Z"/>
          <path class="cls-3" d="M217.933,207.012c.054,.447,.394,.805,1.002,.805,.474,0,.734-.269,.734-.573,0-.269-.197-.474-.555-.555l-.733-.161c-.671-.143-1.073-.599-1.073-1.208,0-.734,.689-1.36,1.53-1.36,1.181,0,1.548,.769,1.637,1.154l-.742,.277c-.036-.224-.215-.716-.895-.716-.429,0-.716,.277-.716,.573,0,.259,.161,.447,.492,.519l.698,.152c.778,.17,1.19,.644,1.19,1.279,0,.608-.51,1.333-1.574,1.333-1.181,0-1.682-.76-1.753-1.252l.76-.269Z"/>
          <path class="cls-3" d="M222.029,201.86c.34,0,.609,.269,.609,.608,0,.331-.269,.599-.609,.599-.331,0-.599-.268-.599-.599,0-.34,.269-.608,.599-.608Zm-.411,6.539v-4.303h.832v4.303h-.832Z"/>
          <path class="cls-3" d="M227.628,207.173c-.241,.76-.93,1.36-1.932,1.36-1.154,0-2.165-.841-2.165-2.299,0-1.351,.975-2.272,2.057-2.272,1.324,0,2.067,.912,2.067,2.254,0,.107-.009,.215-.018,.268h-3.238c.018,.769,.573,1.306,1.297,1.306,.698,0,1.047-.385,1.208-.868l.725,.25Zm-.85-1.369c-.018-.617-.42-1.1-1.181-1.1-.707,0-1.136,.546-1.172,1.1h2.353Z"/>
          <path class="cls-3" d="M231.053,208.399v-6.342h3.855v.814h-2.979v2.04h2.702v.823h-2.702v2.666h-.877Z"/>
          <path class="cls-3" d="M238.056,204.946c-.125-.018-.25-.027-.367-.027-.707,0-1.181,.376-1.181,1.324v2.156h-.841v-4.303h.823v.751c.313-.662,.85-.823,1.288-.823,.116,0,.233,.018,.277,.027v.895Z"/>
          <path class="cls-3" d="M239.988,205.939l1.163-.17c.259-.036,.331-.17,.331-.322,0-.42-.277-.769-.93-.769-.59,0-.921,.367-.975,.868l-.805-.188c.09-.823,.832-1.395,1.762-1.395,1.288,0,1.789,.734,1.789,1.574v2.156c0,.376,.036,.599,.054,.707h-.823c-.018-.107-.045-.268-.045-.581-.188,.304-.617,.716-1.387,.716-.877,0-1.44-.608-1.44-1.288,0-.769,.564-1.199,1.306-1.306Zm1.494,.617v-.197l-1.315,.197c-.358,.054-.626,.259-.626,.644,0,.322,.269,.626,.698,.626,.689,0,1.243-.331,1.243-1.27Z"/>
          <path class="cls-3" d="M244.469,208.399h-.841v-4.303h.823v.617c.313-.537,.823-.743,1.324-.743,1.029,0,1.539,.743,1.539,1.7v2.728h-.841v-2.585c0-.599-.251-1.082-1.002-1.082-.662,0-1.002,.528-1.002,1.181v2.487Z"/>
          <path class="cls-3" d="M249.906,208.962l.286-.447c-1.109-.134-1.896-1.082-1.896-2.272,0-1.324,.939-2.281,2.165-2.281,1.145,0,1.736,.716,1.914,1.369l-.76,.322c-.107-.42-.42-.912-1.154-.912-.68,0-1.306,.528-1.306,1.503s.617,1.512,1.315,1.512c.778,0,1.1-.546,1.199-.886l.742,.322c-.188,.555-.68,1.181-1.583,1.315l-.206,.313c.501,0,.868,.286,.868,.733,0,.421-.322,.787-1.047,.787-.447,0-.805-.179-.984-.394l.331-.402c.107,.116,.34,.304,.644,.304,.215,0,.421-.089,.421-.295,0-.161-.143-.286-.394-.286-.089,0-.188,.018-.259,.045l-.295-.349Z"/>
          <path class="cls-3" d="M254.387,205.939l1.163-.17c.259-.036,.331-.17,.331-.322,0-.42-.277-.769-.93-.769-.59,0-.921,.367-.975,.868l-.805-.188c.09-.823,.832-1.395,1.762-1.395,1.288,0,1.789,.734,1.789,1.574v2.156c0,.376,.036,.599,.054,.707h-.823c-.018-.107-.045-.268-.045-.581-.188,.304-.617,.716-1.387,.716-.877,0-1.44-.608-1.44-1.288,0-.769,.564-1.199,1.306-1.306Zm1.494,.617v-.197l-1.315,.197c-.358,.054-.626,.259-.626,.644,0,.322,.269,.626,.698,.626,.689,0,1.243-.331,1.243-1.27Z"/>
          <path class="cls-3" d="M258.439,201.86c.34,0,.608,.269,.608,.608,0,.331-.268,.599-.608,.599-.331,0-.6-.268-.6-.599,0-.34,.269-.608,.6-.608Zm-.412,6.539v-4.303h.832v4.303h-.832Z"/>
          <path class="cls-3" d="M260.648,207.012c.054,.447,.394,.805,1.002,.805,.474,0,.734-.269,.734-.573,0-.269-.197-.474-.555-.555l-.733-.161c-.671-.143-1.073-.599-1.073-1.208,0-.734,.689-1.36,1.53-1.36,1.181,0,1.548,.769,1.637,1.154l-.742,.277c-.036-.224-.215-.716-.895-.716-.429,0-.716,.277-.716,.573,0,.259,.161,.447,.492,.519l.698,.152c.778,.17,1.19,.644,1.19,1.279,0,.608-.51,1.333-1.574,1.333-1.181,0-1.682-.76-1.753-1.252l.76-.269Z"/>
          <path class="cls-3" d="M268.036,207.173c-.241,.76-.93,1.36-1.932,1.36-1.154,0-2.165-.841-2.165-2.299,0-1.351,.975-2.272,2.057-2.272,1.324,0,2.067,.912,2.067,2.254,0,.107-.009,.215-.018,.268h-3.238c.018,.769,.573,1.306,1.297,1.306,.698,0,1.047-.385,1.208-.868l.725,.25Zm-.85-1.369c-.018-.617-.42-1.1-1.181-1.1-.707,0-1.136,.546-1.172,1.1h2.353Z"/>
        </g>
        <g>
          <path class="cls-4" d="M55.646,228.951c.145,0,.24,.023,.286,.068,.045,.046,.059,.136,.041,.273l-.146,1.26c-.018,.155-.034,.292-.048,.411-.014,.119-.02,.19-.02,.214-.027,.121-.082,.181-.163,.181-.073,0-.105-.059-.095-.177,0-.036,.007-.126,.02-.269s.025-.264,.034-.361c.046-.486-.057-.829-.311-1.029-.253-.2-.782-.299-1.587-.299h-.529l-1.518,8.597c-.027,.181-.012,.302,.047,.366,.058,.063,.195,.095,.41,.095,.072,0,.154-.005,.248-.014,.094-.009,.159-.014,.195-.014,.099,0,.139,.046,.121,.136-.009,.091-.068,.136-.177,.136-.027,0-.088-.005-.184-.014s-.175-.014-.238-.014c-.127,0-.329-.004-.605-.014-.277-.009-.483-.014-.619-.014s-.34,.005-.612,.014c-.272,.009-.472,.014-.598,.014-.073,0-.161,.005-.265,.014-.105,.009-.166,.014-.184,.014-.091,0-.132-.045-.122-.136,.018-.09,.077-.136,.177-.136,.027,0,.084,.005,.17,.014,.086,.009,.17,.014,.251,.014,.199,0,.34-.025,.421-.075,.082-.05,.141-.143,.177-.279l1.537-8.704h-.531c-.807,0-1.375,.1-1.701,.299-.327,.199-.553,.55-.679,1.051-.04,.159-.074,.297-.105,.416-.03,.119-.045,.183-.045,.192-.036,.118-.095,.177-.177,.177-.091,0-.123-.068-.095-.204,0-.036,.021-.113,.063-.231,.042-.118,.082-.249,.119-.394l.286-1.238c.027-.136,.068-.228,.122-.273,.055-.046,.159-.068,.313-.068h6.315Z"/>
          <path class="cls-4" d="M61.876,231.481h.611c.145,0,.235,.023,.271,.068,.036,.045,.041,.131,.014,.258l-.952,5.399c-.091,.599-.018,.898,.218,.898,.199,0,.415-.165,.646-.496,.231-.331,.428-.746,.592-1.244,.036-.118,.104-.163,.204-.136,.072,.027,.1,.086,.081,.177-.218,.662-.508,1.195-.87,1.598-.363,.403-.775,.605-1.236,.605-.352,0-.617-.131-.793-.394-.176-.263-.215-.671-.115-1.224l.014-.08c-.254,.525-.58,.938-.979,1.236-.435,.299-.929,.448-1.482,.448-.843,0-1.462-.283-1.856-.85-.394-.566-.483-1.448-.265-2.645,.199-1.142,.644-2.051,1.333-2.727,.689-.675,1.532-1.013,2.53-1.013,.562,0,1.101,.172,1.616,.517v-.068c.027-.127,.07-.213,.129-.258,.059-.045,.156-.068,.291-.068Zm-3.44,6.746c1.124,0,1.94-1.041,2.448-3.123l.511-2.847c-.129-.163-.323-.302-.583-.415-.26-.113-.535-.17-.825-.17-.689,0-1.258,.338-1.707,1.013-.449,.675-.768,1.544-.959,2.604-.336,1.959,.036,2.938,1.115,2.938Z"/>
          <path class="cls-4" d="M65.273,238.512h-.599c-.133,0-.218-.023-.253-.068-.035-.045-.045-.131-.026-.258l1.523-8.623c.036-.208,.02-.349-.048-.422-.068-.072-.219-.109-.455-.109-.045,0-.113,.005-.204,.014-.091,.009-.15,.014-.177,.014-.109,0-.154-.05-.136-.15,.009-.082,.077-.122,.204-.122,.036,0,.095,.002,.177,.007,.081,.005,.14,.007,.177,.007,.638,0,1.158-.109,1.56-.326,.125-.091,.219-.136,.281-.136,.072,0,.094,.053,.067,.159l-.799,4.595c.571-1.165,1.433-1.748,2.585-1.748,.662,0,1.154,.188,1.476,.564s.41,.958,.265,1.745l-.625,3.55c-.09,.601-.017,.901,.218,.901,.199,0,.419-.165,.66-.496,.24-.331,.437-.746,.592-1.244,.036-.127,.109-.172,.218-.136,.072,.027,.091,.086,.054,.177-.208,.653-.494,1.183-.857,1.591-.363,.408-.773,.612-1.232,.612-.349,0-.61-.129-.785-.388-.175-.258-.213-.668-.113-1.231l.626-3.55c.199-1.124-.119-1.687-.954-1.687-.346,0-.677,.109-.995,.325-.718,.497-1.223,1.568-1.513,3.212l-.11,.629-.394,2.264c-.022,.125-.059,.211-.112,.258-.054,.047-.151,.07-.293,.07Z"/>
          <path class="cls-4" d="M74.526,232.746c.109-.598,.041-.898-.204-.898-.199,0-.42,.166-.66,.496-.24,.331-.442,.746-.605,1.244-.027,.118-.091,.163-.19,.136-.081-.018-.104-.077-.068-.177,.217-.662,.502-1.194,.855-1.598,.353-.403,.76-.605,1.222-.605,.353,0,.62,.132,.801,.394,.181,.263,.222,.671,.122,1.223l-.748,4.243c-.091,.599-.018,.898,.218,.898,.2,0,.416-.165,.648-.496,.232-.331,.43-.746,.593-1.244,.046-.118,.118-.163,.218-.136,.072,.027,.095,.086,.068,.177-.218,.662-.508,1.195-.87,1.598-.363,.403-.775,.605-1.238,.605-.354,0-.619-.131-.796-.394-.177-.263-.216-.671-.116-1.224l.748-4.243Zm.463-3.182c.036-.236,.145-.433,.326-.592,.181-.158,.376-.238,.585-.238,.199,0,.356,.07,.469,.211,.113,.141,.152,.324,.116,.551-.036,.236-.145,.428-.327,.578s-.381,.224-.598,.224c-.199,0-.354-.068-.462-.204-.109-.136-.145-.313-.109-.53Z"/>
          <path class="cls-4" d="M83.717,231.481h.611c.145,0,.235,.023,.271,.068,.036,.045,.041,.131,.014,.258l-.952,5.399c-.091,.599-.018,.898,.218,.898,.199,0,.415-.165,.646-.496,.231-.331,.428-.746,.592-1.244,.036-.118,.104-.163,.204-.136,.072,.027,.1,.086,.081,.177-.218,.662-.508,1.195-.87,1.598-.363,.403-.775,.605-1.236,.605-.352,0-.617-.131-.793-.394-.176-.263-.215-.671-.115-1.224l.014-.08c-.254,.525-.58,.938-.979,1.236-.435,.299-.929,.448-1.482,.448-.843,0-1.462-.283-1.856-.85-.394-.566-.483-1.448-.265-2.645,.199-1.142,.644-2.051,1.333-2.727,.689-.675,1.532-1.013,2.53-1.013,.562,0,1.101,.172,1.616,.517v-.068c.027-.127,.07-.213,.129-.258,.059-.045,.156-.068,.291-.068Zm-3.44,6.746c1.124,0,1.94-1.041,2.448-3.123l.511-2.847c-.129-.163-.323-.302-.583-.415-.26-.113-.535-.17-.825-.17-.689,0-1.258,.338-1.707,1.013-.449,.675-.768,1.544-.959,2.604-.336,1.959,.036,2.938,1.115,2.938Z"/>
          <path class="cls-4" d="M87.923,232.719c.088-.598,.016-.898-.218-.898-.199,0-.42,.166-.66,.496-.24,.331-.438,.746-.592,1.244-.036,.127-.109,.172-.218,.136-.073-.027-.091-.086-.054-.177,.218-.662,.505-1.194,.864-1.598,.358-.403,.766-.605,1.222-.605,.345,0,.604,.129,.778,.386,.174,.258,.21,.666,.111,1.227l-.114,.657c.1-.227,.211-.446,.333-.659,.122-.213,.29-.451,.503-.713,.213-.263,.469-.473,.768-.632,.299-.159,.621-.238,.966-.238,.39,0,.664,.114,.823,.34,.159,.227,.211,.526,.156,.897v.055c-.045,.209-.159,.39-.34,.544-.181,.154-.376,.231-.585,.231s-.374-.07-.496-.211c-.123-.14-.166-.32-.129-.537,.045-.236,.159-.428,.34-.578,.181-.15,.367-.224,.558-.224,.136,0,.254,.036,.354,.109-.118-.245-.345-.367-.68-.367-.689,0-1.301,.406-1.836,1.216-.535,.81-.897,1.741-1.087,2.792l-.448,2.573c-.022,.125-.059,.211-.113,.258-.053,.047-.147,.07-.28,.07h-.599c-.133,0-.22-.023-.26-.068-.04-.045-.051-.131-.033-.258l.966-5.467Z"/>
          <path class="cls-4" d="M96.106,238.172c.344,0,.678-.108,1.004-.326,.706-.488,1.203-1.555,1.493-3.2l.502-2.838c.027-.127,.068-.213,.121-.259,.054-.046,.149-.068,.284-.068h.608c.144,0,.234,.023,.271,.068,.036,.045,.041,.131,.013,.258l-.938,5.386c-.108,.599-.04,.898,.204,.898,.199,0,.419-.165,.66-.496,.24-.331,.438-.741,.592-1.231,.036-.127,.109-.177,.218-.15,.063,.036,.081,.095,.054,.177-.209,.662-.494,1.197-.857,1.605-.363,.408-.775,.612-1.236,.612-.352,0-.617-.131-.793-.394-.176-.263-.214-.675-.115-1.238l.012-.067c-.263,.507-.614,.915-1.053,1.223-.44,.308-.949,.462-1.53,.462-.653,0-1.137-.19-1.455-.571-.317-.381-.408-.961-.272-1.741l.639-3.563c.09-.598,.018-.898-.218-.898-.209,0-.429,.166-.66,.496-.231,.331-.429,.746-.592,1.244-.036,.127-.109,.172-.218,.136-.073-.027-.091-.086-.054-.177,.208-.662,.494-1.194,.857-1.598,.363-.403,.775-.605,1.236-.605,.352,0,.616,.132,.793,.394,.176,.263,.214,.671,.115,1.223l-.623,3.55c-.209,1.125,.103,1.687,.937,1.687Z"/>
          <path class="cls-4" d="M108.143,231.481h.611c.145,0,.235,.023,.271,.068,.036,.045,.041,.131,.014,.258l-.952,5.399c-.091,.599-.018,.898,.218,.898,.199,0,.415-.165,.646-.496,.231-.331,.428-.746,.592-1.244,.036-.118,.104-.163,.204-.136,.072,.027,.1,.086,.081,.177-.218,.662-.508,1.195-.87,1.598-.363,.403-.775,.605-1.236,.605-.352,0-.617-.131-.793-.394-.176-.263-.215-.671-.115-1.224l.014-.08c-.254,.525-.58,.938-.979,1.236-.435,.299-.929,.448-1.482,.448-.843,0-1.462-.283-1.856-.85-.394-.566-.483-1.448-.265-2.645,.199-1.142,.644-2.051,1.333-2.727,.689-.675,1.532-1.013,2.53-1.013,.562,0,1.101,.172,1.616,.517v-.068c.027-.127,.07-.213,.129-.258,.059-.045,.156-.068,.291-.068Zm-3.44,6.746c1.124,0,1.94-1.041,2.448-3.123l.511-2.847c-.129-.163-.323-.302-.583-.415-.26-.113-.535-.17-.825-.17-.689,0-1.258,.338-1.707,1.013-.449,.675-.768,1.544-.959,2.604-.336,1.959,.036,2.938,1.115,2.938Z"/>
          <path class="cls-4" d="M114.252,233.589c.1-.58,.272-1.133,.517-1.659,.245-.526,.573-1.027,.986-1.503s.952-.857,1.619-1.142c.666-.286,1.416-.428,2.251-.428,.644,0,1.21,.095,1.7,.286,.49,.19,.873,.447,1.149,.768,.277,.322,.494,.7,.653,1.136s.236,.9,.231,1.394c-.005,.494-.043,1.004-.116,1.53-.1,.571-.27,1.118-.51,1.639-.241,.522-.567,1.022-.979,1.503-.413,.481-.952,.864-1.618,1.149-.667,.286-1.417,.428-2.251,.428-.644,0-1.21-.095-1.7-.286-.49-.19-.873-.447-1.149-.768-.277-.322-.496-.7-.66-1.136-.163-.435-.243-.9-.238-1.394,.005-.494,.043-1,.116-1.516Zm5.318-4.447c-.589,0-1.108,.118-1.557,.354-.449,.236-.821,.578-1.115,1.027-.295,.449-.535,.932-.721,1.448-.186,.517-.338,1.115-.456,1.795-.109,.644-.166,1.22-.17,1.727-.005,.508,.057,.993,.184,1.455,.127,.462,.376,.821,.748,1.074,.372,.254,.857,.381,1.455,.381s1.126-.122,1.584-.367,.832-.594,1.122-1.047c.29-.453,.523-.932,.7-1.435,.177-.503,.324-1.086,.442-1.748,.09-.508,.15-.97,.177-1.387,.027-.417,.009-.834-.054-1.251-.063-.417-.179-.771-.347-1.061-.168-.29-.42-.524-.755-.7-.336-.177-.748-.265-1.238-.265Z"/>
          <path class="cls-4" d="M130.192,233.439c.199-1.124-.119-1.687-.955-1.687-.282,0-.6,.122-.954,.367-.736,.507-1.245,1.567-1.527,3.178l-.503,2.886c-.018,.127-.056,.214-.115,.259s-.156,.068-.291,.068h-.609c-.136,0-.223-.023-.264-.068-.041-.045-.052-.131-.034-.258l.723-4.154h0s.229-1.313,.229-1.313c.09-.598,.018-.898-.218-.898-.2,0-.42,.166-.66,.496-.24,.331-.438,.746-.591,1.244-.036,.127-.109,.172-.218,.136-.073-.027-.091-.086-.054-.177,.218-.662,.505-1.194,.864-1.598,.358-.403,.768-.605,1.23-.605,.352,0,.619,.132,.8,.394,.181,.263,.221,.671,.122,1.223l-.021,.121c.571-1.141,1.426-1.711,2.567-1.711,.661,0,1.152,.188,1.474,.564s.41,.959,.265,1.747l-.612,3.536c-.108,.599-.04,.898,.204,.898,.199,0,.419-.165,.66-.496,.24-.331,.437-.741,.592-1.231,.036-.127,.109-.177,.218-.15,.063,.036,.082,.095,.054,.177-.208,.662-.494,1.197-.857,1.605-.363,.408-.775,.612-1.236,.612-.352,0-.617-.131-.793-.394-.176-.263-.214-.675-.115-1.238l.626-3.536Z"/>
          <path class="cls-4" d="M133.537,234.867c.181-1.043,.6-1.891,1.258-2.543,.657-.653,1.548-.979,2.672-.979,.762,0,1.369,.177,1.823,.53,.453,.354,.73,.816,.829,1.387,.1,.571,.095,1.22-.014,1.945-.181,1.034-.601,1.872-1.258,2.516-.658,.644-1.548,.966-2.672,.966-1.115,0-1.884-.354-2.305-1.061-.422-.707-.533-1.627-.333-2.761Zm3.89-3.25c-1.261,0-2.094,1.129-2.502,3.386-.399,2.276,.036,3.414,1.306,3.414,1.278,0,2.117-1.138,2.516-3.414,.408-2.258-.032-3.386-1.319-3.386Z"/>
          <path class="cls-4" d="M142.291,238.512h-.599c-.133,0-.218-.023-.253-.068-.035-.045-.045-.131-.026-.258l1.523-8.623c.036-.208,.02-.349-.048-.422-.068-.072-.219-.109-.455-.109-.045,0-.113,.005-.204,.014-.091,.009-.15,.014-.177,.014-.109,0-.154-.05-.136-.15,.009-.082,.077-.122,.204-.122,.036,0,.095,.002,.177,.007,.081,.005,.14,.007,.177,.007,.638,0,1.158-.109,1.56-.326,.125-.091,.219-.136,.281-.136,.072,0,.094,.053,.067,.159l-.799,4.595c.571-1.165,1.433-1.748,2.585-1.748,.662,0,1.154,.188,1.476,.564s.41,.958,.265,1.745l-.625,3.55c-.09,.601-.017,.901,.218,.901,.199,0,.419-.165,.66-.496,.24-.331,.437-.746,.592-1.244,.036-.127,.109-.172,.218-.136,.072,.027,.091,.086,.054,.177-.208,.653-.494,1.183-.857,1.591-.363,.408-.773,.612-1.232,.612-.349,0-.61-.129-.785-.388-.175-.258-.213-.668-.113-1.231l.626-3.55c.199-1.124-.119-1.687-.954-1.687-.346,0-.677,.109-.995,.325-.718,.497-1.223,1.568-1.513,3.212l-.11,.629-.394,2.264c-.022,.125-.059,.211-.112,.258-.054,.047-.151,.07-.293,.07Z"/>
          <path class="cls-4" d="M151.544,232.746c.109-.598,.041-.898-.204-.898-.199,0-.42,.166-.66,.496-.24,.331-.442,.746-.605,1.244-.027,.118-.091,.163-.19,.136-.081-.018-.104-.077-.068-.177,.217-.662,.502-1.194,.855-1.598,.353-.403,.76-.605,1.222-.605,.353,0,.62,.132,.801,.394,.181,.263,.222,.671,.122,1.223l-.748,4.243c-.091,.599-.018,.898,.218,.898,.2,0,.416-.165,.648-.496,.232-.331,.43-.746,.593-1.244,.046-.118,.118-.163,.218-.136,.072,.027,.095,.086,.068,.177-.218,.662-.508,1.195-.87,1.598-.363,.403-.775,.605-1.238,.605-.354,0-.619-.131-.796-.394-.177-.263-.216-.671-.116-1.224l.748-4.243Zm.463-3.182c.036-.236,.145-.433,.326-.592,.181-.158,.376-.238,.585-.238,.199,0,.356,.07,.469,.211,.113,.141,.152,.324,.116,.551-.036,.236-.145,.428-.327,.578s-.381,.224-.598,.224c-.199,0-.354-.068-.462-.204-.109-.136-.145-.313-.109-.53Z"/>
          <path class="cls-4" d="M161.564,228.979c.134,0,.228,.096,.282,.289l1.63,7.426,4.213-7.49c.091-.15,.218-.226,.381-.226h.749c.181,0,.417-.005,.707-.014,.29-.009,.485-.014,.585-.014,.036,0,.068,.005,.095,.014,.027,.009,.048,.023,.061,.041,.014,.018,.021,.046,.021,.082-.027,.091-.1,.136-.218,.136-.018,0-.075-.007-.17-.02-.095-.014-.184-.02-.265-.02-.2,0-.342,.027-.429,.081-.086,.054-.147,.158-.184,.312l-1.455,8.242c-.027,.182-.011,.305,.048,.368,.059,.064,.197,.096,.415,.096,.082,0,.172-.005,.272-.014,.1-.009,.163-.014,.19-.014,.109,0,.154,.046,.136,.136-.009,.091-.073,.136-.19,.136-.027,0-.088-.005-.184-.014s-.179-.014-.252-.014c-.127,0-.308-.004-.542-.014-.235-.009-.424-.014-.569-.014-.135,0-.341,.005-.616,.014-.276,.009-.477,.014-.604,.014-.073,0-.161,.005-.265,.014s-.17,.014-.197,.014c-.091,0-.132-.045-.122-.136,.018-.09,.077-.136,.177-.136,.036,0,.097,.005,.184,.014,.086,.009,.17,.014,.252,.014,.218,0,.369-.032,.456-.095,.086-.063,.143-.186,.17-.367l1.415-8.016-4.951,8.736c-.034,.073-.084,.11-.152,.11h-.026c-.059,0-.101-.031-.127-.094l-1.96-8.64-.133,.75h0s-1.27,7.153-1.27,7.153c-.027,.182-.011,.305,.048,.368,.059,.064,.197,.096,.414,.096,.082,0,.172-.005,.272-.014,.1-.009,.163-.014,.19-.014,.109,0,.154,.046,.136,.136-.009,.091-.073,.136-.19,.136-.018,0-.077-.005-.177-.014s-.186-.014-.258-.014c-.082,0-.192-.004-.332-.014-.14-.009-.263-.014-.369-.014-.117,0-.248,.005-.392,.014-.145,.009-.258,.014-.34,.014-.063,0-.15,.005-.258,.014s-.172,.014-.19,.014c-.1,0-.145-.045-.136-.136,.018-.09,.082-.136,.19-.136,.027,0,.086,.005,.177,.014,.09,.009,.172,.014,.245,.014,.218,0,.369-.032,.456-.095,.086-.063,.143-.186,.17-.367l1.469-8.269c.009-.136-.023-.231-.096-.286s-.204-.082-.394-.082c-.082,0-.168,.007-.258,.02-.091,.014-.145,.02-.163,.02-.127,0-.177-.045-.15-.136,.009-.1,.077-.15,.204-.15,.063,0,.224,.007,.483,.021,.259,.014,.477,.021,.656,.021h1.035Z"/>
          <path class="cls-4" d="M171.944,232.746c.109-.598,.041-.898-.204-.898-.199,0-.42,.166-.66,.496-.24,.331-.442,.746-.605,1.244-.027,.118-.091,.163-.19,.136-.081-.018-.104-.077-.068-.177,.217-.662,.502-1.194,.855-1.598,.353-.403,.76-.605,1.222-.605,.353,0,.62,.132,.801,.394,.181,.263,.222,.671,.122,1.223l-.748,4.243c-.091,.599-.018,.898,.218,.898,.2,0,.416-.165,.648-.496,.232-.331,.43-.746,.593-1.244,.046-.118,.118-.163,.218-.136,.072,.027,.095,.086,.068,.177-.218,.662-.508,1.195-.87,1.598-.363,.403-.775,.605-1.238,.605-.354,0-.619-.131-.796-.394-.177-.263-.216-.671-.116-1.224l.748-4.243Zm.463-3.182c.036-.236,.145-.433,.326-.592,.181-.158,.376-.238,.585-.238,.199,0,.356,.07,.469,.211,.113,.141,.152,.324,.116,.551-.036,.236-.145,.428-.327,.578s-.381,.224-.598,.224c-.199,0-.354-.068-.462-.204-.109-.136-.145-.313-.109-.53Z"/>
          <path class="cls-4" d="M176.182,238.512h-.599c-.133,0-.218-.023-.253-.068-.035-.045-.045-.131-.026-.258l1.523-8.623c.036-.208,.02-.349-.048-.422-.068-.072-.219-.109-.455-.109-.045,0-.113,.005-.204,.014-.091,.009-.15,.014-.177,.014-.109,0-.154-.05-.136-.15,.009-.082,.077-.122,.204-.122,.036,0,.095,.002,.177,.007,.081,.005,.14,.007,.177,.007,.638,0,1.158-.109,1.56-.326,.125-.091,.219-.136,.281-.136,.072,0,.094,.053,.067,.159l-.799,4.595c.571-1.165,1.433-1.748,2.585-1.748,.662,0,1.154,.188,1.476,.564s.41,.958,.265,1.745l-.625,3.55c-.09,.601-.017,.901,.218,.901,.199,0,.419-.165,.66-.496,.24-.331,.437-.746,.592-1.244,.036-.127,.109-.172,.218-.136,.072,.027,.091,.086,.054,.177-.208,.653-.494,1.183-.857,1.591-.363,.408-.773,.612-1.232,.612-.349,0-.61-.129-.785-.388-.175-.258-.213-.668-.113-1.231l.626-3.55c.199-1.124-.119-1.687-.954-1.687-.346,0-.677,.109-.995,.325-.718,.497-1.223,1.568-1.513,3.212l-.11,.629-.394,2.264c-.022,.125-.059,.211-.112,.258-.054,.047-.151,.07-.293,.07Z"/>
          <path class="cls-4" d="M185.435,232.746c.109-.598,.041-.898-.204-.898-.199,0-.42,.166-.66,.496-.24,.331-.442,.746-.605,1.244-.027,.118-.091,.163-.19,.136-.081-.018-.104-.077-.068-.177,.217-.662,.502-1.194,.855-1.598,.353-.403,.76-.605,1.222-.605,.353,0,.62,.132,.801,.394,.181,.263,.222,.671,.122,1.223l-.748,4.243c-.091,.599-.018,.898,.218,.898,.2,0,.416-.165,.648-.496,.232-.331,.43-.746,.593-1.244,.046-.118,.118-.163,.218-.136,.072,.027,.095,.086,.068,.177-.218,.662-.508,1.195-.87,1.598-.363,.403-.775,.605-1.238,.605-.354,0-.619-.131-.796-.394-.177-.263-.216-.671-.116-1.224l.748-4.243Zm.463-3.182c.036-.236,.145-.433,.326-.592,.181-.158,.376-.238,.585-.238,.199,0,.356,.07,.469,.211,.113,.141,.152,.324,.116,.551-.036,.236-.145,.428-.327,.578s-.381,.224-.598,.224c-.199,0-.354-.068-.462-.204-.109-.136-.145-.313-.109-.53Z"/>
          <path class="cls-4" d="M194.602,233.439c.199-1.124-.119-1.687-.955-1.687-.282,0-.6,.122-.954,.367-.736,.507-1.245,1.567-1.527,3.178l-.503,2.886c-.018,.127-.056,.214-.115,.259s-.156,.068-.291,.068h-.609c-.136,0-.223-.023-.264-.068-.041-.045-.052-.131-.034-.258l.723-4.154h0s.229-1.313,.229-1.313c.09-.598,.018-.898-.218-.898-.2,0-.42,.166-.66,.496-.24,.331-.438,.746-.591,1.244-.036,.127-.109,.172-.218,.136-.073-.027-.091-.086-.054-.177,.218-.662,.505-1.194,.864-1.598,.358-.403,.768-.605,1.23-.605,.352,0,.619,.132,.8,.394,.181,.263,.221,.671,.122,1.223l-.021,.121c.571-1.141,1.426-1.711,2.567-1.711,.661,0,1.152,.188,1.474,.564s.41,.959,.265,1.747l-.612,3.536c-.108,.599-.04,.898,.204,.898,.199,0,.419-.165,.66-.496,.24-.331,.437-.741,.592-1.231,.036-.127,.109-.177,.218-.15,.063,.036,.082,.095,.054,.177-.208,.662-.494,1.197-.857,1.605-.363,.408-.775,.612-1.236,.612-.352,0-.617-.131-.793-.394-.176-.263-.214-.675-.115-1.238l.626-3.536Z"/>
          <path class="cls-4" d="M197.947,234.867c.181-1.043,.6-1.891,1.258-2.543,.657-.653,1.548-.979,2.672-.979,.762,0,1.369,.177,1.823,.53,.453,.354,.73,.816,.829,1.387,.1,.571,.095,1.22-.014,1.945-.181,1.034-.601,1.872-1.258,2.516-.658,.644-1.548,.966-2.672,.966-1.115,0-1.884-.354-2.305-1.061-.422-.707-.533-1.627-.333-2.761Zm3.89-3.25c-1.261,0-2.094,1.129-2.502,3.386-.399,2.276,.036,3.414,1.306,3.414,1.278,0,2.117-1.138,2.516-3.414,.408-2.258-.032-3.386-1.319-3.386Z"/>
          <path class="cls-4" d="M211.653,231.481h.611c.145,0,.235,.023,.271,.068,.036,.045,.041,.131,.014,.258l-.952,5.399c-.091,.599-.018,.898,.218,.898,.199,0,.415-.165,.646-.496,.231-.331,.428-.746,.592-1.244,.036-.118,.104-.163,.204-.136,.072,.027,.1,.086,.081,.177-.218,.662-.508,1.195-.87,1.598-.363,.403-.775,.605-1.236,.605-.352,0-.617-.131-.793-.394-.176-.263-.215-.671-.115-1.224l.014-.08c-.254,.525-.58,.938-.979,1.236-.435,.299-.929,.448-1.482,.448-.843,0-1.462-.283-1.856-.85-.394-.566-.483-1.448-.265-2.645,.199-1.142,.644-2.051,1.333-2.727,.689-.675,1.532-1.013,2.53-1.013,.562,0,1.101,.172,1.616,.517v-.068c.027-.127,.07-.213,.129-.258,.059-.045,.156-.068,.291-.068Zm-3.44,6.746c1.124,0,1.94-1.041,2.448-3.123l.511-2.847c-.129-.163-.323-.302-.583-.415-.26-.113-.535-.17-.825-.17-.689,0-1.258,.338-1.707,1.013-.449,.675-.768,1.544-.959,2.604-.336,1.959,.036,2.938,1.115,2.938Z"/>
          <path class="cls-4" d="M223.363,231.481h.611c.145,0,.235,.023,.271,.068,.036,.045,.041,.131,.014,.258l-.952,5.399c-.091,.599-.018,.898,.218,.898,.199,0,.415-.165,.646-.496,.231-.331,.428-.746,.592-1.244,.036-.118,.104-.163,.204-.136,.072,.027,.1,.086,.081,.177-.218,.662-.508,1.195-.87,1.598-.363,.403-.775,.605-1.236,.605-.352,0-.617-.131-.793-.394-.176-.263-.215-.671-.115-1.224l.014-.08c-.254,.525-.58,.938-.979,1.236-.435,.299-.929,.448-1.482,.448-.843,0-1.462-.283-1.856-.85-.394-.566-.483-1.448-.265-2.645,.199-1.142,.644-2.051,1.333-2.727,.689-.675,1.532-1.013,2.53-1.013,.562,0,1.101,.172,1.616,.517v-.068c.027-.127,.07-.213,.129-.258,.059-.045,.156-.068,.291-.068Zm-3.44,6.746c1.124,0,1.94-1.041,2.448-3.123l.511-2.847c-.129-.163-.323-.302-.583-.415-.26-.113-.535-.17-.825-.17-.689,0-1.258,.338-1.707,1.013-.449,.675-.768,1.544-.959,2.604-.336,1.959,.036,2.938,1.115,2.938Z"/>
          <path class="cls-4" d="M236.323,228.951c.145,0,.24,.023,.286,.068,.045,.046,.059,.136,.041,.273l-.146,1.26c-.018,.155-.034,.292-.048,.411-.014,.119-.02,.19-.02,.214-.027,.121-.082,.181-.163,.181-.073,0-.105-.059-.095-.177,0-.036,.007-.126,.02-.269s.025-.264,.034-.361c.046-.486-.057-.829-.311-1.029-.253-.2-.782-.299-1.587-.299h-.529l-1.518,8.597c-.027,.181-.012,.302,.047,.366,.058,.063,.195,.095,.41,.095,.072,0,.154-.005,.248-.014,.094-.009,.159-.014,.195-.014,.099,0,.139,.046,.121,.136-.009,.091-.068,.136-.177,.136-.027,0-.088-.005-.184-.014s-.175-.014-.238-.014c-.127,0-.329-.004-.605-.014-.277-.009-.483-.014-.619-.014s-.34,.005-.612,.014c-.272,.009-.472,.014-.598,.014-.073,0-.161,.005-.265,.014-.105,.009-.166,.014-.184,.014-.091,0-.132-.045-.122-.136,.018-.09,.077-.136,.177-.136,.027,0,.084,.005,.17,.014,.086,.009,.17,.014,.251,.014,.199,0,.34-.025,.421-.075,.082-.05,.141-.143,.177-.279l1.537-8.704h-.531c-.807,0-1.375,.1-1.701,.299-.327,.199-.553,.55-.679,1.051-.04,.159-.074,.297-.105,.416-.03,.119-.045,.183-.045,.192-.036,.118-.095,.177-.177,.177-.091,0-.123-.068-.095-.204,0-.036,.021-.113,.063-.231,.042-.118,.082-.249,.119-.394l.286-1.238c.027-.136,.068-.228,.122-.273,.055-.046,.159-.068,.313-.068h6.315Z"/>
          <path class="cls-4" d="M242.552,231.481h.611c.145,0,.235,.023,.271,.068,.036,.045,.041,.131,.014,.258l-.952,5.399c-.091,.599-.018,.898,.218,.898,.199,0,.415-.165,.646-.496,.231-.331,.428-.746,.592-1.244,.036-.118,.104-.163,.204-.136,.072,.027,.1,.086,.081,.177-.218,.662-.508,1.195-.87,1.598-.363,.403-.775,.605-1.236,.605-.352,0-.617-.131-.793-.394-.176-.263-.215-.671-.115-1.224l.014-.08c-.254,.525-.58,.938-.979,1.236-.435,.299-.929,.448-1.482,.448-.843,0-1.462-.283-1.856-.85-.394-.566-.483-1.448-.265-2.645,.199-1.142,.644-2.051,1.333-2.727,.689-.675,1.532-1.013,2.53-1.013,.562,0,1.101,.172,1.616,.517v-.068c.027-.127,.07-.213,.129-.258,.059-.045,.156-.068,.291-.068Zm-3.44,6.746c1.124,0,1.94-1.041,2.448-3.123l.511-2.847c-.129-.163-.323-.302-.583-.415-.26-.113-.535-.17-.825-.17-.689,0-1.258,.338-1.707,1.013-.449,.675-.768,1.544-.959,2.604-.336,1.959,.036,2.938,1.115,2.938Z"/>
          <path class="cls-4" d="M245.522,231.617h.91c.24,0,.504-.229,.792-.687s.469-.895,.539-1.313c.027-.145,.095-.218,.204-.218,.09,0,.122,.073,.095,.218l-.353,1.999h1.781c.082,0,.113,.036,.095,.109l-.014,.095c-.009,.091-.059,.136-.15,.136h-1.774l-.811,4.597c-.097,.626-.097,1.07,.002,1.333,.099,.263,.311,.394,.638,.394,.39,0,.707-.1,.952-.299,.018-.009,.109-.086,.272-.231,.109-.082,.186-.091,.231-.027,.072,.054,.041,.141-.095,.258-.073,.064-.168,.127-.286,.19-.399,.281-.857,.422-1.374,.422-1.321,0-1.851-.723-1.588-2.17l.774-4.466h-.911c-.1,0-.136-.054-.109-.163v-.027c.018-.1,.077-.15,.177-.15Z"/>
          <path class="cls-4" d="M251.558,232.746c.109-.598,.041-.898-.204-.898-.199,0-.42,.166-.66,.496-.24,.331-.442,.746-.605,1.244-.027,.118-.091,.163-.19,.136-.081-.018-.104-.077-.068-.177,.217-.662,.502-1.194,.855-1.598,.353-.403,.76-.605,1.222-.605,.353,0,.62,.132,.801,.394,.181,.263,.222,.671,.122,1.223l-.748,4.243c-.091,.599-.018,.898,.218,.898,.2,0,.416-.165,.648-.496,.232-.331,.43-.746,.593-1.244,.046-.118,.118-.163,.218-.136,.072,.027,.095,.086,.068,.177-.218,.662-.508,1.195-.87,1.598-.363,.403-.775,.605-1.238,.605-.354,0-.619-.131-.796-.394-.177-.263-.216-.671-.116-1.224l.748-4.243Zm.463-3.182c.036-.236,.145-.433,.326-.592,.181-.158,.376-.238,.585-.238,.199,0,.356,.07,.469,.211,.113,.141,.152,.324,.116,.551-.036,.236-.145,.428-.327,.578s-.381,.224-.598,.224c-.199,0-.354-.068-.462-.204-.109-.136-.145-.313-.109-.53Z"/>
          <path class="cls-4" d="M254.51,237.805c.045-.263,.156-.476,.333-.639,.177-.163,.392-.245,.646-.245,.245,0,.426,.088,.544,.265,.118,.177,.154,.401,.109,.673-.081,.435-.308,.875-.68,1.319-.372,.444-.73,.78-1.075,1.006-.136,.082-.231,.095-.286,.041-.045-.091,.005-.177,.15-.258,.281-.19,.558-.444,.83-.762,.272-.318,.467-.639,.585-.966-.154,.245-.381,.367-.68,.367-.172,0-.306-.075-.401-.224s-.12-.342-.075-.578Z"/>
          <path class="cls-4" d="M267.153,237.206c-.09,.599-.018,.898,.218,.898,.199,0,.415-.165,.646-.496,.231-.331,.428-.746,.591-1.244,.036-.118,.104-.163,.204-.136,.072,.027,.099,.086,.081,.177-.218,.662-.508,1.195-.87,1.598-.363,.403-.775,.605-1.236,.605-.352,0-.617-.131-.793-.394-.176-.263-.215-.671-.115-1.224l.014-.08c-.254,.525-.58,.938-.979,1.237-.435,.299-.93,.448-1.483,.448-.843,0-1.462-.283-1.856-.85-.394-.566-.483-1.448-.265-2.645,.199-1.142,.644-2.051,1.333-2.727,.689-.675,1.532-1.013,2.53-1.013,.561,0,1.098,.173,1.61,.52l.407-2.301c.036-.218,.024-.361-.034-.429-.059-.068-.206-.102-.442-.102-.045,0-.111,.002-.197,.007-.086,.005-.143,.007-.17,.007-.1,0-.145-.045-.136-.136,.009-.09,.072-.136,.19-.136,.036,0,.095,.002,.177,.007,.082,.005,.145,.007,.19,.007,.668,0,1.187-.109,1.557-.326,.144-.091,.243-.136,.297-.136,.072,0,.095,.059,.068,.176l-1.537,8.691Zm-3.388,1.021c1.124,0,1.94-1.041,2.448-3.124l.504-2.85c-.127-.162-.32-.3-.579-.413-.259-.113-.533-.169-.823-.169-.689,0-1.258,.338-1.707,1.013-.449,.675-.768,1.544-.959,2.604-.336,1.959,.036,2.938,1.115,2.938Z"/>
          <path class="cls-4" d="M271.496,232.746c.109-.598,.041-.898-.204-.898-.199,0-.42,.166-.66,.496-.24,.331-.442,.746-.605,1.244-.027,.118-.091,.163-.19,.136-.081-.018-.104-.077-.068-.177,.217-.662,.502-1.194,.855-1.598,.353-.403,.76-.605,1.222-.605,.353,0,.62,.132,.801,.394,.181,.263,.222,.671,.122,1.223l-.748,4.243c-.091,.599-.018,.898,.218,.898,.2,0,.416-.165,.648-.496,.232-.331,.43-.746,.593-1.244,.046-.118,.118-.163,.218-.136,.072,.027,.095,.086,.068,.177-.218,.662-.508,1.195-.87,1.598-.363,.403-.775,.605-1.238,.605-.354,0-.619-.131-.796-.394-.177-.263-.216-.671-.116-1.224l.748-4.243Zm.463-3.182c.036-.236,.145-.433,.326-.592,.181-.158,.376-.238,.585-.238,.199,0,.356,.07,.469,.211,.113,.141,.152,.324,.116,.551-.036,.236-.145,.428-.327,.578s-.381,.224-.598,.224c-.199,0-.354-.068-.462-.204-.109-.136-.145-.313-.109-.53Z"/>
          <path class="cls-4" d="M275.306,231.617h.91c.24,0,.504-.229,.792-.687s.469-.895,.539-1.313c.027-.145,.095-.218,.204-.218,.09,0,.122,.073,.095,.218l-.353,1.999h1.781c.082,0,.113,.036,.095,.109l-.014,.095c-.009,.091-.059,.136-.15,.136h-1.774l-.811,4.597c-.097,.626-.097,1.07,.002,1.333,.099,.263,.311,.394,.638,.394,.39,0,.707-.1,.952-.299,.018-.009,.109-.086,.272-.231,.109-.082,.186-.091,.231-.027,.072,.054,.041,.141-.095,.258-.073,.064-.168,.127-.286,.19-.399,.281-.857,.422-1.374,.422-1.321,0-1.851-.723-1.588-2.17l.774-4.466h-.911c-.1,0-.136-.054-.109-.163v-.027c.018-.1,.077-.15,.177-.15Z"/>
          <path class="cls-4" d="M290.287,228.951c.145,0,.24,.023,.286,.068,.045,.046,.059,.136,.041,.273l-.146,1.26c-.018,.155-.034,.292-.048,.411-.014,.119-.02,.19-.02,.214-.027,.121-.082,.181-.163,.181-.073,0-.105-.059-.095-.177,0-.036,.007-.126,.02-.269s.025-.264,.034-.361c.046-.486-.057-.829-.311-1.029-.253-.2-.782-.299-1.587-.299h-.529l-1.518,8.597c-.027,.181-.012,.302,.047,.366,.058,.063,.195,.095,.41,.095,.072,0,.154-.005,.248-.014,.094-.009,.159-.014,.195-.014,.099,0,.139,.046,.121,.136-.009,.091-.068,.136-.177,.136-.027,0-.088-.005-.184-.014s-.175-.014-.238-.014c-.127,0-.329-.004-.605-.014-.277-.009-.483-.014-.619-.014s-.34,.005-.612,.014c-.272,.009-.472,.014-.598,.014-.073,0-.161,.005-.265,.014-.105,.009-.166,.014-.184,.014-.091,0-.132-.045-.122-.136,.018-.09,.077-.136,.177-.136,.027,0,.084,.005,.17,.014,.086,.009,.17,.014,.251,.014,.199,0,.34-.025,.421-.075,.082-.05,.141-.143,.177-.279l1.537-8.704h-.531c-.807,0-1.375,.1-1.701,.299-.327,.199-.553,.55-.679,1.051-.04,.159-.074,.297-.105,.416-.03,.119-.045,.183-.045,.192-.036,.118-.095,.177-.177,.177-.091,0-.123-.068-.095-.204,0-.036,.021-.113,.063-.231,.042-.118,.082-.249,.119-.394l.286-1.238c.027-.136,.068-.228,.122-.273,.055-.046,.159-.068,.313-.068h6.315Z"/>
          <path class="cls-4" d="M292.018,232.746c.109-.598,.041-.898-.204-.898-.199,0-.42,.166-.66,.496-.24,.331-.442,.746-.605,1.244-.027,.118-.091,.163-.19,.136-.081-.018-.104-.077-.068-.177,.217-.662,.502-1.194,.855-1.598,.353-.403,.76-.605,1.222-.605,.353,0,.62,.132,.801,.394,.181,.263,.222,.671,.122,1.223l-.748,4.243c-.091,.599-.018,.898,.218,.898,.2,0,.416-.165,.648-.496,.232-.331,.43-.746,.593-1.244,.046-.118,.118-.163,.218-.136,.072,.027,.095,.086,.068,.177-.218,.662-.508,1.195-.87,1.598-.363,.403-.775,.605-1.238,.605-.354,0-.619-.131-.796-.394-.177-.263-.216-.671-.116-1.224l.748-4.243Zm.463-3.182c.036-.236,.145-.433,.326-.592,.181-.158,.376-.238,.585-.238,.199,0,.356,.07,.469,.211,.113,.141,.152,.324,.116,.551-.036,.236-.145,.428-.327,.578s-.381,.224-.598,.224c-.199,0-.354-.068-.462-.204-.109-.136-.145-.313-.109-.53Z"/>
          <path class="cls-4" d="M298.419,238.172c.344,0,.678-.108,1.004-.326,.706-.488,1.203-1.555,1.493-3.2l.502-2.838c.027-.127,.068-.213,.121-.259,.054-.046,.149-.068,.284-.068h.608c.144,0,.234,.023,.271,.068,.036,.045,.041,.131,.013,.258l-.938,5.386c-.108,.599-.04,.898,.204,.898,.199,0,.419-.165,.66-.496,.24-.331,.438-.741,.592-1.231,.036-.127,.109-.177,.218-.15,.063,.036,.081,.095,.054,.177-.209,.662-.494,1.197-.857,1.605-.363,.408-.775,.612-1.236,.612-.352,0-.617-.131-.793-.394-.176-.263-.214-.675-.115-1.238l.012-.067c-.263,.507-.614,.915-1.053,1.223-.44,.308-.949,.462-1.53,.462-.653,0-1.137-.19-1.455-.571-.317-.381-.408-.961-.272-1.741l.639-3.563c.09-.598,.018-.898-.218-.898-.209,0-.429,.166-.66,.496-.231,.331-.429,.746-.592,1.244-.036,.127-.109,.172-.218,.136-.073-.027-.091-.086-.054-.177,.208-.662,.494-1.194,.857-1.598,.363-.403,.775-.605,1.236-.605,.352,0,.616,.132,.793,.394,.176,.263,.214,.671,.115,1.223l-.623,3.55c-.209,1.125,.103,1.687,.937,1.687Z"/>
          <path class="cls-4" d="M306.312,232.719c.088-.598,.016-.898-.218-.898-.199,0-.42,.166-.66,.496-.24,.331-.438,.746-.592,1.244-.036,.127-.109,.172-.218,.136-.073-.027-.091-.086-.054-.177,.218-.662,.505-1.194,.864-1.598,.358-.403,.766-.605,1.222-.605,.345,0,.604,.129,.778,.386,.174,.258,.21,.666,.111,1.227l-.114,.657c.1-.227,.211-.446,.333-.659,.122-.213,.29-.451,.503-.713,.213-.263,.469-.473,.768-.632,.299-.159,.621-.238,.966-.238,.39,0,.664,.114,.823,.34,.159,.227,.211,.526,.156,.897v.055c-.045,.209-.159,.39-.34,.544-.181,.154-.376,.231-.585,.231s-.374-.07-.496-.211c-.123-.14-.166-.32-.129-.537,.045-.236,.159-.428,.34-.578,.181-.15,.367-.224,.558-.224,.136,0,.254,.036,.354,.109-.118-.245-.345-.367-.68-.367-.689,0-1.301,.406-1.836,1.216-.535,.81-.897,1.741-1.087,2.792l-.448,2.573c-.022,.125-.059,.211-.113,.258-.053,.047-.147,.07-.28,.07h-.599c-.133,0-.22-.023-.26-.068-.04-.045-.051-.131-.033-.258l.966-5.467Z"/>
          <path class="cls-4" d="M317.284,231.481h.611c.145,0,.235,.023,.271,.068,.036,.045,.041,.131,.014,.258l-.952,5.399c-.091,.599-.018,.898,.218,.898,.199,0,.415-.165,.646-.496,.231-.331,.428-.746,.592-1.244,.036-.118,.104-.163,.204-.136,.072,.027,.1,.086,.081,.177-.218,.662-.508,1.195-.87,1.598-.363,.403-.775,.605-1.236,.605-.352,0-.617-.131-.793-.394-.176-.263-.215-.671-.115-1.224l.014-.08c-.254,.525-.58,.938-.979,1.236-.435,.299-.929,.448-1.482,.448-.843,0-1.462-.283-1.856-.85-.394-.566-.483-1.448-.265-2.645,.199-1.142,.644-2.051,1.333-2.727,.689-.675,1.532-1.013,2.53-1.013,.562,0,1.101,.172,1.616,.517v-.068c.027-.127,.07-.213,.129-.258,.059-.045,.156-.068,.291-.068Zm-3.44,6.746c1.124,0,1.94-1.041,2.448-3.123l.511-2.847c-.129-.163-.323-.302-.583-.415-.26-.113-.535-.17-.825-.17-.689,0-1.258,.338-1.707,1.013-.449,.675-.768,1.544-.959,2.604-.336,1.959,.036,2.938,1.115,2.938Z"/>
          <path class="cls-4" d="M321.299,232.746c.109-.598,.041-.898-.204-.898-.199,0-.42,.166-.66,.496-.24,.331-.442,.746-.605,1.244-.027,.118-.091,.163-.19,.136-.081-.018-.104-.077-.068-.177,.217-.662,.502-1.194,.855-1.598,.353-.403,.76-.605,1.222-.605,.353,0,.62,.132,.801,.394,.181,.263,.222,.671,.122,1.223l-.748,4.243c-.091,.599-.018,.898,.218,.898,.2,0,.416-.165,.648-.496,.232-.331,.43-.746,.593-1.244,.046-.118,.118-.163,.218-.136,.072,.027,.095,.086,.068,.177-.218,.662-.508,1.195-.87,1.598-.363,.403-.775,.605-1.238,.605-.354,0-.619-.131-.796-.394-.177-.263-.216-.671-.116-1.224l.748-4.243Zm.463-3.182c.036-.236,.145-.433,.326-.592,.181-.158,.376-.238,.585-.238,.199,0,.356,.07,.469,.211,.113,.141,.152,.324,.116,.551-.036,.236-.145,.428-.327,.578s-.381,.224-.598,.224c-.199,0-.354-.068-.462-.204-.109-.136-.145-.313-.109-.53Z"/>
        </g>
      </g>
      <rect class="cls-1" width="372" height="279"/>
    </g>
  </g>
</svg>