<svg width="176" height="19" viewBox="0 0 176 19" fill="none" xmlns="http://www.w3.org/2000/svg">
<g clip-path="url(#clip0_6101_57165)">
<path d="M21.9751 1.94238H20.4913C20.4595 1.94257 20.429 1.95539 20.4065 1.97804C20.384 2.00069 20.3713 2.03137 20.3711 2.0634V17.2583C20.3711 17.2905 20.3837 17.3213 20.4063 17.3441C20.4288 17.3669 20.4594 17.3798 20.4913 17.38H23.0871C23.1191 17.3798 23.1498 17.367 23.1724 17.3442C23.1951 17.3214 23.2079 17.2905 23.208 17.2583V3.18893C23.2088 3.0255 23.1774 2.86354 23.1158 2.71234C23.0542 2.56113 22.9635 2.42366 22.8489 2.30784C22.7343 2.19201 22.5982 2.10009 22.4482 2.03738C22.2983 1.97467 22.1375 1.94238 21.9751 1.94238Z" fill="white"/>
<path d="M99.2369 1.94239H97.753C97.7212 1.94257 97.6907 1.95539 97.6682 1.97804C97.6457 2.0007 97.633 2.03137 97.6328 2.0634V17.2583C97.6328 17.2905 97.6455 17.3213 97.668 17.3441C97.6905 17.3669 97.7211 17.3798 97.753 17.38H100.352C100.384 17.3798 100.414 17.367 100.437 17.3442C100.46 17.3214 100.472 17.2905 100.473 17.2583V3.18894C100.473 3.02527 100.442 2.86307 100.38 2.71168C100.318 2.56029 100.227 2.42272 100.112 2.30685C99.9976 2.19099 99.8611 2.09914 99.7108 2.03659C99.5606 1.97404 99.3995 1.94201 99.2369 1.94239Z" fill="white"/>
<path d="M123.177 1.94238H121.694C121.662 1.94238 121.632 1.95511 121.609 1.97778C121.586 2.00046 121.573 2.03124 121.573 2.0634V17.2583C121.573 17.2905 121.586 17.3214 121.609 17.3442C121.631 17.367 121.662 17.3798 121.694 17.38H124.289C124.321 17.3798 124.352 17.367 124.375 17.3442C124.397 17.3214 124.41 17.2905 124.41 17.2583V3.18893C124.411 3.0255 124.38 2.86354 124.318 2.71234C124.256 2.56113 124.166 2.42366 124.051 2.30784C123.936 2.19201 123.8 2.10009 123.65 2.03738C123.5 1.97467 123.34 1.94238 123.177 1.94238Z" fill="white"/>
<path d="M174.768 1.94238H173.284C173.252 1.94257 173.222 1.95537 173.199 1.978C173.176 2.00063 173.163 2.0313 173.163 2.0634V17.2583C173.163 17.2905 173.176 17.3214 173.199 17.3442C173.221 17.367 173.252 17.3798 173.284 17.38H175.88C175.912 17.3798 175.942 17.3669 175.965 17.3441C175.987 17.3213 176 17.2905 176 17.2583V3.18893C176.001 3.02553 175.97 2.86358 175.908 2.71238C175.846 2.56118 175.756 2.42371 175.641 2.30788C175.527 2.19204 175.391 2.10012 175.241 2.0374C175.091 1.97468 174.93 1.94238 174.768 1.94238Z" fill="white"/>
<path d="M55.0193 1.55045H61.3628C61.8688 1.55045 62.0582 1.30352 62.0582 0.869482V0.120995C62.058 0.0888398 62.0452 0.0580723 62.0225 0.035401C61.9999 0.0127297 61.9692 -5.37182e-07 61.9373 0H46.7811C46.7492 0.000182366 46.7186 0.0129622 46.696 0.0355942C46.6734 0.0582263 46.6605 0.088897 46.6602 0.120995V1.42875C46.6603 1.46097 46.6731 1.49182 46.6958 1.5146C46.7184 1.53738 46.7491 1.55027 46.7811 1.55045H52.8443V17.2547C52.8445 17.2869 52.8572 17.3178 52.8799 17.3406C52.9025 17.3633 52.9332 17.3762 52.9652 17.3764H55.7609C55.7929 17.3762 55.8235 17.3633 55.8462 17.3406C55.8688 17.3178 55.8816 17.2869 55.8818 17.2547V2.86875C55.8786 2.58894 55.7956 2.31593 55.6427 2.08222C55.4898 1.84851 55.2735 1.66393 55.0193 1.55045Z" fill="white"/>
<path d="M9.65004 1.07631C9.23068 0.141396 8.92105 0 8.55622 0H8.05019C8.01456 0.00215772 7.98008 0.013433 7.94999 0.0327604C7.9199 0.0520879 7.89521 0.0788369 7.87826 0.110454L0.0104563 17.266C0.00219315 17.2774 -0.00246024 17.291 -0.00289594 17.3052C-0.00333165 17.3193 0.000460357 17.3332 0.00800344 17.3451C0.0155465 17.3571 0.0264981 17.3664 0.0394005 17.372C0.0523029 17.3776 0.0665722 17.3791 0.0803532 17.3764H1.40831C1.44394 17.3742 1.47843 17.363 1.50851 17.3436C1.5386 17.3243 1.5633 17.2976 1.58025 17.266L4.04745 11.774H9.59481C9.79538 11.7919 9.99609 11.7411 10.1644 11.6299C10.3328 11.5187 10.4589 11.3536 10.5223 11.1612L10.8075 10.5443L13.78 17.2667C13.7966 17.2985 13.8213 17.3253 13.8514 17.3445C13.8816 17.3638 13.9162 17.3748 13.9519 17.3764H16.863C16.8766 17.379 16.8907 17.3774 16.9035 17.3718C16.9163 17.3663 16.9271 17.357 16.9346 17.3452C16.9421 17.3334 16.9459 17.3196 16.9456 17.3056C16.9453 17.2917 16.9409 17.2781 16.9329 17.2667L9.65004 1.07631ZM4.67857 10.3621L7.72381 3.58276L10.7229 10.3621H4.67857Z" fill="white"/>
<path d="M92.0499 1.9422H89.4548C89.4228 1.94219 89.392 1.9549 89.3693 1.97755C89.3465 2.00021 89.3335 2.03099 89.3332 2.06321V8.80667H82.0056V3.17891C82.0056 3.01595 81.9737 2.85457 81.9118 2.70402C81.8498 2.55346 81.759 2.41667 81.6445 2.30144C81.53 2.18621 81.3941 2.09481 81.2445 2.03245C81.0949 1.97009 80.9346 1.93799 80.7727 1.93799H79.2889C79.257 1.93817 79.2265 1.95095 79.2038 1.97358C79.1812 1.99621 79.1683 2.02689 79.168 2.05898V17.2539C79.1682 17.2861 79.181 17.317 79.2036 17.3398C79.2262 17.3626 79.2569 17.3754 79.2889 17.3756H81.8847C81.9167 17.3754 81.9474 17.3626 81.97 17.3398C81.9926 17.317 82.0054 17.2861 82.0056 17.2539V10.1017H89.3332V17.2546C89.3333 17.287 89.3462 17.3179 89.369 17.3407C89.3918 17.3635 89.4226 17.3763 89.4548 17.3763H92.0499C92.0819 17.3761 92.1125 17.3633 92.1352 17.3405C92.1578 17.3177 92.1706 17.2869 92.1708 17.2546V2.05969C92.1695 2.02821 92.1563 1.99843 92.1337 1.97655C92.1112 1.95466 92.0812 1.94235 92.0499 1.9422Z" fill="white"/>
<path d="M69.0247 2.81609C68.7325 2.19423 68.4704 1.94238 68.0567 1.94238H67.6464C67.6106 1.94414 67.576 1.95526 67.5458 1.97463C67.5157 1.994 67.4911 2.02096 67.4744 2.05284L60.5509 17.2668C60.5429 17.2782 60.5384 17.2918 60.5381 17.3058C60.5378 17.3198 60.5416 17.3335 60.5491 17.3453C60.5566 17.3571 60.5675 17.3664 60.5802 17.3719C60.593 17.3775 60.6071 17.3791 60.6208 17.3765H61.809C61.8446 17.3748 61.8792 17.3638 61.9094 17.3446C61.9395 17.3253 61.9642 17.2985 61.9809 17.2668L64.1727 12.3425H69.0736C69.2425 12.3528 69.4101 12.3068 69.5503 12.2115C69.6906 12.1163 69.7957 11.9771 69.8494 11.8156L70.1101 11.2416L72.8848 17.2668C72.9019 17.2983 72.9266 17.3248 72.9567 17.344C72.9868 17.3632 73.0212 17.3744 73.0568 17.3765H75.749C75.7627 17.3791 75.7768 17.3775 75.7896 17.3719C75.8023 17.3664 75.8132 17.3571 75.8207 17.3453C75.8282 17.3335 75.832 17.3198 75.8317 17.3058C75.8314 17.2918 75.8269 17.2782 75.8189 17.2668L69.0247 2.81609ZM64.7444 11.0509L67.3375 5.22549L70.0199 11.0509H64.7444Z" fill="white"/>
<path d="M117.744 1.94238H104.301C104.269 1.94257 104.238 1.95537 104.216 1.978C104.193 2.00063 104.18 2.0313 104.18 2.0634V3.0989C104.18 3.13117 104.192 3.16214 104.215 3.18496C104.238 3.20778 104.269 3.2206 104.301 3.2206H109.597V17.2548C109.597 17.287 109.61 17.3178 109.632 17.3406C109.655 17.3634 109.685 17.3763 109.717 17.3765H112.313C112.345 17.3763 112.376 17.3635 112.398 17.3407C112.421 17.3179 112.434 17.287 112.434 17.2548V4.35882C112.435 4.10097 112.352 3.84993 112.197 3.64429C112.043 3.43866 111.825 3.2898 111.579 3.2206H117.313C117.715 3.2206 117.865 3.02502 117.865 2.67962V2.0634C117.865 2.0313 117.852 2.00063 117.829 1.978C117.807 1.95537 117.776 1.94257 117.744 1.94238Z" fill="white"/>
<path d="M168.083 1.94238H166.895C166.863 1.94257 166.832 1.95537 166.81 1.978C166.787 2.00063 166.774 2.0313 166.774 2.0634V11.6911C166.774 14.8567 165.193 16.4402 162.12 16.4402C158.625 16.4402 157.481 14.4585 157.481 11.715V3.18331C157.481 2.8542 157.352 2.53856 157.12 2.30584C156.889 2.07312 156.576 1.94238 156.249 1.94238H154.765C154.733 1.94257 154.702 1.95539 154.68 1.97804C154.657 2.00069 154.645 2.03137 154.645 2.0634V11.995C154.645 15.5362 157.218 17.7817 161.978 17.7817C165.911 17.7817 168.198 15.6474 168.198 11.9232V2.0634C168.198 2.03225 168.186 2.00237 168.164 1.97989C168.143 1.95741 168.114 1.94399 168.083 1.94238Z" fill="white"/>
<path d="M45.422 18.2995C45.341 18.2995 45.1012 18.3262 44.8958 18.3262C40.986 18.3262 37.3585 12.9686 36.2696 10.2222C38.4132 9.68619 39.6168 8.25252 39.6168 6.28984C39.6168 3.51043 37.492 1.94238 33.7863 1.94238H28.7967C28.7648 1.94257 28.7343 1.95537 28.7116 1.978C28.689 2.00063 28.6761 2.0313 28.6758 2.0634V17.2583C28.676 17.2905 28.6888 17.3214 28.7114 17.3442C28.734 17.367 28.7647 17.3798 28.7967 17.38H31.3925C31.4245 17.3798 31.4552 17.367 31.4778 17.3442C31.5004 17.3214 31.5132 17.2905 31.5134 17.2583V10.6218H33.4145C35.0381 14.5253 38.683 19.0036 43.196 19.0036C44.4282 19.0036 45.5115 18.666 45.5115 18.3832C45.5115 18.3374 45.4863 18.2995 45.422 18.2995ZM33.4005 9.383H31.5134V3.2206H33.4005C35.6427 3.2206 36.5904 4.46012 36.5904 6.28984C36.5904 8.11956 35.8132 9.383 33.3998 9.383H33.4005Z" fill="white"/>
<path d="M149.563 0H148.196C148.164 -5.37182e-07 148.134 0.0127297 148.111 0.035401C148.088 0.0580723 148.075 0.0888398 148.075 0.120995V12.6505L138.094 1.02496C137.497 0.329928 137.103 0 136.385 0H135.643C135.611 0.000182366 135.581 0.0129622 135.558 0.0355942C135.536 0.0582263 135.523 0.088897 135.522 0.120995V17.2547C135.523 17.2869 135.535 17.3178 135.558 17.3406C135.581 17.3633 135.611 17.3762 135.643 17.3764H137.01C137.042 17.3762 137.073 17.3633 137.096 17.3405C137.118 17.3177 137.131 17.2869 137.131 17.2547V4.45647L148.152 17.2842C148.205 17.3391 148.276 17.372 148.352 17.3764H149.571C149.602 17.3751 149.631 17.3616 149.652 17.3388C149.673 17.316 149.684 17.2858 149.683 17.2547V0.120995C149.683 0.088897 149.67 0.0582263 149.648 0.0355942C149.625 0.0129622 149.594 0.000182366 149.563 0Z" fill="white"/>
</g>
<defs>
<clipPath id="clip0_6101_57165">
<rect width="176" height="19" fill="white"/>
</clipPath>
</defs>
</svg>
