<svg width="129" height="84" viewBox="0 0 129 84" fill="none" xmlns="http://www.w3.org/2000/svg">
<path d="M16.7617 71.4175H15.6635C15.6635 71.4175 15.5537 71.4175 15.5537 71.5274V82.4065C15.5537 82.4065 15.5537 82.5164 15.6635 82.5164H17.5304C17.5304 82.5164 17.6402 82.5164 17.6402 82.4065V72.2966C17.6402 71.7471 17.3108 71.4175 16.7617 71.4175Z" fill="#2CCCD4"/>
<path d="M72.6572 71.4175H71.559C71.559 71.4175 71.4492 71.4175 71.4492 71.5274V82.4065C71.4492 82.4065 71.4492 82.5164 71.559 82.5164H73.4259C73.4259 82.5164 73.5357 82.5164 73.5357 82.4065V72.2966C73.5357 71.7471 73.2062 71.4175 72.6572 71.4175Z" fill="#2CCCD4"/>
<path d="M90.0078 71.4175H88.9096C88.9096 71.4175 88.7998 71.4175 88.7998 71.5274V82.4065C88.7998 82.4065 88.7998 82.5164 88.9096 82.5164H90.7765C90.7765 82.5164 90.8863 82.5164 90.8863 82.4065V72.2966C90.8863 71.7471 90.447 71.4175 90.0078 71.4175Z" fill="#2CCCD4"/>
<path d="M127.235 71.4175H126.137C126.137 71.4175 126.027 71.4175 126.027 71.5274V82.4065C126.027 82.4065 126.027 82.5164 126.137 82.5164H128.004C128.004 82.5164 128.114 82.5164 128.114 82.4065V72.2966C128.114 71.7471 127.784 71.4175 127.235 71.4175Z" fill="#2CCCD4"/>
<path d="M40.7009 71.0879H45.3131C45.6426 71.0879 45.8622 70.8681 45.8622 70.6484V70.0989C45.8622 70.0989 45.8622 69.989 45.7524 69.989H34.7709C34.7709 69.989 34.6611 69.989 34.6611 70.0989V71.0879C34.6611 71.0879 34.6611 71.1978 34.7709 71.1978H39.1635V82.5165C39.1635 82.5165 39.1635 82.6264 39.2733 82.6264H41.25C41.25 82.6264 41.3598 82.6264 41.3598 82.5165V72.1868C41.3598 71.6374 41.0304 71.1978 40.7009 71.0879Z" fill="#2CCCD4"/>
<path d="M7.86654 70.7582C7.5371 70.0989 7.31747 69.989 7.09784 69.989H6.7684C6.7684 69.989 6.65859 69.989 6.65859 70.0989L0.948242 82.4066V82.5165H1.93657C1.93657 82.5165 2.04639 82.5165 2.04639 82.4066L3.80341 78.4505H7.86654C8.19599 78.4505 8.41562 78.3407 8.52544 78.011L8.74506 77.5714L10.9414 82.4066L11.0512 82.5165H13.1376C13.1376 82.5165 13.2475 82.5165 13.1376 82.4066L7.86654 70.7582ZM4.24268 77.4615L6.43897 72.6264L8.63526 77.4615H4.24268Z" fill="#2CCCD4"/>
<path d="M67.4963 71.4175H65.6295C65.6295 71.4175 65.5197 71.4175 65.5197 71.5274V76.3625H60.2486V72.2966C60.2486 71.857 59.8093 71.4175 59.3701 71.4175H58.2719C58.2719 71.4175 58.1621 71.4175 58.1621 71.5274V82.4065C58.1621 82.4065 58.1621 82.5164 58.2719 82.5164H60.1388C60.1388 82.5164 60.2486 82.5164 60.2486 82.4065V77.2417H65.5197V82.4065C65.5197 82.4065 65.5197 82.5164 65.6295 82.5164H67.4963C67.4963 82.5164 67.6062 82.5164 67.6062 82.4065L67.4963 71.4175C67.6061 71.4175 67.4963 71.4175 67.4963 71.4175Z" fill="#2CCCD4"/>
<path d="M50.8039 71.9671C50.5843 71.5275 50.3647 71.3077 50.145 71.3077H49.8156C49.8156 71.3077 49.7058 71.3077 49.7058 71.4176L44.6543 82.4066V82.5165H45.5328C45.5328 82.5165 45.6426 82.5165 45.6426 82.4066L47.18 78.8902H50.6941C51.0235 78.8902 51.1334 78.7803 51.2432 78.5605L51.4628 78.1209L53.4395 82.4066L53.5493 82.5165H55.5259C55.5259 82.5165 55.6358 82.5165 55.5259 82.4066L50.8039 71.9671ZM47.7291 77.9011L49.596 73.7253L51.5726 77.9011H47.7291Z" fill="#2CCCD4"/>
<path d="M86.0542 71.4175H76.2807C76.2807 71.4175 76.1709 71.4175 76.1709 71.5274V72.2966C76.1709 72.2966 76.1709 72.4065 76.2807 72.4065H80.1242V82.5164C80.1242 82.5164 80.1242 82.6263 80.234 82.6263H82.1009C82.1009 82.6263 82.2107 82.6263 82.2107 82.5164V73.2856C82.2107 72.846 81.9911 72.6263 81.5518 72.5164H85.7248C86.0542 72.5164 86.164 72.4065 86.164 72.0768L86.0542 71.4175C86.164 71.4175 86.0542 71.4175 86.0542 71.4175Z" fill="#2CCCD4"/>
<path d="M122.402 71.4175H121.634C121.634 71.4175 121.524 71.4175 121.524 71.5274V78.4504C121.524 80.7581 120.426 81.857 118.12 81.857C115.594 81.857 114.715 80.4285 114.715 78.4504V72.2966C114.715 71.857 114.276 71.4175 113.837 71.4175H112.739C112.739 71.4175 112.629 71.4175 112.629 71.5274V78.6702C112.629 81.1977 114.496 82.846 117.9 82.846C120.755 82.846 122.402 81.3076 122.402 78.6702V71.4175C122.512 71.4175 122.512 71.4175 122.402 71.4175Z" fill="#2CCCD4"/>
<path d="M33.7832 83.1757C33.6733 83.1757 33.5635 83.1757 33.4537 83.1757C30.5985 83.1757 27.963 79.3296 27.1943 77.3515C28.7317 76.912 29.6102 75.923 29.6102 74.4944C29.6102 72.5164 28.0728 71.4175 25.4373 71.4175H21.7036C21.7036 71.4175 21.5938 71.4175 21.5938 71.5274V82.4065C21.5938 82.4065 21.5938 82.5164 21.7036 82.5164H23.5704C23.5704 82.5164 23.6802 82.5164 23.6802 82.4065V77.6812H25.1078C26.3158 80.5384 28.9513 83.7252 32.1359 83.7252C33.0145 83.6153 33.7832 83.3955 33.7832 83.1757ZM25.1078 76.6922H23.79V72.2966H25.1078C26.755 72.2966 27.4139 73.1757 27.4139 74.4944C27.4139 75.8131 26.755 76.6922 25.1078 76.6922Z" fill="#2CCCD4"/>
<path d="M109.006 69.989H108.017C108.017 69.989 107.908 69.989 107.908 70.0989V79.1099L100.66 70.7582C100.221 70.2088 99.8911 69.989 99.4519 69.989H98.9028C98.9028 69.989 98.793 69.989 98.793 70.0989V82.4066C98.793 82.4066 98.793 82.5165 98.9028 82.5165H99.8911C99.8911 82.5165 100.001 82.5165 100.001 82.4066V73.1758L108.017 82.4066L108.127 82.5165H109.006C109.006 82.5165 109.116 82.5165 109.116 82.4066L109.006 69.989C109.116 69.989 109.116 69.989 109.006 69.989Z" fill="#2CCCD4"/>
<path d="M94.5099 38.121C93.4117 36.3627 92.643 35.4836 92.2038 35.1539C90.1173 33.3957 88.2505 32.6265 86.6033 31.9671C86.2738 31.8572 85.9443 31.7473 85.2855 31.4177C81.2223 29.6594 78.0377 29.4396 75.9512 29.3298C75.1825 29.3298 74.1942 29.4396 73.6451 29.4396C73.4255 29.4396 73.0961 29.5495 72.7666 29.6594C72.547 29.7693 72.3274 29.8792 71.9979 29.9891C72.2176 29.8792 72.4372 29.6594 72.7666 29.5495C73.2059 29.3298 73.5353 29.2199 73.5353 29.2199C73.5353 29.2199 80.1242 27.5715 86.4934 23.9451C89.8977 22.077 92.643 20.4287 92.4234 18.7803C92.2038 16.9122 88.6897 15.4836 85.7247 15.7034C84.6266 15.8133 83.8579 16.1429 82.9794 16.4726C80.8929 17.3517 80.4536 18.121 77.269 20.5385C74.4139 22.7364 73.755 22.9561 72.3274 24.4946C71.4489 25.4836 70.5703 26.9122 70.3507 27.132C70.1311 27.3517 69.3624 28.0111 69.582 28.3407C69.6918 28.4506 70.0213 28.4506 70.3507 28.7803C70.4605 28.8902 70.6801 29.3298 70.79 29.4396C71.0096 29.6594 71.1194 29.5495 71.2292 29.7693C71.2292 29.8792 71.1194 29.9891 71.2292 30.099C71.339 30.3188 71.339 30.3188 71.339 30.4287C71.339 30.5386 71.339 30.6484 71.2292 30.7583C71.1194 30.8682 70.8998 30.7583 70.5703 30.9781C70.4605 31.088 70.3507 31.1979 70.3507 31.4177C70.3507 31.5276 70.4605 31.7473 70.6802 31.8572C70.6802 31.8572 70.79 31.8572 71.1194 31.9671C71.5587 32.077 71.9979 32.5166 72.1077 32.7364C75.2924 37.4616 87.8112 41.4177 87.8112 41.4177C88.3603 41.6375 93.851 43.066 95.059 41.1979C95.7178 40.3188 94.9491 38.7803 94.5099 38.121Z" fill="#2CCCD4"/>
<path d="M74.6337 35.9231C74.1945 35.044 73.9748 34.7143 73.7552 34.4945C73.4257 34.1649 73.2061 34.055 72.7669 33.7253L72.657 33.6154C72.4374 33.3956 72.4374 33.2858 72.108 32.8462C71.9982 32.6264 71.7785 32.5165 71.6687 32.4066C71.5589 32.2968 71.4491 32.1869 71.3393 32.1869C71.0098 32.077 70.6804 31.9671 70.2411 32.077C69.8019 32.1869 69.6921 32.4066 69.4724 32.2967C69.2528 32.1869 69.2528 32.077 69.0332 31.9671C68.7037 31.7473 68.4841 31.7473 68.1547 31.6374C67.7154 31.5275 67.4958 30.9781 67.386 30.5385C67.2761 30.0989 67.2761 29.6594 67.4958 29.2198C67.6056 29 67.8252 28.7803 67.935 28.6704C68.1547 28.4506 68.4841 28.3407 68.7037 28.3407C68.9234 28.3407 69.0332 28.1209 69.143 28.011C69.2528 27.9011 69.2528 27.7913 69.2528 27.5715C69.2528 27.5715 69.3626 27.3517 69.4724 27.2418C69.6921 27.022 69.8019 27.022 70.1313 26.6924C70.2411 26.5825 70.3509 26.4726 70.4608 26.3627C71.3393 25.4836 72.3276 23.1759 72.3276 23.1759C72.6571 22.4066 73.0963 21.3077 73.6454 19.9891C76.1711 14.3847 77.2693 14.055 77.9281 11.1978C78.2576 9.98906 79.0263 6.58246 77.4889 3.17587C76.9398 1.85719 76.1711 0.978069 75.622 0.428618C75.5122 0.318728 75.4024 0.318726 75.2926 0.318726C75.2926 0.318726 75.073 0.318726 74.7435 0.538507C71.9982 2.8462 69.3626 9.87917 69.3626 9.87917C67.7154 14.2748 67.0565 15.7033 66.178 19C65.7387 20.6484 65.4093 22.5165 65.9584 24.7143C66.2878 25.9231 66.7271 26.9121 66.7271 27.022C66.5074 26.6924 65.5191 24.7143 64.5308 22.5165C63.8719 21.088 63.7621 20.6484 62.9934 18.6704C62.5541 17.5715 62.1149 16.4726 61.1265 14.3847C57.8321 6.80225 56.734 5.37367 55.8554 4.49455C54.7573 3.28576 53.5493 2.07697 52.2316 2.18686C50.3647 2.40664 49.4862 5.044 49.2666 5.48356C49.1568 5.92312 49.0469 6.36268 48.9371 6.80224C48.6077 9.10994 49.596 11.1978 50.0353 12.077C50.1451 12.4066 50.3647 12.6264 50.4745 12.9561C50.9138 13.6154 51.4629 14.3847 52.4512 15.5935C53.769 17.2418 55.9652 19.9891 56.7339 20.8682C56.8438 20.9781 57.1732 21.3077 57.6125 21.9671C57.7223 22.077 57.8321 22.2967 57.9419 22.5165C58.1615 22.9561 58.491 23.3956 58.9302 23.9451C59.3695 24.6044 60.0284 25.2638 60.7971 25.9231C61.7854 26.6924 62.6639 27.1319 63.3228 27.4616C62.5541 27.1319 61.2363 26.6924 59.2597 25.7033C57.283 24.8242 55.0867 23.8352 52.2316 22.4066C48.4979 20.5385 45.5329 18.6704 41.6894 17.4616C41.5796 17.4616 40.0422 16.9121 37.9557 16.9121C36.8575 16.9121 35.7594 16.9121 35.1005 17.3517C34.8809 17.4616 34.6613 17.6814 34.4416 17.9011C33.4533 19.5495 34.9907 21.9671 35.979 23.3956C37.187 25.2638 38.7244 26.8022 40.4814 28.1209C44.4347 30.8682 49.2666 32.1869 53.9886 32.9561C59.2597 33.8352 62.9934 33.1759 62.9934 33.066L64.2013 32.7363C64.2013 32.7363 64.2013 32.9561 63.8719 33.066C63.213 33.2858 63.213 33.2858 62.8836 33.3956C61.8952 33.6154 61.3462 33.8352 59.0401 34.9341C58.1615 35.2638 56.8438 35.8132 55.0867 36.5825C51.2432 38.2308 51.1334 38.3407 49.2666 39.3297C45.7525 41.3077 45.0936 41.9671 44.5445 42.4066C43.0071 43.6154 40.4814 46.6924 40.3716 48.8902C40.3716 49.4396 40.4814 49.5495 40.8108 49.8792C42.2384 51.1978 45.3133 51.088 46.5212 51.088C50.5843 50.8682 52.561 49.7693 54.318 48.7803C56.0751 47.7912 57.7223 46.4726 57.9419 46.2528C58.491 45.8132 58.9302 45.4836 60.3578 44.2748C61.0167 43.6154 62.8836 41.8572 63.5425 41.088C66.3976 38.1209 66.5074 37.5715 66.9467 37.022C66.9467 36.9121 67.0565 36.9121 67.0565 36.8022C67.1663 36.5825 67.386 36.3627 67.8252 35.8132C68.0448 35.4836 68.3743 35.044 68.3743 35.044C68.3743 35.1539 68.3743 35.5934 68.0448 36.033C67.935 36.1429 67.935 36.2528 67.8252 36.3627C67.6056 36.5825 67.3859 37.1319 67.1663 37.5715C66.3976 39.1099 66.5074 40.0989 66.6172 40.5385C67.7154 45.2638 68.4841 52.4066 72.7669 56.9121C74.4141 58.7803 76.2809 59.6594 78.038 59C78.4772 58.7803 79.2459 55.8132 79.3557 51.6374C79.5754 46.033 76.3907 40.8682 74.7435 37.5715C75.073 37.1319 74.8533 36.5825 74.6337 35.9231Z" fill="#2CCCD4"/>
</svg>
