<svg version="1.1" xmlns="http://www.w3.org/2000/svg" style="display: block;" viewBox="0 0 2048 1117" width="1408" height="768" preserveAspectRatio="none">
<path transform="translate(0,0)" fill="rgb(255,255,255)" d="M 0 0 L 2048 0 L 2048 1117 L 0 1117 L 0 0 z"/>
<path transform="translate(0,0)" fill="rgb(2,117,118)" d="M 995.404 158.275 C 1217.32 142.31 1410.11 309.411 1425.82 531.349 C 1441.52 753.287 1274.2 945.876 1052.24 961.329 C 830.65 976.757 638.444 809.766 622.76 588.19 C 607.077 366.613 773.846 174.214 995.404 158.275 z"/>
<path transform="translate(0,0)" fill="rgb(255,255,255)" d="M 999.691 178.202 C 1210.66 164.615 1392.6 324.859 1405.76 535.856 C 1418.92 746.853 1258.31 928.464 1047.28 941.2 C 836.862 953.899 655.881 793.846 642.757 583.45 C 629.633 373.053 789.322 191.75 999.691 178.202 z"/>
<path transform="translate(0,0)" fill="rgb(2,117,118)" d="M 1149.33 512.978 C 1153.61 513.795 1172.53 539.449 1176.24 544.679 C 1209.23 592.077 1225.8 648.962 1223.44 706.66 C 1222.71 724.441 1220.04 739.907 1217.13 757.344 C 1210.27 742.197 1205.17 733.129 1194.36 720.658 C 1189.38 744.556 1183.92 762.492 1170.84 783.666 C 1146.92 822.493 1108.62 850.296 1064.3 861.022 L 1063.23 844 C 1059.22 840.756 1053.68 838.3 1055.53 832.86 C 1060.95 829.155 1084.81 830.956 1093.48 831.004 C 1098.34 835.835 1105.65 839.196 1112.52 836.527 C 1128.36 832.438 1119.63 813.374 1123.36 810.03 C 1141.47 793.787 1154.33 777.009 1165.25 755.148 C 1156.73 759.322 1149.85 761.805 1140.9 764.837 C 1149.42 755.698 1156.81 745.555 1162.88 734.633 C 1168.64 724.045 1181.22 692.651 1178.18 682.403 C 1176.09 680.76 1177.1 681.152 1173.86 681.464 C 1171.17 686.861 1170.81 695.228 1169.12 701.246 C 1165.46 714.303 1160.38 726.531 1153.22 738.006 C 1148.12 746.17 1142.15 753.752 1135.4 760.618 C 1130.19 765.914 1115.52 776.588 1113.28 781.416 L 1114.4 782.096 C 1123.09 780.604 1130.54 774.02 1139.07 772.059 C 1142.58 771.252 1146.08 770.517 1149.61 769.82 C 1139.36 785.798 1130.21 794.318 1116.33 806.615 C 1096.86 800.892 1109.65 800.137 1103.57 789.8 C 1094.12 773.744 1076.98 780.152 1071.6 797.671 C 1062.86 798.493 1056.07 798.806 1047.29 798.946 C 1044.89 797.7 1042.52 796.417 1040.16 795.099 C 1036.61 793.075 1035.96 792.432 1035.01 788.917 C 1036.52 787.332 1037.33 786.457 1039.81 786.11 C 1054.3 784.083 1063.53 783.544 1077.63 778.627 C 1108.1 768.271 1133.16 746.145 1147.2 717.189 C 1162.1 686.235 1163.18 648.005 1151.79 615.761 C 1139.15 624.328 1126.64 630.019 1112.35 635.165 C 1121.12 619.728 1125.65 608.96 1131.27 592.234 C 1136.92 574.92 1138.91 559.854 1140.94 542.023 C 1168.2 570.114 1186.34 611.525 1191.69 650.069 C 1187.35 647.592 1183.01 645.139 1178.65 642.709 C 1174.7 615.09 1164.44 592.506 1148.8 569.771 C 1147.12 577.818 1137.2 605.699 1139.09 609.725 L 1141.09 609.103 C 1147.9 602.788 1149.12 595.35 1151.98 586.354 C 1163.89 603.783 1169.52 627.033 1173.18 647.463 C 1195.63 658.565 1194.38 659.412 1195.04 684.128 C 1196.84 686.95 1199.46 689.788 1201.68 692.349 C 1201.73 687.728 1201.71 683.107 1201.61 678.487 C 1200.08 622.262 1176.56 565.088 1135.51 526.199 C 1131.33 576.287 1124.24 604.7 1096.41 647.077 C 1117.53 641.016 1128.89 637.265 1147.9 626.416 C 1150.01 635.422 1151.33 644.593 1151.85 653.827 C 1155.75 727.181 1105.83 775 1034.38 778.6 C 1034.3 767.453 1034.15 756.307 1033.94 745.162 C 1086.82 745.575 1119.1 712.899 1123.01 660.945 C 1093.02 672.072 1074.17 674.541 1042.74 673.773 C 1043.84 672.91 1044.93 672.019 1045.98 671.102 C 1093.93 630.164 1110.04 584.945 1114.84 524.065 L 1122.92 528.092 C 1131.41 522.984 1140.67 517.909 1149.33 512.978 z"/>
<path transform="translate(0,0)" fill="rgb(2,117,118)" d="M 1084.31 311.268 C 1092.98 311.232 1103.78 311.505 1112.26 311.113 L 1110.55 321.245 L 1109.39 326.87 C 1104.53 356.591 1074.29 385.94 1056.43 409.825 C 1004.08 479.862 948.72 560.434 947.028 650.726 C 940.46 650.788 924.531 651.285 918.837 649.849 C 896.785 621.765 966.762 485.489 990.474 456.486 C 995.058 450.879 1036.97 391.395 1037.03 390.897 C 1033.12 391.411 1029.16 392.602 1026.58 395.782 C 1006.32 420.811 988.135 447.69 970.534 474.534 C 970.532 466.728 970.265 458.406 970.422 450.589 C 970.704 436.548 976.965 444.042 983.748 437.724 C 992.954 422.45 967.993 415.708 966.533 427.063 C 964.371 443.87 965.869 462.733 964.736 479.572 C 964.039 489.922 947.515 511.31 943.582 522.19 C 938.571 532.78 933.014 546.186 927.547 555.986 C 917.31 561.557 895.649 572.946 887.191 579.818 C 886.572 589.271 889.481 627.374 882.078 630.841 C 868.764 622.845 875.144 582.647 879.951 569.908 C 886.446 566.136 899.569 558.939 904.916 554.499 C 906.413 553.257 916.302 533.639 919.358 531.313 C 921.638 529.577 928.111 529.279 932.112 524.782 C 933.769 518.785 930.711 512.43 924.43 510.792 C 911.082 507.314 913.957 523.105 911.333 531.25 C 906.082 547.554 898.104 552.82 884.07 560.583 C 888.275 551.71 901.121 532.645 900.215 524.678 L 897.486 525.255 L 898.379 524.515 C 891.654 530.614 887.015 541.629 882.738 549.508 C 871.456 570.288 867.422 581.749 867.997 605.409 L 855.223 599.363 L 841.085 606.064 C 852.766 562.884 872.042 522.128 898.011 485.705 C 905.722 489.845 914.335 495.118 922 499.554 C 931.977 494.904 941.933 488.124 951.311 482.249 C 951.644 470.507 951.385 460.627 950.958 448.939 L 936.006 439.618 C 951.967 420.269 988.101 382.815 1010.5 373.446 C 1027.77 366.225 1049.05 368.506 1066.54 351.951 C 1078.37 340.757 1083.54 327.431 1084.31 311.268 z"/>
<path transform="translate(0,0)" fill="rgb(2,117,118)" d="M 908.469 683.019 C 910.749 684.113 915.556 705.046 918.525 711.309 C 932.801 741.421 955.783 764.146 986.797 776.694 C 995.915 780.383 1003.98 781.657 1012.82 784.884 C 1014.12 786.975 1013.8 788.002 1013.71 790.595 C 1010.32 794.859 999.968 799.19 994.668 803.968 C 994.729 814.956 994.652 826.189 995.227 837.142 C 991.682 839.572 988.374 842.312 985.025 845.006 L 984.994 857.354 L 976.367 862.441 C 890.989 841.989 844.01 777.578 834.093 692.649 C 839.81 708.488 843.016 710.139 858.272 716.017 C 865.574 749.065 882.047 776.303 905.226 800.508 C 913.793 808.972 954.655 840.823 965.677 835.684 L 966.136 833.022 C 963.597 829.843 962.276 830.107 957.961 828.332 C 958.049 812.751 958.036 797.169 957.92 781.588 C 946.071 770.606 933.028 759.334 922.601 747.12 C 921.181 745.457 924.727 732.732 913.545 732.262 C 910.777 732.167 908.09 733.203 906.103 735.132 C 904.487 736.702 902.82 739.575 903.016 741.982 C 904.092 755.214 915.024 749.87 918.987 753.33 C 929.856 762.818 941.543 774.59 952.008 784.405 L 952.047 825.825 C 948.263 824.068 943.926 821.294 940.287 819.108 C 940.63 809.967 940.19 798.328 940.104 789.001 C 934.468 783.496 928.547 778.579 922.546 773.48 C 923.561 747.735 892.765 762.641 906.882 776.685 C 910.441 780.225 913.472 777.566 916.898 777.938 C 922.398 778.535 930.253 787.986 934.169 791.925 L 934.284 815.12 C 920.481 807.242 900.659 788.4 892.358 774.798 C 893.348 748.617 892.762 718.555 892.826 692.082 C 896.84 689.414 904.07 685.536 908.469 683.019 z"/>
<path transform="translate(0,0)" fill="rgb(2,117,118)" d="M 938.583 288.09 C 945.414 263.624 957.95 244.673 980.574 231.955 C 1001.04 220.345 1025.3 217.403 1047.95 223.785 C 1070.17 229.986 1089.03 244.735 1100.4 264.806 C 1103.66 270.668 1108.44 281.999 1109.22 288.617 L 1110.53 293.98 L 1112.18 304.867 C 1102.97 305.014 1093.59 305.284 1084.41 304.866 C 1082.25 274.409 1059.73 250.464 1029.02 247.87 C 1012.56 246.567 996.253 251.927 983.773 262.75 C 970.764 274.079 964.952 287.915 963.645 304.776 C 958 304.842 939.641 305.856 936.32 303.236 L 937.453 293.976 L 938.583 288.09 z"/>
<path transform="translate(0,0)" fill="rgb(2,117,118)" d="M 918.833 670.739 C 928.989 670.814 939.144 670.835 949.3 670.802 C 958.939 709.055 976.807 729.127 1014.03 741.726 C 1014.05 748.193 1014.61 771.607 1013.7 776.913 C 992.915 772.375 982.085 767.524 964.177 755.726 C 943.315 741.983 909.319 696.081 918.833 670.739 z"/>
<path transform="translate(0,0)" fill="rgb(242,103,92)" d="M 831.515 649.988 C 821.905 640.213 825.004 642.81 811.715 639.84 C 808.821 639.194 806.558 637.665 805.018 635.007 C 803.158 625.41 817.271 615.771 823.097 623.426 C 830.533 633.198 821.949 633.875 834.501 643.848 C 859.883 644.244 866.708 648.094 888.305 634.441 L 910.354 646.539 C 910.613 649.741 910.604 653.965 910.694 657.261 C 911.046 659.271 911.639 661.761 911.426 663.735 C 911.391 665.132 911.209 671.209 910.792 672.008 C 907.889 677.573 894.44 683.438 889.054 686.336 C 865.141 673.926 860.515 676.365 833.373 677.738 C 824.254 687.003 827.948 692.567 824.154 697.174 C 811.618 712.396 791.631 677.991 822.593 680.436 L 831.2 671.339 C 839.857 671.474 859.245 673.26 865.351 669.2 C 866.703 666.284 866.693 667.439 865.78 664.831 C 862.4 663.034 856.768 663.408 852.734 663.356 C 837.311 664.013 820.679 663.814 805.151 663.88 L 804.529 664.55 C 784.438 686.009 775.833 650.197 794.191 649.958 C 798.13 649.906 801.989 654.501 804.317 657.637 L 865.435 657.755 C 866.158 655.269 866.267 653.626 865.311 651.435 C 860.384 648.412 838.938 649.859 831.515 649.988 z"/>
<path transform="translate(0,0)" fill="rgb(242,103,92)" d="M 1020.97 795.802 C 1021.19 786.641 1018.75 748.536 1023.96 744.02 L 1025.88 744.523 C 1027.65 748.197 1027.3 789.166 1027.35 795.645 C 1032.36 798.908 1041.27 803.425 1046.78 806.417 L 1047.21 817.758 L 1047.4 824.042 C 1047.37 827.424 1047.78 831.059 1045.84 833.715 L 1042.78 835.865 C 1047.29 839.659 1052.93 844.126 1056.92 848.318 L 1056.88 862.932 C 1073.8 874.617 1059.99 889.209 1046.86 881.464 C 1044.98 880.361 1043.3 875.594 1043.49 873.501 C 1048.48 859.739 1051.5 866.698 1050.18 850.579 L 1036.95 839.322 C 1034.94 840.255 1032.12 841.673 1030.12 842.436 C 1029.47 843.128 1028.67 843.963 1027.75 844.939 C 1025.89 857.147 1027.26 881.2 1027.22 892.826 C 1032.91 896.918 1036.84 900.612 1034.84 908 C 1024.91 920.525 999.404 907.663 1021.04 892.564 C 1021.1 885.322 1022.3 847.546 1019.83 844.128 L 1020.29 840.254 C 1015.96 839.356 1007.21 839.28 1004.85 837.601 C 1004.5 835.71 1003.96 836.058 1003.29 834.653 C 999.904 827.484 1001.1 814.99 1001.33 807.327 C 1007.6 803.038 1014.33 799.488 1020.97 795.802 z"/>
<path transform="translate(0,0)" fill="rgb(242,103,92)" d="M 1119.18 424.86 C 1115.79 422.261 1111.51 418.721 1111.78 414.246 C 1112.91 395.532 1148.04 406.433 1125.68 425.235 C 1125.66 439.127 1126.04 456.301 1125.22 469.907 C 1128.46 471.924 1132.75 475.008 1136.34 475.626 C 1138.1 476.529 1140.23 477.482 1141.7 478.742 C 1146.13 483.454 1145.19 486.969 1145.19 493.802 C 1145.31 496.479 1145.39 497.9 1145.11 500.6 C 1145.01 504.452 1145.72 506.257 1142.82 508.791 C 1137.13 513.782 1129.72 516.464 1123.18 520.531 C 1115.35 516.711 1100.58 511.48 1099.12 502.613 C 1098.86 500.78 1097.9 499.044 1097.1 497.347 C 1098.47 496.152 1098.61 495.611 1099.4 494.025 L 1098.45 491.845 L 1099.75 486.744 C 1099.48 482.368 1099.19 482.689 1101.94 479.853 C 1100.47 476.036 1093.58 470.645 1090.22 467.651 L 1090.5 454.316 C 1080.26 446.179 1078.34 434.656 1095.25 433.22 C 1101.09 432.969 1105.81 442.052 1103.11 446.228 C 1096.82 455.953 1095.48 453.179 1096.58 465.132 L 1108.89 476.257 C 1113.1 473.113 1114.98 472.374 1119.85 470.237 C 1119.51 455.113 1119.29 439.987 1119.18 424.86 z"/>
<path transform="translate(0,0)" fill="rgb(242,103,92)" d="M 918.114 401.872 C 933.666 401.137 938.459 414.065 925.79 422.874 C 925.463 428.877 925.467 435.294 925.36 441.335 C 931.894 445.1 938.387 448.937 944.837 452.845 C 944.643 461.39 944.818 470.396 944.852 478.98 C 938.007 482.765 931.39 486.952 924.736 491.065 C 921.423 493.135 903.249 481.003 899.25 478.6 L 899.118 452.452 C 906.133 448.72 912.426 445.032 919.249 440.95 L 919.05 422.883 C 908.47 416.371 909.077 409.256 918.114 401.872 z"/>
<path transform="translate(0,0)" fill="rgb(2,117,118)" d="M 935.918 311.109 L 963.63 311.427 C 967.032 351.774 995.021 356.019 996.584 365.376 C 993.396 370.022 981.099 378.048 975.814 383.061 C 956.566 366.664 944.213 352.273 938.057 326.937 L 937.301 321.475 L 935.918 311.109 z"/>
<path transform="translate(0,0)" fill="rgb(228,100,90)" d="M 1021.87 285.405 L 1025.83 284.836 L 1028.67 286.488 L 1032.64 284.998 L 1034.29 286.66 C 1035.21 287.291 1036.63 288.156 1037.33 288.932 L 1039.78 289.747 C 1040.69 291.18 1041.66 292.419 1042.17 293.991 L 1043.8 295.128 L 1045.97 300.071 L 1047.16 304.665 L 1048.48 306.522 L 1047.16 310.04 L 1046.09 312.085 L 1045.25 316.085 L 1048.76 318.604 C 1047.17 319.572 1045.57 320.608 1043.89 321.401 L 1042.28 322.878 C 1041.44 323.84 1040.77 324.728 1039.77 325.506 L 1037.13 326.337 C 1035.57 328.074 1035.12 328.419 1033.25 329.831 L 1032.74 331.095 C 1030.76 331.978 1031.58 331.81 1029.01 330.992 C 1028.12 329.744 1027.76 329.805 1026.3 329.175 L 1021.31 329.198 C 1020.08 329.421 1020.4 329.519 1019.18 330.511 C 1018.45 343.108 1016.1 340.174 1010.4 348.048 C 1009.64 349.096 1015.98 355.366 1011.43 359.508 C 1007.96 359.998 1007.53 359.751 1004.42 358.072 C 997.024 348.214 1015.13 345.015 1014.67 329.597 L 1011.73 327.171 L 1009.77 325.53 C 1007.39 324.839 1007.1 324.112 1005.42 322.112 L 1004.65 320.864 L 1003.09 317.332 L 1001.97 316.69 L 1001.3 312.754 L 1001.82 309.727 L 1000.26 307.34 L 993.713 306.142 C 996.742 306.053 997.952 306.032 1000.98 305.406 L 1000.97 304.02 L 1000.45 299.507 L 1000.9 298.47 L 1002.99 294.816 L 1005.65 293.956 C 1006.69 291.139 1006.08 292.133 1008.66 290.182 L 1011.05 287.717 L 1014.74 285.872 L 1019.04 285.559 L 1021.87 285.405 z"/>
<path transform="translate(0,0)" fill="rgb(255,255,255)" d="M 1023.33 293.484 C 1030.94 293.23 1037.4 299.018 1037.99 306.615 C 1038.57 314.212 1033.07 320.92 1025.5 321.833 C 1020.31 322.459 1015.19 320.186 1012.18 315.913 C 1009.16 311.64 1008.73 306.056 1011.06 301.372 C 1013.39 296.687 1018.1 293.659 1023.33 293.484 z"/>
<path transform="translate(0,0)" fill="rgb(2,117,118)" d="M 923.264 564.865 L 923.858 565.068 C 924.796 567.255 919.333 580.299 918.09 584.052 C 912.546 601.33 909.02 619.192 907.584 637.282 L 899.5 632.901 L 892.564 628.626 C 892.296 613.698 892.677 597.846 892.804 582.849 C 902.085 576.605 913.438 570.425 923.264 564.865 z"/>
<path transform="translate(0,0)" fill="rgb(228,100,90)" d="M 991.578 849.282 L 1004.85 837.601 C 1007.21 839.28 1015.96 839.356 1020.29 840.254 L 1019.83 844.128 L 1011.34 839.545 C 997.917 850.381 989.367 857.736 1009.93 867.936 L 1009.96 885.776 C 1004.84 888.953 999.698 892.079 994.522 895.154 L 979.884 886.029 C 979.569 880.385 979.643 873.996 979.581 868.288 L 991.868 860.939 L 991.578 849.282 z"/>
<path transform="translate(0,0)" fill="rgb(255,255,255)" d="M 993.975 867.075 C 1008.02 871.652 1006.86 880.569 995.051 887.468 C 982.997 881.622 981.273 873.977 993.975 867.075 z"/>
<path transform="translate(0,0)" fill="rgb(228,100,90)" d="M 1151.44 422.562 C 1156.22 425.213 1162.74 428.585 1167.16 431.557 L 1167.69 448.793 L 1155.06 456.966 C 1155.21 470.028 1151.21 470.988 1141.7 478.742 C 1140.23 477.482 1138.1 476.529 1136.34 475.626 C 1150.18 463.154 1155.15 460.176 1136.63 449.322 C 1136.62 443.97 1136.8 437.124 1136.25 431.919 L 1151.44 422.562 z"/>
<path transform="translate(0,0)" fill="rgb(255,255,255)" d="M 1151.3 430.057 L 1161.07 434.999 C 1161.1 445.638 1162.04 445.617 1152.36 450.534 C 1139.04 447.703 1138.96 436.718 1151.3 430.057 z"/>
<path transform="translate(0,0)" fill="rgb(228,100,90)" d="M 1165.09 475.197 C 1170.42 471.879 1175.2 468.853 1180.8 465.971 C 1185.7 468.782 1191.83 472.065 1196.32 475.324 C 1196.46 481.074 1196.76 487.095 1196.31 492.806 C 1191.89 495.55 1185.43 499.81 1181.03 502.155 C 1174.87 498.694 1170.68 496.285 1164.92 492.188 L 1145.11 500.6 C 1145.39 497.9 1145.31 496.479 1145.19 493.802 L 1165.12 485.462 L 1165.09 475.197 z"/>
<path transform="translate(0,0)" fill="rgb(255,255,255)" d="M 1178.67 474.543 C 1183.89 473.449 1188.99 476.816 1190.04 482.039 C 1191.08 487.262 1187.67 492.337 1182.44 493.337 C 1178.71 494.05 1174.91 492.491 1172.75 489.362 C 1170.93 486.721 1170.55 483.344 1171.74 480.365 C 1172.93 477.387 1175.53 475.201 1178.67 474.543 z"/>
<path transform="translate(0,0)" fill="rgb(2,117,118)" d="M 880.265 689.786 C 881.811 690.595 883.891 691.46 885.198 692.594 C 888.301 695.285 886.641 757.604 886.591 766.222 C 884.382 763.032 882.079 758.905 880.065 755.503 C 871.987 741.681 868.543 730.095 864.751 714.712 C 875.809 707.415 875.683 702.641 880.265 689.786 z"/>
<path transform="translate(0,0)" fill="rgb(228,100,90)" d="M 1070.42 496.354 L 1082.79 504.173 L 1097.1 497.347 C 1097.9 499.044 1098.86 500.78 1099.12 502.613 C 1094.71 504.446 1090.04 507.16 1085.81 509.475 L 1085.99 523.228 L 1070.77 532.245 C 1065.26 529.471 1059.91 526.358 1054.55 523.318 L 1054.22 505.893 C 1059.43 502.305 1064.89 499.418 1070.42 496.354 z"/>
<path transform="translate(0,0)" fill="rgb(255,255,255)" d="M 1069.5 503.781 C 1072.32 504.964 1076.74 507.493 1079.59 509.014 C 1078.67 518.896 1080.64 519.02 1071.54 524.188 C 1063.87 524.041 1058.78 518.519 1061.53 511.126 C 1063.23 506.563 1065.44 506.041 1069.5 503.781 z"/>
<path transform="translate(0,0)" fill="rgb(228,100,90)" d="M 907.433 310.799 C 897.876 311.682 897.142 318.669 890.026 317.92 C 870.626 315.879 885.362 281.921 901.549 304.881 C 909.853 304.714 919.209 304.311 927.382 305.047 C 931.154 304.86 934.269 305.495 936.32 303.236 C 939.641 305.856 958 304.842 963.645 304.776 L 963.63 311.427 L 935.918 311.109 C 927.769 310.589 915.877 310.871 907.433 310.799 z"/>
<path transform="translate(0,0)" fill="rgb(242,103,92)" d="M 927.382 305.047 C 931.154 304.86 934.269 305.495 936.32 303.236 C 939.641 305.856 958 304.842 963.645 304.776 L 963.63 311.427 L 935.918 311.109 C 927.769 310.589 915.877 310.871 907.433 310.799 C 913.807 308.875 929.279 310.211 934.62 307.605 C 932.745 305.603 930.556 305.745 927.382 305.047 z"/>
<path transform="translate(0,0)" fill="rgb(255,255,255)" d="M 889.02 303.578 C 890.444 302.891 892.128 303.027 893.424 303.933 C 894.72 304.839 895.425 306.374 895.269 307.947 C 895.113 309.52 894.119 310.887 892.67 311.52 C 890.487 312.475 887.942 311.506 886.947 309.341 C 885.952 307.176 886.874 304.613 889.02 303.578 z"/>
<path transform="translate(0,0)" fill="rgb(228,100,90)" d="M 1146.05 304.729 C 1164.3 282.461 1175.6 314.06 1158.91 318.471 C 1154.9 319.531 1149.32 314.403 1146.68 311.09 C 1137.43 311.024 1120.96 310.399 1112.26 311.113 C 1103.78 311.505 1092.98 311.232 1084.31 311.268 L 1084.41 304.866 C 1093.59 305.284 1102.97 305.014 1112.18 304.867 C 1123.38 304.791 1134.88 304.571 1146.05 304.729 z"/>
<path transform="translate(0,0)" fill="rgb(255,255,255)" d="M 1155.6 303.464 C 1157.74 302.672 1160.13 303.641 1161.12 305.701 C 1162.1 307.761 1161.36 310.233 1159.4 311.403 C 1157.96 312.262 1156.16 312.233 1154.75 311.328 C 1153.34 310.423 1152.56 308.799 1152.74 307.133 C 1152.92 305.467 1154.03 304.046 1155.6 303.464 z"/>
<path transform="translate(0,0)" fill="rgb(242,103,92)" d="M 854.583 606.054 C 858.842 607.429 864.849 611.093 868.92 613.379 L 868.959 630.156 C 864.962 632.9 859.961 635.547 855.683 637.953 C 853.479 637.158 844.178 631.39 841.603 629.857 L 841.787 613.733 L 854.583 606.054 z"/>
<path transform="translate(0,0)" fill="rgb(242,103,92)" d="M 991.025 267.528 C 992.459 265.182 993.196 263.352 995.574 262.114 C 996.676 263.002 996.824 262.825 996.801 263.722 C 996.701 267.473 1012.36 284.108 1014.74 285.872 L 1011.05 287.717 L 1008.66 290.182 C 1006.08 292.133 1006.69 291.139 1005.65 293.956 L 1002.99 294.816 L 1000.9 298.47 C 992.359 292.759 989.766 283.234 979.452 282.243 L 978.282 280.474 C 979.371 277.539 979.922 277.8 982.633 275.679 C 984.435 273.214 984.29 274.19 984.002 271.737 L 987.723 269.374 C 989.673 269.132 989.226 269.033 991.025 267.528 z"/>
<path transform="translate(0,0)" fill="rgb(242,103,92)" d="M 982.633 275.679 C 988.276 280.97 997.452 290.365 1002.99 294.816 L 1000.9 298.47 C 992.359 292.759 989.766 283.234 979.452 282.243 L 978.282 280.474 C 979.371 277.539 979.922 277.8 982.633 275.679 z"/>
<path transform="translate(0,0)" fill="rgb(242,103,92)" d="M 991.025 267.528 C 992.459 265.182 993.196 263.352 995.574 262.114 C 996.676 263.002 996.824 262.825 996.801 263.722 C 996.701 267.473 1012.36 284.108 1014.74 285.872 L 1011.05 287.717 C 1004.93 281.288 997.611 273.237 991.025 267.528 z"/>
<path transform="translate(0,0)" fill="rgb(253,238,238)" d="M 991.025 267.528 C 997.611 273.237 1004.93 281.288 1011.05 287.717 L 1008.66 290.182 C 1001.8 283.773 994.743 276.081 987.723 269.374 C 989.673 269.132 989.226 269.033 991.025 267.528 z"/>
<path transform="translate(0,0)" fill="rgb(253,238,238)" d="M 982.633 275.679 C 984.435 273.214 984.29 274.19 984.002 271.737 C 989.145 276.584 1002.37 288.698 1005.65 293.956 L 1002.99 294.816 C 997.452 290.365 988.276 280.97 982.633 275.679 z"/>
<path transform="translate(0,0)" fill="rgb(228,100,90)" d="M 910.953 282.816 C 910.462 272.259 908.337 273.761 904.475 264.93 C 899.667 253.935 913.935 248.146 922.035 253.733 C 927.535 261.224 918.066 271.075 916.953 277.659 C 916.397 280.951 922.024 285.697 924.562 288.014 L 938.583 288.09 L 937.453 293.976 L 922.378 293.714 L 910.953 282.816 z"/>
<path transform="translate(0,0)" fill="rgb(255,255,255)" d="M 911.596 258.496 C 913.033 257.691 914.803 257.77 916.163 258.699 C 917.523 259.629 918.239 261.249 918.011 262.88 C 917.783 264.512 916.651 265.873 915.088 266.395 C 912.966 267.102 910.653 266.08 909.749 264.034 C 908.844 261.988 909.644 259.59 911.596 258.496 z"/>
<path transform="translate(0,0)" fill="rgb(228,100,90)" d="M 922.891 320.894 C 927.628 320.999 932.549 321.276 937.301 321.475 L 938.057 326.937 L 924.847 327.049 C 907.979 340.455 925.378 344.896 923.559 358.703 C 920.01 365.965 902.972 363.731 903.637 355.838 C 904.661 343.666 910.698 345.722 910.98 331.592 L 922.891 320.894 z"/>
<path transform="translate(0,0)" fill="rgb(255,255,255)" d="M 911.296 349.502 C 913.235 348.132 915.917 348.6 917.278 350.544 C 918.639 352.489 918.16 355.169 916.21 356.522 C 914.271 357.867 911.61 357.392 910.257 355.459 C 908.904 353.526 909.368 350.863 911.296 349.502 z"/>
<path transform="translate(0,0)" fill="rgb(228,100,90)" d="M 1122.36 288.409 C 1125.17 286.105 1132.09 280.937 1131.52 277.707 C 1130.38 271.294 1120.56 260.955 1126.14 253.611 C 1134.22 248.104 1147.31 255.295 1144.57 262.9 C 1140.68 273.708 1137.52 269.508 1136.92 283.092 L 1125.55 293.946 L 1110.53 293.98 L 1109.22 288.617 C 1114.6 288.158 1117.01 288.003 1122.36 288.409 z"/>
<path transform="translate(0,0)" fill="rgb(255,255,255)" d="M 1131.9 258.54 C 1133.25 257.652 1134.97 257.572 1136.39 258.332 C 1137.82 259.093 1138.71 260.57 1138.71 262.183 C 1138.72 263.795 1137.85 265.282 1136.43 266.057 C 1134.37 267.189 1131.78 266.49 1130.56 264.473 C 1129.35 262.455 1129.94 259.838 1131.9 258.54 z"/>
<path transform="translate(0,0)" fill="rgb(242,103,92)" d="M 1085.09 787.886 C 1102.87 786.087 1105.77 804.43 1088.48 808.134 C 1085.19 808.838 1081.42 807.627 1078.27 808.934 C 1076.19 809.8 1074.46 809.881 1072.25 810.092 C 1068.38 810.103 1057.73 810.487 1054.63 809.448 L 1054.26 807.41 C 1059.25 798.888 1078.92 810.027 1079.35 795.85 C 1079.46 792.078 1082.21 790.07 1085.09 787.886 z"/>
<path transform="translate(0,0)" fill="rgb(228,100,90)" d="M 1124.85 320.84 L 1137.25 331.242 C 1136.92 346.802 1144.95 345.713 1144.67 355.696 C 1144.33 368.036 1119.61 365.138 1124.9 350.829 C 1130.28 340.317 1137.89 333.092 1119.95 326.641 C 1121.05 325.038 1123.49 322.409 1124.85 320.84 z"/>
<path transform="translate(0,0)" fill="rgb(255,255,255)" d="M 1134.37 348.524 C 1136.66 348.503 1138.6 350.205 1138.87 352.477 C 1139.15 354.749 1137.68 356.868 1135.45 357.4 C 1133.77 357.801 1132.01 357.204 1130.92 355.863 C 1129.83 354.522 1129.6 352.674 1130.34 351.109 C 1131.07 349.544 1132.64 348.539 1134.37 348.524 z"/>
<path transform="translate(0,0)" fill="rgb(242,103,92)" d="M 856.761 683.735 C 864.433 683.087 871.962 690.524 868.991 698.476 C 866.383 705.458 865.272 705.365 859.05 709.048 C 853.699 707.361 851.407 705.644 846.792 702.631 L 847.094 689.497 C 850.105 687.574 853.651 685.581 856.761 683.735 z"/>
<path transform="translate(0,0)" fill="rgb(242,103,92)" d="M 1005.42 322.112 C 1007.1 324.112 1007.39 324.839 1009.77 325.53 L 1011.73 327.171 L 1014.67 329.597 C 1008.17 338.066 998.772 343.907 997.45 352.408 L 996.051 353.293 C 994.328 352.329 992.579 351.407 990.975 350.258 L 990.435 348.867 L 988.377 348.298 L 985.7 345.22 C 986.11 339.387 1000.35 330.756 1005.42 322.112 z"/>
<path transform="translate(0,0)" fill="rgb(242,103,92)" d="M 1011.73 327.171 L 1014.67 329.597 C 1008.17 338.066 998.772 343.907 997.45 352.408 L 996.051 353.293 C 994.328 352.329 992.579 351.407 990.975 350.258 C 994.524 344.804 1006.49 332.979 1011.73 327.171 z"/>
<path transform="translate(0,0)" fill="rgb(253,238,238)" d="M 988.377 348.298 C 992.606 341.687 1003.32 329.838 1009.77 325.53 L 1011.73 327.171 C 1006.49 332.979 994.524 344.804 990.975 350.258 L 990.435 348.867 L 988.377 348.298 z"/>
<path transform="translate(0,0)" fill="rgb(242,103,92)" d="M 1034.29 286.66 C 1039.18 278.961 1043.02 275.199 1049.16 268.432 C 1050.2 267.289 1049.97 264.749 1051.26 262.517 C 1053.73 262.624 1054.32 263.9 1056.56 265.882 L 1061.47 267.909 C 1061.82 269.158 1062.73 271.252 1062.22 272.007 C 1056.82 280.052 1047.62 285.802 1042.17 293.991 C 1041.66 292.419 1040.69 291.18 1039.78 289.747 L 1037.33 288.932 C 1036.63 288.156 1035.21 287.291 1034.29 286.66 z"/>
<path transform="translate(0,0)" fill="rgb(242,103,92)" d="M 1034.29 286.66 C 1039.18 278.961 1043.02 275.199 1049.16 268.432 C 1050.2 267.289 1049.97 264.749 1051.26 262.517 C 1053.73 262.624 1054.32 263.9 1056.56 265.882 C 1051.24 274.395 1041.45 280.802 1037.33 288.932 C 1036.63 288.156 1035.21 287.291 1034.29 286.66 z"/>
<path transform="translate(0,0)" fill="rgb(253,238,238)" d="M 1056.56 265.882 L 1061.47 267.909 C 1056.03 271.539 1045.7 284.246 1039.78 289.747 L 1037.33 288.932 C 1041.45 280.802 1051.24 274.395 1056.56 265.882 z"/>
<path transform="translate(0,0)" fill="rgb(242,103,92)" d="M 1077.64 478.904 C 1049.59 489.071 1056.89 453.546 1073.93 461.376 C 1077.74 463.127 1079.11 470.066 1079.7 474.147 C 1079.21 475.605 1078.62 477.878 1077.64 478.904 z"/>
<path transform="translate(0,0)" fill="rgb(242,103,92)" d="M 1042.28 322.878 C 1048.1 328.781 1057.28 337.373 1061.94 343.778 L 1061.66 345.497 L 1058.99 346.958 C 1058.31 347.333 1056.75 348.124 1056.2 348.552 C 1054.67 351.183 1054.65 351.624 1052 352.718 L 1050.55 351.675 C 1049.48 342.894 1039.74 338.479 1033.25 329.831 C 1035.12 328.419 1035.57 328.074 1037.13 326.337 L 1039.77 325.506 C 1040.77 324.728 1041.44 323.84 1042.28 322.878 z"/>
<path transform="translate(0,0)" fill="rgb(242,103,92)" d="M 1042.28 322.878 C 1048.1 328.781 1057.28 337.373 1061.94 343.778 L 1061.66 345.497 L 1058.99 346.958 C 1054.34 340.124 1045.7 332.429 1039.77 325.506 C 1040.77 324.728 1041.44 323.84 1042.28 322.878 z"/>
<path transform="translate(0,0)" fill="rgb(253,238,238)" d="M 1037.13 326.337 L 1039.77 325.506 C 1045.7 332.429 1054.34 340.124 1058.99 346.958 C 1058.31 347.333 1056.75 348.124 1056.2 348.552 C 1052.15 344.514 1038.27 330.598 1037.13 326.337 z"/>
<path transform="translate(0,0)" fill="rgb(242,103,92)" d="M 1096.25 818.127 C 1097.61 813.075 1102.49 809.798 1107.68 810.446 C 1112.88 811.095 1116.8 815.469 1116.88 820.701 C 1116.95 825.934 1113.17 830.424 1107.99 831.227 C 1102.82 832.03 1097.85 828.901 1096.34 823.891 C 1095.77 822.016 1095.74 820.019 1096.25 818.127 z"/>
<path transform="translate(0,0)" fill="rgb(228,100,90)" d="M 1047.21 817.758 C 1063.27 817.823 1080.28 817.622 1096.25 818.127 C 1095.74 820.019 1095.77 822.016 1096.34 823.891 L 1047.4 824.042 L 1047.21 817.758 z"/>
<path transform="translate(0,0)" fill="rgb(228,100,90)" d="M 910.694 657.261 C 917.29 657.294 943.114 656.185 947.772 658.622 L 948.413 661.353 C 943.943 666.063 919.018 663.952 911.426 663.735 C 911.639 661.761 911.046 659.271 910.694 657.261 z"/>
<path transform="translate(0,0)" fill="rgb(242,103,92)" d="M 1048.48 306.522 C 1058.26 304.909 1064.69 307.902 1070.3 301.998 C 1072.92 301.273 1073.26 301.43 1075.79 302.479 C 1078.35 305.455 1077.63 304.028 1078.44 307.957 C 1077.21 311.714 1078.11 310.415 1075.06 312.884 C 1071.64 313.841 1069.92 313.022 1066.75 311.248 C 1066.39 311.045 1066.04 310.835 1065.69 310.618 C 1061.43 310.622 1056.99 310.205 1053.32 312.26 C 1050.89 312.873 1048.62 312.376 1046.09 312.085 L 1047.16 310.04 L 1048.48 306.522 z"/>
<path transform="translate(0,0)" fill="rgb(253,238,238)" d="M 1047.16 310.04 C 1050.53 309.978 1063.41 309.341 1065.69 310.618 C 1061.43 310.622 1056.99 310.205 1053.32 312.26 C 1050.89 312.873 1048.62 312.376 1046.09 312.085 L 1047.16 310.04 z"/>
<path transform="translate(0,0)" fill="rgb(242,103,92)" d="M 1028.67 286.488 C 1028.87 271.468 1032.28 278.108 1037.16 267.182 C 1035.43 263 1034.09 260.022 1035.6 255.793 L 1038.01 255.177 C 1041.13 255.848 1041.54 255.947 1044.07 257.854 C 1049.59 268.982 1034.5 270.71 1032.76 284.011 L 1032.64 284.998 L 1028.67 286.488 z"/>
<path transform="translate(0,0)" fill="rgb(242,103,92)" d="M 1046.09 312.085 C 1048.62 312.376 1050.89 312.873 1053.32 312.26 C 1058.12 315.206 1061.82 320.041 1064.98 320.996 C 1068.25 319.799 1071.16 318.183 1074.27 319.135 C 1075.95 321.699 1076.6 325.555 1075.34 328.399 C 1065.2 333.434 1057.64 315.506 1045.25 316.085 L 1046.09 312.085 z"/>
<path transform="translate(0,0)" fill="rgb(242,103,92)" d="M 1021.87 285.405 C 1022.92 267.047 1019.04 267.504 1018.67 255.617 L 1020.41 254.165 C 1023.53 253.698 1024.1 253.421 1027.03 254.268 C 1030.36 259.796 1026.5 267.154 1026 273.027 C 1025.68 276.763 1025.76 281.065 1025.83 284.836 L 1021.87 285.405 z"/>
<path transform="translate(0,0)" fill="rgb(242,103,92)" d="M 983.984 321.578 C 990.974 313.961 990.325 312.719 1001.3 312.754 L 1001.97 316.69 C 986.301 316.897 989.305 329.949 976.367 328.542 C 973.074 326.613 974.108 327.716 972.369 324.428 C 972.907 321.196 972.325 322.388 974.649 319.957 C 977.745 318.789 980.799 320.41 983.984 321.578 z"/>
<path transform="translate(0,0)" fill="rgb(242,103,92)" d="M 1014.74 285.872 L 1014.82 284.939 C 1015.8 272.257 996.133 267.318 1004.54 257.409 C 1008.79 256.051 1007.01 256.136 1011.29 256.963 C 1016.15 262.273 1009.43 264.779 1012.43 269.729 C 1016.92 277.153 1019.07 275.95 1019.04 285.559 L 1014.74 285.872 z"/>
<path transform="translate(0,0)" fill="rgb(242,103,92)" d="M 1021.31 329.198 L 1026.3 329.175 C 1025.55 333.78 1025.43 339.617 1026.01 344.284 C 1026.84 350.95 1031.99 356.527 1026.11 361.739 C 1022.44 361.953 1023.71 362.366 1021.04 360.545 C 1017.82 354.259 1021.64 347.77 1021.98 341.085 C 1022.2 336.672 1021.88 333.569 1021.31 329.198 z"/>
<path transform="translate(0,0)" fill="rgb(242,103,92)" d="M 1029.01 330.992 C 1031.58 331.81 1030.76 331.978 1032.74 331.095 C 1031.79 341.077 1045.55 344.963 1045.85 354.501 C 1045.96 357.915 1039.79 360.579 1036.6 360.374 L 1035.7 359.01 C 1035.15 354.66 1036.13 352.172 1037.29 347.952 C 1034.07 338.956 1028.13 344.912 1029.01 330.992 z"/>
<path transform="translate(0,0)" fill="rgb(242,103,92)" d="M 1045.97 300.071 C 1059.8 299.082 1063.45 283.206 1073.38 287.524 C 1075.37 290.47 1075.39 290.971 1075.62 294.543 L 1074.84 296.24 C 1062.45 299.128 1067.8 289.259 1056.01 302.55 C 1053.44 302.996 1049.28 303.446 1047.16 304.665 L 1045.97 300.071 z"/>
<path transform="translate(0,0)" fill="rgb(242,103,92)" d="M 970.203 306.163 C 971.903 302.521 970.873 303.677 973.957 301.499 C 978.004 301.981 978.928 302.609 981.854 306.219 C 986.92 305.747 988.707 305.579 993.713 306.142 L 1000.26 307.34 L 1001.82 309.727 C 996.436 309.806 973.811 312.596 971.968 312.139 C 969.553 309.386 970.194 310.776 970.203 306.163 z"/>
<path transform="translate(0,0)" fill="rgb(242,103,92)" d="M 1000.97 304.02 C 998.463 303.376 993.66 303.341 991.857 301.762 C 981.499 292.688 984.05 296.197 973.346 296.569 C 970.7 293.295 973.119 288.485 976.001 286.174 C 988.335 287.016 985.797 297.768 1000.45 299.507 L 1000.97 304.02 z"/>
<path transform="translate(0,0)" fill="rgb(242,103,92)" d="M 1003.09 317.332 L 1004.65 320.864 C 996.555 323.949 987.415 339.811 981.142 339.766 C 978.882 337.58 978.329 337.36 977.64 334.452 C 980.616 331.414 981.353 335.388 983.502 333.876 C 990.196 329.167 993.807 322.03 1001.25 318.327 C 1001.86 317.987 1002.48 317.656 1003.09 317.332 z"/>
<path transform="translate(0,0)" fill="rgb(228,100,90)" d="M 1079.7 474.147 C 1086.08 477.459 1094.25 482.072 1099.75 486.744 L 1098.45 491.845 C 1092.77 487.954 1082.37 483.124 1077.64 478.904 C 1078.62 477.878 1079.21 475.605 1079.7 474.147 z"/>
<path transform="translate(0,0)" fill="rgb(242,103,92)" d="M 1043.8 295.128 C 1051.79 290.649 1059.48 278.776 1065.49 276.087 C 1068.44 277.392 1067.59 277.106 1069.76 280.074 L 1069.25 281.444 L 1068.73 281.554 C 1057.45 284.023 1054.9 292.369 1046.19 299.707 C 1046.12 299.828 1046.04 299.95 1045.97 300.071 L 1043.8 295.128 z"/>
<path transform="translate(0,0)" fill="rgb(242,103,92)" d="M 1048.76 318.604 C 1055.53 325.35 1059.87 333.086 1068.39 334.328 L 1069.61 336.128 L 1068.69 338.178 C 1059.74 341.521 1053.12 325.527 1043.89 321.401 C 1045.57 320.608 1047.17 319.572 1048.76 318.604 z"/>
<path transform="translate(0,0)" fill="rgb(2,117,118)" d="M 974.82 426.488 C 976.589 426.288 978.326 427.073 979.343 428.534 C 980.361 429.995 980.496 431.897 979.694 433.487 C 978.892 435.076 977.284 436.099 975.504 436.15 C 972.908 436.224 970.714 434.238 970.531 431.647 C 970.348 429.056 972.239 426.781 974.82 426.488 z"/>
<path transform="translate(0,0)" fill="rgb(242,103,92)" d="M 1110.55 321.245 C 1114.36 321.145 1121.32 321.193 1124.85 320.84 C 1123.49 322.409 1121.05 325.038 1119.95 326.641 C 1117.35 327.255 1112.3 326.94 1109.39 326.87 L 1110.55 321.245 z"/>
<path transform="translate(0,0)" fill="rgb(2,117,118)" d="M 919.433 516.611 C 920.89 515.632 922.764 515.527 924.321 516.336 C 925.878 517.146 926.868 518.741 926.903 520.496 C 926.938 522.25 926.011 523.883 924.488 524.754 C 922.247 526.034 919.396 525.312 918.035 523.119 C 916.674 520.927 917.292 518.051 919.433 516.611 z"/>
<path transform="translate(0,0)" fill="rgb(2,117,118)" d="M 912.095 737.588 C 914.617 737.214 916.966 738.952 917.346 741.473 C 917.726 743.994 915.993 746.347 913.473 746.733 C 910.945 747.121 908.582 745.381 908.2 742.852 C 907.819 740.322 909.564 737.963 912.095 737.588 z"/>
<path transform="translate(0,0)" fill="rgb(2,117,118)" d="M 910.042 765.569 C 911.427 764.483 913.318 764.306 914.88 765.114 C 916.443 765.923 917.39 767.57 917.303 769.327 C 917.215 771.084 916.11 772.629 914.475 773.279 C 912.4 774.105 910.033 773.28 908.92 771.344 C 907.807 769.408 908.285 766.948 910.042 765.569 z"/>
</svg>