<?xml version="1.0" encoding="UTF-8"?> <svg xmlns="http://www.w3.org/2000/svg" id="Layer_1" data-name="Layer 1" viewBox="0 0 696.84 178.84"><title>PBC-footer-logo</title><path d="M.11,162.42H14.75v2.63H3.05v4.35H12.7v2.48H3.05v6.63H.11Z" style="fill:#a69990"></path><path d="M33,162.42H43.73c3.94,0,6.18,1.5,6.18,4.9a4.23,4.23,0,0,1-3.68,4.47l3.85,6.72H46.93l-3.61-6.28H35.84v6.28H33Zm10.69,7.31c2.31,0,3.42-.78,3.42-2.33S46,165,43.64,165h-7.8v4.74Z" style="fill:#a69990"></path><path d="M68.67,162.42H83.61v2.63h-12V169h10v2.5h-10V176h12.3v2.56H68.67Z" style="fill:#a69990"></path><path d="M102.35,162.42h3.26L117,174.56V162.42h2.82v16.09H117L105.18,166v12.52h-2.83Z" style="fill:#a69990"></path><path d="M138.49,170.42c0-5.54,4.22-8.32,9.81-8.32,5.21,0,8.06,2.32,9,5l-2.74.91c-.72-1.87-2.85-3.32-6.3-3.32-4.44,0-6.88,2.22-6.88,5.69s2.24,5.85,6.88,5.85c3.71,0,5.74-1.69,6.48-3.58l2.65.95c-1.15,2.87-4.15,5.2-9.16,5.2C142.27,178.84,138.49,176,138.49,170.42Z" style="fill:#a69990"></path><path d="M175.84,162.42h2.94v6.4h11.46v-6.4h2.93v16.09h-2.93v-7.06H178.78v7.06h-2.94Z" style="fill:#a69990"></path><path d="M233.31,162.42h10c3.5,0,6.39,1.05,6.39,5.07s-3.09,5-6.39,5h-7.11v6h-2.92Zm10.14,7.64c2.45,0,3.41-1,3.41-2.53s-1-2.52-3.41-2.52h-7.22v5.05Z" style="fill:#a69990"></path><path d="M267.15,170.47c0-5.59,4.37-8.37,9.87-8.37s9.87,2.78,9.87,8.37-4.33,8.37-9.87,8.37S267.15,176.06,267.15,170.47Zm16.83,0c0-3.46-2.55-5.74-7-5.74s-7,2.28-7,5.74,2.52,5.8,7,5.8S284,173.93,284,170.47Z" style="fill:#a69990"></path><path d="M305.5,162.42h2.94V176h11.72v2.56H305.5Z" style="fill:#a69990"></path><path d="M341.68,171.62l-8.13-9.2H337l6.19,6.85,6.27-6.85h3.37l-8.2,9.2v6.89h-2.94Z" style="fill:#a69990"></path><path d="M370.71,162.42H374l11.42,12.14V162.42h2.82v16.09h-2.87L373.54,166v12.52h-2.83Z" style="fill:#a69990"></path><path d="M407.61,162.42h14.94v2.63h-12V169h10v2.5h-10V176h12.31v2.56H407.61Z" style="fill:#a69990"></path><path d="M440,174.19l2.72-.66c.56,1.72,2.56,3,6.48,3s5.74-.78,5.74-2.28c0-1.89-2.24-2.09-5.94-2.5-3.87-.42-8.11-1-8.11-4.85,0-3,2.79-4.74,8.05-4.74,5.58,0,7.74,2,8.5,3.8l-2.72,1c-.59-1.37-2.37-2.32-5.8-2.32s-5.16.74-5.16,2.06c0,1.76,2,2,5.5,2.37,4,.48,8.55.94,8.55,4.94,0,2.65-2.11,4.87-8.55,4.87C443.23,178.82,440.79,176.69,440,174.19Z" style="fill:#a69990"></path><path d="M476.65,162.42h2.93v16.09h-2.93Z" style="fill:#a69990"></path><path d="M506.22,162.29h3.26l8.39,16.22h-3.15l-2-3.82h-10l-2,3.82h-2.94Zm5.3,10.05-3.8-7.26-3.79,7.26Z" style="fill:#a69990"></path><path d="M28.59,47V49.7H0V47c8,0,9.34-1.87,9.34-12.06V16.52C9.34,6.32,8,4.6,0,4.6V1.87H25.14c12.64,0,19.39,6,19.39,13.93,0,7.61-6.75,13.93-19.39,13.93H19.25v5.18C19.25,45.1,20.54,47,28.59,47ZM25.14,6.18H19.25v19.1h5.89c6.32,0,9.19-4.45,9.19-9.48S31.46,6.18,25.14,6.18Z" style="fill:#a69990"></path><path d="M65.22,38.93c-2.73,5.74-2.73,8,6.17,8V49.7H48.55V47C55.74,47,57,45.1,60.62,37.2L78.15,0h2.58L98.11,37.2C101.7,45,103.14,47,109.6,47V49.7H81.88V47c8.19,0,9.05-2.3,6.32-8l-2.15-4.74H67.37ZM76.71,14.51,69.53,29.88H83.89Z" style="fill:#a69990"></path><path d="M162.32,49.7a28.66,28.66,0,0,0-1.72-5c-3.73,3.88-9.91,6.9-15.51,6.9-15.09,0-27.3-11.64-27.3-25.86S130,0,145.09,0a21.77,21.77,0,0,1,15.37,6.75,27.17,27.17,0,0,0,1.86-4.88h2.73V21.55h-2.87c-2.3-10.63-8.33-17.1-17.09-17.1-12.93,0-16.38,12.07-16.38,21.26S132.16,47,145.09,47c8.76,0,14.79-6.46,17.09-17.09h2.87V49.7Z" style="fill:#a69990"></path><path d="M180.57,49.7V47c8,0,9.33-1.87,9.33-12.06V16.52c0-10.2-1.29-11.92-9.33-11.92V1.87h28.58V4.6c-8,0-9.33,1.72-9.33,11.92V34.91c0,10.19,1.29,12.06,9.33,12.06V49.7Z" style="fill:#a69990"></path><path d="M251,47V49.7H222.37V47c8,0,9.34-1.87,9.34-12.06V16.52c0-10.2-1.3-11.92-9.34-11.92V1.87h43.81l1.15,13.5h-2.44l-.72-2.73C263,7.9,261.44,6.18,251.1,6.18h-9.48V22.26c11.2,0,12.06-1,12.06-8.47h2.73v21.4h-2.73c0-7.47-.86-8.47-12.06-8.47v8.19C241.62,45.1,242.91,47,251,47Z" style="fill:#a69990"></path><path d="M279.4,49.7V47c8,0,9.34-1.87,9.34-12.06V16.52c0-10.2-1.3-11.92-9.34-11.92V1.87H308V4.6c-8,0-9.33,1.72-9.33,11.92V34.91C298.65,45.1,299.94,47,308,47V49.7Z" style="fill:#a69990"></path><path d="M367.17,49.7a28.55,28.55,0,0,0-1.73-5c-3.73,3.88-9.91,6.9-15.51,6.9-15.08,0-27.29-11.64-27.29-25.86S334.85,0,349.93,0A21.77,21.77,0,0,1,365.3,6.75a27.13,27.13,0,0,0,1.87-4.88h2.73V21.55H367c-2.29-10.63-8.33-17.1-17.09-17.1-12.93,0-16.38,12.07-16.38,21.26S337,47,349.93,47c8.76,0,14.8-6.46,17.09-17.09h2.88V49.7Z" style="fill:#a69990"></path><path d="M0,126.7c8,0,9.34-1.87,9.34-12.07V96.25C9.34,86.05,8,84.32,0,84.32V81.59H25.71c11.49,0,17.38,5.46,17.38,12.5a12.09,12.09,0,0,1-4.31,9c5.46,2.44,8.62,7.18,8.62,12.5,0,7.61-6.75,13.79-19.39,13.79H0ZM25.14,85.9H19.25V102h5.89c5.31,0,7.76-3.73,7.76-7.9S30.45,85.9,25.14,85.9Zm2.73,20.54H19.25V117.5c0,6.33.72,7.47,6.61,7.47h2c6.17,0,9.19-4.3,9.19-9.33S34,106.44,27.87,106.44Z" style="fill:#a69990"></path><path d="M102.56,95.1h-2.29l-.72-2.73c-1.3-4.74-2.88-6.47-13.07-6.47h-7.9V102c11.2,0,12.06-1,12.06-8.47h2.73v21.4H90.64c0-7.47-.86-8.48-12.06-8.48v6.61c0,10.2,1.29,11.92,8.76,11.92h2c10.2,0,11.78-1.72,13.07-6.46l.72-2.59h2.15l-.86,13.51H59.33V126.7c8,0,9.33-1.87,9.33-12.07V96.25c0-10.2-1.29-11.93-9.33-11.93V81.59h42.23Z" style="fill:#a69990"></path><path d="M128.28,118.65c-2.73,5.75-2.73,8,6.17,8v2.73H111.61V126.7c7.19,0,8.48-1.87,12.07-9.77l17.53-37.2h2.58l17.38,37.2c3.59,7.76,5,9.77,11.49,9.77v2.73H144.94V126.7c8.19,0,9.05-2.3,6.32-8l-2.15-4.74H130.43Zm11.49-24.42-7.18,15.37H147Z" style="fill:#a69990"></path><path d="M223.23,129.43a28.55,28.55,0,0,0-1.73-5c-3.73,3.88-9.91,6.89-15.51,6.89-15.08,0-27.29-11.63-27.29-25.85S190.91,79.73,206,79.73a21.77,21.77,0,0,1,15.37,6.75,27,27,0,0,0,1.87-4.89H226v19.68h-2.88c-2.29-10.63-8.33-17.09-17.09-17.09-12.93,0-16.37,12.07-16.37,21.26S193.06,126.7,206,126.7c8.76,0,14.8-6.47,17.09-17.1H226v19.83Z" style="fill:#a69990"></path><path d="M258.57,114.63c0,10.2,1.29,12.07,9.33,12.07v2.73H239.32V126.7c8,0,9.33-1.87,9.33-12.07V96.25c0-10.2-1.29-11.93-9.33-11.93V81.59H267.9v2.73c-8,0-9.33,1.73-9.33,11.93v5.6h25.28v-5.6c0-10.2-1.44-11.93-9.34-11.93V81.59H303v2.73c-8,0-9.33,1.73-9.33,11.93v18.38c0,10.2,1.29,12.07,9.33,12.07v2.73H274.51V126.7c7.9,0,9.34-1.87,9.34-12.07V106.3H258.57Z" style="fill:#a69990"></path><path d="M360,129.43a28.66,28.66,0,0,0-1.72-5c-3.74,3.88-9.91,6.89-15.51,6.89-15.09,0-27.3-11.63-27.3-25.85s12.21-25.71,27.3-25.71a21.78,21.78,0,0,1,15.37,6.75A27,27,0,0,0,360,81.59h2.73v19.68h-2.87c-2.3-10.63-8.33-17.09-17.09-17.09-12.93,0-16.38,12.07-16.38,21.26s3.45,21.26,16.38,21.26c8.76,0,14.79-6.47,17.09-17.1h2.87v19.83Z" style="fill:#a69990"></path><path d="M405.66,131.29c-15.8,0-28.73-11.63-28.73-25.85s12.93-25.71,28.73-25.71,28.73,11.63,28.73,25.71S421.46,131.29,405.66,131.29Zm0-47.11c-13.21,0-17.81,11.92-17.81,21.26s4.6,21.26,17.81,21.26,18-11.78,18-21.26S419,84.18,405.66,84.18Z" style="fill:#a69990"></path><path d="M488.12,129.43V126.7c8,0,9.33-1.87,9.33-12.07v-21l-17.52,37.63h-2.44L460.1,94v20.68c0,10.2,1.3,12.07,9.34,12.07v2.73H446.31V126.7c8.05,0,9.34-1.87,9.34-12.07V96.25c0-10.2-1.29-11.93-9.34-11.93V81.59H464l17.1,36.63,17.09-36.63h17.38v2.73c-8,0-9.34,1.73-9.34,11.93v18.38c0,10.2,1.3,12.07,9.34,12.07v2.73Z" style="fill:#a69990"></path><path d="M526.61,126.7c8,0,9.34-1.87,9.34-12.07V96.25c0-10.2-1.29-11.93-9.34-11.93V81.59h25.72c11.49,0,17.38,5.46,17.38,12.5a12.09,12.09,0,0,1-4.31,9c5.46,2.44,8.62,7.18,8.62,12.5,0,7.61-6.75,13.79-19.4,13.79h-28Zm25.14-40.8h-5.89V102h5.89c5.32,0,7.76-3.73,7.76-7.9S557.07,85.9,551.75,85.9Zm2.73,20.54h-8.62V117.5c0,6.33.72,7.47,6.61,7.47h2c6.18,0,9.19-4.3,9.19-9.33S560.66,106.44,554.48,106.44Z" style="fill:#a69990"></path><path d="M629.18,95.1h-2.3l-.72-2.73c-1.29-4.74-2.87-6.47-13.07-6.47h-7.9V102c11.2,0,12.06-1,12.06-8.47H620v21.4h-2.73c0-7.47-.86-8.48-12.06-8.48v6.61c0,10.2,1.29,11.92,8.76,11.92h2c10.2,0,11.78-1.72,13.07-6.46l.72-2.59h2.16L631,129.43h-45.1V126.7c8,0,9.34-1.87,9.34-12.07V96.25c0-10.2-1.3-11.93-9.34-11.93V81.59h42.23Z" style="fill:#a69990"></path><path d="M662.36,109.46v5.17c0,10.2,1.29,12.07,9.34,12.07v2.73H643.11V126.7c8,0,9.34-1.87,9.34-12.07V96.25c0-10.2-1.29-11.93-9.34-11.93V81.59h25.28c12.65,0,19.4,6,19.4,13.94,0,6.32-4.74,11.92-13.65,13.5l6.61,7.18c5.74,6.32,9.91,9.63,16.09,10.49v2.73H680.75l-16-20Zm5.89-23.56h-5.89V105h5.89c6.46,0,9.34-4.46,9.34-9.48C677.59,90.36,674.71,85.9,668.25,85.9Z" style="fill:#a69990"></path></svg> 