<?xml version="1.0" encoding="utf-8"?>
<!-- Generator: Adobe Illustrator 14.0.0, SVG Export Plug-In  -->
<!DOCTYPE svg PUBLIC "-//W3C//DTD SVG 1.1//EN" "http://www.w3.org/Graphics/SVG/1.1/DTD/svg11.dtd" [
	<!ENTITY ns_flows "http://ns.adobe.com/Flows/1.0/">
]>
<svg version="1.1"
	 xmlns="http://www.w3.org/2000/svg" xmlns:xlink="http://www.w3.org/1999/xlink" xmlns:a="http://ns.adobe.com/AdobeSVGViewerExtensions/3.0/"
	 x="0px" y="0px" width="283px" height="283px" viewBox="0 0 283 283" enable-background="new 0 0 283 283" xml:space="preserve">
<defs>
</defs>
<rect fill="#FFFFFF" width="283.5" height="283.5"/>
<path fill="#FFDD00" d="M144,271.7c58.7-1.2,105.3-49.8,104-108.5c-1.2-58.7-49.8-105.3-108.5-104C80.8,60.4,34.2,109,35.5,167.7
	C36.7,226.4,85.3,273,144,271.7z"/>
<path d="M144,271.7c15.8-0.3,30.7-4.1,44.1-10.6v0c-9.8-14.3-27.1-32-40.9-42.3v-6.1h-9.1v6.1c-13.5,10.1-32.1,28.4-42.1,42.6
	C110.5,268.3,126.8,272.1,144,271.7z"/>
<path d="M141.7,211.3c9.5,0,17.1-7.7,17.1-17.1c0-9.5-7.7-17.1-17.1-17.1c-9.4,0-17.1,7.7-17.1,17.1
	C124.6,203.7,132.3,211.3,141.7,211.3z"/>
<path d="M141.7,152.9c9.5,0,17.1-7.7,17.1-17.1c0-9.5-7.7-17.1-17.1-17.1c-9.5,0-17.1,7.7-17.1,17.1
	C124.6,145.2,132.3,152.9,141.7,152.9z"/>
<path d="M140.2,36.1l-2.9,24.3c-3.6,2.5-12.6,7.8-13.9,15.2l-0.3,3.9c0,8.5,2.1,15,16.7,15.1l3,0c14.6,0,17.6-6.6,17.6-15.1l-0.3-4
	c-1.8-7.6-10.5-12.7-15.2-15.2l-2.9-24.3V11.8h-1.7V36.1z"/>
<path d="M151.1,38.7c1.9-1.3,8.3-8,7.4-8.8c-1.1-1.1-4.7,3.3-6.7,2.7c-1.5-0.4-3.8,0.3-5.4,1.9c-0.8,0.7-2.5-0.5-3.9-0.4l-2.7,0.3
	c-9.4-0.2-11.6,13.8-7.9,15.5c-1.7,2.4-5.1,4.6-4.7,6.1c0.2,0.7,9-6.1,13-5.5c4.9-1,7.3-4.9,8.3-9.8
	C149.5,40.2,150.1,39.5,151.1,38.7z"/>
<path d="M167.1,159.8c-4.4,2-14.6,4.8-25.5,4.8c-11.3,0-21.1-3.4-25.3-5.5v0.2c4.1-2.1,14.2-4.3,25.5-4.3c10.9,0,20.9,2.5,25.2,4.6
	V159.8z"/>
<path d="M150.4,166.3c19,0,17.6,7.4,16.7,24c-0.2,1.5-0.2,3.1-1,4c-1.9-6.9-0.9-18.9-13.8-18.9h-21.1c-12.8,0-11.6,11.8-13.5,18.6
	c-0.8-0.8-0.9-2.5-1.1-3.9c-0.8-14-4-23.8,14.8-23.8H150.4z"/>
<path d="M167.1,112.1c-4.4,2-14.6,4.8-25.5,4.8c-11.3,0-21.1-3.4-25.3-5.5v0.2c4.1-2.1,14.2-4.3,25.5-4.3c10.9,0,20.9,2.5,25.2,4.6
	V112.1z"/>
<path d="M150.4,105.4c19,0,17.5-7.5,16.7-27.6c-0.2-1.5-0.2-3.1-1-4c-0.7,6-0.9,22.5-13.8,22.5h-21.1c-12.8,0-12.5-13-14.4-19.9
	c-0.8,0.8-0.7,3.4-0.7,5.3c0.3,8.1-3.6,23.7,15.3,23.7H150.4z"/>
<path fill="#FFFFFF" stroke="#000000" stroke-linecap="round" stroke-linejoin="round" d="M98.2,139.7L85,138.1l0.3,13
	c0.6,0.4,3.7,4.1,4.6,5.9c1.1-0.2,8,0.6,9.6-0.2c2.2-1.3,11.4-11.4,11.6-16.2l-0.2-9.6l3.3-0.1l-0.3-14.9l-22.5-9.5l0.4,20
	c2.2,0,6.3,1.4,8.3,3.4L98.2,139.7z"/>
<path fill="#FFFFFF" stroke="#000000" stroke-linecap="round" stroke-linejoin="round" d="M91.4,106.4l10.2-0.2
	c5.7,0.2,11.6,6.4,12.3,9.7c-6.3,2.2-5.6,8-3.1,10c-2.6,3.7-7.9,13.4-10.2,15c-5.7,2.8-13.4,1.3-15.6-2.8
	c11.3-0.8,16.6-6.4,16.7-15.1c-0.3-5.6-2.8-10.8-9.3-13.1L91.4,106.4z"/>
<path fill="#FFFFFF" stroke="#000000" stroke-linecap="round" stroke-linejoin="round" d="M177.5,125.2l26.5,25.8l3.3-2.8l0.3,16.1
	c-2,3.7-5.2,9.9-6.1,12.6c-2.8-2.8-11.2-8.2-17.5-10.3c-6.4-2.1-13.9-9.8-13.9-11.3l-0.5-25.4L177.5,125.2z"/>
<path fill="#FFFFFF" stroke="#000000" stroke-linecap="round" stroke-linejoin="round" d="M172.9,123.3c8.1,0.4,12-3,12.4-7l9.6,3.6
	c0,0-0.9,14,0,16.3c1.1,2.5,4.8,11.6,12.5,12.2l-7.1,15.2c-1.5-1.3-8.1-7.1-12.4-8.5c-4.2-1.4-15.5-5-18.1-14.4
	c1.8,0.3,6.5,2.3,9.8,0.8c3.3-1.4,5.5-3.3,5.3-5.8c-0.2-2.6-5-6.4-9.3-6.1c-4.4,0.2-4.4-0.5-6,0.4
	C169.4,128,170.7,124.8,172.9,123.3z"/>
<path fill="#FFFFFF" stroke="#000000" stroke-linecap="round" stroke-linejoin="round" d="M213.8,227.2l0.3,12
	c-8.9,0.3-13-2-19.8-8.5c-2.5-2.4-5.9-2.4-8.8-1.9c0.2-3.5-4.6-19.9-8.6-22.4l-0.3-12.7l16.9,5.4l7.3-5.8l4.6-0.3l0.2,8.8
	L213.8,227.2z"/>
<path fill="#FFFFFF" stroke="#000000" stroke-linecap="round" stroke-linejoin="round" d="M176.7,193.8c6.2,1.4,19,0.2,24.3-3.2
	l4.6,2.6c-5.1,1.5-5.4,6.6,0,8.7c3,1.1,5.7,0,7.6-2l0.6,27.3c-3.2,0.1-7.2,0-11.2-4.4c-5.3-5.8-11.5-7.7-17.2-7.5
	C184.8,207.8,182,196.7,176.7,193.8z"/>
<path fill="#FFFFFF" stroke="#000000" stroke-linecap="round" stroke-linejoin="round" d="M224.9,165.8l0.3,13
	c-4.7-1.4-9.6-3.4-9.7-8.8l-0.3-15.4L224.9,165.8z"/>
<path fill="#FFFFFF" stroke="#000000" stroke-linecap="round" stroke-linejoin="round" d="M215.2,154.6l7.7,2.7l2,8.5
	C220.2,164.4,215.2,164.4,215.2,154.6z"/>
</svg>
