<?xml version="1.0" encoding="UTF-8" standalone="no"?><svg height="181.315" viewBox="0 0 66.145832 47.972927" width="250" xmlns="http://www.w3.org/2000/svg"><g transform="translate(-331.68544 -162.18476)"><path d="m395.29634 208.73709c.0326.009.0731.0144.121.0217.047.009.0986.0144.15361.0224.055.009.1115.0125.17024.0185.0579.004.113.009.1645.009.2195 0 .41582-.0185.5897-.0544.17394-.037.33251-.0957.47741-.176.14416-.0805.28036-.18256.40859-.30717.12814-.12388.2579-.27384.38976-.44988l.0601.0493-.49915 1.10335c-.0623-.009-.12609-.0125-.192-.0164-.0659-.004-.12979-.006-.19202-.006h-2.06325c-.10575 0-.21226.002-.31803.006-.10663.004-.21227.009-.31804.0164v-.0659c.13122-.01.23329-.0312.30717-.0608.0731-.029.12753-.0745.16449-.13698.0361-.0623.0594-.14354.0687-.24412.009-.10063.0125-.22748.0125-.38107v-1.83287c0-.15361-.004-.28038-.0125-.38106-.01-.10063-.0326-.18175-.0687-.24415-.037-.0623-.0934-.108-.17024-.13759-.0768-.029-.18112-.0493-.31296-.0601v-.0659c.12463.004.24269.009.35426.01.1115.004.22675.006.34555.009.11888.001.24488.002.37889.002h.45279c.25574 0 .51147-.001.76794-.004.25573-.004.5158-.009.77877-.0164-.004.0406-.006.0805-.009.121-.002.0399-.002.0782-.002.11525v.21952c0 .0805.004.16161.01.24412.009.0825.0144.1725.0217.27169l-.071.0217c-.0479-.17538-.11087-.3195-.18914-.43105-.0791-.11088-.17023-.19776-.27458-.26009-.10438-.0623-.21877-.10437-.34338-.12609-.12387-.0224-.25574-.0333-.39484-.0333-.25573 0-.51147.01-.76792.0333v1.37138c.0731 0 .14355-.001.21154-.006.0674-.004.1376-.004.21082-.004.25284 0 .4528-.0507.60129-.15074.14786-.10062.23836-.28472.27095-.55204h.0659c0 .13184-.001.2637-.004.39557-.004.13122-.006.26152-.006.38902 0 .13184.002.2637.006.39554.004.13122.004.26299.004.39485h-.0659c-.0326-.15361-.0731-.27893-.12038-.376-.0479-.0962-.10725-.17106-.17825-.22168-.0716-.0514-.16018-.0863-.2666-.10437-.10575-.0185-.23182-.0275-.37816-.0275h-.35136zm-1.66663-2.33181c-.0479-.1175-.10862-.23326-.184-.34848-.0745-.11525-.16161-.21732-.26006-.30715-.0992-.09-.20864-.16223-.32964-.21661-.121-.055-.2521-.0825-.39482-.0825-.20864 0-.37963.0384-.51293.11525-.13327.0768-.20062.21444-.20062.4115 0 .11725.0304.21879.0906.305.0607.0854.14047.16161.24125.22748.10063.0659.21515.12608.34338.18112.12815.055.25862.11088.39195.16736.1341.0565.26441.11813.39264.184.12753.0652.24197.14417.34266.23544.10062.0913.18112.19776.24197.31804.0601.121.0906.26589.0906.43396 0 .17888-.0333.33326-.0993.46366-.0659.12958-.15423.23688-.26588.32094-.1115.084-.24125.14641-.38975.18625-.14786.0406-.30645.0608-.47452.0608-.0911 0-.18625-.009-.28544-.0261-.0986-.0164-.19406-.0355-.28542-.0565-.0913-.021-.17457-.0399-.24923-.0565-.0754-.0164-.13471-.0261-.17887-.0261-.0399 0-.0783.006-.11525.0205-.0361.0125-.0745.0261-.11525.0412-.0326-.20865-.071-.41222-.11438-.61215-.0441-.1992-.0898-.40281-.13759-.61146l.0716-.0384c.0659.12835.14499.26155.23834.40064.0934.13903.19858.26588.31588.38106.11663.11525.24559.21154.38613.28834.14129.0768.29412.11525.45857.11525.10575 0 .20793-.0125.30718-.0355.0985-.0237.18544-.0616.2608-.113.0745-.0507.1341-.11725.17825-.20002.0435-.082.0659-.18318.0659-.30354 0-.17168-.0536-.31514-.15935-.43033-.10575-.11525-.23762-.21517-.39483-.30138-.15793-.0854-.32819-.1651-.51292-.23834-.18481-.0725-.35643-.15504-.51291-.24633-.15792-.0914-.28906-.1992-.39556-.32308-.10575-.12388-.15874-.2811-.15874-.47163 0-.14211.0275-.27166.082-.38831.055-.11725.12896-.21661.2224-.2992.0934-.082.20145-.14479.32383-.18831.12237-.0441.25283-.0659.39195-.0659.13553 0 .25716.01.36512.0275.108.0185.21298.0384.31513.0601.10662.0217.21081.0428.31296.063.10225.0205.21227.0304.3289.0304 0 .16449.002.32456.009.47959.004.15587.0164.31225.0355.46945zm-4.42157 2.50182c.13184-.01.234-.0312.30717-.0601.0731-.0298.12897-.0754.16737-.13759.0384-.0616.0623-.14355.071-.24414.01-.1.0144-.22748.0144-.38107v-1.83286c0-.15362-.004-.28038-.0144-.38107-.009-.10062-.0326-.18173-.071-.24415-.0384-.0623-.0962-.108-.17312-.13697-.0768-.0297-.18051-.0493-.31225-.0607v-.0651c.15362.009.3021.0125.44699.0164.14416.004.29341.006.447.006.121 0 .24124-.002.36221-.006.121-.004.23979-.009.35644-.0164v.0651c-.12815.0125-.2282.0312-.30136.0607-.0731.029-.12835.0745-.16449.13697-.037.0623-.0594.14355-.0688.24415-.01.10063-.0144.22748-.0144.38107v1.83286c0 .1536.004.28109.0144.38107.01.10063.0326.18257.071.24414.0384.0622.0964.108.17313.13759.0768.029.18256.0493.31803.0601v.0659c-.13903-.009-.27748-.0125-.41657-.0164-.13903-.004-.2782-.004-.41729-.004-.13554 0-.26877.001-.40062.004-.13185.004-.26297.01-.39483.0164zm-3.01785-1.5417-.36224.99324c-.01.029-.021.055-.0298.0768-.01.0217-.0144.0456-.0144.071 0 .0659.0185.12238.0573.17024.0384.0479.0854.0869.13983.11812.055.0312.1115.0559.17025.0739.0588.0185.108.0312.14848.0384v.0659c-.11013-.009-.21951-.0125-.32963-.0164-.1095-.004-.22096-.004-.33468-.004-.1095 0-.21664.001-.32097.004-.10425.004-.21442.01-.33178.0164v-.0659c.11375-.0252.20792-.0645.28255-.11812.0754-.0528.13758-.116.18975-.18913.0508-.0731.0958-.15361.1341-.24123.0384-.0876.076-.17887.11237-.27457l.94904-2.33205c.0125-.0252.0217-.0493.0304-.071.009-.0217.0144-.0421.0144-.0601 0-.0185-.006-.0456-.0185-.0825-.0144-.0361-.029-.0696-.047-.0986.0949-.0185.17742-.0421.24705-.0716.0696-.029.14641-.0601.23036-.0934l1.14104 3.13908c.0515.1419.12237.25501.21444.33687.0911.0825.22603.13472.4057.15648v.0659c-.14643-.009-.28979-.0125-.43033-.0164-.14129-.004-.28835-.004-.44194-.004h-.2579c-.0731 0-.13903.00071-.19776.002-.0587.001-.11437.004-.16736.009-.053.004-.11013.009-.1725.01v-.0659c.1536-.0185.28255-.0572.38686-.11812.10438-.0601.15566-.14129.15566-.24415 0-.029-.006-.0579-.0185-.0876-.0125-.029-.0233-.0565-.0304-.082l-.35641-1.00988zm.5926-1.55828-.53755 1.39383h1.03164zm-2.09579.80657c-.0479-.16449-.11087-.31657-.18912-.45495-.079-.13902-.1725-.26009-.27967-.36222-.108-.10288-.23255-.18174-.37381-.23908-.14046-.0565-.29846-.0848-.47452-.0848-.22675 0-.41874.0435-.57594.13123-.1571.0883-.28618.20717-.38685.35715-.10063.14991-.17395.32383-.21951.52087-.0456.19776-.0681.40643-.0681.62593 0 .21952.029.42888.0877.62811.0588.1992.1456.37382.26009.52379.11525.14991.26007.27022.43394.35932.17311.0898.37383.13473.60058.13473.34049 0 .6339-.0862.8802-.25792.24705-.1725.46584-.40642.65563-.70273l.1376.11012c-.12463.18626-.24921.35065-.3731.49409-.12463.1419-.26009.26299-.40643.36149-.1456.0993-.305.17395-.47667.22532-.1725.0514-.36586.0767-.58174.0767-.24561 0-.47744-.0464-.69694-.13985-.21951-.0934-.41147-.22314-.57595-.38976-.16511-.16655-.29557-.36585-.39265-.5984-.0964-.23183-.14497-.48684-.14497-.76504 0-.27817.0485-.53319.14497-.76574.0971-.23182.22748-.43103.39265-.59767.16449-.16654.35644-.2963.57595-.38976.2195-.0935.45133-.13985.69694-.13985.13554 0 .26153.009.37816.0246.11725.0164.22965.0341.33759.0521.108.0185.21226.037.31298.055.10062.0185.20001.029.2992.0326 0 .0767.002.16655.009.26878.006.10287.0144.20792.0246.31586.01.108.0218.21371.0333.31804.01.10437.0217.19488.0326.27166zm-1.79955 3.26441c.0986.055.2101.0825.3347.0825.0361 0 .0739-.002.11238-.009.0384-.006.0739-.0164.10725-.0333.0326-.0164.0594-.0384.0796-.0659.0205-.0275.0297-.063.0297-.10663 0-.074-.0185-.1341-.0542-.18112-.037-.0479-.092-.0716-.1651-.0716-.0326 0-.0674.002-.10437.009-.0361.006-.0696.0164-.0986.0361l-.0716-.0333.23617-.55421h.18688l-.14848.36801c.055-.0144.11375-.0217.176-.0217.11663 0 .22096.0298.31224.0906.092.0601.13759.15567.13759.2876 0 .0949-.0205.17313-.0607.23327-.0399.0601-.0914.1095-.15362.14847-.0623.0376-.13327.0645-.21371.0791-.0805.0144-.15936.0217-.23616.0217-.16819 0-.32893-.0326-.48249-.0986zm-5.83997-4.51538c.12752.009.24921.0125.3644.0164.11587.004.24993.004.40351.004.0805 0 .15935-.001.23617-.004.0767-.004.15505-.01.23619-.0164.047.0659.12526.16592.23544.29921.11012.13327.23545.28614.37599.45784.14047.1725.29125.35498.4528.54915.1608.19345.31586.3825.46581.56723.14991.18483.28834.35717.41439.51583.12608.15935.22603.28977.29921.39266h.01c0-.11012.00072-.21879.002-.32675.001-.108.002-.21661.002-.326v-.6368c0-.234-.009-.43829-.0246-.61217-.0164-.17312-.0499-.31875-.0992-.43538-.0493-.1175-.11887-.2072-.20792-.26951-.0898-.0616-.20793-.0986-.35426-.1095v-.0659c.12815.009.2572.0125.38686.0164.12977.004.25864.004.38686.004.11725 0 .23616-.001.35643-.004.121-.004.2398-.01.35643-.0164v.0659c-.23036.029-.38831.0964-.4738.20001-.0862.10438-.12957.26443-.12957.48031v2.90798h-.2029c-.20145-.31441-.41439-.62015-.63898-.91644-.22457-.29631-.44843-.5774-.6694-.84471-.22168-.26734-.4354-.5151-.64186-.7433-.20719-.22893-.39265-.4325-.5571-.61216-.004.0956-.006.18831-.009.28037-.002.0911-.002.184-.002.27963v.95991c0 .326.006.58245.0185.77081.0125.18831.0441.33325.0934.43324.0493.10062.12237.1688.21953.20351.0971.0348.23109.0608.4035.0789v.0659c-.18687-.009-.36727-.0125-.54333-.0164-.17538-.004-.35644-.006-.54334-.006-.10575 0-.2101.002-.31296.006-.102.004-.20647.009-.31224.0164v-.0659c.12387-.0185.23326-.0355.326-.0521.0934-.0164.17024-.0435.23111-.082.0601-.0384.10575-.0934.13698-.1645.0312-.0716.0485-.17106.0521-.29919l.0659-2.51821c-.11725-.0957-.24487-.17025-.38395-.2253-.13904-.0544-.28182-.10062-.42817-.13697zm-2.93618 2.00268-.36222.99324c-.01.029-.021.055-.0298.0768-.01.0217-.0144.0456-.0144.071 0 .0659.0185.12238.0572.17024.0384.0479.0855.0869.13985.11812.055.0312.1115.0559.17025.0739.0587.0185.108.0312.14848.0384v.0659c-.11013-.009-.21952-.0125-.32963-.0164-.1095-.004-.22096-.004-.33469-.004-.1095 0-.21663.001-.32096.004-.10437.004-.21442.01-.33178.0164v-.0659c.113-.0252.20792-.0645.28255-.11812.0754-.0528.13758-.116.18974-.18913.0507-.0731.0958-.15361.1341-.24123.0384-.0876.076-.17887.11238-.27457l.94904-2.33205c.0125-.0252.021-.0493.0304-.071.009-.0217.0144-.0421.0144-.0601 0-.0185-.006-.0456-.0185-.0825-.0144-.0361-.029-.0696-.047-.0986.0949-.0185.17742-.0421.24705-.0716.0696-.029.14641-.0601.23036-.0934l1.14104 3.13908c.0515.1419.12237.25501.21442.33687.0911.0825.22604.13472.40571.15648v.0659c-.14642-.009-.28978-.0125-.43032-.0164-.14129-.004-.28835-.004-.44194-.004h-.2579c-.0731 0-.13904.00071-.19776.002-.0588.001-.11438.004-.16738.009-.053.004-.11012.009-.1725.01v-.0659c.15362-.0185.28257-.0572.38688-.11812.10437-.0601.15566-.14129.15566-.24415 0-.029-.006-.0579-.0185-.0876-.0125-.029-.0232-.0565-.0304-.082l-.35642-1.00988zm.59261-1.55828-.53755 1.39383h1.03164zm-1.97616 3.1439h-.98743c-.23038-.25212-.44409-.51075-.63898-.77663-.19632-.26514-.3702-.54551-.5245-.84182-.0361 0-.0826-.004-.13985-.01-.0565-.009-.11525-.0164-.17537-.0246-.0608-.01-.11875-.0205-.17538-.0333-.0573-.0125-.1035-.0246-.13985-.0355v.8556c0 .15361.004.28108.0125.38179.01.10062.0333.18174.0716.24415.0384.0622.0958.108.1725.13696.0768.0298.18338.0493.31876.0601v.0659c-.13904-.009-.27819-.0125-.41729-.0164-.13904-.004-.27819-.006-.41729-.006-.13553 0-.26803.003-.3999.006-.13183.004-.2637.009-.39556.0164v-.0659c.13185-.01.23401-.0304.30718-.0601.0731-.029.12978-.0745.16798-.13696.0384-.0623.0616-.14355.071-.24415.009-.10063.0144-.22823.0144-.38179v-1.83216c0-.1536-.004-.28035-.0144-.38106-.01-.10063-.0326-.18257-.071-.24487-.0384-.0616-.0949-.10725-.16798-.13697-.0731-.029-.17538-.0493-.30718-.0601v-.0659c.11725.009.23401.0125.35138.0164.1175.004.234.004.35136.004.0507 0 .11525-.002.19201-.009.0768-.006.15793-.0125.24413-.0205.0855-.009.1725-.0144.26008-.0185.0883-.006.16655-.009.23617-.009.1573 0 .31803.0205.48322.0608.1645.0399.31296.10425.44409.192.13184.0877.2398.1992.32382.33473.084.13552.1261.29629.1261.48249 0 .12813-.0224.24195-.0682.34047-.0464.0986-.10712.18483-.184.25791-.0768.0731-.16736.13328-.27166.18113-.10437.0479-.213.082-.32675.10437.0515.0876.1115.18625.18113.29629.0696.1095.14703.22096.23327.33471.0863.113.17743.22602.27458.33687.0971.1115.1992.21226.30716.30211.108.0898.21806.16449.33181.22529.11375.0601.22819.0958.34555.10662zm-2.78117-1.90967c.16449.0623.33396.0934.51.0934.28545 0 .50639-.0659.66361-.19776.1571-.13123.23616-.34558.23616-.64187 0-.12037-.0233-.22893-.0688-.32601-.0456-.0971-.10862-.18112-.18912-.25282-.0805-.071-.17313-.1261-.27746-.1645-.10375-.0384-.213-.0573-.32602-.0573-.0911 0-.18112.004-.26876.01-.0884.009-.17394.0239-.25791.0492-.009.17537-.0125.3528-.0164.53247-.004.17886-.004.37309-.004.58101zm-3.46199 1.13602c0 .14642.009.26081.0217.34266.0144.0825.045.14786.0906.19489.0456.0479.11237.0847.20002.11012.0882.0252.20719.053.35715.082v.0659c-.1573-.009-.31296-.0125-.46655-.0164-.1536-.004-.30862-.006-.46655-.006-.13554 0-.26949.001-.40281.006-.13409.004-.26803.009-.4035.0164v-.0659c.13184-.01.23472-.0304.31006-.0601.0754-.029.13246-.0745.17313-.13698.0399-.0622.0659-.14354.0768-.24412.01-.10063.0164-.22822.0164-.3818v-1.83214c0-.15361-.004-.2811-.0164-.38106-.01-.10063-.037-.18257-.0768-.24488-.0406-.0616-.0977-.10725-.17313-.13697-.0754-.029-.17825-.0493-.31006-.0601v-.0659c.0514.004.11875.009.20289.01.084.004.17106.006.26081.009.0891.002.17537.002.25789.002h.20001 1.19101c.18626 0 .35135-.002.49335-.009.14273-.006.29268-.01.45063-.0144-.009.0768-.0125.15279-.0164.22748-.004.0754-.006.14928-.006.2224 0 .0949.002.18913.006.28255.004.0934.01.1877.0164.28253h-.0884c-.0579-.20865-.1341-.3702-.22747-.48538-.0934-.11525-.20289-.1992-.32892-.25284-.12671-.0528-.27021-.0849-.43105-.0958-.1608-.01-.33615-.0164-.52668-.0164-.0623 0-.12463.002-.18688.006-.0622.004-.12752.004-.19714.004v1.36054h.43902c.21951 0 .38902-.0456.51002-.13697.121-.0911.21805-.24123.29124-.44988h.0654c-.01.2492-.0164.49771-.0164.74619 0 .13184.00074.25356.002.36512.001.1115.006.23109.0125.35934h-.0652c-.037-.13554-.0754-.24776-.11588-.3376-.0399-.0898-.0883-.16162-.14497-.21661-.0573-.055-.12528-.0949-.20575-.121-.0805-.0252-.17969-.0435-.29631-.0544-.0333-.004-.0681-.006-.10438-.009-.037-.001-.0754-.002-.11525-.002h-.25791zm-5.14102.55972c.0326.009.0731.0144.121.0217.047.009.0986.0144.15361.0224.0544.009.1115.0125.16962.0185.0588.004.11375.009.1651.009.21952 0 .41584-.0185.58972-.0544.17393-.037.33251-.0957.47741-.176.14416-.0805.28035-.18256.40857-.30717.12815-.12388.25792-.27384.38978-.44988l.0601.0493-.49915 1.10335c-.0623-.009-.12608-.0125-.19201-.0164-.0659-.004-.1304-.006-.192-.006h-2.06325c-.10575 0-.21226.002-.31804.006-.10662.004-.21226.009-.31876.0164v-.0659c.13184-.01.234-.0312.3079-.0608.0731-.029.12753-.0745.16449-.13698.0361-.0623.0594-.14354.0681-.24412.01-.10063.0144-.22748.0144-.38107v-1.83287c0-.15361-.004-.28038-.0144-.38106-.009-.10063-.0319-.18175-.0681-.24415-.037-.0623-.0934-.108-.17024-.13759-.0769-.029-.18114-.0493-.31297-.0601v-.0659c.12462.004.2427.009.35426.01.1115.004.22676.006.34556.009.11888.001.24486.002.37889.002h.45207c.25645 0 .51218-.001.76865-.004.25573-.004.5158-.009.77878-.0164-.004.0406-.006.0805-.009.121-.002.0399-.002.0782-.002.11525v.21952c0 .0805.004.16161.01.24412.009.0825.0144.1725.0217.27169l-.071.0217c-.0479-.17538-.11088-.3195-.18914-.43105-.0791-.11088-.17024-.19776-.27457-.26009-.10438-.0623-.21878-.10437-.34267-.12609-.12462-.0224-.25645-.0333-.39556-.0333-.25572 0-.51217.01-.76791.0333v1.37138c.0731 0 .14334-.001.21154-.006.0674-.004.13758-.004.21082-.004.25284 0 .45279-.0507.60129-.15074.14785-.10062.23835-.28472.27095-.55204h.0659c0 .13184-.001.2637-.004.39557-.004.13122-.006.26152-.006.38902 0 .13184.002.2637.006.39554.004.13122.004.26299.004.39485h-.0659c-.0326-.15361-.0731-.27893-.12038-.376-.0479-.0962-.10712-.17106-.17825-.22168-.0716-.0514-.16017-.0863-.26658-.10437-.10575-.0185-.23183-.0275-.37818-.0275h-.35136zm-3.1208.17004c.13183-.01.234-.0312.30716-.0601.0731-.0298.12897-.0754.16737-.1376.0384-.0616.0623-.14353.0716-.24412.009-.1.0144-.2275.0144-.38109v-1.83285c0-.15361-.004-.28037-.0144-.38106-.01-.10063-.0333-.18175-.0716-.24415-.0384-.0622-.0958-.108-.1725-.13698-.0768-.0298-.18112-.0493-.31296-.0607v-.0651c.1536.009.30281.0125.44698.0164.14416.004.29341.006.447.006.121 0 .24195-.002.36221-.006.121-.004.2398-.009.35644-.0164v.0651c-.12753.0125-.22819.0312-.30137.0607-.0731.029-.12835.0745-.16448.13698-.037.0623-.0594.14354-.0688.24415-.01.10062-.0144.22747-.0144.38106v1.83285c0 .15361.004.2811.0144.38109.01.10062.0333.18256.0716.24412.0384.0623.0958.108.1725.1376.0768.029.18318.0493.31804.0601v.0659c-.13903-.009-.27748-.0125-.41658-.0164-.13902-.004-.27818-.004-.41728-.004-.13553 0-.26877.001-.40063.004-.13122.004-.26296.01-.39482.0164zm-.63964-2.50183c-.0479-.1175-.10863-.23327-.184-.34847-.0745-.11525-.16161-.21734-.26006-.30715-.0991-.09-.20864-.16224-.32964-.21661-.12038-.055-.2521-.0826-.39483-.0826-.20863 0-.37962.0384-.51292.11525-.13409.0768-.20063.21444-.20063.41149 0 .11725.0304.21879.0906.305.0607.0854.14129.16162.24197.22747.1.0659.21443.12609.34265.18113.12815.055.25864.11087.39195.16737.1341.0565.26442.11813.39264.184.12815.0653.24198.14417.34266.23544.10063.0911.18113.19776.24127.31804.0608.121.0906.26587.0906.43396 0 .17886-.0326.33325-.0986.46366-.0659.12958-.15423.23688-.26588.32093-.1115.084-.24126.14642-.38975.18626-.14786.0406-.30646.0608-.47452.0608-.0911 0-.18688-.009-.28544-.0261-.0986-.0164-.19408-.0355-.28544-.0565-.0911-.021-.17455-.0399-.24921-.0565-.0754-.0165-.13473-.0261-.17825-.0261-.0406 0-.079.006-.11525.0205-.037.0125-.0754.0261-.11525.0413-.0333-.20864-.0716-.41221-.11588-.61215-.0435-.1992-.0891-.40281-.13697-.61145l.0716-.0384c.0651.12835.14498.26153.23834.40062.0934.13904.19858.26589.31588.38106.11662.11525.24558.21154.38613.28835.14129.0768.29412.11525.45857.11525.10575 0 .20863-.0125.30717-.0355.0986-.0239.18544-.0616.2608-.113.0745-.0507.1341-.11725.17825-.20001.0435-.082.0659-.18317.0659-.30354 0-.17168-.0536-.31515-.15937-.43032-.10575-.11525-.23761-.21518-.39483-.30139-.1571-.0854-.32819-.16511-.5129-.23834-.18483-.0725-.35573-.15505-.51364-.24632-.15731-.0914-.28835-.1992-.39485-.32309-.10575-.12387-.15874-.2811-.15874-.47162 0-.14212.0269-.27168.0819-.38832.055-.11725.12896-.21661.2224-.29921.0934-.082.20146-.14477.32382-.18831.12238-.0441.25284-.0659.39195-.0659.13554 0 .25718.01.36513.0275.108.0185.21297.0384.31512.0601.10663.0217.21083.0428.31296.063.10225.0205.21228.0304.3289.0304 0 .16449.002.32457.009.47959.004.15586.0164.31225.0355.46945zm-5.30665 2.33182c.0326.009.0731.0144.121.0217.047.009.0986.0144.1536.0224.0544.009.1115.0125.16942.0185.0588.004.11375.009.16512.009.2195 0 .41582-.0185.5897-.0544.17393-.037.33251-.0958.47741-.17599.14416-.0805.28036-.18256.40859-.30718.12813-.12387.2579-.27385.38976-.44987l.0601.0493-.49915 1.10334c-.0622-.009-.12608-.0125-.192-.0164-.0659-.004-.13041-.006-.19201-.006h-2.06325c-.10575 0-.21226.002-.31804.006-.10662.004-.21226.009-.31876.0164v-.0659c.13185-.01.23401-.0312.3079-.0608.0731-.029.12753-.0745.16449-.13697.0361-.0623.0594-.14355.0681-.24413.01-.10062.0144-.22747.0144-.38106v-1.83289c0-.1536-.004-.28037-.0144-.38106-.009-.10063-.0319-.18174-.0681-.24415-.037-.0623-.0934-.108-.17024-.13759-.0769-.029-.18112-.0493-.31296-.0601v-.0659c.12462.004.24269.009.35426.01.1115.004.22675.006.34555.009.11888.001.24488.003.37816.003h.4528c.25645 0 .51218-.001.76865-.004.25574-.004.51508-.009.77878-.0164-.004.0406-.006.0805-.009.121-.002.0399-.002.0782-.002.11525v.2195c0 .0805.004.16162.01.24413.009.0825.0144.1725.0217.27169l-.071.0217c-.0479-.17537-.11088-.31949-.18914-.43104-.079-.11087-.17025-.19776-.27459-.26008-.10437-.0622-.21876-.10438-.34266-.12609-.12462-.0224-.25645-.0332-.39556-.0332-.25573 0-.51218.01-.76791.0332v1.37137c.0731 0 .14355-.001.21153-.006.0674-.004.1376-.004.21083-.004.25284 0 .45279-.0508.60057-.15073.14847-.10063.23908-.28473.27167-.55205h.0659c0 .13185-.001.2637-.004.39556-.004.13122-.006.26152-.006.38904 0 .13183.002.2637.006.39553.004.13123.004.26298.004.39484h-.0659c-.0326-.1536-.0731-.27891-.12038-.37599-.0479-.0964-.10725-.17106-.17825-.22168-.0716-.0514-.16019-.0863-.2666-.10425-.10575-.0185-.23182-.0275-.37816-.0275h-.35138zm.99831-4.29603c.0622-.0696.11663-.12526.16223-.16736s.0942-.063.14498-.063c.14992 0 .2253.0587.2253.17537 0 .0405-.0164.0834-.0464.12897-.0312.0456-.0688.0834-.113.11237l-.76794.52668h-.24122zm-6.71752.92165c.12815.009.24995.0125.36512.0164.11525.004.24923.004.40279.004.0805 0 .15936-.001.23619-.004.0768-.004.15586-.01.23618-.0164.047.0659.12609.16593.23544.2992.11013.13328.23544.28615.37599.45785.14046.1725.29196.35498.4528.54915.16079.19344.31657.3825.46652.56724.14992.18482.28763.35715.41368.51581.1267.15936.22604.28979.2992.39266h.01c0-.11012.001-.21878.002-.32673.002-.108.002-.21662.002-.32602v-.63678c0-.23402-.009-.4383-.0246-.61218-.0164-.17311-.0493-.31875-.0993-.43537-.0492-.1175-.11887-.20722-.20792-.26952-.0898-.0616-.20793-.0986-.35426-.1095v-.0659c.12813.009.25718.0125.38685.0164.12978.004.25865.004.38687.004.1175 0 .23616-.001.35643-.004.121-.004.23978-.01.35715-.0164v.0659c-.23037.029-.38903.0964-.47452.20003-.0863.10437-.12897.26441-.12897.48031v2.90796h-.2035c-.20064-.3144-.41368-.62013-.63898-.91642-.22457-.29631-.44772-.5774-.6694-.84473-.22168-.26732-.4354-.5151-.64187-.74328-.20646-.22894-.39264-.4325-.55709-.61218-.004.0958-.006.18831-.009.28038-.002.0911-.002.184-.002.27963v.9599c0 .32602.006.58247.0205.77082.0125.18831.0435.33326.0926.43325.0501.10062.12325.1688.21952.2035.0971.0348.23183.0608.4035.0789v.0659c-.18687-.009-.36727-.0125-.54332-.0164-.17539-.004-.35645-.006-.54334-.006-.10575 0-.2101.002-.31225.006-.10288.004-.20719.009-.31296.0164v-.0659c.12462-.0185.23326-.0355.32672-.0521.0929-.0164.16963-.0435.23039-.082.0601-.0384.10575-.0934.13697-.16449.0312-.0716.0485-.17106.0521-.29919l.0659-2.51822c-.1175-.0956-.24486-.17024-.38395-.22529-.13902-.0544-.28181-.10063-.42815-.13698zm-4.37775 0c.1536.009.30353.0125.44987.0164.14643.004.29631.004.4499.004.14273 0 .28616-.001.43105-.004.14415-.004.28761-.01.43033-.0164v.0659c-.0441.009-.092.0185-.1456.0326-.053.0144-.102.0348-.14787.0607-.0456.0252-.0834.0588-.11237.0986-.0297.0406-.0441.0898-.0441.14786 0 .0405.0205.0934.0579.15935.0384.0659.0942.14847.16737.24702l.7788 1.05337.64765-1.01497c.0949-.1536.14273-.29412.14273-.42235 0-.10662-.0441-.19118-.13184-.25501-.0878-.0645-.18687-.1-.29629-.10725v-.0659c.12814.009.25717.0125.38685.0164.12979.004.25863.004.38685.004.11663 0 .23329-.001.34848-.004.11525-.004.23111-.01.34847-.0164v.0659c-.13183.0255-.24922.0725-.35137.13985-.10288.0681-.19488.14416-.27748.23036-.0819.0863-.15505.17682-.21951.27168-.0636.0949-.12325.18112-.17825.25791l-.75125 1.09755v.80631c0 .13554.01.24415.0326.32675.0224.082.0579.14704.10712.19489.0493.047.11588.082.20003.1035.084.0224.19057.0384.31875.0493v.0659c-.1651-.009-.32744-.0125-.48828-.0164-.16161-.004-.32382-.006-.489-.006-.13471 0-.27022.002-.4057.006-.13554.004-.27095.009-.40569.0164v-.0659c.12038-.01.22169-.0266.30427-.0493.0825-.0217.14785-.0565.19776-.1035.0492-.0479.084-.113.10375-.19489.0205-.0825.0304-.19118.0304-.32675v-.86137l-.99321-1.27286c-.0507-.0659-.10425-.13267-.15874-.20003-.055-.0681-.11662-.13184-.184-.19262-.0681-.0601-.1456-.11525-.23326-.16449-.0878-.0493-.18975-.0869-.30717-.11238zm-.92881.0659c-.17538.0255-.31297.055-.4115.0876-.0986.0332-.17085.074-.21662.12388-.0456.0493-.0739.1115-.0854.18626-.01.0754-.0164.16736-.0164.27747v2.6334c.0986.0185.19488.0348.28763.0493.0934.0144.18769.0217.28252.0217.2159 0 .40425-.0217.56509-.0659.16161-.0435.30571-.1095.43394-.19714.12752-.0876.24558-.19859.35352-.33254.108-.13327.21663-.28978.32675-.46871h.0819l-.42237 1.22868c-.13122-.009-.26442-.0125-.39772-.0164-.13327-.004-.26587-.006-.39772-.006h-1.61337c-.0911 0-.18256.002-.27383.006-.0911.004-.18339.009-.27459.0164v-.0652c.121-.0125.21661-.0298.28835-.055.071-.0252.1267-.0579.16736-.0962.0399-.0384.0668-.0847.0796-.13985.0125-.055.0185-.11888.0185-.19202v-2.17263c0-.15362-.004-.28038-.0144-.38109-.01-.10063-.0319-.18174-.0681-.24413-.037-.0623-.092-.108-.1651-.13758-.0731-.029-.17538-.0493-.30718-.0601v-.0659c.14273.009.28473.0125.42525.0164.14046.004.28255.004.42526.004.1536 0 .30792-.001.46365-.004.15588-.004.31008-.01.46367-.0164zm-6.11435 1.73928c0-.29631.0544-.56145.16162-.79546.108-.234.25355-.4325.43684-.59549.18256-.16306.39774-.28688.64404-.3731.24705-.0854.50931-.12896.78748-.12896.2782 0 .54047.0435.78749.12896.24705.0863.46148.21009.64476.3731.18257.16305.32818.36149.43614.59549.108.23401.16161.49915.16161.79546 0 .2963-.0536.56144-.16161.79545-.108.234-.25357.4325-.43614.59549-.18318.16306-.39771.28689-.64476.3731-.24702.0854-.50929.12896-.78749.12896-.27817 0-.54043-.0435-.78748-.12896-.2463-.0863-.46148-.21007-.64404-.3731-.18319-.16305-.3289-.36149-.43684-.59549-.10725-.23401-.16162-.49915-.16162-.79545m.58173 0c0 .22314.0326.43683.0986.64187.0659.20495.1608.38541.28542.54043.12463.15587.27603.27967.45569.3731.17888.0934.38179.13984.60854.13984.22676 0 .43034-.0464.60927-.13984.17888-.0935.33109-.21733.4557-.3731.12388-.15505.21879-.33541.2847-.54043.0659-.20495.0991-.41873.0991-.64187 0-.22315-.0333-.43683-.0991-.64187-.0659-.20495-.16078-.38541-.2847-.54044-.12462-.15566-.27675-.27965-.4557-.37309-.17886-.0935-.38251-.13985-.60927-.13985-.22675 0-.42959.0464-.60854.13985-.17969.0934-.33107.21733-.45569.37309-.12462.15505-.2195.33541-.28542.54044-.0659.20495-.0986.41872-.0986.64187m-2.38678 1.80512c-.13903-.009-.27674-.0125-.41439-.0164-.13698-.004-.27529-.004-.41439-.004-.13472 0-.2695.001-.4028.004-.13409.004-.27166.01-.41439.0164v-.0659c.13554-.01.24198-.0312.32094-.0601.079-.029.13698-.0754.17538-.1376.0384-.0616.0623-.14354.0716-.2434.009-.10063.0144-.22823.0144-.38182v-1.83287c0-.15361-.004-.28035-.0144-.38106-.01-.10063-.0333-.18174-.0716-.24413-.0384-.0623-.0958-.108-.1725-.13697-.0768-.0298-.18113-.0493-.31297-.0601v-.0659c.121.009.24125.0125.36223.0164.121.004.24124.006.36222.006.17539 0 .34847-.01.51873-.0275.16962-.0185.34265-.0275.51796-.0275.13554 0 .27749.0246.42526.0739.14848.0499.28473.121.4086.21446.12463.0929.22604.20646.305.33976.0782.1341.11813.28471.11813.45279 0 .17537-.0405.32384-.121.44481-.0805.12038-.18175.21806-.30429.29341-.12325.0745-.25934.12897-.40931.16162-.14991.0333-.29629.0493-.4383.0493-.11013 0-.22311-.006-.34048-.0185-.11725-.0125-.2304-.039-.34051-.0796v.82298c0 .15361.004.28108.0144.3818.01.1.0333.18173.0716.24341.0384.0623.0958.10862.1725.13759.0768.029.18113.0493.31296.0601zm-.57088-1.90967c.0884.0479.17888.0796.27168.0964.0934.0164.18768.0246.28255.0246.11375 0 .2224-.0164.32672-.0521.10438-.0348.19489-.084.27166-.14785.0769-.0645.13759-.14355.184-.23909.0456-.0949.0682-.20289.0682-.32382 0-.14273-.0224-.2724-.0682-.38903-.0464-.1175-.1095-.2159-.18975-.29631-.0805-.0805-.17598-.14273-.2876-.18688-.1115-.0435-.23328-.0659-.36512-.0659-.0659 0-.14334.004-.23329.0144-.0898.01-.17681.0319-.2608.0687zm55.29697-6.2819-.36224.99324c-.01.029-.021.0544-.0304.0768-.009.0217-.0125.0456-.0125.071 0 .0659.0185.12325.0572.17025.0384.0479.0849.0869.13985.11813.055.0312.1115.0559.17024.074.0588.0185.108.0312.14847.0384v.0659c-.11012-.009-.22022-.0125-.32962-.0164-.11013-.004-.22168-.004-.33469-.004-.1095 0-.21664.001-.32095.004-.10438.004-.21516.01-.3318.0164v-.0659c.113-.0252.2072-.0645.28255-.11812.0745-.0528.13759-.11588.18914-.18913.0515-.0731.0962-.15361.13471-.24124.0384-.0877.076-.17887.11237-.27456l.94905-2.33205c.01-.0252.021-.0493.0304-.071.009-.0217.0144-.0421.0144-.0601 0-.0185-.006-.0456-.0205-.0825-.0125-.0361-.0284-.0696-.0464-.0986.0949-.0185.17744-.0421.24705-.0716.0696-.029.1456-.0601.23037-.0934l1.14103 3.13836c.0515.14272.12237.25573.21371.33759.092.0825.22676.13471.40643.15648v.0659c-.14642-.009-.28978-.0125-.43107-.0164-.14046-.004-.2876-.004-.44118-.004h-.25864c-.0731 0-.13841.00071-.19714.002-.0587.001-.11437.004-.16736.009-.053.004-.11088.009-.17313.01v-.0659c.15362-.0185.28328-.0572.3876-.11812.10438-.0601.15567-.14129.15567-.24415 0-.029-.006-.0579-.0185-.0877-.0125-.029-.0233-.0565-.0304-.082l-.35642-1.00989zm.5926-1.55828-.53755 1.39383h1.0309zm-3.41104-.37848c-.17537.0252-.31296.055-.41148.0877-.0992.0332-.17108.0739-.21662.12388-.0456.0493-.0739.1115-.0855.18626-.01.0754-.0164.16736-.0164.27747v2.63342c.0986.0185.19406.0348.28762.0493.0934.0144.1877.0217.28253.0217.2159 0 .40425-.0217.56509-.0659.16161-.0435.30571-.1095.43322-.19714.12814-.0877.2463-.19858.35424-.3318.108-.1341.21664-.29051.32675-.46945h.0819l-.42236 1.22868c-.13184-.009-.26441-.0125-.39771-.0164-.13328-.004-.26588-.006-.39774-.006h-1.61264c-.092 0-.18317.002-.27456.006-.092.004-.18339.009-.27459.0164v-.0651c.121-.0125.21662-.0297.28835-.055.071-.0252.1267-.0579.16737-.0962.0399-.0384.0667-.0849.0796-.13985.0125-.055.0185-.11887.0185-.19201v-2.17265c0-.1536-.004-.28037-.0144-.38107-.009-.10063-.0319-.18174-.0687-.24413-.0361-.0623-.0911-.108-.16449-.1376-.0731-.029-.17538-.0493-.30718-.0601v-.0659c.14273.009.28473.0125.42527.0164.14046.004.28255.004.42525.004.15361 0 .30791-.001.46366-.004.15504-.004.31006-.01.46365-.0164zm-5.84883 3.30838c.0326.009.0731.0144.121.0217.047.009.0986.0144.15278.0224.055.009.11238.0144.17024.0185.0587.006.11375.009.16511.009.21877 0 .41583-.0185.5897-.055.17312-.037.33252-.0949.47742-.176.14416-.0805.28036-.18256.40858-.30717.12753-.12388.2579-.27384.38977-.44988l.0601.0493-.49915 1.10335c-.0623-.009-.12609-.0125-.192-.0165-.0659-.004-.1304-.006-.19262-.006h-2.06254c-.10663 0-.21225.002-.31804.006-.10662.004-.21225.01-.31875.0165v-.0659c.13184-.01.234-.0312.30789-.0601.0731-.0298.12752-.0754.16449-.1376.0361-.0623.0587-.14354.0687-.24412.009-.10063.0125-.22748.0125-.38107v-1.83287c0-.15361-.004-.28038-.0125-.38106-.01-.10063-.0326-.18175-.0687-.24415-.037-.0623-.0934-.108-.17024-.13698-.0767-.0297-.18113-.0499-.31296-.0607v-.0659c.12462.004.24268.009.35426.01.1115.004.22675.006.34555.009.11887.001.24487.002.37889.002h.45207c.25574 0 .51219-.002.76865-.006.25574-.004.51509-.009.77879-.0164-.004.0406-.006.0805-.009.121-.002.0405-.002.0789-.002.11525v.21951c0 .0805.004.16162.01.24413.009.0825.0144.17311.0217.27169l-.071.0217c-.0479-.17538-.11088-.31875-.18914-.43033-.079-.1115-.17024-.19857-.27459-.2608-.10425-.0623-.21876-.10437-.34265-.12609-.12462-.0224-.25646-.0333-.39556-.0333-.25574 0-.51219.01-.76791.0333v1.37138c.0731 0 .14334-.001.21081-.004.0681-.004.13841-.006.21154-.006.25284 0 .4528-.0499.60057-.15074.14848-.10062.23908-.28472.27167-.55204h.0659c0 .13184-.002.2637-.004.39555-.004.13185-.006.26153-.006.38975 0 .13123.002.26299.006.39483.002.13184.004.26297.004.39484h-.0659c-.0326-.1536-.0731-.27892-.12038-.37599-.0479-.0962-.10725-.17106-.17886-.22169-.0711-.0514-.16019-.0862-.26588-.10425-.10575-.0185-.23183-.0275-.37817-.0275h-.35136zm-5.42095.17003c.121-.01.21661-.0312.28761-.0601.0716-.0298.1267-.063.1651-.1015.0384-.0384.063-.0796.0739-.12388.01-.0435.0164-.0877.0164-.13183v-2.53417c0-.0811-.004-.15135-.0144-.21153-.01-.0601-.0319-.11238-.0688-.15649-.0361-.0441-.0914-.0782-.16448-.10425-.0731-.0252-.17169-.0435-.29632-.055v-.0651c.0949.009.18975.0125.28543.0164.0949.004.18975.006.28545.006.25572 0 .49335-.0125.71286-.0384.2195-.0252.44408-.0384.67519-.0384.29557 0 .57377.0456.83386.13697.25934.0914.48755.2224.68316.39264.1957.16943.3499.37528.46365.61725.113.24123.17025.51218.17025.81139 0 .30427-.055.5629-.16511.77662-.1095.21443-.25574.38974-.43901.52668-.18256.13759-.39193.23687-.62811.29919-.23544.0623-.48175.0934-.73748.0934-.19776 0-.3673-.00072-.50785-.002-.14046-.002-.26444-.002-.3702-.002-.10662 0-.20146-.00071-.28545-.002-.084-.001-.16449-.002-.24124-.002-.12462 0-.24703.001-.36801.004-.12037.004-.2427.01-.3673.0164zm1.03668-.3731c.1175.11013.25213.18627.40353.23038.15135.0441.30429.0659.45787.0659.56363 0 .97367-.14416 1.23229-.43323.25791-.28905.38614-.70779.38614-1.25692 0-.23763-.0428-.45932-.12815-.66651-.0863-.20646-.20495-.38685-.35715-.54044-.15135-.15361-.33253-.27458-.54263-.36223-.21081-.0877-.43972-.13123-.68895-.13123-.25645 0-.49915.0507-.72953.15361-.0144.18975-.0239.37892-.0275.56727-.004.18913-.006.38177-.006.57956zm-5.11884.20289c.0326.009.0731.0144.121.0217.047.009.0985.0144.1536.0224.055.009.1115.0144.17025.0185.0579.006.113.009.16448.009.2195 0 .41583-.0185.5897-.055.17394-.037.33253-.0949.47743-.17599.14415-.0805.28035-.18256.40857-.30718.12814-.12387.25792-.27383.38978-.44987l.0601.0493-.49913 1.10335c-.0622-.009-.12609-.0125-.19202-.0164-.0659-.004-.12978-.006-.19201-.006h-2.06325c-.10575 0-.21225.002-.31804.006-.10662.004-.21225.01-.31803.0164v-.0659c.13122-.01.23328-.0312.30717-.0601.0731-.0298.12753-.0754.16449-.13759.0361-.0622.0594-.14354.0687-.24412.009-.10063.0125-.22748.0125-.38107v-1.83287c0-.15361-.004-.28038-.0125-.38106-.01-.10063-.0326-.18175-.0687-.24415-.037-.0623-.0935-.108-.17024-.13698-.0768-.0298-.18112-.0499-.31296-.0607v-.0659c.12462.004.24269.009.35426.01.1115.004.22675.006.34555.009.11888.001.24488.002.37889.002h.4528c.25572 0 .51146-.002.76792-.006.25574-.004.5158-.009.77879-.0164-.004.0406-.006.0805-.009.121-.002.0405-.002.0789-.002.11525v.2195c0 .0805.004.16163.01.24414.009.0825.0144.17311.0217.27169l-.071.0217c-.0479-.17538-.11087-.31875-.18914-.43033-.0791-.1115-.17023-.19857-.27458-.2608-.10438-.0623-.21877-.10437-.34338-.12609-.12387-.0224-.25574-.0333-.39484-.0333-.25573 0-.51146.01-.76791.0333v1.37138c.0731 0 .14334-.001.21154-.004.0674-.004.13759-.006.21081-.006.25284 0 .4528-.0499.60129-.15074.14786-.10062.23836-.28472.27095-.55204h.0659c0 .13184-.001.2637-.004.39555-.004.13184-.006.26153-.006.38975 0 .13123.002.26299.006.39483s.004.26297.004.39484h-.0659c-.0326-.1536-.0731-.27892-.12038-.37599-.0479-.0962-.10725-.17106-.17825-.22169-.0716-.0514-.16017-.0863-.2666-.10425-.10575-.0185-.23182-.0275-.37816-.0275h-.35136zm-3.66047 0c.0326.009.0731.0144.121.0217.047.009.0986.0144.15279.0224.055.009.11238.0144.17024.0185.0587.006.11375.009.16511.009.21876 0 .41583-.0185.5897-.055.17311-.037.33251-.0949.47741-.17599.14417-.0805.28037-.18256.40859-.30718.12753-.12387.2579-.27383.38976-.44987l.0601.0493-.49915 1.10335c-.0623-.009-.12609-.0125-.192-.0164-.0659-.004-.13041-.006-.19263-.006h-2.06253c-.10663 0-.21227.002-.31804.006-.10663.004-.21226.01-.31875.0164v-.0659c.13184-.01.234-.0312.30789-.0601.0731-.0298.12752-.0754.16448-.13759.0361-.0622.0588-.14354.0688-.24412.009-.10063.0125-.22748.0125-.38107v-1.83287c0-.15361-.004-.28038-.0125-.38106-.01-.10063-.0326-.18175-.0688-.24415-.037-.0623-.0934-.108-.17023-.13698-.0768-.0298-.18113-.0499-.31297-.0607v-.0659c.12463.004.24269.009.35427.01.1115.004.22675.006.34555.009.11887.001.24487.002.37888.002h.45208c.25574 0 .51219-.002.76865-.006.25574-.004.51509-.009.77879-.0164-.004.0406-.006.0805-.009.121-.002.0405-.002.0789-.002.11525v.2195c0 .0805.004.16163.01.24414.009.0825.0144.17311.0217.27169l-.071.0217c-.0479-.17538-.11088-.31875-.18914-.43033-.0791-.1115-.17024-.19857-.27459-.2608-.10437-.0623-.21876-.10437-.34266-.12609-.12463-.0224-.25645-.0333-.39555-.0333-.25574 0-.51219.01-.76793.0333v1.37138c.0731 0 .14335-.001.21083-.004.0681-.004.13841-.006.21154-.006.25283 0 .4528-.0499.60057-.15074.14848-.10062.23908-.28472.27166-.55204h.0659c0 .13184-.002.2637-.004.39555-.004.13184-.006.26153-.006.38975 0 .13123.002.26299.006.39483.002.13184.004.26297.004.39484h-.0659c-.0326-.1536-.0731-.27892-.12037-.37599-.0479-.0962-.10725-.17106-.17886-.22169-.071-.0514-.16019-.0863-.26588-.10425-.10575-.0185-.23184-.0275-.37817-.0275h-.35137zm.99832-4.29601c.0623-.0696.11662-.12528.16222-.16738s.0943-.063.1456-.063c.1493 0 .22459.0588.22459.17538 0 .0405-.0164.0834-.047.12896-.0312.0456-.0681.0834-.11238.113l-.76793.52668h-.24123zm-3.7659.98764c-.17538.0252-.31297.055-.41149.0876-.0986.0333-.17106.074-.21661.12388-.0456.0493-.0739.1115-.0854.18626-.01.0754-.0164.16736-.0164.27747v2.6334c.0986.0185.19488.0348.28762.0493.0934.0144.1877.0217.28254.0217.21589 0 .40424-.0217.56507-.0659.16163-.0435.30573-.1095.43395-.19714.12753-.0877.24559-.19859.35353-.3318.108-.1341.21662-.29052.32674-.46945h.082l-.42237 1.22868c-.13121-.009-.26441-.0125-.39771-.0164-.13327-.004-.26587-.006-.39774-.006h-1.61335c-.0911 0-.18256.002-.27385.006-.0911.004-.18337.009-.27457.0164v-.0651c.121-.0125.21661-.0298.28834-.055.071-.0252.12671-.0579.16736-.0964.0399-.0384.0668-.0847.0797-.13984.0125-.055.0185-.11888.0185-.19201v-2.17265c0-.1536-.004-.28038-.0144-.38108-.01-.10062-.0319-.18175-.0681-.24414-.037-.0623-.092-.108-.16511-.13758-.0731-.029-.17538-.0493-.30718-.0601v-.0659c.14273.009.28474.0125.42526.0164.14047.004.28255.004.42525.004.15362 0 .30792-.001.46367-.004.15586-.004.31006-.01.46365-.0164zm-4.78872.823c0-.15362-.004-.28037-.0144-.38107-.01-.10062-.0326-.18173-.071-.24415-.0384-.0623-.0942-.108-.16738-.13758-.0731-.029-.17598-.0493-.30715-.0601v-.0659c.113.009.22459.0125.3347.0164.1095.004.22097.004.33469.004.1456 0 .29196-.009.4383-.0218.14641-.0144.30355-.0217.47234-.0217.15361 0 .31514.0164.48539.0493.17023.0326.32673.0884.46872.16738.14273.0789.26153.184.35716.31513.0949.13184.14273.29629.14273.49408 0 .16449-.0521.31367-.15649.447-.10437.1341-.23329.22601-.38685.27746v.01c.2521.0805.44915.20351.5897.3702.14046.16654.21154.38685.21154.66144 0 .16797-.037.30789-.11013.41944-.0731.1115-.17025.20146-.29052.2688-.121.0681-.25791.11525-.4115.14272-.1536.0275-.31079.0412-.47234.0412-.2521 0-.49986-.01-.7433-.0275-.2434-.0185-.49117-.0275-.74329-.0275-.084 0-.16942.002-.25498.006-.0863.004-.17107.009-.25502.0164v-.0651c.12753-.0125.22819-.0312.30137-.0608.0731-.029.12813-.0745.16448-.13697.037-.0623.0594-.14354.0687-.24413.01-.10062.0144-.22747.0144-.3818zm.49408.69112c.0986.0514.1992.0862.30137.10438.10213.0185.20648.0275.31298.0275.234 0 .42886-.0654.58391-.19489.15566-.12959.23326-.31733.23326-.56219 0-.12462-.0253-.23616-.0768-.3347-.0515-.0985-.11887-.184-.2029-.25501-.084-.0716-.18173-.12609-.29338-.1651-.1115-.0384-.2275-.0573-.34848-.0573-.0878 0-.17394.004-.25791.01-.084.009-.16798.0261-.25211.055zm0 1.71189c.0144.0298.0485.055.1015.0768.053.0217.11525.0412.18626.0579.0716.0164.14704.029.2282.0384.0805.009.1571.0144.23039.0144.29629 0 .5274-.0782.69402-.23326.16593-.15586.2492-.3818.2492-.67809 0-.1608-.0492-.3079-.14785-.44121-.0992-.13327-.21228-.24414-.34051-.3318-.0877.0144-.17537.0284-.26297.0406-.0876.0125-.17743.0205-.26878.0205-.11375 0-.22747-.006-.34049-.0205-.11375-.0125-.22313-.039-.32891-.079zm-3.32959-3.29186c.13184.009.2637.0125.39481.0164.13185.004.2637.004.39557.004.11662 0 .23255-.001.34847-.004.11525-.004.23109-.01.34773-.0164v.0659c-.1536.0217-.27963.0659-.37817.13185-.0986.0659-.14847.18481-.14847.35641 0 .0914.0144.24054.0412.447.0275.20648.0623.43252.10437.6781.0421.24487.0863.48974.13184.7346.0456.24559.0884.45349.12896.62593.0185.0731.0384.13697.0601.19201.0217.055.0528.1035.0934.14499.0399.0428.0971.0774.17024.10437.0731.0275.16963.0485.2905.063v.0659c-.14641-.009-.29195-.0125-.43611-.0164-.14499-.004-.28979-.006-.43613-.006-.13902 0-.2753.002-.4086.006-.13408.004-.2702.009-.40931.0164v-.0659c.0768-.01.14991-.0246.21953-.0406.0696-.0164.13122-.0413.184-.0745.053-.0326.0942-.0774.12325-.1341.0298-.0565.0441-.13266.0441-.22748 0-.0441-.002-.10287-.004-.176-.004-.0731-.0144-.1573-.0332-.25211l-.3789-2.21105h-.01c-.10212.26299-.21009.52379-.32311.7817-.11375.25791-.2253.51654-.3347.77663-.11013.25933-.21733.5216-.32165.78673-.10375.26589-.19858.53683-.28255.81503h-.01c-.17538-.56651-.37381-1.11276-.59479-1.63799-.22167-.52451-.45857-1.05047-.71067-1.57715h-.01c-.0297.20145-.0587.42454-.0884.6694-.029.24488-.0559.48393-.0791.71576-.0239.23254-.0435.44483-.0579.63679-.0144.19201-.0217.33544-.0217.43033 0 .121.009.22532.0246.31296.0164.0878.0485.1608.0957.21951.0479.0588.113.10225.19488.13184.0825.029.18975.047.32095.0544v.0659c-.1536-.009-.30356-.0125-.4499-.0164-.14641-.004-.29631-.006-.44987-.006-.113 0-.22531.002-.33689.006-.11237.004-.22457.009-.33759.0164v-.0659c.0768-.009.15279-.0217.22748-.0435.0745-.0217.14355-.0521.20575-.0906.0623-.0384.11437-.084.15647-.13698.0421-.0536.0687-.11662.0796-.18975.0217-.12752.0421-.26223.0601-.40278.0185-.14129.0361-.2811.055-.42019l.26299-1.95314c-.0768-.0623-.16819-.113-.27385-.1536-.10662-.0399-.21227-.0696-.31877-.0876v-.0659c.1573.009.3137.0125.46945.0164.15503.004.31152.004.46872.004.11375 0 .22604-.001.33761-.004.1115-.004.22384-.01.33759-.0164v.0659c-.0696.0185-.13327.0485-.19201.0905-.0587.0421-.0876.10862-.0876.20001 0 .0623.01.12325.0297.18112.0205.0587.0435.11888.0688.18113l.7737 1.8988c.18627-.38831.36369-.77663.53248-1.16639.16799-.38902.32167-.78892.46076-1.19896-.0406-.047-.0877-.0854-.14272-.11525-.055-.029-.1115-.053-.17024-.0711zm-5.85094 3.37422c.0326.009.0731.0144.121.0217.047.009.0985.0144.1536.0224.0544.009.1115.0144.16963.0185.0587.006.11375.009.16511.009.21951 0 .41583-.0185.5897-.055.17394-.037.33253-.0949.47743-.17599.14416-.0805.28035-.18256.40857-.30718.12835-.12387.25791-.27383.38978-.44987l.0601.0493-.49914 1.10335c-.0623-.009-.12608-.0125-.19201-.0164-.0659-.004-.1304-.006-.19201-.006h-2.06325c-.10575 0-.21225.002-.31804.006-.10662.004-.21225.01-.31875.0164v-.0659c.13184-.01.234-.0312.30789-.0601.0731-.0298.12752-.0754.1645-.13759.0361-.0622.0594-.14354.0681-.24412.01-.10063.0144-.22748.0144-.38107v-1.83287c0-.15361-.004-.28038-.0144-.38106-.009-.10063-.0319-.18175-.0681-.24415-.037-.0623-.0935-.108-.17025-.13698-.0768-.0298-.18113-.0499-.31296-.0607v-.0659c.12462.004.24268.009.35426.01.1115.004.22675.006.34555.009.11887.001.24487.002.37889.002h.45207c.25645 0 .51219-.002.76866-.006.25573-.004.51579-.009.77878-.0164-.004.0406-.006.0805-.009.121-.002.0405-.002.0789-.002.11525v.2195c0 .0805.004.16163.01.24414.009.0825.0144.17311.0217.27169l-.071.0217c-.0479-.17538-.11088-.31875-.18914-.43033-.079-.1115-.17024-.19857-.27459-.2608-.10437-.0623-.21876-.10437-.34265-.12609-.12462-.0224-.25645-.0333-.39556-.0333-.25574 0-.51219.01-.76791.0333v1.37138c.0731 0 .14354-.001.21154-.004.0674-.004.13758-.006.21081-.006.25284 0 .4528-.0499.60129-.15074.14786-.10062.23836-.28472.27095-.55204h.0659c0 .13184-.001.2637-.004.39555-.004.13184-.006.26153-.006.38975 0 .13123.002.26299.006.39483s.004.26297.004.39484h-.0659c-.0326-.1536-.0731-.27892-.12038-.37599-.0479-.0962-.10725-.17106-.17825-.22169-.0716-.0514-.16017-.0863-.2666-.10425-.10575-.0185-.23182-.0275-.37816-.0275h-.35136zm-1.66685-2.33172c-.0479-.1175-.10862-.23328-.184-.34848-.0745-.11525-.16161-.21732-.26006-.30715-.0991-.0897-.20864-.16162-.32964-.21661-.12037-.055-.2521-.0826-.39482-.0826-.20864 0-.37963.0384-.51291.11525-.1341.0768-.20064.21444-.20064.4115 0 .1175.0304.21879.0906.30499.0607.0854.14129.16163.24198.22748.1.0659.21442.1261.34265.18112.12815.055.25864.11088.39195.16738.1341.0565.26442.11812.39265.184.12814.0651.24196.14416.34265.23543.10062.0914.18112.19777.24126.31804.0607.121.0906.26588.0906.43396 0 .17887-.0326.33327-.0986.46367-.0659.12957-.15422.23687-.26587.32092-.1115.084-.24125.14643-.38975.18626-.14787.0406-.30645.0607-.47453.0607-.0911 0-.18687-.009-.28544-.0261-.0986-.0164-.19406-.0355-.28542-.0565-.0914-.021-.17456-.0399-.24923-.0565-.0754-.0164-.13471-.0261-.17825-.0261-.0406 0-.079.006-.11525.0205-.037.0125-.0754.0269-.116.0412-.0326-.20863-.071-.41292-.11525-.61215-.0435-.19918-.0891-.4028-.13697-.61145l.0716-.0384c.0651.12814.14499.26154.23834.40064.0934.13902.19859.26587.31589.38105.11662.11525.24559.21155.38614.28835.14128.0768.29411.11525.45856.11525.10575 0 .20864-.0125.30717-.0355.0985-.0239.18544-.0616.2608-.11238.0745-.0514.1341-.11812.17825-.20064.0435-.082.0659-.18317.0659-.30353 0-.17168-.0536-.31515-.15936-.43033-.10575-.11525-.23763-.21517-.39484-.30139-.1571-.0854-.32819-.16511-.5129-.23833-.18483-.0731-.35645-.15505-.51365-.24633-.1573-.0911-.28834-.1992-.39484-.32309-.10575-.12387-.15874-.2811-.15874-.47162 0-.14211.0269-.27168.082-.38831.055-.1175.12897-.21662.2224-.29849.0934-.0825.20145-.1456.32383-.18914.12237-.0441.25284-.0659.39195-.0659.13554 0 .25716.009.36512.0275.108.0185.21298.0384.31513.0601.10662.0217.21081.0428.31296.063.10213.0205.21228.0304.3289.0304 0 .16448.002.32456.009.47958.004.15587.0164.31225.0355.46945zm-3.22382 0c-.0479-.1175-.10863-.23328-.184-.34848-.0745-.11525-.16161-.21732-.26006-.30715-.0991-.0897-.20865-.16162-.32964-.21661-.12038-.055-.2521-.0826-.39483-.0826-.20863 0-.37962.0384-.51292.11525-.1341.0768-.20064.21444-.20064.4115 0 .1175.0304.21879.0906.30499.0608.0854.14128.16163.24197.22748.1.0659.21444.1261.34266.18112.12815.055.25863.11088.39195.16738.1341.0565.26442.11812.39264.184.12815.0651.24198.14416.34266.23543.10063.0914.18113.19777.24125.31804.0607.121.0906.26588.0906.43396 0 .17887-.0326.33327-.0986.46367-.0659.12957-.15422.23687-.26587.32092-.1115.084-.24126.14643-.38975.18626-.14786.0406-.30646.0607-.47453.0607-.0911 0-.18687-.009-.28545-.0261-.0985-.0164-.19343-.0355-.28542-.0565-.0914-.021-.17455-.0399-.24923-.0565-.0754-.0164-.13471-.0261-.17825-.0261-.0406 0-.079.006-.11525.0205-.037.0125-.0754.0269-.116.0412-.0326-.20863-.071-.41292-.11525-.61215-.0435-.19918-.0891-.4028-.13697-.61145l.0716-.0384c.0651.12814.14499.26154.23834.40064.0934.13902.19859.26587.31589.38105.11662.11525.24559.21155.38612.28835.14129.0768.29412.11525.45857.11525.10575 0 .20865-.0125.30717-.0355.0986-.0239.18544-.0616.26081-.11238.0745-.0514.1341-.11812.17825-.20064.0435-.082.0659-.18317.0659-.30353 0-.17168-.0536-.31515-.15935-.43033-.10575-.11525-.23763-.21517-.39485-.30139-.1571-.0854-.32818-.16511-.5129-.23833-.18481-.0731-.35644-.15505-.51291-.24633-.15793-.0911-.28907-.1992-.39557-.32309-.10575-.12387-.15875-.2811-.15875-.47162 0-.14211.0269-.27168.082-.38831.055-.1175.12898-.21662.22242-.29849.0934-.0825.20145-.1456.32382-.18914.12238-.0441.25284-.0659.39195-.0659.13553 0 .25716.009.36513.0275.108.0185.21297.0384.31511.0601.10662.0217.21082.0428.31297.063.102.0205.21228.0304.3289.0304 0 .16448.002.32456.009.47958.004.15587.0164.31225.0355.46945zm-5.34569.96012-.36222.99324c-.01.029-.021.0544-.0304.0768-.009.0217-.0125.0456-.0125.071 0 .0659.0185.12325.0573.17025.0384.0479.0849.0869.13985.11812.055.0312.1115.0559.17024.0739.0587.0185.108.0312.14786.0384v.0659c-.1095-.009-.21951-.0125-.3289-.0164-.1095-.004-.22096-.004-.3347-.004-.1095 0-.21662.001-.32095.004-.10437.004-.21515.01-.3318.0164v-.0659c.113-.0252.20722-.0645.28257-.11812.0745-.0528.13758-.11588.18912-.18914.0514-.0731.0962-.1536.13473-.24122.0384-.0876.0754-.17888.11237-.27457l.94904-2.33205c.01-.0252.021-.0493.0304-.071.009-.0217.0144-.0421.0144-.0601 0-.0185-.006-.0456-.0205-.0825-.0125-.0361-.0284-.0696-.0464-.0986.0949-.0185.17743-.0421.24705-.0716.0688-.029.14642-.0601.23037-.0935l1.14102 3.13835c.0514.14272.12238.25574.21373.33759.092.0825.22674.13472.40642.15648v.0659c-.14643-.009-.28979-.0125-.43107-.0164-.14047-.004-.2876-.004-.44119-.004h-.25791c-.0731 0-.13903.00072-.19775.003-.0588.001-.11438.004-.16738.009-.0528.004-.11087.009-.17311.01v-.0659c.15361-.0185.28327-.0573.38685-.11813.10437-.0601.15649-.14128.15649-.24415 0-.029-.006-.0579-.0185-.0876-.0125-.029-.0233-.0565-.0304-.082l-.35642-1.00989zm.5926-1.5583-.53753 1.39385h1.03162z"/><path d="m349.58919 180.79736c-.19057-.004-2.42686-.0571-4.61524-.01-2.22333.0464-4.92719.56137-4.92719.56137 1.34603.37455 3.06583.64416 3.06583.64416.84326.74909 1.8964 1.12383 1.8964 1.12383s1.33878.50581 2.32831.87867c.004.57682-.0164 2.8134-.49347 8.50673l.4924.086s1.01775-2.01639 1.65231-7.96973c1.59211.60045 3.13218 1.1796 3.25583 1.2289-.024.81259.0467 2.58765.55181 6.54028l.54017.0721c-3.27023.29195-6.24382.58054-7.28525.72268-2.31247.31585-5.37293 1.12383-5.37293 1.12383.42164.10575 2.8096.106 4.14405.0351 1.33446-.0696 3.1252-.27996 3.79171-.3502.66722-.0702 13.93992-1.20574 16.36395-1.29999 2.73845-.10512 12.78158-.38519 17.31161-.17517 4.52931.21082 6.77797-.2462 6.77797-.2462s-2.08948-.5527-6.11683-.79484c-.0684-.85093-.27014-3.7715-.1571-7.21202.26975-.10838 1.52071-.59535 1.52071-.59535 1.64957-.56147 2.55222-1.61517 2.55222-1.61517.7259-.12813 2.50449-.63247 2.50449-.63247-3.49916-.51503-6.10931-.40891-6.82364-.36189-.28786.0185-1.37041.0553-2.37181.0891-.83202-1.60787-6.48684-12.12888-15.48312-18.96211 0 0-8.90474 6.2356-15.10319 18.61239zm29.73317.37886c-1.06753.0345-2.11476.0677-2.11923.068-5.25399-10.32568-12.91288-14.96951-12.91288-14.96951s-1.636.80583-4.08143 3.05525c1.30416-1.28768 2.72246-2.65089 4.29261-4.10377 0 0 6.8037 5.57078 14.82093 15.95003zm-13.95073-12.24325c.0511.22497 1.206 5.31505 2.30496 11.53542-.65047-.21425-.92249-.4346-1.08349-.56988-.22315-.1877-1.0538-1.20554-1.0538-1.20554-1.96348.30806-3.30243.89072-3.987 1.2119.1339-1.01113.89042-6.58158 1.91232-10.84455l-1.96643 1.31272s-.28181 2.26615-1.30741 10.09217c-.40979.15463-.74923.2759-.74923.2759-.3973.0633-5.0793.0614-7.60147.0584 4.28015-5.60731 12.2358-12.98718 12.2358-12.98718.36889.29026.81445.68121 1.29575 1.12064zm11.79647 12.31116c-3.45326.0577-3.84775-.0125-4.81578-.0466-.83577-.0306-2.00039-.17703-3.18048-.38735-.25779-1.08518-1.60906-6.82967-2.12137-10.26942 4.1992 4.12253 9.91642 10.47912 10.11763 10.70337zm-19.12735-9.73665c-.34265.37505-.6906.76503-1.04955 1.18961-3.22082 3.81075-4.79098 6.89085-5.34426 8.1024-.58607-.00082-1.74727.00012-1.79771 0 .4006-.54582 2.85485-3.82156 8.19152-9.29201zm10.09747 10.68431c.75415.22314 3.67581.52679 3.83948.5391.16449.0125 2.07179.07 4.24805.07 2.177 0 7.37438-.26953 7.37438-.26953-2.11833.79618-6.41452 2.49384-7.11652 2.49384-.50277 0-2.79736-.83198-2.79736-.83198l-4.52926-1.61519c-1.66264-.67881-3.41817-.24514-3.41817-.24514 1.3924.99397 2.75086 1.41548 2.98412 1.48572.23401.071 2.21216.77321 3.5466 1.28831 1.33445.51435 3.37147 1.09941 3.37147 1.09941.0244.006.0725.009.10288.0125-.002.729.0879 2.15377.49984 5.00895l.96995.11562c-4.12276-.002-8.80515.113-11.8612.23134-.0659-1.36005-.22189-5.19021-.10825-9.52227l-.0425.0125c-.0252.002-.102.01-.22391.01-.14048 0-.6206-.0351-1.15887-.0351-.53826 0-1.33393.16449-1.33393.16449-.46872.11663-3.10269.92421-3.73442 1.11109-.63173.1877-4.46003 1.21717-4.89326 1.31061-.43325.0936-.7832.11788-.7832.11788l-6.50841-2.4461 5.68916.0584 6.41398-.0584c.64332.0125 1.15886-.07 1.15886-.07.234-.0355 1.96644-.74923 1.96644-.74923 1.89591-.88964 3.1837-1.1238 3.1837-1.1238.5847 1.21783 1.93095 1.47476 3.16035 1.83698zm-4.13557.72482c-.0355.8524-.0185 3.07093.37569 8.70197-2.39111.116-6.45785.4346-10.27046.76937-.0411-.41437-.28926-3.12116-.20586-6.43522 2.19991-.44821 7.70321-2.10992 8.96833-2.53205.42497-.14191.80302-.3216 1.1323-.50407zm17.54509 8.48973c-1.19978-.044-2.60371-.061-4.11116-.0636-.009-.07-.26844-2.35522-.20063-5.12038.87311-.20586 2.45765-.78426 3.77797-1.28305-.002.70204.0862 2.41043.53382 6.46703z" fill="#c9af41"/></g></svg>